<?xml version="1.0" encoding="UTF-8"?>
<svg width="30px" height="30px" viewBox="0 0 30 30" version="1.1" xmlns="http://www.w3.org/2000/svg" xmlns:xlink="http://www.w3.org/1999/xlink">
    <title>编组 5</title>
    <defs>
        <linearGradient x1="0%" y1="0%" x2="100%" y2="100%" id="linearGradient-1">
            <stop stop-color="#EB979D" offset="0%"></stop>
            <stop stop-color="#CF0010" offset="100%"></stop>
        </linearGradient>
        <rect id="path-2" x="0" y="0" width="30" height="30" rx="5"></rect>
    </defs>
    <g id="页面-1" stroke="none" stroke-width="1" fill="none" fill-rule="evenodd">
        <g id="SDSF-首页" transform="translate(-1296.000000, -1694.000000)">
            <g id="场景" transform="translate(0.000000, 1382.000000)">
                <g id="编组-16备份" transform="translate(360.000000, 0.000000)">
                    <g id="编组-21备份-3" transform="translate(915.000000, 142.000000)">
                        <g id="编组-5" transform="translate(21.000000, 170.000000)">
                            <g id="矩形">
                                <use fill="#CF0010" xlink:href="#path-2"></use>
                                <use fill="url(#linearGradient-1)" xlink:href="#path-2"></use>
                            </g>
                            <g id="行业" transform="translate(7.000000, 7.000000)" fill-rule="nonzero">
                                <rect id="矩形" fill="#000000" opacity="0" x="0" y="0" width="15.9843902" height="15.9843902"></rect>
                                <path d="M6.20518825,1.05976507 C5.52222034,0.382564827 4.59988626,0.00180051092 3.63809517,-4.4408921e-16 C2.67903176,-4.4408921e-16 1.74234649,0.386822244 1.0422302,1.09013541 C0.370885807,1.769472 -0.0047473639,2.68537756 2.50875648e-06,3.63964566 C-0.00481070539,4.60620252 0.380106601,5.53392237 1.06780522,6.21313249 L1.0710021,6.21473093 C1.74980106,6.89875679 2.67442979,7.28219561 3.63809517,7.2793077 L6.71189342,7.2793077 C7.02289636,7.2793077 7.27526136,7.02764247 7.27614239,6.71664078 L7.27614239,3.63964566 C7.27614239,2.67259005 6.89091859,1.74549541 6.20518825,1.05976507 L6.20518825,1.05976507 Z M9.7792979,1.05976507 C10.4618753,0.381977232 11.3844621,0.00110858591 12.346391,0 C13.3054544,0 14.2421397,0.386822244 14.942256,1.09013541 C15.6136003,1.769472 15.9892335,2.68537756 15.9844836,3.63964566 C15.9892969,4.60620252 15.6043795,5.53392237 14.9166809,6.21313249 L14.9134841,6.21473093 C14.2346851,6.89875679 13.3100564,7.28219561 12.346391,7.2793077 L9.27259273,7.2793077 C8.96158979,7.2793077 8.70922479,7.02764247 8.70834376,6.71664078 L8.70834376,3.63964566 C8.70834376,2.67259005 9.09356756,1.74549541 9.7792979,1.05976507 L9.7792979,1.05976507 Z M6.20518825,14.9246252 C5.52261081,15.602413 4.60002401,15.9832817 3.63809517,15.9843902 C2.67903176,15.9843902 1.74234649,15.597568 1.0422302,14.8942548 C0.370739832,14.2160829 -0.00410102155,13.2991026 2.50875648e-06,12.3447446 C-0.00481070539,11.3781877 0.380106601,10.4504679 1.06780522,9.77125776 L1.0710021,9.76965932 C1.74980106,9.08563345 2.67442979,8.70219464 3.63809517,8.70508255 L6.71189342,8.70508255 C7.02358903,8.70508255 7.27614239,8.95925073 7.27614239,9.26774946 L7.27614239,12.3447446 C7.27614239,13.3118002 6.89091859,14.2388948 6.20518825,14.9246252 L6.20518825,14.9246252 Z M9.7792979,14.9246252 C10.4618753,15.602413 11.3844621,15.9832817 12.346391,15.9843902 C13.3054544,15.9843902 14.2421397,15.597568 14.942256,14.8942548 C15.6136003,14.2149182 15.9892335,13.2990127 15.9844836,12.3447446 C15.9892969,11.3781877 15.6043795,10.4504679 14.9166809,9.77125776 L14.9134841,9.76965932 C14.2346851,9.08563345 13.3100564,8.70219464 12.346391,8.70508255 L9.27259273,8.70508255 C8.96158979,8.70508255 8.70922479,8.95674777 8.70834376,9.26774946 L8.70834376,12.3447446 C8.70834376,13.3118002 9.09356756,14.2388948 9.7792979,14.9246252 L9.7792979,14.9246252 Z" id="形状" fill="#FFFFFF"></path>
                            </g>
                        </g>
                    </g>
                </g>
            </g>
        </g>
    </g>
</svg>