<?xml version="1.0" encoding="UTF-8"?>
<svg width="30px" height="30px" viewBox="0 0 30 30" version="1.1" xmlns="http://www.w3.org/2000/svg" xmlns:xlink="http://www.w3.org/1999/xlink">
    <title>编组 5</title>
    <defs>
        <linearGradient x1="0%" y1="0%" x2="100%" y2="100%" id="linearGradient-1">
            <stop stop-color="#EB979D" offset="0%"></stop>
            <stop stop-color="#CF0010" offset="100%"></stop>
        </linearGradient>
        <rect id="path-2" x="0" y="0" width="30" height="30" rx="5"></rect>
    </defs>
    <g id="页面-1" stroke="none" stroke-width="1" fill="none" fill-rule="evenodd">
        <g id="SDSF-首页" transform="translate(-991.000000, -1694.000000)">
            <g id="场景" transform="translate(0.000000, 1382.000000)">
                <g id="编组-16备份" transform="translate(360.000000, 0.000000)">
                    <g id="编组-21备份-2" transform="translate(610.000000, 142.000000)">
                        <g id="编组-5" transform="translate(21.000000, 170.000000)">
                            <g id="矩形">
                                <use fill="#CF0010" xlink:href="#path-2"></use>
                                <use fill="url(#linearGradient-1)" xlink:href="#path-2"></use>
                            </g>
                            <g id="指数上升" transform="translate(6.000000, 6.000000)" fill-rule="nonzero">
                                <rect id="矩形" fill="#000000" opacity="0" x="0" y="0" width="18" height="18"></rect>
                                <path d="M9.37891329,0.763546957 C9.16988498,0.52591667 8.82725483,0.52591667 8.61829847,0.763546957 L2.3607967,7.89324725 C2.15180436,8.13082358 2.24311484,8.3260366 2.56514796,8.3260366 L4.9046101,8.3260366 C5.22669718,8.3260366 5.48956557,8.58259097 5.48956557,8.89715879 L5.48956557,13.4659025 C5.48956557,13.7803983 5.75223609,14.0370247 6.07432317,14.0370247 L11.9228886,14.0370247 C12.2448857,14.0370247 12.5076821,13.7803983 12.5076821,13.4659025 L12.5076822,8.89715879 C12.5076822,8.58259097 12.7704606,8.3260366 13.0925117,8.3260366 L15.4318659,8.3260366 C15.754025,8.3260366 15.8453894,8.13082358 15.6364511,7.89324725 L9.37891329,0.763546957 Z M7.82890179,16.3213695 C7.82890179,16.9526638 7.30573738,17.463506 6.65915273,17.463506 C6.01267602,17.463506 5.48954759,16.9526638 5.48954759,16.3213695 C5.48954759,15.6900213 6.01267602,15.1791251 6.65915273,15.1791251 C7.30573738,15.1791251 7.82890179,15.6900213 7.82890179,16.3213695 Z M12.5076642,16.3213695 C12.5076642,16.9526638 11.9845537,17.463506 11.3378791,17.463506 C10.6914204,17.463506 10.168292,16.9526638 10.168292,16.3213695 C10.168292,15.6900213 10.6914204,15.1791251 11.3378791,15.1791251 C11.9845537,15.1791251 12.5076642,15.6900213 12.5076642,16.3213695 Z M6.65915273,15.1791251 L11.3378791,15.1791251 L11.3378791,17.463506 L6.65915273,17.463506 L6.65915273,15.1791251 Z" id="形状" fill="#FFFFFF"></path>
                            </g>
                        </g>
                    </g>
                </g>
            </g>
        </g>
    </g>
</svg>