<?xml version="1.0" encoding="UTF-8"?>
<svg width="760px" height="520px" viewBox="0 0 760 520" version="1.1" xmlns="http://www.w3.org/2000/svg" xmlns:xlink="http://www.w3.org/1999/xlink">
    <!-- Generator: Sketch 63.1 (92452) - https://sketch.com -->
    <title>实时数据处理 </title>
    <desc>Created with Sketch.</desc>
    <defs>
        <linearGradient x1="17.6900477%" y1="38.6252655%" x2="79.5701835%" y2="66.1527651%" id="linearGradient-1">
            <stop stop-color="#FEFEFF" offset="0%"></stop>
            <stop stop-color="#F1F6FF" offset="100%"></stop>
        </linearGradient>
        <polygon id="path-2" points="59.6418024 5.25474177 68.989508 24.8584056 43.8412129 39.2122249 9.34770557 33.9574831 0 14.3538193 25.1482951 0"></polygon>
        <linearGradient x1="7.91638298%" y1="26.9510162%" x2="84.6553144%" y2="73.0489838%" id="linearGradient-4">
            <stop stop-color="#828BB3" offset="0%"></stop>
            <stop stop-color="#555A6F" offset="100%"></stop>
        </linearGradient>
        <linearGradient x1="8.47881783%" y1="29.7118337%" x2="90.0499111%" y2="69.6256327%" id="linearGradient-5">
            <stop stop-color="#818BB3" offset="0%"></stop>
            <stop stop-color="#555A6F" offset="100%"></stop>
        </linearGradient>
        <linearGradient x1="89.6825935%" y1="56.3705861%" x2="12.7066116%" y2="44.4094202%" id="linearGradient-6">
            <stop stop-color="#A5B4CC" offset="0%"></stop>
            <stop stop-color="#C5CFE1" offset="100%"></stop>
        </linearGradient>
        <linearGradient x1="17.6900477%" y1="38.6252655%" x2="79.5701835%" y2="66.1527651%" id="linearGradient-7">
            <stop stop-color="#FEFEFF" offset="0%"></stop>
            <stop stop-color="#F1F6FF" offset="100%"></stop>
        </linearGradient>
        <polygon id="path-8" points="60.0371362 5.28957266 69.4468028 25.0231788 44.131813 39.4721419 9.40966655 34.1825693 1.31350264e-12 14.4489631 25.3149898 -5.66319085e-14"></polygon>
        <linearGradient x1="7.91638298%" y1="35.7777778%" x2="84.6553144%" y2="64.2222222%" id="linearGradient-10">
            <stop stop-color="#828BB3" offset="0%"></stop>
            <stop stop-color="#555A6F" offset="100%"></stop>
        </linearGradient>
        <linearGradient x1="8.47881783%" y1="37.4813219%" x2="90.0499111%" y2="62.1098661%" id="linearGradient-11">
            <stop stop-color="#818BB3" offset="0%"></stop>
            <stop stop-color="#555A6F" offset="100%"></stop>
        </linearGradient>
        <linearGradient x1="89.6825935%" y1="56.3705861%" x2="12.7066116%" y2="44.4094202%" id="linearGradient-12">
            <stop stop-color="#A5B4CC" offset="0%"></stop>
            <stop stop-color="#C5CFE1" offset="100%"></stop>
        </linearGradient>
        <linearGradient x1="17.6900477%" y1="38.7657998%" x2="79.5701835%" y2="65.9531985%" id="linearGradient-13">
            <stop stop-color="#FEFEFF" offset="0%"></stop>
            <stop stop-color="#F1F6FF" offset="100%"></stop>
        </linearGradient>
        <linearGradient x1="60.6556542%" y1="40.9510277%" x2="104.696508%" y2="52.7370757%" id="linearGradient-14">
            <stop stop-color="#8892BD" offset="0%"></stop>
            <stop stop-color="#555A6F" offset="100%"></stop>
        </linearGradient>
        <linearGradient x1="110.3739%" y1="50.0202296%" x2="12.9880218%" y2="50.0202296%" id="linearGradient-15">
            <stop stop-color="#CBD3E0" offset="0%"></stop>
            <stop stop-color="#90A1BD" offset="23.5389254%"></stop>
            <stop stop-color="#DCE0E8" offset="46.6385793%"></stop>
            <stop stop-color="#CAD1DC" offset="69.1553734%"></stop>
            <stop stop-color="#EBEEF2" offset="100%"></stop>
        </linearGradient>
        <polygon id="path-16" points="60.0371362 5.28957266 69.4468028 25.0231788 44.131813 39.4721419 9.40966655 34.1825693 1.31350264e-12 14.4489631 25.3149898 -5.66319085e-14"></polygon>
        <linearGradient x1="33.067575%" y1="0.0464891041%" x2="56.1810317%" y2="70.0125908%" id="linearGradient-18">
            <stop stop-color="#FEFEFF" offset="0%"></stop>
            <stop stop-color="#F1F6FF" offset="100%"></stop>
        </linearGradient>
        <linearGradient x1="33.0025906%" y1="0%" x2="63.9971468%" y2="100%" id="linearGradient-19">
            <stop stop-color="#828BB3" offset="0%"></stop>
            <stop stop-color="#555A6F" offset="100%"></stop>
        </linearGradient>
        <linearGradient x1="33.2297559%" y1="5.98902222%" x2="66.1760035%" y2="92.5737482%" id="linearGradient-20">
            <stop stop-color="#818BB3" offset="0%"></stop>
            <stop stop-color="#555A6F" offset="100%"></stop>
        </linearGradient>
    </defs>
    <g id="实时数据处理-" stroke="none" stroke-width="1" fill="none" fill-rule="evenodd">
        <polygon id="Combined-Shape" stroke="#CBCFDE" stroke-width="1.512" points="538.879145 424 98.5393312 169.235621 251.535056 80.2843819 694.722329 334.523014"></polygon>
        <g id="编组-7复制-2备份-5" transform="translate(361.489092, 35.000000)">
            <g id="dcs" transform="translate(0.509880, 0.475065)">
                <polygon id="Fill-1" fill="#F7FAFF" points="9.237375 34.4462296 9.15191158 48.826125 0 28.893281 0.0830216098 14.515875"></polygon>
                <g id="Fill-12">
                    <mask id="mask-3" fill="white">
                        <use xlink:href="#path-2"></use>
                    </mask>
                    <use id="Mask" fill="url(#linearGradient-1)" xlink:href="#path-2"></use>
                    <g id="编组-2" mask="url(#mask-3)" fill="url(#linearGradient-4)" stroke="url(#linearGradient-5)" stroke-width="0.3">
                        <g transform="translate(34.416363, 18.248429) rotate(-330.000000) translate(-34.416363, -18.248429) translate(15.916363, 5.748429)" id="形状结合">
                            <path d="M23.8301349,18.0079948 L24.0053378,18.0121766 C25.8951405,18.1080036 26.548784,19.8325988 25.4724867,21.6478939 C24.5047599,23.2800727 22.459249,24.5651562 20.7741097,24.5688824 C19.1104911,24.5725162 18.322847,23.3743937 18.7111585,21.9089144 L15.6948578,21.9149763 C14.9372527,21.9166229 14.2800714,21.6311053 13.2477118,20.9467633 L12.1578341,20.196714 C11.160702,19.5193761 10.6781176,19.2894099 10.2109555,19.2904341 L0.958895721,19.3107709 L0.956206324,18.0867739 L10.2082646,18.0664208 C11.0550716,18.0645804 11.6820422,18.3778489 13.0519963,19.3255057 L13.4805373,19.6243875 C14.5799998,20.3902694 15.1741867,20.6921005 15.692167,20.6909649 L19.2872026,20.6833427 C20.3061334,19.1696926 22.2305046,18.0115242 23.8301349,18.0079948 L23.8301349,18.0079948 Z M23.8328245,19.2319868 L23.6539505,19.2393624 C22.4440018,19.3344675 20.905517,20.3373458 20.1846214,21.5532164 C19.5196572,22.6747525 19.7953266,23.3470131 20.7714202,23.3448821 C22.0043613,23.3421568 23.6626937,22.3003166 24.4196341,21.0236525 C25.0845983,19.9021164 24.808929,19.2298558 23.8328245,19.2319868 L23.8328245,19.2319868 Z M19.0303401,12.7454239 L19.1858746,12.7499569 C20.6048038,12.8372939 21.1057959,14.170625 20.3133017,15.5072547 C19.633719,16.6534464 18.2162852,17.5436502 17.0178301,17.5463006 C15.8506389,17.5488502 15.2429818,16.7531836 15.3775748,15.7639062 L0.843051062,15.7956112 L0.840361674,14.5716141 L15.8948921,14.5381249 C16.619954,13.5132007 17.9192599,12.7478753 19.0303401,12.7454239 L19.0303401,12.7454239 Z M19.0330297,13.9694178 L18.8802392,13.9782064 C18.1518399,14.0579738 17.2252481,14.6707858 16.7877322,15.408705 C16.4109679,16.04416 16.525563,16.3233688 17.0151405,16.3223005 C17.7614758,16.3206507 18.791682,15.673641 19.2604491,14.8830132 C19.6372134,14.2475583 19.5226183,13.9683495 19.0330297,13.9694178 L19.0330297,13.9694178 Z M34.2652606,0.40799487 L34.4404634,0.41217663 C36.3302661,0.508003655 36.9839097,2.23259882 35.9076124,4.04789389 C34.9398856,5.68007269 32.8943747,6.96515616 31.2092354,6.96888233 C29.5456168,6.97251616 28.7579726,5.77439373 29.1462841,4.30891444 L23.4865451,4.3207618 C22.2497874,4.32347923 21.3150723,4.89181339 20.524216,6.22568053 L19.7683617,7.49799487 L22.7123861,7.49231661 C23.3962863,6.52557744 24.5910814,5.78979881 25.6569257,5.70731697 L25.8478341,5.6996157 L26.0033685,5.70414875 C27.4222978,5.79148561 27.9232898,7.12481673 27.1307955,8.46144653 C26.4512129,9.60763821 25.0337792,10.497842 23.8353241,10.5004923 C22.6677518,10.5030428 22.0600791,9.70685577 22.1952009,8.71712897 L19.0413617,8.72399487 L18.4371909,9.74568054 C17.509479,11.3103698 15.9494568,12.2470047 14.3849991,12.2504421 L1.16778036,12.2794833 L1.16509097,11.0554863 L14.3823097,11.0264451 C15.5049737,11.0239784 16.6716126,10.3235302 17.3843383,9.1214391 L17.6173617,8.72699487 L5.45767528,8.75464311 L5.45498589,7.53064607 L18.3443617,7.50099487 L19.4713634,5.60143909 C20.4281645,3.98768765 21.6768863,3.1792859 23.246071,3.10276324 L23.6398477,3.096422 L29.7223282,3.08334276 C30.741259,1.56969261 32.6656303,0.411524115 34.2652606,0.40799487 L34.2652606,0.40799487 Z M25.8505237,6.92360967 L25.6977331,6.93239823 C24.9693338,7.01216567 24.0427421,7.62497761 23.6052262,8.36289679 C23.2284619,8.99835183 23.3430569,9.27756056 23.8326345,9.27649222 C24.5789698,9.27484246 25.6091759,8.62783278 26.0779429,7.83720509 C26.4547073,7.20175002 26.3401123,6.92254127 25.8505237,6.92360967 L25.8505237,6.92360967 Z M34.2679501,1.63198684 L34.0890761,1.63936249 C32.8791275,1.73446747 31.3406427,2.73734586 30.6197471,3.95321646 C29.9547829,5.07475252 30.2304523,5.74701308 31.2065459,5.74488209 C32.439487,5.74215679 34.0978194,4.70031661 34.8547598,3.42365245 C35.519724,2.30211637 35.2440546,1.62985583 34.2679501,1.63198684 L34.2679501,1.63198684 Z"></path>
                        </g>
                    </g>
                </g>
                <polygon id="Fill-6" fill="url(#linearGradient-6)" points="68.6205 25.072875 68.5362631 39.4844466 43.547625 54.104625 43.6318619 39.6955483"></polygon>
                <g id="Group-7" transform="translate(56.743875, 36.949500)" fill="#8494B2">
                    <polygon id="Fill-6" points="10.0821717 0 10.0746444 2.36370986 7.84168907 3.58804672 7.84921639 1.22453017"></polygon>
                    <polygon id="Fill-6-Copy" points="5.60120648 2.39203115 5.59367917 4.75574101 3.36072389 5.98007787 3.3682512 3.61656131"></polygon>
                    <polygon id="Fill-6-Copy-2" opacity="0.369810268" points="2.24048259 4.7840623 2.23295528 7.14777216 -1.05616891e-12 8.37210902 0.00752731306 6.00859246"></polygon>
                </g>
                <polygon id="Fill-8" fill="#D1DAE8" points="43.547625 39.6727867 43.4635131 54.104625 9.237375 48.7445872 9.32396082 34.31025"></polygon>
                <g id="Group-7-Copy" transform="translate(29.031750, 47.506500)" fill="#A0AABE">
                    <polygon id="Fill-6" points="10.0821717 1.37919829 10.0746444 3.4599022 7.84168907 3.23383448 7.84921639 1.15330073"></polygon>
                    <polygon id="Fill-6-Copy" opacity="0.431863839" points="5.60120648 0.677435462 5.59367917 3.71027233 3.36072389 3.28295898 3.3682512 0.250370136"></polygon>
                    <polygon id="Fill-6-Copy-2" points="2.24048259 0.367616185 2.23295528 3.4599022 1.05616891e-12 3.09203313 0.00752731306 0"></polygon>
                </g>
                <polyline id="Mask" stroke="#7D849E" stroke-width="1.21176" opacity="0.401729911" points="68.6205 25.1110911 43.606717 39.58875 9.29770698 34.2886722 0 14.515875"></polyline>
                <polyline id="Mask" stroke="#7D849E" stroke-width="1.21176" opacity="0.401729911" points="68.6205 33.0288411 43.606717 47.5065 9.29770698 42.2064222 0 22.433625"></polyline>
                <path d="M44.3188798,40.132125 L44.2609484,54.104625 M8.46531224,48.28275 L8.52485963,34.31025" id="Fill-8" stroke="#7D849E" stroke-width="1.21176" opacity="0.401729911"></path>
                <path d="M24.9115017,-0.708813718 L-0.68,14.1725502 L-0.68,29.0848331 L8.8200272,49.3783247 L43.7281748,54.8136216 L69.3005,39.9336577 L69.3005,25.018734 L59.8369719,4.69830084 L24.9115017,-0.708813718 Z" id="Path-11" stroke="#555A6F" stroke-width="1.36" stroke-linecap="round" stroke-linejoin="round"></path>
            </g>
        </g>
        <polygon id="Fill-4-Copy-4" fill="#3A51C6" fill-rule="nonzero" opacity="0.6" points="358.830042 85.0638064 273.823223 134.49803 269.590087 132.007783 268.489092 140.610185 283.595503 139.957764 279.209747 137.555601 364.216565 88.1213764"></polygon>
        <path d="M341.617079,267 L347.003602,270.05757 L211.176092,348.138 L327.787402,415.726672 L331.454833,413.619039 L332.520797,422.334233 L317.465138,421.658767 L322.409948,418.817038 L201.992172,349.021794 L202.027092,349.001 L200.489092,348.128799 L341.617079,267 Z" id="形状结合" fill="#3A51C6" fill-rule="nonzero" opacity="0.6"></path>
        <g id="编组-7复制-2备份-6" transform="translate(200.489092, 130.000000)">
            <g id="dcs">
                <polygon id="Fill-1" fill="#F7FAFF" points="9.29860465 34.6745553 9.21257474 49.1497674 0 29.0847992 0.083571916 14.612093"></polygon>
                <g id="Fill-12">
                    <mask id="mask-9" fill="white">
                        <use xlink:href="#path-8"></use>
                    </mask>
                    <use id="Mask" fill="url(#linearGradient-7)" xlink:href="#path-8"></use>
                    <path d="M30.4696344,21.043512 L31.6410175,29.1942678 L30.2019519,29.2228307 L29.145352,21.8707628 L15.3954876,21.9140787 L15.3193663,21.0912395 L30.4696344,21.043512 Z M28.6753289,8.11469755 L30.0329963,16.3580924 L14.7023144,16.4920355 L14.612093,15.6692802 L28.4557573,15.548329 L27.2377784,8.15308626 L28.6753289,8.11469755 Z M54.3730344,20.7693851 L54.4632558,21.5921405 L40.6115613,21.7131618 L41.7011562,29.1947222 L40.2622209,29.224186 L39.0503828,20.9032581 L54.3730344,20.7693851 Z M53.4929114,15.2795445 L53.5952693,16.1021646 L38.4704422,16.307162 L37.2605648,7.99969642 L38.6995001,7.97023256 L39.7910555,15.4652554 L53.4929114,15.2795445 Z" id="形状结合" stroke="url(#linearGradient-11)" stroke-width="0.51" fill="url(#linearGradient-10)" mask="url(#mask-9)"></path>
                </g>
                <polygon id="Fill-6" fill="url(#linearGradient-12)" points="69.0753488 25.2390698 68.9905535 39.746168 43.8362791 54.4632558 43.9210744 39.958669"></polygon>
                <g id="Group-7" transform="translate(57.120000, 37.194419)" fill="#8494B2">
                    <polygon id="Fill-6" points="10.149001 0 10.1414238 2.37937764 7.89366746 3.61182998 7.90124467 1.23264693"></polygon>
                    <polygon id="Fill-6-Copy" points="5.6383339 2.40788665 5.63075669 4.78726429 3.38300034 6.01971663 3.39057755 3.64053358"></polygon>
                    <polygon id="Fill-6-Copy-2" opacity="0.369810268" points="2.25533356 4.8157733 2.24775635 7.19515094 -1.34754953e-12 8.42760328 0.00757720761 6.04842023"></polygon>
                </g>
                <polygon id="Fill-8" fill="#D1DAE8" points="43.8362791 39.9357565 43.7516096 54.4632558 9.29860465 49.0676892 9.3857644 34.5376744"></polygon>
                <g id="Group-7-Copy" transform="translate(29.224186, 47.821395)" fill="#A0AABE">
                    <polygon id="Fill-6" points="10.149001 1.38834026 10.1414238 3.48283605 7.89366746 3.25526985 7.90124467 1.16094535"></polygon>
                    <polygon id="Fill-6-Copy" opacity="0.431863839" points="5.6383339 0.681925822 5.63075669 3.73486576 3.38300034 3.30471997 3.39057755 0.252029707"></polygon>
                    <polygon id="Fill-6-Copy-2" points="2.25533356 0.370052918 2.24775635 3.48283605 1.06874523e-12 3.11252857 0.00757720762 2.01345607e-13"></polygon>
                </g>
                <polyline id="Mask" stroke="#7D849E" stroke-width="1.02" opacity="0.401729911" points="69.0753488 25.2775392 43.8957627 39.8511628 9.35933654 34.5159536 0 14.612093"></polyline>
                <polyline id="Mask" stroke="#7D849E" stroke-width="1.02" opacity="0.401729911" points="69.0753488 33.2477717 43.8957627 47.8213953 9.35933654 42.4861862 0 22.5823256"></polyline>
                <path d="M44.6126461,40.3981395 L44.5543307,54.4632558 M8.5214243,48.6027907 L8.5813664,34.5376744" id="Fill-8" stroke="#7D849E" stroke-width="1.02" opacity="0.401729911"></path>
                <path d="M25.0775136,-0.708813718 L-0.68,14.2690855 L-0.68,29.2766182 L8.88155519,49.7015429 L44.01714,55.1722524 L69.7553488,40.1957645 L69.7553488,25.185568 L60.2305301,4.73352925 L25.0775136,-0.708813718 Z" id="Path-11" stroke="#555A6F" stroke-width="1.36" stroke-linecap="round" stroke-linejoin="round"></path>
            </g>
        </g>
        <polygon id="Combined-Shape备份" fill="#3A51C6" fill-rule="nonzero" opacity="0.6" points="507.262868 316.180065 428.66776 271.466436 434.16352 268.444642 512.640322 313.089699 516.307753 310.982066 517.373717 319.69726 502.318058 319.021794"></polygon>
        <polygon id="Combined-Shape备份-3" fill="#3A51C6" fill-rule="nonzero" opacity="0.6" points="347.084201 225.735423 268.489092 181.021794 273.984853 178 352.461655 222.645057 356.129086 220.537424 357.19505 229.252618 342.139391 228.577152"></polygon>
        <g id="Group-6备份" transform="translate(361.489092, 221.000000)">
            <ellipse id="Oval-2" fill="url(#linearGradient-13)" fill-rule="nonzero" cx="32.237005" cy="18.634395" rx="31.2601261" ry="17.657516"></ellipse>
            <g id="形状-2" transform="translate(12.903964, 5.435188)" fill="url(#linearGradient-14)" fill-rule="nonzero">
                <path d="M13.5773836,21.1744405 C11.4298723,20.6256444 9.48691233,19.8481071 7.81167079,18.8660632 C6.13336665,17.882224 4.82078409,16.7513287 3.90569658,15.5047979 C3.02018054,14.2979926 2.54287465,13.0330112 2.48526168,11.742174 C2.47752417,11.5489187 2.47868758,11.3576826 2.48846506,11.1650988 C1.65320432,11.0944816 0.823022238,10.9468757 0.0273973209,10.7267671 C3.78443812e-06,11.021031 -0.00691281901,11.314395 0.0069419199,11.6135926 C0.0717186676,13.0909514 0.620123062,14.5415502 1.64038548,15.9297015 C2.69691831,17.3679027 4.21650917,18.6745252 6.15207161,19.8091718 C8.08763404,20.9438185 10.3258519,21.8400622 12.8066207,22.4754637 C15.1950307,23.0855113 17.7061625,23.4284442 20.2690955,23.4914759 C20.8376153,23.5048845 21.3991493,23.5046021 21.9595358,23.4908524 C21.4815925,23.0379507 21.1381245,22.558325 20.9277907,22.0703807 C20.6425732,22.0695123 20.3629072,22.065501 20.0829543,22.0581229 C17.8466808,22.0042601 15.6595257,21.707307 13.5773836,21.1744405 Z M35.833637,16.22896 C35.3199943,16.9962017 34.6385753,17.7066734 33.8035457,18.3558848 C33.8494847,18.3828147 33.8951368,18.4063778 33.9410758,18.4333077 C34.5505329,18.7905777 35.05528,19.1824248 35.451107,19.5935862 C36.588978,18.7764509 37.4947582,17.8648439 38.160981,16.87358 C39.0570315,15.5404467 39.4797047,14.1153357 39.4152148,12.6413436 C39.3518724,11.1808188 38.816579,9.74750176 37.8180417,8.37528449 C37.1022063,8.5793884 36.3247392,8.70897948 35.523446,8.76382937 C36.4061863,9.97220615 36.8801427,11.2320254 36.9371819,12.516129 C36.9920192,13.8085376 36.6242019,15.0578944 35.833637,16.22896 Z M8.76753635,4.06335424 C10.0100935,3.51869706 11.3872111,3.08490695 12.8763965,2.77118891 C14.9256894,2.33800274 17.0973774,2.1460935 19.3394893,2.20018012 C21.5671487,2.25539051 23.7454029,2.55032439 25.8183573,3.07780495 C25.9275032,2.61721116 26.1690155,2.17343786 26.532652,1.76287134 C24.1656802,1.16539106 21.6873763,0.832106301 19.1564107,0.76862239 C16.599316,0.705814544 14.1244148,0.924689755 11.7892297,1.41738614 C9.99165949,1.79981939 8.33793051,2.33374518 6.85637377,3.01018238 C7.2877274,3.18947771 7.70357413,3.39166908 8.09252417,3.61967561 C8.33446948,3.76150644 8.55947354,3.90939932 8.76753635,4.06335424 Z M29.8592877,6.38384029 C31.2680831,7.2096907 33.4574561,7.29363534 34.7342916,6.57075701 C36.011127,5.84787869 35.9035509,4.58532809 34.4947554,3.75947767 C33.08596,2.93362726 30.896587,2.84968262 29.6197516,3.57256095 C28.3429162,4.29543927 28.4504923,5.55798987 29.8592877,6.38384029 Z M33.6620367,4.23092006 C34.5655033,4.76054152 34.634352,5.5685739 33.8155119,6.03215892 C32.9966718,6.49574393 31.5954731,6.44201936 30.6920065,5.9123979 C29.7885398,5.38277644 29.7196911,4.57474405 30.5385312,4.11115904 C31.3573713,3.64757403 32.75857,3.7012986 33.6620367,4.23092006 Z M30.9263629,19.931859 C29.5175675,19.1060085 27.3281945,19.0220639 26.0513591,19.7449422 C24.7745237,20.4678206 24.8820998,21.7303712 26.2908952,22.5562216 C27.6996906,23.382072 29.8890636,23.4660166 31.1658991,22.7431383 C32.4427345,22.02026 32.3351584,20.7577094 30.9263629,19.931859 Z M27.123614,22.0847792 C26.2201473,21.5551577 26.1512986,20.7471253 26.9701387,20.2835403 C27.7889788,19.8199553 29.1901775,19.8736799 30.0936442,20.4033013 C30.9971108,20.9329228 31.0659595,21.7409552 30.2471194,22.2045402 C29.4282793,22.6681252 28.0270806,22.6144007 27.123614,22.0847792 Z M6.66510875,8.38052242 C7.94194417,7.65764409 7.83436807,6.39509349 6.42557263,5.56924308 C5.01677718,4.74339266 2.82740419,4.65944803 1.55056877,5.38232635 C0.273733343,6.10520468 0.381309445,7.36775528 1.79010489,8.19360569 C3.19890033,9.0194561 5.38827332,9.10340074 6.66510875,8.38052242 Z M2.62282364,7.72216331 C1.719357,7.19254184 1.6505083,6.38450946 2.4693484,5.92092445 C3.28818851,5.45733943 4.68938723,5.511064 5.59285387,6.04068546 C6.49632051,6.57030692 6.56516922,7.37833931 5.74632911,7.84192432 C4.927489,8.30550933 3.52629029,8.25178477 2.62282364,7.72216331 Z M23.5964166,8.24612041 L26.5150732,9.95706702 L17.5577952,15.0282156 L14.6391385,13.317269 L23.5964166,8.24612041 Z M25.6083049,12.4962003 L27.93588,13.8606489 L21.6433019,17.4231818 L19.3157269,16.0587333 L25.6083049,12.4962003 Z M14.7889137,8.55273842 L17.0950506,9.90461964 L12.8842694,12.2885466 L10.5781325,10.9366654 L14.7889137,8.55273842 Z M7.28177217,10.8371232 L21.7984904,19.3469732 L21.2988592,19.6298386 L6.78214092,11.1199887 L7.28177217,10.8371232 Z" id="形状"></path>
            </g>
            <path d="M63.4439455,15.7599156 L63.4971312,15.7599156 L63.4971312,39.0583271 L63.4439455,39.0583271 C62.492134,48.5083529 48.8842099,56.0026264 32.237005,56.0026264 C15.5898001,56.0026264 1.98187614,48.5083529 1.03006451,39.0583271 L0.976878941,39.0583271 L0.976878941,15.7599156 L1.03006451,15.7599156 C0.994770899,16.1103268 0.976878941,16.4634272 0.976878941,16.8189343 C0.976878941,26.7618923 14.9725141,34.8222522 32.237005,34.8222522 C49.501496,34.8222522 63.4971312,26.7618923 63.4971312,16.8189343 C63.4971312,16.4634272 63.4792392,16.1103268 63.4439455,15.7599156 Z" id="Combined-Shape" fill="url(#linearGradient-15)" fill-rule="nonzero"></path>
            <path d="M1.79951384,29.7216724 C1.79951384,39.246859 15.4268429,46.9685485 32.237005,46.9685485 C49.0471673,46.9685485 62.6744963,39.246859 62.6744963,29.7216724" id="Oval-2" stroke="#7D849E" stroke-width="0.757764403" opacity="0.401729911"></path>
            <path d="M64.0870142,15.9269327 L64.2786343,15.9269327 L64.2786343,39.5141188 L64.0870142,39.5141188 C62.32142,48.5034406 48.6215113,55.2456758 32.237005,55.2456758 C15.8524988,55.2456758 2.1525901,48.5034406 0.386995901,39.5141188 L0.195375788,39.5141188 L0.195375788,15.9269327 L0.386995901,15.9269327 C2.1525901,6.93761097 15.8524988,0.195375788 32.237005,0.195375788 C48.6215113,0.195375788 62.32142,6.93761097 64.0870142,15.9269327 Z" id="Combined-Shape" stroke="#555A6F" stroke-width="1.36"></path>
            <polygon id="Rectangle" fill="#A5ADC1" fill-rule="nonzero" points="5.91268833 30.5082502 8.38059302 32.4662651 8.38059302 37.0784887 5.91268833 35.1204738"></polygon>
            <polygon id="Rectangle" fill="#A5ADC1" fill-rule="nonzero" opacity="0.501227679" points="10.8484978 33.8280714 13.3164023 35.7860863 13.3164023 40.3983099 10.8484978 38.4402951"></polygon>
        </g>
        <g id="编组-7复制-2备份-7" transform="translate(517.489092, 314.000000)">
            <g id="dcs">
                <polygon id="Fill-1" fill="#F7FAFF" points="9.29860465 34.6745553 9.21257474 49.1497674 0 29.0847992 0.083571916 14.612093"></polygon>
                <g id="Fill-12">
                    <mask id="mask-17" fill="white">
                        <use xlink:href="#path-16"></use>
                    </mask>
                    <use id="Mask" fill="url(#linearGradient-7)" xlink:href="#path-16"></use>
                    <path d="M30.4696344,21.043512 L31.6410175,29.1942678 L30.2019519,29.2228307 L29.145352,21.8707628 L15.3954876,21.9140787 L15.3193663,21.0912395 L30.4696344,21.043512 Z M28.6753289,8.11469755 L30.0329963,16.3580924 L14.7023144,16.4920355 L14.612093,15.6692802 L28.4557573,15.548329 L27.2377784,8.15308626 L28.6753289,8.11469755 Z M54.3730344,20.7693851 L54.4632558,21.5921405 L40.6115613,21.7131618 L41.7011562,29.1947222 L40.2622209,29.224186 L39.0503828,20.9032581 L54.3730344,20.7693851 Z M53.4929114,15.2795445 L53.5952693,16.1021646 L38.4704422,16.307162 L37.2605648,7.99969642 L38.6995001,7.97023256 L39.7910555,15.4652554 L53.4929114,15.2795445 Z" id="形状结合" stroke="url(#linearGradient-11)" stroke-width="0.51" fill="url(#linearGradient-10)" mask="url(#mask-17)"></path>
                </g>
                <polygon id="Fill-6" fill="url(#linearGradient-12)" points="69.0753488 25.2390698 68.9905535 39.746168 43.8362791 54.4632558 43.9210744 39.958669"></polygon>
                <g id="Group-7" transform="translate(57.120000, 37.194419)" fill="#8494B2">
                    <polygon id="Fill-6" points="10.149001 0 10.1414238 2.37937764 7.89366746 3.61182998 7.90124467 1.23264693"></polygon>
                    <polygon id="Fill-6-Copy" points="5.6383339 2.40788665 5.63075669 4.78726429 3.38300034 6.01971663 3.39057755 3.64053358"></polygon>
                    <polygon id="Fill-6-Copy-2" opacity="0.369810268" points="2.25533356 4.8157733 2.24775635 7.19515094 -1.34754953e-12 8.42760328 0.00757720761 6.04842023"></polygon>
                </g>
                <polygon id="Fill-8" fill="#D1DAE8" points="43.8362791 39.9357565 43.7516096 54.4632558 9.29860465 49.0676892 9.3857644 34.5376744"></polygon>
                <g id="Group-7-Copy" transform="translate(29.224186, 47.821395)" fill="#A0AABE">
                    <polygon id="Fill-6" points="10.149001 1.38834026 10.1414238 3.48283605 7.89366746 3.25526985 7.90124467 1.16094535"></polygon>
                    <polygon id="Fill-6-Copy" opacity="0.431863839" points="5.6383339 0.681925822 5.63075669 3.73486576 3.38300034 3.30471997 3.39057755 0.252029707"></polygon>
                    <polygon id="Fill-6-Copy-2" points="2.25533356 0.370052918 2.24775635 3.48283605 1.06874523e-12 3.11252857 0.00757720762 2.01345607e-13"></polygon>
                </g>
                <polyline id="Mask" stroke="#7D849E" stroke-width="1.02" opacity="0.401729911" points="69.0753488 25.2775392 43.8957627 39.8511628 9.35933654 34.5159536 0 14.612093"></polyline>
                <polyline id="Mask" stroke="#7D849E" stroke-width="1.02" opacity="0.401729911" points="69.0753488 33.2477717 43.8957627 47.8213953 9.35933654 42.4861862 0 22.5823256"></polyline>
                <path d="M44.6126461,40.3981395 L44.5543307,54.4632558 M8.5214243,48.6027907 L8.5813664,34.5376744" id="Fill-8" stroke="#7D849E" stroke-width="1.02" opacity="0.401729911"></path>
                <path d="M25.0775136,-0.708813718 L-0.68,14.2690855 L-0.68,29.2766182 L8.88155519,49.7015429 L44.01714,55.1722524 L69.7553488,40.1957645 L69.7553488,25.185568 L60.2305301,4.73352925 L25.0775136,-0.708813718 Z" id="Path-11" stroke="#555A6F" stroke-width="1.36" stroke-linecap="round" stroke-linejoin="round"></path>
            </g>
        </g>
        <g id="编组-7备份-2" transform="translate(338.489092, 401.000000)">
            <polygon id="路径" stroke="#555A6F" stroke-width="1.02" points="43.2420223 59.2355556 21.2931334 46.2777778 5.95535562 55.0044444 5.95535562 57.9133333 27.7720223 71.4 43.2420223 62.0122222"></polygon>
            <polygon id="路径" fill="#F5F9FF" fill-rule="nonzero" points="27.7720223 68.4911111 27.7720223 70.3422222 42.3164667 61.4833333 42.3164667 59.7644444"></polygon>
            <polygon id="路径" fill="#D5E0F3" fill-rule="nonzero" points="27.7720223 68.4911111 6.74868895 55.5333333 6.74868895 57.3844444 27.7720223 70.3422222"></polygon>
            <polygon id="路径" fill="#F1F6FF" fill-rule="nonzero" points="42.3164667 59.7644444 21.2931334 47.3355556 6.74868895 55.5333333 27.7720223 68.4911111"></polygon>
            <polyline id="路径" stroke-opacity="0.604025126" stroke="#7787C3" stroke-width="0.742202986" points="38.4820223 61.88 27.7720223 68.3588889 27.7720223 70.7388889 27.7720223 68.3588889 6.48424451 55.4011111"></polyline>
            <polygon id="路径" fill="#F7FAFF" fill-rule="nonzero" points="30.2842445 53.6822222 30.2842445 62.9377778 32.2675778 61.88 32.2675778 52.6244444"></polygon>
            <polygon id="路径" fill="#E3EBF9" fill-rule="nonzero" points="30.2842445 53.6822222 17.3264667 46.41 17.3264667 55.5333333 30.2842445 62.9377778"></polygon>
            <polygon id="路径" stroke="#555A6F" stroke-width="1.02" points="31.2098001 55.2688889 16.4009112 46.8066667 16.4009112 56.0622222 30.4164667 63.9955556 33.0609112 62.4088889 33.0609112 56.1944444"></polygon>
            <line x1="30.2842445" y1="56.0622222" x2="30.2842445" y2="63.7311111" id="路径" stroke="#555A6F" stroke-width="1.02"></line>
            <path d="M1.85646673,2.51222222 L0.534244506,2.51222222 L3.70757784,0.661111111 L5.55868895,0.661111111 L49.1920223,25.7833333 L49.588689,26.0477778 L49.7209112,26.0477778 L50.1175778,26.3122222 L50.9109112,26.3122222 L50.9109112,26.5766667 L51.3075778,26.5766667 L51.3075778,26.8411111 L51.5720223,26.8411111 L51.5720223,27.1055556 L51.5720223,27.1055556 C51.5791107,27.2376828 51.5791107,27.370095 51.5720223,27.5022222 L51.5720223,58.8388889 C51.5947204,59.4682999 51.2958366,60.0660675 50.778689,60.4255556 L47.6053556,62.2766667 C48.1225033,61.9171786 48.4213871,61.319411 48.398689,60.69 L48.398689,32.3944444 C48.4055326,32.2623108 48.4055326,32.1299114 48.398689,31.9977778 L48.398689,31.9977778 L48.398689,31.7333333 L48.2664667,31.7333333 L48.2664667,31.4688889 L48.2664667,31.4688889 L48.2664667,30.4111111 L48.2664667,30.4111111 L48.2664667,30.1466667 L48.2664667,30.1466667 L48.2664667,29.8822222 L48.2664667,29.8822222 L48.2664667,29.6177778 L46.8120223,29.6177778 L46.4153556,29.3533333 L46.2831334,29.3533333 L45.8864667,29.0888889 L2.2531334,3.96666667 L1.85646673,3.96666667 L1.85646673,2.51222222 Z" id="路径" fill="#E8ECF3" fill-rule="nonzero"></path>
            <path d="M3.57535562,2.90888889 L3.57535562,2.90888889 C2.9451743,2.31050789 1.99884338,2.19206204 1.24062194,2.61666605 C0.482400497,3.04127006 0.0889000462,3.91002147 0.269800062,4.76 L0.269800062,35.5677778 C0.382253197,37.5067737 1.4139887,39.2754631 3.04646673,40.3277778 L46.1509112,64.9211111 C46.7810925,65.5194921 47.7274234,65.637938 48.4856449,65.2133339 C49.2438663,64.7887299 49.6373667,63.9199785 49.4564667,63.07 L49.4564667,32.6588889 C49.3440136,30.719893 48.3122781,28.9512036 46.6798001,27.8988889 L3.57535562,2.90888889 Z" id="路径" stroke-opacity="0.602383375" stroke="#7787C3" stroke-width="0.742202986" fill="#E5EAF3" fill-rule="nonzero"></path>
            <polygon id="路径" fill="url(#linearGradient-18)" fill-rule="nonzero" points="45.8864667 31.0722222 3.4431334 6.47888889 3.57535562 36.4933333 46.018689 61.0866667"></polygon>
            <g id="编组-3" transform="translate(11.220000, 16.320000)" fill="url(#linearGradient-19)" stroke="url(#linearGradient-20)" stroke-width="0.51">
                <path d="M0.612,0.319103359 L21.5141538,12.1891483 L21.5141538,33.2085224 L0.612,21.3384775 L0.612,0.319103359 Z M1.427,15.2151034 L1.428,20.86308 L20.69784,31.80666 L20.697,26.1581034 L1.427,15.2151034 Z M1.427,8.34910336 L1.427,14.7241034 L20.697,25.6681034 L20.697,19.2931034 L1.427,8.34910336 Z M4.1976923,18.2592865 L4.68807692,18.5377691 L4.68807692,21.4800768 L4.1976923,21.2015941 L4.1976923,18.2592865 Z M1.428,1.71972 L1.427,7.85910336 L20.697,18.8021034 L20.69784,12.6633 L1.428,1.71972 Z M4.1976923,11.3939018 L4.68807692,11.6723845 L4.68807692,15.1050768 L4.1976923,14.8265941 L4.1976923,11.3939018 Z M4.1976923,4.5285172 L4.68807692,4.80699986 L4.68807692,8.23969216 L4.1976923,7.9612095 L4.1976923,4.5285172 Z" id="形状结合"></path>
            </g>
            <path d="M49.1920223,65.9788889 L51.4398001,64.1277778 C52.1857037,63.5751077 52.5871808,62.6717841 52.4975778,61.7477778 L52.4975778,30.5433333 C52.4952032,29.66323 52.2676112,28.7983802 51.8364667,28.0311111 C51.2189438,27.0456326 50.4618099,26.1548868 49.588689,25.3866667 L5.95535562,0.264444444 L5.42646673,-1.40924309e-14 L3.31091117,-1.40924309e-14 L1.19535562,1.71888889 C0.399370807,2.24033496 -0.0550784148,3.1492334 0.0053556174,4.09888889 L0.0053556174,35.4355556 C0.116529461,37.5478102 1.25178359,39.4728064 3.04646673,40.5922222 L46.6798001,65.7144444 C47.4087735,66.2478148 48.3679684,66.3487827 49.1920223,65.9788889 L49.1920223,65.9788889 Z" id="路径" stroke="#555A6F" stroke-width="1.36"></path>
        </g>
        <path d="M523.213851,369 L408.594031,439.237483 C408.495114,437.770043 408.410696,436.16568 408.340778,434.424393 C405.888973,438.402544 402.938411,443.178274 399.489092,448.751586 L409.921116,451.158017 L409.164369,444.839103 L523.995251,374.185461 L523.213851,369 Z" id="Fill-4备份" fill="#3A51C6" fill-rule="nonzero" opacity="0.6" transform="translate(461.742172, 410.079008) scale(-1, 1) rotate(62.000000) translate(-461.742172, -410.079008) "></path>
        <g id="云计算备份-2" transform="translate(108.489092, 208.500000) rotate(-330.000000) translate(-108.489092, -208.500000) translate(65.489092, 196.000000)" fill="#7787C3" fill-rule="nonzero">
            <path d="M30.7856582,4.41638671 L32.1886522,2.02438671 L13.5206522,2.02438671 L12.1176582,4.41638671 L30.7856582,4.41638671 Z M18.1599589,24.8783867 L21.2697051,23.3443867 C21.4946986,20.7443867 21.474191,17.6763867 21.1669323,14.1663867 L18.4741854,15.3883867 C18.5471892,16.9483867 18.557443,18.4823867 18.5201967,19.9643867 C13.9574482,20.5623867 9.43419927,21.0043867 5.01769991,21.2643867 C7.83619515,19.3403867 11.6619372,16.1423867 16.5209261,11.6703867 L28.8449261,11.6703867 L30.29367,9.20038671 L6.81567002,9.20038671 L5.36692614,11.6703867 L13.7649261,11.6703867 C8.1714389,16.8183867 4.23094676,19.9903867 1.94344972,21.1863867 C1.76769991,21.2643867 1.51395011,21.3423867 1.2082003,21.4203867 L0.378956549,23.9423867 C6.75895552,23.5263867 12.7624541,22.9543867 18.4154523,22.2263867 C18.3649545,23.1103867 18.2624567,23.9943867 18.1599589,24.8783867 Z M40.9862085,24.7483867 L49.2059238,10.7343867 L55.6539238,10.7343867 L57.0874178,8.29038671 L50.6394178,8.29038671 L55.1076489,0.672386709 L52.5596489,0.672386709 L48.0914178,8.29038671 L41.2794178,8.29038671 L39.8459238,10.7343867 L46.6579238,10.7343867 L38.4382085,24.7483867 L40.9862085,24.7483867 Z M40.2149133,6.47038671 L42.911409,4.75438671 C42.5039058,3.45438671 41.8211526,2.18038671 40.8783995,0.906386709 L38.1711537,2.59638671 C39.224157,3.94838671 39.8916602,5.24838671 40.2149133,6.47038671 Z M27.8502065,23.9163867 C30.4649535,22.6943867 33.08245,21.2903867 35.6614461,19.7303867 L36.4906899,17.2083867 C35.077442,18.0663867 33.7619439,18.8463867 32.5334456,19.5223867 L39.0299182,8.44638671 L33.0239182,8.44638671 L31.636174,10.8123867 L35.276174,10.8123867 L29.6641977,20.3803867 C29.359199,20.9003867 28.8659501,21.3423867 28.210451,21.7063867 L27.8502065,23.9163867 Z M62.2304149,7.14638671 C63.4724129,6.31438671 64.6974106,5.37838671 65.8749081,4.39038671 L67.6429081,4.39038671 C67.7449097,5.01438671 67.7796613,5.66438671 67.7471629,6.34038671 L70.2021611,5.61238671 C70.1969102,5.22238671 70.1809091,4.80638671 70.1129081,4.39038671 L72.9989081,4.39038671 L74.218903,2.31038671 L68.186903,2.31038671 C68.5869019,1.89438671 69.0129009,1.47838671 69.4693997,1.01038671 L67.4343984,0.490386709 C65.6299032,2.41438671 63.4749076,4.18238671 60.9389117,5.84638671 L62.2304149,7.14638671 Z M67.2982085,24.7483867 L69.7381982,20.5883867 L75.4321982,20.5883867 L76.6979429,18.4303867 L71.0039429,18.4303867 L71.7969395,17.0783867 L74.8389395,17.0783867 L81.0304134,6.52238671 L73.7764134,6.52238671 C74.7449117,5.84638671 75.7331598,5.09238671 76.6739078,4.28638671 L78.3899078,4.28638671 C78.4614095,4.96238671 78.5069112,5.63838671 78.469913,6.36638671 L80.8989112,5.63838671 C80.9089102,5.22238671 80.897409,4.75438671 80.8079078,4.28638671 L84.6819078,4.28638671 L85.9019027,2.20638671 L78.9079027,2.20638671 C79.2514018,1.84238671 79.6101508,1.45238671 79.9948999,1.06238671 L77.9338986,0.542386709 C76.3966528,2.23238671 74.5564067,3.81838671 72.4131604,5.30038671 L73.5944134,6.52238671 L63.4544134,6.52238671 L57.2629395,17.0783867 L60.5129395,17.0783867 L60.0401915,17.8843867 L59.6679429,18.4303867 L53.5059429,18.4303867 L52.2401982,20.5883867 L57.6481982,20.5883867 C57.5351985,20.6923867 57.3961988,20.7963867 57.2159491,20.9263867 C56.1129509,21.6543867 54.5249524,22.2783867 52.4412036,22.7723867 L52.5714585,24.7223867 C54.9349571,24.1503867 56.8484551,23.3703867 58.3684526,22.3303867 C59.0742013,21.8363867 59.7476999,21.2643867 60.4041982,20.5883867 L67.3201982,20.5883867 L64.8802085,24.7483867 L67.2982085,24.7483867 Z M76.8434209,9.53838671 L64.1034209,9.53838671 L64.774418,8.39438671 L77.514418,8.39438671 L76.8434209,9.53838671 Z M75.2269277,12.2943867 L62.4869277,12.2943867 L63.112175,11.2283867 L75.852175,11.2283867 L75.2269277,12.2943867 Z M73.5189349,15.2063867 L60.7789349,15.2063867 L61.4804319,14.0103867 L74.2204319,14.0103867 L73.5189349,15.2063867 Z M68.5859429,18.4303867 L62.1379429,18.4303867 L62.4841915,17.8843867 L62.9569395,17.0783867 L69.3789395,17.0783867 L68.5859429,18.4303867 Z" id="云计算"></path>
        </g>
        <g id="编组-4" transform="translate(366.489092, 83.000000)">
            <path d="M33.0958571,19.9684503 L28.7444568,24.0623265 L24.5995526,19.9684503 L3.5743953,19.9684503 C1.59985414,19.9684503 4.54747351e-13,18.3552351 4.54747351e-13,16.3652606 L4.54747351e-13,3.60318976 C4.54747351e-13,1.61321519 1.59985414,0 3.5743953,0 L65.4002785,0 C67.3748196,0 68.9755233,1.61321519 68.9755233,3.60318976 L68.9755233,16.3652606 C68.9755233,18.3552351 67.3748196,19.9684503 65.4002785,19.9684503 L33.0958571,19.9684503 Z" id="Fill-1-Copy复制-9备份-48" stroke="#555A6F" stroke-width="1.078" fill="#F0F1F7" transform="translate(34.487762, 12.031163) rotate(-180.000000) translate(-34.487762, -12.031163) "></path>
            <path d="M12.1120605,17 C12.923584,17 13.5834961,16.7480469 14.0917969,16.2441406 C14.6000977,15.7402344 14.854248,15.0883789 14.854248,14.2885742 L14.854248,14.2885742 L14.854248,13.3173828 C14.854248,12.5205078 14.6000977,11.8686523 14.0917969,11.3618164 C13.5834961,10.8549805 12.923584,10.6015625 12.1120605,10.6015625 L12.1120605,10.6015625 L9.99829102,10.6015625 L9.99829102,17 L12.1120605,17 Z M12.1120605,16.1474609 L11.0661621,16.1474609 L11.0661621,11.4584961 L12.1120605,11.4584961 C12.6247559,11.4584961 13.0319824,11.6320801 13.3337402,11.979248 C13.635498,12.326416 13.786377,12.7695312 13.786377,13.3085937 L13.786377,13.3085937 L13.786377,14.2885742 C13.786377,14.8334961 13.635498,15.279541 13.3337402,15.626709 C13.0319824,15.973877 12.6247559,16.1474609 12.1120605,16.1474609 L12.1120605,16.1474609 Z M17.2580566,17.0922852 C17.5539551,17.0922852 17.8220215,17.0168457 18.0622559,16.8659668 C18.3024902,16.7150879 18.4943848,16.5283203 18.6379395,16.3056641 C18.6467285,16.4199219 18.6635742,16.5341797 18.6884766,16.6484375 C18.7133789,16.7626953 18.744873,16.8798828 18.782959,17 L18.782959,17 L19.8640137,17 C19.8054199,16.8271484 19.7629395,16.6506348 19.7365723,16.470459 C19.7102051,16.2902832 19.6970215,16.1020508 19.6970215,15.9057617 L19.6970215,15.9057617 L19.6970215,13.7919922 C19.6970215,13.2646484 19.5270996,12.8603516 19.1872559,12.5791016 C18.8474121,12.2978516 18.4006348,12.1572266 17.8469238,12.1572266 C17.2756348,12.1572266 16.8120117,12.3022461 16.4560547,12.5922852 C16.1000977,12.8823242 15.932373,13.2148437 15.9528809,13.5898437 L15.9528809,13.5898437 L15.9572754,13.6162109 L16.9855957,13.6118164 C16.9855957,13.4272461 17.057373,13.2770996 17.2009277,13.161377 C17.3444824,13.0456543 17.5378418,12.987793 17.7810059,12.987793 C18.0563965,12.987793 18.2666016,13.0581055 18.4116211,13.1987305 C18.5566406,13.3393555 18.6291504,13.5341797 18.6291504,13.7832031 L18.6291504,13.7832031 L18.6291504,14.2006836 L17.798584,14.2006836 C17.1394043,14.2006836 16.6281738,14.3288574 16.2648926,14.5852051 C15.9016113,14.8415527 15.7199707,15.199707 15.7199707,15.659668 C15.7199707,16.1049805 15.8525391,16.4550781 16.1176758,16.7099609 C16.3828125,16.9648437 16.7629395,17.0922852 17.2580566,17.0922852 Z M17.4777832,16.2353516 C17.255127,16.2353516 17.0844727,16.1818848 16.9658203,16.0749512 C16.847168,15.9680176 16.7878418,15.8237305 16.7878418,15.6420898 C16.7878418,15.434082 16.8757324,15.2531738 17.0515137,15.0993652 C17.2272949,14.9455566 17.470459,14.8686523 17.7810059,14.8686523 L17.7810059,14.8686523 L18.6291504,14.8686523 L18.6291504,15.5717773 C18.5588379,15.7446289 18.4160156,15.8984375 18.2006836,16.0332031 C17.9853516,16.1679687 17.7443848,16.2353516 17.4777832,16.2353516 Z M22.3776855,17.0922852 C22.5124512,17.0922852 22.6420898,17.0783691 22.7666016,17.0505371 C22.8911133,17.0227051 22.9987793,16.9838867 23.0895996,16.934082 L23.0895996,16.934082 L22.9753418,16.1518555 C22.9255371,16.1694336 22.8728027,16.1833496 22.8171387,16.1936035 C22.7614746,16.2038574 22.7043457,16.2089844 22.645752,16.2089844 C22.505127,16.2089844 22.392334,16.1672363 22.307373,16.0837402 C22.2224121,16.0002441 22.1799316,15.8603516 22.1799316,15.6640625 L22.1799316,15.6640625 L22.1799316,13.0361328 L23.0324707,13.0361328 L23.0324707,12.2451172 L22.1799316,12.2451172 L22.1799316,11.0893555 L21.1164551,11.0893555 L21.1164551,12.2451172 L20.3913574,12.2451172 L20.3913574,13.0361328 L21.1164551,13.0361328 L21.1164551,15.6640625 C21.1164551,16.15625 21.2285156,16.517334 21.4526367,16.7473145 C21.6767578,16.9772949 21.9851074,17.0922852 22.3776855,17.0922852 Z M25.2341309,17.0922852 C25.5300293,17.0922852 25.7980957,17.0168457 26.0383301,16.8659668 C26.2785645,16.7150879 26.470459,16.5283203 26.6140137,16.3056641 C26.6228027,16.4199219 26.6396484,16.5341797 26.6645508,16.6484375 C26.6894531,16.7626953 26.7209473,16.8798828 26.7590332,17 L26.7590332,17 L27.8400879,17 C27.7814941,16.8271484 27.7390137,16.6506348 27.7126465,16.470459 C27.6862793,16.2902832 27.6730957,16.1020508 27.6730957,15.9057617 L27.6730957,15.9057617 L27.6730957,13.7919922 C27.6730957,13.2646484 27.5031738,12.8603516 27.1633301,12.5791016 C26.8234863,12.2978516 26.376709,12.1572266 25.822998,12.1572266 C25.251709,12.1572266 24.7880859,12.3022461 24.4321289,12.5922852 C24.0761719,12.8823242 23.9084473,13.2148437 23.9289551,13.5898437 L23.9289551,13.5898437 L23.9333496,13.6162109 L24.9616699,13.6118164 C24.9616699,13.4272461 25.0334473,13.2770996 25.177002,13.161377 C25.3205566,13.0456543 25.513916,12.987793 25.7570801,12.987793 C26.0324707,12.987793 26.2426758,13.0581055 26.3876953,13.1987305 C26.5327148,13.3393555 26.6052246,13.5341797 26.6052246,13.7832031 L26.6052246,13.7832031 L26.6052246,14.2006836 L25.7746582,14.2006836 C25.1154785,14.2006836 24.604248,14.3288574 24.2409668,14.5852051 C23.8776855,14.8415527 23.6960449,15.199707 23.6960449,15.659668 C23.6960449,16.1049805 23.8286133,16.4550781 24.09375,16.7099609 C24.3588867,16.9648437 24.7390137,17.0922852 25.2341309,17.0922852 Z M25.4538574,16.2353516 C25.2312012,16.2353516 25.0605469,16.1818848 24.9418945,16.0749512 C24.8232422,15.9680176 24.763916,15.8237305 24.763916,15.6420898 C24.763916,15.434082 24.8518066,15.2531738 25.0275879,15.0993652 C25.2033691,14.9455566 25.4465332,14.8686523 25.7570801,14.8686523 L25.7570801,14.8686523 L26.6052246,14.8686523 L26.6052246,15.5717773 C26.5349121,15.7446289 26.3920898,15.8984375 26.1767578,16.0332031 C25.9614258,16.1679687 25.720459,16.2353516 25.4538574,16.2353516 Z M33.3156738,17.0922852 C33.9924316,17.0922852 34.5388184,16.934082 34.954834,16.6176758 C35.3708496,16.3012695 35.5788574,15.8779297 35.5788574,15.3476562 C35.5788574,14.84375 35.4030762,14.4299316 35.0515137,14.1062012 C34.6999512,13.7824707 34.1887207,13.5268555 33.5178223,13.3393555 C33.0227051,13.1958008 32.6682129,13.0441895 32.4543457,12.8845215 C32.2404785,12.7248535 32.1335449,12.5219727 32.1335449,12.2758789 C32.1335449,12.0063477 32.230957,11.7866211 32.4257812,11.6166992 C32.6206055,11.4467773 32.8981934,11.3618164 33.2585449,11.3618164 C33.6306152,11.3618164 33.9287109,11.4614258 34.152832,11.6606445 C34.3769531,11.8598633 34.4890137,12.1279297 34.4890137,12.4648437 L34.4890137,12.4648437 L35.517334,12.4648437 L35.526123,12.4384766 C35.5407715,11.8935547 35.3408203,11.435791 34.9262695,11.0651855 C34.5117187,10.6945801 33.9587402,10.5092773 33.267334,10.5092773 C32.6228027,10.5092773 32.095459,10.6762695 31.6853027,11.0102539 C31.2751465,11.3442383 31.0700684,11.769043 31.0700684,12.284668 C31.0700684,12.7827148 31.2568359,13.1862793 31.6303711,13.4953613 C32.0039062,13.8044434 32.5349121,14.0541992 33.2233887,14.2446289 C33.7038574,14.3793945 34.0385742,14.5317383 34.2275391,14.7016602 C34.4165039,14.871582 34.5109863,15.0898437 34.5109863,15.3564453 C34.5109863,15.6289062 34.40625,15.8449707 34.1967773,16.0046387 C33.9873047,16.1643066 33.6936035,16.2441406 33.3156738,16.2441406 C32.9348145,16.2441406 32.6118164,16.1467285 32.3466797,15.9519043 C32.081543,15.7570801 31.9489746,15.4677734 31.9489746,15.0839844 L31.9489746,15.0839844 L30.9206543,15.0839844 L30.9118652,15.1103516 C30.8972168,15.7402344 31.1315918,16.2280273 31.6149902,16.5737305 C32.0983887,16.9194336 32.6652832,17.0922852 33.3156738,17.0922852 Z M38.1276855,17.0922852 C38.2624512,17.0922852 38.3920898,17.0783691 38.5166016,17.0505371 C38.6411133,17.0227051 38.7487793,16.9838867 38.8395996,16.934082 L38.8395996,16.934082 L38.7253418,16.1518555 C38.6755371,16.1694336 38.6228027,16.1833496 38.5671387,16.1936035 C38.5114746,16.2038574 38.4543457,16.2089844 38.395752,16.2089844 C38.255127,16.2089844 38.142334,16.1672363 38.057373,16.0837402 C37.9724121,16.0002441 37.9299316,15.8603516 37.9299316,15.6640625 L37.9299316,15.6640625 L37.9299316,13.0361328 L38.7824707,13.0361328 L38.7824707,12.2451172 L37.9299316,12.2451172 L37.9299316,11.0893555 L36.8664551,11.0893555 L36.8664551,12.2451172 L36.1413574,12.2451172 L36.1413574,13.0361328 L36.8664551,13.0361328 L36.8664551,15.6640625 C36.8664551,16.15625 36.9785156,16.517334 37.2026367,16.7473145 C37.4267578,16.9772949 37.7351074,17.0922852 38.1276855,17.0922852 Z M40.7116699,17 L40.7116699,13.6953125 C40.7878418,13.5341797 40.8955078,13.409668 41.034668,13.3217773 C41.1738281,13.2338867 41.3474121,13.1899414 41.5554199,13.1899414 L41.5554199,13.1899414 L42.0124512,13.2075195 L42.1398926,12.2099609 C42.0930176,12.1953125 42.041748,12.1828613 41.986084,12.1726074 C41.9304199,12.1623535 41.8703613,12.1572266 41.8059082,12.1572266 C41.5598145,12.1572266 41.3422852,12.2260742 41.1533203,12.3637695 C40.9643555,12.5014648 40.8098145,12.6918945 40.6896973,12.9350586 L40.6896973,12.9350586 L40.6193848,12.2451172 L39.6437988,12.2451172 L39.6437988,17 L40.7116699,17 Z M44.8205566,17.0922852 C45.2102051,17.0922852 45.5544434,17.0380859 45.8532715,16.9296875 C46.1520996,16.8212891 46.392334,16.6879883 46.5739746,16.5297852 L46.5739746,16.5297852 L46.2268066,15.8310547 C46.045166,15.9628906 45.8481445,16.0639648 45.6357422,16.1342773 C45.4233398,16.2045898 45.1721191,16.2397461 44.8820801,16.2397461 C44.4924316,16.2397461 44.2009277,16.1181641 44.0075684,15.875 C43.814209,15.6318359 43.7116699,15.3154297 43.6999512,14.9257812 L43.6999512,14.9257812 L43.7087402,14.9038086 L46.6486816,14.9038086 L46.6486816,14.328125 C46.6486816,13.6689453 46.4846191,13.142334 46.1564941,12.748291 C45.8283691,12.354248 45.3449707,12.1571983 44.7062988,12.1571983 C44.0881348,12.1542969 43.5834961,12.3791504 43.1923828,12.8317871 C42.8012695,13.2844238 42.6057129,13.859375 42.6057129,14.5566406 L42.6057129,14.5566406 L42.6057129,14.7324219 C42.6057129,15.4296875 42.8012695,15.9973145 43.1923828,16.4353027 C43.5834961,16.873291 44.1262207,17.0922852 44.8205566,17.0922852 Z M45.5939941,14.121582 L43.7351074,14.121582 L43.7263184,14.0996094 C43.767334,13.7773437 43.8713379,13.5158691 44.0383301,13.3151855 C44.2053223,13.114502 44.4279785,13.0141602 44.7062988,13.0141602 C45.013916,13.0141602 45.2387695,13.1086426 45.3808594,13.2976074 C45.5229492,13.4865723 45.5939941,13.7333984 45.5939941,14.0380859 L45.5939941,14.0380859 L45.5939941,14.121582 Z M48.8547363,17.0922852 C49.1506348,17.0922852 49.4187012,17.0168457 49.6589355,16.8659668 C49.8991699,16.7150879 50.0910645,16.5283203 50.2346191,16.3056641 C50.2434082,16.4199219 50.2602539,16.5341797 50.2851562,16.6484375 C50.3100586,16.7626953 50.3415527,16.8798828 50.3796387,17 L50.3796387,17 L51.4606934,17 C51.4020996,16.8271484 51.3596191,16.6506348 51.333252,16.470459 C51.3068848,16.2902832 51.2937012,16.1020508 51.2937012,15.9057617 L51.2937012,15.9057617 L51.2937012,13.7919922 C51.2937012,13.2646484 51.1237793,12.8603516 50.7839355,12.5791016 C50.4440918,12.2978516 49.9973145,12.1572266 49.4436035,12.1572266 C48.8723145,12.1572266 48.4086914,12.3022461 48.0527344,12.5922852 C47.6967773,12.8823242 47.5290527,13.2148437 47.5495605,13.5898437 L47.5495605,13.5898437 L47.5539551,13.6162109 L48.5822754,13.6118164 C48.5822754,13.4272461 48.6540527,13.2770996 48.7976074,13.161377 C48.9411621,13.0456543 49.1345215,12.987793 49.3776855,12.987793 C49.6530762,12.987793 49.8632812,13.0581055 50.0083008,13.1987305 C50.1533203,13.3393555 50.2258301,13.5341797 50.2258301,13.7832031 L50.2258301,13.7832031 L50.2258301,14.2006836 L49.3952637,14.2006836 C48.736084,14.2006836 48.2248535,14.3288574 47.8615723,14.5852051 C47.498291,14.8415527 47.3166504,15.199707 47.3166504,15.659668 C47.3166504,16.1049805 47.4492187,16.4550781 47.7143555,16.7099609 C47.9794922,16.9648437 48.3596191,17.0922852 48.8547363,17.0922852 Z M49.0744629,16.2353516 C48.8518066,16.2353516 48.6811523,16.1818848 48.5625,16.0749512 C48.4438477,15.9680176 48.3845215,15.8237305 48.3845215,15.6420898 C48.3845215,15.434082 48.4724121,15.2531738 48.6481934,15.0993652 C48.8239746,14.9455566 49.0671387,14.8686523 49.3776855,14.8686523 L49.3776855,14.8686523 L50.2258301,14.8686523 L50.2258301,15.5717773 C50.1555176,15.7446289 50.0126953,15.8984375 49.7973633,16.0332031 C49.5820312,16.1679687 49.3410645,16.2353516 49.0744629,16.2353516 Z M53.4777832,17 L53.4777832,13.5107422 C53.5656738,13.3583984 53.6850586,13.2404785 53.8359375,13.1569824 C53.9868164,13.0734863 54.1706543,13.0317383 54.3874512,13.0317383 C54.6628418,13.0317383 54.871582,13.1196289 55.0136719,13.2954102 C55.1557617,13.4711914 55.2268066,13.7597656 55.2268066,14.1611328 L55.2268066,14.1611328 L55.2268066,17 L56.2946777,17 L56.2946777,13.9194336 C56.2946777,13.8901367 56.2932129,13.859375 56.2902832,13.8271484 C56.2873535,13.7949219 56.2858887,13.7568359 56.2858887,13.7128906 C56.3562012,13.5048828 56.470459,13.3393555 56.6286621,13.2163086 C56.7868652,13.0932617 56.9802246,13.0317383 57.2087402,13.0317383 C57.4870605,13.0317383 57.6958008,13.1159668 57.8349609,13.2844238 C57.9741211,13.4528809 58.0437012,13.7451172 58.0437012,14.1611328 L58.0437012,14.1611328 L58.0437012,17 L59.1115723,17 L59.1115723,14.1655273 C59.1115723,13.4916992 58.9731445,12.9885254 58.6962891,12.6560059 C58.4194336,12.3234863 58.0422363,12.1572266 57.5646973,12.1572266 C57.2424316,12.1572266 56.9611816,12.2319336 56.7209473,12.3813477 C56.4807129,12.5307617 56.2873535,12.7373047 56.1408691,13.0009766 C56.029541,12.7197266 55.8625488,12.5087891 55.6398926,12.3681641 C55.4172363,12.2275391 55.1506348,12.1572266 54.8400879,12.1572266 C54.5324707,12.1572266 54.2614746,12.21875 54.0270996,12.3417969 C53.7927246,12.4648437 53.5979004,12.6391602 53.442627,12.8647461 L53.442627,12.8647461 L53.385498,12.2451172 L52.4099121,12.2451172 L52.4099121,17 L53.4777832,17 Z" id="DataStream" fill="#000000" fill-rule="nonzero"></path>
        </g>
        <g id="编组-4备份" transform="translate(214.489092, 179.000000)">
            <path d="M23.0958571,19.9684503 L18.7444568,24.0623265 L14.5995526,19.9684503 L3.5743953,19.9684503 C1.59985414,19.9684503 9.09494702e-13,18.3552351 9.09494702e-13,16.3652606 L9.09494702e-13,3.60318976 C9.09494702e-13,1.61321519 1.59985414,0 3.5743953,0 L45.4002785,0 C47.3748196,0 48.9755233,1.61321519 48.9755233,3.60318976 L48.9755233,16.3652606 C48.9755233,18.3552351 47.3748196,19.9684503 45.4002785,19.9684503 L23.0958571,19.9684503 Z" id="Fill-1-Copy复制-9备份-48" stroke="#555A6F" stroke-width="1.078" fill="#F0F1F7" transform="translate(24.487762, 12.031163) rotate(-180.000000) translate(-24.487762, -12.031163) "></path>
            <path d="M20.2109375,17 C21.0224609,17 21.682373,16.7480469 22.1906738,16.2441406 C22.6989746,15.7402344 22.953125,15.0883789 22.953125,14.2885742 L22.953125,14.2885742 L22.953125,13.3173828 C22.953125,12.5205078 22.6989746,11.8686523 22.1906738,11.3618164 C21.682373,10.8549805 21.0224609,10.6015625 20.2109375,10.6015625 L20.2109375,10.6015625 L18.097168,10.6015625 L18.097168,17 L20.2109375,17 Z M20.2109375,16.1474609 L19.1650391,16.1474609 L19.1650391,11.4584961 L20.2109375,11.4584961 C20.7236328,11.4584961 21.1308594,11.6320801 21.4326172,11.979248 C21.734375,12.326416 21.8852539,12.7695312 21.8852539,13.3085937 L21.8852539,13.3085937 L21.8852539,14.2885742 C21.8852539,14.8334961 21.734375,15.279541 21.4326172,15.626709 C21.1308594,15.973877 20.7236328,16.1474609 20.2109375,16.1474609 L20.2109375,16.1474609 Z M25.2822266,17 L25.2822266,10.6015625 L24.2143555,10.6015625 L24.2143555,17 L25.2822266,17 Z M28.8901367,17.0922852 C29.5668945,17.0922852 30.1132812,16.934082 30.5292969,16.6176758 C30.9453125,16.3012695 31.1533203,15.8779297 31.1533203,15.3476562 C31.1533203,14.84375 30.9775391,14.4299316 30.6259766,14.1062012 C30.2744141,13.7824707 29.7631836,13.5268555 29.0922852,13.3393555 C28.597168,13.1958008 28.2426758,13.0441895 28.0288086,12.8845215 C27.8149414,12.7248535 27.7080078,12.5219727 27.7080078,12.2758789 C27.7080078,12.0063477 27.8054199,11.7866211 28.0002441,11.6166992 C28.1950684,11.4467773 28.4726562,11.3618164 28.8330078,11.3618164 C29.2050781,11.3618164 29.5031738,11.4614258 29.7272949,11.6606445 C29.951416,11.8598633 30.0634766,12.1279297 30.0634766,12.4648437 L30.0634766,12.4648437 L31.0917969,12.4648437 L31.1005859,12.4384766 C31.1152344,11.8935547 30.9152832,11.435791 30.5007324,11.0651855 C30.0861816,10.6945801 29.5332031,10.5092773 28.8417969,10.5092773 C28.1972656,10.5092773 27.6699219,10.6762695 27.2597656,11.0102539 C26.8496094,11.3442383 26.6445312,11.769043 26.6445312,12.284668 C26.6445312,12.7827148 26.8312988,13.1862793 27.204834,13.4953613 C27.5783691,13.8044434 28.109375,14.0541992 28.7978516,14.2446289 C29.2783203,14.3793945 29.6130371,14.5317383 29.802002,14.7016602 C29.9909668,14.871582 30.0854492,15.0898437 30.0854492,15.3564453 C30.0854492,15.6289062 29.9807129,15.8449707 29.7712402,16.0046387 C29.5617676,16.1643066 29.2680664,16.2441406 28.8901367,16.2441406 C28.5092773,16.2441406 28.1862793,16.1467285 27.9211426,15.9519043 C27.6560059,15.7570801 27.5234375,15.4677734 27.5234375,15.0839844 L27.5234375,15.0839844 L26.4951172,15.0839844 L26.4863281,15.1103516 C26.4716797,15.7402344 26.7060547,16.2280273 27.1894531,16.5737305 C27.6728516,16.9194336 28.2397461,17.0922852 28.8901367,17.0922852 Z" id="DIS" fill="#000000" fill-rule="nonzero"></path>
        </g>
        <g id="编组-4备份-2" transform="translate(532.489092, 362.000000)">
            <path d="M23.0958571,19.9684503 L18.7444568,24.0623265 L14.5995526,19.9684503 L3.5743953,19.9684503 C1.59985414,19.9684503 9.09494702e-13,18.3552351 9.09494702e-13,16.3652606 L9.09494702e-13,3.60318976 C9.09494702e-13,1.61321519 1.59985414,0 3.5743953,0 L45.4002785,0 C47.3748196,0 48.9755233,1.61321519 48.9755233,3.60318976 L48.9755233,16.3652606 C48.9755233,18.3552351 47.3748196,19.9684503 45.4002785,19.9684503 L23.0958571,19.9684503 Z" id="Fill-1-Copy复制-9备份-48" stroke="#555A6F" stroke-width="1.078" fill="#F0F1F7" transform="translate(24.487762, 12.031163) rotate(-180.000000) translate(-24.487762, -12.031163) "></path>
            <path d="M20.2109375,17 C21.0224609,17 21.682373,16.7480469 22.1906738,16.2441406 C22.6989746,15.7402344 22.953125,15.0883789 22.953125,14.2885742 L22.953125,14.2885742 L22.953125,13.3173828 C22.953125,12.5205078 22.6989746,11.8686523 22.1906738,11.3618164 C21.682373,10.8549805 21.0224609,10.6015625 20.2109375,10.6015625 L20.2109375,10.6015625 L18.097168,10.6015625 L18.097168,17 L20.2109375,17 Z M20.2109375,16.1474609 L19.1650391,16.1474609 L19.1650391,11.4584961 L20.2109375,11.4584961 C20.7236328,11.4584961 21.1308594,11.6320801 21.4326172,11.979248 C21.734375,12.326416 21.8852539,12.7695312 21.8852539,13.3085937 L21.8852539,13.3085937 L21.8852539,14.2885742 C21.8852539,14.8334961 21.734375,15.279541 21.4326172,15.626709 C21.1308594,15.973877 20.7236328,16.1474609 20.2109375,16.1474609 L20.2109375,16.1474609 Z M25.2822266,17 L25.2822266,10.6015625 L24.2143555,10.6015625 L24.2143555,17 L25.2822266,17 Z M28.8901367,17.0922852 C29.5668945,17.0922852 30.1132812,16.934082 30.5292969,16.6176758 C30.9453125,16.3012695 31.1533203,15.8779297 31.1533203,15.3476562 C31.1533203,14.84375 30.9775391,14.4299316 30.6259766,14.1062012 C30.2744141,13.7824707 29.7631836,13.5268555 29.0922852,13.3393555 C28.597168,13.1958008 28.2426758,13.0441895 28.0288086,12.8845215 C27.8149414,12.7248535 27.7080078,12.5219727 27.7080078,12.2758789 C27.7080078,12.0063477 27.8054199,11.7866211 28.0002441,11.6166992 C28.1950684,11.4467773 28.4726562,11.3618164 28.8330078,11.3618164 C29.2050781,11.3618164 29.5031738,11.4614258 29.7272949,11.6606445 C29.951416,11.8598633 30.0634766,12.1279297 30.0634766,12.4648437 L30.0634766,12.4648437 L31.0917969,12.4648437 L31.1005859,12.4384766 C31.1152344,11.8935547 30.9152832,11.435791 30.5007324,11.0651855 C30.0861816,10.6945801 29.5332031,10.5092773 28.8417969,10.5092773 C28.1972656,10.5092773 27.6699219,10.6762695 27.2597656,11.0102539 C26.8496094,11.3442383 26.6445312,11.769043 26.6445312,12.284668 C26.6445312,12.7827148 26.8312988,13.1862793 27.204834,13.4953613 C27.5783691,13.8044434 28.109375,14.0541992 28.7978516,14.2446289 C29.2783203,14.3793945 29.6130371,14.5317383 29.802002,14.7016602 C29.9909668,14.871582 30.0854492,15.0898437 30.0854492,15.3564453 C30.0854492,15.6289062 29.9807129,15.8449707 29.7712402,16.0046387 C29.5617676,16.1643066 29.2680664,16.2441406 28.8901367,16.2441406 C28.5092773,16.2441406 28.1862793,16.1467285 27.9211426,15.9519043 C27.6560059,15.7570801 27.5234375,15.4677734 27.5234375,15.0839844 L27.5234375,15.0839844 L26.4951172,15.0839844 L26.4863281,15.1103516 C26.4716797,15.7402344 26.7060547,16.2280273 27.1894531,16.5737305 C27.6728516,16.9194336 28.2397461,17.0922852 28.8901367,17.0922852 Z" id="DIS" fill="#000000" fill-rule="nonzero"></path>
        </g>
        <g id="编组-4备份-4" transform="translate(334.489092, 458.000000)">
            <path d="M28.0958571,19.9684503 L23.7444568,24.0623265 L19.5995526,19.9684503 L3.5743953,19.9684503 C1.59985414,19.9684503 9.09494702e-13,18.3552351 9.09494702e-13,16.3652606 L9.09494702e-13,3.60318976 C9.09494702e-13,1.61321519 1.59985414,0 3.5743953,0 L55.4002785,0 C57.3748196,0 58.9755233,1.61321519 58.9755233,3.60318976 L58.9755233,16.3652606 C58.9755233,18.3552351 57.3748196,19.9684503 55.4002785,19.9684503 L28.0958571,19.9684503 Z" id="Fill-1-Copy复制-9备份-48" stroke="#555A6F" stroke-width="1.078" fill="#F0F1F7" transform="translate(29.487762, 12.031163) rotate(-180.000000) translate(-29.487762, -12.031163) "></path>
            <path d="M19.735,17.936 L20.212,17.243 C19.6,16.829 19.078,16.244 18.628,15.497 C19.114,14.462 19.384,13.211 19.438,11.744 L19.96,11.744 L19.96,10.925 L17.674,10.925 C17.746,10.556 17.8,10.169 17.854,9.755 L17.017,9.611 C16.837,11.285 16.495,12.617 15.991,13.607 L16.531,14.273 C16.693,14.003 16.837,13.697 16.981,13.373 C17.206,14.156 17.476,14.858 17.782,15.479 C17.386,16.19 16.855,16.766 16.189,17.216 L16.63,17.927 C17.26,17.477 17.791,16.919 18.214,16.262 C18.646,16.955 19.15,17.513 19.735,17.936 Z M12.292,13.886 C12.985,13.4 13.48,12.833 13.777,12.185 L13.777,13.706 L14.56,13.706 L14.56,12.698 C14.839,12.878 15.172,13.13 15.568,13.445 L16.018,12.77 C15.523,12.509 15.037,12.275 14.56,12.077 L14.56,12.032 L16.126,12.032 L16.126,11.285 L14.56,11.285 L14.56,9.629 L13.777,9.629 L13.777,11.285 L12.076,11.285 L12.076,12.032 L13.21,12.032 C12.94,12.446 12.499,12.833 11.869,13.193 L12.292,13.886 Z M15.397,11.159 C15.676,10.79 15.901,10.412 16.081,10.034 L15.478,9.746 C15.316,10.106 15.091,10.475 14.803,10.853 L15.397,11.159 Z M12.805,11.132 L13.417,10.853 C13.264,10.457 13.093,10.097 12.895,9.755 L12.22,9.98 C12.427,10.313 12.625,10.7 12.805,11.132 Z M18.169,14.606 C17.854,13.904 17.593,13.085 17.395,12.149 C17.431,12.023 17.467,11.888 17.503,11.744 L18.664,11.744 C18.628,12.824 18.466,13.778 18.169,14.606 Z M12.247,17.9 C13.138,17.666 13.885,17.36 14.479,16.973 C14.974,17.198 15.397,17.414 15.748,17.63 L16.207,16.964 C15.865,16.784 15.505,16.604 15.136,16.442 C15.55,16.028 15.838,15.551 16,15.011 L16,14.318 L14.164,14.318 C14.218,14.174 14.263,14.039 14.317,13.895 L13.516,13.796 C13.462,13.958 13.399,14.138 13.327,14.318 L12.058,14.318 L12.058,15.047 L13.003,15.047 C12.832,15.389 12.634,15.74 12.418,16.118 C12.832,16.28 13.228,16.433 13.597,16.586 C13.111,16.838 12.526,17.036 11.851,17.198 L12.247,17.9 Z M14.353,16.118 C14.056,15.992 13.75,15.884 13.435,15.776 C13.579,15.542 13.714,15.299 13.84,15.047 L15.235,15.047 C15.037,15.443 14.749,15.803 14.353,16.118 Z M21.985,17.846 C22.543,17.846 22.831,17.549 22.831,16.955 L22.831,14.462 C23.083,14.345 23.335,14.219 23.596,14.093 L23.596,13.256 C23.344,13.391 23.083,13.517 22.831,13.634 L22.831,12.095 L23.623,12.095 L23.623,11.276 L22.831,11.276 L22.831,9.647 L22.003,9.647 L22.003,11.276 L20.995,11.276 L20.995,12.095 L22.003,12.095 L22.003,13.958 C21.616,14.093 21.229,14.21 20.833,14.3 L21.049,15.146 C21.364,15.038 21.679,14.93 22.003,14.813 L22.003,16.748 C22.003,16.982 21.895,17.099 21.697,17.099 C21.481,17.099 21.265,17.072 21.04,17.036 L21.22,17.846 L21.985,17.846 Z M23.749,17.936 C24.325,16.784 24.667,15.452 24.784,13.94 L26.404,13.94 L26.404,14.867 L24.964,14.867 L24.964,17.927 L25.756,17.927 L25.756,17.54 L27.889,17.54 L27.889,17.927 L28.681,17.927 L28.681,14.867 L27.232,14.867 L27.232,13.94 L29.086,13.94 L29.086,13.157 L27.232,13.157 L27.232,12.257 L28.87,12.257 L28.87,9.926 L24.001,9.926 L24.001,12.86 C23.992,14.687 23.686,16.181 23.083,17.342 L23.749,17.936 Z M28.042,11.492 L24.829,11.492 L24.829,10.709 L28.042,10.709 L28.042,11.492 Z M26.404,13.157 L24.82,13.157 C24.82,13.058 24.829,12.959 24.829,12.86 L24.829,12.257 L26.404,12.257 L26.404,13.157 Z M27.889,16.784 L25.756,16.784 L25.756,15.623 L27.889,15.623 L27.889,16.784 Z M30.562,17.936 C31.12,16.739 31.408,15.146 31.435,13.148 L31.435,11.258 L38.032,11.258 L38.032,10.43 L34.792,10.43 C34.657,10.106 34.513,9.818 34.369,9.557 L33.415,9.719 C33.568,9.935 33.712,10.178 33.838,10.43 L30.571,10.43 L30.571,13.148 C30.553,14.921 30.31,16.307 29.842,17.297 L30.562,17.936 Z M34.342,15.506 L35.152,15.308 C34.909,14.039 34.63,12.905 34.324,11.915 L33.577,12.158 C33.883,13.238 34.144,14.354 34.342,15.506 Z M37.888,17.576 L37.888,16.748 L36.115,16.748 C36.637,15.461 37.069,13.994 37.429,12.356 L36.583,12.131 C36.187,13.949 35.728,15.488 35.197,16.748 L31.48,16.748 L31.48,17.576 L37.888,17.576 Z M32.749,16.064 L33.559,15.857 C33.271,14.615 32.956,13.526 32.596,12.572 L31.858,12.806 C32.218,13.85 32.515,14.93 32.749,16.064 Z M39.49,17.864 C40.048,17.126 40.381,16.19 40.489,15.056 L42.604,15.056 L42.604,17.621 L43.468,17.621 L43.468,15.056 L45.7,15.056 L45.7,16.397 C45.7,16.748 45.547,16.928 45.259,16.928 C44.953,16.928 44.629,16.91 44.278,16.883 L44.503,17.72 L45.538,17.72 C46.222,17.72 46.573,17.378 46.573,16.703 L46.573,9.926 L39.67,9.926 L39.67,14.336 C39.652,15.524 39.373,16.505 38.833,17.279 L39.49,17.864 Z M45.7,12.104 L43.468,12.104 L43.468,10.754 L45.7,10.754 L45.7,12.104 Z M42.604,12.104 L40.534,12.104 L40.534,10.754 L42.604,10.754 L42.604,12.104 Z M42.604,14.264 L40.534,14.264 L40.534,12.887 L42.604,12.887 L42.604,14.264 Z M45.7,14.264 L43.468,14.264 L43.468,12.887 L45.7,12.887 L45.7,14.264 Z" id="数据应用" fill="#000000" fill-rule="nonzero"></path>
        </g>
        <g id="编组-4备份-3" transform="translate(366.489092, 269.000000)">
            <path d="M23.0958571,19.9684503 L18.7444568,24.0623265 L14.5995526,19.9684503 L3.5743953,19.9684503 C1.59985414,19.9684503 9.09494702e-13,18.3552351 9.09494702e-13,16.3652606 L9.09494702e-13,3.60318976 C9.09494702e-13,1.61321519 1.59985414,0 3.5743953,0 L45.4002785,0 C47.3748196,0 48.9755233,1.61321519 48.9755233,3.60318976 L48.9755233,16.3652606 C48.9755233,18.3552351 47.3748196,19.9684503 45.4002785,19.9684503 L23.0958571,19.9684503 Z" id="Fill-1-Copy复制-9备份-48" stroke="#555A6F" stroke-width="1.078" fill="#F0F1F7" transform="translate(24.487762, 12.031163) rotate(-180.000000) translate(-24.487762, -12.031163) "></path>
            <path d="M8.057,12.257 L8.057,11.195 L13.925,11.195 L13.925,12.257 L14.753,12.257 L14.753,10.412 L11.468,10.412 C11.378,10.097 11.279,9.818 11.171,9.566 L10.298,9.71 C10.406,9.926 10.505,10.16 10.604,10.412 L7.229,10.412 L7.229,12.257 L8.057,12.257 Z M10.649,13.148 L11.09,12.473 C10.568,12.104 9.983,11.789 9.344,11.537 L8.921,12.167 C9.515,12.401 10.091,12.734 10.649,13.148 Z M14.492,17.981 L14.96,17.243 C13.916,16.595 12.773,16.019 11.531,15.533 C11.567,15.461 11.612,15.389 11.657,15.317 L14.834,15.317 L14.834,14.507 L12.008,14.507 C12.188,13.967 12.287,13.364 12.314,12.698 L12.314,11.6 L11.486,11.6 L11.486,12.698 C11.45,13.364 11.324,13.967 11.108,14.507 L7.175,14.507 L7.175,15.317 L10.667,15.317 L10.514,15.524 C9.911,16.208 8.768,16.766 7.094,17.207 L7.562,17.936 C9.164,17.522 10.334,16.928 11.063,16.154 C12.233,16.622 13.376,17.225 14.492,17.981 Z M9.776,14.417 L10.217,13.742 C9.686,13.373 9.101,13.058 8.462,12.797 L8.039,13.436 C8.633,13.67 9.218,13.994 9.776,14.417 Z M22.205,17.837 C22.808,17.837 23.114,17.531 23.114,16.919 L23.114,12.023 L24.122,12.023 L24.122,11.204 L23.114,11.204 L23.114,9.692 L22.241,9.692 L22.241,11.204 L19.244,11.204 L19.244,12.023 L22.241,12.023 L22.241,16.703 C22.241,16.937 22.133,17.054 21.917,17.054 C21.44,17.054 20.945,17.036 20.423,17.009 L20.612,17.837 L22.205,17.837 Z M16.985,17.198 L16.985,16.424 L18.065,16.424 L18.065,16.982 L18.893,16.982 L18.893,10.241 L16.148,10.241 L16.148,17.198 L16.985,17.198 Z M18.065,12.878 L16.985,12.878 L16.985,11.015 L18.065,11.015 L18.065,12.878 Z M20.792,15.65 L21.503,15.155 C21.215,14.525 20.792,13.796 20.243,12.959 L19.532,13.4 C20.054,14.228 20.477,14.984 20.792,15.65 Z M18.065,15.632 L16.985,15.632 L16.985,13.679 L18.065,13.679 L18.065,15.632 Z M32.546,13.562 L33.122,12.887 C31.79,12.095 30.881,11.024 30.386,9.674 L29.639,10.097 C30.188,11.51 31.16,12.662 32.546,13.562 Z M25.328,13.598 C26.102,13.058 26.696,12.545 27.128,12.059 C27.551,11.591 27.974,10.979 28.388,10.241 L27.65,9.791 C27.281,10.466 26.894,11.042 26.48,11.519 C25.976,12.086 25.436,12.527 24.86,12.851 L25.328,13.598 Z M25.832,17.954 C26.75,17.432 27.443,16.838 27.911,16.19 C28.271,15.632 28.559,14.885 28.775,13.949 L30.809,13.949 C30.764,15.236 30.665,16.082 30.521,16.478 C30.377,16.856 30.071,17.045 29.621,17.045 C29.153,17.045 28.649,17.027 28.118,17.009 L28.352,17.855 L30.053,17.855 C30.512,17.828 30.845,17.675 31.052,17.405 C31.259,17.126 31.403,16.631 31.493,15.929 C31.583,15.209 31.637,14.282 31.673,13.13 L26.228,13.13 L26.228,13.949 L27.911,13.949 C27.722,14.705 27.461,15.317 27.128,15.794 C26.714,16.325 26.093,16.811 25.283,17.243 L25.832,17.954 Z M36.083,17.9 L36.083,13.445 C36.299,13.742 36.56,14.129 36.866,14.597 L37.325,13.913 C36.911,13.418 36.497,12.959 36.083,12.536 L36.083,12.131 L37.226,12.131 L37.226,11.312 L36.083,11.312 L36.083,9.62 L35.246,9.62 L35.246,11.312 L34.004,11.312 L34.004,12.131 L35.192,12.131 C34.904,13.175 34.436,14.102 33.797,14.912 L34.166,15.848 C34.598,15.173 34.958,14.435 35.246,13.625 L35.246,17.9 L36.083,17.9 Z M40.79,17.909 L40.79,13.247 L42.05,13.247 L42.05,12.428 L38.468,12.428 L38.468,11.006 C39.71,10.943 40.835,10.736 41.843,10.394 L41.42,9.629 C40.313,10.025 39.053,10.241 37.649,10.277 L37.649,13.238 C37.595,14.939 37.199,16.271 36.47,17.225 L37.082,17.864 C37.937,16.721 38.396,15.182 38.468,13.247 L39.926,13.247 L39.926,17.909 L40.79,17.909 Z" id="实时分析" fill="#000000" fill-rule="nonzero"></path>
        </g>
    </g>
</svg>