<?xml version="1.0" encoding="UTF-8"?>
<svg width="70px" height="70px" viewBox="0 0 70 70" version="1.1" xmlns="http://www.w3.org/2000/svg" xmlns:xlink="http://www.w3.org/1999/xlink">
    <title>数据连接</title>
    <defs>
        <linearGradient x1="22.3038737%" y1="77.4981689%" x2="100%" y2="18.5262044%" id="linearGradient-1">
            <stop stop-color="#CF0010" offset="0%"></stop>
            <stop stop-color="#FF8888" offset="100%"></stop>
        </linearGradient>
        <filter id="filter-2">
            <feColorMatrix in="SourceGraphic" type="matrix" values="0 0 0 0 0.811765 0 0 0 0 0.000000 0 0 0 0 0.062745 0 0 0 1.000000 0"></feColorMatrix>
        </filter>
    </defs>
    <g id="页面-1" stroke="none" stroke-width="1" fill="none" fill-rule="evenodd">
        <g id="SDSF-产品中心（数据可视化）" transform="translate(-382.000000, -2060.000000)">
            <g id="产品优势备份" transform="translate(360.000000, 1961.000000)">
                <g id="编组-6" transform="translate(0.000000, 99.000000)">
                    <g id="数据连接" transform="translate(22.000000, 0.000000)">
                        <rect id="矩形" x="0" y="0" width="70" height="70"></rect>
                        <g id="编组-9" transform="translate(10.000000, 10.000000)">
                            <circle id="椭圆形备份" stroke="#FFC8C8" fill="url(#linearGradient-1)" cx="32.5" cy="17.5" r="17"></circle>
                            <circle id="椭圆形" stroke-opacity="0.3" stroke="#FFC8C8" cx="22.5" cy="27.5" r="22"></circle>
                            <g filter="url(#filter-2)" id="云-数据连接">
                                <g transform="translate(13.000000, 18.000000)">
                                    <rect id="矩形" fill="#000000" fill-rule="nonzero" opacity="0" x="0" y="0" width="18.5" height="18.5"></rect>
                                    <path d="M17.7312346,14.9983493 L12.2891804,14.9983493 C12.0229052,14.2504491 11.4344044,13.6619483 10.6865042,13.3956731 L10.6865042,10.5953928 L13.4779786,10.5953928 C15.4078016,10.6588004 17.0804112,9.26961518 17.3723255,7.36094466 C17.6642398,5.45227415 16.4833047,3.62666445 14.6227473,3.11036681 C13.6553658,0.966898229 11.3877547,-0.279202901 9.05973437,0.0533714366 C6.73171401,0.385945774 4.90371566,2.21713397 4.57520065,4.54573062 C3.09332612,4.96128242 2.14512762,6.40631341 2.35376518,7.93114317 C2.56240273,9.45597292 3.86392089,10.5931824 5.40295648,10.5953928 L8.92532163,10.5953928 L8.92532163,13.3956731 C8.17742149,13.6619483 7.58892065,14.2504491 7.32264549,14.9983493 L1.8805913,14.9983493 C1.39425415,14.9983493 1,15.3926034 1,15.8789406 C1,16.3652777 1.39425415,16.7595319 1.8805913,16.7595319 L7.32264549,16.7595319 C7.7018502,17.8043124 8.69444424,18.5 9.80591293,18.5 C10.9173816,18.5 11.9099757,17.8043124 12.2891804,16.7595319 L17.7312346,16.7595319 C18.2175717,16.7595319 18.6118259,16.3652777 18.6118259,15.8789406 C18.6118259,15.3926034 18.2175717,14.9983493 17.7312346,14.9983493 Z M5.40295648,8.83421022 C4.67345076,8.83421022 4.08206954,8.242829 4.08206954,7.51332328 C4.08206954,6.78381757 4.67345076,6.19243634 5.40295648,6.19243634 C5.88929361,6.19243633 6.28354775,5.79818218 6.28354775,5.31184505 C6.27878923,3.5849231 7.52671715,2.10923052 9.23044355,1.82709868 C10.93417,1.54496684 12.591178,2.53961097 13.1433539,4.17588228 C13.2459169,4.48421138 13.5099424,4.71100253 13.8302151,4.76587845 C14.8147479,4.93006045 15.5347102,5.78431634 15.5297817,6.7824325 C15.5249325,7.91359394 14.6091401,8.82938644 13.4779786,8.83421022 L5.40295648,8.83421022 L5.40295648,8.83421022 Z M9.80591293,16.7595319 C9.31957578,16.7595319 8.92532163,16.3652777 8.92532163,15.8789406 C8.92532163,15.3926034 9.31957578,14.9983493 9.80591293,14.9983493 C10.2922501,14.9983493 10.6865042,15.3926034 10.6865042,15.8789406 C10.6865042,16.3652777 10.2922501,16.7595319 9.80591293,16.7595319 L9.80591293,16.7595319 Z" id="形状" stroke="#979797" stroke-width="0.8" fill="#000000" fill-rule="nonzero"></path>
                                </g>
                            </g>
                        </g>
                    </g>
                </g>
            </g>
        </g>
    </g>
</svg>