<?xml version="1.0" encoding="UTF-8"?>
<svg width="60px" height="60px" viewBox="0 0 60 60" version="1.1" xmlns="http://www.w3.org/2000/svg" xmlns:xlink="http://www.w3.org/1999/xlink">
    <title>可视化组件</title>
    <g id="页面-1" stroke="none" stroke-width="1" fill="none" fill-rule="evenodd">
        <g id="SDSF-产品中心（数据可视化）" transform="translate(-382.000000, -725.000000)" fill-rule="nonzero">
            <g id="编组-10" transform="translate(382.000000, 625.000000)">
                <g id="可视化组件" transform="translate(0.000000, 100.000000)">
                    <rect id="矩形" fill="#000000" opacity="0" x="0" y="0" width="60" height="60"></rect>
                    <g id="文件1" transform="translate(3.000000, 4.000000)">
                        <rect id="矩形" fill="#000000" opacity="0" x="0" y="0" width="53" height="53"></rect>
                        <path d="M20.1855469,23.9638672 L8.33300781,23.9638672 C7.47543262,23.9638672 6.78027344,24.6590264 6.78027344,25.5166016 L6.78027344,42.8554688 C6.78027344,43.7130439 7.47543262,44.4082031 8.33300781,44.4082031 L44.6669922,44.4082031 C45.5245674,44.4082031 46.2197266,43.7130439 46.2197266,42.8554688 L46.2197266,25.5166016 C46.2197266,24.6590264 45.5245674,23.9638672 44.6669922,23.9638672 L32.8144531,23.9638672 C31.9654697,23.9638672 31.2756416,24.645207 31.2619258,25.4909297 L31.2617188,25.5166016 C31.2617188,28.146416 29.1298145,30.2783203 26.5,30.2783203 C23.8964785,30.2783203 21.7809814,28.1888574 21.7389023,25.5953252 L21.7382812,25.5166016 C21.7382812,24.6590264 21.0431221,23.9638672 20.1855469,23.9638672 Z M43.1142578,27.0693359 L43.1142578,41.3027344 L9.88574219,41.3027344 L9.88574219,27.0693359 L18.7861709,27.0693359 L18.8054766,27.1634834 C19.5624863,30.7177959 22.7199199,33.3837891 26.5,33.3837891 L26.6301191,33.3827539 C30.352334,33.3224043 33.446209,30.676959 34.1945234,27.1634834 L34.2137773,27.0693359 L43.1142578,27.0693359 Z" id="形状" fill="#3C3C3C"></path>
                        <path d="M38.5595703,8.59179688 C39.1877427,8.59179688 39.7540419,8.97025011 39.9942969,9.55066211 L40.0025781,9.57120996 L46.11,24.9432803 C46.4266543,25.7402471 46.0372803,26.6430068 45.2403135,26.9596094 C44.4513174,27.2731064 43.5587021,26.8946016 43.2336631,26.1137314 L43.2239844,26.0899229 L37.5056777,11.6972656 L15.4942705,11.6972656 L9.77606738,26.0899229 C9.46257031,26.8789189 8.57466504,27.2684482 7.78365039,26.9689258 L7.75968652,26.9596094 C6.97069043,26.6461641 6.58116113,25.7582588 6.88068359,24.9672441 L6.89,24.9432803 L12.9974219,9.57120996 C13.2294014,8.98744798 13.7901773,8.60089831 14.4182773,8.59179688 L38.5595703,8.59179688 Z" id="路径" fill="#3C3C3C"></path>
                        <path d="M34.6479736,16.277832 C35.5054971,16.277832 36.200708,16.9729912 36.200708,17.8305664 C36.200708,18.6795498 35.5193682,19.3693779 34.6736455,19.3830938 L34.6479736,19.3833008 L18.3341699,19.3833008 C17.4765947,19.3833008 16.7814355,18.6881416 16.7814355,17.8305664 C16.7814355,16.981583 17.4627754,16.2917549 18.308498,16.2780391 L18.3341699,16.277832 L34.6479736,16.277832 Z" id="路径" fill="#CF0010"></path>
                    </g>
                </g>
            </g>
        </g>
    </g>
</svg>