<?xml version="1.0" encoding="UTF-8"?>
<svg width="70px" height="70px" viewBox="0 0 70 70" version="1.1" xmlns="http://www.w3.org/2000/svg" xmlns:xlink="http://www.w3.org/1999/xlink">
    <title>数据访问</title>
    <defs>
        <linearGradient x1="22.3038737%" y1="77.4981689%" x2="100%" y2="18.5262044%" id="linearGradient-1">
            <stop stop-color="#CF0010" offset="0%"></stop>
            <stop stop-color="#FF8888" offset="100%"></stop>
        </linearGradient>
    </defs>
    <g id="页面-1" stroke="none" stroke-width="1" fill="none" fill-rule="evenodd">
        <g id="SDSF-产品中心（可信跨链服务）" transform="translate(-990.000000, -1980.000000)">
            <g id="产品优势备份" transform="translate(360.000000, 1880.000000)">
                <g id="编组-6备份-9" transform="translate(610.000000, 100.000000)">
                    <g id="数据访问" transform="translate(20.000000, 0.000000)">
                        <rect id="矩形" x="0" y="0" width="70" height="70"></rect>
                        <g id="编组-9" transform="translate(10.000000, 10.000000)">
                            <circle id="椭圆形备份" stroke="#FFC8C8" fill="url(#linearGradient-1)" cx="32.5" cy="17.5" r="17"></circle>
                            <circle id="椭圆形" stroke-opacity="0.3" stroke="#FFC8C8" cx="22.5" cy="27.5" r="22"></circle>
                            <g id="权限管理" transform="translate(13.000000, 18.000000)" fill-rule="nonzero">
                                <rect id="矩形" fill="#000000" opacity="0" x="0" y="0" width="18.4280156" height="18.4280156"></rect>
                                <path d="M18.4982724,7.992 L16.0542568,10.4360156 L13.1979144,7.5785214 L11.8008405,8.94564981 C12.3635452,9.899652 12.6632027,10.9858112 12.6692607,12.0933852 C12.6692607,15.591905 9.83315009,18.4280156 6.33463035,18.4280156 C2.83611061,18.4280156 0,15.591905 0,12.0933852 C0,8.59486548 2.83611061,5.75875486 6.33463035,5.75875486 C7.44168471,5.76483171 8.52737128,6.06407109 9.48121401,6.62602335 L16.0093385,0 L18.4280156,2.41867704 L15.6569027,5.14602335 L18.4982724,7.992 Z M6.33463035,8.5678753 C4.91091925,8.56740961 3.62713689,9.42467397 3.0819834,10.7398778 C2.53682991,12.0550817 2.83768051,13.5691782 3.84423158,14.5760587 C4.85078265,15.5829393 6.36478063,15.8842854 7.68016283,15.3395624 C8.99554503,14.7948394 9.85322957,13.5113376 9.85322957,12.0876265 C9.85005361,10.1464205 8.27583877,8.57426686 6.33463035,8.57363424 L6.33463035,8.5678753 Z" id="形状" fill="#CF0010"></path>
                            </g>
                        </g>
                    </g>
                </g>
            </g>
        </g>
    </g>
</svg>