<?xml version="1.0" encoding="UTF-8"?>
<svg width="60px" height="60px" viewBox="0 0 60 60" version="1.1" xmlns="http://www.w3.org/2000/svg" xmlns:xlink="http://www.w3.org/1999/xlink">
    <title>授权访问</title>
    <g id="页面-1" stroke="none" stroke-width="1" fill="none" fill-rule="evenodd">
        <g id="SDSF-产品中心（可信跨链服务）" transform="translate(-990.000000, -725.000000)" fill-rule="nonzero">
            <g id="编组-10" transform="translate(382.000000, 625.000000)">
                <g id="授权访问" transform="translate(608.000000, 100.000000)">
                    <rect id="矩形" fill="#000000" opacity="0" x="0" y="0" width="60" height="60"></rect>
                    <g id="人员设置" transform="translate(3.000000, 4.000000)">
                        <rect id="矩形" fill="#000000" opacity="0" x="0" y="0" width="53" height="53"></rect>
                        <path d="M26.5,8.83333335 C24.1331154,8.83333335 21.9460239,10.0960512 20.7625816,12.1458333 C19.5791393,14.1956155 19.5791393,16.7210512 20.7625816,18.7708334 C21.9460239,20.8206155 24.1331154,22.0833334 26.5,22.0833334 C30.1588865,22.0833334 33.125,19.1172198 33.125,15.4583334 C33.125,11.7994469 30.1588865,8.83333335 26.5,8.83333335 Z M15.4583334,15.4583334 C15.4583334,9.36002085 20.4016875,4.41666665 26.5,4.41666665 C32.5983125,4.41666665 37.5416666,9.3600208 37.5416666,15.4583334 C37.5416666,21.5566459 32.5983125,26.5 26.5,26.5 C20.4016875,26.5 15.4583334,21.5566459 15.4583334,15.4583334 Z M33.966375,27.8669584 C31.6454166,26.983625 29.130125,26.5 26.5,26.5 C14.9139791,26.5 5.52083335,35.8931459 5.52083335,47.4791666 L9.9375,47.4791666 C9.9375,38.33225 17.3530834,30.9166666 26.5,30.9166666 C27.858125,30.9166666 29.1798125,31.0800833 30.4440834,31.38925 L33.966375,27.8669584 L33.966375,27.8669584 Z" id="形状" fill="#3C3C3C"></path>
                        <polygon id="路径" fill="#CF0010" points="29.8125 36.4375 47.4791666 36.4375 47.4791666 40.8541666 29.8125 40.8541666"></polygon>
                        <polygon id="路径" fill="#CF0010" points="40.8541666 29.8125 40.8541666 47.4791666 36.4375 47.4791666 36.4375 29.8125"></polygon>
                    </g>
                </g>
            </g>
        </g>
    </g>
</svg>