<?xml version="1.0" encoding="UTF-8"?>
<svg width="60px" height="60px" viewBox="0 0 60 60" version="1.1" xmlns="http://www.w3.org/2000/svg" xmlns:xlink="http://www.w3.org/1999/xlink">
    <title>桌面管控</title>
    <g id="页面-1" stroke="none" stroke-width="1" fill="none" fill-rule="evenodd">
        <g id="SDSF-产品中心（终端安全防护）" transform="translate(-390.000000, -893.000000)" fill-rule="nonzero">
            <g id="产品优势" transform="translate(360.000000, 625.000000)">
                <g id="编组-6备份" transform="translate(0.000000, 268.000000)">
                    <g id="桌面管控" transform="translate(30.000000, 0.000000)">
                        <rect id="矩形" fill="#000000" opacity="0" x="0" y="0" width="60" height="60"></rect>
                        <g id="顶部菜单" transform="translate(5.000000, 5.000000)">
                            <rect id="矩形" fill="#000000" opacity="0" x="0" y="0" width="50" height="50"></rect>
                            <path d="M5.76923076,3.84615386 L19.2307692,3.84615386 C20.5128205,3.84615386 21.1538461,4.48717949 21.1538461,5.76923076 L21.1538461,5.76923076 C21.1538461,7.05128203 20.5128205,7.69230771 19.2307692,7.69230771 L5.76923076,7.69230771 C4.48717949,7.69230771 3.84615386,7.05128206 3.84615386,5.76923076 L3.84615386,5.76923076 C3.84615386,4.48717949 4.48717949,3.84615386 5.76923076,3.84615386 Z" id="路径" fill="#CF0010"></path>
                            <path d="M25,3.84615386 L30.7692308,3.84615386 C32.051282,3.84615386 32.6923077,4.48717949 32.6923077,5.76923076 L32.6923077,5.76923076 C32.6923077,7.05128203 32.0512821,7.69230771 30.7692308,7.69230771 L25,7.69230771 C23.7179487,7.69230771 23.0769231,7.05128206 23.0769231,5.76923076 L23.0769231,5.76923076 C23.0769231,4.48717949 23.7179487,3.84615386 25,3.84615386 Z" id="路径" fill="#3C3C3C"></path>
                            <path d="M36.5384615,3.84615386 L44.2307692,3.84615386 C45.5128205,3.84615386 46.1538461,4.48717949 46.1538461,5.76923076 L46.1538461,5.76923076 C46.1538461,7.05128203 45.5128205,7.69230771 44.2307692,7.69230771 L36.5384615,7.69230771 C35.2564103,7.69230771 34.6153846,7.05128206 34.6153846,5.76923076 L34.6153846,5.76923076 C34.6153846,4.48717949 35.2564103,3.84615386 36.5384615,3.84615386 Z" id="路径" fill="#3C3C3C"></path>
                            <path d="M42.3076923,11.5384615 C44.4318644,11.5384615 46.1538461,13.2604433 46.1538461,15.3846154 L46.1538461,42.3076923 C46.1538461,44.4318644 44.4318644,46.1538461 42.3076923,46.1538461 L7.69230771,46.1538461 C5.56813559,46.1538461 3.84615386,44.4318644 3.84615386,42.3076923 L3.84615386,15.3846154 C3.84615386,13.2604433 5.56813559,11.5384615 7.69230771,11.5384615 L42.3076923,11.5384615 Z M42.3076923,15.3846154 L7.69230771,15.3846154 L7.69230771,42.3076923 L42.3076923,42.3076923 L42.3076923,15.3846154 Z" id="形状" fill="#3C3C3C"></path>
                        </g>
                    </g>
                </g>
            </g>
        </g>
    </g>
</svg>