<?xml version="1.0" encoding="UTF-8"?>
<svg width="70px" height="70px" viewBox="0 0 70 70" version="1.1" xmlns="http://www.w3.org/2000/svg" xmlns:xlink="http://www.w3.org/1999/xlink">
    <title>专属主机管理</title>
    <defs>
        <linearGradient x1="100%" y1="15.5380661%" x2="14.4115551%" y2="100%" id="linearGradient-1">
            <stop stop-color="#FF8888" offset="0%"></stop>
            <stop stop-color="#CF0010" offset="100%"></stop>
        </linearGradient>
    </defs>
    <g id="页面-1" stroke="none" stroke-width="1" fill="none" fill-rule="evenodd">
        <g id="SDSF-产品中心（专属主机）" transform="translate(-380.000000, -1934.000000)">
            <g id="产品优势备份" transform="translate(360.000000, 1835.000000)">
                <g id="编组-6" transform="translate(0.000000, 99.000000)">
                    <g id="专属主机管理" transform="translate(20.000000, 0.000000)">
                        <rect id="矩形" x="0" y="0" width="70" height="70"></rect>
                        <g id="编组-7" transform="translate(9.000000, 10.000000)">
                            <rect id="矩形" stroke="#FFC8C8" fill="url(#linearGradient-1)" x="15.5" y="15.5" width="34" height="34" rx="5"></rect>
                            <rect id="矩形" stroke-opacity="0.302418529" stroke="#FFC8C8" x="0.5" y="0.5" width="39" height="39" rx="5"></rect>
                            <path d="M11.25,11.875 L11.25,19.2386364 L29.25,19.2386364 L29.25,11.875 L11.25,11.875 Z M28.2272727,18.2159091 L12.2727273,18.2159091 L12.2727273,12.8977273 L28.2272727,12.8977273 L28.2272727,18.2159091 Z M24.1363636,24.5568182 L26.1818182,24.5568182 L26.1818182,26.1931818 L24.1363636,26.1931818 L24.1363636,24.5568182 Z M14.9318182,16.1704545 L13.9090909,16.1704545 L13.9090909,14.5340909 L14.9318182,14.5340909 L14.9318182,16.1704545 Z M13.9090909,24.5568182 L14.9318182,24.5568182 L14.9318182,26.1931818 L13.9090909,26.1931818 L13.9090909,24.5568182 Z M16.2409091,24.5568182 L17.2636364,24.5568182 L17.2636364,26.1931818 L16.2409091,26.1931818 L16.2409091,24.5568182 Z M17.2636364,16.1704545 L16.2409091,16.1704545 L16.2409091,14.5340909 L17.2636364,14.5340909 L17.2636364,16.1704545 Z M26.1818182,16.1704545 L24.1363636,16.1704545 L24.1363636,14.5340909 L26.1818182,14.5340909 L26.1818182,16.1704545 Z M11.25,29.0568182 L29.25,29.0568182 L29.25,21.6931818 L11.25,21.6931818 L11.25,29.0568182 Z M12.2727273,22.7159091 L28.2272727,22.7159091 L28.2272727,28.0340909 L12.2727273,28.0340909 L12.2727273,22.7159091 Z" id="形状" stroke="#CF0010" fill="#CF0010" fill-rule="nonzero"></path>
                        </g>
                    </g>
                </g>
            </g>
        </g>
    </g>
</svg>