<?xml version="1.0" encoding="UTF-8"?>
<svg width="70px" height="70px" viewBox="0 0 70 70" version="1.1" xmlns="http://www.w3.org/2000/svg" xmlns:xlink="http://www.w3.org/1999/xlink">
    <title>主动放置策略</title>
    <defs>
        <linearGradient x1="100%" y1="27.6369704%" x2="14.4115551%" y2="82.4459877%" id="linearGradient-1">
            <stop stop-color="#FF8888" offset="0%"></stop>
            <stop stop-color="#CF0010" offset="100%"></stop>
        </linearGradient>
    </defs>
    <g id="页面-1" stroke="none" stroke-width="1" fill="none" fill-rule="evenodd">
        <g id="SDSF-产品中心（专属主机）" transform="translate(-990.000000, -2078.000000)">
            <g id="产品优势备份" transform="translate(360.000000, 1835.000000)">
                <g id="编组-6备份-7" transform="translate(610.000000, 243.000000)">
                    <g id="主动放置策略" transform="translate(20.000000, 0.000000)">
                        <rect id="矩形" x="0" y="0" width="70" height="70"></rect>
                        <g id="编组-7" transform="translate(9.000000, 10.000000)">
                            <rect id="矩形" stroke="#FFC8C8" fill="url(#linearGradient-1)" x="9.5" y="0.5" width="35" height="28" rx="5"></rect>
                            <rect id="矩形" stroke-opacity="0.302418529" stroke="#FFC8C8" x="0.5" y="10.5" width="51" height="39" rx="5"></rect>
                            <g id="工具" transform="translate(16.000000, 20.000000)"></g>
                            <g id="编组-8" transform="translate(18.249859, 21.249995)" fill="#CF0010" fill-rule="nonzero" stroke="#CF0010" stroke-width="0.5">
                                <path d="M7.04748167,8.36895319 C4.61883135,8.36895319 2.64294301,6.49196915 2.64294301,4.1844766 C2.64294301,1.87698404 4.61883138,-5.94656599e-14 7.04748167,-5.94656599e-14 C9.47613197,-5.94656599e-14 11.4522951,1.87725879 11.4522951,4.1844766 C11.4522951,6.49169441 9.476132,8.36895319 7.04748167,8.36895319 Z M7.04748167,1.32147149 C5.34770118,1.32147149 3.96413975,2.60585387 3.96413975,4.1844766 C3.96413975,5.76309933 5.34770118,7.04775642 7.04748167,7.04775642 C8.74726217,7.04775642 10.1308236,5.7630993 10.1308236,4.1844766 C10.1308236,2.60585389 8.74781164,1.32147149 7.04748167,1.32147149 Z" id="形状"></path>
                                <path d="M7.3104023,18.0588284 C5.0218664,18.0588284 2.14759722,17.6066159 0.786289285,16.2942106 C0.271712143,15.7977659 -1.57896976e-12,15.1985706 -1.57896976e-12,14.5606378 C-1.57896976e-12,10.4179208 3.26054547,7.04775642 7.26781852,7.04775642 C7.63265693,7.04775642 7.9284169,7.34351639 7.9284169,7.70835481 C7.9284169,8.07319322 7.63265693,8.36895319 7.26781852,8.36895319 C3.98886585,8.36895319 1.32147152,11.1465159 1.32147149,14.5606378 C1.32147149,14.8389436 1.44647555,15.0949959 1.70390151,15.3428061 C2.6500861,16.2554731 5.18423435,16.8247224 7.86866221,16.726917 C8.23213556,16.7043888 8.53956311,16.9983544 8.55302508,17.3629267 C8.56616197,17.7275614 8.28136537,18.0338776 7.91674068,18.0472896 C7.72030572,18.0552568 7.51782661,18.0588284 7.3104023,18.0588284 L7.3104023,18.0588284 Z" id="路径"></path>
                                <path d="M15.8719442,12.9336619 L13.5007133,10.5580353 C13.2259791,10.2833011 12.8138778,10.2833011 12.540792,10.5580353 C12.2677062,10.8327695 12.2660578,11.2465192 12.540792,11.5220776 L13.7128081,12.7270618 L9.71597497,12.7270618 C9.3355841,12.7270618 9.02721638,13.0354295 9.02721638,13.4158204 C9.02721638,13.7962113 9.3355841,14.104579 9.71597497,14.1045791 L13.7114344,14.1045791 L12.52733,15.327421 C12.2188035,15.6373212 12.2525958,16.1540962 12.6300806,16.3958623 C12.9048148,16.6021877 13.2817501,16.5332294 13.5224173,16.2920127 L15.8722189,13.8985284 C16.1469531,13.6237942 16.1469531,13.2100445 15.8722189,12.9336619 L15.8719442,12.9336619 Z" id="路径"></path>
                            </g>
                        </g>
                    </g>
                </g>
            </g>
        </g>
    </g>
</svg>