<?xml version="1.0" encoding="UTF-8"?>
<svg width="60px" height="60px" viewBox="0 0 60 60" version="1.1" xmlns="http://www.w3.org/2000/svg" xmlns:xlink="http://www.w3.org/1999/xlink">
    <title>独享资源</title>
    <g id="页面-1" stroke="none" stroke-width="1" fill="none" fill-rule="evenodd">
        <g id="SDSF-产品中心（专属主机）" transform="translate(-382.000000, -725.000000)" fill-rule="nonzero">
            <g id="编组-10" transform="translate(382.000000, 625.000000)">
                <g id="独享资源" transform="translate(0.000000, 100.000000)">
                    <rect id="矩形" fill="#000000" opacity="0" x="0" y="0" width="60" height="60"></rect>
                    <g id="文件管理" transform="translate(3.000000, 4.000000)">
                        <rect id="矩形" fill="#000000" opacity="0" x="0" y="0" width="53" height="53"></rect>
                        <polygon id="路径" fill="#CF0010" points="15.4583334 33.125 37.5416666 33.125 37.5416666 37.5416666 15.4583334 37.5416666"></polygon>
                        <path d="M5.52083335,8.83333335 C5.52083335,7.61370454 6.50953784,6.62499998 7.72916665,6.62499998 L20.9791666,6.62499998 C21.7173651,6.62499998 22.4067999,6.99363771 22.8165,7.60770835 L26.5772916,13.25 L45.2708334,13.25 C46.4904622,13.25 47.4791666,14.2387045 47.4791666,15.4583334 L47.4791666,44.1666666 C47.4791666,45.3862955 46.4904622,46.375 45.2708334,46.375 L7.72916665,46.375 C6.50953784,46.375 5.52083335,45.3862955 5.52083335,44.1666666 L5.52083335,8.83333335 Z M9.9375,11.0416666 L9.9375,41.9583334 L43.0625,41.9583334 L43.0625,17.6666666 L25.3958334,17.6666666 C24.6576349,17.6667771 23.9682001,17.298029 23.5585,16.6839584 L19.7977084,11.0416666 L9.9375,11.0416666 Z" id="形状" fill="#3C3C3C"></path>
                    </g>
                </g>
            </g>
        </g>
    </g>
</svg>