<?xml version="1.0" encoding="UTF-8"?>
<svg width="60px" height="60px" viewBox="0 0 60 60" version="1.1" xmlns="http://www.w3.org/2000/svg" xmlns:xlink="http://www.w3.org/1999/xlink">
    <title>无忧运维</title>
    <g id="页面-1" stroke="none" stroke-width="1" fill="none" fill-rule="evenodd">
        <g id="SDSF-产品中心（数据接入服务）" transform="translate(-990.000000, -870.000000)" fill-rule="nonzero">
            <g id="编组-10" transform="translate(382.000000, 625.000000)">
                <g id="无忧运维" transform="translate(608.000000, 245.000000)">
                    <rect id="矩形" fill="#000000" opacity="0" x="0" y="0" width="60" height="60"></rect>
                    <g id="点击" transform="translate(3.000000, 4.000000)">
                        <rect id="矩形" fill="#000000" opacity="0" x="0" y="0" width="53" height="53"></rect>
                        <path d="M14.3541666,17.6666666 C14.3541666,14.6175946 16.825928,12.1458335 19.875,12.1458335 C22.924072,12.1458335 25.3958334,14.6175946 25.3958334,17.6666666 L25.3958334,33.125 L20.9791666,33.125 L20.9791666,17.6666666 C20.9791666,17.0568522 20.4848144,16.5625 19.875,16.5625 C19.2651856,16.5625 18.7708334,17.0568522 18.7708334,17.6666666 L18.7708334,33.125 L14.3541666,33.125 L14.3541666,17.6666666 L14.3541666,17.6666666 Z" id="路径" fill="#3C3C3C"></path>
                        <path d="M20.9791666,26.5 C20.9791666,23.450928 23.450928,20.9791668 26.5,20.9791668 C29.549072,20.9791668 32.0208334,23.450928 32.0208334,26.5 L32.0208334,33.125 L27.6041666,33.125 L27.6041666,26.5 C27.6041666,25.8901856 27.1098144,25.3958334 26.5,25.3958334 C25.8901856,25.3958334 25.3958334,25.8901856 25.3958334,26.5 L25.3958334,33.125 L20.9791666,33.125 L20.9791666,26.5 Z" id="路径" fill="#3C3C3C"></path>
                        <path d="M27.6041666,28.7083334 C27.6041666,25.6592613 30.0759279,23.1875 33.125,23.1875 C36.1740721,23.1875 38.6458334,25.6592613 38.6458334,28.7083334 L38.6458334,33.125 L34.2291666,33.125 L34.2291666,28.7083334 C34.2291666,28.0985189 33.7348144,27.6041667 33.125,27.6041667 C32.5151856,27.6041667 32.0208334,28.0985189 32.0208334,28.7083334 L32.0208334,33.125 L27.6041666,33.125 L27.6041666,28.7083334 L27.6041666,28.7083334 Z" id="路径" fill="#3C3C3C"></path>
                        <path d="M34.2291666,30.9166666 C34.2291666,27.8675946 36.700928,25.3958335 39.75,25.3958335 C42.799072,25.3958335 45.2708334,27.8675946 45.2708334,30.9166666 L45.2708334,33.125 L40.8541666,33.125 L40.8541666,30.9166666 C40.8541666,30.3068522 40.3598144,29.8125 39.75,29.8125 C39.1401856,29.8125 38.6458334,30.3068522 38.6458334,30.9166666 L38.6458334,33.125 L34.2291666,33.125 L34.2291666,30.9166666 L34.2291666,30.9166666 Z M18.7708334,33.125 C18.7708334,39.2233125 23.7141875,44.1666666 29.8125,44.1666666 C35.9108125,44.1666666 40.8541666,39.2233125 40.8541666,33.125 L45.2708334,33.125 C45.2708334,41.6624166 38.3499167,48.5833334 29.8125,48.5833334 C21.2750833,48.5833334 14.3541666,41.6624167 14.3541666,33.125 L18.7708334,33.125 Z" id="形状" fill="#3C3C3C"></path>
                        <path d="M19.875,8.83333335 C15.6062991,8.83333335 12.1458334,12.2937991 12.1458334,16.5625 L7.72916665,16.5625 C7.72916665,9.8546875 13.1671875,4.41666665 19.875,4.41666665 C26.5828125,4.41666665 32.0208334,9.8546875 32.0208334,16.5625 L27.6041666,16.5625 C27.6041666,12.2937991 24.1437009,8.83333335 19.875,8.83333335 L19.875,8.83333335 Z" id="路径" fill="#CF0010"></path>
                    </g>
                </g>
            </g>
        </g>
    </g>
</svg>