<?xml version="1.0" encoding="UTF-8"?>
<svg width="60px" height="60px" viewBox="0 0 60 60" version="1.1" xmlns="http://www.w3.org/2000/svg" xmlns:xlink="http://www.w3.org/1999/xlink">
    <title>云链结合</title>
    <g id="页面-1" stroke="none" stroke-width="1" fill="none" fill-rule="evenodd">
        <g id="SDSF-产品中心（区块链服务）" transform="translate(-1341.000000, -2144.000000)" fill-rule="nonzero">
            <g id="产品优势" transform="translate(361.000000, 1752.000000)">
                <g id="编组-6备份-10" transform="translate(818.000000, 375.000000)">
                    <g id="云链结合" transform="translate(162.000000, 17.000000)">
                        <rect id="矩形" fill="#000000" opacity="0" x="0" y="0" width="60" height="60"></rect>
                        <path d="M52.7284615,43.3430769 C52.2472987,44.2915972 51.4533074,45.0448292 50.4807693,45.4753846 L31.8692307,53.7184615 C30.6788538,54.2457435 29.3211462,54.2457435 28.1307693,53.7184615 L9.51923074,45.4753846 C7.89003509,44.7535444 6.82191733,43.1583142 6.77506619,41.3769842 C6.72821504,39.5956541 7.71100109,37.9464826 9.3,37.14 L27.9115385,27.7015385 C29.2241865,27.0354732 30.7758135,27.0354732 32.0884615,27.7015385 L50.7,37.14 C52.9728128,38.2930143 53.8809033,41.0699737 52.7284615,43.3430769 L52.7284615,43.3430769 Z M48.6115385,41.2569231 L30,31.8184615 L11.3884615,41.2569231 L30,49.5 L48.6115385,41.2569231 Z" id="形状" fill="#3C3C3C"></path>
                        <path d="M52.7284615,31.8046154 C52.2472987,32.7531357 51.4533074,33.5063676 50.4807693,33.9369231 L31.8692307,42.18 C30.6788538,42.7072819 29.3211462,42.7072819 28.1307693,42.18 L9.51923074,33.9369231 C7.89003509,33.2150829 6.82191733,31.6198526 6.77506619,29.8385226 C6.72821504,28.0571926 7.71100109,26.4080211 9.3,25.6015385 L27.9115385,16.1630769 C29.2241865,15.4970117 30.7758135,15.4970117 32.0884615,16.1630769 L50.7,25.6015385 C52.9728128,26.7545528 53.8809033,29.5315122 52.7284615,31.8046154 L52.7284615,31.8046154 Z M48.6115385,29.7184615 L30,20.28 L11.3884615,29.7184615 L30,37.9615385 L48.6115385,29.7184615 L48.6115385,29.7184615 Z" id="形状" fill="#CF0010"></path>
                        <path d="M52.7284615,20.2661538 C52.2472987,21.2146741 51.4533074,21.9679061 50.4807693,22.3984615 L31.8692307,30.6415385 C30.6788538,31.1688204 29.3211462,31.1688204 28.1307693,30.6415385 L9.51923074,22.3984615 C7.89003509,21.6766214 6.82191733,20.0813911 6.77506619,18.3000611 C6.72821504,16.518731 7.71100109,14.8695595 9.3,14.0630769 L27.9115385,4.62461537 C29.2241865,3.95855016 30.7758135,3.95855016 32.0884615,4.62461537 L50.7,14.0630769 C52.9728128,15.2160912 53.8809033,17.9930507 52.7284615,20.2661538 L52.7284615,20.2661538 Z M48.6115385,18.18 L30,8.74153846 L11.3884615,18.18 L30,26.4230769 L48.6115385,18.18 Z" id="形状" fill="#3C3C3C"></path>
                    </g>
                </g>
            </g>
        </g>
    </g>
</svg>