<?xml version="1.0" encoding="UTF-8"?>
<svg width="60px" height="60px" viewBox="0 0 60 60" version="1.1" xmlns="http://www.w3.org/2000/svg" xmlns:xlink="http://www.w3.org/1999/xlink">
    <title>流量洪峰</title>
    <g id="页面-1" stroke="none" stroke-width="1" fill="none" fill-rule="evenodd">
        <g id="SDSF-行业场景" transform="translate(-360.000000, -825.000000)" fill-rule="nonzero">
            <g id="编组-8" transform="translate(360.000000, 725.000000)">
                <g id="流量洪峰" transform="translate(0.000000, 100.000000)">
                    <rect id="矩形" fill="#000000" opacity="0" x="0" y="0" width="60" height="60"></rect>
                    <g id="走势" transform="translate(3.000000, 4.000000)">
                        <rect id="矩形" fill="#000000" opacity="0" x="0" y="0" width="53" height="53"></rect>
                        <polygon id="路径" fill-opacity="0.01" fill="#FFFFFF" points="53 0 0 0 0 53 53 53"></polygon>
                        <path d="M14.5440834,25.3958334 L22.730375,17.2095416 C23.5259711,16.4134497 24.7929924,16.3430596 25.671875,17.046125 L29.6490834,20.2283334 L41.9583334,7.91908335 L45.0809166,11.0416666 L31.3737916,24.7487916 C30.5783451,25.5442339 29.3120871,25.614608 28.4333959,24.9122084 L24.4550834,21.73 L17.6666666,28.5184166 L14.5440834,25.3958334 Z" id="路径" fill="#CF0010"></path>
                        <path d="M33.125,6.66585415 L44.1666666,6.66585415 C45.3862955,6.66585415 46.375,7.65455867 46.375,8.8741875 L46.375,19.875 L41.9583334,19.875 L41.9583334,11.0825209 L33.125,11.0825209 L33.125,6.66585415 L33.125,6.66585415 Z" id="路径" fill="#CF0010"></path>
                        <path d="M6.625,8.83333335 C6.625,7.61370452 7.61370452,6.625 8.83333335,6.625 L28.7083334,6.625 L28.7083334,11.0416666 L11.0416666,11.0416666 L11.0416666,41.9583334 L41.9583334,41.9583334 L41.9583334,24.2916666 L46.375,24.2916666 L46.375,44.1666666 C46.375,45.3862955 45.3862955,46.375 44.1666666,46.375 L8.83333335,46.375 C7.61370452,46.375 6.625,45.3862955 6.625,44.1666666 L6.625,8.83333335 Z" id="路径" fill="#3C3C3C"></path>
                    </g>
                </g>
            </g>
        </g>
    </g>
</svg>