<?xml version="1.0" encoding="UTF-8"?>
<svg width="60px" height="60px" viewBox="0 0 60 60" version="1.1" xmlns="http://www.w3.org/2000/svg" xmlns:xlink="http://www.w3.org/1999/xlink">
    <title>运维管理复杂</title>
    <g id="页面-1" stroke="none" stroke-width="1" fill="none" fill-rule="evenodd">
        <g id="SDSF-行业场景" transform="translate(-360.000000, -825.000000)" fill-rule="nonzero">
            <g id="编组-8" transform="translate(360.000000, 725.000000)">
                <g id="运维管理复杂" transform="translate(0.000000, 100.000000)">
                    <rect id="矩形" fill="#000000" opacity="0" x="0" y="0" width="60" height="60"></rect>
                    <g id="数据连接" transform="translate(3.000000, 4.000000)">
                        <rect id="矩形" fill="#000000" opacity="0" x="0" y="0" width="53" height="53"></rect>
                        <path d="M26.5,9.9375 C18.5720834,9.9375 12.1458334,16.36375 12.1458334,24.2916666 C12.1458334,32.2195833 18.5720834,38.6458334 26.5,38.6458334 C34.4279166,38.6458334 40.8541666,32.2195834 40.8541666,24.2916666 C40.8541666,16.3637499 34.4279166,9.9375 26.5,9.9375 Z M7.72916665,24.2916666 C7.72916665,13.9246458 16.1329791,5.52083335 26.5,5.52083335 C36.8670209,5.52083335 45.2708334,13.9246459 45.2708334,24.2916666 C45.2708334,34.6586874 36.8670209,43.0625 26.5,43.0625 C16.1329791,43.0625 7.72916665,34.6586875 7.72916665,24.2916666 Z" id="形状" fill="#3C3C3C"></path>
                        <polygon id="路径" fill="#FFFFFF" points="20.9791666 34.2291666 32.0208334 34.2291666 32.0208334 45.2708334 20.9791666 45.2708334"></polygon>
                        <path d="M18.7708334,34.2291666 C18.7708334,33.0095379 19.7595379,32.0208334 20.9791666,32.0208334 L32.0208334,32.0208334 C33.2404621,32.0208334 34.2291666,33.0095379 34.2291666,34.2291666 L34.2291666,45.2708334 C34.2291666,46.4904621 33.2404621,47.4791666 32.0208334,47.4791666 L20.9791666,47.4791666 C19.7595379,47.4791666 18.7708334,46.4904621 18.7708334,45.2708334 L18.7708334,34.2291666 Z M23.1875,36.4375 L23.1875,43.0625 L29.8125,43.0625 L29.8125,36.4375 L23.1875,36.4375 Z" id="形状" fill="#CF0010"></path>
                        <polygon id="路径" fill="#FFFFFF" points="5.52083335 13.25 16.5625 13.25 16.5625 24.2916666 5.52083335 24.2916666"></polygon>
                        <path d="M3.3125,13.25 C3.3125,12.0303712 4.30120452,11.0416666 5.52083335,11.0416666 L16.5625,11.0416666 C17.7821288,11.0416666 18.7708334,12.0303712 18.7708334,13.25 L18.7708334,24.2916666 C18.7708334,25.5112955 17.7821288,26.5 16.5625,26.5 L5.52083335,26.5 C4.30120452,26.5 3.3125,25.5112955 3.3125,24.2916666 L3.3125,13.25 Z M7.72916665,15.4583334 L7.72916665,22.0833334 L14.3541666,22.0833334 L14.3541666,15.4583334 L7.72916665,15.4583334 L7.72916665,15.4583334 Z" id="形状" fill="#3C3C3C"></path>
                        <polygon id="路径" fill="#FFFFFF" points="36.4375 13.25 47.4791666 13.25 47.4791666 24.2916666 36.4375 24.2916666"></polygon>
                        <path d="M34.2291666,13.25 C34.2291666,12.0303712 35.2178712,11.0416666 36.4375,11.0416666 L47.4791666,11.0416666 C48.6987955,11.0416666 49.6875,12.0303712 49.6875,13.25 L49.6875,24.2916666 C49.6875,25.5112955 48.6987955,26.5 47.4791666,26.5 L36.4375,26.5 C35.2178712,26.5 34.2291666,25.5112955 34.2291666,24.2916666 L34.2291666,13.25 Z M38.6458334,15.4583334 L38.6458334,22.0833334 L45.2708334,22.0833334 L45.2708334,15.4583334 L38.6458334,15.4583334 Z" id="形状" fill="#3C3C3C"></path>
                    </g>
                </g>
            </g>
        </g>
    </g>
</svg>