<?xml version="1.0" encoding="UTF-8"?>
<svg width="60px" height="60px" viewBox="0 0 60 60" version="1.1" xmlns="http://www.w3.org/2000/svg" xmlns:xlink="http://www.w3.org/1999/xlink">
    <title>节点丰富</title>
    <g id="页面-1" stroke="none" stroke-width="1" fill="none" fill-rule="evenodd">
        <g id="SDSF-产品中心（全站加速）" transform="translate(-390.000000, -725.000000)" fill-rule="nonzero">
            <g id="产品优势" transform="translate(360.000000, 625.000000)">
                <g id="编组-6" transform="translate(0.000000, 100.000000)">
                    <g id="节点丰富" transform="translate(30.000000, 0.000000)">
                        <rect id="矩形" fill="#000000" opacity="0" x="0" y="0" width="60" height="60"></rect>
                        <g id="同步_操作_jurassic" transform="translate(3.000000, 4.000000)">
                            <rect id="矩形" fill="#000000" opacity="0" x="0" y="0" width="53" height="53"></rect>
                            <path d="M31.0702148,3.3125 L3.21416016,3.3125 L3.22451172,14.90625 L3.22451172,38.0885742 L3.20898438,43.0625 L26.4120117,43.0625 L26.4120117,39.75 L6.53183594,39.75 L6.53701172,38.09375 L6.53701172,14.90625 L6.52666016,6.625 L26.3291992,6.625 L26.3291992,18.21875 L37.8504883,18.21875 L37.8504883,26.5 L41.1629883,26.5 L41.1629883,14.3731445 L31.0702148,3.3125 Z M37.1672852,14.90625 L29.646875,14.90625 L29.646875,6.66640625 L37.1672852,14.90625 L37.1672852,14.90625 Z" id="形状" fill="#3C3C3C"></path>
                            <path d="M45.6245117,43.2643555 L45.6245117,26.5 L42.3068359,26.5 L42.3068359,43.2643555 L38.3473633,39.3048828 L38.3473633,44.0717773 L43.9682617,49.6875 L49.5839844,44.0717773 L49.5839844,39.3048828 L45.6245117,43.2643555 Z M38.3473633,32.1157227 L32.7316406,26.5 L27.1107422,32.1157227 L27.1107422,36.8826172 L31.0702148,32.9231445 L31.0702148,49.6875 L34.3878906,49.6875 L34.3878906,32.9231445 L38.3473633,36.8826172 L38.3473633,32.1157227 Z" id="形状" fill="#CF0010"></path>
                        </g>
                    </g>
                </g>
            </g>
        </g>
    </g>
</svg>