<?xml version="1.0" encoding="UTF-8"?>
<svg width="60px" height="60px" viewBox="0 0 60 60" version="1.1" xmlns="http://www.w3.org/2000/svg" xmlns:xlink="http://www.w3.org/1999/xlink">
    <title>智能加速</title>
    <g id="页面-1" stroke="none" stroke-width="1" fill="none" fill-rule="evenodd">
        <g id="SDSF-产品中心（全站加速）" transform="translate(-1000.000000, -725.000000)" fill-rule="nonzero">
            <g id="产品优势" transform="translate(360.000000, 625.000000)">
                <g id="编组-6备份-6" transform="translate(610.000000, 100.000000)">
                    <g id="智能加速" transform="translate(30.000000, 0.000000)">
                        <rect id="矩形" fill="#000000" opacity="0" x="0" y="0" width="60" height="60"></rect>
                        <g id="批量上传_操作_jurassic" transform="translate(3.000000, 4.000000)">
                            <rect id="矩形" fill="#000000" opacity="0" x="0" y="0" width="53" height="53"></rect>
                            <path d="M36.3443359,9.88574219 L36.3443359,3.3125 L3.3125,3.3125 L3.3125,38.1972656 L9.98925781,38.1972656 L9.98925781,44.7705078 L29.8228516,44.7705078 L29.8228516,41.4580078 L13.3069336,41.4580078 L13.3069336,13.1982422 L39.7085938,13.1982422 L39.7085938,26.3447266 L41.2613281,24.7919922 L43.0210938,26.5517578 L43.0210938,9.88574219 L36.3443359,9.88574219 Z M9.98925781,9.88574219 L9.98925781,34.8847656 L6.625,34.8847656 L6.625,6.625 L33.0266602,6.625 L33.0266602,9.88574219 L9.98925781,9.88574219 Z" id="形状" fill="#3C3C3C"></path>
                            <polygon id="路径" fill="#CF0010" points="49.6875 35.5731445 49.6875 42.7208984 44.5738281 37.6072266 44.5738281 49.6875 37.9488281 49.6875 37.9488281 37.6072266 34.0980469 41.4580078 32.8351563 42.7208984 32.8351563 35.5731445 41.2613281 27.1469727"></polygon>
                        </g>
                    </g>
                </g>
            </g>
        </g>
    </g>
</svg>