<?xml version="1.0" encoding="UTF-8"?>
<svg width="60px" height="60px" viewBox="0 0 60 60" version="1.1" xmlns="http://www.w3.org/2000/svg" xmlns:xlink="http://www.w3.org/1999/xlink">
    <title>安全防护</title>
    <g id="页面-1" stroke="none" stroke-width="1" fill="none" fill-rule="evenodd">
        <g id="SDSF-产品中心（全站加速）" transform="translate(-1000.000000, -893.000000)" fill-rule="nonzero">
            <g id="产品优势" transform="translate(360.000000, 625.000000)">
                <g id="编组-6备份-8" transform="translate(610.000000, 268.000000)">
                    <g id="安全防护" transform="translate(30.000000, 0.000000)">
                        <rect id="矩形" fill="#000000" opacity="0" x="0" y="0" width="60" height="60"></rect>
                        <g id="批量设置_操作_jurassic" transform="translate(3.000000, 4.000000)">
                            <rect id="矩形" fill="#000000" opacity="0" x="0" y="0" width="53" height="53"></rect>
                            <path d="M43.0210938,19.875 L43.0210938,9.88574219 L36.3443359,9.88574219 L36.3443359,3.3125 L3.3125,3.3125 L3.3125,38.1972656 L9.98925781,38.1972656 L9.98925781,44.7705078 L19.875,44.7705078 L19.875,41.4580078 L13.3069336,41.4580078 L13.3069336,13.1982422 L39.7085938,13.1982422 L39.7085938,19.875 L43.0210938,19.875 Z M9.98925781,9.88574219 L9.98925781,34.8847656 L6.625,34.8847656 L6.625,6.625 L33.0266602,6.625 L33.0266602,9.88574219 L9.98925781,9.88574219 Z" id="形状" fill="#3C3C3C"></path>
                            <path d="M49.6875,36.9550781 L49.6875,33.6425781 L45.6193359,33.6425781 C45.3553711,31.9915039 44.7032227,30.475 43.7664062,29.1758789 L46.6441406,26.2981445 L44.3046875,23.9535156 L41.4269531,26.83125 C40.127832,25.8892578 38.6061523,25.2371094 36.9602539,24.9731445 L36.9602539,20.9101562 L33.6477539,20.9101562 L33.6477539,24.9783203 C31.9966797,25.2422852 30.4801758,25.8944336 29.1810547,26.83125 L26.3033203,23.9535156 L23.9535156,26.2929687 L26.83125,29.1707031 C25.8892578,30.4698242 25.2371094,31.9915039 24.9731445,33.6374023 L20.9101562,33.6374023 L20.9101562,36.9499023 L24.9783203,36.9499023 C25.2422852,38.6009766 25.8944336,40.1174805 26.83125,41.4166016 L23.9535156,44.2943359 L26.2929688,46.6337891 L29.1707031,43.7560547 C30.4698242,44.6980469 31.9915039,45.3501953 33.6374023,45.6141602 L33.6374023,49.6875 L36.9499023,49.6875 L36.9499023,45.6193359 C38.6009766,45.3553711 40.1174805,44.7032227 41.4166016,43.7664063 L44.2943359,46.6441406 L46.6337891,44.3046875 L43.7560547,41.4269531 C44.6980469,40.127832 45.3501953,38.6061523 45.6141602,36.9602539 L49.6875,36.9602539 L49.6875,36.9550781 Z M42.4414062,35.2988281 C42.4414062,39.2375977 39.2375977,42.4414062 35.2988281,42.4414062 C31.3600586,42.4414062 28.15625,39.2375977 28.15625,35.2988281 C28.15625,31.3600586 31.3600586,28.15625 35.2988281,28.15625 C39.2375977,28.15625 42.4414062,31.3600586 42.4414062,35.2988281 Z" id="形状" fill="#CF0010"></path>
                        </g>
                    </g>
                </g>
            </g>
        </g>
    </g>
</svg>