<?xml version="1.0" encoding="UTF-8"?>
<svg width="60px" height="60px" viewBox="0 0 60 60" version="1.1" xmlns="http://www.w3.org/2000/svg" xmlns:xlink="http://www.w3.org/1999/xlink">
    <title>可控放置</title>
    <g id="页面-1" stroke="none" stroke-width="1" fill="none" fill-rule="evenodd">
        <g id="SDSF-产品中心（专属主机）" transform="translate(-382.000000, -870.000000)" fill-rule="nonzero">
            <g id="编组-10" transform="translate(382.000000, 625.000000)">
                <g id="可控放置" transform="translate(0.000000, 245.000000)">
                    <rect id="矩形" fill="#000000" opacity="0" x="0" y="0" width="60" height="60"></rect>
                    <g id="订阅" transform="translate(3.000000, 4.000000)">
                        <rect id="矩形" fill="#000000" opacity="0" x="0" y="0" width="53" height="53"></rect>
                        <path d="M8.83333333,6.625 C8.83333333,5.40537119 9.82203784,4.41666665 11.0416666,4.41666665 L41.9583334,4.41666665 C43.1779622,4.41666665 44.1666667,5.40537119 44.1666667,6.625 L44.1666667,46.375 C44.1666667,47.1688115 43.7408009,47.9015996 43.050962,48.2943579 C42.3611231,48.6871162 41.51356,48.6794074 40.8309791,48.2741666 L26.5,39.7654584 L12.1690209,48.2741666 C11.48644,48.6794074 10.6388769,48.6871162 9.94903798,48.2943579 C9.25919911,47.9015996 8.83333333,47.1688115 8.83333333,46.375 L8.83333333,6.625 Z M13.25,8.83333335 L13.25,42.4949584 L25.3726459,35.298 C26.0675924,34.8854178 26.9324076,34.8854178 27.6273541,35.298 L39.75,42.4949584 L39.75,8.83333335 L13.25,8.83333335 Z" id="形状" fill="#3C3C3C"></path>
                        <polygon id="路径" fill="#CF0010" points="28.7083334 15.4583334 28.7083334 28.7083334 24.2916666 28.7083334 24.2916666 15.4583334"></polygon>
                        <polygon id="路径" fill="#CF0010" points="19.875 19.875 33.125 19.875 33.125 24.2916666 19.875 24.2916666"></polygon>
                    </g>
                </g>
            </g>
        </g>
    </g>
</svg>