<?xml version="1.0" encoding="UTF-8"?>
<svg width="60px" height="60px" viewBox="0 0 60 60" version="1.1" xmlns="http://www.w3.org/2000/svg" xmlns:xlink="http://www.w3.org/1999/xlink">
    <title>成本降50%</title>
    <g id="页面-1" stroke="none" stroke-width="1" fill="none" fill-rule="evenodd">
        <g id="SDSF-解决方案（上云与迁移）" transform="translate(-473.000000, -801.000000)" fill-rule="nonzero">
            <g id="产品与服务备份" transform="translate(360.000000, 625.000000)">
                <g id="编组-6" transform="translate(0.000000, 143.000000)">
                    <g id="成本降50%" transform="translate(113.000000, 33.000000)">
                        <rect id="矩形" fill="#000000" opacity="0" x="0" y="0" width="60" height="60"></rect>
                        <path d="M37.6640625,32.1210938 L22.4414062,32.1210938 C21.3105469,32.1210938 20.390625,31.2011719 20.390625,30.0703125 C20.390625,28.9394531 21.3105469,28.0195313 22.4414062,28.0195313 L37.6640625,28.0195313 C38.7949219,28.0195313 39.7148438,28.9394531 39.7148438,30.0703125 C39.7148438,31.2011719 38.7949219,32.1210938 37.6640625,32.1210938 Z" id="路径" fill="#CF0010"></path>
                        <path d="M30.0527344,52.8925781 C26.9707031,52.8925781 23.9824219,52.2890625 21.1699219,51.0996094 C18.4511719,49.9511719 16.0136719,48.3046875 13.9160156,46.2070312 C11.8183594,44.109375 10.1777344,41.671875 9.0234375,38.953125 C7.83398437,36.140625 7.23046875,33.1464844 7.23046875,30.0703125 C7.23046875,26.9882813 7.83398437,24 9.0234375,21.1875 C10.171875,18.46875 11.8183594,16.03125 13.9160156,13.9335938 C16.0136719,11.8359375 18.4511719,10.1953125 21.1699219,9.04101563 C23.9824219,7.8515625 26.9765625,7.24804688 30.0527344,7.24804688 C33.1289062,7.24804688 36.1230469,7.8515625 38.9355469,9.04101563 C41.6542969,10.1894531 44.0917969,11.8359375 46.1894531,13.9335938 C48.2871094,16.03125 49.9277344,18.46875 51.0820312,21.1875 C52.2714844,24 52.875,26.9941406 52.875,30.0703125 C52.875,33.1523438 52.2714844,36.140625 51.0820312,38.953125 C49.9335938,41.671875 48.2871094,44.109375 46.1894531,46.2070312 C44.0917969,48.3046875 41.6542969,49.9453125 38.9355469,51.0996094 C36.1230469,52.2890625 33.1347656,52.8925781 30.0527344,52.8925781 Z M30.0527344,11.3496094 C19.7285156,11.3496094 11.3320312,19.7460938 11.3320312,30.0703125 C11.3320312,40.3945312 19.7285156,48.7910156 30.0527344,48.7910156 C40.3769531,48.7910156 48.7734375,40.3945312 48.7734375,30.0703125 C48.7734375,19.7519531 40.3769531,11.3496094 30.0527344,11.3496094 Z" id="形状" fill="#3C3C3C"></path>
                    </g>
                </g>
            </g>
        </g>
    </g>
</svg>