<?xml version="1.0" encoding="UTF-8"?>
<svg width="60px" height="60px" viewBox="0 0 60 60" version="1.1" xmlns="http://www.w3.org/2000/svg" xmlns:xlink="http://www.w3.org/1999/xlink">
    <title>丰富生态</title>
    <g id="页面-1" stroke="none" stroke-width="1" fill="none" fill-rule="evenodd">
        <g id="SDSF-产品中心（云防火墙）" transform="translate(-1000.000000, -1171.000000)" fill-rule="nonzero">
            <g id="产品优势" transform="translate(360.000000, 903.000000)">
                <g id="编组-6备份-8" transform="translate(610.000000, 268.000000)">
                    <g id="丰富生态" transform="translate(30.000000, 0.000000)">
                        <rect id="矩形" fill="#000000" opacity="0" x="0" y="0" width="60" height="60"></rect>
                        <g id="幸运转盘" transform="translate(5.000000, 5.000000)">
                            <rect id="矩形" fill="#000000" opacity="0" x="0" y="0" width="50" height="50"></rect>
                            <path d="M25,1.9230769 C12.2557692,1.9230769 1.9230769,12.2557692 1.9230769,25 C1.9230769,37.7442308 12.2557692,48.0769231 25,48.0769231 C37.7442308,48.0769231 48.0769231,37.7442308 48.0769231,25 C48.0769231,12.2557692 37.7442308,1.9230769 25,1.9230769 Z M25,5.76923076 C35.6211539,5.76923076 44.2307692,14.3788461 44.2307692,25 C44.2307692,35.6211539 35.6211539,44.2307692 25,44.2307692 C14.3788461,44.2307692 5.76923076,35.6211539 5.76923076,25 C5.76923076,14.3788461 14.3788461,5.76923076 25,5.76923076 Z" id="形状" fill="#3C3C3C"></path>
                            <path d="M25,15.3846154 C21.5647539,15.3846154 18.3904556,17.2172973 16.6728325,20.1923076 C14.9552095,23.167318 14.9552095,26.832682 16.6728325,29.8076924 C18.3904556,32.7827027 21.5647539,34.6153846 25,34.6153846 C30.3104303,34.6153846 34.6153846,30.3104303 34.6153846,25 C34.6153846,19.6895697 30.3104303,15.3846154 25,15.3846154 L25,15.3846154 Z M25,19.2307692 C28.1862582,19.2307692 30.7692308,21.8137418 30.7692308,25 C30.7692308,28.1862582 28.1862582,30.7692308 25,30.7692308 C21.8137419,30.7692308 19.2307694,28.1862581 19.2307694,25 C19.2307694,21.8137419 21.8137419,19.2307692 25,19.2307692 Z" id="形状" fill="#3C3C3C"></path>
                            <path d="M37.9173077,15.3153846 C38.1611554,15.6764352 38.0838491,16.1646412 37.7403846,16.4326923 L26.1865385,25.4423077 C25.7942879,25.7486268 25.2924279,25.8782606 24.8008968,25.8002282 C24.3093657,25.7221958 23.8723281,25.4435085 23.5942308,25.0307692 C23.3155909,24.6175374 23.2203404,24.1074354 23.3310793,23.6214955 C23.4418182,23.1355557 23.7486767,22.7170887 24.1788461,22.4653846 L36.8173077,15.0634615 C37.1927245,14.8449467 37.6732153,14.9541492 37.9173077,15.3134615 L37.9173077,15.3153846 Z" id="路径" fill="#CF0010"></path>
                        </g>
                    </g>
                </g>
            </g>
        </g>
    </g>
</svg>