<?xml version="1.0" encoding="UTF-8"?>
<svg width="60px" height="60px" viewBox="0 0 60 60" version="1.1" xmlns="http://www.w3.org/2000/svg" xmlns:xlink="http://www.w3.org/1999/xlink">
    <title>上云迁移</title>
    <g id="页面-1" stroke="none" stroke-width="1" fill="none" fill-rule="evenodd">
        <g id="SDSF-服务支持" transform="translate(-523.000000, -742.000000)" fill-rule="nonzero">
            <g id="产品优势" transform="translate(361.000000, 625.000000)">
                <g id="编组-6" transform="translate(0.000000, 100.000000)">
                    <g id="上云迁移" transform="translate(162.000000, 17.000000)">
                        <rect id="矩形" fill="#000000" opacity="0" x="0" y="0" width="60" height="60"></rect>
                        <path d="M30.1230469,30.7382812 C29.5957031,30.7382812 29.0742187,30.9375 28.6757812,31.3417969 L22.9453125,37.0722656 C22.1425781,37.875 22.1425781,39.1699219 22.9453125,39.9726562 C23.7480469,40.7753906 25.0429688,40.7753906 25.8457031,39.9726562 L30.1289062,35.6894531 L34.40625,39.9726562 C35.2089844,40.7753906 36.5039062,40.7753906 37.3066406,39.9726562 C38.109375,39.1699219 38.109375,37.875 37.3066406,37.0722656 L31.5761719,31.3417969 C31.171875,30.9433594 30.6445312,30.7382812 30.1230469,30.7382812 L30.1230469,30.7382812 Z" id="路径" fill="#CF0010"></path>
                        <path d="M30.1230469,30.7382812 C28.9921875,30.7382812 28.0722656,31.6582031 28.0722656,32.7890625 L28.0722656,47.9355469 C28.0722656,49.0664062 28.9921875,49.9863281 30.1230469,49.9863281 C31.2539063,49.9863281 32.1738281,49.0664062 32.1738281,47.9355469 L32.1738281,32.7890625 C32.1738281,31.6582031 31.2539062,30.7382812 30.1230469,30.7382812 Z" id="路径" fill="#CF0010"></path>
                        <path d="M16.1953125,45.5625 C10.3183594,45.5625 5.54296875,40.78125 5.54296875,34.9101562 C5.54296875,29.0332031 10.3242187,24.2578125 16.1953125,24.2578125 C17.3261719,24.2578125 18.2460938,25.1777344 18.2460938,26.3085937 C18.2460938,27.4394531 17.3261719,28.359375 16.1953125,28.359375 C12.5800781,28.359375 9.64453125,31.3007812 9.64453125,34.9101562 C9.64453125,38.5195312 12.5859375,41.4609375 16.1953125,41.4609375 C17.3261719,41.4609375 18.2460938,42.3808594 18.2460938,43.5117187 C18.2460938,44.6425781 17.3261719,45.5625 16.1953125,45.5625 L16.1953125,45.5625 Z" id="路径" fill="#3C3C3C"></path>
                        <path d="M44.0039062,28.3007812 C42.8730469,28.3007812 41.953125,27.3808594 41.953125,26.25 C41.953125,19.7226563 36.6445312,14.4140625 30.1230469,14.4140625 C23.5957031,14.4140625 18.2929688,19.7226563 18.2929688,26.2441406 C18.2929688,27.375 17.3730469,28.2949219 16.2421875,28.2949219 C15.1113281,28.2949219 14.1914062,27.375 14.1914062,26.2441406 C14.1914062,21.9902344 15.8496094,17.9882812 18.8613281,14.9765625 C21.8730469,11.9648437 25.875,10.3066406 30.1289062,10.3066406 C34.3828125,10.3066406 38.3847656,11.9648438 41.3964844,14.9765625 C44.3964844,17.9882812 46.0546875,21.9902344 46.0546875,26.25 C46.0546875,27.3808594 45.1347656,28.3007812 44.0039062,28.3007812 Z" id="路径" fill="#3C3C3C"></path>
                        <path d="M43.9863281,45.5625 C42.8554688,45.5625 41.9355469,44.6425781 41.9355469,43.5117188 C41.9355469,42.3808594 42.8554688,41.4609375 43.9863281,41.4609375 C47.6015625,41.4609375 50.5371094,38.5195312 50.5371094,34.9101562 C50.5371094,31.3007813 47.5957031,28.359375 43.9863281,28.359375 C42.8554688,28.359375 41.9355469,27.4394531 41.9355469,26.3085938 C41.9355469,25.1777344 42.8554688,24.2578125 43.9863281,24.2578125 C49.8632812,24.2578125 54.6386719,29.0390625 54.6386719,34.9101562 C54.6386719,40.78125 49.8574219,45.5625 43.9863281,45.5625 L43.9863281,45.5625 Z" id="路径" fill="#3C3C3C"></path>
                    </g>
                </g>
            </g>
        </g>
    </g>
</svg>