<?xml version="1.0" encoding="UTF-8"?>
<svg width="60px" height="60px" viewBox="0 0 60 60" version="1.1" xmlns="http://www.w3.org/2000/svg" xmlns:xlink="http://www.w3.org/1999/xlink">
    <title>场景丰富</title>
    <g id="页面-1" stroke="none" stroke-width="1" fill="none" fill-rule="evenodd">
        <g id="SDSF-产品中心（区块链服务）" transform="translate(-523.000000, -1869.000000)" fill-rule="nonzero">
            <g id="产品优势" transform="translate(361.000000, 1752.000000)">
                <g id="编组-6" transform="translate(0.000000, 100.000000)">
                    <g id="场景丰富" transform="translate(162.000000, 17.000000)">
                        <rect id="矩形" fill="#000000" opacity="0" x="0" y="0" width="60" height="60"></rect>
                        <path d="M50.7692307,4.61538463 C53.3182373,4.61538463 55.3846154,6.68176271 55.3846154,9.23076926 L55.3846154,50.7692307 C55.3846154,53.3182373 53.3182373,55.3846154 50.7692307,55.3846154 L9.23076926,55.3846154 C6.68176271,55.3846154 4.61538463,53.3182373 4.61538463,50.7692307 L4.61538463,9.23076926 C4.61538463,6.68176271 6.68176271,4.61538463 9.23076926,4.61538463 L50.7692307,4.61538463 Z M50.7692307,9.23076926 L9.23076926,9.23076926 L9.23076926,50.7692307 L50.7692307,50.7692307 L50.7692307,9.23076926 Z" id="形状" fill="#3C3C3C"></path>
                        <path d="M31.2623077,36.5838462 L26.3076923,36.5838462 C25.6615385,36.5838462 25.2161538,35.9907693 25.4469231,35.4392307 L30.3692307,23.6215385 C30.5209604,23.2837964 30.8598176,23.0693988 31.23,23.0767313 L39.5376923,23.0767313 C40.1930769,23.0767313 40.6384615,23.6838462 40.3915385,24.24 L37.5253846,30.6738462 L42.9230769,30.6738462 C43.7169231,30.6738462 44.1415385,31.5276923 43.6153846,32.0746154 L30.3876923,45.8630769 C29.7461538,46.5323077 28.5530769,45.9507692 28.8023077,45.09 L31.2646154,36.5838462 L31.2623077,36.5838462 Z" id="路径" fill="#CF0010"></path>
                        <path d="M13.8461538,19.6153846 C13.8461538,22.8016428 16.4291264,25.3846154 19.6153846,25.3846154 C22.8016428,25.3846154 25.3846154,22.8016428 25.3846154,19.6153846 C25.3846154,16.4291265 22.8016428,13.8461539 19.6153846,13.8461539 C16.4291264,13.8461539 13.8461538,16.4291265 13.8461538,19.6153846 L13.8461538,19.6153846 Z" id="路径" fill="#3C3C3C"></path>
                    </g>
                </g>
            </g>
        </g>
    </g>
</svg>