<svg xmlns="http://www.w3.org/2000/svg" xmlns:xlink="http://www.w3.org/1999/xlink" width="760" height="470" viewBox="0 0 760 470"><defs><linearGradient id="a" x1="-577.2" y1="773.79" x2="-575.83" y2="773.52" gradientTransform="matrix(272.98, 0, 0, -162.25, 157955.47, 125640.63)" gradientUnits="userSpaceOnUse"><stop offset="0" stop-color="#bec5df"/><stop offset="1" stop-color="#b5bfe2"/></linearGradient><radialGradient id="b" cx="-561.96" cy="762.95" r="1.04" gradientTransform="matrix(31.06, -4.14, -4.14, -31.06, 21175.23, 21476.79)" gradientUnits="userSpaceOnUse"><stop offset="0" stop-color="#7787c2"/><stop offset="1" stop-color="#7787c3" stop-opacity="0"/></radialGradient><linearGradient id="c" x1="-562.8" y1="769.44" x2="-562.57" y2="768.75" gradientTransform="matrix(36.56, 0, 0, -47.04, 21132.33, 36249.71)" gradientUnits="userSpaceOnUse"><stop offset="0" stop-color="#fefeff"/><stop offset="1" stop-color="#f1f6ff"/></linearGradient><linearGradient id="d" x1="-539.25" y1="760.55" x2="-539.14" y2="760.04" gradientTransform="matrix(14.76, 0, 0, -20.56, 8516.47, 15715.66)" gradientUnits="userSpaceOnUse"><stop offset="0" stop-color="#8892bd"/><stop offset="1" stop-color="#555a6f"/></linearGradient><radialGradient id="e" cx="-561.96" cy="762.95" r="1.04" gradientTransform="matrix(31.06, -4.14, -4.14, -31.06, 21276.55, 21534.24)" xlink:href="#b"/><linearGradient id="f" x1="-562.8" y1="769.44" x2="-562.57" y2="768.75" gradientTransform="matrix(36.56, 0, 0, -47.04, 21233.65, 36307.16)" xlink:href="#c"/><linearGradient id="g" x1="-543.82" y1="762.9" x2="-543.72" y2="762.39" gradientTransform="matrix(16.71, 0, 0, -24.44, 9748.42, 18778.75)" xlink:href="#d"/><radialGradient id="h" cx="-564.63" cy="764.94" r="1.08" gradientTransform="matrix(36.99, -4.76, -4.76, -36.99, 25245.26, 25810.29)" xlink:href="#b"/><radialGradient id="i" cx="-566.56" cy="766.2" r="1.04" gradientTransform="matrix(42.57, -5.69, -5.69, -42.57, 28623.6, 29805.92)" xlink:href="#b"/><linearGradient id="j" x1="-550.75" y1="763.71" x2="-551.44" y2="763.83" gradientTransform="matrix(21.14, 0, 0, -25.91, 11806.8, 20189.92)" gradientUnits="userSpaceOnUse"><stop offset="0" stop-color="#a5b4cc"/><stop offset="1" stop-color="#c5cfe1"/></linearGradient><linearGradient id="k" x1="-569.59" y1="767.33" x2="-568.97" y2="767.04" gradientTransform="matrix(62.78, 0, 0, -36.55, 35876.91, 28422.85)" xlink:href="#c"/><linearGradient id="l" x1="-562.53" y1="760.85" x2="-561.77" y2="760.52" gradientTransform="matrix(35.35, 0, 0, -20.49, 20006.71, 15967.71)" gradientUnits="userSpaceOnUse"><stop offset="0" stop-color="#828bb3"/><stop offset="1" stop-color="#555a6f"/></linearGradient><radialGradient id="m" cx="-566.56" cy="766.2" r="1.04" gradientTransform="matrix(42.57, -5.69, -5.69, -42.57, 28706.12, 29855.01)" xlink:href="#b"/><linearGradient id="n" x1="-550.75" y1="763.71" x2="-551.44" y2="763.83" gradientTransform="matrix(21.14, 0, 0, -25.91, 11889.32, 20239.01)" xlink:href="#j"/><linearGradient id="o" x1="-569.59" y1="767.33" x2="-568.97" y2="767.04" gradientTransform="matrix(62.78, 0, 0, -36.55, 35959.43, 28471.95)" xlink:href="#c"/><linearGradient id="p" x1="-557.93" y1="756.44" x2="-557.17" y2="756.11" gradientTransform="matrix(27.58, 0, 0, -15.82, 15597.71, 12388.6)" xlink:href="#l"/><linearGradient id="q" x1="-557.93" y1="756.41" x2="-557.11" y2="756.12" gradientTransform="matrix(27.58, 0, 0, -15.82, 15597.71, 12388.6)" gradientUnits="userSpaceOnUse"><stop offset="0" stop-color="#818bb3"/><stop offset="1" stop-color="#555a6f"/></linearGradient><radialGradient id="r" cx="-563.44" cy="777.87" r="1.11" gradientTransform="matrix(39.5, 12.28, -12.28, 39.5, 31882.12, -23453.36)" xlink:href="#b"/><linearGradient id="s" x1="-602.39" y1="767.22" x2="-602.39" y2="766.21" gradientTransform="translate(-14555.6 26836) rotate(180) scale(24.23 34.58)" gradientUnits="userSpaceOnUse"><stop offset="0" stop-color="#f1f6ff"/><stop offset="1" stop-color="#f7faff"/></linearGradient><linearGradient id="t" x1="-604.96" y1="766.25" x2="-605.25" y2="766.25" gradientTransform="translate(-13228.3 25500.3) rotate(180) scale(21.94 32.85)" gradientUnits="userSpaceOnUse"><stop offset="0" stop-color="#cbd3e0"/><stop offset="0.24" stop-color="#90a1bd"/><stop offset="0.47" stop-color="#dce0e8"/><stop offset="0.69" stop-color="#cad1dc"/><stop offset="1" stop-color="#ebeef2"/></linearGradient><linearGradient id="u" x1="-620.81" y1="757.94" x2="-620.81" y2="756.93" gradientTransform="translate(-8451.8 13044.8) rotate(180) scale(13.68 16.82)" xlink:href="#s"/><linearGradient id="v" x1="-602.39" y1="767.22" x2="-602.39" y2="766.21" gradientTransform="translate(-14533.7 26848.7) rotate(180) scale(24.23 34.58)" xlink:href="#s"/><linearGradient id="w" x1="-605.58" y1="766.25" x2="-606.78" y2="766.25" gradientTransform="translate(-13206.5 25513) rotate(180) scale(21.94 32.85)" xlink:href="#t"/><linearGradient id="x" x1="-620.81" y1="757.94" x2="-620.81" y2="756.93" gradientTransform="translate(-8430 13057.5) rotate(180) scale(13.68 16.82)" xlink:href="#s"/><linearGradient id="y" x1="-602.39" y1="767.22" x2="-602.39" y2="766.21" gradientTransform="translate(-14550.5 26845.7) rotate(180) scale(24.23 34.58)" xlink:href="#s"/><linearGradient id="z" x1="-605.27" y1="766.25" x2="-605.86" y2="766.25" gradientTransform="translate(-13223.2 25510) rotate(180) scale(21.94 32.85)" xlink:href="#t"/><linearGradient id="aa" x1="-620.81" y1="757.94" x2="-620.81" y2="756.93" gradientTransform="translate(-8446.7 13054.5) rotate(180) scale(13.68 16.82)" xlink:href="#s"/><linearGradient id="ab" x1="-574.56" y1="771.53" x2="-573.19" y2="771.26" gradientTransform="matrix(121.69, 0, 0, -73.58, 70325.89, 56935.42)" xlink:href="#a"/><radialGradient id="ac" cx="-566.56" cy="766.2" r="1.04" gradientTransform="matrix(42.57, -5.69, -5.69, -42.57, 28996.51, 29595.96)" xlink:href="#b"/><linearGradient id="ad" x1="-550.75" y1="763.71" x2="-551.44" y2="763.83" gradientTransform="matrix(21.14, 0, 0, -25.91, 12179.7, 19979.96)" xlink:href="#j"/><linearGradient id="ae" x1="-569.59" y1="767.33" x2="-568.97" y2="767.04" gradientTransform="matrix(62.78, 0, 0, -36.55, 36249.82, 28212.9)" xlink:href="#c"/><linearGradient id="af" x1="-561.48" y1="758.61" x2="-560.72" y2="758.32" gradientTransform="matrix(33.24, 0, 0, -17.81, 19156.18, 13674.03)" xlink:href="#l"/><linearGradient id="ag" x1="-561.49" y1="758.57" x2="-560.67" y2="758.32" gradientTransform="matrix(33.24, 0, 0, -17.81, 19156.18, 13674.03)" xlink:href="#q"/><radialGradient id="ah" cx="-564.63" cy="764.94" r="1.08" gradientTransform="matrix(36.99, -4.76, -4.76, -36.99, 25065.77, 25826.07)" xlink:href="#b"/><linearGradient id="ai" x1="-574.56" y1="771.53" x2="-573.19" y2="771.26" gradientTransform="matrix(121.69, 0, 0, -73.58, 70051.16, 57091.06)" xlink:href="#a"/><radialGradient id="aj" cx="-564.87" cy="765" r="1.04" gradientTransform="matrix(37.46, -5.01, -5.01, -37.46, 25234.16, 26185.71)" xlink:href="#b"/><linearGradient id="ak" x1="-568.21" y1="765.84" x2="-567.59" y2="765.57" gradientTransform="matrix(54.61, 0, 0, -31.04, 31246.58, 24093.55)" xlink:href="#c"/><mask id="al" x="206.6" y="311.28" width="54.61" height="31.04" maskUnits="userSpaceOnUse"><polygon points="253.8 315.4 261.2 331 241.3 342.3 214 338.2 206.6 322.6 226.5 311.3 253.8 315.4" style="fill:#fff"/></mask><linearGradient id="am" x1="-560.44" y1="757.46" x2="-559.67" y2="757.18" gradientTransform="matrix(31.34, 0, 0, -16.71, 17783.24, 12982.91)" xlink:href="#l"/><linearGradient id="an" x1="-560.44" y1="757.44" x2="-559.62" y2="757.19" gradientTransform="matrix(31.34, 0, 0, -16.71, 17783.24, 12982.91)" xlink:href="#q"/><linearGradient id="ao" x1="-548.93" y1="762.21" x2="-549.7" y2="762.33" gradientTransform="matrix(19.85, 0, 0, -22.98, 11153.37, 17860)" xlink:href="#j"/><radialGradient id="ap" cx="-564.63" cy="764.94" r="1.08" gradientTransform="matrix(36.99, -4.76, -4.76, -36.99, 24791.05, 25981.71)" xlink:href="#b"/><linearGradient id="aq" x1="-577.52" y1="774.06" x2="-576.16" y2="773.8" gradientTransform="matrix(322.71, 0, 0, -190.45, 186579.37, 147712.35)" xlink:href="#a"/><radialGradient id="ar" cx="-566.56" cy="766.2" r="1.04" gradientTransform="matrix(42.57, -5.69, -5.69, -42.57, 29056.05, 29792.34)" xlink:href="#b"/><linearGradient id="as" x1="-550.75" y1="763.71" x2="-551.44" y2="763.83" gradientTransform="matrix(21.14, 0, 0, -25.91, 12239.25, 20176.34)" xlink:href="#j"/><linearGradient id="at" x1="-569.59" y1="767.33" x2="-568.97" y2="767.04" gradientTransform="matrix(62.78, 0, 0, -36.55, 36309.36, 28409.27)" xlink:href="#c"/><linearGradient id="au" x1="-561.03" y1="759.51" x2="-560.27" y2="759.18" gradientTransform="matrix(32.38, 0, 0, -18.8, 18723.35, 14642.73)" xlink:href="#l"/><linearGradient id="av" x1="-561.03" y1="759.48" x2="-560.22" y2="759.19" gradientTransform="matrix(32.38, 0, 0, -18.8, 18723.35, 14642.73)" xlink:href="#q"/><radialGradient id="aw" cx="-566.56" cy="766.2" r="1.04" gradientTransform="matrix(42.57, -5.69, -5.69, -42.57, 28921.3, 29715.04)" xlink:href="#b"/><linearGradient id="ax" x1="-550.75" y1="763.71" x2="-551.44" y2="763.83" gradientTransform="matrix(21.14, 0, 0, -25.91, 12104.5, 20099.04)" xlink:href="#j"/><linearGradient id="ay" x1="-569.59" y1="767.33" x2="-568.97" y2="767.04" gradientTransform="matrix(62.78, 0, 0, -36.55, 36174.61, 28331.98)" xlink:href="#c"/><linearGradient id="az" x1="-563.08" y1="761.13" x2="-562.31" y2="760.8" gradientTransform="matrix(36.56, 0, 0, -20.89, 21005.74, 16185.55)" xlink:href="#l"/><linearGradient id="ba" x1="-563.08" y1="761.09" x2="-562.26" y2="760.81" gradientTransform="matrix(36.56, 0, 0, -20.89, 21005.74, 16185.55)" xlink:href="#q"/><radialGradient id="bb" cx="-566.56" cy="766.2" r="1.04" gradientTransform="matrix(42.57, -5.69, -5.69, -42.57, 28988.15, 29752.64)" xlink:href="#b"/><linearGradient id="bc" x1="-550.75" y1="763.71" x2="-551.44" y2="763.83" gradientTransform="matrix(21.14, 0, 0, -25.91, 12171.35, 20136.65)" xlink:href="#j"/><linearGradient id="bd" x1="-569.59" y1="767.33" x2="-568.97" y2="767.04" gradientTransform="matrix(62.78, 0, 0, -36.55, 36241.46, 28369.58)" xlink:href="#c"/><linearGradient id="be" x1="-562.61" y1="761.14" x2="-561.84" y2="760.79" gradientTransform="matrix(35.52, 0, 0, -20.89, 20467.78, 16223.16)" xlink:href="#l"/><linearGradient id="bf" x1="-562.61" y1="761.1" x2="-561.8" y2="760.8" gradientTransform="matrix(35.52, 0, 0, -20.89, 20467.78, 16223.16)" xlink:href="#q"/><radialGradient id="bg" cx="-566.56" cy="766.2" r="1.04" gradientTransform="matrix(42.57, -5.69, -5.69, -42.57, 28854.45, 29675.35)" xlink:href="#b"/><linearGradient id="bh" x1="-550.75" y1="763.71" x2="-551.44" y2="763.83" gradientTransform="matrix(21.14, 0, 0, -25.91, 12037.65, 20059.35)" xlink:href="#j"/><linearGradient id="bi" x1="-569.59" y1="767.33" x2="-568.97" y2="767.04" gradientTransform="matrix(62.78, 0, 0, -36.55, 36107.76, 28292.28)" xlink:href="#c"/><linearGradient id="bj" x1="-559.81" y1="760.39" x2="-559.05" y2="759.96" gradientTransform="matrix(30.29, 0, 0, -19.85, 17314.23, 15335.28)" xlink:href="#l"/><linearGradient id="bk" x1="-559.87" y1="760.22" x2="-559.05" y2="759.85" gradientTransform="matrix(30.29, 0, 0, -19.85, 17314.23, 15335.28)" xlink:href="#q"/><radialGradient id="bl" cx="-564.63" cy="764.94" r="1.08" gradientTransform="matrix(36.99, -4.76, -4.76, -36.99, 25128.91, 26024.42)" xlink:href="#b"/><linearGradient id="bm" x1="-576.09" y1="772.85" x2="-574.72" y2="772.57" gradientTransform="matrix(179.5, 0, 0, -107.93, 103484.9, 83574.82)" xlink:href="#a"/><radialGradient id="bn" cx="-564.87" cy="765" r="1.04" gradientTransform="matrix(37.46, -5.01, -5.01, -37.46, 25258.19, 26045.74)" xlink:href="#b"/><linearGradient id="bo" x1="-568.21" y1="765.84" x2="-567.59" y2="765.57" gradientTransform="matrix(54.61, 0, 0, -31.04, 31270.61, 23953.58)" xlink:href="#c"/><mask id="bp" x="230.63" y="171.31" width="54.61" height="31.04" maskUnits="userSpaceOnUse"><polygon points="277.8 175.5 285.2 191 265.3 202.3 238 198.2 230.6 182.7 250.5 171.3 277.8 175.5" style="fill:#fff"/></mask><linearGradient id="bq" x1="-557.57" y1="756.33" x2="-556.81" y2="756" gradientTransform="matrix(27.16, 0, 0, -15.67, 15389.57, 12033.56)" xlink:href="#l"/><linearGradient id="br" x1="-557.58" y1="756.28" x2="-556.77" y2="756" gradientTransform="matrix(27.16, 0, 0, -15.67, 15389.57, 12033.56)" xlink:href="#q"/><linearGradient id="bs" x1="-548.93" y1="762.21" x2="-549.7" y2="762.33" gradientTransform="matrix(19.85, 0, 0, -22.98, 11177.39, 17720.02)" xlink:href="#j"/><radialGradient id="bt" cx="-564.87" cy="765" r="1.04" gradientTransform="matrix(37.46, -5.01, -5.01, -37.46, 25194.47, 26008.13)" xlink:href="#b"/><linearGradient id="bu" x1="-568.21" y1="765.84" x2="-567.59" y2="765.57" gradientTransform="matrix(54.61, 0, 0, -31.04, 31206.89, 23915.97)" xlink:href="#c"/><mask id="bv" x="166.91" y="133.7" width="54.61" height="31.04" maskUnits="userSpaceOnUse"><polygon points="214.1 137.9 221.5 153.4 201.6 164.7 174.3 160.6 166.9 145.1 186.8 133.7 214.1 137.9" style="fill:#fff"/></mask><linearGradient id="bw" x1="-559.82" y1="757.44" x2="-559.05" y2="757.14" gradientTransform="matrix(30.29, 0, 0, -16.71, 17139.72, 12806.38)" xlink:href="#l"/><linearGradient id="bx" x1="-559.81" y1="757.42" x2="-558.99" y2="757.15" gradientTransform="matrix(30.29, 0, 0, -16.71, 17139.72, 12806.38)" xlink:href="#q"/><linearGradient id="by" x1="-548.93" y1="762.21" x2="-549.7" y2="762.33" gradientTransform="matrix(19.85, 0, 0, -22.98, 11113.67, 17682.42)" xlink:href="#j"/><radialGradient id="bz" cx="-564.63" cy="764.94" r="1.08" gradientTransform="matrix(36.99, -4.76, -4.76, -36.99, 24811.25, 25840.58)" xlink:href="#b"/></defs><title>实时数据分析cn</title><g style="opacity:0.4000000059604645"><polygon points="476.6 77.8 690.8 201.5 711.5 201.5 749.5 178.8 749.5 164 533.9 39.3 515.7 39.3 476.6 63.6 476.6 77.8" style="fill:url(#a)"/></g><polygon points="561.4 103.6 594.8 103.6 594.8 72.3 591 72.3 561.4 72.3 561.4 103.6" style="opacity:0.20401786267757416;isolation:isolate;fill:url(#b)"/><polygon points="574.6 93.2 555.8 82 542.6 89.6 542.6 92 561.4 103.6 574.6 95.5 574.6 93.2" style="fill:none;stroke:#555a6f"/><polygon points="543 90.2 543 91.8 560.9 102.6 560.9 101.1 543 90.2" style="fill:#d5e0f3"/><polygon points="573.8 93.6 555.8 82.9 543.3 90 561.3 101.2 573.8 93.6" style="fill:#f1f6ff"/><polyline points="570.6 95.4 561.3 101 561.3 103.1 561.3 101 543.1 89.9" style="fill:none;stroke:#7787c3;stroke-opacity:0.60402512550354;stroke-width:0.727649986743927px"/><polygon points="563.5 88.3 552.4 82.1 552.4 90 563.5 96.4 563.5 88.3" style="fill:#e3ebf9"/><polygon points="564.4 89.8 551.6 82.5 551.6 90.4 563.5 97.2 565.9 95.8 565.9 90.6 564.4 89.8" style="fill:none;stroke:#555a6f"/><path d="M563.5,90.4V97" style="fill:none;stroke:#555a6f"/><path d="M539,44.3h-1l2.8-1.6h1.6l38.4,21.7.3.2h.1l.3.3h.1V65h.6v.2h.2v.4h.2v.2a3.2,3.2,0,0,1,0,.4V96.4a1.5,1.5,0,0,1-.6,1.4l-3.8,1.6a1.5,1.5,0,0,0,.6-1.4l1-28a3.3,3.3,0,0,0,0-.4v-.2h-.1V67.9h-.3v-.2h-.1l-.3-.3H579l-.3-.2L539.5,44.5H539Z" style="fill:#e8ecf3"/><path d="M540.6,44.6h0a1.7,1.7,0,0,0-1.9-.1,1.7,1.7,0,0,0-.8,1.7V72.8a5.2,5.2,0,0,0,2.3,4.2l37,21.2a1.7,1.7,0,0,0,1.9.1,1.7,1.7,0,0,0,.8-1.7V70.4a5.2,5.2,0,0,0-2.3-4.1Z" style="fill:#e5eaf3;stroke:#7787c3;stroke-opacity:0.6023833751678467;stroke-width:0.727649986743927px"/><polygon points="576.8 68.8 540.5 47.7 540.6 73.5 577 94.7 576.8 68.8" style="fill:url(#c)"/><path d="M550.3,65.2a.6.6,0,0,1,.2-.7.6.6,0,0,1,.8,0,.6.6,0,0,1,.2.7v9.1a.6.6,0,0,1-.2.7.6.6,0,0,1-.8,0,.6.6,0,0,1-.2-.7Zm6.8-3a.6.6,0,0,1,1.1,0v16a.6.6,0,0,1-.2.7.6.6,0,0,1-.8,0,.6.6,0,0,1-.2-.7Zm6.7,10.7a.6.6,0,0,1,1.1,0v9.1a.6.6,0,0,1-1.1,0Z" style="fill:url(#d)"/><path d="M579.8,99l1.9-1.5a2.3,2.3,0,0,0,.9-2.1V68.3a4.4,4.4,0,0,0-.6-2.2,10.4,10.4,0,0,0-1.9-2.3L542.7,42.2l-.5-.2h-1.9l-1.8,1.4a2.3,2.3,0,0,0-1,2.1v27A5.7,5.7,0,0,0,540,77l37.4,21.7a2.2,2.2,0,0,0,2.5.3Z" style="fill:none;stroke:#555a6f"/><polygon points="662.7 161.1 696.2 161.1 696.2 129.8 692.3 129.8 662.7 129.8 662.7 161.1" style="opacity:0.20401786267757416;isolation:isolate;fill:url(#e)"/><polygon points="675.9 150.6 657.1 139.4 643.9 147 643.9 149.5 662.7 161.1 675.9 153 675.9 150.6" style="fill:none;stroke:#555a6f"/><polygon points="644.3 147.6 644.3 149.3 662.2 160.1 662.2 158.5 644.3 147.6" style="fill:#d5e0f3"/><polygon points="675.1 151 657.1 140.3 644.6 147.4 662.6 158.6 675.1 151" style="fill:#f1f6ff"/><polyline points="671.9 152.9 662.6 158.4 662.6 160.6 662.6 158.4 644.4 147.3" style="fill:none;stroke:#7787c3;stroke-opacity:0.60402512550354;stroke-width:0.727649986743927px"/><polygon points="664.9 145.8 653.7 139.5 653.7 147.4 664.9 153.8 664.9 145.8" style="fill:#e3ebf9"/><polygon points="665.7 147.2 652.9 139.9 652.9 147.8 664.9 154.6 667.2 153.3 667.2 148.1 665.7 147.2" style="fill:none;stroke:#555a6f"/><path d="M664.9,147.8v6.6" style="fill:none;stroke:#555a6f"/><path d="M640.4,101.7h-1l2.8-1.6h1.6l38.4,21.7.3.2h.1l.3.3h.1v.2h.6v.2h.2v.4h.2v.2a3.2,3.2,0,0,1,0,.4v30.1a1.5,1.5,0,0,1-.6,1.4l-3.8,1.6a1.5,1.5,0,0,0,.6-1.4l1-28a3.3,3.3,0,0,0,0-.4v-.2h-.1v-1.4h-.3v-.2h-.1l-.3-.3h-.1l-.3-.2-39.1-22.7h-.5Z" style="fill:#e8ecf3"/><path d="M641.9,102h0a1.7,1.7,0,0,0-1.9-.1,1.7,1.7,0,0,0-.8,1.7v26.6a5.2,5.2,0,0,0,2.3,4.2l37,21.2a1.7,1.7,0,0,0,1.9.1,1.7,1.7,0,0,0,.8-1.7V127.8a5.2,5.2,0,0,0-2.3-4.1Z" style="fill:#e5eaf3;stroke:#7787c3;stroke-opacity:0.6023833751678467;stroke-width:0.727649986743927px"/><polygon points="678.1 126.3 641.8 105.1 641.9 131 678.4 152.2 678.1 126.3" style="fill:url(#f)"/><path d="M666.2,125a2.2,2.2,0,0,1,1,1.6v13.6c0,.6-.5.8-1,.4l-2.1-1.2a2.2,2.2,0,0,1-1-1.6V124.2c0-.6.5-.8,1-.4Zm-11.5,2.8a2.2,2.2,0,0,1,1,1.6v4.2c0,.6-.5.8-1,.4l-3.1-1.8a2.2,2.2,0,0,1-1-1.6v-4.2c0-.6.5-.8,1-.4Zm6.3,3.6a2.2,2.2,0,0,1,1,1.6v4.2c0,.6-.5.8-1,.4l-3.1-1.8a2.2,2.2,0,0,1-1-1.6V130c0-.6.5-.8,1-.4Zm5.2-5.3-2.1-1.2v13.6l2.1,1.2Zm-11.5,2.8-3.1-1.8v4.2l3.1,1.8Zm6.3,3.6-3.1-1.8v4.2l3.1,1.8Zm0-10.4a2.2,2.2,0,0,1,1,1.6v6.3c0,.6-.5.8-1,.4l-9.4-5.4a2.2,2.2,0,0,1-1-1.6V117c0-.6.5-.8,1-.4Zm0,1-9.4-5.4v6.3l9.4,5.4Z" style="fill:url(#g)"/><path d="M681.1,156.5l1.9-1.5a2.3,2.3,0,0,0,.9-2.1V125.8a4.4,4.4,0,0,0-.6-2.2,10.4,10.4,0,0,0-1.9-2.3L644,99.7l-.5-.2h-1.9l-1.8,1.4a2.3,2.3,0,0,0-1,2.1v27a5.7,5.7,0,0,0,2.6,4.5l37.4,21.7a2.2,2.2,0,0,0,2.5.3Z" style="fill:none;stroke:#555a6f"/><path d="M745.6,149.5l2.9,6.9" style="fill:none;stroke:#d7e0ff;stroke-linecap:round;stroke-linejoin:round;stroke-width:0.699999988079071px;stroke-dasharray:2.799999952316284"/><path d="M476.6,44.2l39-22.6h18.5L748.6,145.3v11.5l-37,21.5v22.3" style="fill:none;stroke:#d7e0ff;stroke-linecap:round;stroke-linejoin:round;stroke-width:0.699999988079071px;stroke-dasharray:2.799999952316284"/><path d="M712.2,200.6V178H691.7" style="fill:none;stroke:#d7e0ff;stroke-linecap:round;stroke-linejoin:round;stroke-width:0.699999988079071px;stroke-dasharray:2.799999952316284"/><path d="M690.7,200.6V178.2L477.5,55" style="fill:none;stroke:#d7e0ff;stroke-linecap:round;stroke-linejoin:round;stroke-width:0.699999988079071px;stroke-dasharray:2.799999952316284"/><path d="M481.5,37.3V47.7L692.8,169.1h17.8l35-20.4V138.5" style="fill:none;stroke:#d7e0ff;stroke-linecap:round;stroke-linejoin:round;stroke-width:0.699999988079071px;stroke-dasharray:2.799999952316284"/><path d="M480.5,48.1,477.5,55M691.7,178l1-7.9" style="fill:none;stroke:#d7e0ff;stroke-linecap:round;stroke-linejoin:round;stroke-width:0.699999988079071px;stroke-dasharray:2.799999952316284"/><path d="M711.3,170.1l1,7.9m-20.6,0,1-7.9" style="fill:none;stroke:#d7e0ff;stroke-linecap:round;stroke-linejoin:round;stroke-width:0.699999988079071px;stroke-dasharray:2.799999952316284"/><path d="M480.5,37.5l35.4-20.3h18.5l211,121.7,3.7,6.1v34l-37.5,22.1H690.6L477,77.7V43.3Z" style="fill:none;stroke:#999fb6;stroke-linecap:round;stroke-linejoin:round"/><path d="M534.6,16.7l-.2,22L749.5,163.3" style="fill:none;stroke:#d7e0ff;stroke-linecap:round;stroke-linejoin:round;stroke-width:0.699999988079071px;stroke-dasharray:2.799999952316284"/><path d="M477.5,62.8l38.2-24.1v-22" style="fill:none;stroke:#d7e0ff;stroke-linecap:round;stroke-linejoin:round;stroke-width:0.699999988079071px;stroke-dasharray:2.799999952316284"/><path d="M516.7,38.8h18.6" style="fill:none;stroke:#d7e0ff;stroke-linecap:round;stroke-linejoin:round;stroke-width:0.699999988079071px;stroke-dasharray:2.799999952316284"/><polygon points="712.3 201.5 753.5 201.5 753.5 164.2 750 164.2 750 179.6 712.3 201.5" style="opacity:0.10401785373687744;isolation:isolate;fill:url(#h)"/><polygon points="143.4 411.8 189.1 411.8 189.1 368.8 183.7 368.8 143.4 368.8 143.4 411.8" style="opacity:0.20401786267757416;isolation:isolate;fill:url(#i)"/><polygon points="147.9 397.5 168.9 385.2 168.9 398.8 147.8 411.1 147.9 397.5" style="fill:url(#j)"/><polygon points="139.5 397.3 147.8 397.3 147.8 411.1 139.4 411.1 139.5 397.3" style="fill:#d1dae8"/><polygon points="139.5 402.9 139.4 411.1 106.1 391.7 106.2 378.1 139.5 397.5 139.5 402.9" style="fill:#e3ebf9"/><polygon points="168.9 380.3 168.9 385.2 147.9 397.5 139.5 397.5 106.2 378.1 106.2 373.3 127.2 360.9 135.6 360.9 168.9 380.3" style="fill:url(#k)"/><path d="M151.1,377.6l1.4-.9-1.6-.9-1.5.9-9.4-5.3,1.5-.9-1.6-.9-1.5.9-3.1-1.8-16.6,9.8,18.8,10.7,16.5-9.8-3.1-1.8Zm-13.6,9.8-15.7-8.9,9-5.3,15.7,8.9Zm-5.1-15.2,3-1.8,1.6.9-1.5.9,1.6.9,1.5-.9,9.4,5.3-1.5.9,1.6.9,1.5-.9,1.6.9-3,1.8Zm-2.9,5.3,1.5-.9,9.4,5.3-1.5.9Zm-1.4,2.7,1.5-.9,6.3,3.6-1.5.9Z" style="fill:url(#l)"/><polygon points="168.8 384.9 169.1 385.5 148 397.8 147.9 397.8 139.5 397.8 139.4 397.8 105.5 378.1 105.8 377.5 139.6 397.2 147.8 397.2 168.8 384.9" style="fill:#7d849e;opacity:0.4000000059604645;isolation:isolate"/><path d="M147.8,404.4h0Zm0,0,21-12.3.3.6L148,405.1h-8.7l-33.8-19.7.3-.6,33.8,19.7Zm-8.2,0h0Z" style="fill:#7d849e;opacity:0.4000000059604645;isolation:isolate"/><path d="M106.1,391.8l33.3,19.3h8.4l21-12.3V380.3l-33.3-19.3h-8.3l-21.2,12.3Zm-1.3.8V372.5l22.1-12.9h9l34.2,19.9v20.1l-22,12.9H139Z" style="fill:#555a6f"/><polygon points="225.9 460.9 271.6 460.9 271.6 417.9 266.3 417.9 225.9 417.9 225.9 460.9" style="opacity:0.20401786267757416;isolation:isolate;fill:url(#m)"/><polygon points="230.4 446.6 251.5 434.3 251.4 447.9 230.3 460.2 230.4 446.6" style="fill:url(#n)"/><polygon points="222 446.4 230.4 446.4 230.3 460.2 221.9 460.2 222 446.4" style="fill:#d1dae8"/><polygon points="222 452 222 460.2 188.6 440.8 188.7 427.2 222 446.6 222 452" style="fill:#e3ebf9"/><polygon points="251.4 429.4 251.5 434.3 230.4 446.6 222 446.6 188.7 427.2 188.7 422.4 209.8 410 218.1 410 251.4 429.4" style="fill:url(#o)"/><path d="M232.8,426.1c1.7,1,1.8,2.6.1,3.6a5.7,5.7,0,0,1-2.5.7h0a7.4,7.4,0,0,1-2.5,2.3c-4.4,2.7-11.7,2.6-16.3,0a8.8,8.8,0,0,1-2.4-1.9h0a4.1,4.1,0,0,1-1.8-.5c-1.2-.7-1.2-1.8-.1-2.4l.7-.3h0c.1-1.6,1.1-3.3,3.2-4.5a14.4,14.4,0,0,1,5.4-1.8h0c-.4-.6-.2-1.3.6-1.8a4.4,4.4,0,0,1,4.1,0c.8.5,1.1,1.2.7,1.8h0a15.4,15.4,0,0,1,5.5,1.8,8.4,8.4,0,0,1,2.6,2.3h.2A6,6,0,0,1,232.8,426.1Zm-22.4,2.4a2.2,2.2,0,0,0-2,0c-.6.3-.5.9,0,1.2a2.2,2.2,0,0,0,2,0C211.1,429.3,211.1,428.8,210.5,428.4Zm1.9.9a1.5,1.5,0,0,1-.8.9l-.6.3h-.2a7.9,7.9,0,0,0,1.9,1.5c4,2.3,10.4,2.4,14.3,0a6.7,6.7,0,0,0,2-1.7h0a5.8,5.8,0,0,1-2.1-.7,2.8,2.8,0,0,1-1.2-1.2h0Zm-2.8-2h0Zm8.9-5.1-.8-.3h.1a12.9,12.9,0,0,0-5.3,1.7,5.3,5.3,0,0,0-2.7,3.5v.3h.2a4,4,0,0,1,1.7.5l.7.6,13.4-.8h0l-4.4-.7-.5.4a4.4,4.4,0,0,1-4.1,0c-1.2-.7-1.2-1.8-.1-2.4a3.6,3.6,0,0,1,1.4-.5h.2l.3-2.2Zm1.1,3.2a2.2,2.2,0,0,0-2,0c-.6.3-.5.9,0,1.2a2.2,2.2,0,0,0,2,0C220.1,426.3,220.1,425.8,219.6,425.4Zm7.1-1.8a13.9,13.9,0,0,0-5.5-1.7h0l-1.2.3h-.2l-.3,2.2h.2l.9.4a1.6,1.6,0,0,1,.9,1.2h0l4.4.7h0a2.9,2.9,0,0,1,.9-.8,5.4,5.4,0,0,1,2-.7h0A7.6,7.6,0,0,0,226.6,423.6Zm5.2,3a4.4,4.4,0,0,0-4.1,0c-1.1.7-1.1,1.7.1,2.4a4.4,4.4,0,0,0,4.1,0C233,428.4,233,427.3,231.8,426.7Zm-6,.1v.2h.1Zm-8.4-4.9h0Zm2.8-1.9a2.2,2.2,0,0,0-2,0c-.6.3-.5.9,0,1.2a2.2,2.2,0,0,0,2,0C221,420.9,220.9,420.3,220.4,420Z" style="stroke-width:0.30000001192092896px;fill:url(#p);stroke:url(#q)"/><polygon points="251.3 434 251.6 434.6 230.6 446.9 230.4 446.9 222 446.9 221.9 446.9 188 427.2 188.4 426.6 222.1 446.3 230.3 446.3 251.3 434" style="fill:#7d849e;opacity:0.4000000059604645;isolation:isolate"/><path d="M230.3,453.5h0Zm0,0,21-12.3.3.6-21.1,12.3h-8.7L188,434.5l.3-.6,33.8,19.7Zm-8.2,0h0Z" style="fill:#7d849e;opacity:0.4000000059604645;isolation:isolate"/><path d="M188.6,440.9l33.3,19.3h8.4l21-12.3V429.3L218.1,410h-8.3l-21.2,12.3Zm-1.3.8V421.6l22.1-12.9h9l34.2,19.9v20.1l-22,12.9h-9.1Z" style="fill:#555a6f"/><polygon points="77.1 357.2 29.3 357.2 29.3 317.3 31.7 315.9 33.7 319.5 33.7 329.9 77.1 357.2" style="opacity:0.0990513414144516;isolation:isolate;fill:url(#r)"/><path d="M47.3,340.9l.4.2-.4.2h-.4Zm-14.1-8,.4.2-.4.2-.4-.2Zm0,1.8,13.4,7.6v.9l.7-.4.7.4,3.6,2.1,4.4-2.5V324.3h0a.4.4,0,0,0-.1-.3h0c0-.1,0-.1-.1-.2h0a.8.8,0,0,0-.2-.4.4.4,0,0,1-.1-.3h0c0-.1-.1-.1-.1-.2h0c-.1-.1-.1-.2-.2-.4H55c-.8-.3-.8-.4-.8-.4h0c0-.1-.1-.1-.1-.2h-.2l-.2-.2h-.2l-.3-.3h-.2c-.1-.1-.2-.1-.2-.2h-.2l-.3-.2h-.1l-.4-.3-4.5-2.6,1.7-1a4.9,4.9,0,0,0,2.1-4.5v-.9h0v-.2h0a1.1,1.1,0,0,0-.1-.5h0c0-.1,0-.1-.1-.2h0v-.2h0c0-.1,0-.1-.1-.2h0c0-.1,0-.1-.1-.2h0a1.7,1.7,0,0,1-.6-.5h0c-.1-.2-.2-.3-.2-.5h0c0-.1-.1-.1-.1-.2h-.1l-.2-.3h0l-.3-.5h-.2c-.1-.1-.1-.1-.1-.2s0-.1-.1-.1l-.2-.2h-.1q-.3.2-.3,0h0c-.1-.1-.2-.2-.2-.3h-.1c0-.1,0-.1-.1-.1a1.1,1.1,0,0,1-.5-.4h-.2l-.2-.2-.3-.3h-.1l-.6-.4a.1.1,0,0,1-.1-.1l-.6-.4-.6-.3h-.4l-.5-.2h-.7l.6.7-.6-.7h-2l-.4.2-3.6,2.1a4.9,4.9,0,0,0-2.1,4.5,11.9,11.9,0,0,0,.8,4.2h-.6l-3.6,2.1a3.6,3.6,0,0,0-1.6,3.3v17.7l3.6,2.1Zm3.3-33.9.4.6-.4-.6-.4-.6ZM48,319.4c-.1,0-.1,0-.1-.1l-13.7-7.9h-.1l-.4.6-.4.6h.1l13.8,8.1h.1l.3-.6Zm-7.6-17.5.3-.7.4-.6h.1l-.4.6Z" style="fill:none;stroke:#555a6f;stroke-width:1.4595999717712402px"/><polygon points="33.2 333.7 36.9 331.6 36.9 316.7 33.3 318.8 33.2 333.7" style="fill:#d5e0f3"/><polygon points="47.3 341.8 50.8 339.8 51 324.8 47.3 326.9 47.3 341.8" style="fill:#d5e0f3"/><path d="M33.2,311.8H30.7l3.6-2.1h2.5l.5.2,13.9,7.9.4.2h.1c.1.1.2.1.2.2H52c.1.1.2.1.2.2h.1a.1.1,0,0,1,.1.1h.1l.3.3h.1a.1.1,0,0,0,.1.1h.5c0,.1.1.1.1.2h.1l.2.3h0a.4.4,0,0,0,.1.2,17436,17436,0,0,1,.2.2.1.1,0,0,0,.1.1c0,.1.1.2.1.3h0c.1.1.1.2.1.4h0c0,.1,0,.1.1.2h0c0,.1,0,.1.1.2h0v.4h0a.4.4,0,0,0,.1.3h0v18l-3.6,2.1V326.1a.4.4,0,0,0-.1-.3v-.4a.4.4,0,0,0-.1-.3c0-.1,0-.1-.1-.2s-.1-.2-.1-.3h0c.1,0,.1-.2,0-.3h0c-.1-.1-.1-.3-.2-.4a.1.1,0,0,0-.1-.1c-.1-.1-.1-.2-.2-.4h0a.8.8,0,0,1-.2-.4h-.1c-.1,0-.1-.1-.2-.2s-.1-.1-.1-.2-.1-.2-.2-.2l-.2-.2c0-.1-.1-.1-.2-.2l-.3-.3c.1,0,0,0,0-.1h-.1l-.2-.2h-.1c-.1-.1-.2-.1-.2-.2h-.1l-.6-.2-13.7-7.9-.5-.2a.1.1,0,0,0-.1-.1" style="fill:url(#s)"/><path d="M33.8,312.1c-2.3-1.4-4.2-.2-4.2,2.4v17.2l3.6,2.1V318.9l.7.4v14.9l13.4,7.6V326.9l.7.4v14.9l3.6,2.1V327.1a9.2,9.2,0,0,0-4.1-7.1Z" style="fill:url(#t)"/><path d="M46.6,310.5v-.4a.9.9,0,0,0-.1-.5,345042.3,345042.3,0,0,1-.2-.6c0-.1-.1-.3-.1-.4s0-.2-.1-.2-.1-.3-.2-.5,0-.1-.1-.2a.7.7,0,0,0-.1-.6h0l-.3-.6c0-.1-.1-.1-.1-.2l-.3-.5a.1.1,0,0,0-.1-.1,2.2,2.2,0,0,0-.4-.6c0-.1-.1-.1-.1-.2l-.3-.4-.2-.2-.3-.3-.2-.3c-.1-.1-.1-.2-.2-.2s-.2-.3-.4-.4.1-.1,0-.1l-.2-.2-.3-.3-.2-.2-.4-.3h-.2l-.5-.3-.5-.3a.1.1,0,0,1-.1-.1H39c-.1,0-.2,0-.2-.1h-2l-.4.2,3.6-2.1h.5a.1.1,0,0,0,.1-.1h2.7a342907.2,342907.2,0,0,1,.2.2l.5.3a1.6,1.6,0,0,1,.8.4h.2l.3.2c.1.1.1.2.2.2l.3.3c.1,0,.1.1.2.2h.2c.2.1.3.3.4.4h.3c0,.2.1.2.2.3s.1.1.1.2a.4.4,0,0,1,.1.2c.1,0,.1.1.2.2a.1.1,0,0,0,.1.1l.2.3c0,.1.1.1.1.2h0l.3.4h0a.1.1,0,0,0,.1.1c.1.1.1.3.2.4s.1.1.1.2.1.1.1.2h0a.5.5,0,0,1,.2.4h0l.3.5h0c0,.1,0,.1.1.2s.1.2.1.3,0,.1.1.2,0,.2.1.2h0a383380.5,383380.5,0,0,1,.2.6h0a.1.1,0,0,0-.1.1c0,.2.1.3.1.5h0v1.1c0,1.9-.6,3.2-1.8,3.9l-3.6,2.1a4.3,4.3,0,0,0,1.8-3.9v-.8" style="fill:url(#u)"/><path d="M40.7,301.1c-3.2-1.9-6-.4-6,3.4a12.9,12.9,0,0,0,6,10.2c3.2,1.9,6,.4,6-3.4a13.2,13.2,0,0,0-6-10.2" style="fill:#d5e0f3;stroke:#7787c3;stroke-opacity:0.5968000292778015;stroke-width:0.5249999761581421px"/><path d="M69.1,353.6l.4.2-.4.2h-.4Zm-14.1-8,.4.2-.4.2-.4-.2Zm0,1.8L68.4,355l.7.5.7.4,3.6,2.1,4.4-2.5V337h0a.4.4,0,0,0-.1-.3h0c0-.1,0-.1-.1-.2h0a.8.8,0,0,0-.2-.4.4.4,0,0,1-.1-.3h0c0-.1-.1-.1-.1-.2h0c-.1-.1-.1-.2-.2-.4h-.1c-.8-.3-.8-.4-.8-.4h0c0-.1-.1-.1-.1-.2h-.2l-.2-.2h-.2l-.3-.3h-.2c-.1-.1-.2-.1-.2-.2h-.2l-.3-.2h-.1l-.4-.3L69,327.5l1.7-1a4.9,4.9,0,0,0,2.1-4.5V321h0v-.2h0a1.1,1.1,0,0,0-.1-.5h0c0-.1,0-.1-.1-.2h0V319h0c0-.1,0-.1-.1-.2h0c0-.1,0-.1-.1-.2h0a1.7,1.7,0,0,1-.6-.5h0c-.1-.2-.2-.3-.2-.5h0c0-.1-.1-.1-.1-.2h-.1l-.2-.3h0l-.3-.5h-.2c-.1-.1-.1-.1-.1-.2s0-.1-.1-.1l-.2-.2h-.1q-.3.2-.3,0h0c-.1-.1-.2-.2-.2-.3h-.1c0-.1,0-.1-.1-.1a1.1,1.1,0,0,1-.5-.4h-.2l-.2-.2-.3-.3H68l-.6-.4a.1.1,0,0,1-.1-.1l-.6-.4-.6-.3h-.4l-.5-.2h-.7l.6.7-.6-.7h-2l-.4.2-3.6,2.1a4.9,4.9,0,0,0-2.1,4.5,11.9,11.9,0,0,0,.8,4.2h-.6l-3.6,2.1a3.6,3.6,0,0,0-1.6,3.3v17.7l3.6,2.1v.9Zm3.3-33.9.4.6-.4-.6-.4-.6Zm11.5,18.7c-.1,0-.1,0-.1-.1L56.1,324H56l-.4.6-.4.6h.1L69,333.3h.1l.3-.6Zm-7.6-17.5.3-.7.4-.6h.1l-.4.6Z" style="fill:none;stroke:#555a6f;stroke-width:1.4595999717712402px"/><polygon points="55 346.4 58.7 344.3 58.7 329.4 55.1 331.5 55 346.4" style="fill:#d5e0f3"/><polygon points="69.1 354.5 72.7 352.5 72.8 337.5 69.1 339.6 69.1 354.5" style="fill:#d5e0f3"/><path d="M55,324.5H52.5l3.6-2.1h2.5l.5.2L73,330.6l.4.2h.1c.1.1.2.1.2.2h.1c.1.1.2.1.2.2h.1a.1.1,0,0,1,.1.1h.1l.3.3h.1a.1.1,0,0,0,.1.1h.5c0,.1.1.1.1.2h.1l.2.3h0a.4.4,0,0,0,.1.2,19910.7,19910.7,0,0,1,.2.2.1.1,0,0,0,.1.1c0,.1.1.2.1.3h0c.1.1.1.2.1.4h0c0,.1,0,.1.1.2h0c0,.1,0,.1.1.2h0v.4h0a.4.4,0,0,0,.1.3h0v18L73.2,357V338.8a.4.4,0,0,0-.1-.3V338a.4.4,0,0,0-.1-.3c0-.1,0-.1-.1-.2s-.1-.2-.1-.3h0c.1,0,.1-.2,0-.3h0c-.1-.1-.1-.3-.2-.4a.1.1,0,0,0-.1-.1c-.1-.1-.1-.2-.2-.4h0a.8.8,0,0,1-.2-.4H72c-.1,0-.1-.1-.2-.2s-.1-.1-.1-.2-.1-.2-.2-.2l-.2-.2c0-.1-.1-.1-.2-.2l-.3-.3c.1,0,0,0,0-.1h-.1l-.2-.2h-.1c-.1-.1-.2-.1-.2-.2H70l-.6-.2-13.7-7.9-.5-.2a.1.1,0,0,0-.1-.1" style="fill:url(#v)"/><path d="M55.7,324.8c-2.3-1.4-4.2-.2-4.2,2.4v17.2l3.6,2.1V331.6l.7.4v14.9l13.4,7.6V339.6l.7.4V355l3.6,2.1V339.8a9.2,9.2,0,0,0-4.1-7.1Z" style="fill:url(#w)"/><path d="M68.4,323.2v-.4a.9.9,0,0,0-.1-.5,383380.6,383380.6,0,0,1-.2-.6c0-.1-.1-.3-.1-.4s0-.2-.1-.2-.1-.3-.2-.5,0-.1-.1-.2a.7.7,0,0,0-.1-.6h0l-.3-.6c0-.1-.1-.1-.1-.2l-.3-.5a.1.1,0,0,0-.1-.1,2.2,2.2,0,0,0-.4-.6c0-.1-.1-.1-.1-.2l-.3-.4-.2-.2-.3-.3-.2-.3c-.1-.1-.1-.2-.2-.2s-.2-.3-.4-.4.1-.1,0-.1l-.2-.2-.3-.3-.2-.2-.4-.3h-.2l-.5-.3-.5-.3a.1.1,0,0,1-.1-.1h-1c-.1,0-.2,0-.2-.1h-2l-.4.2,3.6-2.1h.5a.1.1,0,0,0,.1-.1h2.7a308616.3,308616.3,0,0,1,.2.2l.5.3a1.6,1.6,0,0,1,.8.4h.2l.3.2c.1.1.1.2.2.2l.3.3c.1,0,.1.1.2.2h.2c.2.1.3.3.4.4h.3c0,.2.1.2.2.3s.1.1.1.2a.4.4,0,0,1,.1.2c.1,0,.1.1.2.2a.1.1,0,0,0,.1.1l.2.3c0,.1.1.1.1.2h0l.3.4h0a.1.1,0,0,0,.1.1c.1.1.1.3.2.4s.1.1.1.2.1.1.1.2h0a.5.5,0,0,1,.2.4h0l.3.5h0c0,.1,0,.1.1.2s.1.2.1.3,0,.1.1.2,0,.2.1.2h0a383380.5,383380.5,0,0,1,.2.6h0a.1.1,0,0,0-.1.1c0,.2.1.3.1.5h0V322c0,1.9-.6,3.2-1.8,3.9l-3.6,2.1a4.3,4.3,0,0,0,1.8-3.9v-.8" style="fill:url(#x)"/><path d="M62.6,313.8c-3.2-1.9-6-.4-6,3.4a12.9,12.9,0,0,0,6,10.2c3.2,1.9,6,.4,6-3.4a13.2,13.2,0,0,0-6-10.2" style="fill:#d5e0f3;stroke:#7787c3;stroke-opacity:0.5968000292778015;stroke-width:0.5249999761581421px"/><path d="M52.4,350.6l.4.2-.4.2H52Zm-14.1-8,.4.2-.4.2-.4-.2Zm0,1.8,13.4,7.6.7.5.7.4,3.6,2.1,4.4-2.5V334h0a.4.4,0,0,0-.1-.3h0c0-.1,0-.1-.1-.2h0a.8.8,0,0,0-.2-.4.4.4,0,0,1-.1-.3h0c0-.1-.1-.1-.1-.2h0c-.1-.1-.1-.2-.2-.4h-.1c-.8-.3-.8-.4-.8-.4h0c0-.1-.1-.1-.1-.2H59l-.2-.2h-.2l-.3-.3H58c-.1-.1-.2-.1-.2-.2h-.2l-.3-.2h-.1l-.4-.3-4.5-2.6,1.7-1a4.9,4.9,0,0,0,2.1-4.5V318h0v-.2h0a1.1,1.1,0,0,0-.1-.5h0c0-.1,0-.1-.1-.2h0V316h0c0-.1,0-.1-.1-.2h0c0-.1,0-.1-.1-.2h0a1.7,1.7,0,0,1-.6-.5h0c-.1-.2-.2-.3-.2-.5h0c0-.1-.1-.1-.1-.2h-.1l-.2-.3h0L54,312h-.2c-.1-.1-.1-.1-.1-.2s0-.1-.1-.1l-.2-.2h-.1q-.3.2-.3,0h0c-.1-.1-.2-.2-.2-.3h-.1c0-.1,0-.1-.1-.1a1.1,1.1,0,0,1-.5-.4h-.2l-.2-.2-.3-.3h-.1l-.6-.4a.1.1,0,0,1-.1-.1l-.6-.4-.6-.3h-.4l-.5-.2h-.7l.6.7-.6-.7h-2l-.4.2-3.6,2.1a4.9,4.9,0,0,0-2.1,4.5,11.9,11.9,0,0,0,.8,4.2h-.6l-3.6,2.1a3.6,3.6,0,0,0-1.6,3.3v17.7l3.6,2.1Zm3.3-33.9.4.6-.4-.6-.4-.6ZM53.1,329c-.1,0-.1,0-.1-.1L39.3,321h-.1l-.4.6-.4.6h.1l13.8,8.1h.1l.3-.6Zm-7.6-17.5.3-.7.4-.6h.1l-.4.6Z" style="fill:none;stroke:#555a6f;stroke-width:1.4595999717712402px"/><polygon points="38.3 343.4 41.9 341.3 41.9 326.3 38.4 328.4 38.3 343.4" style="fill:#d5e0f3"/><polygon points="52.4 351.5 55.9 349.4 56 334.5 52.4 336.6 52.4 351.5" style="fill:#d5e0f3"/><path d="M38.3,321.4H35.8l3.6-2.1h2.5l.5.2,13.9,7.9.4.2h.1c.1.1.2.1.2.2h.1c.1.1.2.1.2.2h.1a.1.1,0,0,1,.1.1h.1l.3.3H58a.1.1,0,0,0,.1.1h.5c0,.1.1.1.1.2h.1l.2.3h0a.4.4,0,0,0,.1.2,17535,17535,0,0,1,.2.2.1.1,0,0,0,.1.1c0,.1.1.2.1.3h0c.1.1.1.2.1.4h0c0,.1,0,.1.1.2h0c0,.1,0,.1.1.2h0v.4h0a.4.4,0,0,0,.1.3h0v18l-3.6,2.1V335.7a.4.4,0,0,0-.1-.3V335a.4.4,0,0,0-.1-.3c0-.1,0-.1-.1-.2s-.1-.2-.1-.3h0c.1,0,.1-.2,0-.3h0c-.1-.1-.1-.3-.2-.4a.1.1,0,0,0-.1-.1c-.1-.1-.1-.2-.2-.4h0a.8.8,0,0,1-.2-.4h-.1c-.1,0-.1-.1-.2-.2s-.1-.1-.1-.2-.1-.2-.2-.2l-.2-.2c0-.1-.1-.1-.2-.2l-.3-.3c.1,0,0,0,0-.1h-.1l-.2-.2h-.1c-.1-.1-.2-.1-.2-.2h-.1l-.6-.2-13.7-7.9-.5-.2a.1.1,0,0,0-.1-.1" style="fill:url(#y)"/><path d="M38.9,321.7c-2.3-1.4-4.2-.2-4.2,2.4v17.2l3.6,2.1V328.5l.7.4v14.9l13.4,7.6V336.6l.7.4v14.9l3.6,2.1V336.8a9.2,9.2,0,0,0-4.1-7.1Z" style="fill:url(#z)"/><path d="M51.6,320.2v-.4a.9.9,0,0,0-.1-.5,345042.3,345042.3,0,0,1-.2-.6c0-.1-.1-.3-.1-.4s0-.2-.1-.2-.1-.3-.2-.5,0-.1-.1-.2a.7.7,0,0,0-.1-.6h0l-.3-.6c0-.1-.1-.1-.1-.2l-.3-.5a.1.1,0,0,0-.1-.1,2.2,2.2,0,0,0-.4-.6c0-.1-.1-.1-.1-.2l-.3-.4-.2-.2-.3-.3-.2-.3c-.1-.1-.1-.2-.2-.2s-.2-.3-.4-.4.1-.1,0-.1l-.2-.2-.3-.3-.2-.2-.4-.3h-.2l-.5-.3-.5-.3a.1.1,0,0,1-.1-.1h-1c-.1,0-.2,0-.2-.1h-2l-.4.2,3.6-2.1h.5a.1.1,0,0,0,.1-.1h2.7a280560.4,280560.4,0,0,1,.2.2l.5.3a1.6,1.6,0,0,1,.8.4h.2l.3.2c.1.1.1.2.2.2l.3.3c.1,0,.1.1.2.2h.2c.2.1.3.3.4.4h.3c0,.2.1.2.2.3s.1.1.1.2a.4.4,0,0,1,.1.2c.1,0,.1.1.2.2a.1.1,0,0,0,.1.1l.2.3c0,.1.1.1.1.2h0l.3.4h0a.1.1,0,0,0,.1.1c.1.1.1.3.2.4s.1.1.1.2.1.1.1.2h0a.5.5,0,0,1,.2.4h0l.3.5h0c0,.1,0,.1.1.2s.1.2.1.3,0,.1.1.2,0,.2.1.2h0a396600.5,396600.5,0,0,1,.2.6h0a.1.1,0,0,0-.1.1c0,.2.1.3.1.5h0v1.1c0,1.9-.6,3.2-1.8,3.9l-3.6,2.1a4.3,4.3,0,0,0,1.8-3.9v-.8" style="fill:url(#aa)"/><path d="M45.8,310.8c-3.2-1.9-6-.4-6,3.4a12.9,12.9,0,0,0,6,10.2c3.2,1.9,6,.4,6-3.4a13.2,13.2,0,0,0-6-10.2" style="fill:#d5e0f3;stroke:#7787c3;stroke-opacity:0.5968000292778015;stroke-width:0.5249999761581421px"/><g style="opacity:0.4000000059604645"><polygon points="448.4 182.3 511.3 217.3 532 217.3 570 194.6 570 179.8 505.7 143.7 487.5 143.7 448.4 168.1 448.4 182.3" style="fill:url(#ab)"/></g><polygon points="516.3 201.8 562 201.8 562 158.9 556.7 158.9 516.3 158.9 516.3 201.8" style="opacity:0.20401786267757416;isolation:isolate;fill:url(#ac)"/><polygon points="520.8 187.5 541.9 175.2 541.8 188.8 520.7 201.1 520.8 187.5" style="fill:url(#ad)"/><polygon points="512.4 187.3 520.8 187.3 520.7 201.2 512.3 201.2 512.4 187.3" style="fill:#d1dae8"/><polygon points="512.4 193 512.3 201.1 479 181.8 479.1 168.2 512.4 187.5 512.4 193" style="fill:#e3ebf9"/><polygon points="541.8 170.3 541.9 175.2 520.8 187.5 512.4 187.5 479.1 168.2 479.1 163.3 500.2 151 508.5 151 541.8 170.3" style="fill:url(#ae)"/><path d="M496.5,169.2l13.5,7.1.5-.3L497,168.9Zm5-2.7,13.5,7.1.5-.3L502,166.2Zm-2.5,1.4,13.5,7.1.5-.3-13.5-7.1Zm25.6,2.4-3.1-6.4a2.8,2.8,0,0,0-2.1-1.1l-11.9-1.5a5.8,5.8,0,0,0-3,.5l-12.8,7c-.3.2-.3.4,0,.5a1.2,1.2,0,0,0,1,0l12.8-7a3.6,3.6,0,0,1,1.6-.3l12,1.5a1.7,1.7,0,0,1,1.2.6l3.1,6.4a.8.8,0,0,1-.5.9l-12.8,7c-.3.2-.3.4,0,.5a1.2,1.2,0,0,0,1,0l12.8-7C524.4,171.5,524.8,170.8,524.6,170.3Zm-18.1-6.5,13.5,7.1.5-.3L507,163.5Zm-2.5,1.4,13.5,7.1.5-.3-13.5-7.1Z" style="stroke-width:0.5px;fill:url(#af);stroke:url(#ag)"/><polygon points="541.7 174.9 542 175.5 520.9 187.8 520.8 187.9 512.4 187.9 512.3 187.8 478.4 168.1 478.8 167.6 512.5 187.2 520.7 187.2 541.7 174.9" style="fill:#7d849e;opacity:0.4000000059604645;isolation:isolate"/><path d="M520.7,194.5h0Zm0,0,21-12.3.3.6-21.1,12.3h-8.7l-33.8-19.7.3-.6,33.8,19.7Zm-8.2,0h0Z" style="fill:#7d849e;opacity:0.4000000059604645;isolation:isolate"/><path d="M479,181.9l33.3,19.3h8.4l21-12.3V170.3L508.5,151h-8.3L479,163.3Zm-1.3.8V162.5l22.1-12.9h9L543,169.5v20.1l-22,12.9h-9.1Z" style="fill:#555a6f"/><path d="M566.1,165.3l2.9,6.9" style="fill:none;stroke:#d7e0ff;stroke-linecap:round;stroke-linejoin:round;stroke-width:0.699999988079071px;stroke-dasharray:2.799999952316284"/><path d="M448.4,148.7l39-22.6h18.5l63.2,35v11.5l-37,21.5v22.3" style="fill:none;stroke:#d7e0ff;stroke-linecap:round;stroke-linejoin:round;stroke-width:0.699999988079071px;stroke-dasharray:2.799999952316284"/><path d="M532.7,216.3V193.8H512.2" style="fill:none;stroke:#d7e0ff;stroke-linecap:round;stroke-linejoin:round;stroke-width:0.699999988079071px;stroke-dasharray:2.799999952316284"/><path d="M511.2,216.3V194l-61.9-34.5" style="fill:none;stroke:#d7e0ff;stroke-linecap:round;stroke-linejoin:round;stroke-width:0.699999988079071px;stroke-dasharray:2.799999952316284"/><path d="M453.3,141.8v10.3l60,32.8h17.8l35-20.4V154.2" style="fill:none;stroke:#d7e0ff;stroke-linecap:round;stroke-linejoin:round;stroke-width:0.699999988079071px;stroke-dasharray:2.799999952316284"/><path d="M452.3,152.6l-2.9,6.9m62.9,34.3,1-7.9" style="fill:none;stroke:#d7e0ff;stroke-linecap:round;stroke-linejoin:round;stroke-width:0.699999988079071px;stroke-dasharray:2.799999952316284"/><path d="M531.8,185.9l1,7.9m-20.6,0,1-7.9" style="fill:none;stroke:#d7e0ff;stroke-linecap:round;stroke-linejoin:round;stroke-width:0.699999988079071px;stroke-dasharray:2.799999952316284"/><path d="M452.3,141.9l35.4-20.3h18.5l59.7,33,3.7,6.1v34L532,216.8H511.1l-62.3-34.7V147.7Z" style="fill:none;stroke:#999fb6;stroke-linecap:round;stroke-linejoin:round"/><path d="M506.4,121.2l-.2,22L570,179" style="fill:none;stroke:#d7e0ff;stroke-linecap:round;stroke-linejoin:round;stroke-width:0.699999988079071px;stroke-dasharray:2.799999952316284"/><path d="M449.3,167.3l38.2-24.1v-22" style="fill:none;stroke:#d7e0ff;stroke-linecap:round;stroke-linejoin:round;stroke-width:0.699999988079071px;stroke-dasharray:2.799999952316284"/><path d="M488.5,143.3h18.6" style="fill:none;stroke:#d7e0ff;stroke-linecap:round;stroke-linejoin:round;stroke-width:0.699999988079071px;stroke-dasharray:2.799999952316284"/><polygon points="532.8 217.3 574 217.3 574 180 570.5 180 570.5 195.3 532.8 217.3" style="opacity:0.10401785373687744;isolation:isolate;fill:url(#ah)"/><g style="opacity:0.4000000059604645"><polygon points="173.6 337.9 236.6 373 257.3 373 295.3 350.2 295.3 335.4 231 299.4 212.8 299.4 173.6 323.7 173.6 337.9" style="fill:url(#ai)"/></g><polygon points="241.1 355.3 281.3 355.3 281.3 317.5 276.6 317.5 241.1 317.5 241.1 355.3" style="opacity:0.20401786267757416;isolation:isolate;fill:url(#aj)"/><polygon points="213.9 338.5 213.8 349.9 206.6 334.2 206.7 322.8 213.9 338.5" style="fill:#f7faff"/><polygon points="253.8 315.4 261.2 331 241.3 342.3 214 338.2 206.6 322.6 226.5 311.3 253.8 315.4" style="fill:url(#ak)"/><g style="mask:url(#al)"><path d="M230.6,327.8l.9,6.4h-1.1l-.8-5.8H218.7v-.6Zm-1.4-10.2,1.1,6.5H218.2v-.6H229l-1-5.8Zm20.2,10v.6H238.5l.9,5.9h-1.1l-1-6.5Zm-.7-4.3v.6l-11.9.2-1-6.5H237l.9,5.9Z" style="stroke-width:0.5px;fill:url(#am);stroke:url(#an)"/></g><polygon points="260.9 331.1 260.9 342.5 241.1 354.1 241.1 342.7 260.9 331.1" style="fill:url(#ao)"/><polygon points="259.5 340.5 259.5 342.4 257.7 343.4 257.7 341.5 259.5 340.5" style="fill:#8494b2"/><polygon points="256 342.4 255.9 344.3 254.2 345.3 254.2 343.4 256 342.4" style="fill:#8494b2"/><polygon points="253.3 344.3 253.3 346.2 251.5 347.2 251.5 345.3 253.3 344.3" style="fill:#8494b2;opacity:0.3698102533817291;isolation:isolate"/><polygon points="241.1 342.7 241 354.1 213.9 349.9 214 338.4 241.1 342.7" style="fill:#d1dae8"/><polygon points="237.6 350 237.6 351.6 235.8 351.4 235.8 349.8 237.6 350" style="fill:#a0aabe"/><polygon points="234 349.4 234 351.8 232.2 351.5 232.2 349.1 234 349.4" style="fill:#a0aabe;opacity:0.43186384439468384;isolation:isolate"/><polygon points="231.4 349.2 231.3 351.6 229.6 351.3 229.6 348.9 231.4 349.2" style="fill:#a0aabe"/><polyline points="260.9 331.2 241.1 342.6 214 338.4 206.6 322.8" style="fill:none;stroke:#7d849e;opacity:0.40172991156578064;isolation:isolate"/><polyline points="260.9 337.4 241.1 348.9 214 344.7 206.6 329" style="fill:none;stroke:#7d849e;opacity:0.40172991156578064;isolation:isolate"/><path d="M241.7,343v11.1m-28.3-4.6V338.4" style="fill:none;stroke:#7d849e;opacity:0.40172991156578064;isolation:isolate"/><path d="M206.1,334.2V322.5l20.2-11.8,27.6,4.3,7.4,16v11.9l-20.2,11.8-27.6-4.3-7.5-15.9Z" style="fill:none;stroke:#555a6f;stroke-linecap:round;stroke-linejoin:round"/><path d="M291.4,320.9l2.9,6.9" style="fill:none;stroke:#d7e0ff;stroke-linecap:round;stroke-linejoin:round;stroke-width:0.699999988079071px;stroke-dasharray:2.799999952316284"/><path d="M173.6,304.3l39-22.6h18.5l63.2,35v11.5l-37,21.5V372" style="fill:none;stroke:#d7e0ff;stroke-linecap:round;stroke-linejoin:round;stroke-width:0.699999988079071px;stroke-dasharray:2.799999952316284"/><path d="M258,372V349.4H237.5" style="fill:none;stroke:#d7e0ff;stroke-linecap:round;stroke-linejoin:round;stroke-width:0.699999988079071px;stroke-dasharray:2.799999952316284"/><path d="M236.4,372V349.6l-61.9-34.5" style="fill:none;stroke:#d7e0ff;stroke-linecap:round;stroke-linejoin:round;stroke-width:0.699999988079071px;stroke-dasharray:2.799999952316284"/><path d="M178.5,297.4v10.3l60,32.8h17.8l35-20.4V309.9" style="fill:none;stroke:#d7e0ff;stroke-linecap:round;stroke-linejoin:round;stroke-width:0.699999988079071px;stroke-dasharray:2.799999952316284"/><path d="M177.6,308.2l-2.9,6.9m62.9,34.3,1-7.9" style="fill:none;stroke:#d7e0ff;stroke-linecap:round;stroke-linejoin:round;stroke-width:0.699999988079071px;stroke-dasharray:2.799999952316284"/><path d="M257.1,341.6l1,7.9m-20.6,0,1-7.9" style="fill:none;stroke:#d7e0ff;stroke-linecap:round;stroke-linejoin:round;stroke-width:0.699999988079071px;stroke-dasharray:2.799999952316284"/><path d="M177.5,297.6l35.4-20.3h18.5l59.7,33,3.7,6.1v34l-37.5,22.1H236.4l-62.3-34.7V303.4Z" style="fill:none;stroke:#999fb6;stroke-linecap:round;stroke-linejoin:round"/><path d="M231.6,276.8l-.2,22,63.9,35.8" style="fill:none;stroke:#d7e0ff;stroke-linecap:round;stroke-linejoin:round;stroke-width:0.699999988079071px;stroke-dasharray:2.799999952316284"/><path d="M174.6,322.9l38.2-24.1v-22" style="fill:none;stroke:#d7e0ff;stroke-linecap:round;stroke-linejoin:round;stroke-width:0.699999988079071px;stroke-dasharray:2.799999952316284"/><path d="M213.8,298.9h18.6" style="fill:none;stroke:#d7e0ff;stroke-linecap:round;stroke-linejoin:round;stroke-width:0.699999988079071px;stroke-dasharray:2.799999952316284"/><polygon points="258.1 373 299.2 373 299.2 335.7 295.8 335.7 295.8 351 258.1 373" style="opacity:0.10401785373687744;isolation:isolate;fill:url(#ap)"/><polygon points="707.5 382.8 584.2 454.9 67 153.4 189.9 83 707.5 382.8" style="fill:#fff;fill-opacity:0.5;stroke:#cbcfde"/><g style="opacity:0.4000000059604645"><polygon points="310.5 263.8 574.4 415.7 595.2 415.7 633.2 392.9 633.2 378.2 367.8 225.2 349.6 225.2 310.5 249.6 310.5 263.8" style="fill:url(#aq)"/></g><polygon points="575.9 398.2 621.5 398.2 621.5 355.2 616.2 355.2 575.9 355.2 575.9 398.2" style="opacity:0.20401786267757416;isolation:isolate;fill:url(#ar)"/><polygon points="580.3 383.9 601.4 371.6 601.3 385.2 580.3 397.5 580.3 383.9" style="fill:url(#as)"/><polygon points="572 383.7 580.3 383.7 580.2 397.6 571.8 397.6 572 383.7" style="fill:#d1dae8"/><polygon points="571.9 389.4 571.9 397.5 538.6 378.2 538.6 364.6 572 383.9 571.9 389.4" style="fill:#e3ebf9"/><polygon points="601.4 366.7 601.4 371.6 580.3 383.9 572 383.9 538.6 364.6 538.6 359.7 559.7 347.4 568 347.4 601.4 366.7" style="fill:url(#at)"/><path d="M585.2,362.9l-11.1-6.3a3.9,3.9,0,0,0-3.5.2l-16.3,9.6c-1.1.6-1.2,1.5-.3,2l11.1,6.3a3.9,3.9,0,0,0,3.5-.2l16.3-9.6C585.9,364.3,586.1,363.4,585.2,362.9Zm-13.8-5.7.7-.2a3.9,3.9,0,0,1,1.2,4.5,14.9,14.9,0,0,0-6.6,1.2,2.5,2.5,0,0,0-2.1.2c-.7.4-.8,1-.2,1.3a2.4,2.4,0,0,0,2.2-.1c.5-.3.7-.7.5-1.1a14.4,14.4,0,0,1,6.1-1.1,8.4,8.4,0,0,1-2.6,3h-.2a2.7,2.7,0,0,0-1.7.3c-.6.4-.7.9-.3,1.2a8.1,8.1,0,0,0-2.8,3.2,8.3,8.3,0,0,1-3.2-1c-2.8-1.6-2.4-4.5,1-6.5l8-4.7Zm-5,5.7c.3.2.3.5-.1.8a1.5,1.5,0,0,1-1.3.1c-.3-.2-.3-.5.1-.8A1.5,1.5,0,0,1,566.3,362.9Zm3.7,2.2h.3c.3.2.3.5-.1.8a1.5,1.5,0,0,1-1.3.1c-.3-.2-.3-.5.1-.8A1.8,1.8,0,0,1,570,365.1Zm-4,9.1-11.1-6.3c-.4-.2-.4-.7.2-1l5.7-3.4c-1.6,1.9-1.3,4,1,5.3a8.6,8.6,0,0,0,3.6,1,4.1,4.1,0,0,0,.9,4.5Zm1.8-.1-.7.2a3.8,3.8,0,0,1-1.2-4.5,15.4,15.4,0,0,0,6.6-1.1,2.5,2.5,0,0,0,2.1-.2c.7-.4.8-1,.2-1.3a2.4,2.4,0,0,0-2.2.1c-.5.3-.7.7-.5,1.1a13.8,13.8,0,0,1-6.1,1,8.4,8.4,0,0,1,2.6-3,2.6,2.6,0,0,0,1.9-.3c.6-.4.7-.9.3-1.2a8.1,8.1,0,0,0,2.8-3.2,8.3,8.3,0,0,1,3.2,1c2.8,1.6,2.4,4.5-1,6.5Zm5-5.7c-.3-.2-.3-.5.1-.8a1.5,1.5,0,0,1,1.3-.1c.3.2.3.5-.1.8A1.5,1.5,0,0,1,572.8,368.3Zm5.5-.5c1.6-1.9,1.3-4-1-5.3a8.6,8.6,0,0,0-3.6-1,4.1,4.1,0,0,0-.9-4.5h.2l11.1,6.3c.4.2.4.7-.2,1Z" style="stroke-width:0.5px;fill:url(#au);stroke:url(#av)"/><polygon points="601.2 371.3 601.6 371.9 580.5 384.2 580.3 384.3 572 384.3 571.8 384.2 538 364.5 538.3 363.9 572.1 383.6 580.2 383.6 601.2 371.3" style="fill:#7d849e;opacity:0.4000000059604645;isolation:isolate"/><path d="M580.2,390.9h0Zm0,0,21-12.3.3.6-21.1,12.3h-8.7L538,371.8l.3-.6,33.8,19.7Zm-8.2,0h0Z" style="fill:#7d849e;opacity:0.4000000059604645;isolation:isolate"/><path d="M538.6,378.2l33.3,19.3h8.4l21-12.3V366.7L568,347.3h-8.3l-21.2,12.3Zm-1.3.8V358.9L559.4,346h9l34.2,19.9V386l-22,12.9h-9.1Z" style="fill:#555a6f"/><polygon points="441.1 320.9 486.8 320.9 486.8 277.9 481.5 277.9 441.1 277.9 441.1 320.9" style="opacity:0.20401786267757416;isolation:isolate;fill:url(#aw)"/><polygon points="445.6 306.6 466.6 294.3 466.6 307.9 445.5 320.2 445.6 306.6" style="fill:url(#ax)"/><polygon points="437.2 306.4 445.5 306.4 445.5 320.3 437.1 320.3 437.2 306.4" style="fill:#d1dae8"/><polygon points="437.2 312.1 437.1 320.2 403.8 300.9 403.9 287.3 437.2 306.6 437.2 312.1" style="fill:#e3ebf9"/><polygon points="466.6 289.4 466.6 294.3 445.6 306.6 437.2 306.6 403.9 287.3 403.9 282.4 424.9 270.1 433.3 270.1 466.6 289.4" style="fill:url(#ay)"/><path d="M433.1,284.3l-1.4.8c-.3.2-.3.4,0,.6a1,1,0,0,0,1,0l1.4-.8c.3-.2.3-.4,0-.6A1,1,0,0,0,433.1,284.3Zm.1,5.8h.5c.1-.1.1-.2,0-.3s-.7-1,0-1.4l1-.6c.1-.1.1-.2,0-.3h-.5l-1,.6C432.2,288.7,432.2,289.6,433.2,290.1Zm6.3,0a1,1,0,0,0,1,0l1.4-.8c.3-.2.3-.4,0-.6a1,1,0,0,0-1,0l-1.4.8C439.2,289.7,439.2,289.9,439.5,290.1Zm-10.1-9.3a1,1,0,0,0,1,0l3.4-1.9a2.2,2.2,0,0,1,1.9,0l3.4,1.9a1,1,0,0,0,1,0c.3-.2.3-.4,0-.6l-3.4-1.9a4.3,4.3,0,0,0-3.9,0l-3.4,1.9C429,280.4,429.1,280.7,429.3,280.8Zm22.9,6.3-3.4-1.9a1,1,0,0,0-1,0c-.3.2-.3.4,0,.6l3.4,1.9c.5.3.6.8,0,1.1l-3.8,2.2c-.3.2-.3.4,0,.6a1,1,0,0,0,1,0l3.8-2.2C453.4,288.8,453.4,287.8,452.3,287.2Zm-30.5,3.7-3.4-1.9c-.5-.3-.6-.8,0-1.1l3.4-1.9c.3-.2.3-.4,0-.6a1,1,0,0,0-1,0l-3.4,1.9c-1.1.6-1,1.6,0,2.2l3.4,1.9a1,1,0,0,0,1,0C422.1,291.2,422.1,291,421.8,290.8Zm18.6,5a1,1,0,0,0-1,0l-3.4,1.9a2.2,2.2,0,0,1-1.9,0l-3.4-1.9a1,1,0,0,0-1,0c-.3.2-.3.4,0,.6l3.4,1.9a4.3,4.3,0,0,0,3.9,0l3.4-1.9C440.6,296.2,440.6,295.9,440.3,295.8Zm-3.7-3.3-.4-.2a10.9,10.9,0,0,1-6.4-1.1c-1.7-1-2.5-2.3-2-3.7s-.1-.2-.3-.2-.4.1-.4.2.4,2.9,2.2,4a12,12,0,0,0,7,1.2C436.6,292.7,436.7,292.5,436.7,292.5Z" style="stroke-width:0.5px;fill:url(#az);stroke:url(#ba)"/><polygon points="466.5 294 466.8 294.6 445.7 306.9 445.6 307 437.2 307 437.1 306.9 403.2 287.2 403.5 286.6 437.3 306.3 445.5 306.3 466.5 294" style="fill:#7d849e;opacity:0.4000000059604645;isolation:isolate"/><path d="M445.5,313.6h0Zm0,0,21-12.3.3.6-21.1,12.3h-8.7l-33.8-19.7.3-.6,33.8,19.7Zm-8.2,0h0Z" style="fill:#7d849e;opacity:0.4000000059604645;isolation:isolate"/><path d="M403.8,300.9l33.3,19.3h8.4l21-12.3V289.4L433.3,270H425l-21.2,12.3Zm-1.3.8V281.6l22.1-12.9h9l34.2,19.9v20.1l-22,12.9h-9.1Z" style="fill:#555a6f"/><polygon points="508 358.5 553.6 358.5 553.6 315.6 548.3 315.6 508 315.6 508 358.5" style="opacity:0.20401786267757416;isolation:isolate;fill:url(#bb)"/><polygon points="512.4 344.2 533.5 331.9 533.4 345.5 512.4 357.8 512.4 344.2" style="fill:url(#bc)"/><polygon points="504.1 344 512.4 344 512.3 357.9 503.9 357.9 504.1 344" style="fill:#d1dae8"/><polygon points="504 349.7 504 357.8 470.7 338.5 470.8 324.9 504.1 344.2 504 349.7" style="fill:#e3ebf9"/><polygon points="533.5 327 533.5 331.9 512.4 344.2 504.1 344.2 470.8 324.9 470.7 320 491.8 307.7 500.2 307.7 533.5 327" style="fill:url(#bd)"/><path d="M495.7,318.3a1,1,0,0,0,.9,0l3.2-1.9a2.1,2.1,0,0,1,1.9,0l3.4,2a1,1,0,0,0,.9,0c.3-.2.3-.4,0-.6l-3.4-2a4.1,4.1,0,0,0-3.8-.1l-3.2,1.9C495.4,317.9,495.4,318.2,495.7,318.3Zm22.4,6.8-3.4-2a1,1,0,0,0-.9,0c-.3.2-.3.4,0,.6l3.4,2c.5.3.5.8,0,1.1l-3.7,2.2c-.3.2-.3.4,0,.6a1,1,0,0,0,.9,0l3.7-2.2C519.2,326.7,519.2,325.7,518.1,325.1Zm-19.8-5.5-7.8,4.6c-.4.2-.4.6,0,.8l12,7.1a1.6,1.6,0,0,0,1.4,0l7.8-4.6c.4-.2.4-.6,0-.8l-12-7.1A1.6,1.6,0,0,0,498.3,319.6Zm5.2,12.3H503l-12-7.1c-.1-.1-.1-.2,0-.3l.8-.5,5.7.5V327h9.9v2.2Zm7.8-4.6-3.1,1.8v-2a.2.2,0,0,0-.1-.2h-9.9v-2.4c0-.1-.1-.2-.3-.2l-5.4-.5,6.5-3.8h.5l12,7.1C511.5,327.1,511.5,327.2,511.4,327.3Zm-22.8.9-3.4-2c-.5-.3-.5-.8,0-1.1l3.2-1.9c.3-.2.3-.4,0-.6a1,1,0,0,0-.9,0l-3.2,1.9c-1,.6-1,1.6.1,2.2l3.4,2a1,1,0,0,0,.9,0C488.8,328.6,488.8,328.4,488.5,328.2Zm11.4-3.8a2.5,2.5,0,0,0,2.4,0c.6-.4.6-1-.1-1.4a2.5,2.5,0,0,0-2.4,0C499.2,323.3,499.3,324,499.9,324.4Zm1.8-1.1c.4.2.4.6,0,.8a1.6,1.6,0,0,1-1.4,0c-.4-.2-.4-.6,0-.8A1.6,1.6,0,0,1,501.8,323.3Zm4.8,10.2a1,1,0,0,0-.9,0l-3.2,1.9a2.1,2.1,0,0,1-1.9,0l-3.4-2a1,1,0,0,0-.9,0c-.3.2-.3.4,0,.6l3.4,2a4.1,4.1,0,0,0,3.8.1l3.2-1.9C506.9,333.9,506.9,333.7,506.6,333.5Z" style="stroke-width:0.5px;fill:url(#be);stroke:url(#bf)"/><polygon points="533.3 331.6 533.7 332.2 512.6 344.5 512.4 344.6 504.1 344.6 503.9 344.5 470.1 324.8 470.4 324.2 504.2 343.9 512.3 343.9 533.3 331.6" style="fill:#7d849e;opacity:0.4000000059604645;isolation:isolate"/><path d="M512.3,351.2h0Zm0,0,21-12.3.3.6-21.1,12.3h-8.7l-33.8-19.7.3-.6,33.8,19.7Zm-8.2,0h0Z" style="fill:#7d849e;opacity:0.4000000059604645;isolation:isolate"/><path d="M470.7,338.6l33.3,19.3h8.4l21-12.3V327l-33.3-19.3h-8.3L470.7,320Zm-1.3.8V319.2l22.1-12.9h9l34.2,19.9v20.1l-22,12.9h-9.1Z" style="fill:#555a6f"/><polygon points="374.3 281.2 419.9 281.2 419.9 238.3 414.6 238.3 374.3 238.3 374.3 281.2" style="opacity:0.20401786267757416;isolation:isolate;fill:url(#bg)"/><polygon points="378.7 266.9 399.8 254.6 399.7 268.2 378.7 280.5 378.7 266.9" style="fill:url(#bh)"/><polygon points="370.4 266.7 378.7 266.7 378.6 280.6 370.2 280.6 370.4 266.7" style="fill:#d1dae8"/><polygon points="370.3 272.4 370.3 280.5 337 261.2 337 247.6 370.4 266.9 370.3 272.4" style="fill:#e3ebf9"/><polygon points="399.8 249.7 399.8 254.6 378.7 266.9 370.4 266.9 337 247.6 337 242.7 358.1 230.4 366.4 230.4 399.8 249.7" style="fill:url(#bi)"/><path d="M366.7,245.1l.4.2h.5c.1-.1.2-.2,0-.3l-.4-.2h-.5C366.6,245,366.6,245.1,366.7,245.1Zm-1.9,1.2.4.2h.5c.1-.1.2-.2,0-.3l-.4-.2h-.5C364.7,246.1,364.7,246.2,364.8,246.3Zm3.6-.2,3.8,2.1h.5c.1-.1.2-.2,0-.3l-3.8-2.1h-.5C368.3,245.9,368.3,246,368.4,246.1Zm-6.2,2.7-1.4-.8c-.3-.1-.2-.4.1-.6l1.6-1c.1-.1.2-.2,0-.3h-.5l-1.6,1c-.6.3-.6.8-.1,1.1l1.4.8h.5C362.4,248.9,362.4,248.8,362.3,248.8Zm8.4.5c.1-.1.2-.2,0-.3l-3.8-2.1h-.5c-.1.1-.2.2,0,.3l3.8,2.1Zm1.2-6.3-1.4-.8a2.1,2.1,0,0,0-1.9.1l-1.6,1c-.1.1-.2.2,0,.3h.5l1.6-1a1.1,1.1,0,0,1,1-.1l1.4.8h.5C372.1,243.2,372.1,243.1,371.9,243Zm5.2,2.9-1.4-.8h-.5c-.1.1-.2.2,0,.3l1.4.8c.3.1.2.4-.1.6l-1.6,1c-.1.1-.2.2,0,.3h.5l1.6-1C377.6,246.6,377.6,246.2,377.1,245.9Zm6.4-.9-11.7-6.5a4.1,4.1,0,0,0-3.6.2l-13.6,8.1-.8,6.2,8.4,4.6a4.1,4.1,0,0,0,3.6-.2l17.4-10.4C384.4,246.4,384.5,245.5,383.6,245Zm-28.3,7.3.3-2.4.3-2.4,2.8,1.6c.6.3.5.9-.2,1.3ZM365,257a2,2,0,0,1-1.8.1l-7.9-4.4,3.6-2.2c.9-.5,1-1.4.2-1.8L356,247l13.1-7.8a2,2,0,0,1,1.8-.1l11.7,6.5c.5.3.4.7-.1,1Zm5.5-6.4h-.5l-1.6,1a1.1,1.1,0,0,1-1,.1l-1.4-.8h-.5c-.1.1-.2.2,0,.3l1.4.8a2.1,2.1,0,0,0,1.9-.1l1.6-1C370.7,250.8,370.7,250.6,370.5,250.6Z" style="stroke-width:0.5px;fill:url(#bj);stroke:url(#bk)"/><polygon points="399.6 254.3 400 254.9 378.9 267.2 378.7 267.3 370.4 267.3 370.2 267.2 336.4 247.5 336.7 246.9 370.5 266.6 378.6 266.6 399.6 254.3" style="fill:#7d849e;opacity:0.4000000059604645;isolation:isolate"/><path d="M378.6,273.9h0Zm0,0,21-12.3.3.6-21.1,12.3h-8.7l-33.8-19.7.3-.6,33.8,19.7Zm-8.2,0h0Z" style="fill:#7d849e;opacity:0.4000000059604645;isolation:isolate"/><path d="M337,261.3l33.3,19.3h8.4l21-12.3V249.7l-33.3-19.3h-8.3L337,242.7Zm-1.3.8V241.9L357.8,229h9L401,248.9V269l-22,12.9h-9.1Z" style="fill:#555a6f"/><path d="M629.3,363.7l2.9,6.9" style="fill:none;stroke:#d7e0ff;stroke-linecap:round;stroke-linejoin:round;stroke-width:0.699999988079071px;stroke-dasharray:2.799999952316284"/><path d="M310.5,230.2l39-22.6H368L632.2,359.5V371l-37,21.5v22.3" style="fill:none;stroke:#d7e0ff;stroke-linecap:round;stroke-linejoin:round;stroke-width:0.699999988079071px;stroke-dasharray:2.799999952316284"/><path d="M595.9,414.7V392.1H575.3" style="fill:none;stroke:#d7e0ff;stroke-linecap:round;stroke-linejoin:round;stroke-width:0.699999988079071px;stroke-dasharray:2.799999952316284"/><path d="M574.3,414.7V392.3L311.5,240.9" style="fill:none;stroke:#d7e0ff;stroke-linecap:round;stroke-linejoin:round;stroke-width:0.699999988079071px;stroke-dasharray:2.799999952316284"/><path d="M315.4,223.3v10.3L576.5,383.3h17.8l35-20.4V352.6" style="fill:none;stroke:#d7e0ff;stroke-linecap:round;stroke-linejoin:round;stroke-width:0.699999988079071px;stroke-dasharray:2.799999952316284"/><path d="M314.4,234.1l-2.9,6.9M575.3,392.1l1-7.9" style="fill:none;stroke:#d7e0ff;stroke-linecap:round;stroke-linejoin:round;stroke-width:0.699999988079071px;stroke-dasharray:2.799999952316284"/><path d="M595,384.3l1,7.9m-20.6,0,1-7.9" style="fill:none;stroke:#d7e0ff;stroke-linecap:round;stroke-linejoin:round;stroke-width:0.699999988079071px;stroke-dasharray:2.799999952316284"/><path d="M314.4,223.4l35.4-20.3h18.5L629,353l3.7,6.1v34l-37.5,22.1H574.3L311,263.7V229.2Z" style="fill:none;stroke:#999fb6;stroke-linecap:round;stroke-linejoin:round"/><path d="M368.5,202.6l-.2,22L633.2,377.4" style="fill:none;stroke:#d7e0ff;stroke-linecap:round;stroke-linejoin:round;stroke-width:0.699999988079071px;stroke-dasharray:2.799999952316284"/><path d="M311.5,248.8l38.2-24.1v-22" style="fill:none;stroke:#d7e0ff;stroke-linecap:round;stroke-linejoin:round;stroke-width:0.699999988079071px;stroke-dasharray:2.799999952316284"/><path d="M350.7,224.7h18.6" style="fill:none;stroke:#d7e0ff;stroke-linecap:round;stroke-linejoin:round;stroke-width:0.699999988079071px;stroke-dasharray:2.799999952316284"/><polygon points="595.9 415.7 637.1 415.7 637.1 378.4 633.7 378.4 633.7 393.7 595.9 415.7" style="opacity:0.10401785373687744;isolation:isolate;fill:url(#bl)"/><g style="opacity:0.4000000059604645"><polygon points="136 162.4 256.8 231.8 277.5 231.8 315.5 209.1 315.5 194.3 193.3 123.9 175.2 123.9 136 148.2 136 162.4" style="fill:url(#bm)"/></g><polygon points="265.1 215.4 305.3 215.4 305.3 177.6 300.6 177.6 265.1 177.6 265.1 215.4" style="opacity:0.20401786267757416;isolation:isolate;fill:url(#bn)"/><polygon points="237.9 198.6 237.9 210 230.6 194.2 230.7 182.8 237.9 198.6" style="fill:#f7faff"/><polygon points="277.8 175.5 285.2 191 265.3 202.3 238 198.2 230.6 182.7 250.5 171.3 277.8 175.5" style="fill:url(#bo)"/><g style="mask:url(#bp)"><path d="M261.1,187.1a8,8,0,0,0,2.9-1c1.9-1.1,2.4-2.9.6-3.9s-4.7-.8-6.7.4-2.4,2.9-.6,3.9a5.7,5.7,0,0,0,2.6.6v1.4c0,.1.1.1.1.2h.5c.3,0,.6-.2.6-.4Zm-2.9-1.1c-1.2-.7-1.1-2,.4-2.9a5.7,5.7,0,0,1,5.1-.3c1.3.8,1.1,2-.4,2.9A5.8,5.8,0,0,1,258.2,186Zm11.2-.2c1.8-2,1.3-4.3-1.1-5.6s-6.2-1.7-9.7-.6c-3.3-1.4-8.3-.9-11.7,1.1s-4.3,5.5-1.1,7.4l9.7,5.6h.2c3.2,1.3,8.3.9,11.7-1.1S271.8,187.7,269.4,185.8Zm-12.3,7.4,4.1-2.4c.3-.2.3-.4.1-.5a.9.9,0,0,0-.8,0l-4.2,2.5-2.4-1.4,2.4-1.4c.3-.2.3-.4.1-.5a.9.9,0,0,0-.8,0L253,191l-2.4-1.4,3.7-2.1c.3-.2.3-.4.1-.5a1,1,0,0,0-.8,0l-3.7,2.1-2.4-1.4,2.6-1.5c.3-.2.3-.4.1-.5a1,1,0,0,0-.8,0l-2.6,1.5c-2.4-1.6-2-4.4,1.1-6.2s7.4-2.1,10.3-.8h.6c3.1-1,6.6-.8,8.7.5s2.5,3.2.9,5.1c-.1.2-.1.2,0,.3,2.2,1.7,1.6,4.2-1.3,6A13.1,13.1,0,0,1,257.1,193.2Z" style="stroke-width:0.5px;fill:url(#bq);stroke:url(#br)"/></g><polygon points="284.9 191.2 284.9 202.6 265.1 214.1 265.2 202.7 284.9 191.2" style="fill:url(#bs)"/><polygon points="283.5 200.6 283.5 202.4 281.8 203.4 281.8 201.5 283.5 200.6" style="fill:#8494b2"/><polygon points="280 202.5 280 204.3 278.2 205.3 278.2 203.4 280 202.5" style="fill:#8494b2"/><polygon points="277.3 204.3 277.3 206.2 275.5 207.2 275.5 205.3 277.3 204.3" style="fill:#8494b2;opacity:0.3698102533817291;isolation:isolate"/><polygon points="265.1 202.7 265 214.1 237.9 209.9 238 198.5 265.1 202.7" style="fill:#d1dae8"/><polygon points="261.6 210 261.6 211.7 259.8 211.5 259.8 209.8 261.6 210" style="fill:#a0aabe"/><polygon points="258 209.4 258 211.9 256.3 211.5 256.3 209.1 258 209.4" style="fill:#a0aabe;opacity:0.43186384439468384;isolation:isolate"/><polygon points="255.4 209.2 255.4 211.7 253.6 211.4 253.6 208.9 255.4 209.2" style="fill:#a0aabe"/><polyline points="284.9 191.2 265.1 202.6 238 198.5 230.6 182.8" style="fill:none;stroke:#7d849e;opacity:0.40172991156578064;isolation:isolate"/><polyline points="284.9 197.5 265.1 208.9 238 204.7 230.6 189.1" style="fill:none;stroke:#7d849e;opacity:0.40172991156578064;isolation:isolate"/><path d="M265.7,203.1v11.1m-28.3-4.6V198.5" style="fill:none;stroke:#7d849e;opacity:0.40172991156578064;isolation:isolate"/><path d="M230.1,194.2V182.5l20.2-11.8,27.6,4.3,7.4,16v11.9l-20.2,11.8-27.6-4.3-7.5-15.9Z" style="fill:none;stroke:#555a6f;stroke-linecap:round;stroke-linejoin:round"/><polygon points="201.4 177.8 241.6 177.8 241.6 140 236.9 140 201.4 140 201.4 177.8" style="opacity:0.20401786267757416;isolation:isolate;fill:url(#bt)"/><polygon points="174.2 161 174.2 172.4 166.9 156.6 167 145.2 174.2 161" style="fill:#f7faff"/><polygon points="214.1 137.9 221.5 153.4 201.6 164.7 174.3 160.6 166.9 145.1 186.8 133.7 214.1 137.9" style="fill:url(#bu)"/><g style="mask:url(#bv)"><path d="M202.5,152.1a2.8,2.8,0,0,0-2.2-.2l-13.9-7c.3-.4.1-.8-.4-1.1a2.8,2.8,0,0,0-2.4.1c-.6.4-.5,1,.2,1.4a2.7,2.7,0,0,0,2,.2l13.8,7.1c-.3.4-.1.9.5,1.2a3,3,0,0,0,2.7,0,.9.9,0,0,0-.3-1.7M196,156a3.1,3.1,0,0,0-2.1-.3l-5.1-2.7-1-3.3-5.1-2.7c.3-.3.1-.8-.4-1.1a2.6,2.6,0,0,0-2.3.1c-.6.4-.4,1.1.3,1.4a2.5,2.5,0,0,0,1.9.2l4.8,2.5,1,3.2,5.3,2.8c-.3.4-.1.8.5,1.2a2.9,2.9,0,0,0,2.6,0c.5-.3.4-1-.3-1.4m-8.5-13.3a2.4,2.4,0,0,0,2,.1l5.1,2.6,6.6.6,4.8,2.3c-.3.4-.1.9.5,1.2a3.2,3.2,0,0,0,2.8,0c.7-.4.6-1.1-.3-1.5a3.5,3.5,0,0,0-2.3-.2l-5.1-2.4-6.7-.6-4.9-2.4c.3-.4.1-.8-.5-1.1a2.8,2.8,0,0,0-2.4.1c-.4.4-.3,1,.3,1.3" style="stroke-width:0.5px;fill:url(#bw);stroke:url(#bx)"/></g><polygon points="221.2 153.6 221.2 165 201.4 176.5 201.4 165.1 221.2 153.6" style="fill:url(#by)"/><polygon points="219.8 163 219.8 164.8 218 165.8 218 163.9 219.8 163" style="fill:#8494b2"/><polygon points="216.3 164.8 216.3 166.7 214.5 167.7 214.5 165.8 216.3 164.8" style="fill:#8494b2"/><polygon points="213.6 166.7 213.6 168.6 211.8 169.6 211.8 167.7 213.6 166.7" style="fill:#8494b2;opacity:0.3698102533817291;isolation:isolate"/><polygon points="201.4 165.1 201.3 176.5 174.2 172.3 174.3 160.9 201.4 165.1" style="fill:#d1dae8"/><polygon points="197.9 172.4 197.9 174 196.1 173.9 196.1 172.2 197.9 172.4" style="fill:#a0aabe"/><polygon points="194.3 171.8 194.3 174.2 192.5 173.9 192.6 171.5 194.3 171.8" style="fill:#a0aabe;opacity:0.43186384439468384;isolation:isolate"/><polygon points="191.7 171.6 191.7 174 189.9 173.8 189.9 171.3 191.7 171.6" style="fill:#a0aabe"/><polyline points="221.2 153.6 201.4 165 174.3 160.8 166.9 145.2" style="fill:none;stroke:#7d849e;opacity:0.40172991156578064;isolation:isolate"/><polyline points="221.2 159.8 201.4 171.3 174.3 167.1 166.9 151.5" style="fill:none;stroke:#7d849e;opacity:0.40172991156578064;isolation:isolate"/><path d="M202,165.5v11.1m-28.3-4.6V160.9" style="fill:none;stroke:#7d849e;opacity:0.40172991156578064;isolation:isolate"/><path d="M166.4,156.6V144.9l20.2-11.8,27.6,4.3,7.4,16v11.9l-20.2,11.8-27.6-4.3-7.5-15.9Z" style="fill:none;stroke:#555a6f;stroke-linecap:round;stroke-linejoin:round"/><path d="M311.6,179.8l2.9,6.9" style="fill:none;stroke:#d7e0ff;stroke-linecap:round;stroke-linejoin:round;stroke-width:0.699999988079071px;stroke-dasharray:2.799999952316284"/><path d="M136,128.8l39-22.6h18.5l121,69.4v11.5l-37,21.5v22.3" style="fill:none;stroke:#d7e0ff;stroke-linecap:round;stroke-linejoin:round;stroke-width:0.699999988079071px;stroke-dasharray:2.799999952316284"/><path d="M278.2,230.8V208.3H257.7" style="fill:none;stroke:#d7e0ff;stroke-linecap:round;stroke-linejoin:round;stroke-width:0.699999988079071px;stroke-dasharray:2.799999952316284"/><path d="M256.6,230.8V208.5L137,139.6" style="fill:none;stroke:#d7e0ff;stroke-linecap:round;stroke-linejoin:round;stroke-width:0.699999988079071px;stroke-dasharray:2.799999952316284"/><path d="M140.9,121.9v10.3l117.8,67.2h17.8l35-20.4V168.8" style="fill:none;stroke:#d7e0ff;stroke-linecap:round;stroke-linejoin:round;stroke-width:0.699999988079071px;stroke-dasharray:2.799999952316284"/><path d="M139.9,132.7l-2.9,6.9m120.7,68.7,1-7.9" style="fill:none;stroke:#d7e0ff;stroke-linecap:round;stroke-linejoin:round;stroke-width:0.699999988079071px;stroke-dasharray:2.799999952316284"/><path d="M277.3,200.4l1,7.9m-20.6,0,1-7.9" style="fill:none;stroke:#d7e0ff;stroke-linecap:round;stroke-linejoin:round;stroke-width:0.699999988079071px;stroke-dasharray:2.799999952316284"/><path d="M139.9,122.1l35.4-20.3h18.5l117.5,67.3,3.7,6.1v34l-37.5,22.1H256.6l-120.1-69V127.9Z" style="fill:none;stroke:#999fb6;stroke-linecap:round;stroke-linejoin:round"/><path d="M194,101.3l-.2,22,121.7,70.2" style="fill:none;stroke:#d7e0ff;stroke-linecap:round;stroke-linejoin:round;stroke-width:0.699999988079071px;stroke-dasharray:2.799999952316284"/><path d="M137,147.5l38.2-24.1v-22" style="fill:none;stroke:#d7e0ff;stroke-linecap:round;stroke-linejoin:round;stroke-width:0.699999988079071px;stroke-dasharray:2.799999952316284"/><path d="M176.2,123.4h18.6" style="fill:none;stroke:#d7e0ff;stroke-linecap:round;stroke-linejoin:round;stroke-width:0.699999988079071px;stroke-dasharray:2.799999952316284"/><polygon points="278.3 231.8 319.4 231.8 319.4 194.5 316 194.5 316 209.9 278.3 231.8" style="opacity:0.10401785373687744;isolation:isolate;fill:url(#bz)"/><polygon points="570.7 142.6 538.8 161.5 542.4 164 574.8 145 577.5 146.6 578.5 140 567 140.3 570.7 142.6" style="fill:#3a51c6;opacity:0.6000000238418579;isolation:isolate"/><polygon points="468.4 202.1 436.4 221 440.1 223.5 472.4 204.5 475.2 206.2 476.1 199.5 464.6 199.8 468.4 202.1" style="fill:#3a51c6;opacity:0.6000000238418579;isolation:isolate"/><polygon points="300.2 299.2 268.2 318.2 271.9 320.7 304.3 301.7 307 303.3 307.9 296.7 296.4 297 300.2 299.2" style="fill:#3a51c6;opacity:0.6000000238418579;isolation:isolate"/><polygon points="101.6 315.1 187.3 364.2 196.8 358.8 193 356.5 204.5 356.2 203.6 362.9 200.8 361.2 191.4 366.6 262.4 407.3 241.6 419.9 237.7 417.4 254.2 407.4 187.2 369 171.1 378.1 167.4 375.6 183.1 366.7 101.6 320 82.7 331.1 79.2 328.3 101.6 315.1" style="fill:#3a51c6;opacity:0.6000000238418579;isolation:isolate"/><path d="M521.2,22.1l4.1,4.1,4.1-4.1h23.1a3.4,3.4,0,0,0,3.4-3.4V3.4A3.4,3.4,0,0,0,552.5,0H496.2a3.4,3.4,0,0,0-3.4,3.4V18.7a3.4,3.4,0,0,0,3.4,3.4Z" style="fill:#425295"/><path d="M494,126.6l4.1,4.1,4.1-4.1h23.1a3.4,3.4,0,0,0,3.4-3.4V107.9a3.4,3.4,0,0,0-3.4-3.4H469.1a3.4,3.4,0,0,0-3.4,3.4v15.3a3.4,3.4,0,0,0,3.4,3.4Z" style="fill:#425295"/><path d="M95,147.4l4.1,4.1,4.1-4.1h23.1a3.4,3.4,0,0,0,3.4-3.4V128.8a3.4,3.4,0,0,0-3.4-3.4H70a3.4,3.4,0,0,0-3.4,3.4V144a3.4,3.4,0,0,0,3.4,3.4Z" style="fill:#425295"/><path d="M218.3,282.2l4.1,4.1,4.1-4.1h23.1a3.4,3.4,0,0,0,3.4-3.4V263.5a3.4,3.4,0,0,0-3.4-3.4H193.3a3.4,3.4,0,0,0-3.4,3.4v15.3a3.4,3.4,0,0,0,3.4,3.4Z" style="fill:#425295"/><path d="M355.1,208l4.1,4.1,4.1-4.1h12.7a3.4,3.4,0,0,0,3.4-3.4V189.3a3.4,3.4,0,0,0-3.4-3.4H340.6a3.4,3.4,0,0,0-3.4,3.4v15.3a3.4,3.4,0,0,0,3.4,3.4Z" style="fill:#425295"/><path d="M508.6,13.6a20.9,20.9,0,0,1,4,2.1l.5-.9a24.4,24.4,0,0,0-4-2v-.3h3.7v-.9h-3.3a7.6,7.6,0,0,0,.4-2.1V8.4h-1V9.6a6.6,6.6,0,0,1-.4,2.1H504v.9h4.1l-.2.2a8.1,8.1,0,0,1-4,2l.5.8A8.4,8.4,0,0,0,508.6,13.6Zm-3-3.9-.5.7a8.5,8.5,0,0,1,2,1.1l.5-.8Zm1-1.5-.5.7a8.8,8.8,0,0,1,2,1.1l.5-.8A9.6,9.6,0,0,0,506.6,8.3ZM512.8,7H509l-.3-1-1,.2.4.8h-3.9V9.1h1V7.9h6.8V9.1h1Zm4.8-.2h-3.2v8.1h1V14h1.3v.6h1ZM515.4,13V10.8h1.3V13Zm0-3.2V7.7h1.3V9.8Zm3.8.1-.8.5a25.3,25.3,0,0,1,1.5,2.6l.8-.6A20,20,0,0,0,519.2,9.9Zm2.3,5.7a.9.9,0,0,0,1.1-1.1V8.8h1.2v-1h-1.2V6.1h-1V7.9h-3.5v1h3.5v5.4q0,.4-.4.4h-1.7l.2,1Zm5-1.3v1h7.4v-1h-2.1a31.8,31.8,0,0,0,1.5-5.1l-1-.3a30.9,30.9,0,0,1-1.6,5.4Zm1.3-4.8-.9.3a30.4,30.4,0,0,1,1,3.8l.9-.2A30.1,30.1,0,0,0,527.7,9.5Zm2-.8-.9.3a37.6,37.6,0,0,1,.9,3.9l.9-.2A37,37,0,0,0,529.7,8.7Zm.1-2.7-1.1.2.5.8h-3.8v3.2a11.8,11.8,0,0,1-.8,4.8l.8.7a13.7,13.7,0,0,0,1-5.6V8h7.7V7h-3.8ZM537,9.9h2.4v1.6H537Zm-.1,2.5h2.5v3h1v-3H543v1.6c0,.4-.2.6-.5.6h-1.1l.3,1h1.2a1.1,1.1,0,0,0,1.2-1.2V6.4h-8v5.1a6,6,0,0,1-1,3.4l.8.7A6.3,6.3,0,0,0,536.9,12.4Zm6-.9h-2.6V9.9H543Zm0-2.5h-2.6V7.4H543Zm-3.6-1.6V8.9H537V7.4Z" style="fill:#fff"/><path d="M481.4,118.1a20.9,20.9,0,0,1,4,2.1l.5-.9a24.4,24.4,0,0,0-4-2v-.3h3.7v-.9h-3.3a7.6,7.6,0,0,0,.4-2.1v-1.3h-1v1.3a6.6,6.6,0,0,1-.4,2.1h-4.6v.9h4.1l-.2.2a8.1,8.1,0,0,1-4,2l.5.8A8.4,8.4,0,0,0,481.4,118.1Zm-3-3.9-.5.7a8.5,8.5,0,0,1,2,1.1l.5-.8Zm1-1.5-.5.7a8.8,8.8,0,0,1,2,1.1l.5-.8A9.6,9.6,0,0,0,479.4,112.7Zm6.3-1.3h-3.8l-.3-1-1,.2.4.8h-3.9v2.1h1v-1.2h6.8v1.2h1Zm4.8-.2h-3.2v8.1h1v-.9h1.3v.6h1Zm-2.2,6.3v-2.3h1.3v2.3Zm0-3.2v-2.2h1.3v2.2Zm3.8.1-.8.5a25.3,25.3,0,0,1,1.5,2.6l.8-.6A20,20,0,0,0,492.1,114.4Zm2.3,5.7a.9.9,0,0,0,1.1-1.1v-5.7h1.2v-1h-1.2v-1.8h-1v1.8h-3.5v1h3.5v5.4q0,.4-.4.4h-1.7l.2,1Zm6.3-9.3a11.4,11.4,0,0,1-1.4,2,7.3,7.3,0,0,1-1.9,1.5l.5.9a11.9,11.9,0,0,0,2.1-1.8,11.7,11.7,0,0,0,1.5-2.1Zm.3,4.8a6.5,6.5,0,0,1-.9,2.1,6.6,6.6,0,0,1-2.1,1.7l.6.8a7.5,7.5,0,0,0,2.4-2,8.2,8.2,0,0,0,1-2.6h2.4a11.8,11.8,0,0,1-.3,2.9,1,1,0,0,1-1,.7h-1.7l.3,1h2a1.5,1.5,0,0,0,1.2-.5,3.9,3.9,0,0,0,.5-1.7c.1-.8.2-1.9.2-3.2H499v1Zm2.9-5-.9.5a8.4,8.4,0,0,0,3.4,4l.7-.8A7.1,7.1,0,0,1,503.8,110.6Zm6.6,4.4.9,1.3.5-.8-1.4-1.6v-.5h1.3v-1h-1.3v-2h-1v2H508v1h1.4a9,9,0,0,1-1.6,3.2l.4,1.1a12.6,12.6,0,0,0,1.3-2.6v5h1Zm6.2-4.4.5.9a14.4,14.4,0,0,1-3.9.7v1.7h4.2v1h-1.5v5.4h-1v-5.4h-1.7a9.3,9.3,0,0,1-1.6,5.4l-.7-.7a7.9,7.9,0,0,0,1.4-4.6v-3.4A14,14,0,0,0,516.6,110.5Z" style="fill:#fff"/><path d="M82.4,139a20.9,20.9,0,0,1,4,2.1l.5-.9a24.4,24.4,0,0,0-4-2V138h3.7v-.9H83.5a7.6,7.6,0,0,0,.4-2.1v-1.3h-1V135a6.6,6.6,0,0,1-.4,2.1H77.9v.9h4.1l-.2.2a8.1,8.1,0,0,1-4,2l.5.8A8.4,8.4,0,0,0,82.4,139Zm-3-3.9-.5.7a8.5,8.5,0,0,1,2,1.1l.5-.8Zm1-1.5-.5.7a8.8,8.8,0,0,1,2,1.1l.5-.8A9.6,9.6,0,0,0,80.4,133.6Zm6.3-1.3H82.8l-.3-1-1,.2.4.8H77.9v2.1h1v-1.2h6.8v1.2h1Zm4.8-.2H88.3v8.1h1v-.9h1.3v.6h1Zm-2.2,6.3v-2.3h1.3v2.3Zm0-3.2V133h1.3v2.2Zm3.8.1-.8.5a25.3,25.3,0,0,1,1.5,2.6l.8-.6A20,20,0,0,0,93,135.3Zm2.3,5.7a.9.9,0,0,0,1.1-1.1v-5.7h1.2v-1H96.4v-1.8h-1v1.8H91.9v1h3.5v5.4q0,.4-.4.4H93.2l.2,1Zm5.1-9.5a10.4,10.4,0,0,1-2,4.9l.7.8.8-1.1a12.4,12.4,0,0,0,.8,2.1,6.9,6.9,0,0,1-2.2,1.9l.5.9a7.7,7.7,0,0,0,2.2-1.9l.7.7q1.4,1.1,4.7,1.1h1.2l.2-1h-1.8a6.6,6.6,0,0,1-3.7-.9l-.7-.7a11.1,11.1,0,0,0,1.5-4.5v-.9h-2.3l.3-1.4Zm.1,3.5.4-1h1.6a10.6,10.6,0,0,1-1.1,3.4A15.2,15.2,0,0,1,100.4,134.9Zm4.1-3.4v7.7h1v-4.1l2,1.9.6-.9-2.6-2v-2.6Zm8.1.3v5h2.2v1h-2.3v.9h2.3v1.1h-2.7v1h6.3v-1h-2.6v-1.1h2.3v-.9h-2.3v-1h2.1v-5Zm4.3,4.1h-1.2v-1.2H117Zm-2.2,0h-1.2v-1.2h1.2Zm-1.2-2v-1.2h1.2v1.2Zm2.2-1.2H117v1.2h-1.2Zm-6.7,2.6h1V133h-1.2V132h3.4v.9h-1.2v2.2h1.1v1h-1.1v2.1l1-.4v1l-3.1,1-.2-1,1.3-.3v-2.4h-1Z" style="fill:#fff"/><path d="M205.6,273.7a20.9,20.9,0,0,1,4,2.1l.5-.9a24.4,24.4,0,0,0-4-2v-.3H210v-.9h-3.3a7.6,7.6,0,0,0,.4-2.1v-1.3h-1v1.3a6.6,6.6,0,0,1-.4,2.1h-4.6v.9h4.1l-.2.2a8.1,8.1,0,0,1-4,2l.5.8A8.4,8.4,0,0,0,205.6,273.7Zm-3-3.9-.5.7a8.5,8.5,0,0,1,2,1.1l.5-.8Zm1-1.5-.5.7a8.8,8.8,0,0,1,2,1.1l.5-.8A9.6,9.6,0,0,0,203.6,268.4Zm6.3-1.3h-3.8l-.3-1-1,.2.4.8h-3.9v2.1h1V268H209v1.2h1Zm4.8-.2h-3.2V275h1v-.9h1.3v.6h1Zm-2.2,6.3v-2.3h1.3v2.3Zm0-3.2v-2.2h1.3v2.2Zm3.8.1-.8.5a25.3,25.3,0,0,1,1.5,2.6l.8-.6A20,20,0,0,0,216.3,270Zm2.3,5.7a.9.9,0,0,0,1.1-1.1v-5.7h1.2v-1h-1.2v-1.8h-1V268h-3.5v1h3.5v5.4q0,.4-.4.4h-1.7l.2,1Zm8.3-7.8-.8.4.6,1.1h-1.5v1H231v-1h-1.5l.6-1.3-.6-.2h1.4V267h-2.3l-.3-.9-1,.2.3.8h-2.2v.9h3.7l-.7,1.5h-.9Zm-3.9,7.8a.9.9,0,0,0,1-1v-2.9l.8-.4v-1l-.8.4V269h.8v-1H224v-1.9h-1v1.9h-1.2v1H223v2.1l-1.4.4.3,1,1.1-.4v2.3a.3.3,0,0,1-.4.4h-.8l.2,1Zm4.1-5.2-.3.8H225v1h1.2l-.7,1.1,1.9.8a9.5,9.5,0,0,1-2.6.7l.4.9a9.1,9.1,0,0,0,3.2-1.2l2.1,1.1.5-.8-1.9-1a4.1,4.1,0,0,0,.9-1.8h1.1v-1h-3.5l.3-.7Zm2.1,1.8a3.2,3.2,0,0,1-.8,1.4l-1.6-.6.5-.8Zm7.1-3.6a5.7,5.7,0,0,0-1.7-2l.8-.5a7.6,7.6,0,0,1,2.3,3.5,10.7,10.7,0,0,0,3.9,5.2l-.6.8q-2.5-1.5-4.1-5.7v-.2a10,10,0,0,1-4.2,5.9l-.6-.8A10.1,10.1,0,0,0,236.3,268.7Z" style="fill:#fff"/><path d="M356.5,193.1l-2.9,7.5h1.2l.7-1.9h3.2l.7,1.9h1.2l-2.9-7.5Zm-.6,4.6,1.2-3.4h0l1.2,3.4Zm5.5-4.6h1.1v7.5h-1.1Z" style="fill:#fff"/><path d="M270.8,208.5l4-3.8,3.8,3.8h4.6a3.3,3.3,0,0,1,3.3,3.3v9a3.3,3.3,0,0,1-3.3,3.3H255.8a3.3,3.3,0,0,1-3.3-3.3v-9a3.3,3.3,0,0,1,3.3-3.3Z" style="fill:#f0f1f7;stroke:#555a6f;stroke-width:1.0779999494552612px"/><path d="M526.8,193.9l4-3.8,3.8,3.8h4.6a3.3,3.3,0,0,1,3.3,3.3v9a3.3,3.3,0,0,1-3.3,3.3H507.6a3.3,3.3,0,0,1-3.3-3.3v-9a3.3,3.3,0,0,1,3.3-3.3Z" style="fill:#f0f1f7;stroke:#555a6f;stroke-width:1.0779999494552612px"/><path d="M567.5,99.9l4-3.8,3.8,3.8h4.6a3.3,3.3,0,0,1,3.3,3.3v9a3.3,3.3,0,0,1-3.3,3.3H542.1a3.3,3.3,0,0,1-3.3-3.3v-9a3.3,3.3,0,0,1,3.3-3.3Z" style="fill:#f0f1f7;stroke:#555a6f;stroke-width:1.0779999494552612px"/><path d="M384.7,273.3l4-3.8,3.8,3.8h4.6a3.3,3.3,0,0,1,3.3,3.3v9a3.3,3.3,0,0,1-3.3,3.3H350.9a3.3,3.3,0,0,1-3.3-3.3v-9a3.3,3.3,0,0,1,3.3-3.3Z" style="fill:#f0f1f7;stroke:#555a6f;stroke-width:1.0779999494552612px"/><path d="M451.5,311.9l4-3.8,3.8,3.8H464a3.3,3.3,0,0,1,3.3,3.3v9a3.3,3.3,0,0,1-3.3,3.3H417.8a3.3,3.3,0,0,1-3.3-3.3v-9a3.3,3.3,0,0,1,3.3-3.3Z" style="fill:#f0f1f7;stroke:#555a6f;stroke-width:1.0779999494552612px"/><path d="M518.4,350.6l4-3.8,3.8,3.8h4.6a3.3,3.3,0,0,1,3.3,3.3v9a3.3,3.3,0,0,1-3.3,3.3H484.6a3.3,3.3,0,0,1-3.3-3.3v-9a3.3,3.3,0,0,1,3.3-3.3Z" style="fill:#f0f1f7;stroke:#555a6f;stroke-width:1.0779999494552612px"/><path d="M586.3,390.3l4-3.8,3.8,3.8h4.6a3.3,3.3,0,0,1,3.3,3.3v9a3.3,3.3,0,0,1-3.3,3.3H535.8a3.3,3.3,0,0,1-3.3-3.3v-9a3.3,3.3,0,0,1,3.3-3.3Z" style="fill:#f0f1f7;stroke:#555a6f;stroke-width:1.0779999494552612px"/><path d="M63,356.8l4-3.8,3.8,3.8h4.6a3.3,3.3,0,0,1,3.3,3.3v9a3.3,3.3,0,0,1-3.3,3.3H8.3A3.3,3.3,0,0,1,5,369.1v-9a3.3,3.3,0,0,1,3.3-3.3Z" style="fill:#f0f1f7;stroke:#555a6f;stroke-width:1.0779999494552612px"/><path d="M153.8,403.8l4-3.8,3.8,3.8h4.6a3.3,3.3,0,0,1,3.3,3.3v9a3.3,3.3,0,0,1-3.3,3.3H103.3a3.3,3.3,0,0,1-3.3-3.3v-9a3.3,3.3,0,0,1,3.3-3.3Z" style="fill:#f0f1f7;stroke:#555a6f;stroke-width:1.0779999494552612px"/><path d="M236.4,452.9l4-3.8,3.8,3.8h4.6a3.3,3.3,0,0,1,3.3,3.3v9a3.3,3.3,0,0,1-3.3,3.3H188a3.3,3.3,0,0,1-3.3-3.3v-9a3.3,3.3,0,0,1,3.3-3.3Z" style="fill:#f0f1f7;stroke:#555a6f;stroke-width:1.0779999494552612px"/><path d="M668.8,156.3l4-3.8,3.8,3.8h4.6a3.3,3.3,0,0,1,3.3,3.3v9a3.3,3.3,0,0,1-3.3,3.3H635a3.3,3.3,0,0,1-3.3-3.3v-9a3.3,3.3,0,0,1,3.3-3.3Z" style="fill:#f0f1f7;stroke:#555a6f;stroke-width:1.0779999494552612px"/><path d="M245.8,347.4l4-3.8,3.8,3.8h4.6a3.3,3.3,0,0,1,3.3,3.3v9a3.3,3.3,0,0,1-3.3,3.3H230.8a3.3,3.3,0,0,1-3.3-3.3v-9a3.3,3.3,0,0,1,3.3-3.3Z" style="fill:#f0f1f7;stroke:#555a6f;stroke-width:1.0779999494552612px"/><path d="M206.1,170.9l4-3.8,3.8,3.8h4.6a3.3,3.3,0,0,1,3.3,3.3v9a3.3,3.3,0,0,1-3.3,3.3H195.3a3.3,3.3,0,0,1-3.3-3.3v-9a3.3,3.3,0,0,1,3.3-3.3Z" style="fill:#f0f1f7;stroke:#555a6f;stroke-width:1.0779999494552612px"/><path d="M263.6,219.4v-5.9h2a2.5,2.5,0,0,1,1.8.7,2.5,2.5,0,0,1,.7,1.8v.9a2.4,2.4,0,0,1-.7,1.8,2.5,2.5,0,0,1-1.8.7Zm1-5.1v4.4h1a1.4,1.4,0,0,0,1.1-.5,1.8,1.8,0,0,0,.4-1.2v-.9a1.8,1.8,0,0,0-.4-1.2,1.4,1.4,0,0,0-1.1-.5Zm5.6,4.4h2.8v.8h-3.8v-5.9h1Zm4.7.8h-1v-5.9h1Z"/><path d="M514.1,204.7v-5.9h2a2.5,2.5,0,0,1,1.8.7,2.5,2.5,0,0,1,.7,1.8v.9a2.4,2.4,0,0,1-.7,1.8,2.5,2.5,0,0,1-1.8.7Zm1-5.1v4.4h1a1.4,1.4,0,0,0,1.1-.5,1.8,1.8,0,0,0,.4-1.2v-.9a1.8,1.8,0,0,0-.4-1.2,1.4,1.4,0,0,0-1.1-.5Zm9.2,3.5h0l.9-4.3h1l-1.4,5.9h-.9l-1.2-4.2h0l-1.2,4.2h-.9l-1.4-5.9h1l.9,4.3h0l1.1-4.3h.9Zm5.8.1a.8.8,0,0,0-.3-.6l-.7-.4h-.2a4,4,0,0,1-1.5-.7,1.4,1.4,0,0,1-.5-1.1,1.5,1.5,0,0,1,.6-1.2,2.3,2.3,0,0,1,1.5-.5,2.2,2.2,0,0,1,1.5.5,1.6,1.6,0,0,1,.6,1.3h-1a.9.9,0,0,0-.3-.7,1.2,1.2,0,0,0-.8-.3,1.1,1.1,0,0,0-.8.2.8.8,0,0,0-.3.6.7.7,0,0,0,.3.6l.8.4h.2a3.5,3.5,0,0,1,1.4.7,1.5,1.5,0,0,1,.5,1.2,1.4,1.4,0,0,1-.6,1.2,2.4,2.4,0,0,1-1.5.4,2.6,2.6,0,0,1-1.6-.5,1.5,1.5,0,0,1-.7-1.4h1a.9.9,0,0,0,.4.8,1.5,1.5,0,0,0,.9.3l.8-.2A.7.7,0,0,0,530.1,203.2Z"/><path d="M552,109.9a16.8,16.8,0,0,1,3.2,1.7l.4-.7a19.5,19.5,0,0,0-3.2-1.6v-.2h2.9v-.8h-2.6a6.1,6.1,0,0,0,.3-1.7v-1h-.8v1a5.3,5.3,0,0,1-.4,1.7h-3.7v.8h3.2v.2a6.5,6.5,0,0,1-3.2,1.6l.4.7A6.7,6.7,0,0,0,552,109.9Zm-2.4-3.1-.4.6a6.8,6.8,0,0,1,1.6.9l.4-.6Zm.8-1.2-.4.6,1.6.9.4-.6Zm5-1h-3.1l-.3-.8h-.8l.3.7h-3.1v1.7h.8v-1h5.4v1h.8Zm3.8-.2h-2.5v6.5h.8v-.7h1v.5h.8Zm-1.8,5v-1.8h1v1.8Zm0-2.6v-1.7h1v1.7Zm3,.1-.7.4,1.2,2.1.7-.5A16,16,0,0,0,560.5,107Zm1.8,4.5a.8.8,0,0,0,.8-.9v-4.5h.9v-.8h-.9v-1.4h-.8v1.4h-2.8v.8h2.8v4.3q0,.3-.3.3h-1.4l.2.8Zm2.8-.8v-5.9H567a2.6,2.6,0,0,1,1.5.4,1.4,1.4,0,0,1,.6,1.2,1.2,1.2,0,0,1-.2.7l-.6.5a1.3,1.3,0,0,1,.9.5,1.5,1.5,0,0,1,.3.9,1.5,1.5,0,0,1-.5,1.3,2.4,2.4,0,0,1-1.5.4Zm1-2.7v1.9h1.3a1.2,1.2,0,0,0,.8-.2.8.8,0,0,0,.3-.7.9.9,0,0,0-.3-.7,1.1,1.1,0,0,0-.8-.3Zm0-.7h1.1l.7-.2a.8.8,0,0,0,.3-.6.8.8,0,0,0-.3-.7l-.8-.2h-1Zm5.4,3.4h-1v-5.9h1Z"/><path d="M356.5,278.6v.8h1.3a7.5,7.5,0,0,0,1.9,3.2,8.2,8.2,0,0,1-3.4,1.7l.4.7a8.9,8.9,0,0,0,3.5-1.9,11.1,11.1,0,0,0,3.4,1.9l.4-.7a11.1,11.1,0,0,1-3.2-1.8,8.4,8.4,0,0,0,1.8-3.2h1.3v-.8h-3.2a8.2,8.2,0,0,0-.8-1.4l-.8.3.8,1.1Zm2,.8h3.2a7.2,7.2,0,0,1-1.5,2.7A6.7,6.7,0,0,1,358.5,279.4Zm13.6-1.3H369l-.3-.9-.9.2.4.7h-3.2v2h.8v-1.2h5.6V280h.8Zm-5.9,1.5v.7h3.4l-.3.2-1.1.6v.7h-3.4v.8h3.4v1.3c0,.2-.1.4-.3.4h-1l.2.7h1c.6,0,.8-.3.8-.8v-1.6h3.2v-.8H369v-.4l1.8-1.1v-.7Zm10-1.9v4.1h4v-4.1Zm3.2,3.3H377v-2.6h2.4Zm-5.3-3.7-.6.5,1.4,1.2.5-.6Zm-1.1,2.4v.8h1.2v3.1a.5.5,0,0,1-.2.4l.3.7,1.6-1.3-.2-.8-.7.7v-3.5Zm4.1,2.4a9.2,9.2,0,0,1-1.4,2.3l.7.5a10.8,10.8,0,0,0,1.4-2.5Zm2.2,0-.6.4a18.8,18.8,0,0,1,1.4,2.4l.7-.5A18.3,18.3,0,0,0,379.3,282.1Zm3.8-1.8q0,.5-.1.9h-1.5v.7h1.4a4.1,4.1,0,0,1-.3.8,3.7,3.7,0,0,1-1.3,1.6l.5.6a4.4,4.4,0,0,0,1.5-1.9,5.1,5.1,0,0,0,.3-1.2h1.1v.9a6.5,6.5,0,0,1-.1.7h0a.6.6,0,0,1-.6.6h-.6l.2.7h.6q1,0,1.2-.8h0a17.1,17.1,0,0,0,.1-2.8h-1.8v-.9h1.6v-2.8h-3.7v2.8Zm3.2-2.4v5.2h.8V278Zm1.6,6.9c.6,0,.9-.3.9-.9v-6.7H388v6.5c0,.3-.1.4-.4.4h-1.1l.2.8Zm-3.2-5.3h-2.1v-1.4h2.1Z"/><path d="M427.4,315.9h-.8v1.3h0a6.6,6.6,0,0,1-3.5,5.6l.5.7a8,8,0,0,0,3.5-4.3,8.4,8.4,0,0,0,3.4,4.3l.5-.7a7.6,7.6,0,0,1-3.6-5.1C427.4,317.3,427.4,316.7,427.4,315.9Zm5.3,3h.8v1.2h-.8Zm.8-.7h-.8v-1.3h.8Zm-.8,2.7h.8v1.7c0,.2-.1.4-.3.4h-.5l.2.7h.5c.6,0,.8-.3.8-.8v-4.1l.4.6.9-.7v.4H438v-.4l.9.7.4-.7a6.5,6.5,0,0,1-2.3-2.7h-.7a6.9,6.9,0,0,1-2.2,2.7v-2.4h-2.3v4.1a8.4,8.4,0,0,1-.4,2.8l.6.5A7.9,7.9,0,0,0,432.6,320.9Zm5.1-2.6h-2.1a7.7,7.7,0,0,0,1-1.6A6.3,6.3,0,0,0,437.7,318.3Zm-3.4,4.3v.8h4.7v-.8h-1.2a19.6,19.6,0,0,0,.9-3l-.8-.2a20.2,20.2,0,0,1-.9,3.2Zm.9-3-.7.2a18.6,18.6,0,0,1,.7,2.4l.7-.2A20.4,20.4,0,0,0,435.3,319.7Zm1.3-.3-.7.2a20.4,20.4,0,0,1,.6,2.3l.7-.2A20.1,20.1,0,0,0,436.6,319.4Zm6.5-3v4.1h4v-4.1Zm3.2,3.3h-2.4v-2.6h2.4ZM441,316l-.6.5,1.4,1.2.5-.6Zm-1.1,2.4v.8H441v3.1a.5.5,0,0,1-.2.4l.3.7,1.6-1.3-.2-.8-.7.7v-3.5Zm4.1,2.4a9.2,9.2,0,0,1-1.4,2.3l.7.5a10.8,10.8,0,0,0,1.4-2.5Zm2.2,0-.6.4a18.8,18.8,0,0,1,1.4,2.4l.7-.5A18.3,18.3,0,0,0,446.2,320.8Zm3.8-1.8q0,.5-.1.9h-1.5v.7h1.4a4.1,4.1,0,0,1-.3.8,3.7,3.7,0,0,1-1.3,1.6l.5.6a4.4,4.4,0,0,0,1.5-1.9,5.1,5.1,0,0,0,.3-1.2h1.1v.9a6.5,6.5,0,0,1-.1.7h0a.6.6,0,0,1-.6.6h-.6l.2.7h.6q1,0,1.2-.8h0a17.1,17.1,0,0,0,.1-2.8h-1.8V319h1.6v-2.8h-3.7V319Zm3.2-2.4v5.2h.8v-5.2Zm1.6,6.9c.6,0,.9-.3.9-.9v-6.7h-.8v6.5c0,.3-.1.4-.4.4h-1.1l.2.8Zm-3.2-5.3h-2.1v-1.4h2.1Z"/><path d="M493,355.7a3.3,3.3,0,0,1-1.5,1.5l.4.6.8-.6.7.6-2,.5.3.6a10.4,10.4,0,0,0,2.3-.8l2,.8.4-.6-1.8-.6a3.1,3.1,0,0,0,1-1.1v-.5h-2.1l.2-.4Zm1.1,1.8-.9-.7h1.8Zm-1.6,2.2-.3.6,3.2.9.3-.6Zm.9-1.1-.4.5,1.8.8.4-.6Zm4.1-3.7h-7v7.4h.8V362h5.4v.3h.8Zm-6.2,6.4v-5.7h5.4v5.7Zm9.7-4.6v1.4h1.3a3.8,3.8,0,0,1-1.7.7l.3.7a4.3,4.3,0,0,0,1.9-.9l.2.3a7,7,0,0,1-2.5,1.2l.4.7a7.1,7.1,0,0,0,2.4-1.3v.4a8.1,8.1,0,0,1-2.9,1.5l.4.7a8.4,8.4,0,0,0,2.7-1.5h0a1.3,1.3,0,0,1-.1.7l-.4.2h-.6l.2.7h.5a1.4,1.4,0,0,0,.9-.4,1.9,1.9,0,0,0,.3-1.2,4.6,4.6,0,0,0-.1-.9h.2a6.5,6.5,0,0,0,1.2,2.2l.5-.7a4.5,4.5,0,0,1-1.1-1.9l.8-.5-.5-.6a4.9,4.9,0,0,1-1.3.9,4,4,0,0,0-.7-1h2.4v-2h-1.4l.5-.6v-.5h-2l.3-.4-.8-.2a6.1,6.1,0,0,1-2,1.7l.5.6Zm2.3-.5h-1.6l.6-.5h1.6Zm1.7,1.3h-1.4l.2-.7h1.2Zm-2.2,0h-1v-.7h1.3Zm-3.4.3v4.4h.8v-5.8a10.6,10.6,0,0,0,.6-1.6l-.7-.4a9.6,9.6,0,0,1-1.6,3.4l.3.9ZM510,355v4.1h4V355Zm3.2,3.3h-2.4v-2.6h2.4Zm-5.3-3.7-.6.5,1.4,1.2.5-.6Zm-1.1,2.4v.8h1.2v3.1a.5.5,0,0,1-.2.4l.3.7,1.6-1.3-.2-.8-.7.7v-3.5Zm4.1,2.4a9.2,9.2,0,0,1-1.4,2.3l.7.5a10.8,10.8,0,0,0,1.4-2.5Zm2.2,0-.6.4a18.8,18.8,0,0,1,1.4,2.4l.7-.5A18.3,18.3,0,0,0,513,359.4Zm3.8-1.8q0,.5-.1.9h-1.5v.7h1.4a4.1,4.1,0,0,1-.3.8,3.7,3.7,0,0,1-1.3,1.6l.5.6a4.4,4.4,0,0,0,1.5-1.9,5.1,5.1,0,0,0,.3-1.2h1.1v.9a6.6,6.6,0,0,1-.1.7h0a.6.6,0,0,1-.6.6h-.6l.2.7h.6q1,0,1.2-.8h0a17.1,17.1,0,0,0,.1-2.8h-1.8v-.9h1.6v-2.8h-3.7v2.8Zm3.2-2.4v5.2h.8v-5.2Zm1.6,6.9c.6,0,.9-.3.9-.9v-6.7h-.8v6.5c0,.3-.1.4-.4.4h-1.1l.2.8Zm-3.2-5.3h-2.1v-1.4h2.1Z"/><path d="M547.9,395.2h-3.1a3.8,3.8,0,0,0,.4-.8h-.8a4.1,4.1,0,0,1-.4,1h-1.8V402h.8v-.5h4.1v.5h.8Zm-4.9,5.5v-1.2h4.1v1.2Zm0-1.9v-1.1h4.1v1.1Zm0-1.8V396h4.1V397Zm13.2-2.7-.6.3.8,1.2.6-.4Zm-1.6-.1V396h-1l.2-.6v-.7H552v-.4h-.8a6.1,6.1,0,0,1-1.9,3l.5.6.4-.4,1,.5a5.2,5.2,0,0,1-1.6,1l.4.7a6.2,6.2,0,0,0,3.3-3.6v.6h1a4.2,4.2,0,0,1-.3.9,3.2,3.2,0,0,1-1.6,1.4l.4.6a3.5,3.5,0,0,0,1.8-1.5l.3-.7a4.7,4.7,0,0,0,1.9,2.2l.4-.7a3.7,3.7,0,0,1-1.8-2.2H557V396h-1.7c0-.2,0-.4,0-.6v-1.1Zm-3.9,5.5a8.5,8.5,0,0,1-.8,2l.8.3a10.9,10.9,0,0,0,.7-2.1Zm2.1.1-.7.2c.1.6.2,1.2.2,1.9l.8-.2C553,401.1,552.9,400.5,552.8,399.9Zm1.7-.1-.8.2a14.3,14.3,0,0,1,.5,2l.8-.2A19.3,19.3,0,0,0,554.5,399.8Zm1.6-.2-.7.3a14.6,14.6,0,0,1,1,2l.7-.4Zm-5-3.2,1.1.5-.4.6-1.1-.5Zm1.4-.1-1-.4.2-.5h1.1Zm8.2-1.8v.7h1.5l-.2.7H561v.7h1l-.2.9h-1.2v.7h5.1v-.7h-.7V396h-2l.2-.7h2.3v-.7Zm1.8,3.1.2-.9h1.3v.9Zm2.5,1.4h-4v3h.8v-.4h2.4v.4h.8Zm-3.2,1.9v-1.2h2.4v1.2Zm-2.9-6.6-.6.5,1.4,1.2.5-.6Zm-1.1,2.4v.8h1.2v3.1a.6.6,0,0,1-.2.4l.3.7,1.6-1.3-.2-.8-.7.7v-3.5Zm8.4-1.5v.7h7.5v-.7h-3.3l-.4-1-.8.2.4.8Zm1.1,1.3v.7h5.4v-.7Zm0,1.3v.7h5.4v-.7Zm5.6,1.3h-5.8V402h.8v-.3h4.2v.3h.8Zm-5,1.7v-1h4.2v1Zm8.2-6.6a8.3,8.3,0,0,1-1.6,3.9l.5.7.6-.9a9.9,9.9,0,0,0,.7,1.7,5.5,5.5,0,0,1-1.7,1.5l.4.8a6.2,6.2,0,0,0,1.8-1.5l.5.5a6.3,6.3,0,0,0,3.8.9h.9l.2-.8h-1.5a5.3,5.3,0,0,1-3-.7l-.5-.6a8.9,8.9,0,0,0,1.2-3.6v-.7h-1.8l.2-1.1Zm0,2.8.3-.8h1.3a8.5,8.5,0,0,1-.9,2.7A12.2,12.2,0,0,1,576.3,397Zm3.3-2.7v6.2h.8v-3.2l1.6,1.5.5-.7-2.1-1.6v-2.1Zm6.5.2v4h1.7v.8h-1.8v.7h1.8v.9h-2.2v.8h5.1V401h-2.1v-.9h1.8v-.7h-1.8v-.8h1.7v-4Zm3.5,3.3h-1v-1h1Zm-1.7,0h-1v-1h1Zm-1-1.6v-1h1v1Zm1.8-1h1v1h-1Zm-5.4,2h.8v-1.8h-1v-.8h2.7v.8h-.9v1.8h.8v.8h-.8v1.7l.8-.3v.8l-2.5.8-.2-.8,1-.2v-1.9h-.8Z"/><path d="M16.2,360.9v6.6H13.8v.8h7.5v-.8H18.8v-6.6H18v6.6H17v-6.6Zm4.2,1.6a18.2,18.2,0,0,1-1.2,3.7l.7.3a18.3,18.3,0,0,0,1.2-3.8Zm-5.7,0-.7.2a30.7,30.7,0,0,1,1.1,3.8l.7-.2A29.9,29.9,0,0,0,14.7,362.4Zm9.8-1.6a4.4,4.4,0,0,1-2,2.1l.5.6.9-.7,1.1.8a13.3,13.3,0,0,1-3,.7l.4.7a13.4,13.4,0,0,0,3.5-1,11.1,11.1,0,0,0,3.5,1l.4-.7a11.5,11.5,0,0,1-3-.7,7.3,7.3,0,0,0,1.8-1.5v-.6H25l.3-.6Zm1.4,2.4-1.4-.9h3Zm-.6,1.3a4.6,4.6,0,0,1-.1.9H22.6v.7H25l-.2.3a5.1,5.1,0,0,1-2.7,1.5l.5.6a4.9,4.9,0,0,0,2.9-1.9l.3-.6h2.3a3.6,3.6,0,0,1-.2,1.4c-.1.2-.4.3-.8.3H26l.2.7h1a1.5,1.5,0,0,0,1.2-.4,5.6,5.6,0,0,0,.4-2.6H26a5.5,5.5,0,0,0,.1-.9Zm6.7-.7h1.9v1.3H32Zm0,2h2v2.4h.8v-2.4h2.1v1.2c0,.3-.1.5-.4.5h-.9l.2.8h1a.8.8,0,0,0,1-.9v-6.3H31.2v4.1a4.8,4.8,0,0,1-.8,2.7l.6.5A5,5,0,0,0,31.9,365.9Zm4.8-.7H34.7v-1.3h2.1Zm0-2H34.7v-1.3h2.1Zm-2.9-1.3v1.3H32v-1.3Zm11.1.7V364H40.4v-1.4Zm-4.6,2.2h5.4v-3H43.1l-.4-1h-.9l.5.9H39.6v2.7a6.1,6.1,0,0,1-1,3.5l.6.5A7.1,7.1,0,0,0,40.4,364.8Zm9.5-3.9L47,368.5h.8l2.9-7.7Zm2.8,6.6v.8h5.9v-.8H57.1a25.4,25.4,0,0,0,1.2-4.1l-.8-.2a24.7,24.7,0,0,1-1.3,4.3Zm1-3.9-.7.2a24.3,24.3,0,0,1,.8,3l.8-.2A24.1,24.1,0,0,0,53.8,363.6Zm1.6-.6-.7.2a30.1,30.1,0,0,1,.7,3.1l.8-.2A29.6,29.6,0,0,0,55.4,363Zm0-2.2-.9.2.4.7H52v2.5a9.4,9.4,0,0,1-.7,3.9l.7.6a11,11,0,0,0,.8-4.4v-1.8h6.1v-.8h-3Zm5.7,3.1h1.9v1.3H61.2Zm0,2h2v2.4h.8v-2.4H66v1.2c0,.3-.1.5-.4.5h-.9l.2.8h1a.8.8,0,0,0,1-.9v-6.3H60.4v4.1a4.8,4.8,0,0,1-.8,2.7l.6.5A5,5,0,0,0,61.2,365.9Zm4.8-.7H63.9v-1.3H66Zm0-2H63.9v-1.3H66Zm-2.9-1.3v1.3H61.2v-1.3Z"/><path d="M109.7,409.3v1.7h2.5v.4h-2.7v.6h2.7v.5h-3.4v.6h3.4v.5h-2.7v.6h2.7v.2c0,.2-.1.3-.3.3H111l.2.8h1q.8,0,.8-.8v-.4h2.6v-1.1h.8v-.6h-.8v-1.1H113v-.4h2.5v-1.7H113v-.4h3.2v-.7H113v-.4h-.8v.4H109v.7h3.2v.4Zm4.9,1.1H113v-.5h1.7Zm-2.5,0h-1.7v-.5h1.7Zm.8,1.6h1.8v.5H113Zm1.8,1.1v.5H113v-.5Zm4.1-5.4a9.4,9.4,0,0,1-1.9,3.4l.3.8.7-.9v4.4h.8V410a9.6,9.6,0,0,0,.8-1.9Zm1.4.6a6.9,6.9,0,0,1-1,2.7l.5.7a7.1,7.1,0,0,0,.8-1.4h1.3v1.8h-2.4v.8h2.4v2.6h.8v-2.6h2.2v-.8h-2.2v-1.8h1.8v-.8h-1.8v-1.7h-.8v1.7h-1l.2-1.1Zm12.6,0h-3.3v7h.8v-.7h1.8v.6h.8Zm-2.6,5.5v-4.8h1.8v4.8Zm-4.5-3.8v.7h1.4a6.3,6.3,0,0,1-1.6,2.3l.3.9a8.3,8.3,0,0,0,1.3-1.9v3.4h.8v-3.6l1,1.3.5-.7-1.4-1.4v-.3h1.4v-.7h-1.4v-1.1l1.3-.4-.4-.7a11.5,11.5,0,0,1-3.1.6l.3.7h1.2v1Zm11.4-2.2v2.4h-2.3v2.8h5.7v-2.8h-2.7v-.9h3.2v-.7h-3.2v-.7Zm2.6,4.5h-4.1V411h4.1Zm-4.9,1a7.4,7.4,0,0,1-1.1,1.7l.7.5a8.2,8.2,0,0,0,1.1-1.9Zm2,.3-.7.2a12,12,0,0,1,.4,1.8l.8-.2C137.2,414.8,137,414.2,136.8,413.6Zm1.7-.1-.7.2a10.7,10.7,0,0,1,.6,1.9l.8-.2A14.8,14.8,0,0,0,138.6,413.5Zm1.7-.2-.6.4a14.2,14.2,0,0,1,1.2,1.8l.7-.5Zm2.7-4.3v.8h2.7V411h-3.3v.8h3.3v2.7h-1.8v-2.1h-.8v3.2h.8v-.3h4.4v.3h.8v-3.2h-.8v2.1h-1.8v-2.7h3.3V411h-3.3v-1.2h2.6V409h-2.6v-1.1h-.8V409Zm10.1,2.4,4-.3.4.6.7-.5a13.3,13.3,0,0,0-1.3-1.8l-.6.4.5.6-2.5.2.9-1.4h3v-.7h-2.1l-.3-.9h-.8l.3.8h-2.2v.7h1.3a4.3,4.3,0,0,1-1.1,1.4h-.2Zm-1.7-3.5-.6.6,1.3,1.1.6-.6Zm-.2,2-.6.6,1.3,1.2.6-.6Zm.7,2.3a28.4,28.4,0,0,1-1.1,2.9l.7.3a29.4,29.4,0,0,0,1.1-3Zm2.8-.4v3.7h.8v-3.7Zm-1.4,0a7.5,7.5,0,0,1-.3,2.1,2.6,2.6,0,0,1-.8,1.1l.5.6a3.4,3.4,0,0,0,1-1.4,8.6,8.6,0,0,0,.3-2.4Zm4.1,3.7H157c-.6,0-.8-.3-.8-.7v-3h.8v3h.3c.1,0,.2-.1.2-.3v-.3c0-.2,0-.4,0-.7l.7.3a3.6,3.6,0,0,1-.2,1.4A.9.9,0,0,1,157.4,415.5Z"/><path d="M195.2,460.2v4.4h.8v-5.6a9.7,9.7,0,0,0,.8-1.8l-.8-.4a9.1,9.1,0,0,1-1.9,3.3l.3.8Zm1.6-2.3v.8h1.4l-.2.8h-1.6v.8h1.3l-.6,1.6h3.5a6.9,6.9,0,0,1-1.4,1.2l-1.5-.6-.4.6a14.7,14.7,0,0,1,3.1,1.6l.5-.7-1-.6a6.4,6.4,0,0,0,1.5-1.6v-.7h-3.3l.3-.9H202v-.8h-3.2l.2-.8h2.6v-.8h-2.4V457h-.8l-.2,1Zm7.5.9v.6h2.8v-.6Zm.2,1.1v1.8H207v-1.8Zm1.7,1.2h-1v-.6h1Zm3.7-3.5h-.5l-.2-.7h-.7l.2.6h-.7c0-.2,0-.5,0-.7h-.8c0,.2,0,.5,0,.7h-4v1.7a3.4,3.4,0,0,1-.7,2.2l.6.5a4.4,4.4,0,0,0,.9-2.7v-1h3.3a8.1,8.1,0,0,0,.3,1.7l.3.9-.8.7.4.6.8-.7h.1a1.3,1.3,0,0,0,1,.5c.4,0,.7-.4,1-1.3l-.6-.4c-.2.6-.3,1-.4,1s-.3-.2-.5-.4a7.9,7.9,0,0,0,.9-2l-.6-.3a7.4,7.4,0,0,1-.6,1.5v-.6a7.1,7.1,0,0,1-.2-1.3H210Zm-6.4,4.5a5.7,5.7,0,0,1-.9,1.8l.7.4a7.2,7.2,0,0,0,.9-2.1Zm4.1,2.4.7-.2a2.2,2.2,0,0,0,.3-1.2l-.8-.2a1.9,1.9,0,0,1-.1.8h-2c-.2,0-.3-.1-.3-.3v-1.4h-.8v1.5c0,.6.3.9.8.9Zm1.6-2.2-.6.4,1.1,1.5.6-.4Zm-2.7-.4-.6.4.9,1.1.6-.4Zm5.2-4.7v2.2h2.7v-2.2Zm2,1.5h-1.2v-.8h1.2Zm1.5-1.5v2.2h1.7l-.6.2.3.5h-1.9l.3-.5h-.8l-.3.6h-2.8v.7h2.1a6.9,6.9,0,0,1-2.2,1l.4.6.6-.2v2.4h.7v-.3h1.2v.3h.7v-2.7h-1.8a5.4,5.4,0,0,0,1.6-1.2h1.4a5,5,0,0,0,1.6,1.2h-2v2.7h.7v-.3h1.4v.3h.7v-2.4l.5.2h0l.3-.7a6.1,6.1,0,0,1-2.2-1h2.1v-.7h-1.1l-.4-.7h1v-2.2Zm2,1.5h-1.3v-.8h1.3Zm-4.7,4.9v-1.1h1.2v1.1Zm3.3,0v-1.1h1.4v1.1Zm10.8-6.2h-3.3v7h.8v-.7h1.8v.6h.8Zm-2.6,5.5v-4.8h1.8v4.8Zm-4.5-3.8v.7H221a6.3,6.3,0,0,1-1.6,2.3l.3.9a8.3,8.3,0,0,0,1.3-1.9v3.4h.8V461l1,1.3.5-.7-1.4-1.4v-.3h1.4v-.7h-1.4V458l1.3-.4-.4-.7a11.5,11.5,0,0,1-3.1.6l.3.7H221v1Zm8.4-1.3v6h.9v-6Zm4.7-.1a2.7,2.7,0,0,0-2.1.9,3.7,3.7,0,0,0,0,4.4,3.1,3.1,0,0,0,4.3,0,3.6,3.6,0,0,0,0-4.4A2.7,2.7,0,0,0,232.7,457.7Zm0,.8a1.8,1.8,0,0,1,1.5.6,2.6,2.6,0,0,1,.5,1.7,2.5,2.5,0,0,1-.5,1.7,2,2,0,0,1-2.9,0,3,3,0,0,1,0-3.3A1.8,1.8,0,0,1,232.7,458.5Zm3.4-.7h4.9v.8h-2v5.2H238v-5.2h-2Z"/><path d="M644.3,166.3a16.8,16.8,0,0,1,3.2,1.7l.4-.7a19.5,19.5,0,0,0-3.2-1.6v-.2h2.9v-.8h-2.6a6.1,6.1,0,0,0,.3-1.7v-1h-.8v1a5.3,5.3,0,0,1-.4,1.7h-3.7v.8H644v.2a6.5,6.5,0,0,1-3.2,1.6l.4.7A6.7,6.7,0,0,0,644.3,166.3Zm-2.4-3.1-.4.6a6.8,6.8,0,0,1,1.6.9l.4-.6Zm.8-1.2-.4.6,1.6.9.4-.6Zm5-1h-3.1l-.3-.8h-.8l.3.7h-3.1v1.7h.8v-1H647v1h.8Zm3.8-.2h-2.5v6.5h.8v-.7h1v.5h.8Zm-1.8,5V164h1v1.8Zm0-2.6v-1.7h1v1.7Zm3,.1-.7.4,1.2,2.1.7-.5A16,16,0,0,0,652.9,163.4Zm1.8,4.5a.8.8,0,0,0,.8-.9v-4.5h.9v-.8h-.9v-1.4h-.8v1.4h-2.8v.8h2.8v4.3q0,.3-.3.3H653l.2.8Zm4.2-4.5v.7h1.2v.7h-1.5a13,13,0,0,0,.1-1.4v-.6h1.4v.7Zm-.4,2.1h1v1.3a.5.5,0,0,1-.4.5l.2.7,2.4-.6-.2-.7-1.3.4v-1.6h1a4.7,4.7,0,0,0,3.2,2.5l.4-.8-1.5-.5.8-.8-.5-.5h.8v-.7h-1.5v-.7h1.3v-.7h-1.3v-.7h1.2v-2.2h-6.4v2.8a9.1,9.1,0,0,1-.8,4.1l.6.6A9.2,9.2,0,0,0,658.5,165.5Zm3.6,0h1.6a3.2,3.2,0,0,1-.9.8Zm.2-2.8v.7h-1.5v-.7Zm-1.5,2.1v-.7h1.5v.7Zm2.6-3.5v.7h-4.8v-.7Zm9.1-.7h-3.9v4.7h.8v-3.9h2.3v3.9h.8Zm-.3,7.3.6-.2a2.5,2.5,0,0,0,.3-1.3l-.7-.2a3,3,0,0,1-.1.9h-.7c-.2,0-.2-.1-.2-.3v-1.6h-.7a7.4,7.4,0,0,0,.2-1.4v-2h-.8v2a4.8,4.8,0,0,1-.5,2.2,3.7,3.7,0,0,1-1.9,1.3l.4.7a3.9,3.9,0,0,0,2-1.5l.4-.8V167c0,.5.3.8.8.8Zm-6.7-4.6h.9v-1.8h-1v-.8h2.8v.8h-1v1.8h.9v.8h-.9v1.7l1-.4v.8l-2.7.9-.2-.8,1.1-.2v-1.9h-.9Z"/><path d="M238,358.3v-5.9h2a2.5,2.5,0,0,1,1.8.7,2.5,2.5,0,0,1,.7,1.8v.9a2.4,2.4,0,0,1-.7,1.8,2.5,2.5,0,0,1-1.8.7Zm1-5.1v4.4h1a1.4,1.4,0,0,0,1.1-.5,1.8,1.8,0,0,0,.4-1.2v-.9a1.8,1.8,0,0,0-.4-1.2,1.4,1.4,0,0,0-1.1-.5Zm5.7,5.1h-1v-5.9h1Zm4.5-1.5a.8.8,0,0,0-.3-.6l-.7-.4h-.2a4,4,0,0,1-1.5-.7,1.4,1.4,0,0,1-.5-1.1,1.5,1.5,0,0,1,.6-1.2,2.3,2.3,0,0,1,1.5-.5,2.2,2.2,0,0,1,1.5.5,1.6,1.6,0,0,1,.6,1.3h-1a.9.9,0,0,0-.3-.7,1.2,1.2,0,0,0-.8-.3,1.1,1.1,0,0,0-.8.2.8.8,0,0,0-.3.6.7.7,0,0,0,.3.6l.8.4h.2a3.5,3.5,0,0,1,1.4.7,1.5,1.5,0,0,1,.5,1.2,1.4,1.4,0,0,1-.6,1.2,2.4,2.4,0,0,1-1.5.4,2.6,2.6,0,0,1-1.6-.5,1.5,1.5,0,0,1-.7-1.4h1a.9.9,0,0,0,.4.8,1.5,1.5,0,0,0,.9.3l.8-.2A.7.7,0,0,0,249.1,356.8Z"/><path d="M205.3,179.8h0a1.8,1.8,0,0,1-.6,1.5,2.3,2.3,0,0,1-1.6.6,2.2,2.2,0,0,1-1.7-.7,2.5,2.5,0,0,1-.6-1.8v-1.1a2.6,2.6,0,0,1,.6-1.8,2.1,2.1,0,0,1,1.7-.7,2.4,2.4,0,0,1,1.7.5,1.8,1.8,0,0,1,.6,1.5h-1a1.2,1.2,0,0,0-.3-.9,1.3,1.3,0,0,0-.9-.3,1.1,1.1,0,0,0-1,.5,2,2,0,0,0-.4,1.2v1.1a2,2,0,0,0,.4,1.2,1.2,1.2,0,0,0,1,.5,1.1,1.1,0,0,0,1.2-1.2Zm4.1.4a.8.8,0,0,0-.3-.6l-.7-.4h-.2a4,4,0,0,1-1.5-.7,1.4,1.4,0,0,1-.5-1.1,1.5,1.5,0,0,1,.6-1.2,2.3,2.3,0,0,1,1.5-.5,2.2,2.2,0,0,1,1.5.5,1.6,1.6,0,0,1,.6,1.3h-1a.9.9,0,0,0-.3-.7,1.2,1.2,0,0,0-.8-.3,1.1,1.1,0,0,0-.8.2.8.8,0,0,0-.3.6.7.7,0,0,0,.3.6l.8.4h.2a3.5,3.5,0,0,1,1.4.7,1.5,1.5,0,0,1,.5,1.2,1.4,1.4,0,0,1-.6,1.2,2.4,2.4,0,0,1-1.5.4,2.6,2.6,0,0,1-1.6-.5,1.5,1.5,0,0,1-.7-1.4h1a.9.9,0,0,0,.4.8,1.5,1.5,0,0,0,.9.3l.8-.2A.7.7,0,0,0,209.4,180.2Z"/></svg>