<?xml version="1.0" encoding="UTF-8"?>
<svg width="60px" height="60px" viewBox="0 0 60 60" version="1.1" xmlns="http://www.w3.org/2000/svg" xmlns:xlink="http://www.w3.org/1999/xlink">
    <title>算法库</title>
    <g id="页面-1" stroke="none" stroke-width="1" fill="none" fill-rule="evenodd">
        <g id="SDSF-产品中心（智能AI边缘盒子）" transform="translate(-990.000000, -2841.000000)" fill-rule="nonzero">
            <g id="产品优势" transform="translate(361.000000, 2741.000000)">
                <g id="编组-6备份-6" transform="translate(610.000000, 100.000000)">
                    <g id="算法库" transform="translate(19.000000, 0.000000)">
                        <rect id="矩形" fill="#000000" opacity="0" x="0" y="0" width="60" height="60"></rect>
                        <polygon id="路径" fill="#FFFFFF" points="29.9707031 31.3945312 18.5214844 24.9375 18.4921875 11.6425781 30.0058594 5.1328125 41.53125 11.6425781 41.53125 24.9375"></polygon>
                        <path d="M29.9707031,32.3320312 C29.8125,32.3320312 29.6542969,32.2910156 29.5078125,32.2089844 L18.0585938,25.7578125 C17.765625,25.59375 17.5839844,25.2832031 17.5839844,24.9433594 L17.5546875,11.6425781 C17.5546875,11.3027344 17.7363281,10.9921875 18.0292969,10.8222656 L29.5429688,4.31835938 C29.8300781,4.15429688 30.1816406,4.15429688 30.4628906,4.31835938 L41.9882812,10.8222656 C42.28125,10.9863281 42.4628906,11.3027344 42.4628906,11.6367188 L42.4628906,24.9375 C42.4628906,25.2773437 42.28125,25.5878906 41.9824219,25.7578125 L30.4277344,32.2089844 C30.2871094,32.2910156 30.1289062,32.3320312 29.9707031,32.3320312 L29.9707031,32.3320312 Z M19.4589844,24.3925781 L29.9765625,30.3164062 L40.5996094,24.3867187 L40.5996094,12.1875 L30.0058594,6.2109375 L19.4296875,12.1875 L19.4589844,24.3925781 Z" id="形状" fill="#3C3C3C"></path>
                        <polygon id="路径" fill="#CF0010" points="30.0410156 28.1953125 38.9765625 23.2675781 38.9765625 13.40625 30.046875 18.3222656"></polygon>
                        <polygon id="路径" fill="#FFFFFF" points="16.1660156 54.8613281 4.71679688 48.4101562 4.6875 35.109375 16.2011719 28.6054688 27.7265625 35.109375 27.7265625 48.4101562"></polygon>
                        <path d="M16.1660156,55.7988281 C16.0078125,55.7988281 15.8496094,55.7578125 15.703125,55.6757812 L4.25390625,49.2304687 C3.9609375,49.0664062 3.77929688,48.7558594 3.77929688,48.4160156 L3.75,35.1152344 C3.75,34.7753906 3.93164062,34.4648438 4.22460938,34.2949219 L15.7382812,27.7910156 C16.0253906,27.6269531 16.3769531,27.6269531 16.6582031,27.7910156 L28.1835938,34.2949219 C28.4765625,34.4589844 28.6582031,34.7753906 28.6582031,35.109375 L28.6582031,48.4101562 C28.6582031,48.75 28.4765625,49.0605469 28.1777344,49.2304687 L16.6230469,55.6816406 C16.4824219,55.7636719 16.3242187,55.7988281 16.1660156,55.7988281 Z M5.65429688,47.8652344 L16.171875,53.7890625 L26.7949219,47.859375 L26.7949219,35.6601563 L16.2070312,29.6835938 L5.625,35.6601563 L5.65429688,47.8652344 L5.65429688,47.8652344 Z" id="形状" fill="#3C3C3C"></path>
                        <polygon id="路径" fill="#CF0010" points="16.2363281 51.6621094 25.171875 46.7402344 25.171875 36.8730469 16.2421875 41.7949219"></polygon>
                        <polygon id="路径" fill="#FFFFFF" points="43.7402344 54.8613281 32.2851562 48.4101562 32.2558594 35.109375 43.7695312 28.6054688 55.2949219 35.109375 55.2949219 48.4101562"></polygon>
                        <path d="M43.7402344,55.7988281 C43.5820312,55.7988281 43.4238281,55.7578125 43.2773438,55.6757812 L31.828125,49.2304687 C31.5351562,49.0664062 31.3535156,48.7558594 31.3535156,48.4160156 L31.3242188,35.1152344 C31.3242188,34.7753906 31.5058594,34.4648438 31.7988281,34.2949219 L43.3125,27.7910156 C43.5996094,27.6269531 43.9511719,27.6269531 44.2324219,27.7910156 L55.7578125,34.2949219 C56.0507813,34.4589844 56.2324219,34.7753906 56.2324219,35.109375 L56.2324219,48.4101562 C56.2324219,48.75 56.0507813,49.0605469 55.7519531,49.2304687 L44.1972656,55.6816406 C44.0507812,55.7636719 43.8925781,55.7988281 43.7402344,55.7988281 Z M33.2226562,47.8652344 L43.7402344,53.7890625 L54.3632812,47.859375 L54.3632812,35.6601563 L43.7753906,29.6835938 L33.1992187,35.6601563 L33.2226562,47.8652344 L33.2226562,47.8652344 Z" id="形状" fill="#3C3C3C"></path>
                        <polygon id="路径" fill="#CF0010" points="43.8046875 51.6621094 52.7402344 46.7402344 52.7402344 36.8730469 43.8105469 41.7949219"></polygon>
                    </g>
                </g>
            </g>
        </g>
    </g>
</svg>