<?xml version="1.0" encoding="UTF-8"?>
<svg width="60px" height="60px" viewBox="0 0 60 60" version="1.1" xmlns="http://www.w3.org/2000/svg" xmlns:xlink="http://www.w3.org/1999/xlink">
    <title>碎片化</title>
    <g id="页面-1" stroke="none" stroke-width="1" fill="none" fill-rule="evenodd">
        <g id="SDSF-产品中心（智能AI边缘盒子）" transform="translate(-990.000000, -3034.000000)" fill-rule="nonzero">
            <g id="产品优势" transform="translate(361.000000, 2741.000000)">
                <g id="编组-6备份-8" transform="translate(611.000000, 293.000000)">
                    <g id="碎片化" transform="translate(18.000000, 0.000000)">
                        <rect id="矩形" fill="#000000" opacity="0" x="0" y="0" width="60" height="60"></rect>
                        <path d="M54,13.9244851 C54,12.5514874 53.2740472,11.2929062 51.8511797,10.1201373 C50.6025408,9.09038902 48.831216,8.17505721 46.6243194,7.402746 C42.1814882,5.85812357 36.2577132,5 30.0145191,5 C23.7713249,5 17.8475499,5.85812357 13.4047187,7.402746 C11.168784,8.17505721 9.42649728,9.09038902 8.17785844,10.1201373 C6.75499093,11.2929062 6.02903811,12.5800915 6.02903811,13.9244851 L6.02903811,27.6830664 C6.14519056,28.4839817 6.55172414,29.2562929 7.19056261,30 C6.40653358,30.9153318 6,31.8592677 6,32.889016 L6,46.6475973 C6.20326679,47.9347826 7.04537205,49.1075515 8.52631579,50.194508 C9.83303085,51.1670481 11.6043557,51.9965675 13.8112523,52.7402746 C18.2250454,54.1990847 23.9745917,55 29.9854809,55 C35.938294,55 41.7168784,54.1132723 46.1887477,52.5114416 C50.8058076,50.8524027 53.5644283,48.6212815 53.9709619,46.2185355 L53.9709619,32.9176201 C53.9709619,31.8306636 53.5063521,30.8009153 52.5771325,29.8283753 C53.3321234,28.9988558 53.7967332,28.1407323 53.9419238,27.2540046 L53.9419238,27.1681922 L54,13.9244851 Z M8.7486911,31.2278481 C8.7486911,31.2563291 8.7486911,31.2563291 8.7486911,31.2278481 C10.0732984,32.1962025 11.8298429,33.0506329 13.9895288,33.7626582 C18.3664921,35.2151899 24.0680628,36.0126582 30.0287958,36.0126582 C35.9319372,36.0126582 41.6623037,35.1297468 46.0968586,33.5348101 C48.1701571,32.7943038 49.8403141,31.9398734 51.1073298,31 C51.7120419,31.6265823 52,32.2816456 52,32.9082278 C52,33.7056962 51.5104712,34.5316456 50.5314136,35.3291139 C49.4659686,36.2120253 47.882199,37.0379747 45.895288,37.721519 C41.6623037,39.2025316 36.0183246,40 30,40 C23.9816754,40 18.3376963,39.1740506 14.104712,37.721519 C12.117801,37.0379747 10.5340314,36.2120253 9.46858639,35.3291139 C8.4895288,34.5316456 8,33.7056962 8,32.9082278 C8.02879581,32.3386076 8.28795812,31.7974684 8.7486911,31.2278481 Z M45.5124509,31.5880342 C41.2450852,33.157265 35.7378768,34 30.0288336,34 C24.2332896,34 18.7260813,33.2153846 14.5163827,31.8205128 C12.5268676,31.1521368 10.9410223,30.3675214 9.78768021,29.5247863 C8.7785059,28.7401709 8.14416776,27.9264957 8,27.1709402 L8,17 C8.11533421,17.0871795 8.20183486,17.2034188 8.31716907,17.2905983 C9.5570118,18.3367521 11.3158585,19.2666667 13.5072084,20.0512821 C17.9187418,21.6205128 23.8007864,22.4923077 30,22.4923077 C36.1992136,22.4923077 42.0812582,21.6205128 46.4927916,20.0512821 C48.7129751,19.2666667 50.4429882,18.3367521 51.6828309,17.2905983 C51.7981651,17.2034188 51.9134993,17.0871795 52,17 L52,26.6769231 C51.740498,28.3623932 49.2896461,30.2222222 45.5124509,31.5880342 L45.5124509,31.5880342 Z M9.46968662,11.6104418 C10.5351041,10.7389558 12.1188328,9.92369478 14.1056923,9.24899598 C18.3385671,7.78714859 23.9824002,7 30.0005691,7 C36.018738,7 41.6625711,7.81526104 45.8954459,9.24899598 C47.8823055,9.92369478 49.4660341,10.7389558 50.5314516,11.6104418 C51.5104839,12.3975904 52,13.2128514 52,14 C52,14.7871486 51.5104839,15.6024096 50.5314516,16.3895582 C49.4660341,17.2610442 47.8823055,18.0763052 45.8954459,18.751004 C41.6625711,20.2128514 36.018738,21 30.0005691,21 C23.9824002,21 18.3385671,20.184739 14.1056923,18.751004 C12.1188328,18.0763052 10.5351041,17.2610442 9.46968662,16.3895582 C8.49065436,15.6024096 8.00113823,14.7871486 8.00113823,14 C7.97234316,13.2128514 8.49065436,12.3975904 9.46968662,11.6104418 Z M45.5124509,50.5839041 C41.2450852,52.1558219 35.7378768,53 30.0288336,53 C24.2332896,53 18.7260813,52.2140411 14.5163827,50.8167808 C12.5268676,50.1472603 10.9410223,49.3613014 9.78768021,48.5171233 C8.7785059,47.7311644 8.14416776,46.9160959 8,46.1592466 L8,36 C8.11533421,36.0873288 8.20183486,36.2037671 8.31716907,36.2910959 C9.5570118,37.3390411 11.3158585,38.2705479 13.5072084,39.0565068 C17.9187418,40.6284247 23.8007864,41.5017123 30,41.5017123 C36.1992136,41.5017123 42.0812582,40.6284247 46.4927916,39.0565068 C48.7129751,38.2705479 50.4429882,37.3390411 51.6828309,36.2910959 C51.7981651,36.2037671 51.9134993,36.0873288 52,36 L52,45.6934932 C51.740498,47.3527397 49.2896461,49.1866438 45.5124509,50.5839041 L45.5124509,50.5839041 Z" id="形状" fill="#3C3C3C"></path>
                        <path d="M44.075,47.7620508 C44.6938021,48.1193164 45.4561979,48.1193164 46.075,47.7620508 C46.6938022,47.4047852 47.075,46.7445312 47.075,46.03 C47.075,45.3154688 46.6938022,44.6552148 46.075,44.2979492 C45.4561979,43.9406836 44.6938021,43.9406836 44.075,44.2979492 C43.4561978,44.6552148 43.075,45.3154688 43.075,46.03 C43.075,46.7445312 43.4561978,47.4047852 44.075,47.7620508 Z" id="路径" fill="#CF0010"></path>
                        <path d="M43.075,26.03 C43.075,26.7445312 43.4561978,27.4047852 44.075,27.7620508 C44.6938021,28.1193164 45.4561979,28.1193164 46.075,27.7620508 C46.6938022,27.4047852 47.075,26.7445312 47.075,26.03 C47.075,25.3154688 46.6938022,24.6552148 46.075,24.2979492 C45.4561979,23.9406836 44.6938021,23.9406836 44.075,24.2979492 C43.4561978,24.6552148 43.075,25.3154688 43.075,26.03 L43.075,26.03 Z" id="路径" fill="#CF0010"></path>
                        <path d="M45.075,14.03 C45.075,11.8146154 38.3740654,10.03 30.075,10.03 C21.7759346,10.03 15.075,11.8146154 15.075,14.03 C15.075,16.2453846 21.7759346,18.03 30.075,18.03 C38.3740654,18.03 45.075,16.2453846 45.075,14.03 L45.075,14.03 Z" id="路径" fill="#CF0010"></path>
                    </g>
                </g>
            </g>
        </g>
    </g>
</svg>