<?xml version="1.0" encoding="UTF-8"?>
<svg width="60px" height="60px" viewBox="0 0 60 60" version="1.1" xmlns="http://www.w3.org/2000/svg" xmlns:xlink="http://www.w3.org/1999/xlink">
    <title>容量储存</title>
    <g id="页面-1" stroke="none" stroke-width="1" fill="none" fill-rule="evenodd">
        <g id="SDSF-产品中心（智能AI边缘盒子）" transform="translate(-990.000000, -3034.000000)" fill-rule="nonzero">
            <g id="产品优势" transform="translate(361.000000, 2741.000000)">
                <g id="编组-6备份-8" transform="translate(611.000000, 293.000000)">
                    <g id="容量储存" transform="translate(18.000000, 0.000000)">
                        <rect id="矩形" fill="#000000" opacity="0" x="0" y="0" width="60" height="60"></rect>
                        <g id="SSD" transform="translate(6.075000, 5.030000)">
                            <rect id="矩形" fill="#000000" opacity="0" x="0" y="0" width="50" height="50"></rect>
                            <polygon id="路径" fill="#CF0010" points="14.5833333 33.3333333 25 33.3333333 25 37.5 14.5833333 37.5"></polygon>
                            <path d="M11.575,7.64583335 C11.8672474,6.80984557 12.6560685,6.25 13.5416667,6.25 L36.4583333,6.25 C37.3439315,6.25 38.1327526,6.80984557 38.425,7.64583335 L45.7166667,28.4791667 C45.9394266,29.1163822 45.8396423,29.8220326 45.4489351,30.3724992 C45.058228,30.9229658 44.4250301,31.25 43.75,31.25 L6.25,31.25 C5.57496995,31.25 4.941772,30.9229658 4.55106486,30.3724992 C4.16035773,29.8220326 4.06057343,29.1163822 4.28333335,28.4791667 L11.575,7.64583335 Z M15.0208333,10.4166667 L9.1875,27.0833333 L40.8145833,27.0833333 L34.98125,10.4166667 L15.0208333,10.4166667 Z" id="形状" fill="#3C3C3C"></path>
                            <path d="M4.16666665,29.1666667 C4.16666665,28.0160734 5.09940678,27.0833333 6.25,27.0833333 L43.75,27.0833333 C44.9005932,27.0833333 45.8333333,28.0160734 45.8333333,29.1666667 L45.8333333,41.6666667 C45.8333333,42.8172599 44.9005932,43.75 43.75,43.75 L6.25,43.75 C5.09940676,43.75 4.16666665,42.8172599 4.16666665,41.6666667 L4.16666665,29.1666667 Z M8.33333335,31.25 L8.33333335,39.5833333 L41.6666667,39.5833333 L41.6666667,31.25 L8.33333335,31.25 Z" id="形状" fill="#3C3C3C"></path>
                            <path d="M35.4166667,35.4166667 C35.4167806,36.1610459 35.0197244,36.8489295 34.3750921,37.221152 C33.7304597,37.5933746 32.936207,37.5933746 32.2915746,37.221152 C31.6469422,36.8489295 31.249886,36.1610459 31.25,35.4166667 C31.2501761,34.266198 32.1828646,33.3336522 33.3333333,33.3336522 C34.483802,33.3336522 35.4164905,34.266198 35.4166667,35.4166667 Z" id="路径" fill="#3C3C3C"></path>
                        </g>
                    </g>
                </g>
            </g>
        </g>
    </g>
</svg>