<?xml version="1.0" encoding="UTF-8"?>
<svg width="60px" height="60px" viewBox="0 0 60 60" version="1.1" xmlns="http://www.w3.org/2000/svg" xmlns:xlink="http://www.w3.org/1999/xlink">
    <title>高效灵活</title>
    <g id="页面-1" stroke="none" stroke-width="1" fill="none" fill-rule="evenodd">
        <g id="SDSF-产品中心（区块链服务）" transform="translate(-526.000000, -2144.000000)" fill-rule="nonzero">
            <g id="产品优势" transform="translate(361.000000, 1752.000000)">
                <g id="编组-6备份-8" transform="translate(3.000000, 375.000000)">
                    <g id="高效灵活" transform="translate(162.000000, 17.000000)">
                        <rect id="矩形" fill="#000000" opacity="0" x="0" y="0" width="60" height="60"></rect>
                        <path d="M30,2.30769229 C14.7069231,2.30769229 2.30769229,14.7069231 2.30769229,30 C2.30769229,45.2930769 14.706923,57.6923077 30,57.6923077 C45.293077,57.6923077 57.6923077,45.293077 57.6923077,30 C57.6923077,14.706923 45.2930769,2.30769229 30,2.30769229 Z M30,6.92307691 C42.7453846,6.92307691 53.0769231,17.2546154 53.0769231,30 C53.0769231,42.7453846 42.7453846,53.0769231 30,53.0769231 C17.2546154,53.0769231 6.92307691,42.7453846 6.92307691,30 C6.92307691,17.2546154 17.2546154,6.92307691 30,6.92307691 Z" id="形状" fill="#3C3C3C"></path>
                        <path d="M30,16.1538462 L30,16.1538462 C31.5384615,16.1538462 32.3076923,16.9230769 32.3076923,18.4615385 L32.3076923,32.3076923 C32.3076923,33.8461538 31.5384615,34.6153846 30,34.6153846 L30,34.6153846 C28.4615385,34.6153846 27.6923077,33.8461538 27.6923077,32.3076923 L27.6923077,18.4615385 C27.6923077,16.9230769 28.4615385,16.1538462 30,16.1538462 L30,16.1538462 Z" id="路径" fill="#CF0010"></path>
                        <path d="M45,31.1538462 L45,31.1538462 C45,32.6923077 44.2307692,33.4615385 42.6923077,33.4615385 L28.8461538,33.4615385 C27.3076923,33.4615385 26.5384615,32.6923077 26.5384615,31.1538462 L26.5384615,31.1538462 C26.5384615,29.6153846 27.3076923,28.8461538 28.8461538,28.8461538 L42.6923077,28.8461538 C44.2307692,28.8461538 45,29.6153846 45,31.1538462 L45,31.1538462 Z" id="路径" fill="#CF0010"></path>
                    </g>
                </g>
            </g>
        </g>
    </g>
</svg>