<?xml version="1.0" encoding="UTF-8"?>
<svg width="60px" height="60px" viewBox="0 0 60 60" version="1.1" xmlns="http://www.w3.org/2000/svg" xmlns:xlink="http://www.w3.org/1999/xlink">
    <title>城市视觉</title>
    <g id="页面-1" stroke="none" stroke-width="1" fill="none" fill-rule="evenodd">
        <g id="SDSF-解决方案（数字政府）" transform="translate(-473.000000, -758.000000)" fill-rule="nonzero">
            <g id="产品与服务备份" transform="translate(360.000000, 625.000000)">
                <g id="编组-6" transform="translate(0.000000, 100.000000)">
                    <g id="城市视觉" transform="translate(113.000000, 33.000000)">
                        <rect id="矩形" fill="#000000" opacity="0" x="0" y="0" width="60" height="60"></rect>
                        <path d="M30,5.7421875 C16.6027734,5.7421875 5.7421875,16.6027734 5.7421875,30 C5.7421875,43.3972266 16.6027734,54.2578125 30,54.2578125 C43.3972266,54.2578125 54.2578125,43.3972266 54.2578125,30 C54.2578125,16.6027734 43.3972266,5.7421875 30,5.7421875 Z M30,9.2578125 C41.4556055,9.2578125 50.7421875,18.5443945 50.7421875,30 C50.7421875,41.4556055 41.4556055,50.7421875 30,50.7421875 C18.5443945,50.7421875 9.2578125,41.4556055 9.2578125,30 C9.2578125,18.5443945 18.5443945,9.2578125 30,9.2578125 Z" id="形状" fill="#3C3C3C"></path>
                        <path d="M40.9369336,16.78125 C42.2973633,16.3277344 43.5922852,17.6044922 43.1736328,18.963457 L43.1603906,19.0046484 L37.3806445,36.3440039 C37.0736133,37.2649805 36.0781055,37.7627344 35.1571289,37.4557031 C34.2454102,37.1517773 33.748418,36.1730859 34.0364648,35.2599023 L34.0454297,35.2322461 L38.7134766,21.2281055 L24.7093359,25.8961523 C23.7976172,26.2001367 22.8127734,25.715332 22.4953125,24.8119336 L22.4858789,24.7843945 C22.1819531,23.8726758 22.6667578,22.8878906 23.5700977,22.5703711 L23.5976367,22.5609961 L40.9369336,16.7811914 L40.9369336,16.78125 Z" id="路径" fill="#CF0010"></path>
                        <path d="M35.2320703,34.1038477 C36.1530469,33.7968164 37.1485547,34.2945703 37.4555273,35.2155469 C37.7594531,36.1273242 37.2746484,37.1121094 36.3713086,37.4296289 L36.3437695,37.4390039 L19.0044727,43.2188086 C17.644043,43.6723242 16.3491211,42.3955078 16.7677734,41.036543 L16.7810156,40.9953516 L22.5607617,23.6559961 C22.867793,22.7350195 23.8633008,22.2372656 24.7842773,22.5442969 C25.6959961,22.8482227 26.1929883,23.8269141 25.9049414,24.7400977 L25.8959766,24.7677539 L21.2279297,38.7718359 L35.2320703,34.1038477 L35.2320703,34.1038477 Z" id="路径" fill="#CF0010"></path>
                        <path d="M27.2460938,30 C27.2460938,31.5209404 28.4790596,32.7539062 30,32.7539062 C31.5209404,32.7539062 32.7539062,31.5209404 32.7539062,30 C32.7539062,28.4790596 31.5209404,27.2460938 30,27.2460938 C28.4790596,27.2460938 27.2460938,28.4790596 27.2460938,30 Z" id="路径" fill="#CF0010"></path>
                    </g>
                </g>
            </g>
        </g>
    </g>
</svg>