<?xml version="1.0" encoding="UTF-8"?>
<svg width="60px" height="60px" viewBox="0 0 60 60" version="1.1" xmlns="http://www.w3.org/2000/svg" xmlns:xlink="http://www.w3.org/1999/xlink">
    <title>区块链</title>
    <g id="页面-1" stroke="none" stroke-width="1" fill="none" fill-rule="evenodd">
        <g id="SDSF-解决方案（数字政府）" transform="translate(-1083.000000, -758.000000)" fill-rule="nonzero">
            <g id="产品与服务备份" transform="translate(360.000000, 625.000000)">
                <g id="编组-6备份-2" transform="translate(610.000000, 100.000000)">
                    <g id="区块链" transform="translate(113.000000, 33.000000)">
                        <rect id="矩形" fill="#000000" opacity="0" x="0" y="0" width="60" height="60"></rect>
                        <path d="M30,5.7421875 C16.6027734,5.7421875 5.7421875,16.6027734 5.7421875,30 C5.7421875,43.3972266 16.6027734,54.2578125 30,54.2578125 C43.3972266,54.2578125 54.2578125,43.3972266 54.2578125,30 L54.2578125,29.9709375 C54.2420508,29.0135156 53.4611133,28.2421875 52.5,28.2421875 L31.7578125,28.2421875 L31.7578125,7.5 C31.7578125,6.52916016 30.9708398,5.7421875 30,5.7421875 Z M28.2421875,9.33158203 L28.2421875,30 L28.2424219,30.0290625 C28.2579492,30.9864844 29.0388867,31.7578125 30,31.7578125 L50.6683594,31.7578125 L50.643457,32.0370703 C49.62,42.536543 40.7682422,50.7421875 30,50.7421875 C18.5443945,50.7421875 9.2578125,41.4556055 9.2578125,30 C9.2578125,19.2317578 17.463457,10.38 27.9629297,9.35654297 L28.2421875,9.33158203 Z" id="形状" fill="#3C3C3C"></path>
                        <path d="M36.328125,5.625 C35.3572852,5.625 34.5703125,6.41197266 34.5703125,7.3828125 L34.5703125,23.5546875 C34.5703125,24.5255273 35.3572852,25.3125 36.328125,25.3125 L52.5,25.3125 C53.4708398,25.3125 54.2578125,24.5255273 54.2578125,23.5546875 C54.2578125,13.6523438 46.2304688,5.625 36.328125,5.625 Z M38.0859375,9.24720703 L38.2072266,9.26197266 C44.6650195,10.102793 49.7800781,15.217793 50.6208398,21.6756445 L50.6355469,21.796875 L38.0859375,21.796875 L38.0859375,9.24720703 Z" id="形状" fill="#CF0010"></path>
                    </g>
                </g>
            </g>
        </g>
    </g>
</svg>