<?xml version="1.0" encoding="UTF-8"?>
<svg width="60px" height="60px" viewBox="0 0 60 60" version="1.1" xmlns="http://www.w3.org/2000/svg" xmlns:xlink="http://www.w3.org/1999/xlink">
    <title>全息技术</title>
    <g id="页面-1" stroke="none" stroke-width="1" fill="none" fill-rule="evenodd">
        <g id="SDSF-解决方案（数字政府）" transform="translate(-1388.000000, -758.000000)" fill-rule="nonzero">
            <g id="产品与服务备份" transform="translate(360.000000, 625.000000)">
                <g id="编组-6备份-3" transform="translate(915.000000, 100.000000)">
                    <g id="全息技术" transform="translate(113.000000, 33.000000)">
                        <rect id="矩形" fill="#000000" opacity="0" x="0" y="0" width="60" height="60"></rect>
                        <path d="M29.9291016,28.2421875 C30.8902148,28.2421875 31.6711523,29.0135156 31.6866797,29.9709375 L31.6869141,30 L31.6869141,52.5 C31.6869141,53.4708398 30.8998828,54.2578125 29.9291016,54.2578125 C28.9679883,54.2578125 28.1870508,53.4864844 28.1715234,52.5290625 L28.1712891,52.5 L28.1712891,30 C28.1712891,29.0291602 28.9582617,28.2421875 29.9291016,28.2421875 L29.9291016,28.2421875 Z" id="路径" fill="#CF0010"></path>
                        <path d="M10.3563867,17.8683984 C10.8642187,17.0524805 11.9317383,16.7970117 12.7527539,17.2897266 L12.7775977,17.3049023 L29.9963086,28.0217578 L47.075332,17.3081836 C47.8895508,16.7974805 48.9609961,17.0358984 49.4828906,17.8386914 L49.4985352,17.8631836 C50.0092383,18.6773437 49.7708203,19.7487891 48.9680273,20.2706836 L48.9435352,20.2863281 L30.9341016,31.5836133 C30.3735883,31.9352169 29.6631172,31.942282 29.0957227,31.6018945 L29.0711133,31.5868945 L10.9199414,20.2896094 C10.0957031,19.7766211 9.84339844,18.6926367 10.3563867,17.8683984 L10.3563867,17.8683984 Z" id="路径" fill="#CF0010"></path>
                        <path d="M30.9096094,5.99583984 L30.9341016,6.01089844 L48.9435352,17.3081836 C49.1936466,17.4645349 49.4001799,17.6815692 49.5439453,17.9391211 C49.7774832,18.2415275 49.9056826,18.61203 49.9089844,18.9941016 L49.9089844,19.0231641 L49.7671875,41.2139648 C49.7634298,41.8051718 49.4627235,42.3548889 48.9669141,42.6769336 L48.9435352,42.6918164 L30.9341016,53.9891016 C30.3735883,54.3407052 29.6631172,54.3477702 29.0957227,54.0073828 L29.0711133,53.9923828 L10.9199414,42.6950977 C10.4128147,42.3794933 10.1006574,41.8279604 10.0911328,41.2307227 L10.0906487,41.2027148 L10.0906487,19.0119141 C10.0906487,18.9768164 10.0919531,18.9420117 10.0940039,18.9074414 C10.055918,18.2924414 10.3432617,17.6766211 10.895332,17.3204883 L10.9199414,17.3049023 L29.0711133,6.00761719 C29.6239966,5.66348896 30.3218295,5.65323002 30.8845898,5.98095703 L30.9096094,5.99583984 L30.9096094,5.99583984 Z M29.9963086,9.57269531 L13.6065234,19.7736328 L13.6065234,40.2263086 L29.9963086,50.4272461 L46.2577734,40.2264844 L46.3880273,19.8551953 L29.9963086,9.57269531 L29.9963086,9.57269531 Z" id="形状" fill="#3C3C3C"></path>
                    </g>
                </g>
            </g>
        </g>
    </g>
</svg>