<?xml version="1.0" encoding="UTF-8"?>
<svg width="70px" height="70px" viewBox="0 0 70 70" version="1.1" xmlns="http://www.w3.org/2000/svg" xmlns:xlink="http://www.w3.org/1999/xlink">
    <title>同构</title>
    <defs>
        <linearGradient x1="100%" y1="15.5380661%" x2="14.4115551%" y2="100%" id="linearGradient-1">
            <stop stop-color="#FF8888" offset="0%"></stop>
            <stop stop-color="#CF0010" offset="100%"></stop>
        </linearGradient>
    </defs>
    <g id="页面-1" stroke="none" stroke-width="1" fill="none" fill-rule="evenodd">
        <g id="SDSF-产品中心（可信跨链服务）" transform="translate(-990.000000, -2198.000000)">
            <g id="产品优势备份" transform="translate(360.000000, 1880.000000)">
                <g id="编组-6备份-11" transform="translate(610.000000, 318.000000)">
                    <g id="同构" transform="translate(20.000000, 0.000000)">
                        <rect id="矩形" x="0" y="0" width="70" height="70"></rect>
                        <g id="编组-7" transform="translate(9.000000, 10.000000)">
                            <rect id="矩形" stroke="#FFC8C8" fill="url(#linearGradient-1)" x="15.5" y="15.5" width="34" height="34" rx="5"></rect>
                            <rect id="矩形" stroke-opacity="0.302418529" stroke="#FFC8C8" x="0.5" y="0.5" width="39" height="39" rx="5"></rect>
                            <path d="M22.4966469,18.2786641 C22.3587768,18.1408397 22.2118204,18.0165991 22.0603893,17.9013991 L22.0601154,17.9016502 C21.9042553,17.7517488 21.6926216,17.6594244 21.4592995,17.6594244 C20.9804184,17.6594244 20.5922407,18.047625 20.5922407,18.5264832 C20.5922407,18.738368 20.6683558,18.9324455 20.7946282,19.0830547 L20.7946054,19.0830547 C20.7946282,19.0830775 20.7946739,19.0831232 20.7947196,19.083146 C20.8553788,19.1554941 20.9275442,19.2178655 21.0085677,19.2672467 C21.0903218,19.3346636 21.1705691,19.4010531 21.2456111,19.4760951 L21.3170917,19.5475985 C22.2157244,20.4451125 21.9474496,21.9914309 21.0488169,22.8900864 L17.214161,26.7236009 C16.3155512,27.6211148 14.8546168,27.6211148 13.9559614,26.7236009 L13.88391,26.6515039 C12.9852317,25.7528941 12.9852317,24.2908867 13.88391,23.3944457 L15.5780296,21.700897 C15.7953935,21.528371 15.9349302,21.2620824 15.9349302,20.9630557 C15.9349302,20.4429437 15.5133066,20.0213201 14.9931946,20.0213201 C14.7969255,20.0213201 14.6147425,20.0814085 14.4638822,20.1841205 C14.4634028,20.183116 14.4629005,20.1821571 14.4623982,20.1811298 L14.4443397,20.198024 C14.3776535,20.2459669 14.3173595,20.302197 14.2652844,20.365573 L12.5047297,22.0129824 C10.8498092,23.6690444 10.8498092,26.3775444 12.5047297,28.0313006 L12.5762103,28.1027583 C14.2311308,29.7565373 16.9384665,29.7565373 18.593387,28.1027583 L22.4269014,24.2681024 C24.0795389,22.6132732 24.2196692,20.0027822 22.5670545,18.3490032 L22.4966469,18.2786641 Z M28.0225002,12.6553726 L27.9510196,12.583892 C26.2961219,10.9289715 23.5887862,10.9289715 21.9338657,12.583892 L18.1003513,16.4185252 C16.4454308,18.0734457 16.3542936,20.4632395 18.0092141,22.119233 L18.0795532,22.1884991 C18.1547094,22.2636325 18.2327194,22.3344738 18.3123502,22.4024158 C18.3699959,22.4667962 18.4377095,22.5219078 18.5129799,22.5654901 C18.5135506,22.5659467 18.5141442,22.5664262 18.5147149,22.5668828 L18.5149661,22.5666545 C18.6349375,22.6356466 18.7739491,22.675325 18.9222981,22.675325 C19.3743768,22.675325 19.7408432,22.308813 19.7408432,21.8567799 C19.7408432,21.7291833 19.7116209,21.6084128 19.6595229,21.5007468 L19.6595229,21.5007468 C19.5513089,21.2577676 19.3487388,21.1098523 19.2086313,20.9697221 L19.1382694,20.9005017 C18.2396596,20.0018919 18.5808989,18.696361 19.4795087,17.7977512 L23.3152834,13.9642139 C24.2116787,13.0655584 25.6731153,13.0655584 26.5717708,13.9642139 L26.643297,14.034553 C27.5419296,14.9332312 27.5419296,16.3958094 26.643297,17.2933233 L24.9547252,18.9830367 C24.7250102,19.153234 24.5760447,19.4262346 24.5760447,19.7340508 C24.5760447,20.2499393 24.9942666,20.6681841 25.5101779,20.6681841 C25.6897355,20.6681841 25.8573987,20.6174102 25.9997663,20.5296062 C26.0008393,20.5314326 26.0018438,20.533122 26.0029168,20.5349713 L26.0291027,20.5107944 C26.1097838,20.4567787 26.181447,20.3904577 26.2416953,20.3146394 L28.0212901,18.6725493 C29.6774207,17.0176516 29.6774207,14.3102703 28.0225002,12.6553726 Z" id="形状" stroke="#CF0010" stroke-width="0.8" fill="#CF0010" fill-rule="nonzero"></path>
                        </g>
                    </g>
                </g>
            </g>
        </g>
    </g>
</svg>