<?xml version="1.0" encoding="UTF-8"?>
<svg width="61px" height="60px" viewBox="0 0 61 60" version="1.1" xmlns="http://www.w3.org/2000/svg" xmlns:xlink="http://www.w3.org/1999/xlink">
    <title>专家服务</title>
    <g id="页面-1" stroke="none" stroke-width="1" fill="none" fill-rule="evenodd">
        <g id="SDSF-服务支持" transform="translate(-930.000000, -742.000000)" fill-rule="nonzero">
            <g id="产品优势" transform="translate(361.000000, 625.000000)">
                <g id="编组-6备份-6" transform="translate(407.500000, 100.000000)">
                    <g id="专家服务" transform="translate(162.000000, 17.000000)">
                        <rect id="矩形" fill="#000000" opacity="0" x="0" y="0" width="60" height="60"></rect>
                        <path d="M45.4921875,44.8007812 L36.7324219,44.8007812 C35.6191406,44.8007812 34.7109375,43.8925781 34.7109375,42.7792969 C34.7109375,41.6660156 35.6191406,40.7578125 36.7324219,40.7578125 L45.4863281,40.7578125 C46.640625,40.7578125 47.5722656,39.8261719 47.5722656,38.671875 L47.5722656,17.015625 C47.5722656,15.8613281 46.640625,14.9296875 45.4863281,14.9296875 L14.7714844,14.9296875 C13.6171875,14.9296875 12.6855469,15.8613281 12.6855469,17.015625 L12.6855469,38.671875 C12.6855469,39.8261719 13.6171875,40.7578125 14.7714844,40.7578125 L23.4023438,40.7578125 C24.515625,40.7578125 25.4238281,41.6660156 25.4238281,42.7792969 C25.4238281,43.8925781 24.515625,44.8007812 23.4023438,44.8007812 L14.7714844,44.8007812 C11.390625,44.8007812 8.6484375,42.0527344 8.6484375,38.6777344 L8.6484375,17.015625 C8.6484375,13.6347656 11.3964844,10.8925781 14.7714844,10.8925781 L45.4921875,10.8925781 C48.8730469,10.8925781 51.6152344,13.640625 51.6152344,17.015625 L51.6152344,38.671875 C51.6152344,42.046875 48.8671875,44.8007812 45.4921875,44.8007812 Z" id="路径" fill="#3C3C3C"></path>
                        <path d="M39.1757812,25.2011719 L21.0878906,25.2011719 C19.9746094,25.2011719 19.0664062,24.2929688 19.0664062,23.1796875 C19.0664062,22.0664062 19.9746094,21.1582031 21.0878906,21.1582031 L39.1699219,21.1582031 C40.2832031,21.1582031 41.1914062,22.0664062 41.1914062,23.1796875 C41.1914062,24.2929688 40.2890625,25.2011719 39.1757812,25.2011719 Z M32.7304688,34.5292969 L21.0878906,34.5292969 C19.9746094,34.5292969 19.0664062,33.6210937 19.0664062,32.5078125 C19.0664062,31.3945312 19.9746094,30.4863281 21.0878906,30.4863281 L32.7304687,30.4863281 C33.84375,30.4863281 34.7519531,31.3945312 34.7519531,32.5078125 C34.7519531,33.6210937 33.84375,34.5292969 32.7304687,34.5292969 L32.7304688,34.5292969 Z" id="形状" fill="#CF0010"></path>
                        <path d="M29.9355469,49.6582031 C29.5136719,49.6582031 29.0859375,49.5234375 28.734375,49.2597656 L22.2539062,44.4609375 C21.3574219,43.7988281 21.1699219,42.5332031 21.8320312,41.6367188 C22.4941406,40.7402344 23.7597656,40.5527344 24.65625,41.2148438 L29.9707031,45.1464844 L35.6601562,41.1738281 C36.5742188,40.5351563 37.8339844,40.7578125 38.4667969,41.671875 C39.1054688,42.5859375 38.8828125,43.8457031 37.96875,44.4785156 L31.0957031,49.2832031 C30.7382812,49.5351562 30.3339844,49.6582031 29.9355469,49.6582031 Z" id="路径" fill="#3C3C3C"></path>
                    </g>
                </g>
            </g>
        </g>
    </g>
</svg>