<?xml version="1.0" encoding="UTF-8"?>
<svg width="60px" height="60px" viewBox="0 0 60 60" version="1.1" xmlns="http://www.w3.org/2000/svg" xmlns:xlink="http://www.w3.org/1999/xlink">
    <title>专业服务</title>
    <g id="页面-1" stroke="none" stroke-width="1" fill="none" fill-rule="evenodd">
        <g id="SDSF-服务支持" transform="translate(-1331.000000, -742.000000)" fill-rule="nonzero">
            <g id="产品优势" transform="translate(361.000000, 625.000000)">
                <g id="编组-6备份-7" transform="translate(815.000000, 100.000000)">
                    <g id="专业服务" transform="translate(155.000000, 17.000000)">
                        <rect id="矩形" fill="#000000" opacity="0" x="0" y="0" width="60" height="60"></rect>
                        <path d="M25.7636719,45.6152344 C23.0917969,45.6152344 20.4960938,45.09375 18.0527344,44.0566406 C15.6914063,43.0605469 13.5761719,41.6308594 11.7597656,39.8144531 C9.94335938,37.9980469 8.51367188,35.8769531 7.51757813,33.5214844 C6.48632813,31.078125 5.95898438,28.4824219 5.95898438,25.8105469 C5.95898438,23.1386719 6.48046875,20.5429688 7.51757813,18.0996094 C8.51367188,15.7382812 9.94335938,13.6230469 11.7597656,11.8066406 C13.5761719,9.99023438 15.6972656,8.56054688 18.0527344,7.56445312 C20.4960938,6.53320312 23.0917969,6.00585938 25.7636719,6.00585938 C28.4355469,6.00585938 31.03125,6.52734375 33.4746094,7.56445312 C35.8359375,8.56054688 37.9511719,9.99023438 39.7675781,11.8066406 C41.5839844,13.6230469 43.0136719,15.7441406 44.0097656,18.0996094 C45.0410156,20.5429688 45.5683594,23.1386719 45.5683594,25.8105469 C45.5683594,28.4824219 45.046875,31.078125 44.0097656,33.5214844 C43.0136719,35.8828125 41.5839844,37.9980469 39.7675781,39.8144531 C37.9511719,41.6308594 35.8300781,43.0605469 33.4746094,44.0566406 C31.03125,45.09375 28.4355469,45.6152344 25.7636719,45.6152344 Z M25.7636719,10.1015625 C17.1035156,10.1015625 10.0605469,17.1445312 10.0605469,25.8046875 C10.0605469,34.4648438 17.1035156,41.5078125 25.7636719,41.5078125 C34.4238281,41.5078125 41.4667969,34.4648438 41.4667969,25.8046875 C41.4667969,17.1503906 34.4238281,10.1015625 25.7636719,10.1015625 Z" id="形状" fill="#3C3C3C"></path>
                        <path d="M33.1875,21.2988281 C32.6191406,21.2988281 32.0566406,21.0644531 31.6523437,20.6074219 C30.1582031,18.9199219 28.0136719,17.953125 25.7636719,17.953125 C23.6660156,17.953125 21.6914062,18.7675781 20.2089844,20.2558594 C19.40625,21.0585938 18.1113281,21.0585938 17.3085938,20.2558594 C16.5058594,19.453125 16.5058594,18.1582031 17.3085938,17.3554688 C19.5644531,15.0996094 22.5703125,13.8515625 25.7636719,13.8515625 C29.1914062,13.8515625 32.4550781,15.3222656 34.7285156,17.8945312 C35.4785156,18.7441406 35.3964844,20.0390625 34.5527344,20.7890625 C34.1542969,21.1347656 33.6738281,21.2988281 33.1875,21.2988281 L33.1875,21.2988281 Z" id="路径" fill="#CF0010"></path>
                        <path d="M47.0859375,49.1367188 C46.5585938,49.1367188 46.0371094,48.9375 45.6386719,48.5332031 L36.9667969,39.8671875 C36.1640625,39.0644531 36.1640625,37.7695313 36.9667969,36.9667969 C37.7695312,36.1640625 39.0644531,36.1640625 39.8671875,36.9667969 L48.5332031,45.6328125 C49.3359375,46.4355469 49.3359375,47.7304688 48.5332031,48.5332031 C48.1347656,48.9316406 47.6074219,49.1367188 47.0859375,49.1367188 L47.0859375,49.1367188 Z" id="路径" fill="#3C3C3C"></path>
                    </g>
                </g>
            </g>
        </g>
    </g>
</svg>