<?xml version="1.0" encoding="UTF-8"?>
<svg width="60px" height="60px" viewBox="0 0 60 60" version="1.1" xmlns="http://www.w3.org/2000/svg" xmlns:xlink="http://www.w3.org/1999/xlink">
    <title>云原生专家服务</title>
    <g id="页面-1" stroke="none" stroke-width="1" fill="none" fill-rule="evenodd">
        <g id="SDSF-服务支持" transform="translate(-528.000000, -1634.000000)" fill-rule="nonzero">
            <g id="产品优势" transform="translate(366.000000, 1506.000000)">
                <g id="编组-5" transform="translate(0.000000, 111.000000)">
                    <g id="云原生专家服务" transform="translate(162.000000, 17.000000)">
                        <rect id="矩形" fill="#000000" opacity="0" x="0" y="0" width="60" height="60"></rect>
                        <path d="M50.7692307,9.23076926 C53.3182373,9.23076926 55.3846154,11.2971473 55.3846154,13.8461538 L55.3846154,46.1538462 C55.3846154,48.7028527 53.3182373,50.7692307 50.7692307,50.7692307 L9.23076926,50.7692307 C6.68176274,50.7692307 4.61538463,48.7028527 4.61538463,46.1538462 L4.61538463,13.8461538 C4.61538463,11.2971473 6.68176274,9.23076926 9.23076926,9.23076926 L50.7692307,9.23076926 Z M50.7692307,13.8461538 L9.23076926,13.8461538 L9.23076926,46.1538462 L50.7692307,46.1538462 L50.7692307,13.8461538 Z" id="形状" fill="#3C3C3C"></path>
                        <path d="M25.3846154,18.4615385 L34.6153846,18.4615385 L34.6153846,27.6923077 L25.3846154,27.6923077 L25.3846154,18.4615385 Z M18.4615385,32.3076923 L27.6923077,32.3076923 L27.6923077,41.5384615 L18.4615385,41.5384615 L18.4615385,32.3076923 Z M32.3076923,32.3076923 L41.5384615,32.3076923 L41.5384615,41.5384615 L32.3076923,41.5384615 L32.3076923,32.3076923 Z" id="形状" fill="#CF0010"></path>
                    </g>
                </g>
            </g>
        </g>
    </g>
</svg>