<?xml version="1.0" encoding="UTF-8"?>
<svg width="60px" height="60px" viewBox="0 0 60 60" version="1.1" xmlns="http://www.w3.org/2000/svg" xmlns:xlink="http://www.w3.org/1999/xlink">
    <title>管理检测与相应</title>
    <g id="页面-1" stroke="none" stroke-width="1" fill="none" fill-rule="evenodd">
        <g id="SDSF-服务支持" transform="translate(-932.000000, -1634.000000)" fill-rule="nonzero">
            <g id="产品优势" transform="translate(366.000000, 1506.000000)">
                <g id="编组-5" transform="translate(0.000000, 111.000000)">
                    <g id="编组-6备份-9" transform="translate(408.000000, 0.000000)">
                        <g id="管理检测与相应" transform="translate(158.000000, 17.000000)">
                            <rect id="矩形" fill="#000000" opacity="0" x="0" y="0" width="60" height="60"></rect>
                            <path d="M50.7692307,13.8461538 C53.3182373,13.8461538 55.3846154,15.9125319 55.3846154,18.4615385 L55.3846154,50.7692307 C55.3846154,53.3182373 53.3182373,55.3846154 50.7692307,55.3846154 L9.23076926,55.3846154 C6.68176271,55.3846154 4.61538463,53.3182373 4.61538463,50.7692307 L4.61538463,18.4615385 C4.61538463,15.9125319 6.68176271,13.8461538 9.23076926,13.8461538 L50.7692307,13.8461538 Z M50.7692307,18.4615385 L9.23076926,18.4615385 L9.23076926,50.7692307 L50.7692307,50.7692307 L50.7692307,18.4615385 Z" id="形状" fill="#3C3C3C"></path>
                            <path d="M18.4615385,25.3846154 L41.5384615,25.3846154 L41.5384615,30 L18.4615385,30 L18.4615385,25.3846154 Z M18.4615385,36.9230769 L41.5384615,36.9230769 L41.5384615,41.5384615 L18.4615385,41.5384615 L18.4615385,36.9230769 Z" id="形状" fill="#CF0010"></path>
                            <polygon id="路径" fill="#3C3C3C" points="29.5223077 6.59076926 30.33 8.75307691 9.70846154 16.4838462 8.90076926 14.3238462"></polygon>
                            <polygon id="路径" fill="#3C3C3C" points="29.3238462 6.59076926 28.5161538 8.75307691 49.1376923 16.4838462 49.9453846 14.3238462"></polygon>
                            <path d="M25.3846154,6.92307691 C25.3846154,9.47208346 27.4509935,11.5384615 30,11.5384615 C32.5490065,11.5384615 34.6153846,9.47208346 34.6153846,6.92307691 C34.6153846,4.37407037 32.5490065,2.30769229 30,2.30769229 C27.4509935,2.30769229 25.3846154,4.37407037 25.3846154,6.92307691 Z" id="路径" fill="#CF0010"></path>
                        </g>
                    </g>
                </g>
            </g>
        </g>
    </g>
</svg>