<?xml version="1.0" encoding="UTF-8"?>
<svg width="60px" height="60px" viewBox="0 0 60 60" version="1.1" xmlns="http://www.w3.org/2000/svg" xmlns:xlink="http://www.w3.org/1999/xlink">
    <title>专家服务</title>
    <g id="页面-1" stroke="none" stroke-width="1" fill="none" fill-rule="evenodd">
        <g id="SDSF-服务支持" transform="translate(-528.000000, -1870.000000)" fill-rule="nonzero">
            <g id="产品优势" transform="translate(366.000000, 1506.000000)">
                <g id="编组-7" transform="translate(0.000000, 347.000000)">
                    <g id="专家服务" transform="translate(162.000000, 17.000000)">
                        <rect id="矩形" fill="#000000" opacity="0" x="0" y="0" width="60" height="60"></rect>
                        <path d="M52.2023077,52.2 C52.2023077,53.6791781 51.4935981,55.068801 50.2960509,55.9370455 C49.0985037,56.8052901 47.557364,57.0469475 46.1515385,56.5869231 L29.1253846,51.0184615 L12.0992307,56.5869231 C10.6937919,57.0468211 9.15308716,56.8054293 7.95565232,55.9377229 C6.75821748,55.0700165 6.04906768,53.6810789 6.04846154,52.2023077 L6.04846154,7.79538463 C6.04846154,5.24637808 8.11483963,3.18 10.6638462,3.18 L47.5869231,3.18 C50.1359296,3.18 52.2023077,5.24637808 52.2023077,7.79538463 L52.2023077,52.2 Z M29.1253846,46.1630769 L47.5869231,52.2 L47.5869231,7.8 L10.6638462,7.8 L10.6638462,52.2 L29.1253846,46.1630769 Z" id="形状" fill="#3C3C3C"></path>
                        <path d="M34.8115385,34.6153846 C34.5681933,34.6146952 34.3296404,34.547677 34.1215385,34.4215385 L30.3969231,32.3769231 C30.283894,32.3145006 30.1568124,32.281936 30.0276923,32.2823077 C29.9013876,32.2864135 29.7766297,32.3113651 29.6584615,32.3561538 L25.9453846,34.4215385 C25.7373539,34.5536418 25.4948259,34.6210999 25.2484615,34.6153846 C24.7937528,34.6079028 24.3656269,34.3997278 24.078936,34.0467061 C23.792245,33.6936845 23.6763375,33.231955 23.7623077,32.7853846 L24.4776923,28.4723077 C24.5166039,28.2065749 24.4295953,27.937872 24.2423077,27.7453846 L21.2353846,24.7153846 C20.8129114,24.2925694 20.6623637,23.6689989 20.8453846,23.1 C21.013737,22.5357749 21.487945,22.1161455 22.0684615,22.0176923 L26.2015385,21.3876923 C26.461408,21.346178 26.6859526,21.1833403 26.8061538,20.9492307 L28.6523077,17.0215385 C28.8959481,16.4960292 29.4207744,16.1581274 30,16.1538462 C30.5769231,16.1538462 31.0869231,16.4861539 31.3453846,17.0215385 L33.1915385,20.9492307 C33.309169,21.1865219 33.5362305,21.3505587 33.7984615,21.3876923 L37.9315385,22.0176923 C38.5084615,22.1146154 38.97,22.5207692 39.1546154,23.0792307 C39.3392307,23.6561538 39.1938461,24.276923 38.7853846,24.6946154 L35.8084615,27.7338462 C35.6122625,27.9209118 35.5229909,28.1939269 35.5707693,28.4607693 L36.2676923,32.7530769 C36.3453045,33.2050017 36.2260581,33.6685512 35.94,34.0269231 C35.6826171,34.3945065 35.2625794,34.6139934 34.8138462,34.6153846 L34.8115385,34.6153846 Z" id="路径" fill="#CF0010"></path>
                    </g>
                </g>
            </g>
        </g>
    </g>
</svg>