<?xml version="1.0" encoding="UTF-8"?>
<svg width="60px" height="60px" viewBox="0 0 60 60" version="1.1" xmlns="http://www.w3.org/2000/svg" xmlns:xlink="http://www.w3.org/1999/xlink">
    <title>CSS专家服务</title>
    <g id="页面-1" stroke="none" stroke-width="1" fill="none" fill-rule="evenodd">
        <g id="SDSF-服务支持" transform="translate(-936.000000, -1870.000000)" fill-rule="nonzero">
            <g id="产品优势" transform="translate(366.000000, 1506.000000)">
                <g id="编组-7" transform="translate(0.000000, 347.000000)">
                    <g id="编组-6备份-6" transform="translate(408.000000, 0.000000)">
                        <g id="CSS专家服务" transform="translate(162.000000, 17.000000)">
                            <rect id="矩形" fill="#000000" opacity="0" x="0" y="0" width="60" height="60"></rect>
                            <path d="M53.0769231,6.92307691 C55.6259296,6.92307691 57.6923077,8.989455 57.6923077,11.5384615 L57.6923077,48.4615385 C57.6923077,51.010545 55.6259296,53.0769231 53.0769231,53.0769231 L6.92307691,53.0769231 C4.37407037,53.0769231 2.30769229,51.010545 2.30769229,48.4615385 L2.30769229,11.5384615 C2.30769229,8.989455 4.37407037,6.92307691 6.92307691,6.92307691 L53.0769231,6.92307691 Z M53.0769231,11.5384615 L6.92307691,11.5384615 L6.92307691,48.4615385 L53.0769231,48.4615385 L53.0769231,11.5384615 Z" id="形状" fill="#3C3C3C"></path>
                            <path d="M38.9538462,36.8492307 C35.4923077,36.0346154 33.7153846,34.0961538 33.4107693,33.6876923 C33.1061539,33.2792307 33.1061539,32.7715385 33.1061538,32.16 C33.1061538,31.9546154 33.2076923,31.65 33.3092307,31.4446154 L33.4107693,31.2438462 C33.5123077,31.0384615 33.9184615,30.0207693 34.2276923,29.4069231 C34.2276923,29.3053846 34.4284615,28.9984615 34.6338462,28.7953846 C34.9384615,28.5923077 35.2430769,28.2853846 35.7530769,27.6738462 C36.5676923,26.4507693 36.1592307,25.3292308 35.4461538,24.8192307 L35.4461538,24.6161538 C35.8546154,23.4946154 36.06,22.17 35.9584615,20.5384615 C35.8546154,18.8030769 34.2276923,16.1538462 30.0507693,16.1538462 C25.8738462,16.1538462 24.2423077,18.7038462 24.1407693,20.5384615 C24.0392308,22.1676923 24.2423077,23.4923077 24.6484615,24.5146154 L24.6484615,24.7176923 C23.9376923,25.3292307 23.6307693,26.4507692 24.3438462,27.6738462 C24.75,28.2853846 25.1584615,28.5923077 25.4630769,28.7953846 C25.6684615,28.9984615 25.8715385,29.3030769 25.8715385,29.4069231 C26.1784615,30.0207693 26.5869231,30.9369231 26.6861538,31.2438462 L26.7876923,31.4469231 C26.8892307,31.7515385 26.9930769,31.9546154 26.9930769,32.16 C26.9930769,32.6676923 26.9930769,33.2792307 26.6861538,33.69 C26.3815385,34.0961538 24.6507692,36.0346154 21.1846154,36.8492307 C18.1315385,37.5623077 16.1538462,39.3115385 16.1538462,43.3338462 C16.1538462,43.5415385 16.3569231,43.8461538 16.6615385,43.8461538 L43.3384615,43.8461538 C43.5392308,43.8461538 43.8461538,43.6407692 43.8461538,43.3361538 C43.8461538,39.1084615 42.1153846,37.5623077 38.9538462,36.8492307 Z" id="路径" fill="#CF0010"></path>
                        </g>
                    </g>
                </g>
            </g>
        </g>
    </g>
</svg>