<?xml version="1.0" encoding="UTF-8"?>
<svg width="60px" height="60px" viewBox="0 0 60 60" version="1.1" xmlns="http://www.w3.org/2000/svg" xmlns:xlink="http://www.w3.org/1999/xlink">
    <title>跨链操作</title>
    <g id="页面-1" stroke="none" stroke-width="1" fill="none" fill-rule="evenodd">
        <g id="SDSF-产品中心（可信跨链服务）" transform="translate(-382.000000, -725.000000)" fill-rule="nonzero">
            <g id="编组-10" transform="translate(382.000000, 625.000000)">
                <g id="跨链操作" transform="translate(0.000000, 100.000000)">
                    <rect id="矩形" fill="#000000" opacity="0" x="0" y="0" width="60" height="60"></rect>
                    <g id="登记" transform="translate(3.000000, 4.000000)">
                        <rect id="矩形" fill="#000000" opacity="0" x="0" y="0" width="53" height="53"></rect>
                        <path d="M15.4583334,15.4583334 L35.3333334,15.4583334 L35.3333334,19.875 L15.4583334,19.875 L15.4583334,15.4583334 Z M15.4583334,24.2916666 L28.7083334,24.2916666 L28.7083334,28.7083334 L15.4583334,28.7083334 L15.4583334,24.2916666 Z" id="形状" fill="#3C3C3C"></path>
                        <path d="M8.83333335,4.41666665 C7.61370452,4.41666665 6.625,5.40537117 6.625,6.625 L6.625,46.375 C6.625,47.5946288 7.61370452,48.5833334 8.83333335,48.5833334 L22.0833334,48.5833334 L22.0833334,44.1666666 L11.0416666,44.1666666 L11.0416666,8.83333335 L39.75,8.83333335 L39.75,23.1875 L44.1666666,23.1875 L44.1666666,6.625 C44.1666666,5.40537119 43.1779622,4.41666665 41.9583334,4.41666665 L8.83333335,4.41666665 Z" id="路径" fill="#3C3C3C"></path>
                        <path d="M38.1887084,28.2512084 C39.0510622,27.3891149 40.4489378,27.3891149 41.3112916,28.2512084 L46.832125,33.7720416 C47.6942184,34.6343955 47.6942184,36.0322712 46.832125,36.894625 L35.7904584,47.9362916 C35.3764119,48.3504632 34.8148052,48.5833334 34.2291666,48.5833334 L28.7083334,48.5833334 C27.4887045,48.5833334 26.5,47.5946288 26.5,46.375 L26.5,40.8541666 C26.5,40.2685281 26.7328701,39.7069214 27.1470416,39.292875 L38.1887084,28.2512084 L38.1887084,28.2512084 Z M30.9166666,41.7684166 L30.9166666,44.1666666 L33.3149166,44.1666666 L42.14825,35.3333334 L39.75,32.9350834 L30.9166666,41.7684166 L30.9166666,41.7684166 Z" id="形状" fill="#CF0010"></path>
                    </g>
                </g>
            </g>
        </g>
    </g>
</svg>