<?xml version="1.0" encoding="UTF-8"?>
<svg width="60px" height="60px" viewBox="0 0 60 60" version="1.1" xmlns="http://www.w3.org/2000/svg" xmlns:xlink="http://www.w3.org/1999/xlink">
    <title>跨链身份</title>
    <g id="页面-1" stroke="none" stroke-width="1" fill="none" fill-rule="evenodd">
        <g id="SDSF-产品中心（可信跨链服务）" transform="translate(-382.000000, -870.000000)" fill-rule="nonzero">
            <g id="编组-10" transform="translate(382.000000, 625.000000)">
                <g id="跨链身份" transform="translate(0.000000, 245.000000)">
                    <rect id="矩形" fill="#000000" opacity="0" x="0" y="0" width="60" height="60"></rect>
                    <g id="发送" transform="translate(3.000000, 4.000000)">
                        <rect id="矩形" fill="#000000" opacity="0" x="0" y="0" width="53" height="53"></rect>
                        <path d="M48.5027291,7.21572915 C48.7155952,6.44872004 48.4992071,5.62650596 47.9363506,5.06364944 C47.373494,4.50079292 46.55128,4.28440481 45.7842709,4.49727085 L6.03427085,15.5389375 C5.17687502,15.7771446 4.54622185,16.5066932 4.43454081,17.3895282 C4.32285977,18.2723632 4.75197373,19.1359753 5.52304165,19.5801875 L18.2728541,26.9206875 L21.5069584,23.6865834 L12.296,18.3832709 L43.201625,9.798375 L34.6167291,40.704 L29.3134166,31.4930416 L26.0782084,34.7271459 L33.4198125,47.4769584 C33.8640247,48.2480263 34.7276368,48.6771402 35.6104718,48.5654592 C36.4933068,48.4537781 37.2228554,47.823125 37.4610625,46.9657291 L48.5027291,7.21572915 L48.5027291,7.21572915 Z" id="路径" fill="#3C3C3C"></path>
                        <polygon id="路径" fill="#CF0010" points="35.1434166 20.9791666 18.7708334 37.35175 15.64825 34.2291666 32.0208334 17.8565834"></polygon>
                    </g>
                </g>
            </g>
        </g>
    </g>
</svg>