<?xml version="1.0" encoding="UTF-8"?>
<svg width="60px" height="60px" viewBox="0 0 60 60" version="1.1" xmlns="http://www.w3.org/2000/svg" xmlns:xlink="http://www.w3.org/1999/xlink">
    <title>弹性算力调度</title>
    <g id="页面-1" stroke="none" stroke-width="1" fill="none" fill-rule="evenodd">
        <g id="SDSF-产品中心（智能AI边缘盒子）" transform="translate(-380.000000, -2841.000000)" fill-rule="nonzero">
            <g id="产品优势" transform="translate(361.000000, 2741.000000)">
                <g id="编组-6" transform="translate(0.000000, 100.000000)">
                    <g id="弹性算力调度" transform="translate(19.000000, 0.000000)">
                        <rect id="矩形" fill="#000000" opacity="0" x="0" y="0" width="60" height="60"></rect>
                        <path d="M38.643,3.8145 C39.1575,3.8145 39.5805,4.236 39.5805,4.752 L39.5805,9.621 L45.78,9.621 C48.3931455,9.62430569 50.5106943,11.7418545 50.514,14.355 L50.514,20.571 L55.3125,20.571 C55.830267,20.571 56.2500109,20.990733 56.2500109,21.5085 C56.2500109,22.026267 55.830267,22.446 55.3125,22.446 L50.5125,22.446 L50.5125,29.127 L55.3125,29.127 C55.8285,29.127 56.2500109,29.5485 56.2500109,30.0645 C56.2512039,30.3135076 56.1528185,30.5526645 55.9767415,30.7287415 C55.8006645,30.9048185 55.5615076,31.0032039 55.3125,31.002 L50.5125,31.002 L50.5125,37.6875 L55.3125,37.6875 C55.830267,37.6875 56.2500109,38.107233 56.2500109,38.625 C56.2500109,39.142767 55.830267,39.5625 55.3125,39.5625 L50.5125,39.5625 L50.5125,45.6735 C50.5116727,48.2870876 48.3935872,50.4058444 45.78,50.4075 L39.579,50.4075 L39.579,55.272 C39.579,55.789767 39.159267,56.2095 38.6415,56.2095 C38.123733,56.2095 37.704,55.789767 37.704,55.272 L37.704,50.4075 L31.0245,50.4075 L31.0245,55.272 C31.0228584,55.7885007 30.6049974,56.2070313 30.0885,56.2095 C29.5714167,56.2078532 29.1526468,55.7890833 29.151,55.272 L29.151,50.4075 L22.464,50.4075 L22.464,55.272 C22.4623584,55.7885007 22.0444974,56.2070313 21.528,56.2095 C21.0109167,56.2078532 20.5921468,55.7890833 20.5905,55.272 L20.5905,50.4075 L14.46,50.4075 C11.8462687,50.4050207 9.72780735,48.2872304 9.7245,45.6735 L9.7245,39.5625 L4.8045,39.5625 C4.28683101,39.561677 3.8671506,39.142667 3.8655,38.625 C3.8655,38.109 4.287,37.6875 4.803,37.6875 L9.7245,37.6875 L9.7245,31.002 L4.8045,31.002 C4.28683101,31.001177 3.8671506,30.582167 3.8655,30.0645 C3.8655,29.5485 4.287,29.127 4.803,29.127 L9.7245,29.127 L9.7245,22.446 L4.8045,22.446 C4.28741379,22.4451812 3.86797345,22.0270809 3.8655,21.51 C3.8655,20.994 4.287,20.5725 4.803,20.5725 L9.7245,20.571 L9.7245,14.355 C9.72780735,11.7412696 11.8462687,9.6234793 14.46,9.621 L20.5875,9.621 L20.5875,4.752 C20.5875,4.236 21.0105,3.8145 21.5265,3.8145 C22.041,3.8145 22.464,4.236 22.464,4.752 L22.464,9.621 L29.148,9.621 L29.148,4.752 C29.148,4.236 29.571,3.8145 30.087,3.8145 C30.6015,3.8145 31.0245,4.236 31.0245,4.752 L31.0245,9.621 L37.7025,9.621 L37.7025,4.752 C37.7025,4.236 38.1255,3.8145 38.6415,3.8145 L38.643,3.8145 Z M14.46,11.49 C12.8835,11.49 11.5995,12.774 11.5995,14.349 L11.5995,45.669 C11.5995,47.244 12.8835,48.528 14.46,48.528 L45.78,48.528 C47.355,48.528 48.639,47.244 48.639,45.6675 L48.636,38.958 C48.5537841,38.743612 48.5537841,38.506388 48.636,38.292 L48.636,30.399 C48.5534001,30.184166 48.5534001,29.946334 48.636,29.7315 L48.636,21.843 C48.5537841,21.628612 48.5537841,21.391388 48.636,21.177 L48.639,14.355 C48.639,12.78 47.355,11.496 45.78,11.496 L14.46,11.496 L14.46,11.49 Z" id="形状" fill="#3C3C3C"></path>
                        <path d="M37.125,20.175 C38.6775,20.175 39.9495,21.4455 39.9495,22.998 L39.9495,37.131 C39.9445595,38.6888773 38.6828773,39.9505595 37.125,39.9555 L22.992,39.9555 C21.4341227,39.9505595 20.1724405,38.6888773 20.1675,37.131 L20.1675,22.998 C20.1675,21.4455 21.4395,20.1735 22.992,20.1735 L37.125,20.1735 L37.125,20.175 Z M24.8205,22.4655 C23.9690224,22.4439574 23.1728413,22.8859022 22.740762,23.6199223 C22.3086827,24.3539425 22.3086827,25.2645575 22.740762,25.9985777 C23.1728413,26.7325978 23.9690224,27.1745426 24.8205,27.153 C26.0918254,27.1208352 27.1057026,26.0809822 27.1057026,24.80925 C27.1057026,23.5375178 26.0918254,22.4976648 24.8205,22.4655 L24.8205,22.4655 Z" id="形状" fill="#CF0010"></path>
                    </g>
                </g>
            </g>
        </g>
    </g>
</svg>