<?xml version="1.0" encoding="UTF-8"?>
<svg width="60px" height="60px" viewBox="0 0 60 60" version="1.1" xmlns="http://www.w3.org/2000/svg" xmlns:xlink="http://www.w3.org/1999/xlink">
    <title>Canvas</title>
    <g id="页面-1" stroke="none" stroke-width="1" fill="none" fill-rule="evenodd">
        <g id="SDSF-产品中心（智能AI边缘盒子）" transform="translate(-380.000000, -3034.000000)" fill-rule="nonzero">
            <g id="产品优势" transform="translate(361.000000, 2741.000000)">
                <g id="编组-6备份-7" transform="translate(1.000000, 293.000000)">
                    <g id="Canvas" transform="translate(18.000000, 0.000000)">
                        <rect id="矩形" fill="#000000" opacity="0" x="0" y="0" width="60" height="60"></rect>
                        <path d="M39.258,23.766 L37.887,23.766 C37.3699167,23.7643532 36.9511468,23.3455833 36.9495,22.8285 C36.9495,22.3125 37.371,21.891 37.887,21.891 L39.258,21.891 C39.7750833,21.8893532 40.1938532,21.4705833 40.1955,20.9535 L40.1955,8.43 C40.1938532,7.9129167 39.7750833,7.49414677 39.258,7.4925 L20.718,7.4925 C20.2015026,7.4949687 19.7836416,7.91349929 19.782,8.43 L19.782,20.952 C19.782,21.468 20.202,21.8895 20.718,21.8895 L21.978,21.8895 C22.494,21.8895 22.9155,22.311 22.9155,22.827 C22.9138532,23.3440833 22.4950833,23.7628532 21.978,23.7645 L20.718,23.7645 C19.165285,23.7636719 17.907,22.5047153 17.907,20.952 L17.907,8.43 C17.907,6.8775 19.167,5.6175 20.718,5.6175 L39.258,5.6175 C40.8105,5.6175 42.0705,6.8775 42.0705,8.43 L42.0705,20.952 C42.0705,22.5045 40.8105,23.7645 39.258,23.7645 L39.258,23.766 Z M24.621,54.375 L6.5805,54.375 C5.02719914,54.375 3.768,53.1158009 3.768,51.5625 L3.768,39.405 C3.768,37.851 5.028,36.5925 6.5805,36.5925 C7.095,36.5925 7.518,37.0125 7.518,37.53 C7.51635323,38.0470833 7.0975833,38.4658532 6.5805,38.4675 C6.0634167,38.4691468 5.64464677,38.8879167 5.643,39.405 L5.643,51.5625 C5.643,52.0785 6.0645,52.5 6.5805,52.5 L24.621,52.5 C25.1380833,52.4983532 25.5568532,52.0795833 25.5585,51.5625 L25.5585,39.405 C25.5568532,38.8879167 25.1380833,38.4691468 24.621,38.4675 C24.1039167,38.4658532 23.6851468,38.0470833 23.6835,37.53 C23.6835,37.014 24.105,36.5925 24.621,36.5925 C26.1735,36.5925 27.4335,37.8525 27.4335,39.405 L27.4335,51.5625 C27.4335,53.115 26.1735,54.375 24.621,54.375 Z M53.4135,54.375 L35.373,54.375 C33.8196991,54.375 32.5605,53.1158009 32.5605,51.5625 L32.5605,39.405 C32.5605,37.851 33.8205,36.5925 35.373,36.5925 C35.889,36.5925 36.3105,37.0125 36.3105,37.53 C36.3088532,38.0470833 35.8900833,38.4658532 35.373,38.4675 C34.8559167,38.4691468 34.4371468,38.8879167 34.4355,39.405 L34.4355,51.5625 C34.4355,52.0785 34.857,52.5 35.373,52.5 L53.4135,52.5 C53.9305833,52.4983532 54.3493532,52.0795833 54.351,51.5625 L54.351,39.405 C54.3493532,38.8879167 53.9305833,38.4691468 53.4135,38.4675 C52.8964167,38.4658532 52.4776468,38.0470833 52.476,37.53 C52.476,37.014 52.899,36.5925 53.4135,36.5925 C54.9675,36.5925 56.226,37.8525 56.226,39.405 L56.226,51.5625 C56.226,53.115 54.966,54.375 53.4135,54.375 Z" id="形状" fill="#3C3C3C"></path>
                        <path d="M50.01,37.02 L46.5345,37.02 L46.5345,29.925 C46.5164744,28.773139 45.577502,27.848859 44.4255,27.849 L32.0625,27.849 L32.0625,24.8265 C34.0081864,23.8630986 35.0376652,21.6896587 34.5504686,19.5738899 C34.0632721,17.4581211 32.1869192,15.9538048 30.0158366,15.938249 C27.844754,15.9229327 25.9472009,17.400417 25.4299696,19.5090445 C24.9127383,21.617672 25.9112088,23.8055303 27.843,24.7965 L27.843,27.849 L15.504,27.849 C14.3521426,27.8678447 13.4285265,28.8074889 13.4295,29.9595 L13.4295,37.02 L9.99,37.02 C9.76070129,37.0214455 9.55338948,37.1567224 9.45972148,37.366022 C9.36605348,37.5753215 9.40330252,37.8200469 9.555,37.992 L15.123,44.256 C15.141,44.274 15.153,44.2905 15.1695,44.3025 C15.2852265,44.4060222 15.4373615,44.4592898 15.5923886,44.4505678 C15.7474157,44.4418458 15.8926156,44.3718497 15.996,44.256 L21.5625,37.992 C21.7120049,37.8186529 21.747317,37.5742963 21.6530048,37.365715 C21.5586926,37.1571337 21.3519015,37.0222467 21.123,37.02 L17.649,37.02 L17.649,32.0685 L42.315,32.0685 L42.315,37.0185 L38.8755,37.0185 C38.6462013,37.0199455 38.4388895,37.1552224 38.3452215,37.364522 C38.2515535,37.5738215 38.2888025,37.8185469 38.4405,37.9905 L44.0085,44.256 C44.0265,44.274 44.0385,44.2905 44.055,44.3025 C44.2957979,44.5170765 44.6648392,44.496276 44.88,44.256 L50.448,37.992 C50.5975049,37.8186529 50.632817,37.5742963 50.5385048,37.365715 C50.4441926,37.1571337 50.2374015,37.0222467 50.0085,37.02 L50.01,37.02 Z" id="路径" fill="#CF0010"></path>
                    </g>
                </g>
            </g>
        </g>
    </g>
</svg>