<?xml version="1.0" encoding="UTF-8"?>
<svg width="65px" height="65px" viewBox="0 0 65 65" version="1.1" xmlns="http://www.w3.org/2000/svg" xmlns:xlink="http://www.w3.org/1999/xlink">
    <title>logo3</title>
    <defs>
        <rect id="path-1" x="0" y="0" width="65" height="65"></rect>
        <filter id="filter-3">
            <feColorMatrix in="SourceGraphic" type="matrix" values="0 0 0 0 0.811765 0 0 0 0 0.000000 0 0 0 0 0.062745 0 0 0 1.000000 0"></feColorMatrix>
        </filter>
    </defs>
    <g id="页面-1" stroke="none" stroke-width="1" fill="none" fill-rule="evenodd">
        <g id="SDSF-产品中心（云专线）" transform="translate(-409.000000, -2165.000000)">
            <g id="编组-6备份-12" transform="translate(360.000000, 2112.000000)">
                <g id="logo3" transform="translate(49.000000, 53.000000)">
                    <mask id="mask-2" fill="white">
                        <use xlink:href="#path-1"></use>
                    </mask>
                    <g id="蒙版"></g>
                    <g filter="url(#filter-3)" id="3.1-客服">
                        <g mask="url(#mask-2)">
                            <g transform="translate(12.000000, 12.000000)" fill="#000000" fill-rule="nonzero">
                                <rect id="矩形" opacity="0" x="0" y="0" width="40" height="40"></rect>
                                <path d="M34.7750793,30.3450935 L29.5910475,30.3450935 C28.9710043,30.3450935 28.4686909,29.8410511 28.4686909,29.2188737 L28.4569179,15.9562573 C28.3862801,11.3174918 24.6307021,7.77738126 20,7.75375427 C15.3692979,7.77738126 11.6137199,11.3174918 11.5391578,15.9562573 L11.5313091,27.4626009 C11.5313091,27.4626009 12.9793846,32.4793982 16.4288653,31.8965991 C16.691795,31.0184627 17.6179354,30.6876848 18.2144327,30.6876848 L21.8483565,30.6876848 C23.0884429,30.6876848 24.0930698,31.6957697 24.0930698,32.9401245 L24.0930698,33.6449963 C24.0930698,34.889351 23.0884429,35.8974359 21.8483565,35.8974359 L18.5048326,35.8974359 C17.5551462,35.8974359 16.7467355,35.2988855 16.4170923,34.4601274 C16.3621518,34.4286248 15.9147789,34.4680031 15.4752546,34.3734951 C12.0728658,33.1527674 10.5816228,30.3293422 10.5816228,30.3293422 C10.5227579,30.3411557 10.4638931,30.3490313 10.4050282,30.3490313 L5.22492072,30.3490313 C4.60487755,30.3490313 4.1025641,29.8449889 4.1025641,29.2228115 L4.1025641,17.6770896 C4.1025641,17.0549122 4.60487755,16.5508698 5.22492072,16.5508698 L8.92948243,16.5508698 C8.92948243,15.5979146 8.92555811,15.9523194 8.92555811,15.9523194 C9.05898512,5.16659899 19.8155568,5.1311585 19.8155568,5.1311585 C19.9018919,5.12722067 20.1020324,5.12722067 20.1844432,5.1311585 C20.1844432,5.1311585 30.9410149,5.17053682 31.0744419,15.9523194 C31.0744419,15.9523194 31.0744419,15.5939768 31.0705176,16.5508698 L34.7750793,16.5508698 C35.3951224,16.5508698 35.8974359,17.0549122 35.8974359,17.6770896 L35.8974359,29.2188737 C35.8974359,29.8410511 35.3951224,30.3450935 34.7750793,30.3450935 L34.7750793,30.3450935 Z M9.16101754,19.8507726 C9.16101754,19.4688029 8.9569527,19.1577143 8.70579597,19.1577143 L6.79072594,19.1577143 C6.53956921,19.1577143 6.33550437,19.4688029 6.33550437,19.8507726 L6.33550437,26.9585584 C6.33550437,27.3444659 6.53956921,27.6516168 6.79072594,27.6516168 L8.70579597,27.6516168 C8.9569527,27.6516168 9.16101754,27.3405281 9.16101754,26.9585584 L9.16101754,19.8507726 L9.16101754,19.8507726 Z M33.6644956,19.8507726 C33.6644956,19.4688029 33.4604308,19.1577143 33.2092741,19.1577143 L31.2981284,19.1577143 C31.0469716,19.1577143 30.8389825,19.4688029 30.8389825,19.8507726 L30.8389825,26.9585584 C30.8389825,27.3444659 31.0469716,27.6516168 31.2981284,27.6516168 L33.2092741,27.6516168 C33.4604308,27.6516168 33.6644956,27.3405281 33.6644956,26.9585584 L33.6644956,19.8507726 L33.6644956,19.8507726 Z" id="形状"></path>
                            </g>
                        </g>
                    </g>
                </g>
            </g>
        </g>
    </g>
</svg>