<?xml version="1.0" encoding="UTF-8"?>
<svg width="60px" height="60px" viewBox="0 0 60 60" version="1.1" xmlns="http://www.w3.org/2000/svg" xmlns:xlink="http://www.w3.org/1999/xlink">
    <title>灵活部署</title>
    <g id="页面-1" stroke="none" stroke-width="1" fill="none" fill-rule="evenodd">
        <g id="SDSF-产品中心（全球加速）" transform="translate(-1000.000000, -868.000000)" fill-rule="nonzero">
            <g id="产品优势" transform="translate(360.000000, 625.000000)">
                <g id="编组-6备份-7" transform="translate(610.000000, 243.000000)">
                    <g id="灵活部署" transform="translate(30.000000, 0.000000)">
                        <rect id="矩形" fill="#000000" opacity="0" x="0" y="0" width="60" height="60"></rect>
                        <g id="制度分类" transform="translate(3.000000, 4.000000)">
                            <rect id="矩形" fill="#000000" opacity="0" x="0" y="0" width="53" height="53"></rect>
                            <path d="M7.61875,53 C5.9625,53 4.6375,52.00625 3.64375,50.68125 C3.3125,50.01875 3.3125,49.35625 3.3125,48.69375 L3.3125,4.30625 C3.3125,1.9875 5.3,0 7.61875,0 L45.38125,0 C47.7,0 49.6875,1.9875 49.6875,4.30625 L49.6875,48.69375 C49.6875,51.0125 47.7,53 45.38125,53 C44.71875,53 44.05625,52.66875 43.39375,52.3375 L27.825,44.05625 C26.83125,43.725 25.8375,43.725 25.175,44.05625 L9.60625,52.3375 C8.94375,52.66875 8.28125,53 7.61875,53 Z M7.61875,2.98125 C6.625,2.98125 5.9625,3.64375 5.9625,4.30625 L5.9625,48.69375 C5.9625,49.025 5.9625,49.025 6.29375,49.35625 C6.625,50.01875 7.61875,50.35 8.28125,50.01875 L23.85,41.7375 C25.50625,40.74375 27.825,40.74375 29.48125,41.7375 L45.05,50.01875 C46.04375,50.35 47.0375,49.6875 47.36875,48.69375 L47.36875,4.30625 C47.36875,3.64375 46.70625,2.98125 46.04375,2.98125 L7.61875,2.98125 Z" id="形状" stroke="#3C3C3C" fill="#3C3C3C"></path>
                            <path d="M15.56875,10.93125 L37.43125,10.93125 C38.09375,10.93125 38.75625,11.59375 38.75625,12.25625 L38.75625,12.5875 C38.75625,13.25 38.09375,13.9125 37.43125,13.9125 L15.56875,13.9125 C14.575,13.9125 13.9125,13.25 13.9125,12.5875 L13.9125,12.25625 C13.9125,11.59375 14.575,10.93125 15.56875,10.93125 L15.56875,10.93125 Z M15.56875,19.875 L37.43125,19.875 C38.09375,19.875 38.75625,20.5375 38.75625,21.2 L38.75625,21.53125 C38.75625,22.19375 38.09375,22.85625 37.43125,22.85625 L15.56875,22.85625 C14.90625,22.85625 14.24375,22.19375 14.24375,21.53125 L14.24375,21.2 C13.9125,20.5375 14.575,19.875 15.56875,19.875 Z M15.56875,28.4875 L37.43125,28.4875 C38.09375,28.4875 38.75625,29.15 38.75625,29.8125 L38.75625,30.14375 C38.75625,30.80625 38.09375,31.46875 37.43125,31.46875 L15.56875,31.46875 C14.90625,31.46875 14.24375,30.80625 14.24375,30.14375 C13.9125,29.15 14.575,28.4875 15.56875,28.4875 Z" id="形状" stroke="#CF0010" fill="#CF0010"></path>
                        </g>
                    </g>
                </g>
            </g>
        </g>
    </g>
</svg>