<?xml version="1.0" encoding="UTF-8"?>
<svg width="60px" height="60px" viewBox="0 0 60 60" version="1.1" xmlns="http://www.w3.org/2000/svg" xmlns:xlink="http://www.w3.org/1999/xlink">
    <title>轻资产</title>
    <g id="页面-1" stroke="none" stroke-width="1" fill="none" fill-rule="evenodd">
        <g id="SDSF-产品中心（终端安全防护）" transform="translate(-390.000000, -725.000000)" fill-rule="nonzero">
            <g id="产品优势" transform="translate(360.000000, 625.000000)">
                <g id="编组-6" transform="translate(0.000000, 100.000000)">
                    <g id="轻资产" transform="translate(30.000000, 0.000000)">
                        <rect id="矩形" fill="#000000" opacity="0" x="0" y="0" width="60" height="60"></rect>
                        <g id="店铺" transform="translate(5.000000, 5.000000)">
                            <rect id="矩形" fill="#000000" opacity="0" x="0" y="0" width="50" height="50"></rect>
                            <path d="M41.9019231,3.84615386 C44.1596154,3.84615386 46.05,5.34423076 46.275,7.30961538 L47.7480769,20.1615385 C48.0362525,20.9926749 48.1367365,21.8773282 48.0423077,22.7519231 L48.0769231,23.0769231 L48,23.0769231 C47.4653846,26.3403846 44.2596154,28.8461539 40.3846154,28.8461539 C36.5096154,28.8461539 33.3038461,26.3403846 32.7692308,23.0769231 L32.6153846,23.0769231 C32.0807692,26.3403846 28.875,28.8461539 25,28.8461539 C21.125,28.8461539 17.9192308,26.3403846 17.3846154,23.0769231 L17.2307692,23.0769231 C16.6961539,26.3403846 13.4903846,28.8461539 9.61538462,28.8461539 C5.74038462,28.8461539 2.53461538,26.3403846 2,23.0769231 L1.9230769,23.0769231 L1.95769229,22.7634615 C1.86144805,21.8823906 1.96261442,20.9909441 2.25384614,20.1538461 L3.725,7.30961538 C3.95,5.34423076 5.84038462,3.84615386 8.0980769,3.84615386 L41.9038461,3.84615386 L41.9019231,3.84615386 Z M41.9019231,7.69230771 L8.09615386,7.69230771 C7.75961538,7.69230771 7.58846157,7.79038462 7.5519231,7.76923076 L7.54423076,7.74615386 L6.025,21.0153846 L5.88653848,21.4173077 C5.80843314,21.6417412 5.7687734,21.8777491 5.76922685,22.1153846 L5.7730769,22.2307692 L5.78653848,22.3961539 L5.79615386,22.4576923 C6.00384614,23.7230769 7.40384614,24.8576923 9.26153848,24.9884615 L9.61538462,25 C11.5288461,25 13.0269231,23.9384615 13.3807692,22.6923077 L13.4346154,22.4576923 L13.9615385,19.2307692 L20.6538461,19.2307692 L21.1807692,22.4557692 C21.4019231,23.8019231 22.9692308,24.998077 25,24.9980769 C26.9134615,24.9980769 28.4115385,23.9365384 28.7653846,22.6903846 L28.8192308,22.4557692 L29.3461539,19.2307692 L36.0384615,19.2307692 L36.5653846,22.4557692 C36.7865385,23.8019231 38.3538461,24.998077 40.3846154,24.9980769 C42.2980769,24.9980769 43.7961539,23.9365384 44.15,22.6903846 L44.2115385,22.3980769 L44.2269231,22.2269231 L44.2307692,22.1153846 C44.2307692,21.9557692 44.2115385,21.8 44.1788461,21.6480769 L44.1134615,21.4192308 L43.975,21.0192308 L42.4538461,7.74615386 C42.4615384,7.81538462 42.3384615,7.7269231 42.0557692,7.7 L41.9038461,7.69230771 L41.9019231,7.69230771 Z" id="形状" fill="#3C3C3C"></path>
                            <path d="M3.84615386,26.9230769 L7.69230771,26.9230769 L7.69230771,42.3076923 L42.3076923,42.3076923 L42.3076923,26.9230769 L46.1538463,26.9230769 L46.1538463,42.3076923 C46.1544831,44.3204322 44.6032251,45.9932753 42.5961539,46.1442308 L42.3076923,46.1538463 L7.69230771,46.1538463 C5.67956779,46.1544831 4.00672466,44.6032251 3.85576924,42.5961539 L3.84615386,42.3076923 L3.84615386,26.9230769 L3.84615386,26.9230769 Z" id="路径" fill="#3C3C3C"></path>
                            <path d="M19.2307692,32.6923077 L30.7692308,32.6923077 C31.2792625,32.6923077 31.7684046,32.894917 32.1290515,33.2555639 C32.4896984,33.6162108 32.6923077,34.1053529 32.6923077,34.6153846 L32.6923077,42.3076923 L17.3076923,42.3076923 L17.3076923,34.6153846 C17.3076923,34.1053529 17.5103016,33.6162108 17.8709485,33.2555639 C18.2315954,32.894917 18.7207375,32.6923077 19.2307692,32.6923077 L19.2307692,32.6923077 Z" id="路径" fill="#CF0010"></path>
                        </g>
                    </g>
                </g>
            </g>
        </g>
    </g>
</svg>