<?xml version="1.0" encoding="UTF-8"?>
<svg width="70px" height="70px" viewBox="0 0 70 70" version="1.1" xmlns="http://www.w3.org/2000/svg" xmlns:xlink="http://www.w3.org/1999/xlink">
    <title>跨链数据迁移</title>
    <defs>
        <linearGradient x1="100%" y1="27.6369704%" x2="14.4115551%" y2="82.4459877%" id="linearGradient-1">
            <stop stop-color="#FF8888" offset="0%"></stop>
            <stop stop-color="#CF0010" offset="100%"></stop>
        </linearGradient>
    </defs>
    <g id="页面-1" stroke="none" stroke-width="1" fill="none" fill-rule="evenodd">
        <g id="SDSF-产品中心（可信跨链服务）" transform="translate(-380.000000, -1980.000000)">
            <g id="产品优势备份" transform="translate(360.000000, 1880.000000)">
                <g id="编组-6" transform="translate(0.000000, 100.000000)">
                    <g id="跨链数据迁移" transform="translate(20.000000, 0.000000)">
                        <rect id="矩形" x="0" y="0" width="70" height="70"></rect>
                        <g id="编组-7" transform="translate(9.000000, 10.000000)">
                            <rect id="矩形" stroke="#FFC8C8" fill="url(#linearGradient-1)" x="9.5" y="0.5" width="35" height="28" rx="5"></rect>
                            <rect id="矩形" stroke-opacity="0.302418529" stroke="#FFC8C8" x="0.5" y="10.5" width="51" height="39" rx="5"></rect>
                            <g id="工具" transform="translate(16.000000, 20.000000)"></g>
                            <rect id="矩形" fill="#000000" fill-rule="nonzero" opacity="0" x="16" y="20" width="21" height="21"></rect>
                            <g id="编组-8" transform="translate(16.770000, 20.770000)" fill="#CF0010" fill-rule="nonzero" stroke="#CF0010" stroke-width="0.2">
                                <path d="M16.8054,2.3902 L13.4902,2.3902 L13.4902,1.295 C13.4941836,0.996766333 13.3779783,0.709477547 13.1677736,0.497880793 C12.957569,0.286284039 12.6710535,0.168184994 12.3728,0.170174632 L1.2728,0.170174632 C0.977112362,0.172144923 0.694422092,0.291988168 0.487429042,0.503148863 C0.280435992,0.714309559 0.166251016,0.999332336 0.170100876,1.295 L0.170100876,14.615 C0.174099142,14.9093987 0.294801472,15.1901876 0.505748139,15.395583 C0.716694806,15.6009784 1.00060202,15.7141515 1.295,15.7102 L4.6102,15.7102 L4.6102,16.8202 C4.6102,17.4332361 5.10716393,17.9302 5.7202,17.9302 L16.8202,17.9302 C17.4332361,17.9302 17.9302,17.4332361 17.9302,16.8202 L17.9302,3.5002 C17.9302,3.2032274 17.8112509,2.91862829 17.5998735,2.71003219 C17.3884961,2.50143609 17.1023462,2.38624036 16.8054,2.3902 Z M16.8054,16.798 L5.7054,16.798 L5.7054,13.4902 C5.66118693,13.2221664 5.42945571,13.0255285 5.1578,13.0255285 C4.88614429,13.0255285 4.65441307,13.2221664 4.6102,13.4902 L4.6102,14.6002 L1.295,14.6002 L1.295,1.2802 L12.395,1.2802 L12.395,2.3902 L5.735,2.3902 C5.43676633,2.38621639 5.14947755,2.50242169 4.93788079,2.71262636 C4.72628404,2.92283103 4.60818499,3.20934654 4.6102,3.5076 L4.6102,6.8302 C4.6102,7.13671804 4.85868196,7.3852 5.1652,7.3852 C5.47171804,7.3852 5.7202,7.13671804 5.7202,6.8302 L5.7202,3.5076 L16.8202,3.5076 L16.8054,16.798 Z" id="形状"></path>
                                <path d="M16.8054,18.1004 L5.7054,18.1004 C4.99187252,18.0963573 4.41444275,17.5189275 4.4104,16.8054 L4.4104,15.8804 L1.295,15.8804 C0.58267119,15.8804116 0.00407045025,15.3051172 -7.51896323e-13,14.5928 L-7.51896323e-13,1.2728 C0.0121136163,0.566275779 0.588371948,-2.62900812e-15 1.295,-2.62900812e-15 L12.395,-2.62900812e-15 C13.1102088,-2.62900812e-15 13.69,0.579791249 13.69,1.295 L13.69,2.2126 L16.8276,2.2126 C17.5428088,2.2126 18.1226,2.79239125 18.1226,3.5076 L18.1226,16.8276 C18.1167624,17.1710717 17.9746943,17.4981507 17.7276603,17.7368577 C17.4806262,17.9755648 17.14887,18.1063385 16.8054,18.1004 L16.8054,18.1004 Z M1.2654,0.3404 C1.02003224,0.348126014 0.78779914,0.45307196 0.619852698,0.632122298 C0.451906257,0.811172637 0.362022734,1.04964028 0.37,1.295 L0.37,14.615 C0.374063899,15.1229712 0.787012588,15.5326163 1.295,15.5326 L4.8026,15.5326 L4.8026,16.8276 C4.8026,17.3384634 5.21673661,17.7526 5.7276,17.7526 L16.8276,17.7526 C17.3384634,17.7526 17.7526,17.3384634 17.7526,16.8276 L17.7526,3.5076 C17.7526,2.99673661 17.3384634,2.5826 16.8276,2.5826 L13.2978,2.5826 L13.2978,1.295 C13.2978,0.784136606 12.8836634,0.37 12.3728,0.37 L1.2654,0.3404 Z M16.9904,16.9904 L5.5426,16.9904 L5.5426,13.4902 C5.5426,13.2858546 5.37694536,13.1202 5.1726,13.1202 C4.96825464,13.1202 4.8026,13.2858546 4.8026,13.4902 L4.8026,14.7852 L1.1026,14.7852 L1.1026,1.11 L12.5578,1.11 L12.5578,2.59 L5.7276,2.59 C5.21673661,2.59 4.8026,3.00413661 4.8026,3.515 L4.8026,6.8302 C4.8026,7.03454536 4.96825464,7.2002 5.1726,7.2002 C5.37694536,7.2002 5.5426,7.03454536 5.5426,6.8302 L5.5426,3.3226 L16.9904,3.3226 L16.9904,16.9904 Z M5.8904,16.6204 L16.6204,16.6204 L16.6204,3.6926 L5.9126,3.6926 L5.9126,6.8302 C5.9126,7.23889071 5.58129071,7.5702 5.1726,7.5702 C4.76390929,7.5702 4.4326,7.23889071 4.4326,6.8302 L4.4326,3.5076 C4.43664275,2.79407252 5.01407252,2.21664275 5.7276,2.2126 L12.1878,2.2126 L12.1878,1.4726 L1.48,1.4726 L1.48,14.4078 L4.44,14.4078 L4.44,13.4902 C4.44,13.0815093 4.77130929,12.7502 5.18,12.7502 C5.58869071,12.7502 5.92,13.0815093 5.92,13.4902 L5.8904,16.6204 Z" id="形状"></path>
                                <path d="M12.1434,9.6052 L4.0626,9.6052 C3.85038844,9.58057261 3.64287968,9.67993589 3.52901759,9.86070004 C3.4151555,10.0414642 3.4151555,10.2715358 3.52901759,10.4523 C3.64287968,10.6330641 3.85038844,10.7324274 4.0626,10.7078 L12.1434,10.7078 L9.7902,13.0906 C9.5737845,13.307285 9.5737845,13.658315 9.7902,13.875 C9.89299786,13.9784853 10.0328349,14.036681 10.1787,14.036681 C10.3245651,14.036681 10.4644021,13.9784853 10.5672,13.875 L13.8972,10.545 C14.1136155,10.328315 14.1136155,9.97728498 13.8972,9.7606 L10.5302,6.4454 C10.3077879,6.31894435 10.0277498,6.36091453 9.85218172,6.54701672 C9.67661362,6.73311891 9.65101366,7.01512502 9.7902,7.2298 L12.1434,9.6052 Z" id="路径"></path>
                                <path d="M10.1602,14.1118 C9.90627127,14.1111795 9.67762093,13.9579363 9.58053054,13.7233012 C9.48344015,13.488666 9.5369549,13.2186649 9.7162,13.0388 L11.9362,10.7818 L4.0626,10.7818 C3.82295946,10.807908 3.58947633,10.6947617 3.46147601,10.4904944 C3.3334757,10.2862271 3.3334757,10.0267729 3.46147601,9.82250561 C3.58947633,9.61823829 3.82295946,9.50509201 4.0626,9.5312 L11.9658,9.5312 L9.7458,7.3112 C9.62842399,7.1931005 9.56200825,7.03370274 9.5608,6.8672 C9.55867063,6.70003451 9.62560323,6.53939627 9.7458,6.4232 C9.99444,6.1864 10.38516,6.1864 10.6338,6.4232 L13.9564,9.7384 C14.2010147,9.98386255 14.2010147,10.3809374 13.9564,10.6264 L10.6264,13.9564 C10.4993964,14.0708191 10.3304543,14.1271331 10.1602,14.1118 L10.1602,14.1118 Z M4.0626,9.6718 C3.79861312,9.6757704 3.5855704,9.88881312 3.5816,10.1528 C3.5855704,10.4167869 3.79861312,10.6298296 4.0626,10.6338 L12.321,10.6338 L12.1952,10.7596 L9.7902,13.1424 C9.69982259,13.2326278 9.64903649,13.3550928 9.64903649,13.4828 C9.64903649,13.6105072 9.69982259,13.7329722 9.7902,13.8232 C9.97723373,14.0065297 10.2765663,14.0065297 10.4636,13.8232 L13.7936,10.4932 C13.9769297,10.3061663 13.9769297,10.0068337 13.7936,9.8198 L10.5302,6.4972 C10.3406549,6.3129759 10.0389451,6.3129759 9.8494,6.4972 C9.75946764,6.58616057 9.70886166,6.70740173 9.70886166,6.8339 C9.70886166,6.96039827 9.75946764,7.08163943 9.8494,7.1706 L12.3506,9.6792 L4.0626,9.6718 Z" id="形状"></path>
                            </g>
                        </g>
                    </g>
                </g>
            </g>
        </g>
    </g>
</svg>