<?xml version="1.0" encoding="UTF-8"?>
<svg width="60px" height="60px" viewBox="0 0 60 60" version="1.1" xmlns="http://www.w3.org/2000/svg" xmlns:xlink="http://www.w3.org/1999/xlink">
    <title>算法适配</title>
    <g id="页面-1" stroke="none" stroke-width="1" fill="none" fill-rule="evenodd">
        <g id="SDSF-产品中心（智能AI边缘盒子）" transform="translate(-990.000000, -2841.000000)" fill-rule="nonzero">
            <g id="产品优势" transform="translate(361.000000, 2741.000000)">
                <g id="编组-6备份-6" transform="translate(610.000000, 100.000000)">
                    <g id="算法适配" transform="translate(19.000000, 0.000000)">
                        <rect id="矩形" fill="#000000" opacity="0" x="0" y="0" width="60" height="60"></rect>
                        <g id="数据连接" transform="translate(5.000000, 5.000000)">
                            <rect id="矩形" fill="#000000" opacity="0" x="0" y="0" width="50" height="50"></rect>
                            <path d="M25,9.375 C17.5208333,9.375 11.4583333,15.4375 11.4583333,22.9166667 C11.4583333,30.3958333 17.5208333,36.4583333 25,36.4583333 C32.4791667,36.4583333 38.5416667,30.3958333 38.5416667,22.9166667 C38.5416667,15.4375 32.4791667,9.375 25,9.375 Z M7.29166665,22.9166667 C7.29166665,13.1364583 15.2197917,5.20833335 25,5.20833335 C34.7802083,5.20833335 42.7083333,13.1364583 42.7083333,22.9166667 C42.7083333,32.696875 34.7802083,40.625 25,40.625 C15.2197917,40.625 7.29166665,32.696875 7.29166665,22.9166667 Z" id="形状" fill="#3C3C3C"></path>
                            <polygon id="路径" fill="#FFFFFF" points="19.7916667 32.2916667 30.2083333 32.2916667 30.2083333 42.7083333 19.7916667 42.7083333"></polygon>
                            <path d="M17.7083333,32.2916667 C17.7083333,31.1410735 18.6410735,30.2083333 19.7916667,30.2083333 L30.2083333,30.2083333 C31.3589265,30.2083333 32.2916667,31.1410735 32.2916667,32.2916667 L32.2916667,42.7083333 C32.2916667,43.8589265 31.3589265,44.7916667 30.2083333,44.7916667 L19.7916667,44.7916667 C18.6410735,44.7916667 17.7083333,43.8589265 17.7083333,42.7083333 L17.7083333,32.2916667 Z M21.875,34.375 L21.875,40.625 L28.125,40.625 L28.125,34.375 L21.875,34.375 Z" id="形状" fill="#CF0010"></path>
                            <polygon id="路径" fill="#FFFFFF" points="5.20833335 12.5 15.625 12.5 15.625 22.9166667 5.20833335 22.9166667"></polygon>
                            <path d="M3.125,12.5 C3.125,11.3494068 4.05774011,10.4166667 5.20833335,10.4166667 L15.625,10.4166667 C16.7755932,10.4166667 17.7083333,11.3494068 17.7083333,12.5 L17.7083333,22.9166667 C17.7083333,24.0672599 16.7755932,25 15.625,25 L5.20833335,25 C4.05774011,25 3.125,24.0672599 3.125,22.9166667 L3.125,12.5 Z M7.29166665,14.5833333 L7.29166665,20.8333333 L13.5416667,20.8333333 L13.5416667,14.5833333 L7.29166665,14.5833333 L7.29166665,14.5833333 Z" id="形状" fill="#3C3C3C"></path>
                            <polygon id="路径" fill="#FFFFFF" points="34.375 12.5 44.7916667 12.5 44.7916667 22.9166667 34.375 22.9166667"></polygon>
                            <path d="M32.2916667,12.5 C32.2916667,11.3494068 33.2244068,10.4166667 34.375,10.4166667 L44.7916667,10.4166667 C45.9422599,10.4166667 46.875,11.3494068 46.875,12.5 L46.875,22.9166667 C46.875,24.0672599 45.9422599,25 44.7916667,25 L34.375,25 C33.2244068,25 32.2916667,24.0672599 32.2916667,22.9166667 L32.2916667,12.5 Z M36.4583333,14.5833333 L36.4583333,20.8333333 L42.7083333,20.8333333 L42.7083333,14.5833333 L36.4583333,14.5833333 Z" id="形状" fill="#3C3C3C"></path>
                        </g>
                    </g>
                </g>
            </g>
        </g>
    </g>
</svg>