<?xml version="1.0" encoding="UTF-8"?>
<svg width="60px" height="60px" viewBox="0 0 60 60" version="1.1" xmlns="http://www.w3.org/2000/svg" xmlns:xlink="http://www.w3.org/1999/xlink">
    <title>智能防护</title>
    <g id="页面-1" stroke="none" stroke-width="1" fill="none" fill-rule="evenodd">
        <g id="SDSF-产品中心（云防火墙）" transform="translate(-1000.000000, -1003.000000)" fill-rule="nonzero">
            <g id="产品优势" transform="translate(360.000000, 903.000000)">
                <g id="编组-6备份-6" transform="translate(610.000000, 100.000000)">
                    <g id="智能防护" transform="translate(30.000000, 0.000000)">
                        <rect id="矩形" fill="#000000" opacity="0" x="0" y="0" width="60" height="60"></rect>
                        <g id="会员卡" transform="translate(5.000000, 5.000000)">
                            <rect id="矩形" fill="#000000" opacity="0" x="0" y="0" width="50" height="50"></rect>
                            <path d="M42.3076923,7.69230771 C44.4318644,7.69230771 46.1538461,9.41428942 46.1538461,11.5384615 L46.1538461,38.4615385 C46.1538461,40.5857106 44.4318644,42.3076923 42.3076923,42.3076923 L7.69230771,42.3076923 C5.56813561,42.3076923 3.84615386,40.5857106 3.84615386,38.4615385 L3.84615386,11.5384615 C3.84615386,9.41428942 5.56813561,7.69230771 7.69230771,7.69230771 L42.3076923,7.69230771 Z M42.3076923,11.5384615 L7.69230771,11.5384615 L7.69230771,38.4615385 L42.3076923,38.4615385 L42.3076923,11.5384615 Z" id="形状" fill="#3C3C3C"></path>
                            <path d="M31.2192308,29.75 C28.8153846,29.1846154 27.5807692,27.8403846 27.3692308,27.5576923 C27.1576923,27.2730769 27.1576923,26.9211538 27.1576923,26.4961539 C27.1710941,26.3230911 27.2188165,26.1544283 27.2980769,26 L27.3692308,25.8596154 C27.4384615,25.7173077 27.7211539,25.0096154 27.9346154,24.5846154 C27.9346154,24.5134615 28.075,24.3 28.2173077,24.1615385 C28.4288462,24.0192308 28.6403846,23.8057692 28.9942308,23.3826923 C29.5615385,22.5326923 29.276923,21.7538461 28.7826923,21.4019231 L28.7826923,21.2596154 C29.0653846,20.4807692 29.2057692,19.5596154 29.1365385,18.4288461 C29.0653846,17.225 27.9346154,15.3846154 25.0346154,15.3846154 C22.1346154,15.3846154 21.0019231,17.1538461 20.9307692,18.4288461 C20.8596154,19.5596154 21.0019231,20.4807692 21.2846154,21.1884615 L21.2846154,21.3288461 C20.7903846,21.7538461 20.5769231,22.5326923 21.0730769,23.3826923 C21.3557692,23.8057692 21.6384615,24.0173077 21.85,24.1596154 C21.9923077,24.3019231 22.1326923,24.5134615 22.1326923,24.5846154 C22.3461538,25.0096154 22.6288461,25.6461539 22.7,25.8596154 L22.7692308,26 C22.8403846,26.2115385 22.9115385,26.3538461 22.9115385,26.4961539 C22.9115385,26.85 22.9115385,27.273077 22.7,27.5576923 C22.4884615,27.8403846 21.2846154,29.1846154 18.8788461,29.75 C16.7576923,30.2461539 15.3846154,31.4615385 15.3846154,34.2538461 C15.3846154,34.3961539 15.5269231,34.6076923 15.7384615,34.6076923 L34.2615385,34.6076923 C34.4019231,34.6076923 34.6153846,34.4653846 34.6153846,34.2538461 C34.6153846,31.3192308 33.4115385,30.2461539 31.2192308,29.75 Z" id="路径" fill="#CF0010"></path>
                        </g>
                    </g>
                </g>
            </g>
        </g>
    </g>
</svg>