<?xml version="1.0" encoding="UTF-8"?>
<svg width="60px" height="60px" viewBox="0 0 60 60" version="1.1" xmlns="http://www.w3.org/2000/svg" xmlns:xlink="http://www.w3.org/1999/xlink">
    <title>赋能硬件</title>
    <g id="页面-1" stroke="none" stroke-width="1" fill="none" fill-rule="evenodd">
        <g id="SDSF-产品中心（智能AI边缘盒子）" transform="translate(-380.000000, -3034.000000)" fill-rule="nonzero">
            <g id="产品优势" transform="translate(361.000000, 2741.000000)">
                <g id="编组-6备份-7" transform="translate(1.000000, 293.000000)">
                    <g id="赋能硬件" transform="translate(18.000000, 0.000000)">
                        <rect id="矩形" fill="#000000" opacity="0" x="0" y="0" width="60" height="60"></rect>
                        <g id="数据输入" transform="translate(5.000000, 5.000000)">
                            <rect id="矩形" fill="#000000" opacity="0" x="0" y="0" width="50" height="50"></rect>
                            <path d="M6.25,7.29166665 C6.25,6.14107343 7.18274013,5.20833335 8.33333335,5.20833335 L39.5833333,5.20833335 C40.7339265,5.20833335 41.6666667,6.14107345 41.6666667,7.29166665 L41.6666667,13.5416667 C41.6666667,14.6922599 40.7339266,15.625 39.5833333,15.625 L8.33333335,15.625 C7.18274011,15.625 6.25,14.6922599 6.25,13.5416667 L6.25,7.29166665 Z M10.4166667,9.375 L10.4166667,11.4583333 L37.5,11.4583333 L37.5,9.375 L10.4166667,9.375 Z M6.25,19.7916667 C6.25,18.6410734 7.18274013,17.7083333 8.33333335,17.7083333 L39.5833333,17.7083333 C40.7339265,17.7083333 41.6666667,18.6410735 41.6666667,19.7916667 L41.6666667,26.0416667 C41.6666667,27.1922599 40.7339266,28.125 39.5833333,28.125 L8.33333335,28.125 C7.18274011,28.125 6.25,27.1922599 6.25,26.0416667 L6.25,19.7916667 L6.25,19.7916667 Z M10.4166667,21.875 L10.4166667,23.9583333 L37.5,23.9583333 L37.5,21.875 L10.4166667,21.875 Z M6.25,32.2916667 C6.25,31.1410734 7.18274013,30.2083333 8.33333335,30.2083333 L25,30.2083333 L25,34.375 L10.4166667,34.375 L10.4166667,36.4583333 L25,36.4583333 L25,40.625 L8.33333335,40.625 C7.18274011,40.625 6.25,39.6922599 6.25,38.5416667 L6.25,32.2916667 L6.25,32.2916667 Z" id="形状" fill="#3C3C3C"></path>
                            <path d="M34.375,29.3458333 L28.7354167,34.9854167 C27.9221209,35.798958 27.9221209,37.1177086 28.7354167,37.93125 L34.375,43.5708333 L37.3208333,40.625 L33.1541667,36.4583333 L37.3208333,32.2916667 L34.375,29.3458333 Z" id="路径" fill="#CF0010"></path>
                            <polygon id="路径" fill="#CF0010" points="30.2083333 34.375 43.75 34.375 43.75 38.5416667 30.2083333 38.5416667"></polygon>
                        </g>
                    </g>
                </g>
            </g>
        </g>
    </g>
</svg>