<?xml version="1.0" encoding="UTF-8"?>
<svg width="60px" height="60px" viewBox="0 0 60 60" version="1.1" xmlns="http://www.w3.org/2000/svg" xmlns:xlink="http://www.w3.org/1999/xlink">
    <title>可视可溯</title>
    <g id="页面-1" stroke="none" stroke-width="1" fill="none" fill-rule="evenodd">
        <g id="SDSF-产品中心（云防火墙）" transform="translate(-390.000000, -1171.000000)" fill-rule="nonzero">
            <g id="产品优势" transform="translate(360.000000, 903.000000)">
                <g id="编组-6备份" transform="translate(0.000000, 268.000000)">
                    <g id="可视可溯" transform="translate(30.000000, 0.000000)">
                        <rect id="矩形" fill="#000000" opacity="0" x="0" y="0" width="60" height="60"></rect>
                        <g id="轮播图" transform="translate(5.000000, 5.000000)">
                            <rect id="矩形" fill="#000000" opacity="0" x="0" y="0" width="50" height="50"></rect>
                            <path d="M17.3076923,36.5384615 L21.1538461,36.5384615 C22.4358974,36.5384615 23.0769231,37.1794872 23.0769231,38.4615385 L23.0769231,38.4615385 C23.0769231,39.7435897 22.4358974,40.3846154 21.1538461,40.3846154 L17.3076923,40.3846154 C16.025641,40.3846154 15.3846154,39.7435897 15.3846154,38.4615385 L15.3846154,38.4615385 C15.3846154,37.1794872 16.025641,36.5384615 17.3076923,36.5384615 L17.3076923,36.5384615 Z" id="路径" fill="#CF0010"></path>
                            <path d="M26.9230769,36.5384615 L26.9230769,36.5384615 C28.2051282,36.5384615 28.8461539,37.1794872 28.8461539,38.4615385 L28.8461539,38.4615385 C28.8461539,39.7435897 28.2051282,40.3846154 26.9230769,40.3846154 L26.9230769,40.3846154 C25.6410256,40.3846154 25,39.7435897 25,38.4615385 L25,38.4615385 C25,37.1794872 25.6410256,36.5384615 26.9230769,36.5384615 L26.9230769,36.5384615 Z" id="路径" fill="#3C3C3C"></path>
                            <path d="M32.6923077,36.5384615 L32.6923077,36.5384615 C33.974359,36.5384615 34.6153846,37.1794872 34.6153846,38.4615385 L34.6153846,38.4615385 C34.6153846,39.7435897 33.974359,40.3846154 32.6923077,40.3846154 L32.6923077,40.3846154 C31.4102564,40.3846154 30.7692308,39.7435897 30.7692308,38.4615385 L30.7692308,38.4615385 C30.7692308,37.1794872 31.4102564,36.5384615 32.6923077,36.5384615 L32.6923077,36.5384615 Z" id="路径" fill="#3C3C3C"></path>
                            <path d="M42.3076923,3.84615386 C44.4318644,3.84615386 46.1538461,5.56813559 46.1538461,7.69230771 L46.1538461,42.3076923 C46.1538461,44.4318644 44.4318644,46.1538461 42.3076923,46.1538461 L7.69230771,46.1538461 C5.56813559,46.1538461 3.84615386,44.4318644 3.84615386,42.3076923 L3.84615386,7.69230771 C3.84615386,5.56813559 5.56813559,3.84615386 7.69230771,3.84615386 L42.3076923,3.84615386 Z M42.3076923,7.69230771 L7.69230771,7.69230771 L7.69230771,42.3076923 L42.3076923,42.3076923 L42.3076923,7.69230771 Z" id="形状" fill="#3C3C3C"></path>
                            <path d="M25.4096154,23.1057692 L27.6673077,24.3942308 C33.2365385,27.5692308 36.9615385,28.1865385 42.8115385,25.4692308 L43.3846154,25.1961539 L45.0769231,28.65 C37.7884616,32.2173077 32.8038462,31.6230769 26.3365385,28.0576923 L23.7903846,26.6057692 L23.5557692,26.475 C22.9272571,26.1197688 22.2780158,25.8025332 21.6115385,25.525 C20.7307692,25.1711539 19.9769231,25 19.2596154,25 C15.5096154,25 11.625,26.6 7.59038462,29.8769231 L7.01346152,30.3576923 L4.525,27.4230769 C9.41346152,23.2730769 14.3326923,21.1538461 19.2596154,21.1538461 C20.5134615,21.1538461 21.7423077,21.4307692 23.0480769,21.9576923 C23.7826923,22.2538461 24.525,22.6192308 25.4096154,23.1057692 L25.4096154,23.1057692 Z" id="路径" fill="#3C3C3C"></path>
                            <path d="M11.5384615,13.4615385 C11.5384615,15.5857106 13.2604433,17.3076923 15.3846154,17.3076923 C17.5087875,17.3076923 19.2307692,15.5857106 19.2307692,13.4615385 C19.2307692,12.08744 18.4976965,10.8177207 17.3076923,10.1306715 C16.1176882,9.44362223 14.6515426,9.44362223 13.4615384,10.1306715 C12.2715343,10.8177207 11.5384615,12.08744 11.5384615,13.4615385 L11.5384615,13.4615385 Z" id="路径" fill="#CF0010"></path>
                        </g>
                    </g>
                </g>
            </g>
        </g>
    </g>
</svg>