<?xml version="1.0" encoding="UTF-8"?>
<svg width="60px" height="60px" viewBox="0 0 60 60" version="1.1" xmlns="http://www.w3.org/2000/svg" xmlns:xlink="http://www.w3.org/1999/xlink">
    <title>卓越性能</title>
    <g id="页面-1" stroke="none" stroke-width="1" fill="none" fill-rule="evenodd">
        <g id="SDSF-产品中心（智能边缘云）" transform="translate(-390.000000, -893.000000)" fill-rule="nonzero">
            <g id="产品优势" transform="translate(360.000000, 625.000000)">
                <g id="编组-6备份" transform="translate(0.000000, 268.000000)">
                    <g id="卓越性能" transform="translate(30.000000, 0.000000)">
                        <rect id="矩形" fill="#000000" opacity="0" x="0" y="0" width="60" height="60"></rect>
                        <g id="cloud_host" transform="translate(3.000000, 4.000000)">
                            <rect id="矩形" fill="#000000" opacity="0" x="0" y="0" width="53" height="53"></rect>
                            <path d="M16.6729166,39.3083334 L10.6,39.3083334 C5.9625,39.3083334 2.20833335,35.44375 2.20833335,30.80625 C2.20833335,27.1625 4.52708335,23.9604166 7.83958335,22.7458334 C7.83958335,22.3041667 7.7291667,21.7520834 7.72916665,21.3104166 C7.72916665,17.4458333 10.8208333,14.24375 14.6854166,14.24375 C16.3416666,14.24375 17.8875,14.7958334 19.1020834,15.9 C20.86875,11.3729166 25.0645834,8.50208335 29.8125,8.50208335 C34.5604166,8.50208335 38.75625,11.3729167 40.5229166,15.9 C40.6333333,16.23125 40.5229166,16.4520834 40.1916666,16.5625 C39.8604166,16.6729166 39.6395833,16.5625 39.5291666,16.23125 C37.9833333,12.1458334 34.11875,9.49583335 29.8125,9.49583335 C25.2854166,9.49583335 21.3104166,12.4770834 19.875,17.0041666 C19.7645834,17.225 19.6541666,17.3354166 19.4333334,17.3354166 C19.2125001,17.3354166 18.9916667,17.3354166 18.88125,17.225 C17.7770834,16.0104166 16.23125,15.3479166 14.6854166,15.3479166 C11.4833333,15.3479166 8.8333333,17.9979166 8.83333335,21.3104166 C8.83333335,21.8625 8.94375,22.3041666 9.05416665,22.9666666 L9.05416665,23.4083334 C8.94375,23.51875 8.8333333,23.6291667 8.72291665,23.6291666 C5.52083335,24.5125 3.3125,27.49375 3.3125,30.80625 C3.3125,34.8916666 6.625,38.2041666 10.6,38.2041666 L16.6729166,38.2041666 C17.0041666,38.2041666 17.225,38.425 17.225,38.75625 C17.225,39.0875 17.0041666,39.3083334 16.6729166,39.3083334 L16.6729166,39.3083334 Z" id="路径" stroke="#3C3C3C" stroke-width="2" fill="#3C3C3C"></path>
                            <path d="M30.6958334,39.3083334 L27.9354166,39.3083334 C27.6041666,39.3083334 27.3833334,39.0875 27.3833334,38.75625 C27.3833334,38.425 27.6041667,38.2041666 27.9354166,38.2041666 L30.6958334,38.2041666 C31.0270834,38.2041666 31.2479166,38.425 31.2479166,38.75625 C31.2479166,39.0875 31.0270833,39.3083334 30.6958334,39.3083334 Z" id="路径" stroke="#CF0010" stroke-width="2" fill="#CF0010"></path>
                            <path d="M49.1354166,44.9395834 L23.4083334,44.9395834 C22.525,44.9395834 21.7520834,44.1666667 21.7520834,43.2833334 L21.7520834,33.2354166 C21.7520834,32.9041666 21.9729167,32.6833334 22.3041666,32.6833334 L50.2395834,32.6833334 C50.5708334,32.6833334 50.7916666,32.9041667 50.7916666,33.2354166 L50.7916666,43.2833334 C50.7916666,44.1666667 50.01875,44.9395834 49.1354166,44.9395834 L49.1354166,44.9395834 Z M22.85625,33.7875 L22.85625,43.2833334 C22.85625,43.6145834 23.0770834,43.8354166 23.4083334,43.8354166 L49.1354166,43.8354166 C49.4666666,43.8354166 49.6875,43.6145833 49.6875,43.2833334 L49.6875,33.7875 L22.85625,33.7875 Z" id="形状" stroke="#3C3C3C" stroke-width="2" fill="#3C3C3C"></path>
                            <path d="M30.6958334,28.15625 L27.9354166,28.15625 C27.6041666,28.15625 27.3833334,27.9354166 27.3833334,27.6041666 C27.3833334,27.2729166 27.6041667,27.0520834 27.9354166,27.0520834 L30.6958334,27.0520834 C31.0270834,27.0520834 31.2479166,27.2729167 31.2479166,27.6041666 C31.2479166,27.9354166 31.0270833,28.15625 30.6958334,28.15625 Z" id="路径" stroke="#CF0010" stroke-width="2" fill="#CF0010"></path>
                            <path d="M50.2395834,33.7875 L22.3041666,33.7875 C21.9729166,33.7875 21.7520834,33.5666666 21.7520834,33.2354166 L21.7520834,23.1875 C21.7520834,22.3041666 22.525,21.53125 23.4083334,21.53125 L49.1354166,21.53125 C50.01875,21.53125 50.7916666,22.3041666 50.7916666,23.1875 L50.7916666,33.2354166 C50.7916666,33.5666666 50.5708333,33.7875 50.2395834,33.7875 L50.2395834,33.7875 Z M22.85625,32.6833334 L49.6875,32.6833334 L49.6875,23.1875 C49.6875,22.85625 49.4666666,22.6354166 49.1354166,22.6354166 L23.4083334,22.6354166 C23.0770834,22.6354166 22.85625,22.85625 22.85625,23.1875 L22.85625,32.6833334 L22.85625,32.6833334 Z" id="形状" stroke="#3C3C3C" stroke-width="2" fill="#3C3C3C"></path>
                        </g>
                    </g>
                </g>
            </g>
        </g>
    </g>
</svg>