<?xml version="1.0" encoding="UTF-8"?>
<svg width="70px" height="70px" viewBox="0 0 70 70" version="1.1" xmlns="http://www.w3.org/2000/svg" xmlns:xlink="http://www.w3.org/1999/xlink">
    <title>公开与加密发布</title>
    <defs>
        <linearGradient x1="86.4366449%" y1="18.7775798%" x2="20.1632438%" y2="88.7400232%" id="linearGradient-1">
            <stop stop-color="#FF8888" offset="0%"></stop>
            <stop stop-color="#CF0010" offset="100%"></stop>
        </linearGradient>
        <path d="M26.3421053,0.0734719056 C26.1243124,-0.0244906352 25.8756876,-0.0244906352 25.6578947,0.0734719056 L10.5,6.88920338 C10.1959461,7.02596586 10,7.3310416 10,7.66768773 L10,16.366265 C10,25.1468441 15.1068421,33.1002171 23.0105263,36.6270919 C24.305,37.2048316 25.2828947,37.4857143 26,37.4857143 C26.7171052,37.4857143 27.695,37.2048316 28.9894737,36.6270919 C36.8931579,33.0994183 42,25.1460454 42,16.366265 L42,7.66768773 C42,7.3310416 41.8040539,7.02596586 41.5,6.88920338 L26.3421053,0.0734719056 Z" id="path-2"></path>
        <filter id="filter-3">
            <feColorMatrix in="SourceGraphic" type="matrix" values="0 0 0 0 0.811765 0 0 0 0 0.000000 0 0 0 0 0.062745 0 0 0 1.000000 0"></feColorMatrix>
        </filter>
        <filter id="filter-4">
            <feColorMatrix in="SourceGraphic" type="matrix" values="0 0 0 0 0.811765 0 0 0 0 0.000000 0 0 0 0 0.062745 0 0 0 1.000000 0"></feColorMatrix>
        </filter>
    </defs>
    <g id="页面-1" stroke="none" stroke-width="1" fill="none" fill-rule="evenodd">
        <g id="SDSF-产品中心（数据可视化）" transform="translate(-990.000000, -2204.000000)">
            <g id="产品优势备份" transform="translate(360.000000, 1961.000000)">
                <g id="编组-6备份-7" transform="translate(610.000000, 243.000000)">
                    <g id="公开与加密发布" transform="translate(20.000000, 0.000000)">
                        <rect id="矩形" x="0" y="0" width="70" height="70"></rect>
                        <g id="编组-7" transform="translate(9.000000, 8.000000)">
                            <g id="路径" fill-rule="nonzero">
                                <use fill="#CF0010" xlink:href="#path-2"></use>
                                <use stroke="#FFC8C8" stroke-width="1" fill="url(#linearGradient-1)" xlink:href="#path-2"></use>
                            </g>
                            <rect id="矩形" stroke-opacity="0.302418529" stroke="#FFC8C8" x="0.5" y="12.5" width="51" height="39" rx="5"></rect>
                            <g filter="url(#filter-3)" id="加密">
                                <g transform="translate(16.500000, 22.187500)">
                                    <rect id="矩形" fill="#000000" fill-rule="nonzero" opacity="0" x="0" y="0" width="19" height="19"></rect>
                                    <g filter="url(#filter-4)" id="编组-12">
                                        <g transform="translate(2.000000, 0.000000)">
                                            <path d="M10.6022103,8.02545898 L8.2085319,8.02545898 L8.2085319,5.6317806 C8.2085319,5.32513346 7.95909505,5.07798503 7.65473633,5.07798503 C7.34808919,5.07798503 7.10094076,5.32742187 7.10094076,5.6317806 L7.10094076,8.02545898 L4.70497396,8.02545898 C4.39832682,8.02545898 4.15117839,8.27489583 4.15117839,8.57925456 C4.15117839,8.88590169 4.40061523,9.13305013 4.70497396,9.13305013 L7.09865234,9.13305013 L7.09865234,11.5290169 C7.09865234,11.8356641 7.34808919,12.0828125 7.65244792,12.0828125 C7.95909505,12.0828125 8.20624349,11.8333757 8.20624349,11.5290169 L8.20624349,9.13533854 L10.5999219,9.13533854 C10.906569,9.13533854 11.1537331,8.88590169 11.1537331,8.58154297 C11.1560059,8.27489583 10.906569,8.02545898 10.6022103,8.02545898 Z" id="路径" stroke="#979797" fill="#FF4E7D" fill-rule="nonzero"></path>
                                            <path d="M14.4719141,2.28612305 L14.4696257,2.28612305 C14.0805957,2.26781576 13.4741667,2.22433594 12.7762012,2.11906901 C10.5015202,1.66596354 8.84471029,0.599563802 8.23828125,0.162477214 C8.08953451,0.054921875 7.91332682,1.09542005e-15 7.73254232,1.09542005e-15 C7.70508138,1.09542005e-15 7.67762044,0.00228841146 7.65015951,0.00457682292 C7.62269857,0.00228841146 7.59523763,1.09542005e-15 7.56777669,1.09542005e-15 C7.38470378,1.09542005e-15 7.21078451,0.0572102865 7.05974935,0.162477214 C6.45332031,0.599563802 4.79879883,1.66596354 2.52182943,2.11906901 C1.82386393,2.22433594 1.21514648,2.26781576 0.826116536,2.28612305 C0.36156901,2.30900716 0,2.68888346 0,3.15343099 L0,9.23602865 C0,10.0964714 0.418779297,11.268138 1.18310872,12.535918 L1.19455078,12.5542253 C1.95888021,13.8471777 2.96120443,15.055459 4.01616211,15.9570931 C5.27021159,17.0303581 6.52197266,17.5978841 7.63871745,17.5978841 L7.66388997,17.5978841 C8.77834635,17.5978841 10.0301074,17.0303581 11.2841569,15.9570931 C12.3368262,15.055459 13.336862,13.8494661 14.1034798,12.5588021 L14.1172103,12.5336296 C14.8792513,11.2658496 15.2980306,10.0918945 15.2980306,9.23374023 L15.2980306,3.15343099 C15.2980306,2.68888346 14.9341732,2.30900716 14.4719141,2.28612305 Z M2.1762793,12.0278906 C2.16254883,12.0027181 2.14881836,11.9775456 2.13051107,11.952373 L2.12135742,11.9363542 C2.10533854,11.9088932 2.08703125,11.8791439 2.07101237,11.8539714 C1.50119792,10.8768197 1.17624349,9.99806966 1.17624349,9.44198568 L1.17624349,3.4143099 C1.70028971,3.37769531 2.22891276,3.30904297 2.74609375,3.20377604 C4.22440755,2.9749349 6.26109375,2.45546549 7.64787109,1.26549154 C9.03693685,2.45317708 11.0713346,2.9749349 12.5496484,3.20377604 C13.0691178,3.30675456 13.5954525,3.37769531 14.1194987,3.4143099 L14.1194987,9.44427409 C14.1194987,9.99806966 13.7945443,10.8768197 13.2247298,11.8539714 C13.2087109,11.8814323 13.1904036,11.9111816 13.1743848,11.9386426 L13.1652311,11.9546615 C13.1492122,11.9775456 13.1331934,12.0027181 13.1194629,12.030179 L13.0691178,12.1148503 C12.652627,12.7899316 12.1445996,13.4673014 11.5953809,14.0805957 C11.5862272,14.0920378 11.5770736,14.1011914 11.5633431,14.1126335 L11.551901,14.1240755 L11.5381706,14.137806 C10.1628353,15.6023893 8.7074056,16.4834277 7.65015951,16.490293 C6.590625,16.4834277 5.13519531,15.6023893 3.7552832,14.1355176 C3.75070638,14.1309408 3.74841797,14.1263639 3.74384115,14.1240755 C3.72553385,14.1034798 3.70493815,14.0851725 3.68663086,14.0691536 C3.1557194,13.4764551 2.66142253,12.8128158 2.24493164,12.1445996 L2.1762793,12.0278906 Z" id="形状" stroke="#979797" fill="#4E30DC" fill-rule="nonzero"></path>
                                        </g>
                                    </g>
                                </g>
                            </g>
                        </g>
                    </g>
                </g>
            </g>
        </g>
    </g>
</svg>