<?xml version="1.0" encoding="UTF-8"?>
<svg width="70px" height="70px" viewBox="0 0 70 70" version="1.1" xmlns="http://www.w3.org/2000/svg" xmlns:xlink="http://www.w3.org/1999/xlink">
    <title>监控报警</title>
    <defs>
        <linearGradient x1="86.4366449%" y1="18.7775798%" x2="20.1632438%" y2="88.7400232%" id="linearGradient-1">
            <stop stop-color="#FF8888" offset="0%"></stop>
            <stop stop-color="#CF0010" offset="100%"></stop>
        </linearGradient>
        <path d="M26.3421053,0.0734719056 C26.1243124,-0.0244906352 25.8756876,-0.0244906352 25.6578947,0.0734719056 L10.5,6.88920338 C10.1959461,7.02596586 10,7.3310416 10,7.66768773 L10,16.366265 C10,25.1468441 15.1068421,33.1002171 23.0105263,36.6270919 C24.305,37.2048316 25.2828947,37.4857143 26,37.4857143 C26.7171052,37.4857143 27.695,37.2048316 28.9894737,36.6270919 C36.8931579,33.0994183 42,25.1460454 42,16.366265 L42,7.66768773 C42,7.3310416 41.8040539,7.02596586 41.5,6.88920338 L26.3421053,0.0734719056 Z" id="path-2"></path>
    </defs>
    <g id="页面-1" stroke="none" stroke-width="1" fill="none" fill-rule="evenodd">
        <g id="SDSF-产品中心（AI在线服务）" transform="translate(-927.000000, -1811.000000)">
            <g id="产品与服务备份" transform="translate(360.000000, 1405.000000)">
                <g id="编组-6备份-12" transform="translate(409.000000, 375.000000)">
                    <g id="监控报警" transform="translate(158.000000, 31.000000)">
                        <rect id="矩形" x="0" y="0" width="70" height="70"></rect>
                        <g id="编组-7" transform="translate(9.000000, 8.000000)">
                            <g id="路径" fill-rule="nonzero">
                                <use fill="#CF0010" xlink:href="#path-2"></use>
                                <use stroke="#FFC8C8" stroke-width="1" fill="url(#linearGradient-1)" xlink:href="#path-2"></use>
                            </g>
                            <rect id="矩形" stroke-opacity="0.302418529" stroke="#FFC8C8" x="0.5" y="12.5" width="51" height="39" rx="5"></rect>
                            <g id="工具" transform="translate(16.000000, 22.000000)"></g>
                            <g id="编组-8" transform="translate(18.500000, 23.187500)" fill="#CF0010" fill-rule="nonzero" stroke="#CF0010">
                                <path d="M7.61764705,3.33272058 C10.2428787,3.33272058 12.3786765,5.46851837 12.3786765,8.09374999 L12.3786765,11.4264706 C12.3786765,11.7354614 12.4791342,12.0363585 12.6643382,12.2834559 L13.8069853,13.8069853 L1.42830882,13.8069853 L2.57095588,12.2834559 C2.75615993,12.0363585 2.85661765,11.7354614 2.85661765,11.4264706 L2.85661765,8.09374999 C2.85661765,5.46851837 4.99241543,3.33272058 7.61764705,3.33272058 M7.61764705,1.90441176 C4.19922794,1.90441176 1.42830882,4.67533087 1.42830882,8.09374999 L1.42830882,11.4264706 L1.89443232e-13,13.3308823 L1.89443232e-13,14.2830882 C1.89443232e-13,14.8068015 0.428492647,15.2352941 0.952205867,15.2352941 L14.2830882,15.2352941 C14.8068015,15.2352941 15.2352941,14.8068015 15.2352941,14.2830882 L15.2352941,13.3308823 L13.8069853,11.4264706 L13.8069853,8.09374999 C13.8069853,4.67533087 11.0360662,1.90441176 7.61764705,1.90441176 Z M7.61764705,16.6636029 C6.82881387,16.6636029 6.18933823,16.0241273 6.18933823,15.2352941 L4.7610294,15.2352941 C4.7610294,16.8102426 6.04269851,18.0919117 7.61764705,18.0919117 C9.19259559,18.0919117 10.4742647,16.8102426 10.4742647,15.2352941 L9.04595587,15.2352941 C9.04595587,16.0241273 8.40648023,16.6636029 7.61764705,16.6636029 Z" id="形状"></path>
                                <path d="M7.61764705,3.33272058 C7.27246868,3.34052645 6.95010849,3.16087027 6.77517693,2.86319934 C6.60024536,2.5655284 6.60015308,2.19648582 6.77493575,1.89872744 C6.94971842,1.60096905 7.27198873,1.42115168 7.61717096,1.42878492 C8.13463755,1.44022799 8.54819579,1.86292688 8.54832522,2.38051997 C8.54845465,2.89811305 8.13510785,3.32101872 7.61764705,3.33272058 L9.7962941,3.33272058 C9.92888442,3.0327508 9.99762966,2.70848082 9.99816176,2.38051469 C9.99816176,1.06789888 8.93026286,1.44982066e-15 7.61764705,1.44982066e-15 C6.30503124,1.44982066e-15 5.23713234,1.0678989 5.23713234,2.38051469 C5.23713234,2.71949998 5.3109283,3.04039337 5.439,3.33272058 L7.61764705,3.33272058 L7.61764705,3.33272058 Z" id="路径"></path>
                            </g>
                        </g>
                    </g>
                </g>
            </g>
        </g>
    </g>
</svg>