<?xml version="1.0" encoding="UTF-8"?>
<svg width="60px" height="60px" viewBox="0 0 60 60" version="1.1" xmlns="http://www.w3.org/2000/svg" xmlns:xlink="http://www.w3.org/1999/xlink">
    <title>地理信息可视化</title>
    <g id="页面-1" stroke="none" stroke-width="1" fill="none" fill-rule="evenodd">
        <g id="SDSF-产品中心（数据可视化）" transform="translate(-990.000000, -725.000000)" fill-rule="nonzero">
            <g id="编组-10" transform="translate(382.000000, 625.000000)">
                <g id="地理信息可视化" transform="translate(608.000000, 100.000000)">
                    <rect id="矩形" fill="#000000" opacity="0" x="0" y="0" width="60" height="60"></rect>
                    <g id="发现" transform="translate(3.000000, 4.000000)">
                        <rect id="矩形" fill="#000000" opacity="0" x="0" y="0" width="53" height="53"></rect>
                        <path d="M26.5,5.07226562 C14.6657832,5.07226562 5.07226562,14.6657832 5.07226562,26.5 C5.07226562,38.3342168 14.6657832,47.9277344 26.5,47.9277344 C38.3342168,47.9277344 47.9277344,38.3342168 47.9277344,26.5 C47.9277344,14.6657832 38.3342168,5.07226562 26.5,5.07226562 Z M26.5,8.17773438 C36.6191182,8.17773438 44.8222656,16.3808818 44.8222656,26.5 C44.8222656,36.6191182 36.6191182,44.8222656 26.5,44.8222656 C16.3808818,44.8222656 8.17773438,36.6191182 8.17773438,26.5 C8.17773438,16.3808818 16.3808818,8.17773438 26.5,8.17773438 Z" id="形状" fill="#3C3C3C"></path>
                        <path d="M36.160958,14.8234375 C37.3626709,14.422832 38.5065186,15.5506348 38.136709,16.7510537 L38.1250117,16.7874395 L33.0195693,32.1038701 C32.7483584,32.9173994 31.8689932,33.357082 31.0554639,33.0858711 C30.2501123,32.8174033 29.8111025,31.9528926 30.0655439,31.1462471 L30.0734629,31.1218174 L34.1969043,18.7514932 L21.8265801,22.8749346 C21.0212285,23.1434541 20.1512832,22.71521 19.8708594,21.917208 L19.8625264,21.8928818 C19.5940586,21.0875303 20.0223027,20.2176367 20.8202529,19.9371611 L20.8445791,19.9288799 L36.160958,14.8233857 L36.160958,14.8234375 Z" id="路径" fill="#CF0010"></path>
                        <path d="M31.1216621,30.1250654 C31.9351914,29.8538545 32.8145566,30.2935371 33.0857158,31.1070664 C33.3541836,31.9124697 32.9259395,32.7823633 32.1279893,33.0628389 L32.1036631,33.0711201 L16.7872842,38.1766143 C15.5855713,38.5772197 14.4417236,37.4493652 14.8115332,36.2489463 L14.8232305,36.2125605 L19.9286729,20.8961299 C20.1998838,20.0826006 21.079249,19.642918 21.8927783,19.9141289 C22.6981299,20.1825967 23.1371396,21.0471074 22.8826982,21.8537529 L22.8747793,21.8781826 L18.7513379,34.2484551 L31.1216621,30.1250654 L31.1216621,30.1250654 Z" id="路径" fill="#CF0010"></path>
                        <path d="M24.0673828,26.5 C24.0673828,27.8434974 25.1565026,28.9326172 26.5,28.9326172 C27.8434974,28.9326172 28.9326172,27.8434974 28.9326172,26.5 C28.9326172,25.1565026 27.8434974,24.0673828 26.5,24.0673828 C25.1565026,24.0673828 24.0673828,25.1565026 24.0673828,26.5 Z" id="路径" fill="#3C3C3C"></path>
                    </g>
                </g>
            </g>
        </g>
    </g>
</svg>