<?xml version="1.0" encoding="UTF-8"?>
<svg width="60px" height="60px" viewBox="0 0 60 60" version="1.1" xmlns="http://www.w3.org/2000/svg" xmlns:xlink="http://www.w3.org/1999/xlink">
    <title>数据可靠性要求高</title>
    <g id="页面-1" stroke="none" stroke-width="1" fill="none" fill-rule="evenodd">
        <g id="SDSF-企业场景" transform="translate(-768.000000, -868.000000)" fill-rule="nonzero">
            <g id="编组-8" transform="translate(360.000000, 725.000000)">
                <g id="编组-7" transform="translate(0.000000, 143.000000)">
                    <g id="数据可靠性要求高" transform="translate(408.000000, 0.000000)">
                        <rect id="矩形" fill="#000000" opacity="0" x="0" y="0" width="60" height="60"></rect>
                        <g id="上传" transform="translate(3.000000, 4.000000)">
                            <rect id="矩形" fill="#000000" opacity="0" x="0" y="0" width="53" height="53"></rect>
                            <path d="M26.6086914,27.1521484 C26.1428711,27.1521484 25.6822266,27.328125 25.3302734,27.6852539 L20.2683594,32.747168 C19.5592773,33.45625 19.5592773,34.6000977 20.2683594,35.3091797 C20.9774414,36.0182617 22.1212891,36.0182617 22.8303711,35.3091797 L26.6138672,31.5256836 L30.3921875,35.3091797 C31.1012695,36.0182617 32.2451172,36.0182617 32.9541992,35.3091797 C33.6632813,34.6000977 33.6632813,33.45625 32.9541992,32.747168 L27.8922852,27.6852539 C27.5351563,27.3333008 27.0693359,27.1521484 26.6086914,27.1521484 L26.6086914,27.1521484 Z" id="路径" fill="#CF0010"></path>
                            <path d="M26.6086914,27.1521484 C25.6097656,27.1521484 24.797168,27.9647461 24.797168,28.9636719 L24.797168,42.3430664 C24.797168,43.3419922 25.6097656,44.1545898 26.6086914,44.1545898 C27.6076172,44.1545898 28.4202148,43.3419922 28.4202148,42.3430664 L28.4202148,28.9636719 C28.4202148,27.9647461 27.6076172,27.1521484 26.6086914,27.1521484 Z" id="路径" fill="#CF0010"></path>
                            <path d="M14.3058594,40.246875 C9.11455078,40.246875 4.89628906,36.0234375 4.89628906,30.8373047 C4.89628906,25.6459961 9.11972656,21.4277344 14.3058594,21.4277344 C15.3047852,21.4277344 16.1173828,22.240332 16.1173828,23.2392578 C16.1173828,24.2381836 15.3047852,25.0507812 14.3058594,25.0507812 C11.1124023,25.0507812 8.51933594,27.6490234 8.51933594,30.8373047 C8.51933594,34.0255859 11.1175781,36.6238281 14.3058594,36.6238281 C15.3047852,36.6238281 16.1173828,37.4364258 16.1173828,38.4353516 C16.1173828,39.4342773 15.3047852,40.246875 14.3058594,40.246875 L14.3058594,40.246875 Z" id="路径" fill="#3C3C3C"></path>
                            <path d="M38.8701172,24.9990234 C37.8711914,24.9990234 37.0585938,24.1864258 37.0585938,23.1875 C37.0585938,17.4216797 32.3693359,12.7324219 26.6086914,12.7324219 C20.8428711,12.7324219 16.1587891,17.4216797 16.1587891,23.1823242 C16.1587891,24.18125 15.3461914,24.9938477 14.3472656,24.9938477 C13.3483398,24.9938477 12.5357422,24.18125 12.5357422,23.1823242 C12.5357422,19.424707 14.0004883,15.8896484 16.6608398,13.2292969 C19.3211914,10.5689453 22.85625,9.10419922 26.6138672,9.10419922 C30.3714844,9.10419922 33.906543,10.5689453 36.5668945,13.2292969 C39.2168945,15.8896484 40.6816406,19.424707 40.6816406,23.1875 C40.6816406,24.1864258 39.869043,24.9990234 38.8701172,24.9990234 Z" id="路径" fill="#3C3C3C"></path>
                            <path d="M38.8545898,40.246875 C37.8556641,40.246875 37.0430664,39.4342773 37.0430664,38.4353516 C37.0430664,37.4364258 37.8556641,36.6238281 38.8545898,36.6238281 C42.0480469,36.6238281 44.6411133,34.0255859 44.6411133,30.8373047 C44.6411133,27.6490234 42.0428711,25.0507812 38.8545898,25.0507812 C37.8556641,25.0507812 37.0430664,24.2381836 37.0430664,23.2392578 C37.0430664,22.240332 37.8556641,21.4277344 38.8545898,21.4277344 C44.0458984,21.4277344 48.2641602,25.6511719 48.2641602,30.8373047 C48.2641602,36.0234375 44.0407227,40.246875 38.8545898,40.246875 L38.8545898,40.246875 Z" id="路径" fill="#3C3C3C"></path>
                        </g>
                    </g>
                </g>
            </g>
        </g>
    </g>
</svg>