<?xml version="1.0" encoding="UTF-8"?>
<svg width="60px" height="60px" viewBox="0 0 60 60" version="1.1" xmlns="http://www.w3.org/2000/svg" xmlns:xlink="http://www.w3.org/1999/xlink">
    <title>数据资源</title>
    <g id="页面-1" stroke="none" stroke-width="1" fill="none" fill-rule="evenodd">
        <g id="SDSF-解决方案（数字政府）" transform="translate(-778.000000, -758.000000)" fill-rule="nonzero">
            <g id="产品与服务备份" transform="translate(360.000000, 625.000000)">
                <g id="编组-6备份" transform="translate(305.000000, 100.000000)">
                    <g id="数据资源" transform="translate(113.000000, 33.000000)">
                        <rect id="矩形" fill="#000000" opacity="0" x="0" y="0" width="60" height="60"></rect>
                        <path d="M47.9296875,8.40070313 L12.0703125,8.40070313 C8.57537109,8.40070313 5.7421875,11.2338867 5.7421875,14.7288281 L5.7421875,38.5764844 C5.7421875,42.0714258 8.57537109,44.9046094 12.0703125,44.9046094 L47.9296875,44.9046094 C51.4246289,44.9046094 54.2578125,42.0714258 54.2578125,38.5764844 L54.2578125,14.7288281 C54.2578125,11.2338867 51.4246289,8.40070313 47.9296875,8.40070313 Z M12.0703125,11.9163281 L47.9296875,11.9163281 C49.4830078,11.9163281 50.7421875,13.1755078 50.7421875,14.7288281 L50.7421875,38.5764844 C50.7421875,40.1298047 49.4830078,41.3889844 47.9296875,41.3889844 L12.0703125,41.3889844 C10.5169922,41.3889844 9.2578125,40.1298047 9.2578125,38.5764844 L9.2578125,14.7288281 C9.2578125,13.1755078 10.5169922,11.9163281 12.0703125,11.9163281 Z M45.4681641,48.9887695 C46.4389453,48.9887695 47.2259766,49.7757422 47.2259766,50.746582 C47.2259766,51.7076953 46.4545898,52.4886328 45.497168,52.5041602 L45.4681055,52.5043945 L14.5676953,52.5043945 C13.5969141,52.5043945 12.8098828,51.7173633 12.8098828,50.746582 C12.8098828,49.7854687 13.5812695,49.0045312 14.5386328,48.9890039 L14.5676953,48.9887695 L45.4681641,48.9887695 Z" id="形状" fill="#3C3C3C"></path>
                        <path d="M20.2441406,23.5277344 C21.2052539,23.5277344 21.9861914,24.2990625 22.0017187,25.2564258 L22.0019531,25.2854883 L22.0019531,34.8169922 C22.0019531,35.787832 21.2149805,36.5748047 20.2441406,36.5748047 C19.2830273,36.5748047 18.5020898,35.8034766 18.4865625,34.8460547 L18.4863281,34.8169922 L18.4863281,25.2855469 C18.4863281,24.3146484 19.2733008,23.5277344 20.2441406,23.5277344 Z M30.0292969,16.6136719 C30.9904102,16.6136719 31.7713477,17.385 31.786875,18.3424219 L31.7871094,18.3714844 L31.7871094,34.8169922 C31.7871094,35.787832 31.0001367,36.5748047 30.0292969,36.5748047 C29.0681836,36.5748047 28.2872461,35.8034766 28.2717188,34.8460547 L28.2714844,34.8169922 L28.2714844,18.3714844 C28.2714844,17.4007031 29.058457,16.6136719 30.0292969,16.6136719 Z M39.8144531,20.0121094 C40.7755664,20.0121094 41.5565039,20.7834961 41.5720312,21.740918 L41.5722656,21.7699805 L41.5722656,34.8754688 C41.5722656,35.8463086 40.785293,36.6332813 39.8144531,36.6332813 C38.8533398,36.6332813 38.0724023,35.8619531 38.056875,34.9045313 L38.0566406,34.8754688 L38.0566406,21.7699805 C38.0566406,20.7991406 38.8436133,20.0121094 39.8144531,20.0121094 L39.8144531,20.0121094 Z" id="形状" fill="#CF0010"></path>
                    </g>
                </g>
            </g>
        </g>
    </g>
</svg>