<?xml version="1.0" encoding="UTF-8"?>
<svg width="60px" height="60px" viewBox="0 0 60 60" version="1.1" xmlns="http://www.w3.org/2000/svg" xmlns:xlink="http://www.w3.org/1999/xlink">
    <title>最新技术</title>
    <g id="页面-1" stroke="none" stroke-width="1" fill="none" fill-rule="evenodd">
        <g id="SDSF-解决方案（上云与迁移）" transform="translate(-1083.000000, -801.000000)" fill-rule="nonzero">
            <g id="产品与服务备份" transform="translate(360.000000, 625.000000)">
                <g id="编组-6备份-2" transform="translate(610.000000, 143.000000)">
                    <g id="最新技术" transform="translate(113.000000, 33.000000)">
                        <rect id="矩形" fill="#000000" opacity="0" x="0" y="0" width="60" height="60"></rect>
                        <path d="M29.8417969,37.8398438 C25.5878906,37.8398438 22.125,34.3769531 22.125,30.1230469 C22.125,25.8691406 25.5878906,22.40625 29.8417969,22.40625 C34.0957031,22.40625 37.5585938,25.8691406 37.5585938,30.1230469 C37.5585938,34.3769531 34.0957031,37.8398438 29.8417969,37.8398438 Z M29.8417969,26.5019531 C27.8496094,26.5019531 26.2265625,28.125 26.2265625,30.1171875 C26.2265625,32.109375 27.8496094,33.7324219 29.8417969,33.7324219 C31.8339844,33.7324219 33.4570312,32.1152344 33.4570312,30.1171875 C33.4570312,28.125 31.8339844,26.5019531 29.8417969,26.5019531 L29.8417969,26.5019531 Z" id="形状" fill="#CF0010"></path>
                        <path d="M18.3925781,20.5664062 L15.6269531,17.5371094 L17.1386719,16.1542969 C19.1425781,14.3203125 21.5683594,12.9140625 24.1464844,12.09375 L26.1035156,11.4726562 L27.3457031,15.3808594 L25.3886719,16.0019531 C23.3730469,16.6464844 21.4746094,17.7421875 19.9042969,19.1777344 L18.3925781,20.5664062 Z M11.8242188,36.1933594 L11.3847656,34.1894531 C10.7988281,31.5351563 10.7929688,28.734375 11.3730469,26.0917969 L11.8125,24.0878906 L15.8203125,24.9667969 L15.3808594,26.9707031 C14.9296875,29.0390625 14.9296875,31.2304688 15.3925781,33.3105469 L15.8320312,35.3144531 L11.8242187,36.1933594 L11.8242188,36.1933594 Z M26.1152344,48.7851563 L24.1582031,48.1640625 C21.5683594,47.34375 19.1367188,45.9492188 17.1386719,44.1210938 L15.6210937,42.7382812 L18.3808594,39.7089844 L19.8984375,41.0917969 C21.4628906,42.515625 23.3613281,43.6113281 25.3945312,44.2558594 L27.3515625,44.8769531 L26.1152344,48.7851563 Z M41.4082031,20.5664062 L39.8964844,19.1835938 C38.3261719,17.7480469 36.4277344,16.6464844 34.4121094,16.0078125 L32.4609375,15.3808594 L33.703125,11.4726563 L35.6601562,12.09375 C38.2382812,12.9140625 40.6640625,14.3203125 42.6679687,16.1542969 L44.1796875,17.5371094 L41.4082031,20.5664062 Z M47.9765625,36.1933594 L43.96875,35.3085938 L44.4082031,33.3046875 C44.8652344,31.2246094 44.8710937,29.0332031 44.4199219,26.9648438 L43.9804687,24.9609375 L47.9882812,24.0820313 L48.4277344,26.0859375 C49.0078125,28.7285156 49.0019531,31.5292969 48.4160156,34.1835938 L47.9765625,36.1933594 L47.9765625,36.1933594 Z M33.6855469,48.7851563 L32.4492187,44.8769531 L34.40625,44.2558594 C36.4335937,43.6113281 38.3378906,42.5214844 39.9023437,41.0917969 L41.4199219,39.7089844 L44.1855469,42.7382812 L42.6621094,44.1210938 C40.6640625,45.9433594 38.2324219,47.3378906 35.6425781,48.1640625 L33.6855469,48.7851563 Z" id="形状" fill="#3C3C3C"></path>
                        <path d="M36.5214844,15.375 L32.4199219,15.375 L32.4199219,11.3847656 L27.3398437,11.3847656 L27.3398437,15.375 L23.2382812,15.375 L23.2382812,9.95507813 C23.2382812,9.12304688 23.6425781,8.36132813 24.3457031,7.8515625 C24.8554687,7.48242188 25.4941406,7.28320313 26.1503906,7.28320313 L33.609375,7.28320313 C34.265625,7.28320313 34.9042969,7.48242188 35.4140625,7.8515625 C36.1171875,8.35546875 36.5214844,9.12304688 36.5214844,9.95507813 L36.5214844,15.375 L36.5214844,15.375 Z M33.609375,52.9746094 L26.1503906,52.9746094 C25.4941406,52.9746094 24.8554687,52.7753906 24.3457031,52.40625 C23.6425781,51.9023438 23.2382812,51.1347656 23.2382812,50.3027344 L23.2382812,44.8828125 L27.3398437,44.8828125 L27.3398437,48.8730469 L32.4199219,48.8730469 L32.4199219,44.8828125 L36.5214844,44.8828125 L36.5214844,50.3027344 C36.5214844,51.1347656 36.1171875,51.8964844 35.4140625,52.40625 C34.9042969,52.7753906 34.265625,52.9746094 33.609375,52.9746094 L33.609375,52.9746094 Z M13.78125,28.5 L9.08789062,25.7871094 C8.3671875,25.3710938 7.90429688,24.6386719 7.82226562,23.7773438 C7.7578125,23.1503906 7.90429688,22.4941406 8.23242188,21.9316406 L11.9648437,15.46875 C12.2929687,14.9003906 12.7851562,14.4492188 13.359375,14.1914062 C14.1503906,13.8339844 15.0117187,13.8691406 15.7324219,14.2851562 L20.4257812,16.9980469 L18.375,20.5488281 L14.9179688,18.5566406 L12.3808594,22.9570312 L15.8378906,24.9492188 L13.78125,28.5 Z M45.2929687,46.3066406 C44.8535156,46.3066406 44.4199219,46.1953125 44.0332031,45.9667969 L39.3398438,43.2539063 L41.390625,39.703125 L44.8476562,41.6953125 L47.3847656,37.2949219 L43.9277344,35.3027344 L45.9785156,31.7519531 L50.671875,34.4648438 C51.3925781,34.8808594 51.8554687,35.6132813 51.9375,36.4746094 C52.0019531,37.1015625 51.8554687,37.7578125 51.5273437,38.3203125 L47.7949219,44.7832031 C47.4667969,45.3515625 46.9746094,45.8027344 46.4003906,46.0605469 C46.0429687,46.2246094 45.6679687,46.3066406 45.2929687,46.3066406 L45.2929687,46.3066406 Z" id="形状" fill="#3C3C3C"></path>
                        <path d="M14.4667969,46.3066406 C14.0917969,46.3066406 13.7167969,46.2246094 13.3535156,46.0605469 C12.7792969,45.8027344 12.2871094,45.3457031 11.9589844,44.7832031 L8.2265625,38.3203125 C7.8984375,37.7519531 7.75195312,37.0957031 7.81640625,36.4746094 C7.90429687,35.6132813 8.3671875,34.8808594 9.08203125,34.4648438 L13.7753906,31.7519531 L15.8261719,35.3027344 L12.3691406,37.2949219 L14.90625,41.6953125 L18.3632812,39.703125 L20.4140625,43.2539063 L15.7207031,45.9667969 C15.3398437,46.1953125 14.90625,46.3066406 14.4667969,46.3066406 L14.4667969,46.3066406 Z M45.9785156,28.5 L43.9277344,24.9492188 L47.3847656,22.9570312 L44.8476562,18.5566406 L41.390625,20.5488281 L39.3398437,16.9980469 L44.0332031,14.2851562 C44.7539062,13.8691406 45.6152344,13.8339844 46.40625,14.1914062 C46.9804687,14.4492187 47.4726562,14.90625 47.8007812,15.46875 L51.5332031,21.9316406 C51.8613281,22.5 52.0078125,23.15625 51.9433594,23.7773438 C51.8554687,24.6386719 51.3925781,25.3710938 50.6777344,25.7871094 L45.9785156,28.5 L45.9785156,28.5 Z" id="形状" fill="#3C3C3C"></path>
                    </g>
                </g>
            </g>
        </g>
    </g>
</svg>