<?xml version="1.0" encoding="UTF-8"?>
<svg width="60px" height="60px" viewBox="0 0 60 60" version="1.1" xmlns="http://www.w3.org/2000/svg" xmlns:xlink="http://www.w3.org/1999/xlink">
    <title>联系方式</title>
    <g id="页面-1" stroke="none" stroke-width="1" fill="none" fill-rule="evenodd">
        <g id="SDSF-联系我们" transform="translate(-1339.000000, -1548.000000)" fill-rule="nonzero">
            <g id="产品优势" transform="translate(359.000000, 1176.000000)">
                <g id="编组-6备份-10" transform="translate(818.000000, 355.000000)">
                    <g id="联系方式" transform="translate(162.000000, 17.000000)">
                        <rect id="矩形" fill="#000000" opacity="0" x="0" y="0" width="60" height="60"></rect>
                        <path d="M50.7692307,9.23076926 C53.3182373,9.23076926 55.3846154,11.2971473 55.3846154,13.8461538 L55.3846154,46.1538462 C55.3846154,48.7028527 53.3182373,50.7692307 50.7692307,50.7692307 L9.23076926,50.7692307 C6.68176274,50.7692307 4.61538463,48.7028527 4.61538463,46.1538462 L4.61538463,13.8461538 C4.61538463,11.2971473 6.68176274,9.23076926 9.23076926,9.23076926 L50.7692307,9.23076926 Z M50.7692307,13.8461538 L9.23076926,13.8461538 L9.23076926,46.1538462 L50.7692307,46.1538462 L50.7692307,13.8461538 Z" id="形状" fill="#3C3C3C"></path>
                        <path d="M13.8461538,18.4615385 L32.3076923,18.4615385 L32.3076923,25.3846154 L13.8461538,25.3846154 L13.8461538,18.4615385 Z M13.8461538,34.6153846 L20.7692307,34.6153846 L20.7692307,41.5384615 L13.8461538,41.5384615 L13.8461538,34.6153846 Z M27.6923077,34.6153846 L34.6153846,34.6153846 L34.6153846,41.5384615 L27.6923077,41.5384615 L27.6923077,34.6153846 Z M41.5384615,34.6153846 L48.4615385,34.6153846 L48.4615385,41.5384615 L41.5384615,41.5384615 L41.5384615,34.6153846 Z" id="形状" fill="#CF0010"></path>
                    </g>
                </g>
            </g>
        </g>
    </g>
</svg>