<?xml version="1.0" encoding="UTF-8"?>
<svg width="60px" height="60px" viewBox="0 0 60 60" version="1.1" xmlns="http://www.w3.org/2000/svg" xmlns:xlink="http://www.w3.org/1999/xlink">
    <title>安全合规</title>
    <g id="页面-1" stroke="none" stroke-width="1" fill="none" fill-rule="evenodd">
        <g id="SDSF-产品中心（专属主机）" transform="translate(-990.000000, -725.000000)" fill-rule="nonzero">
            <g id="编组-10" transform="translate(382.000000, 625.000000)">
                <g id="安全合规" transform="translate(608.000000, 100.000000)">
                    <rect id="矩形" fill="#000000" opacity="0" x="0" y="0" width="60" height="60"></rect>
                    <g id="链接" transform="translate(3.000000, 4.000000)">
                        <rect id="矩形" fill="#000000" opacity="0" x="0" y="0" width="53" height="53"></rect>
                        <path d="M33.5269166,5.41925 C34.3892705,4.55715655 35.7871462,4.55715655 36.6495,5.41925 L47.58075,16.3505 C48.4428434,17.2128538 48.4428434,18.6107295 47.58075,19.4730834 L38.2118959,28.8419375 L35.0882084,25.7193541 L42.8957709,17.9117916 L35.0893125,10.1042291 L27.2806459,17.9106875 L24.1580625,14.7881041 L33.5269166,5.41925 Z M19.4730834,47.58075 C18.6107295,48.4428434 17.2128538,48.4428434 16.3505,47.58075 L5.41925,36.6495 C4.55715655,35.7871462 4.55715655,34.3892705 5.41925,33.5269166 L14.7881041,24.1580625 L17.9117916,27.2806459 L10.1042291,35.0882084 L17.9106875,42.8957709 L25.7193541,35.0893125 L28.8419375,38.2118959 L19.4730834,47.58075 L19.4730834,47.58075 Z" id="形状" fill="#3C3C3C"></path>
                        <polygon id="路径" fill="#CF0010" points="32.7462709 23.3763125 23.3774166 32.7462709 20.2537291 29.6225834 29.6225834 20.2537291 32.7462709 23.3763125"></polygon>
                    </g>
                </g>
            </g>
        </g>
    </g>
</svg>