<?xml version="1.0" encoding="UTF-8"?>
<svg width="60px" height="60px" viewBox="0 0 60 60" version="1.1" xmlns="http://www.w3.org/2000/svg" xmlns:xlink="http://www.w3.org/1999/xlink">
    <title>网络复杂</title>
    <g id="页面-1" stroke="none" stroke-width="1" fill="none" fill-rule="evenodd">
        <g id="SDSF-行业场景" transform="translate(-360.000000, -825.000000)" fill-rule="nonzero">
            <g id="编组-8" transform="translate(360.000000, 725.000000)">
                <g id="网络复杂" transform="translate(0.000000, 100.000000)">
                    <rect id="矩形" fill="#000000" opacity="0" x="0" y="0" width="60" height="60"></rect>
                    <g id="网络" transform="translate(3.000000, 4.000000)">
                        <rect id="矩形" fill="#000000" opacity="0" x="0" y="0" width="53" height="53"></rect>
                        <path d="M6.625,26.5 C6.625,25.2803712 7.61370452,24.2916666 8.83333335,24.2916666 L44.1666666,24.2916666 C45.3862955,24.2916666 46.375,25.2803712 46.375,26.5 C46.375,27.7196288 45.3862955,28.7083334 44.1666666,28.7083334 L8.83333335,28.7083334 C7.61370452,28.7083334 6.625,27.7196288 6.625,26.5 L6.625,26.5 Z" id="路径" fill="#CF0010"></path>
                        <path d="M4.41666665,26.5 C4.41666665,14.303375 14.303375,4.41666665 26.5,4.41666665 C38.696625,4.41666665 48.5833334,14.303375 48.5833334,26.5 C48.5833334,38.696625 38.696625,48.5833334 26.5,48.5833334 C14.303375,48.5833334 4.41666665,38.696625 4.41666665,26.5 Z M26.5,8.83333335 C16.7424791,8.83333335 8.83333335,16.7424791 8.83333335,26.5 C8.83333335,36.2575209 16.7424792,44.1666666 26.5,44.1666666 C36.2575208,44.1666666 44.1666666,36.2575208 44.1666666,26.5 C44.1666666,16.7424792 36.2575209,8.83333335 26.5,8.83333335 Z" id="形状" fill="#3C3C3C"></path>
                        <path d="M23.0925416,13.2466875 C21.816125,16.529375 20.9791666,21.2143541 20.9791666,26.5 C20.9791666,31.7856459 21.816125,36.470625 23.0925416,39.7533125 C23.7329583,41.4018334 24.4429375,42.5855 25.1175834,43.3186666 C25.7900209,44.049625 26.2592917,44.1666666 26.5,44.1666666 C26.7407084,44.1666666 27.2099791,44.049625 27.8824166,43.3186666 C28.5570625,42.5855 29.2659375,41.4018333 29.9074584,39.7533125 C31.183875,36.470625 32.0208334,31.7856459 32.0208334,26.5 C32.0208334,21.2143541 31.183875,16.529375 29.9074584,13.2466875 C29.2670417,11.5981666 28.5570625,10.4145 27.8824166,9.68133335 C27.2099791,8.950375 26.7407084,8.83333335 26.5,8.83333335 C26.2592916,8.83333335 25.7900209,8.950375 25.1175834,9.68133335 C24.4429375,10.4145 23.7340625,11.5981667 23.0925416,13.2466875 Z M21.8658125,6.69235415 C23.0428541,5.41041665 24.6063541,4.41666665 26.5,4.41666665 C28.3936459,4.41666665 29.9571459,5.412625 31.1341875,6.69125 C32.3090209,7.969875 33.2652291,9.69789585 34.0237916,11.6456459 C35.543125,15.5577084 36.4375,20.809125 36.4375,26.5 C36.4375,32.190875 35.5442291,37.4433959 34.0237916,41.3543541 C33.2663333,43.3021041 32.3090208,45.030125 31.1341875,46.3076459 C29.9571459,47.5895834 28.3936459,48.5833334 26.5,48.5833334 C24.6063541,48.5833334 23.0428541,47.587375 21.8658125,46.30875 C20.6909791,45.030125 19.7347709,43.3021041 18.9762084,41.3543541 C17.456875,37.4422916 16.5625,32.190875 16.5625,26.5 C16.5625,20.809125 17.4557709,15.5566041 18.9762084,11.6456459 C19.7336667,9.69789585 20.6909792,7.969875 21.8658125,6.69235415 Z" id="形状" fill="#3C3C3C"></path>
                    </g>
                </g>
            </g>
        </g>
    </g>
</svg>