<?xml version="1.0" encoding="UTF-8"?>
<svg width="60px" height="60px" viewBox="0 0 60 60" version="1.1" xmlns="http://www.w3.org/2000/svg" xmlns:xlink="http://www.w3.org/1999/xlink">
    <title>节约成本</title>
    <g id="页面-1" stroke="none" stroke-width="1" fill="none" fill-rule="evenodd">
        <g id="SDSF-产品中心（专属主机）" transform="translate(-990.000000, -870.000000)" fill-rule="nonzero">
            <g id="编组-10" transform="translate(382.000000, 625.000000)">
                <g id="节约成本" transform="translate(608.000000, 245.000000)">
                    <rect id="矩形" fill="#000000" opacity="0" x="0" y="0" width="60" height="60"></rect>
                    <g id="标签" transform="translate(3.000000, 4.000000)">
                        <rect id="矩形" fill="#000000" opacity="0" x="0" y="0" width="53" height="53"></rect>
                        <path d="M27.0907291,7.24885406 C27.6767503,7.24885406 28.238808,7.48145369 28.653125,7.89589585 L48.952125,28.1948959 C49.3664613,28.6090644 49.5992472,29.1708982 49.5992472,29.7567396 C49.5992472,30.342581 49.3664613,30.9044148 48.952125,31.3185834 L30.2144166,50.0562916 C29.8002481,50.470628 29.2384143,50.7034138 28.6525729,50.7034138 C28.0667315,50.7034138 27.5048977,50.470628 27.0907291,50.0562916 L6.79172915,29.7572916 C6.37728702,29.3429747 6.14468741,28.780917 6.14468741,28.1948959 L6.14468741,9.45829165 C6.14468741,8.23866284 7.13339204,7.24995835 8.35302085,7.24995835 L27.0907291,7.24995835 L27.0907291,7.24885406 Z M26.1764791,11.6655209 L10.5613541,11.6655209 L10.5613541,27.2806459 L28.653125,45.3724166 L44.26825,29.7572916 L26.1764791,11.6655209 Z" id="形状" fill="#3C3C3C"></path>
                        <path d="M23.9681459,25.0723125 C23.1337602,25.9205979 21.9085059,26.2561981 20.7583134,25.9514935 C19.608121,25.646789 18.7097179,24.7485977 18.4047423,23.5984771 C18.0997666,22.4483565 18.435078,21.2230231 19.2831666,20.3884375 C20.579616,19.1126299 22.6622804,19.1208635 23.9486018,20.4068818 C25.2349233,21.6929001 25.2436478,23.7755624 23.9681459,25.0723125 L23.9681459,25.0723125 Z" id="路径" fill="#CF0010"></path>
                    </g>
                </g>
            </g>
        </g>
    </g>
</svg>