<?xml version="1.0" encoding="UTF-8"?>
<svg width="15px" height="16px" viewBox="0 0 15 16" version="1.1" xmlns="http://www.w3.org/2000/svg" xmlns:xlink="http://www.w3.org/1999/xlink">
    <title>收件箱,空盒子</title>
    <defs>
        <filter id="filter-1">
            <feColorMatrix in="SourceGraphic" type="matrix" values="0 0 0 0 0.811765 0 0 0 0 0.000000 0 0 0 0 0.062745 0 0 0 1.000000 0"></feColorMatrix>
        </filter>
    </defs>
    <g id="页面-1" stroke="none" stroke-width="1" fill="none" fill-rule="evenodd">
        <g id="SDSF-通用场景" transform="translate(-1016.000000, -1451.000000)">
            <g id="域名注册备份-3" transform="translate(360.000000, 725.000000)">
                <g id="收件箱,空盒子" transform="translate(656.000000, 719.000000)" filter="url(#filter-1)">
                    <g transform="translate(0.000000, 7.500000)">
                        <rect id="矩形" fill="#000000" fill-rule="nonzero" opacity="0" x="0" y="0" width="15" height="15"></rect>
                        <path d="M10.9174805,0 L4.08251953,0 C3.31640625,0 2.62646484,0.467285156 2.34228516,1.17919922 L0.0673828125,6.86425781 C0.0234375,6.97558594 0,7.09277344 0,7.21289063 L0,14.0625 C0,14.5795898 0.420410156,15 0.9375,15 L14.0625,15 C14.5795898,15 15,14.5795898 15,14.0625 L15,7.21142578 C15,7.09277344 14.9765625,6.97412109 14.9326172,6.86279297 L12.6591797,1.17919922 C12.3735352,0.467285156 11.6850586,0 10.9174805,0 Z M4.08251953,0.9375 L10.9189453,0.9375 C11.3027344,0.9375 11.6469727,1.17041016 11.7890625,1.52636719 L13.8618164,6.70898438 C13.9233398,6.86279297 13.8105469,7.02978516 13.6435547,7.02978516 L11.0683594,7.02978516 C10.8662109,7.02978516 10.6875,7.15869141 10.6230469,7.35058594 L10.4179688,7.96728516 L10.2128906,8.58398438 C10.1484375,8.77587891 9.96972656,8.90478516 9.76757812,8.90478516 L5.23242187,8.90478516 C5.03027344,8.90478516 4.8515625,8.77587891 4.78710938,8.58398438 L4.58203125,7.96728516 L4.37695312,7.35058594 C4.3125,7.15869141 4.13378906,7.02978516 3.93164062,7.02978516 L1.35644531,7.02978516 C1.19091797,7.02978516 1.07666016,6.86279297 1.13818359,6.70898438 L3.2109375,1.52636719 C3.35449219,1.17041016 3.69873047,0.9375 4.08251953,0.9375 Z M13.59375,14.0625 L1.40625,14.0625 C1.14697266,14.0625 0.9375,13.8530273 0.9375,13.59375 L0.9375,8.4375 C0.9375,8.17822266 1.14697266,7.96875 1.40625,7.96875 L3.50976562,7.96875 C3.55957031,7.96875 3.60498047,8.00097656 3.62109375,8.04931641 L4.00634766,9.20361328 C4.13378906,9.5859375 4.49267578,9.84521484 4.89550781,9.84521484 L10.105957,9.84521484 C10.5087891,9.84521484 10.8676758,9.58740234 10.9951172,9.20361328 L11.3803711,8.04931641 C11.3964844,8.00097656 11.4404297,7.96875 11.4916992,7.96875 L13.59375,7.96875 C13.8530273,7.96875 14.0625,8.17822266 14.0625,8.4375 L14.0625,13.59375 C14.0625,13.8530273 13.8530273,14.0625 13.59375,14.0625 Z" id="形状" fill="#000000" fill-rule="nonzero"></path>
                    </g>
                </g>
            </g>
        </g>
    </g>
</svg>