<?xml version="1.0" encoding="UTF-8"?>
<svg width="20px" height="20px" viewBox="0 0 20 20" version="1.1" xmlns="http://www.w3.org/2000/svg" xmlns:xlink="http://www.w3.org/1999/xlink">
    <title>icon_对勾小</title>
    <g id="页面-1" stroke="none" stroke-width="1" fill="none" fill-rule="evenodd">
        <g id="SDSF-热门场景" transform="translate(-440.000000, -1004.000000)" fill-rule="nonzero">
            <g id="方案" transform="translate(360.000000, 825.000000)">
                <g id="编组-9" transform="translate(80.000000, 57.000000)">
                    <g id="编组-5" transform="translate(0.000000, 120.000000)">
                        <g id="icon_对勾小" transform="translate(0.000000, 2.000000)">
                            <rect id="矩形" fill="#000000" opacity="0" x="0" y="0" width="20" height="20"></rect>
                            <path d="M10,20 C4.4775,20 0,15.5225 0,10 C0,4.4775 4.4775,0 10,0 C15.5225,0 20,4.4775 20,10 C20,15.5225 15.5225,20 10,20 Z M7.77,13.9266602 C7.9653577,14.1220735 8.23035303,14.2318603 8.50666992,14.2318603 C8.78298681,14.2318603 9.04798214,14.1220735 9.24333984,13.9266602 L15.5583398,7.61166016 C15.965186,7.20480859 15.9651816,6.54517625 15.5583301,6.13833008 C15.1514785,5.73148391 14.4918462,5.73148828 14.085,6.13833984 L8.46166016,11.6716602 L5.945,9.155 C5.53814844,8.74814844 4.87851172,8.74814844 4.47166016,9.155 C4.06480859,9.56185156 4.06480859,10.2214883 4.47166016,10.6283398 L7.77,13.9266602 L7.77,13.9266602 Z" id="形状" fill="#CF0010"></path>
                        </g>
                    </g>
                </g>
            </g>
        </g>
    </g>
</svg>