<?xml version="1.0" encoding="UTF-8"?>
<svg width="25px" height="25px" viewBox="0 0 25 25" version="1.1" xmlns="http://www.w3.org/2000/svg" xmlns:xlink="http://www.w3.org/1999/xlink">
    <title>热门推荐</title>
    <g id="页面-1" stroke="none" stroke-width="1" fill="none" fill-rule="evenodd">
        <g id="SDSF-输入文字-产品中心（全部解决方案）" transform="translate(-400.000000, -662.000000)" fill-rule="nonzero">
            <g id="顶部" transform="translate(1.000000, 0.000000)">
                <g id="banner" transform="translate(0.000000, 100.000000)">
                    <g id="标题" transform="translate(359.000000, 107.000000)">
                        <g id="编组-7" transform="translate(40.000000, 453.000000)">
                            <g id="热门推荐" transform="translate(0.000000, 2.000000)">
                                <rect id="矩形" fill="#000000" opacity="0" x="0" y="0" width="25" height="25"></rect>
                                <path d="M8.203125,23.75 C6.71875,20.625 7.5,18.828125 8.671875,17.1875 C9.921875,15.3125 10.234375,13.515625 10.234375,13.515625 C10.234375,13.515625 11.25,14.765625 10.859375,16.796875 C12.578125,14.84375 12.890625,11.71875 12.65625,10.546875 C16.5625,13.28125 18.28125,19.296875 16.015625,23.671875 C28.046875,16.796875 18.984375,6.5625 17.421875,5.46875 C17.96875,6.640625 18.046875,8.59375 16.953125,9.53125 C15.15625,2.65625 10.703125,1.328125 10.703125,1.328125 C11.25,4.84375 8.828125,8.671875 6.484375,11.5625 C6.40625,10.15625 6.328125,9.21875 5.546875,7.8125 C5.390625,10.390625 3.4375,12.421875 2.890625,15 C2.1875,18.515625 3.4375,21.015625 8.203125,23.75 L8.203125,23.75 Z" id="路径" fill="#CF0010"></path>
                            </g>
                        </g>
                    </g>
                </g>
            </g>
        </g>
    </g>
</svg>