<?xml version="1.0" encoding="UTF-8"?>
<svg width="30px" height="30px" viewBox="0 0 30 30" version="1.1" xmlns="http://www.w3.org/2000/svg" xmlns:xlink="http://www.w3.org/1999/xlink">
    <title>编组 5</title>
    <defs>
        <linearGradient x1="0%" y1="0%" x2="100%" y2="100%" id="linearGradient-1">
            <stop stop-color="#EB979D" offset="0%"></stop>
            <stop stop-color="#CF0010" offset="100%"></stop>
        </linearGradient>
        <rect id="path-2" x="0" y="0" width="30" height="30" rx="5"></rect>
    </defs>
    <g id="页面-1" stroke="none" stroke-width="1" fill="none" fill-rule="evenodd">
        <g id="SDSF-首页" transform="translate(-686.000000, -1694.000000)">
            <g id="场景" transform="translate(0.000000, 1382.000000)">
                <g id="编组-16备份" transform="translate(360.000000, 0.000000)">
                    <g id="编组-21备份" transform="translate(305.000000, 142.000000)">
                        <g id="编组-5" transform="translate(21.000000, 170.000000)">
                            <g id="矩形">
                                <use fill="#CF0010" xlink:href="#path-2"></use>
                                <use fill="url(#linearGradient-1)" xlink:href="#path-2"></use>
                            </g>
                            <g id="企业2" transform="translate(6.000000, 6.000000)" fill-rule="nonzero">
                                <rect id="矩形" fill="#000000" opacity="0" x="0" y="0" width="18" height="18"></rect>
                                <path d="M16.3125,14.625 L15.75,14.625 L15.75,6.75 C15.75,5.5125 14.7375,4.5 13.5,4.5 L10.125,4.5 L10.125,14.0625 C10.125,14.3775 9.8775,14.625 9.5625,14.625 C9.2475,14.625 9,14.3775 9,14.0625 L9,3.375 C9,2.1375 7.9875,1.125 6.75,1.125 L3.375,1.125 C2.1375,1.125 1.125,2.1375 1.125,3.375 L1.125,14.625 L0.5625,14.625 C0.2475,14.625 0,14.8725 0,15.1875 C0,15.5025 0.2475,15.75 0.5625,15.75 L16.3125,15.75 C16.6275,15.75 16.875,15.5025 16.875,15.1875 C16.875,14.8725 16.6275,14.625 16.3125,14.625 Z M6.1875,12.375 L3.9375,12.375 C3.6225,12.375 3.375,12.1275 3.375,11.8125 C3.375,11.4975 3.6225,11.25 3.9375,11.25 L6.1875,11.25 C6.5025,11.25 6.75,11.4975 6.75,11.8125 C6.75,12.1275 6.5025,12.375 6.1875,12.375 Z M6.1875,9 L3.9375,9 C3.6225,9 3.375,8.7525 3.375,8.4375 C3.375,8.1225 3.6225,7.875 3.9375,7.875 L6.1875,7.875 C6.5025,7.875 6.75,8.1225 6.75,8.4375 C6.75,8.7525 6.5025,9 6.1875,9 Z M6.1875,5.625 L3.9375,5.625 C3.6225,5.625 3.375,5.3775 3.375,5.0625 C3.375,4.7475 3.6225,4.5 3.9375,4.5 L6.1875,4.5 C6.5025,4.5 6.75,4.7475 6.75,5.0625 C6.75,5.3775 6.5025,5.625 6.1875,5.625 Z M14.0625,12.375 L11.8125,12.375 C11.4975,12.375 11.25,12.1275 11.25,11.8125 C11.25,11.4975 11.4975,11.25 11.8125,11.25 L14.0625,11.25 C14.3775,11.25 14.625,11.4975 14.625,11.8125 C14.625,12.1275 14.3775,12.375 14.0625,12.375 Z M14.0625,9 L11.8125,9 C11.4975,9 11.25,8.7525 11.25,8.4375 C11.25,8.1225 11.4975,7.875 11.8125,7.875 L14.0625,7.875 C14.3775,7.875 14.625,8.1225 14.625,8.4375 C14.625,8.7525 14.3775,9 14.0625,9 Z" id="形状" fill="#FFFFFF"></path>
                            </g>
                        </g>
                    </g>
                </g>
            </g>
        </g>
    </g>
</svg>