<?xml version="1.0" encoding="UTF-8"?>
<svg width="30px" height="30px" viewBox="0 0 30 30" version="1.1" xmlns="http://www.w3.org/2000/svg" xmlns:xlink="http://www.w3.org/1999/xlink">
    <title>编组 5</title>
    <defs>
        <linearGradient x1="0%" y1="0%" x2="100%" y2="100%" id="linearGradient-1">
            <stop stop-color="#EB979D" offset="0%"></stop>
            <stop stop-color="#CF0010" offset="100%"></stop>
        </linearGradient>
        <rect id="path-2" x="0" y="0" width="30" height="30" rx="5"></rect>
    </defs>
    <g id="页面-1" stroke="none" stroke-width="1" fill="none" fill-rule="evenodd">
        <g id="SDSF-首页" transform="translate(-381.000000, -1694.000000)">
            <g id="场景" transform="translate(0.000000, 1382.000000)">
                <g id="编组-16备份" transform="translate(360.000000, 0.000000)">
                    <g id="编组-21" transform="translate(0.000000, 142.000000)">
                        <g id="编组-5" transform="translate(21.000000, 170.000000)">
                            <g id="矩形">
                                <use fill="#CF0010" xlink:href="#path-2"></use>
                                <use fill="url(#linearGradient-1)" xlink:href="#path-2"></use>
                            </g>
                            <g id="热门" transform="translate(7.000000, 7.000000)" fill-rule="nonzero">
                                <rect id="矩形" fill="#000000" opacity="0" x="0" y="0" width="16" height="16"></rect>
                                <path d="M6.51799065,16 C6.51799065,16 -0.577609344,14.4392 2.59379067,6.69280001 C2.59379067,6.69280001 3.31379067,7.5536 3.21479067,7.96780001 C3.21479067,7.96780001 3.77919066,6.01260001 4.99739066,4.8446 C6.04339065,3.84100001 7.10619066,1.01960001 6.12599066,0 C6.12599066,0 10.9809907,1.01960001 11.5213906,6.1196 C11.5213906,6.1196 12.1423906,4.4946 13.4173906,4.334 C13.4173906,4.334 13.0253906,5.2268 13.4173906,6.566 C13.4173906,6.566 17.4389906,13.45 10.5081907,15.7768 C10.5081907,15.7768 12.5857906,13.4178 8.17979066,9.36959999 C8.17979066,9.36959999 7.14099066,11.5376 6.51979065,12.3016 C6.51799065,12.3036 4.78499065,14.2464 6.51799065,16 Z" id="路径" fill="#FFFFFF"></path>
                            </g>
                        </g>
                    </g>
                </g>
            </g>
        </g>
    </g>
</svg>