<?xml version="1.0" encoding="UTF-8"?>
<svg width="20px" height="20px" viewBox="0 0 20 20" version="1.1" xmlns="http://www.w3.org/2000/svg" xmlns:xlink="http://www.w3.org/1999/xlink">
    <title>百公里加速</title>
    <defs>
        <filter id="filter-1">
            <feColorMatrix in="SourceGraphic" type="matrix" values="0 0 0 0 0.811765 0 0 0 0 0.000000 0 0 0 0 0.062745 0 0 0 1.000000 0"></feColorMatrix>
        </filter>
    </defs>
    <g id="页面-1" stroke="none" stroke-width="1" fill="none" fill-rule="evenodd">
        <g id="SDSF-行业场景" transform="translate(-1011.000000, -1624.000000)">
            <g id="编组-8" transform="translate(360.000000, 725.000000)">
                <g id="域名注册备份-3" transform="translate(1.000000, 245.000000)">
                    <g id="百公里加速" transform="translate(650.000000, 649.000000)" filter="url(#filter-1)">
                        <g transform="translate(0.000000, 5.000000)">
                            <rect id="矩形" fill="#000000" fill-rule="nonzero" opacity="0" x="0" y="0" width="20" height="20"></rect>
                            <path d="M7.79225807,11.9412903 L5.52903227,18.1667742 C5.29322582,18.8151613 6.10322582,19.3312903 6.59129033,18.8435484 L17.5532258,7.88967742 C17.9596774,7.4832258 17.6719355,6.78838709 17.0970968,6.78838709 L11.2845161,6.78838709 C10.9282034,6.78838709 10.6393548,7.07723564 10.6393548,7.43354838 C10.6393548,7.78986112 10.9282034,8.07870967 11.2845161,8.07870967 L15.5387097,8.07870967 L7.73419355,15.8770968 L9.31967742,11.5167742 C9.391677,11.3189438 9.36262503,11.0984274 9.24184511,10.9259947 C9.12106519,10.7535621 8.92375084,10.6509046 8.7132258,10.6509677 L4.45967742,10.6509677 L13.0345161,2.06903227 C13.2864292,1.816941 13.2862848,1.40836474 13.0341935,1.15645163 C12.7821023,0.904538525 12.373526,0.904682944 12.1216129,1.1567742 L2.4467742,10.8403226 C2.04064516,11.2467742 2.32903227,11.9412903 2.9032258,11.9412903 L7.79225807,11.9412903 Z" id="路径" fill="#000000" fill-rule="nonzero"></path>
                        </g>
                    </g>
                </g>
            </g>
        </g>
    </g>
</svg>