<svg id="图层_1" data-name="图层 1" xmlns="http://www.w3.org/2000/svg" xmlns:xlink="http://www.w3.org/1999/xlink" viewBox="0 0 760 414"><defs><style>.cls-1,.cls-13,.cls-2{fill:#fff;}.cls-1,.cls-10,.cls-11,.cls-12,.cls-13,.cls-14,.cls-15,.cls-16,.cls-2,.cls-22,.cls-27,.cls-3,.cls-31,.cls-36,.cls-39,.cls-4,.cls-42,.cls-43,.cls-44,.cls-45,.cls-47,.cls-48,.cls-49,.cls-50,.cls-52,.cls-56,.cls-58,.cls-59,.cls-60,.cls-61,.cls-62,.cls-65,.cls-66,.cls-67,.cls-69,.cls-7,.cls-70,.cls-71,.cls-73,.cls-74,.cls-75,.cls-77,.cls-78,.cls-79,.cls-81,.cls-82,.cls-83,.cls-84,.cls-86,.cls-88,.cls-90,.cls-93{fill-rule:evenodd;}.cls-2{fill-opacity:0.4;}.cls-2,.cls-53{stroke:#979797;stroke-width:0.76px;stroke-dasharray:1.52;}.cls-3,.cls-55{fill:#c7000b;}.cls-3{fill-opacity:0.06;stroke:#c7000b;opacity:0.48;}.cls-3,.cls-4{stroke-width:0.85px;}.cls-11,.cls-3,.cls-61,.cls-65,.cls-70,.cls-73,.cls-78,.cls-81,.cls-86{isolation:isolate;}.cls-4{fill:#eff4fb;stroke:#aeb3c8;}.cls-17,.cls-18,.cls-24,.cls-35,.cls-46,.cls-5,.cls-51,.cls-53,.cls-64,.cls-8,.cls-85,.cls-87,.cls-9,.cls-91,.cls-92{fill:none;}.cls-6{fill:url(#未命名的渐变);}.cls-7{fill:url(#未命名的渐变_2);}.cls-49,.cls-8,.cls-85,.cls-91{stroke:#a5adc1;}.cls-17,.cls-46,.cls-49,.cls-52,.cls-8{stroke-width:0.5px;}.cls-18,.cls-24,.cls-35,.cls-46,.cls-51,.cls-64,.cls-87,.cls-9,.cls-92{stroke:#555a6f;}.cls-9{stroke-width:0.68px;}.cls-10,.cls-11,.cls-86{fill:#a5adc1;}.cls-11{opacity:0.5;}.cls-12{stroke-width:0.5px;fill:url(#未命名的渐变_3);stroke:url(#未命名的渐变_4);}.cls-13{stroke:#8a93b5;stroke-width:1.03px;}.cls-14{fill:url(#未命名的渐变_5);}.cls-15{fill:url(#未命名的渐变_6);}.cls-16{fill:url(#未命名的渐变_7);}.cls-17{stroke:#999fb6;}.cls-18{stroke-width:0.78px;}.cls-19{fill:url(#未命名的渐变_8);}.cls-20{fill:url(#未命名的渐变_9);}.cls-21{fill:url(#未命名的渐变_10);}.cls-22{fill:url(#未命名的渐变_11);}.cls-23{mask:url(#mask);}.cls-24{stroke-width:0.79px;}.cls-25{fill:url(#未命名的渐变_12);}.cls-26{fill:url(#未命名的渐变_13);}.cls-27{fill:url(#未命名的渐变_14);}.cls-28{mask:url(#mask-2);}.cls-29{fill:url(#未命名的渐变_15);}.cls-30{fill:url(#未命名的渐变_16);}.cls-31{fill:url(#未命名的渐变_17);}.cls-32{mask:url(#mask-3);}.cls-33{fill:url(#未命名的渐变_18);}.cls-34{fill:url(#未命名的渐变_19);}.cls-35{stroke-width:0.83px;}.cls-36{fill:url(#未命名的渐变_20);}.cls-37{fill:url(#未命名的渐变_21);}.cls-38{fill:url(#未命名的渐变_22);}.cls-39{fill:url(#未命名的渐变_23);}.cls-40{fill:url(#未命名的渐变_24);}.cls-41{fill:url(#未命名的渐变_25);}.cls-42{fill:url(#未命名的渐变_26);}.cls-43{fill:#d5e0f3;}.cls-44{fill:#f7faff;}.cls-45{fill:#f1f6ff;}.cls-47{fill:#e3ebf9;}.cls-48{fill:#e8ecf3;}.cls-49,.cls-52{fill:#e5eaf3;}.cls-50{fill:url(#未命名的渐变_27);}.cls-51,.cls-64{stroke-linecap:round;stroke-linejoin:round;}.cls-51{stroke-width:1.36px;}.cls-52{stroke:#bcc0cd;}.cls-54{fill:#656b85;}.cls-56{fill:url(#未命名的渐变_28);}.cls-57{fill:url(#未命名的渐变_29);}.cls-58{fill:#ebf2ff;}.cls-59{fill:#d1dcf0;}.cls-60{fill:url(#未命名的渐变_30);}.cls-61,.cls-70,.cls-78{opacity:0.9;}.cls-61{fill:url(#未命名的渐变_31);}.cls-62,.cls-71,.cls-79{fill-opacity:0.9;}.cls-62{fill:url(#未命名的渐变_32);}.cls-63{fill:url(#未命名的渐变_33);}.cls-64{stroke-width:0.74px;}.cls-65,.cls-73,.cls-81{opacity:0.1;}.cls-65{fill:url(#未命名的渐变_34);}.cls-66{fill:url(#未命名的渐变_35);}.cls-67{fill:url(#未命名的渐变_36);}.cls-68{fill:url(#未命名的渐变_37);}.cls-69{fill:url(#未命名的渐变_38);}.cls-70{fill:url(#未命名的渐变_39);}.cls-71{fill:url(#未命名的渐变_40);}.cls-72{fill:url(#未命名的渐变_41);}.cls-73{fill:url(#未命名的渐变_42);}.cls-74{fill:url(#未命名的渐变_43);}.cls-75{fill:url(#未命名的渐变_44);}.cls-76{fill:url(#未命名的渐变_45);}.cls-77{fill:url(#未命名的渐变_46);}.cls-78{fill:url(#未命名的渐变_47);}.cls-79{fill:url(#未命名的渐变_48);}.cls-80{fill:url(#未命名的渐变_49);}.cls-81{fill:url(#未命名的渐变_50);}.cls-82{fill:url(#未命名的渐变_51);}.cls-83{fill:url(#未命名的渐变_52);}.cls-84{fill:url(#未命名的渐变_53);}.cls-85{stroke-width:0.51px;}.cls-86{opacity:0.5;}.cls-87{stroke-width:1.03px;}.cls-88{fill:url(#未命名的渐变_54);}.cls-89{fill:url(#未命名的渐变_55);}.cls-90{fill:url(#未命名的渐变_56);}.cls-91{stroke-width:0.54px;}.cls-92{stroke-width:1.12px;}.cls-93{fill:url(#未命名的渐变_57);}</style><linearGradient id="未命名的渐变" x1="-566.52" y1="734.92" x2="-565.78" y2="734.73" gradientTransform="matrix(46.6, 0, 0, -26.15, 26796.79, 19325.33)" gradientUnits="userSpaceOnUse"><stop offset="0" stop-color="#fefeff"/><stop offset="1" stop-color="#f1f6ff"/></linearGradient><linearGradient id="未命名的渐变_2" x1="-565.58" y1="736.36" x2="-566.58" y2="736.37" gradientTransform="matrix(46.6, 0, 0, -29.8, 26796.79, 22066.47)" gradientUnits="userSpaceOnUse"><stop offset="0" stop-color="#cbd3e0"/><stop offset="0.24" stop-color="#90a1bd"/><stop offset="0.47" stop-color="#dce0e8"/><stop offset="0.69" stop-color="#cad1dc"/><stop offset="1" stop-color="#ebeef2"/></linearGradient><linearGradient id="未命名的渐变_3" x1="-549.03" y1="744.4" x2="-547.22" y2="744.17" gradientTransform="matrix(20.39, 9.51, 7.66, -16.44, 5901.69, 17561.2)" gradientUnits="userSpaceOnUse"><stop offset="0" stop-color="#8892bd"/><stop offset="1" stop-color="#555a6f"/></linearGradient><linearGradient id="未命名的渐变_4" x1="-549.03" y1="744.4" x2="-547.22" y2="744.17" xlink:href="#未命名的渐变_3"/><linearGradient id="未命名的渐变_5" x1="-379.48" y1="731.75" x2="-379.45" y2="732.79" gradientTransform="matrix(2.91, 0, 0, -21.95, 1541.63, 16339.85)" gradientUnits="userSpaceOnUse"><stop offset="0" stop-color="#ecf2fa"/><stop offset="1" stop-color="#d5e0f3"/></linearGradient><linearGradient id="未命名的渐变_6" x1="-565.37" y1="738.42" x2="-566.37" y2="738.44" gradientTransform="matrix(45.85, 0, 0, -36.61, 26362.27, 27306.63)" xlink:href="#未命名的渐变_2"/><linearGradient id="未命名的渐变_7" x1="-566.17" y1="735.38" x2="-565.55" y2="735.09" gradientTransform="matrix(45.94, 0, 0, -26.89, 26414.6, 20028.94)" xlink:href="#未命名的渐变"/><linearGradient id="未命名的渐变_8" x1="-550.27" y1="724.79" x2="-549.62" y2="724.38" gradientTransform="matrix(20.34, 0, 0, -14.46, 11605.48, 10729.29)" xlink:href="#未命名的渐变_3"/><linearGradient id="未命名的渐变_9" x1="-566.05" y1="739.18" x2="-567.29" y2="739.18" gradientTransform="matrix(48.6, 0, 0, -39.9, 28236.4, 29586.05)" gradientUnits="userSpaceOnUse"><stop offset="0" stop-color="#bdc6d4"/><stop offset="0.07" stop-color="#b5bfd1"/><stop offset="0.13" stop-color="#c1cde0"/><stop offset="0.26" stop-color="#aab8ce"/><stop offset="0.27" stop-color="#afbbd0"/><stop offset="0.29" stop-color="#d5dae2"/><stop offset="0.32" stop-color="#cfd5e0"/><stop offset="0.35" stop-color="#c5cedc"/><stop offset="0.35" stop-color="#c6cfdd"/><stop offset="0.41" stop-color="#afbed5"/><stop offset="0.45" stop-color="#acbbd4"/><stop offset="0.48" stop-color="#abbbd4"/><stop offset="0.5" stop-color="#d1daea"/><stop offset="0.53" stop-color="#cfd8e8"/><stop offset="0.55" stop-color="#b9c4d5"/><stop offset="0.7" stop-color="#d2dae9"/><stop offset="0.76" stop-color="#d0d8e5"/><stop offset="0.78" stop-color="#e2e8f1"/><stop offset="0.8" stop-color="#e5e8ed"/><stop offset="0.83" stop-color="#dee3eb"/><stop offset="0.91" stop-color="#d7dee9"/><stop offset="1" stop-color="#ebeef2"/></linearGradient><linearGradient id="未命名的渐变_10" x1="-516.43" y1="724.29" x2="-517.96" y2="724.36" gradientTransform="matrix(9.36, 0, 0, -14.31, 5558.76, 10449.23)" gradientUnits="userSpaceOnUse"><stop offset="0" stop-color="#bdc6d4"/><stop offset="0.07" stop-color="#b5bfd1"/><stop offset="0.14" stop-color="#acb9cd"/><stop offset="0.26" stop-color="#aab8ce"/><stop offset="0.27" stop-color="#afbbd0"/><stop offset="0.29" stop-color="#d5dae2"/><stop offset="0.32" stop-color="#cfd5e0"/><stop offset="0.35" stop-color="#c5cedc"/><stop offset="0.35" stop-color="#c6cfdd"/><stop offset="0.41" stop-color="#afbed5"/><stop offset="0.45" stop-color="#acbbd4"/><stop offset="0.48" stop-color="#abbbd4"/><stop offset="0.5" stop-color="#d1daea"/><stop offset="0.53" stop-color="#cfd8e8"/><stop offset="0.55" stop-color="#b9c4d5"/><stop offset="0.7" stop-color="#d2dae9"/><stop offset="0.76" stop-color="#d0d8e5"/><stop offset="0.78" stop-color="#e2e8f1"/><stop offset="0.8" stop-color="#e5e8ed"/><stop offset="0.83" stop-color="#dee3eb"/><stop offset="0.91" stop-color="#d7dee9"/><stop offset="1" stop-color="#ebeef2"/></linearGradient><linearGradient id="未命名的渐变_11" x1="-566.73" y1="736.19" x2="-566.11" y2="736.09" gradientTransform="matrix(47.74, 0, 0, -29.13, 27743, 21526.04)" xlink:href="#未命名的渐变"/><mask id="mask" x="678.05" y="70.33" width="47.74" height="29.13" maskUnits="userSpaceOnUse"><g id="mask-12"><path id="path-11" class="cls-1" d="M722.2,72.26,725.8,80l-8.07,4.27a1.48,1.48,0,0,0-.62,2l3.17,6.11a1.49,1.49,0,0,1-.57,2L712,98.84a4.42,4.42,0,0,1-2.73.59l-9-1a2.23,2.23,0,0,1-1.78-1.29l-3.1-6.76a2.25,2.25,0,0,0-1.7-1.27l-10.24-1.5A3,3,0,0,1,681.22,86l-3.17-6.68h0l9.49-5.65L699,75.21a4.39,4.39,0,0,0,2.75-.52l7.92-4.36Z"/></g></mask><linearGradient id="未命名的渐变_12" x1="-566.05" y1="739.18" x2="-567.29" y2="739.18" gradientTransform="matrix(48.6, 0, 0, -39.9, 28236.4, 29702.05)" xlink:href="#未命名的渐变_9"/><linearGradient id="未命名的渐变_13" x1="-516.43" y1="724.29" x2="-517.96" y2="724.36" gradientTransform="matrix(9.36, 0, 0, -14.31, 5558.76, 10565.23)" xlink:href="#未命名的渐变_10"/><linearGradient id="未命名的渐变_14" x1="-566.73" y1="736.19" x2="-566.11" y2="736.09" gradientTransform="matrix(47.74, 0, 0, -29.13, 27743, 21642.04)" xlink:href="#未命名的渐变"/><mask id="mask-2" x="678.05" y="186.33" width="47.74" height="29.13" maskUnits="userSpaceOnUse"><g id="mask-14"><path id="path-13" class="cls-1" d="M722.2,188.26l3.6,7.72-8.07,4.27a1.48,1.48,0,0,0-.62,2l3.17,6.11a1.49,1.49,0,0,1-.57,2L712,214.84a4.42,4.42,0,0,1-2.73.59l-9-1a2.23,2.23,0,0,1-1.78-1.29l-3.1-6.76a2.25,2.25,0,0,0-1.7-1.27l-10.24-1.5a3,3,0,0,1-2.25-1.67l-3.17-6.68h0l9.49-5.65L699,191.21a4.39,4.39,0,0,0,2.75-.52l7.92-4.36Z"/></g></mask><linearGradient id="未命名的渐变_15" x1="-566.05" y1="739.18" x2="-567.29" y2="739.18" gradientTransform="matrix(48.6, 0, 0, -39.9, 28236.4, 29818.05)" xlink:href="#未命名的渐变_9"/><linearGradient id="未命名的渐变_16" x1="-516.43" y1="724.29" x2="-517.96" y2="724.36" gradientTransform="matrix(9.36, 0, 0, -14.31, 5558.76, 10681.23)" xlink:href="#未命名的渐变_10"/><linearGradient id="未命名的渐变_17" x1="-566.73" y1="736.19" x2="-566.11" y2="736.09" gradientTransform="matrix(47.74, 0, 0, -29.13, 27743, 21758.04)" xlink:href="#未命名的渐变"/><mask id="mask-3" x="678.05" y="302.33" width="47.74" height="29.13" maskUnits="userSpaceOnUse"><g id="mask-16"><path id="path-15" class="cls-1" d="M722.2,304.26l3.6,7.72-8.07,4.27a1.48,1.48,0,0,0-.62,2l3.17,6.11a1.49,1.49,0,0,1-.57,2L712,330.84a4.42,4.42,0,0,1-2.73.59l-9-1a2.23,2.23,0,0,1-1.78-1.29l-3.1-6.76a2.25,2.25,0,0,0-1.7-1.27l-10.24-1.5a3,3,0,0,1-2.25-1.67l-3.17-6.68h0l9.49-5.65L699,307.21a4.39,4.39,0,0,0,2.75-.52l7.92-4.36Z"/></g></mask><linearGradient id="未命名的渐变_18" x1="-567.1" y1="737.21" x2="-566.17" y2="737.38" gradientTransform="matrix(48.48, 0, 0, -32.51, 27760.56, 24075.22)" xlink:href="#未命名的渐变"/><linearGradient id="未命名的渐变_19" x1="-566.07" y1="735.24" x2="-567.2" y2="735.24" gradientTransform="matrix(48.46, 0, 0, -27.09, 27746.03, 20040.17)" gradientUnits="userSpaceOnUse"><stop offset="0" stop-color="#bdc6d4"/><stop offset="0.28" stop-color="#99aac5"/><stop offset="0.4" stop-color="#9fb0cc"/><stop offset="0.43" stop-color="#a5b6d1"/><stop offset="0.81" stop-color="#dce0e8"/><stop offset="0.82" stop-color="#d9dee7"/><stop offset="0.83" stop-color="#e3e6ec"/><stop offset="0.85" stop-color="#f3f3f3"/><stop offset="0.9" stop-color="#cad1dc"/><stop offset="1" stop-color="#ebeef2"/></linearGradient><linearGradient id="未命名的渐变_20" x1="-554.28" y1="724.79" x2="-553.15" y2="724.26" gradientTransform="matrix(24.06, 0, 0, -14.61, 13629.22, 10696.42)" xlink:href="#未命名的渐变_3"/><linearGradient id="未命名的渐变_21" x1="-567.1" y1="737.21" x2="-566.17" y2="737.38" gradientTransform="matrix(48.48, 0, 0, -32.51, 27760.56, 24183.22)" xlink:href="#未命名的渐变"/><linearGradient id="未命名的渐变_22" x1="-566.07" y1="735.24" x2="-567.2" y2="735.24" gradientTransform="matrix(48.46, 0, 0, -27.09, 27746.03, 20148.17)" xlink:href="#未命名的渐变_19"/><linearGradient id="未命名的渐变_23" x1="-554.28" y1="724.79" x2="-553.15" y2="724.26" gradientTransform="matrix(24.06, 0, 0, -14.61, 13629.22, 10804.42)" xlink:href="#未命名的渐变_3"/><linearGradient id="未命名的渐变_24" x1="-567.1" y1="737.21" x2="-566.17" y2="737.38" gradientTransform="matrix(48.48, 0, 0, -32.51, 27760.56, 24285.22)" xlink:href="#未命名的渐变"/><linearGradient id="未命名的渐变_25" x1="-566.07" y1="735.24" x2="-567.2" y2="735.24" gradientTransform="matrix(48.46, 0, 0, -27.09, 27746.03, 20250.17)" xlink:href="#未命名的渐变_19"/><linearGradient id="未命名的渐变_26" x1="-554.28" y1="724.79" x2="-553.15" y2="724.26" gradientTransform="matrix(24.06, 0, 0, -14.61, 13629.22, 10906.42)" xlink:href="#未命名的渐变_3"/><linearGradient id="未命名的渐变_27" x1="-561.37" y1="740.47" x2="-561.75" y2="739.78" gradientTransform="matrix(34.29, 0, 0, -44.44, 19308.16, 32953.65)" xlink:href="#未命名的渐变"/><linearGradient id="未命名的渐变_28" x1="-564.34" y1="735.17" x2="-563.01" y2="735.8" gradientTransform="matrix(38.97, 0, 0, -27.7, 22515.73, 20459.31)" gradientUnits="userSpaceOnUse"><stop offset="0" stop-color="#cbd3e0"/><stop offset="0.05" stop-color="#90a1bd"/><stop offset="0.09" stop-color="#aebacf"/><stop offset="0.26" stop-color="#cad1dc"/><stop offset="0.59" stop-color="#cbd2dd"/><stop offset="0.79" stop-color="#dce0e8"/><stop offset="1" stop-color="#ebeef2"/></linearGradient><linearGradient id="未命名的渐变_29" x1="-453.27" y1="684.87" x2="-454.05" y2="688.26" gradientTransform="matrix(4.64, 0, 0, -5.5, 2634.57, 3878.43)" gradientUnits="userSpaceOnUse"><stop offset="0" stop-color="#cbd3e0"/><stop offset="0.06" stop-color="#90a1bd"/><stop offset="0.71" stop-color="#d8dce5"/><stop offset="0.96" stop-color="#dce0e8"/><stop offset="1" stop-color="#cad1dc"/><stop offset="1" stop-color="#ebeef2"/></linearGradient><linearGradient id="未命名的渐变_30" x1="-531.3" y1="717.56" x2="-530.38" y2="718.91" gradientTransform="matrix(12.11, 0, 0, -11.42, 6949.72, 8302.54)" gradientUnits="userSpaceOnUse"><stop offset="0" stop-color="#cbd3e0"/><stop offset="0.04" stop-color="#90a1bd"/><stop offset="0.3" stop-color="#cad1dc"/><stop offset="0.53" stop-color="#cbd2dd"/><stop offset="0.84" stop-color="#dce0e8"/><stop offset="1" stop-color="#ebeef2"/></linearGradient><linearGradient id="未命名的渐变_31" x1="-541.05" y1="737.68" x2="-540.94" y2="739.16" gradientTransform="matrix(15.42, 0, 0, -37.4, 8866.62, 27703.25)" gradientUnits="userSpaceOnUse"><stop offset="0" stop-color="#cbd3e0"/><stop offset="0.04" stop-color="#90a1bd"/><stop offset="0.3" stop-color="#cad1dc"/><stop offset="0.53" stop-color="#cbd2dd"/><stop offset="0.86" stop-color="#fafbfc"/><stop offset="1" stop-color="#ebeef2"/></linearGradient><linearGradient id="未命名的渐变_32" x1="-563.84" y1="740.4" x2="-562.91" y2="741.21" gradientTransform="matrix(38.11, 0, 0, -50.07, 22017.56, 37169)" gradientUnits="userSpaceOnUse"><stop offset="0" stop-color="#cbd3e0"/><stop offset="0.02" stop-color="#90a1bd"/><stop offset="0.02" stop-color="#cbd3e0"/><stop offset="0.36" stop-color="#cad1dc"/><stop offset="0.55" stop-color="#cbd2dd"/><stop offset="0.82" stop-color="#dce0e8"/><stop offset="1" stop-color="#eaedf2"/><stop offset="1" stop-color="#ebeef2"/></linearGradient><linearGradient id="未命名的渐变_33" x1="-566.82" y1="735.33" x2="-566.2" y2="735.4" gradientTransform="matrix(47.46, 0, 0, -27.4, 27423.86, 20206.82)" gradientUnits="userSpaceOnUse"><stop offset="0" stop-color="#fefeff"/><stop offset="1" stop-color="#f1f6ff"/></linearGradient><radialGradient id="未命名的渐变_34" cx="-563.39" cy="735.15" r="1.07" gradientTransform="matrix(33.78, -4.38, -4.38, -33.78, 22787.56, 22466.09)" gradientUnits="userSpaceOnUse"><stop offset="0" stop-color="#7787c2"/><stop offset="1" stop-color="#7787c3" stop-opacity="0"/></radialGradient><linearGradient id="未命名的渐变_35" x1="-530.3" y1="730.05" x2="-530.01" y2="729.04" gradientTransform="matrix(12, 0, 0, -18.84, 6912.2, 13824.22)" xlink:href="#未命名的渐变_3"/><linearGradient id="未命名的渐变_36" x1="-564.34" y1="735.17" x2="-563.01" y2="735.8" gradientTransform="matrix(38.97, 0, 0, -27.7, 22515.73, 20581.31)" xlink:href="#未命名的渐变_28"/><linearGradient id="未命名的渐变_37" x1="-453.27" y1="684.87" x2="-454.05" y2="688.26" gradientTransform="matrix(4.64, 0, 0, -5.5, 2634.57, 4000.43)" xlink:href="#未命名的渐变_29"/><linearGradient id="未命名的渐变_38" x1="-531.3" y1="717.56" x2="-530.38" y2="718.91" gradientTransform="matrix(12.11, 0, 0, -11.42, 6949.72, 8424.54)" xlink:href="#未命名的渐变_30"/><linearGradient id="未命名的渐变_39" x1="-541.05" y1="737.68" x2="-540.94" y2="739.16" gradientTransform="matrix(15.42, 0, 0, -37.4, 8866.62, 27825.25)" xlink:href="#未命名的渐变_31"/><linearGradient id="未命名的渐变_40" x1="-563.84" y1="740.4" x2="-562.91" y2="741.21" gradientTransform="matrix(38.11, 0, 0, -50.07, 22017.56, 37291)" xlink:href="#未命名的渐变_32"/><linearGradient id="未命名的渐变_41" x1="-566.82" y1="735.33" x2="-566.2" y2="735.4" gradientTransform="matrix(47.46, 0, 0, -27.4, 27423.86, 20328.82)" xlink:href="#未命名的渐变_33"/><radialGradient id="未命名的渐变_42" cx="-563.39" cy="735.15" r="1.07" gradientTransform="matrix(33.78, -4.38, -4.38, -33.78, 22787.56, 22588.09)" xlink:href="#未命名的渐变_34"/><linearGradient id="未命名的渐变_43" x1="-530.3" y1="730.05" x2="-530.01" y2="729.04" gradientTransform="matrix(12, 0, 0, -18.84, 6912.2, 13946.22)" xlink:href="#未命名的渐变_3"/><linearGradient id="未命名的渐变_44" x1="-564.34" y1="735.17" x2="-563.01" y2="735.8" gradientTransform="matrix(38.97, 0, 0, -27.7, 22515.73, 20706.31)" xlink:href="#未命名的渐变_28"/><linearGradient id="未命名的渐变_45" x1="-453.27" y1="684.87" x2="-454.05" y2="688.26" gradientTransform="matrix(4.64, 0, 0, -5.5, 2634.57, 4125.43)" xlink:href="#未命名的渐变_29"/><linearGradient id="未命名的渐变_46" x1="-531.3" y1="717.56" x2="-530.38" y2="718.91" gradientTransform="matrix(12.11, 0, 0, -11.42, 6949.72, 8549.54)" xlink:href="#未命名的渐变_30"/><linearGradient id="未命名的渐变_47" x1="-541.05" y1="737.68" x2="-540.94" y2="739.16" gradientTransform="matrix(15.42, 0, 0, -37.4, 8866.62, 27950.25)" xlink:href="#未命名的渐变_31"/><linearGradient id="未命名的渐变_48" x1="-563.84" y1="740.4" x2="-562.91" y2="741.21" gradientTransform="matrix(38.11, 0, 0, -50.07, 22017.56, 37416)" xlink:href="#未命名的渐变_32"/><linearGradient id="未命名的渐变_49" x1="-566.82" y1="735.33" x2="-566.2" y2="735.4" gradientTransform="matrix(47.46, 0, 0, -27.4, 27423.86, 20453.82)" xlink:href="#未命名的渐变_33"/><radialGradient id="未命名的渐变_50" cx="-563.39" cy="735.15" r="1.07" gradientTransform="matrix(33.78, -4.38, -4.38, -33.78, 22787.56, 22713.09)" xlink:href="#未命名的渐变_34"/><linearGradient id="未命名的渐变_51" x1="-530.3" y1="730.05" x2="-530.01" y2="729.04" gradientTransform="matrix(12, 0, 0, -18.84, 6912.2, 14071.22)" xlink:href="#未命名的渐变_3"/><linearGradient id="未命名的渐变_52" x1="-567.98" y1="737.11" x2="-567.67" y2="737.06" gradientTransform="matrix(54.34, 0, 0, -31.88, 31024, 23818.11)" xlink:href="#未命名的渐变"/><linearGradient id="未命名的渐变_53" x1="-567.35" y1="738.15" x2="-568.35" y2="738.16" gradientTransform="matrix(54.37, 0, 0, -35.51, 31041.42, 26546.98)" gradientUnits="userSpaceOnUse"><stop offset="0" stop-color="#cbd3e0"/><stop offset="0.43" stop-color="#90a1bd"/><stop offset="0.54" stop-color="#eee"/><stop offset="0.68" stop-color="#d8dde5"/><stop offset="0.77" stop-color="#cad1dc"/><stop offset="1" stop-color="#ebeef2"/></linearGradient><linearGradient id="未命名的渐变_54" x1="-557.24" y1="729.21" x2="-556.54" y2="728.76" gradientTransform="matrix(27.19, 0, 0, -18.13, 15315.97, 13531.47)" xlink:href="#未命名的渐变_3"/><linearGradient id="未命名的渐变_55" x1="-568.23" y1="736.67" x2="-567.49" y2="736.48" gradientTransform="matrix(54.06, 0, 0, -30.34, 30861.35, 22564.6)" xlink:href="#未命名的渐变"/><linearGradient id="未命名的渐变_56" x1="-567.29" y1="737.89" x2="-568.29" y2="737.9" gradientTransform="matrix(54.06, 0, 0, -34.57, 30861.35, 25743.84)" xlink:href="#未命名的渐变_2"/><linearGradient id="未命名的渐变_57" x1="-546.69" y1="727.18" x2="-545.99" y2="726.36" gradientTransform="matrix(18.13, 0, 0, -16.31, 10073.31, 12078.22)" xlink:href="#未命名的渐变_3"/></defs><g id="外部入侵防御"><path id="Combined-Shape备份-10" class="cls-2" d="M343,399H241V16H343Z"/><polygon id="Combined-Shape备份-13" class="cls-3" points="212 399 121 399 121 180 212 180 212 399"/><polygon id="Combined-Shape备份-14" class="cls-3" points="93 352 4 352 4 227 93 227 93 352"/><polygon id="Combined-Shape备份-11" class="cls-4" points="600 399 373 399 373 16 600 16 600 399"/><polygon id="Combined-Shape备份-12" class="cls-4" points="744 399 644 399 644 16 744 16 744 399"/><path id="VPC" d="M685.74,46l3.59-10h-1.66l-2.82,8.29h-.05L682,36h-1.65l3.59,10Zm6.16,0V42.11h2.59q3.6,0,3.6-3.07t-3.57-3h-4.14V46Zm2.5-5.19h-2.5v-3.5h2.5a2.59,2.59,0,0,1,1.63.42,1.52,1.52,0,0,1,.54,1.31,1.69,1.69,0,0,1-.52,1.35A2.63,2.63,0,0,1,694.4,40.81Zm9.46,5.39a4.27,4.27,0,0,0,2.77-.93,4.44,4.44,0,0,0,1.57-2.73h-1.48a3.12,3.12,0,0,1-1.06,1.77,2.94,2.94,0,0,1-1.82.54,2.89,2.89,0,0,1-2.47-1.05,4.44,4.44,0,0,1-.76-2.78,4.39,4.39,0,0,1,.77-2.76,2.84,2.84,0,0,1,2.44-1.11,3.14,3.14,0,0,1,1.79.48,2.41,2.41,0,0,1,1,1.5h1.48a3.68,3.68,0,0,0-1.33-2.41,4.41,4.41,0,0,0-2.89-.91,4.33,4.33,0,0,0-3.63,1.58A5.56,5.56,0,0,0,699.09,41a5.55,5.55,0,0,0,1.07,3.61A4.48,4.48,0,0,0,703.86,46.2Z"/><path id="VPC-2" data-name="VPC" d="M400.74,46l3.59-10h-1.66l-2.82,8.29h-.05L397,36h-1.65l3.58,10Zm6.16,0V42.11h2.59q3.6,0,3.6-3.07t-3.57-3h-4.14V46Zm2.49-5.19H406.9v-3.5h2.49a2.6,2.6,0,0,1,1.64.42,1.52,1.52,0,0,1,.54,1.31,1.69,1.69,0,0,1-.52,1.35A2.65,2.65,0,0,1,409.39,40.81Zm9.47,5.39a4.27,4.27,0,0,0,2.77-.93,4.39,4.39,0,0,0,1.57-2.73h-1.49a3.1,3.1,0,0,1-1,1.77,3,3,0,0,1-1.82.54,2.91,2.91,0,0,1-2.48-1.05,4.44,4.44,0,0,1-.76-2.78,4.39,4.39,0,0,1,.77-2.76,2.84,2.84,0,0,1,2.44-1.11,3.12,3.12,0,0,1,1.79.48,2.45,2.45,0,0,1,1,1.5h1.48a3.73,3.73,0,0,0-1.33-2.41,5,5,0,0,0-6.53.67A5.62,5.62,0,0,0,414.08,41a5.55,5.55,0,0,0,1.08,3.61A4.48,4.48,0,0,0,418.86,46.2Z"/><path id="用户" d="M36.54,29.34A8.28,8.28,0,0,0,38.09,25h3.29v4h1.35V25H46.2v2.08c0,.55-.24.83-.69.83s-1,0-1.52-.07l.35,1.3H46a1.42,1.42,0,0,0,1.61-1.58V17H36.82v6.86a8,8,0,0,1-1.3,4.57Zm9.66-9H42.73v-2.1H46.2Zm-4.82,0H38.16v-2.1h3.22Zm0,3.36H38.16V21.6h3.22Zm4.82,0H42.73V21.6H46.2Zm4.19,5.77a11.88,11.88,0,0,0,1.94-6.4h9v-5H56.88c-.22-.63-.45-1.2-.68-1.72l-1.43.22a11,11,0,0,1,.75,1.5H51v4.58a10.24,10.24,0,0,1-1.62,5.91ZM60,21.81H52.35V19.43H60Z"/><path id="互联网云防火墙集群" d="M270.81,47v-1.3h-3.19l1.08-7.38h-6l.5-2h7.27V35h-12v1.3h3.39l-1.83,7.28h6.59l-.32,2.09h-8.11V47Zm-4-4.63h-5.17l.72-2.8h4.9Zm11.37,5.16a7.6,7.6,0,0,0,3.09-4.44,11.46,11.46,0,0,0,2.81,4.39l.91-1a9.48,9.48,0,0,1-2.94-4.37h2.72V40.82h-3.08A18.28,18.28,0,0,0,281.8,39v-.25h2.76V37.46H282.7A18.88,18.88,0,0,0,283.9,35l-1.23-.47a19,19,0,0,1-1.3,2.93H277.9v1.26h2.63v.55c0,.53,0,1-.08,1.55h-2.76v1.27h2.56a6.48,6.48,0,0,1-2.84,4.36Zm1.51-10.08,1-.68a16.61,16.61,0,0,0-1.23-2.16l-1,.64A18.17,18.17,0,0,1,279.72,37.43Zm-2.76,10V44.82l.83-.25V43.28l-.83.27h0V36.23h.8V35H272.1v1.23h.74v8.29l-.79.12.32,1.26c1.15-.22,2.25-.46,3.32-.74v2.31ZM275.69,38h-1.57V36.23h1.57Zm0,2.91h-1.57V39.2h1.57Zm-1.57,3.38V42.11h1.57v1.8C275.18,44,274.65,44.17,274.12,44.28Zm14,3.16V36.28h8.8v9.36a.46.46,0,0,1-.52.49l-1.32-.06.35,1.29h1.4a1.25,1.25,0,0,0,1.4-1.43V35H286.79V47.44Zm1.07-1.64a15.16,15.16,0,0,0,1.68-3.27c.38.53.74,1.09,1.1,1.68l.89-.87c-.54-.81-1-1.55-1.52-2.23a29.14,29.14,0,0,0,.82-3.85l-1.22-.21c-.14,1-.32,1.94-.53,2.82-.54-.67-1-1.25-1.46-1.72l-.81.79c.64.76,1.26,1.53,1.85,2.34a15.06,15.06,0,0,1-1.66,3.49Zm3.79.34a14.58,14.58,0,0,0,1.82-3.28c.41.65.81,1.32,1.21,2l.89-.88c-.56-.93-1.09-1.77-1.59-2.54a30.3,30.3,0,0,0,1-4.15L295,37.1c-.17,1.06-.38,2.08-.63,3A21.13,21.13,0,0,0,293,38.31l-.82.79c.61.78,1.21,1.61,1.8,2.48a14.73,14.73,0,0,1-1.82,3.54Zm18.64-9.62V35.23H301.54v1.29Zm-.34,11,1.19-.83a46,46,0,0,0-2.95-4.94l-1.07.66c.53.84,1,1.67,1.47,2.46q-3.4.49-6.86.7a25.57,25.57,0,0,0,3.17-5.16h6.63V39.1H300.2v1.33h4.52q-2.07,4.16-3.36,5.12a1.48,1.48,0,0,1-.32.13l.35,1.36q5-.34,9.17-.93C310.81,46.59,311,47.06,311.26,47.54Zm7.69,0a11.84,11.84,0,0,0,2.31-3.26,11.09,11.09,0,0,0,.81-3h2.74c0,2.07-.07,3.36-.15,3.87a1.09,1.09,0,0,1-1,1c-.38,0-.84,0-1.38-.06l.42,1.23a8,8,0,0,0,1.1.09,2,2,0,0,0,2-1.4,32.72,32.72,0,0,0,.4-6h-4c0-.93.07-1.64.1-2.16h4.49V36.49h-2.94c-.19-.75-.4-1.41-.61-2l-1.36.23c.22.53.43,1.13.63,1.77h-3.35v1.29h1.78c0,.45,0,1.08-.06,1.91a12.19,12.19,0,0,1-.61,3.5,10.28,10.28,0,0,1-2.3,3.38Zm-3.13,0V36.24h1.94A36.3,36.3,0,0,1,316.3,40a5.43,5.43,0,0,1,1.39,3.2.58.58,0,0,1-.2.49,2,2,0,0,1-.81.17,5.4,5.4,0,0,1-.72-.07l.44,1.34a3.55,3.55,0,0,0,2.2-.54,1.91,1.91,0,0,0,.43-1.39,7.5,7.5,0,0,0-1.37-3.4c.54-1.33,1-2.59,1.43-3.79V35h-4.57V47.46ZM266,67.44c2.95-1.82,4.8-3.95,5.54-6.41a11.74,11.74,0,0,0,5.63,6.34l.81-1.06q-5.1-2.76-5.79-7.14V54.55h-1.35v4.62c-.22,2.8-2.1,5.19-5.65,7.21Zm8.44-6.3a17,17,0,0,0,2.76-4l-1.15-.55a15.34,15.34,0,0,1-2.62,3.82Zm-7.13.37A22.45,22.45,0,0,0,268.83,57l-1.19-.33a21.53,21.53,0,0,1-1.5,4.47ZM291.93,60V58.87h-1.6a12.29,12.29,0,0,0,.66-1.54l-1.18-.42a13.78,13.78,0,0,1-.77,2h-.87V56.63h3.21V55.47h-3.21v-.92h-1.33v.92h-3.26v1.16h3.26v2.24h-.79a14.41,14.41,0,0,0-.79-1.83l-1.15.46a13.44,13.44,0,0,1,.69,1.37h-1.68V60Zm-12.58,5.67a25.3,25.3,0,0,0,3.8-1.52V62.84c-.49.25-1,.47-1.47.67v-4h1.12V58.19h-1.12V54.58h-1.33v3.61H279.2v1.27h1.15V64c-.45.13-.9.24-1.35.34Zm5.7,1.72V67h5v.46h1.21V60.76h-7.42v6.67Zm5-1.57h-5v-4h5Zm-.79-.64V62.51h-3.37v2.71Zm-1-.87h-1.39v-1h1.39Zm16.91-2.27V61h-4.61v-.74h3.78v-1h-3.78v-.68h3.78v-1h-3.78v-.71h4.34v-1.1h-4.41c-.18-.49-.36-.92-.54-1.31l-1.36.22a10.21,10.21,0,0,1,.59,1.09h-2.69c.15-.3.29-.64.42-1l-1.25-.28a10.23,10.23,0,0,1-2.64,3.8l.77,1c.32-.31.63-.62.91-.93v3.74Zm-5.91-4.55h-3.33v-.71h3.33Zm0,1.69h-3.33v-.68h3.33Zm0,1.75h-3.33v-.74h3.33Zm.94,6.49V64.15h.18a10.09,10.09,0,0,0,4.79,2.94l.57-1.17a10.76,10.76,0,0,1-4-1.77h3.84V62.93H300.2v-.56h-1.32v.56h-5.46v1.22h3.94A12,12,0,0,1,293.27,66l.7,1.14a10.4,10.4,0,0,0,4.73-3h.18v3.31Zm17.18,0V64.31h2.52V63h-2.52V61.3h1.92V60.06h-1.92v-1.7h2.21V57.08h-1.34a19.71,19.71,0,0,0,.89-2.22l-1.24-.44a19.53,19.53,0,0,1-1,2.66h-1.35l.8-.39a22.8,22.8,0,0,0-1.13-2.16l-1.12.54a17.1,17.1,0,0,1,1,2h-1.44v1.28h2.4v1.7H314V61.3h2.06V63h-2.5v1.29h2.5v3.12ZM310,67.36v-.79h1.88v.76h1.17V62.16h-3.57c.11-.33.23-.7.32-1.06h2.87V58.64h.7V57.46h-.7V55h-5v1.13h1.5c0,.45,0,.88-.05,1.33h-1.87v1.18h1.77c-.06.44-.13.89-.2,1.33h-1.23V61.1h1A7.59,7.59,0,0,1,307,64.24l.7,1.1a7.48,7.48,0,0,0,1.16-1.65v3.67Zm1.47-9.9h-1.12c0-.43,0-.88.06-1.33h1.06Zm0,2.51h-1.41c.07-.42.14-.87.19-1.33h1.22Zm.41,5.44H310v-2h1.88Z"/><g id="弹性IP-IP_ELP_" data-name="弹性IP-IP(ELP)"><g id="圆模版"><rect id="矩形" class="cls-5" x="391" y="90" width="50" height="50"/><g id="网络"><ellipse id="Oval-2" class="cls-6" cx="415.86" cy="106.98" rx="23.3" ry="13.08"/><path id="Combined-Shape" class="cls-7" d="M439.17,104.85v17.26h0c-.71,7-10.86,12.55-23.27,12.55s-22.55-5.55-23.26-12.55h0V104.85h0c0,.26,0,.53,0,.79C392.56,113,403,119,415.86,119s23.31-6,23.31-13.33c0-.26,0-.53,0-.79Z"/><path id="Oval-2-2" data-name="Oval-2" class="cls-8" d="M393.18,115.19c0,7.06,10.15,12.78,22.68,12.78s22.69-5.72,22.69-12.78"/><path id="Combined-Shape-2" data-name="Combined-Shape" class="cls-9" d="M415.86,94.25a34.67,34.67,0,0,1,15.83,3.5c4.06,2.14,6.74,5.1,7.1,8.43h0l0,16.81c-.38,3.33-3.07,6.29-7.14,8.43a37.43,37.43,0,0,1-31.65,0c-4.06-2.14-6.74-5.1-7.1-8.43h0l0-16.81c.38-3.33,3.07-6.29,7.14-8.43A34.69,34.69,0,0,1,415.86,94.25Z"/><polygon id="Rectangle" class="cls-10" points="396.24 115.78 398.08 117.23 398.08 120.64 396.24 119.19 396.24 115.78"/><polygon id="Rectangle-2" data-name="Rectangle" class="cls-11" points="399.92 118.24 401.76 119.69 401.76 123.1 399.92 121.65 399.92 118.24"/></g></g><g id="编组"><path id="Fill-1" class="cls-12" d="M409.08,112.93c-3.1-1.15-5.05-3.2-5.53-5.69l-.9.24c.48,2.68,2.56,4.89,5.88,6.13a17.69,17.69,0,0,0,11.29.09l-.22-.68a16.57,16.57,0,0,1-10.52-.09Zm10-14.32-.61-.35-9.13,6.84.65.39Zm3.21,2.53,4.13,2.36c1.25.72,1.51,2,.55,2.89a3.73,3.73,0,0,1-4.13.27l-4.26-2.51ZM418,104.6l4.28,2.53a4.78,4.78,0,0,0,5.33-.36c1.21-1.14.86-2.78-.74-3.69l-4.73-2.71-8.88,7.14.66.4Z"/></g></g><g id="Group-19-Copy-3备份-26"><path id="Fill-1-Copy" class="cls-13" d="M414.07,146.69l3.61-3.69,3.43,3.69H437a3.12,3.12,0,0,1,3,3.25v12.81a3.12,3.12,0,0,1-3,3.25H396a3.12,3.12,0,0,1-3-3.25V149.94a3.12,3.12,0,0,1,3-3.25Z"/><path id="EIP" d="M415.22,161v-.86h-5.29V157h4.8v-.85h-4.8v-2.87H415v-.85h-6.07V161Zm2.41,0V152.4h-1V161Zm2.78,0v-3.51h2.51c2,0,3-.85,3-2.54s-1-2.52-3-2.52h-3.5V161Zm2.46-4.36h-2.46v-3.36h2.46a2.29,2.29,0,0,1,1.53.42,1.48,1.48,0,0,1,.5,1.25,1.6,1.6,0,0,1-.49,1.27A2.36,2.36,0,0,1,422.87,156.61Z"/></g><g id="Group-19-Copy-3备份-28"><path id="Fill-1-Copy-2" data-name="Fill-1-Copy" class="cls-13" d="M543.07,109.69l3.61-3.69,3.43,3.69H566a3.12,3.12,0,0,1,3,3.25v12.81a3.12,3.12,0,0,1-3,3.25H525a3.12,3.12,0,0,1-3-3.25V112.94a3.12,3.12,0,0,1,3-3.25Z"/><path id="应用" d="M535.39,125.17a15.18,15.18,0,0,0,1.23-6.34v-2.68h8.89v-.84h-4.39a10.24,10.24,0,0,0-.63-1.24l-1,.16a9.66,9.66,0,0,1,.65,1.08h-4.46v3.52a13.41,13.41,0,0,1-1.05,5.7Zm5.37-3.21.83-.19a46,46,0,0,0-1.12-4.55l-.75.24A36.94,36.94,0,0,1,540.76,122Zm4.56,2.69v-.84h-2.53a36.1,36.1,0,0,0,1.86-6.1l-.85-.22a33.54,33.54,0,0,1-1.95,6.32h-5v.84Zm-6.68-2,.81-.2a34.66,34.66,0,0,0-1.29-4.41l-.76.24A33.89,33.89,0,0,1,538.64,122.68Zm8.7,2.38a7.14,7.14,0,0,0,1.34-3.82h3.1v3.52h.89v-3.52h3.26v2.09c0,.5-.23.76-.66.76s-.85,0-1.33,0l.23.85h1.38a1.11,1.11,0,0,0,1.26-1.26v-9h-8.94v5.76a7,7,0,0,1-1.19,4.07Zm8.59-7.51h-3.26v-2.07h3.26Zm-4.15,0h-3v-2.07h3Zm0,2.9h-3v-2.1h3Zm4.15,0h-3.26v-2.1h3.26Z"/></g><g id="Group-19-Copy-3备份-32"><path id="Fill-1-Copy-3" data-name="Fill-1-Copy" class="cls-13" d="M543.07,231.69l3.61-3.69,3.43,3.69H566a3.12,3.12,0,0,1,3,3.25v12.81a3.12,3.12,0,0,1-3,3.25H525a3.12,3.12,0,0,1-3-3.25V234.94a3.12,3.12,0,0,1,3-3.25Z"/><path id="应用-2" data-name="应用" d="M535.39,247.17a15.18,15.18,0,0,0,1.23-6.34v-2.68h8.89v-.84h-4.39a10.24,10.24,0,0,0-.63-1.24l-1,.16a9.66,9.66,0,0,1,.65,1.08h-4.46v3.52a13.41,13.41,0,0,1-1.05,5.7Zm5.37-3.21.83-.19a46,46,0,0,0-1.12-4.55l-.75.24A36.94,36.94,0,0,1,540.76,244Zm4.56,2.69v-.84h-2.53a36.1,36.1,0,0,0,1.86-6.1l-.85-.22a33.54,33.54,0,0,1-1.95,6.32h-5v.84Zm-6.68-2,.81-.2a34.66,34.66,0,0,0-1.29-4.41l-.76.24A33.89,33.89,0,0,1,538.64,244.68Zm8.7,2.38a7.14,7.14,0,0,0,1.34-3.82h3.1v3.52h.89v-3.52h3.26v2.09c0,.5-.23.76-.66.76s-.85,0-1.33-.05l.23.85h1.38a1.11,1.11,0,0,0,1.26-1.26v-9h-8.94v5.76a7,7,0,0,1-1.19,4.07Zm8.59-7.51h-3.26v-2.07h3.26Zm-4.15,0h-3v-2.07h3Zm0,2.9h-3v-2.1h3Zm4.15,0h-3.26v-2.1h3.26Z"/></g><g id="Group-19-Copy-3备份-33"><path id="Fill-1-Copy-4" data-name="Fill-1-Copy" class="cls-13" d="M543.07,356.69l3.61-3.69,3.43,3.69H566a3.12,3.12,0,0,1,3,3.25v12.81a3.12,3.12,0,0,1-3,3.25H525a3.12,3.12,0,0,1-3-3.25V359.94a3.12,3.12,0,0,1,3-3.25Z"/><path id="应用-3" data-name="应用" d="M535.39,372.17a15.18,15.18,0,0,0,1.23-6.34v-2.68h8.89v-.84h-4.39a10.24,10.24,0,0,0-.63-1.24l-1,.16a9.66,9.66,0,0,1,.65,1.08h-4.46v3.52a13.41,13.41,0,0,1-1.05,5.7Zm5.37-3.21.83-.19a46,46,0,0,0-1.12-4.55l-.75.24A36.94,36.94,0,0,1,540.76,369Zm4.56,2.69v-.84h-2.53a36.1,36.1,0,0,0,1.86-6.1l-.85-.22a33.54,33.54,0,0,1-1.95,6.32h-5v.84Zm-6.68-2,.81-.2a34.66,34.66,0,0,0-1.29-4.41l-.76.24A33.89,33.89,0,0,1,538.64,369.68Zm8.7,2.38a7.14,7.14,0,0,0,1.34-3.82h3.1v3.52h.89v-3.52h3.26v2.09c0,.5-.23.76-.66.76s-.85,0-1.33,0l.23.85h1.38a1.11,1.11,0,0,0,1.26-1.26v-9h-8.94v5.76a7,7,0,0,1-1.19,4.07Zm8.59-7.51h-3.26v-2.07h3.26Zm-4.15,0h-3v-2.07h3Zm0,2.9h-3v-2.1h3Zm4.15,0h-3.26v-2.1h3.26Z"/></g><g id="Group-19-Copy-3备份-29"><path id="Fill-1-Copy-5" data-name="Fill-1-Copy" class="cls-13" d="M289.07,146.69l3.61-3.69,3.43,3.69H312a3.12,3.12,0,0,1,3,3.25v12.81a3.12,3.12,0,0,1-3,3.25H271a3.12,3.12,0,0,1-3-3.25V149.94a3.12,3.12,0,0,1,3-3.25Z"/><path id="CFW" d="M283.29,161.13a3.7,3.7,0,0,0,2.36-.78A3.75,3.75,0,0,0,287,158h-.95a2.88,2.88,0,0,1-1,1.69,2.82,2.82,0,0,1-1.74.54,2.74,2.74,0,0,1-2.29-1,3.88,3.88,0,0,1-.75-2.54,4,4,0,0,1,.76-2.57,2.73,2.73,0,0,1,2.3-1,2.89,2.89,0,0,1,1.71.48,2.17,2.17,0,0,1,.91,1.44h.95a3,3,0,0,0-1.16-2,3.75,3.75,0,0,0-2.4-.76,3.66,3.66,0,0,0-3.07,1.36,4.8,4.8,0,0,0-1,3.13,4.7,4.7,0,0,0,1,3.09A3.7,3.7,0,0,0,283.29,161.13Zm6.06-.16v-4h4.5v-.85h-4.5v-2.88h4.75v-.85h-5.74V161Zm8.69,0,1.95-7.14h0L302,161h1.09l2.46-8.57h-1.1l-1.88,7.19h-.05l-1.95-7.19h-1.06l-2,7.19h0l-1.88-7.19h-1.11l2.46,8.57Z"/></g><g id="Group-19-Copy-3备份-30"><path id="Fill-1-Copy-6" data-name="Fill-1-Copy" class="cls-13" d="M289.07,254.69l3.61-3.69,3.43,3.69H312a3.12,3.12,0,0,1,3,3.25v12.81a3.12,3.12,0,0,1-3,3.25H271a3.12,3.12,0,0,1-3-3.25V257.94a3.12,3.12,0,0,1,3-3.25Z"/><path id="CFW-2" data-name="CFW" d="M283.29,269.13a3.7,3.7,0,0,0,2.36-.78A3.75,3.75,0,0,0,287,266h-.95a2.88,2.88,0,0,1-1,1.69,2.82,2.82,0,0,1-1.74.54,2.74,2.74,0,0,1-2.29-1,3.88,3.88,0,0,1-.75-2.54,4,4,0,0,1,.76-2.57,2.73,2.73,0,0,1,2.3-1,2.89,2.89,0,0,1,1.71.48,2.17,2.17,0,0,1,.91,1.44h.95a3,3,0,0,0-1.16-2,3.75,3.75,0,0,0-2.4-.76,3.66,3.66,0,0,0-3.07,1.36,4.8,4.8,0,0,0-1,3.13,4.7,4.7,0,0,0,1,3.09A3.7,3.7,0,0,0,283.29,269.13Zm6.06-.16v-4h4.5v-.85h-4.5v-2.88h4.75v-.85h-5.74V269Zm8.69,0,1.95-7.14h0L302,269h1.09l2.46-8.57h-1.1l-1.88,7.19h-.05l-1.95-7.19h-1.06l-2,7.19h0l-1.88-7.19h-1.11l2.46,8.57Z"/></g><g id="Group-19-Copy-3备份-31"><path id="Fill-1-Copy-7" data-name="Fill-1-Copy" class="cls-13" d="M289.07,356.69l3.61-3.69,3.43,3.69H312a3.12,3.12,0,0,1,3,3.25v12.81a3.12,3.12,0,0,1-3,3.25H271a3.12,3.12,0,0,1-3-3.25V359.94a3.12,3.12,0,0,1,3-3.25Z"/><path id="CFW-3" data-name="CFW" d="M283.29,371.13a3.7,3.7,0,0,0,2.36-.78A3.75,3.75,0,0,0,287,368h-.95a2.88,2.88,0,0,1-1,1.69,2.82,2.82,0,0,1-1.74.54,2.74,2.74,0,0,1-2.29-1,3.88,3.88,0,0,1-.75-2.54,4,4,0,0,1,.76-2.57,2.73,2.73,0,0,1,2.3-1,2.89,2.89,0,0,1,1.71.48,2.17,2.17,0,0,1,.91,1.44h.95a3,3,0,0,0-1.16-2,3.75,3.75,0,0,0-2.4-.76,3.66,3.66,0,0,0-3.07,1.36,4.8,4.8,0,0,0-1,3.13,4.7,4.7,0,0,0,1,3.09A3.7,3.7,0,0,0,283.29,371.13Zm6.06-.16v-4h4.5v-.85h-4.5v-2.88h4.75v-.85h-5.74V371Zm8.69,0,1.95-7.14h0L302,371h1.09l2.46-8.57h-1.1l-1.88,7.19h-.05l-1.95-7.19h-1.06l-2,7.19h0l-1.88-7.19h-1.11l2.46,8.57Z"/></g><g id="Group-19-Copy-3备份-34"><path id="Fill-1-Copy-8" data-name="Fill-1-Copy" class="cls-13" d="M46.07,313.69,49.68,310l3.43,3.69H69a3.12,3.12,0,0,1,3,3.25v12.81A3.12,3.12,0,0,1,69,333H28a3.12,3.12,0,0,1-3-3.25V316.94a3.12,3.12,0,0,1,3-3.25Z"/><path id="黑客" d="M48.37,326.29v-.78H43.61v-1h4.06v-.77H43.61v-1h3.86v-4.13H38.89v4.13h3.85v1H38.67v.77h4.07v1H38v.78ZM46.64,322H43.57v-2.65h3.07Zm-3.86,0H39.72v-2.65h3.06Zm2.21-.37a7.22,7.22,0,0,0,.82-1.77l-.72-.19a6.56,6.56,0,0,1-.8,1.7Zm-3.72,0,.7-.19a10.2,10.2,0,0,0-.8-1.72l-.7.23A10.76,10.76,0,0,1,41.27,321.68Zm6.34,7.49.69-.48a14.38,14.38,0,0,0-1.48-2l-.65.4A18,18,0,0,1,47.61,329.17Zm-8.74,0a8.7,8.7,0,0,0,1-2.19l-.76-.2a8.3,8.3,0,0,1-1.07,2.11Zm5.62,0,.83-.19a14.77,14.77,0,0,0-.91-2.1l-.77.17A10.64,10.64,0,0,1,44.49,329.14Zm-2.76,0,.84-.2c-.2-.74-.43-1.44-.67-2.07l-.77.17A12,12,0,0,1,41.73,329.17Zm9.45-7.84v-1.49h8v1.49h.88v-2.27H55.62c-.15-.36-.28-.69-.42-1l-1,.14a6.58,6.58,0,0,1,.44.84H50.3v2.27ZM50,325.54A21.75,21.75,0,0,0,55.35,324a13.92,13.92,0,0,0,5.1,1.28l.2-.78a14.86,14.86,0,0,1-4.4-.95,6.34,6.34,0,0,0,2.13-1.81v-.69H54c.19-.26.37-.52.55-.8l-.84-.18a8.81,8.81,0,0,1-2.93,2.7l.56.68a12.53,12.53,0,0,0,1.5-1.13,11,11,0,0,0,1.69,1.22,23,23,0,0,1-4.81,1.21Zm5.38-2.36a10.6,10.6,0,0,1-2.08-1.35l0,0h4A7.58,7.58,0,0,1,55.37,323.18Zm-2.67,6v-.51h5.16v.51h.84v-3.75H51.86v3.75Zm5.16-1.29H52.7v-1.68h5.16Z"/></g><g id="Group-19-Copy-3备份-36"><path id="Fill-1-Copy-9" data-name="Fill-1-Copy" class="cls-13" d="M164.07,361.69l3.61-3.69,3.43,3.69H187a3.12,3.12,0,0,1,3,3.25v12.81a3.12,3.12,0,0,1-3,3.25H146a3.12,3.12,0,0,1-3-3.25V364.94a3.12,3.12,0,0,1,3-3.25Z"/><path id="肉鸡" d="M157.36,377.15v-8.37h3a5,5,0,0,1-2.45,2.73l.45.76a5.46,5.46,0,0,0,2.42-2.45,35.17,35.17,0,0,1,3,2.19l.48-.74a33.34,33.34,0,0,0-3.2-2.12c0-.12.1-.24.14-.37H165v6.69c0,.48-.2.72-.61.72l-1.74,0,.24.84h1.79c.79,0,1.2-.46,1.2-1.36V368h-4.3a16.19,16.19,0,0,0,.4-1.78l-.86-.07a14.58,14.58,0,0,1-.4,1.85h-4.23v9.2Zm1.09-1.57a6,6,0,0,0,2.52-2.3c.74.48,1.68,1.16,2.81,2.06l.48-.72c-1-.75-2-1.43-2.94-2a9,9,0,0,0,.43-1.3l-.83-.11a5.3,5.3,0,0,1-2.9,3.6Zm18,1.55a1.79,1.79,0,0,0,1.51-.59c.32-.42.48-1.92.5-4.51H173.8v-4h3a11,11,0,0,1-.26,2.4.65.65,0,0,1-.59.31l-.83,0,.25.73H176a1.3,1.3,0,0,0,1.23-.57,11.9,11.9,0,0,0,.48-3.66h-2.73a5.88,5.88,0,0,0,.35-1l-.86-.12a5.62,5.62,0,0,1-.36,1.12H173v5.63h4.61a9,9,0,0,1-.29,3.16,1,1,0,0,1-.88.37l-1.35,0,.25.8Zm-8.15-.16a11.2,11.2,0,0,0,2.3-3.22c.45.76.85,1.52,1.21,2.26l.62-.61c-.43-.86-.92-1.71-1.45-2.58a16.32,16.32,0,0,0,.95-5v-.63h-3.81V368h3a15.84,15.84,0,0,1-.7,3.89c-.56-.85-1.16-1.7-1.79-2.57l-.59.56c.74,1,1.43,2,2,3a10.55,10.55,0,0,1-2.29,3.47Zm7.17-6.76.55-.4a10.49,10.49,0,0,0-1.07-1.36l-.56.35A12.74,12.74,0,0,1,175.42,370.21Zm1.13,4.68v-.8H172.5v.8Z"/></g><g id="Group-19-Copy-3备份-37"><path id="Fill-1-Copy-10" data-name="Fill-1-Copy" class="cls-13" d="M164.07,259.69l3.61-3.69,3.43,3.69H187a3.12,3.12,0,0,1,3,3.25v12.81a3.12,3.12,0,0,1-3,3.25H146a3.12,3.12,0,0,1-3-3.25V262.94a3.12,3.12,0,0,1,3-3.25Z"/><path id="代理" d="M158.08,275.19v-8.11a14.3,14.3,0,0,0,1.16-2.58l-.8-.39a13.45,13.45,0,0,1-2.87,5l.28.9a16.7,16.7,0,0,0,1.34-1.58v6.76Zm7-.08a1,1,0,0,0,.82-.54,7.1,7.1,0,0,0,.62-2.2l-.75-.43c-.17,1.51-.41,2.28-.73,2.29s-.86-.34-1.32-1a7.66,7.66,0,0,1-1.2-2.91,16.32,16.32,0,0,1-.29-2l4-.5-.13-.83-3.9.49c-.08-1-.11-2.1-.11-3.38h-.89c0,1.32.06,2.48.14,3.49l-2.66.35.13.83,2.61-.34a13.36,13.36,0,0,0,.36,2.22,8.32,8.32,0,0,0,1.52,3.28A2.57,2.57,0,0,0,165.13,275.11Zm-.46-8.48.6-.58a15.41,15.41,0,0,0-1.86-1.83l-.56.54A12.51,12.51,0,0,1,164.67,266.63Zm14,8.18V274h-3.14v-1.56h2.7v-.82h-2.7v-1.41H178v-5.55h-5.86v5.55h2.5v1.41H172v.82h2.71V274h-3.21v.83Zm-10.8-1.17a24.47,24.47,0,0,0,3.57-1.15v-.84c-.44.19-.87.36-1.32.52v-2.73h1.32v-.83h-1.32v-2.84h1.46V265h-3.83v.82h1.48v2.84h-1.31v.83h1.31v3a14.8,14.8,0,0,1-1.57.36Zm6.79-6.6H173v-1.63h1.68Zm2.54,0h-1.67v-1.63h1.67Zm0,2.38h-1.67V267.8h1.67Zm-2.54,0H173V267.8h1.68Z"/></g><g id="Group-19-Copy-3备份-35"><path id="Fill-1-Copy-11" data-name="Fill-1-Copy" class="cls-13" d="M46.07,109.69,49.68,106l3.43,3.69H69a3.12,3.12,0,0,1,3,3.25v12.81A3.12,3.12,0,0,1,69,129H28a3.12,3.12,0,0,1-3-3.25V112.94a3.12,3.12,0,0,1,3-3.25Z"/><path id="PC端" d="M36.8,124v-3.51h2.51c2,0,3-.85,3-2.54s-1-2.52-3-2.52h-3.5V124Zm2.46-4.36H36.8v-3.36h2.46a2.29,2.29,0,0,1,1.53.42,1.48,1.48,0,0,1,.5,1.25,1.6,1.6,0,0,1-.49,1.27A2.36,2.36,0,0,1,39.26,119.61Zm7.92,4.52a3.63,3.63,0,0,0,3.71-3.1h-1a2.83,2.83,0,0,1-1,1.69,2.8,2.8,0,0,1-1.74.54,2.75,2.75,0,0,1-2.29-1,3.94,3.94,0,0,1-.74-2.54,4.09,4.09,0,0,1,.75-2.57,2.74,2.74,0,0,1,2.31-1,2.86,2.86,0,0,1,1.7.48,2.17,2.17,0,0,1,.91,1.44h1a3,3,0,0,0-1.15-2,3.77,3.77,0,0,0-2.4-.76,3.66,3.66,0,0,0-3.07,1.36,4.81,4.81,0,0,0-1,3.13,4.7,4.7,0,0,0,1,3.09A3.7,3.7,0,0,0,47.18,124.13Zm15-6.88v-2.6h-.82v1.84H59.76v-2.3h-.84v2.3h-1.6v-1.84h-.83v2.6ZM55.7,117v-.81H54.3q-.25-1-.51-1.86l-.86.14a17.49,17.49,0,0,1,.55,1.72H51.91V117Zm-3.6,7.44a23.64,23.64,0,0,0,3.59-1.07v-.82c-.31.12-.65.22-1,.34.28-1.6.51-3.34.66-5.23l-.78-.11c-.14,2-.34,3.82-.63,5.57a20.06,20.06,0,0,1-2.07.47Zm.77-1.82.71-.18c-.21-1.78-.43-3.36-.69-4.73l-.7.23C52.46,119.42,52.69,121,52.87,122.6Zm4.24,2.52V121h1v4h.73v-4h1v4h.73v-4h1.08v3.08c0,.22-.09.32-.24.32l-.49,0,.2.78h.55c.51,0,.76-.3.76-.9v-4H59.3a6.63,6.63,0,0,0,.35-1.15h3.16v-.8H56v.8H58.8a5.83,5.83,0,0,1-.34,1.15H56.33v4.92Z"/></g><g id="Group-19-Copy-3备份-27"><path id="Fill-1-Copy-12" data-name="Fill-1-Copy" class="cls-13" d="M414.07,297.69l3.61-3.69,3.43,3.69H437a3.12,3.12,0,0,1,3,3.25v12.81a3.12,3.12,0,0,1-3,3.25H396a3.12,3.12,0,0,1-3-3.25V300.94a3.12,3.12,0,0,1,3-3.25Z"/><path id="ELB" d="M412.9,312v-.86h-5.29V308h4.8v-.85h-4.8v-2.87h5.09v-.85h-6.07V312Zm7.3,0v-.86h-5V303.4h-1V312Zm4.93,0a3.7,3.7,0,0,0,2.08-.52,2.14,2.14,0,0,0,.88-1.87,2,2,0,0,0-.48-1.39,2.15,2.15,0,0,0-1.3-.7,2.23,2.23,0,0,0,1-.68,2.1,2.1,0,0,0,.38-1.25,2,2,0,0,0-.68-1.59,2.93,2.93,0,0,0-1.9-.57h-3.82V312Zm-.22-4.83h-2.6v-2.91h2.62a2.19,2.19,0,0,1,1.36.34,1.26,1.26,0,0,1,.47,1.08,1.36,1.36,0,0,1-.48,1.12A2.21,2.21,0,0,1,424.91,307.14Zm.14,4h-2.74V308h2.74a2.5,2.5,0,0,1,1.51.38,1.43,1.43,0,0,1,.55,1.23,1.36,1.36,0,0,1-.64,1.23A2.66,2.66,0,0,1,425.05,311.14Z"/></g><g id="Network-ELB"><g id="云"><rect id="矩形-2" data-name="矩形" class="cls-5" x="391" y="242" width="50" height="49"/><g id="云-2" data-name="云"><g id="Group-4"><path id="Fill-22" class="cls-14" d="M439,255.19a6.92,6.92,0,0,1-.44,1.11,1.47,1.47,0,0,0-.06.14,7.76,7.76,0,0,1-.8,1.16,4.72,4.72,0,0,1-.37.41,9.12,9.12,0,0,1-1,1v16.59l.54-.48c.17-.16.3-.33.45-.49s.26-.27.37-.41l.15-.16a7.71,7.71,0,0,0,.62-.95l0-.05a.84.84,0,0,0,.06-.14,5.85,5.85,0,0,0,.34-.72c0-.13.07-.26.1-.39s.06-.19.08-.28,0-.15.07-.23a5.75,5.75,0,0,0,.1-.92V253.62a5.69,5.69,0,0,1-.16,1.29C439,255,439,255.1,439,255.19Z"/><path id="Fill-24" class="cls-15" d="M438.2,266.36c-.05.07-.09.14-.15.21a6.85,6.85,0,0,1-1,1.13,10.41,10.41,0,0,1-.89.68c-.26.19-.49.39-.78.57a14.08,14.08,0,0,1-2.49,1.12c-.31.11-.63.2-.95.3s-.83.23-1.27.32a15,15,0,0,1-1.54.27l-.37.05c-.7.08-1.42.12-2.13.13h-.34c-.7,0-1.4-.05-2.09-.12l-.32,0a16.88,16.88,0,0,1-2-.36l-.36-.08c-.61-.16-1.19-.34-1.76-.55l-.31-.11a13.66,13.66,0,0,1-1.92-.93l-20.57-11.86c-2.49-1.48-3.73-3.42-3.73-5.35v16.58c0,1.94,1.24,3.88,3.73,5.36l20.56,12.48a14.63,14.63,0,0,0,1.82.89l.42.15c.37.14.73.27,1.12.38l.63.16.37.1.32.08c.41.08.83.16,1.25.22l.46.05.31,0,.46,0c.42,0,.83.06,1.25.07h1.3c.47,0,.94,0,1.4-.09l.16,0,.37-.05c.36,0,.73-.09,1.09-.15.15,0,.3-.09.45-.12.44-.09.85-.2,1.27-.32.22-.06.45-.1.67-.17s.18-.1.28-.13a14.08,14.08,0,0,0,2.49-1.12l.15-.1c.24-.14.41-.32.63-.47a10.71,10.71,0,0,0,.88-.68,6.53,6.53,0,0,0,.87-.92,2.39,2.39,0,0,0,.13-.21l.14-.21a3.5,3.5,0,0,0,.23-.35,4.46,4.46,0,0,0,.34-.74l0-.11a1.13,1.13,0,0,0,0-.15,4.12,4.12,0,0,0,.13-.47A4.8,4.8,0,0,0,439,281V263.68a4.41,4.41,0,0,1-.22,1.33.74.74,0,0,1,0,.14A5.63,5.63,0,0,1,438.2,266.36Z"/><path id="顶面" class="cls-16" d="M435.39,269c-4.92,2.93-12.93,2.93-17.88,0L397,257.07c-4.95-2.93-5-7.7-.06-10.63,4.56-2.72,12.4-2.82,17.36-.5,6.07-2.61,14.83-2.16,20.32,1.09s6.06,8.34,1.69,12C440.24,261.93,440,266.23,435.39,269Z"/><path id="Fill-26" class="cls-17" d="M439,272.55c-.07,1.86-1.31,3.7-3.75,5.12-5,2.93-13.26,2.93-18.34,0L396.75,266c-2.47-1.42-3.39-3-3.47-4.87"/></g><path id="Path-2" class="cls-18" d="M401.42,244.57a20.32,20.32,0,0,1,12.9,1,21.51,21.51,0,0,1,10.52-1.41,26.48,26.48,0,0,1,10.2,3.47c2.39,1.48,4.11,3.38,4.11,5.55h0V280.2A5.85,5.85,0,0,1,437.8,284a11.14,11.14,0,0,1-3.92,2.81c-1.67.8-9.19,3.17-16.34-.41-.34-.22-4.58-2.74-9.19-5.48l-.59-.35-.69-.41-1.38-.82-.69-.41c-3.41-2-6.55-3.9-7.94-4.74-3.74-2.64-3.65-4.48-3.6-6.18,0-.19,0-.37,0-.55h0V251.6a6,6,0,0,1,2.36-4.2A14.55,14.55,0,0,1,401.42,244.57Z"/><polygon id="Rectangle-3" data-name="Rectangle" class="cls-10" points="396.38 259.87 398.28 261.17 398.28 264.23 396.38 262.93 396.38 259.87"/><polygon id="Rectangle-4" data-name="Rectangle" class="cls-11" points="399.55 261.74 401.46 263.04 401.46 266.1 399.55 264.8 399.55 261.74"/></g></g><path id="Shape" class="cls-19" d="M424.52,261.4a.78.78,0,0,0-.31-.17l3.52-9.7a2.45,2.45,0,0,0,1.16-.45,1.13,1.13,0,0,0,.1-1.87,2.18,2.18,0,0,0-2.48.15,1.55,1.55,0,0,0-.58.89l-14,1.67a.55.55,0,0,0-.21-.22,1.87,1.87,0,0,0-2.09.12c-.64.46-.75,1.16-.21,1.57a1.1,1.1,0,0,0,.49.21l1.87,5.45c-.7.55-.81,1.35-.19,1.81a2.39,2.39,0,0,0,2.53-.09l7.83,2a.74.74,0,0,0,.33.35,2,2,0,0,0,2.17-.12A.92.92,0,0,0,424.52,261.4Zm-2.13.14c-.11.08-.2.2-.32.28l-7.31-1.88a.92.92,0,0,0-.08-.76l12.15-7.75.31.06-3.47,9.64A2,2,0,0,0,422.39,261.54Zm3.6-10.85c0,.08,0,.14.09.18L414,258.59a2.56,2.56,0,0,0-1-.06l-1.76-5.07a1.36,1.36,0,0,0,.35-.21,1.05,1.05,0,0,0,.52-.91ZM410,252.11a1.07,1.07,0,0,1,1.24-.06.56.56,0,0,1-.11.93,1.09,1.09,0,0,1-1.24.06C409.61,252.8,409.68,252.37,410,252.11Zm2.07,8.4c-.43-.31-.39-.87.14-1.25a1.55,1.55,0,0,1,1.71-.09c.43.32.39.88-.13,1.25A1.55,1.55,0,0,1,412.11,260.51Zm10.6,2.23a.55.55,0,0,1,.06-.94,1.14,1.14,0,0,1,1.28-.06.56.56,0,0,1-.05.94A1.21,1.21,0,0,1,422.71,262.74Z"/></g><g id="编组-4"><g id="Group-748"><polygon id="Path-11-2" data-name="Path-11" class="cls-20" points="677.63 90.63 678.05 79.31 687.37 73.48 700.33 74.68 709.61 70.14 722.08 72.29 726.22 79.67 726.22 90.63 720.44 94.57 720.2 104.06 710.82 110.05 698.02 107.69 693.97 101.01 681.88 98.19 677.63 90.63"/><polygon id="Fill-734" class="cls-21" points="725.8 79.98 725.8 90.82 720.44 94.28 720.44 92.7 716.43 84.94 725.8 79.98"/><line id="Path-2-2" data-name="Path-2" class="cls-8" x1="726.22" y1="85.8" x2="717.96" y2="90.47"/><g id="Path-10"><g id="蒙版"><path id="path-11-3" data-name="path-11" class="cls-22" d="M722.2,72.26,725.8,80l-8.07,4.27a1.48,1.48,0,0,0-.62,2l3.17,6.11a1.49,1.49,0,0,1-.57,2L712,98.84a4.42,4.42,0,0,1-2.73.59l-9-1a2.23,2.23,0,0,1-1.78-1.29l-3.1-6.76a2.25,2.25,0,0,0-1.7-1.27l-10.24-1.5A3,3,0,0,1,681.22,86l-3.17-6.68h0l9.49-5.65L699,75.21a4.39,4.39,0,0,0,2.75-.52l7.92-4.36Z"/></g><g class="cls-23"><path class="cls-8" d="M694.77,89.64l9.07-6.37L700.34,75l3.5,8.32L717,85"/></g></g><path id="路径-30" class="cls-8" d="M677.62,85.8l3.84,7a3,3,0,0,0,2.21,1.51l9.94,1.3a2.2,2.2,0,0,1,1.69,1.19l2.94,5.73a2.26,2.26,0,0,0,1.77,1.2l10.26,1a2.19,2.19,0,0,0,1.35-.3l8.82-5.21h0"/><path id="路径-17" class="cls-24" d="M677.62,80.73v9a2.89,2.89,0,0,0,.32,1.32l2.64,5.29a4.42,4.42,0,0,0,3.24,2.4l8.35,1.41a4.43,4.43,0,0,1,3.27,2.46l1.89,3.93a3,3,0,0,0,2.2,1.64l9.68,1.56a4.39,4.39,0,0,0,3-.59l6.78-4.08a3,3,0,0,0,1.43-2.54V95.35a1.49,1.49,0,0,1,.73-1.28l3.62-2.14a3,3,0,0,0,1.45-2.56V80.53a3,3,0,0,0-.27-1.25L723.51,74a4.44,4.44,0,0,0-3.37-2.52L711,70.1a4.4,4.4,0,0,0-2.82.51l-6.59,3.63a4.46,4.46,0,0,1-2.75.51L689,73.41a4.45,4.45,0,0,0-2.88.58l-7,4.2A3,3,0,0,0,677.62,80.73Z"/></g><g id="Group-19-Copy-3备份-26-2" data-name="Group-19-Copy-3备份-26"><path id="Fill-1-Copy-13" data-name="Fill-1-Copy" class="cls-13" d="M700.07,118.69l3.61-3.69,3.43,3.69H723a3.12,3.12,0,0,1,3,3.25v12.81a3.12,3.12,0,0,1-3,3.25H682a3.12,3.12,0,0,1-3-3.25V121.94a3.12,3.12,0,0,1,3-3.25Z"/><path id="数据" d="M702.29,134.17l.46-.71a7.57,7.57,0,0,1-2.22-2.5,12.65,12.65,0,0,0,1.11-5.13h.78V125h-3.17c.1-.53.19-1.11.26-1.72l-.84-.14a15.34,15.34,0,0,1-1.42,5.43l.54.66a10.07,10.07,0,0,0,.7-1.47,17,17,0,0,0,1.19,3.18,6.92,6.92,0,0,1-2.22,2.49l.45.72a8,8,0,0,0,2.22-2.41A7.88,7.88,0,0,0,702.29,134.17Zm-10.12-5.45a5.67,5.67,0,0,0,2.15-2.46v2.28h.8V127c.43.29,1,.67,1.55,1.15l.44-.67c-.67-.41-1.34-.78-2-1.11v-.13h2.19v-.75h-2.19v-2.3h-.8v2.3H692v.75h1.7a5,5,0,0,1-1.93,1.8Zm4.08-3.53a8,8,0,0,0,.92-1.55l-.62-.29a8,8,0,0,1-.91,1.53Zm-3.23,0,.63-.29a10.5,10.5,0,0,0-.75-1.5l-.68.23A10.3,10.3,0,0,1,693,125.18Zm7.06,4.89a16.38,16.38,0,0,1-1.17-3.62l.16-.62h1.78A12.77,12.77,0,0,1,700.08,130.07Zm-8,4.06a9.92,9.92,0,0,0,3-1.33,15.79,15.79,0,0,1,1.85.95l.47-.68c-.53-.28-1.08-.55-1.66-.81a4.88,4.88,0,0,0,1.34-2v-.71h-2.51c.07-.22.15-.43.24-.66l-.81-.1c-.08.24-.18.49-.28.76H692v.75h1.42c-.24.48-.52,1-.83,1.5.59.22,1.14.45,1.67.68a11,11,0,0,1-2.53,1Zm2.85-2.21c-.43-.18-.89-.35-1.37-.51a8.67,8.67,0,0,0,.65-1.16h2.07A4.64,4.64,0,0,1,694.94,131.92Zm10.2,2.14c.67,0,1-.36,1-1.06v-3.5c.37-.17.74-.34,1.12-.53v-.85c-.36.19-.74.37-1.12.54v-2.37h1.15v-.82h-1.15V123.2h-.84v2.27h-1.44v.82h1.44V129a15.29,15.29,0,0,1-1.63.49l.21.84c.47-.15.94-.31,1.42-.49v2.94c0,.33-.16.51-.46.51a7.31,7.31,0,0,1-.91-.06l.18.82Zm4.84.11v-.59h3.25v.59h.8v-3.94h-2v-1.48h2.57V128H712v-1.41h2.25v-2.92H708v3.76a13,13,0,0,1-1.3,6.17l.68.6a14,14,0,0,0,1.4-5.42h2.45v1.48h-2v3.94Zm3.45-8.39h-4.64v-1.33h4.64ZM711.18,128h-2.4v-.57h0v-.84h2.39Zm2.05,4.84H710V131h3.25Z"/></g></g><g id="编组-4-2" data-name="编组-4"><g id="Group-748-2" data-name="Group-748"><polygon id="Path-11-4" data-name="Path-11" class="cls-25" points="677.63 206.63 678.05 195.31 687.37 189.48 700.33 190.68 709.61 186.14 722.08 188.29 726.22 195.67 726.22 206.63 720.44 210.57 720.2 220.06 710.82 226.05 698.02 223.69 693.97 217.01 681.88 214.19 677.63 206.63"/><polygon id="Fill-734-2" data-name="Fill-734" class="cls-26" points="725.8 195.98 725.8 206.82 720.44 210.28 720.44 208.7 716.43 200.94 725.8 195.98"/><line id="Path-2-3" data-name="Path-2" class="cls-8" x1="726.22" y1="201.8" x2="717.96" y2="206.47"/><g id="Path-10-2" data-name="Path-10"><g id="蒙版-2" data-name="蒙版"><path id="path-13-2" data-name="path-13" class="cls-27" d="M722.2,188.26l3.6,7.72-8.07,4.27a1.48,1.48,0,0,0-.62,2l3.17,6.11a1.49,1.49,0,0,1-.57,2L712,214.84a4.42,4.42,0,0,1-2.73.59l-9-1a2.23,2.23,0,0,1-1.78-1.29l-3.1-6.76a2.25,2.25,0,0,0-1.7-1.27l-10.24-1.5a3,3,0,0,1-2.25-1.67l-3.17-6.68h0l9.49-5.65L699,191.21a4.39,4.39,0,0,0,2.75-.52l7.92-4.36Z"/></g><g class="cls-28"><path class="cls-8" d="M694.77,205.64l9.07-6.37-3.5-8.32,3.5,8.32L717,201"/></g></g><path id="路径-30-2" data-name="路径-30" class="cls-8" d="M677.62,201.8l3.84,7a3,3,0,0,0,2.21,1.51l9.94,1.3a2.2,2.2,0,0,1,1.69,1.19l2.94,5.73a2.26,2.26,0,0,0,1.77,1.2l10.26,1a2.19,2.19,0,0,0,1.35-.3l8.82-5.21h0"/><path id="路径-17-2" data-name="路径-17" class="cls-24" d="M677.62,196.73v9.05a2.89,2.89,0,0,0,.32,1.32l2.64,5.29a4.42,4.42,0,0,0,3.24,2.4l8.35,1.41a4.43,4.43,0,0,1,3.27,2.46l1.89,3.93a3,3,0,0,0,2.2,1.64l9.68,1.56a4.39,4.39,0,0,0,3-.59l6.78-4.08a3,3,0,0,0,1.43-2.54v-7.23a1.49,1.49,0,0,1,.73-1.28l3.62-2.14a3,3,0,0,0,1.45-2.56v-8.84a3,3,0,0,0-.27-1.25L723.51,190a4.44,4.44,0,0,0-3.37-2.52l-9.1-1.4a4.4,4.4,0,0,0-2.82.51l-6.59,3.63a4.46,4.46,0,0,1-2.75.51L689,189.41a4.45,4.45,0,0,0-2.88.58l-7,4.2A3,3,0,0,0,677.62,196.73Z"/></g><g id="Group-19-Copy-3备份-26-3" data-name="Group-19-Copy-3备份-26"><path id="Fill-1-Copy-14" data-name="Fill-1-Copy" class="cls-13" d="M700.07,234.69l3.61-3.69,3.43,3.69H723a3.12,3.12,0,0,1,3,3.25v12.81a3.12,3.12,0,0,1-3,3.25H682a3.12,3.12,0,0,1-3-3.25V237.94a3.12,3.12,0,0,1,3-3.25Z"/><path id="数据-2" data-name="数据" d="M702.29,250.17l.46-.71a7.57,7.57,0,0,1-2.22-2.5,12.65,12.65,0,0,0,1.11-5.13h.78V241h-3.17c.1-.53.19-1.11.26-1.72l-.84-.14a15.34,15.34,0,0,1-1.42,5.43l.54.66a10.07,10.07,0,0,0,.7-1.47,17,17,0,0,0,1.19,3.18,6.92,6.92,0,0,1-2.22,2.49l.45.72a8,8,0,0,0,2.22-2.41A7.88,7.88,0,0,0,702.29,250.17Zm-10.12-5.45a5.67,5.67,0,0,0,2.15-2.46v2.28h.8V243c.43.29,1,.67,1.55,1.15l.44-.67c-.67-.41-1.34-.78-2-1.11v-.13h2.19v-.75h-2.19v-2.3h-.8v2.3H692v.75h1.7a5,5,0,0,1-1.93,1.8Zm4.08-3.53a8,8,0,0,0,.92-1.55l-.62-.29a8,8,0,0,1-.91,1.53Zm-3.23,0,.63-.29a10.5,10.5,0,0,0-.75-1.5l-.68.23A10.3,10.3,0,0,1,693,241.18Zm7.06,4.89a16.38,16.38,0,0,1-1.17-3.62l.16-.62h1.78A12.77,12.77,0,0,1,700.08,246.07Zm-8,4.06a9.92,9.92,0,0,0,3-1.33,15.79,15.79,0,0,1,1.85.95l.47-.68c-.53-.28-1.08-.55-1.66-.81a4.88,4.88,0,0,0,1.34-2v-.71h-2.51c.07-.22.15-.43.24-.66l-.81-.1c-.08.24-.18.49-.28.76H692v.75h1.42c-.24.48-.52,1-.83,1.5.59.22,1.14.45,1.67.68a11,11,0,0,1-2.53,1Zm2.85-2.21c-.43-.18-.89-.35-1.37-.51a8.67,8.67,0,0,0,.65-1.16h2.07A4.64,4.64,0,0,1,694.94,247.92Zm10.2,2.14c.67,0,1-.36,1-1.06v-3.5c.37-.17.74-.34,1.12-.53v-.85c-.36.19-.74.37-1.12.54v-2.37h1.15v-.82h-1.15V239.2h-.84v2.27h-1.44v.82h1.44V245a15.29,15.29,0,0,1-1.63.49l.21.84c.47-.15.94-.31,1.42-.49v2.94c0,.33-.16.51-.46.51a7.31,7.31,0,0,1-.91-.06l.18.82Zm4.84.11v-.59h3.25v.59h.8v-3.94h-2v-1.48h2.57V244H712v-1.41h2.25v-2.92H708v3.76a13,13,0,0,1-1.3,6.17l.68.6a14,14,0,0,0,1.4-5.42h2.45v1.48h-2v3.94Zm3.45-8.39h-4.64v-1.33h4.64ZM711.18,244h-2.4v-.57h0v-.84h2.39Zm2.05,4.84H710V247h3.25Z"/></g></g><g id="编组-4-3" data-name="编组-4"><g id="Group-748-3" data-name="Group-748"><polygon id="Path-11-5" data-name="Path-11" class="cls-29" points="677.63 322.63 678.05 311.31 687.37 305.48 700.33 306.68 709.61 302.14 722.08 304.29 726.22 311.67 726.22 322.63 720.44 326.57 720.2 336.06 710.82 342.05 698.02 339.69 693.97 333.01 681.88 330.19 677.63 322.63"/><polygon id="Fill-734-3" data-name="Fill-734" class="cls-30" points="725.8 311.98 725.8 322.82 720.44 326.29 720.44 324.7 716.43 316.94 725.8 311.98"/><line id="Path-2-4" data-name="Path-2" class="cls-8" x1="726.22" y1="317.8" x2="717.96" y2="322.47"/><g id="Path-10-3" data-name="Path-10"><g id="蒙版-3" data-name="蒙版"><path id="path-15-2" data-name="path-15" class="cls-31" d="M722.2,304.26l3.6,7.72-8.07,4.27a1.48,1.48,0,0,0-.62,2l3.17,6.11a1.49,1.49,0,0,1-.57,2L712,330.84a4.42,4.42,0,0,1-2.73.59l-9-1a2.23,2.23,0,0,1-1.78-1.29l-3.1-6.76a2.25,2.25,0,0,0-1.7-1.27l-10.24-1.5a3,3,0,0,1-2.25-1.67l-3.17-6.68h0l9.49-5.65L699,307.21a4.39,4.39,0,0,0,2.75-.52l7.92-4.36Z"/></g><g class="cls-32"><path class="cls-8" d="M694.77,321.64l9.07-6.37-3.5-8.32,3.5,8.32L717,317"/></g></g><path id="路径-30-3" data-name="路径-30" class="cls-8" d="M677.62,317.8l3.84,7a3,3,0,0,0,2.21,1.51l9.94,1.3a2.2,2.2,0,0,1,1.69,1.19l2.94,5.73a2.26,2.26,0,0,0,1.77,1.2l10.26,1a2.19,2.19,0,0,0,1.35-.3l8.82-5.21h0"/><path id="路径-17-3" data-name="路径-17" class="cls-24" d="M677.62,312.73v9a2.89,2.89,0,0,0,.32,1.32l2.64,5.29a4.42,4.42,0,0,0,3.24,2.4l8.35,1.41a4.43,4.43,0,0,1,3.27,2.46l1.89,3.93a3,3,0,0,0,2.2,1.64l9.68,1.56a4.39,4.39,0,0,0,3-.59l6.78-4.08a3,3,0,0,0,1.43-2.54v-7.23a1.49,1.49,0,0,1,.73-1.28l3.62-2.14a3,3,0,0,0,1.45-2.56v-8.84a3,3,0,0,0-.27-1.25L723.51,306a4.44,4.44,0,0,0-3.37-2.52l-9.1-1.4a4.4,4.4,0,0,0-2.82.51l-6.59,3.63a4.46,4.46,0,0,1-2.75.51L689,305.41a4.45,4.45,0,0,0-2.88.58l-7,4.2A3,3,0,0,0,677.62,312.73Z"/></g><g id="Group-19-Copy-3备份-26-4" data-name="Group-19-Copy-3备份-26"><path id="Fill-1-Copy-15" data-name="Fill-1-Copy" class="cls-13" d="M700.07,350.69l3.61-3.69,3.43,3.69H723a3.12,3.12,0,0,1,3,3.25v12.81a3.12,3.12,0,0,1-3,3.25H682a3.12,3.12,0,0,1-3-3.25V353.94a3.12,3.12,0,0,1,3-3.25Z"/><path id="数据-3" data-name="数据" d="M702.29,366.17l.46-.71a7.57,7.57,0,0,1-2.22-2.5,12.65,12.65,0,0,0,1.11-5.13h.78V357h-3.17c.1-.53.19-1.11.26-1.72l-.84-.14a15.34,15.34,0,0,1-1.42,5.43l.54.66a10.07,10.07,0,0,0,.7-1.47,17,17,0,0,0,1.19,3.18,6.92,6.92,0,0,1-2.22,2.49l.45.72a8,8,0,0,0,2.22-2.41A7.88,7.88,0,0,0,702.29,366.17Zm-10.12-5.45a5.67,5.67,0,0,0,2.15-2.46v2.28h.8V359c.43.29,1,.67,1.55,1.15l.44-.67c-.67-.41-1.34-.78-2-1.11v-.13h2.19v-.75h-2.19v-2.3h-.8v2.3H692v.75h1.7a5,5,0,0,1-1.93,1.8Zm4.08-3.53a8,8,0,0,0,.92-1.55l-.62-.29a8,8,0,0,1-.91,1.53Zm-3.23,0,.63-.29a10.5,10.5,0,0,0-.75-1.5l-.68.23A10.3,10.3,0,0,1,693,357.18Zm7.06,4.89a16.38,16.38,0,0,1-1.17-3.62l.16-.62h1.78A12.77,12.77,0,0,1,700.08,362.07Zm-8,4.06a9.92,9.92,0,0,0,3-1.33,15.79,15.79,0,0,1,1.85.95l.47-.68c-.53-.28-1.08-.55-1.66-.81a4.88,4.88,0,0,0,1.34-2.05v-.71h-2.51c.07-.22.15-.43.24-.66l-.81-.1c-.08.24-.18.49-.28.76H692v.75h1.42c-.24.48-.52,1-.83,1.5.59.22,1.14.45,1.67.68a11,11,0,0,1-2.53,1Zm2.85-2.21c-.43-.18-.89-.35-1.37-.51a8.67,8.67,0,0,0,.65-1.16h2.07A4.64,4.64,0,0,1,694.94,363.92Zm10.2,2.14c.67,0,1-.36,1-1.06v-3.5c.37-.17.74-.34,1.12-.53v-.85c-.36.19-.74.37-1.12.54v-2.37h1.15v-.82h-1.15V355.2h-.84v2.27h-1.44v.82h1.44V361a15.29,15.29,0,0,1-1.63.49l.21.84c.47-.15.94-.31,1.42-.49v2.94c0,.33-.16.51-.46.51a7.31,7.31,0,0,1-.91-.06l.18.82Zm4.84.11v-.59h3.25v.59h.8v-3.94h-2v-1.48h2.57V360H712v-1.41h2.25v-2.92H708v3.76a13,13,0,0,1-1.3,6.17l.68.6a14,14,0,0,0,1.4-5.42h2.45v1.48h-2v3.94Zm3.45-8.39h-4.64v-1.33h4.64ZM711.18,360h-2.4v-.57h0v-.84h2.39Zm2.05,4.84H710V363h3.25Z"/></g></g><g id="架构图_业务图标_Web应用防火墙服务-WAF备份" data-name="架构图/业务图标/Web应用防火墙服务-WAF备份"><g id="盾牌复制"><rect id="矩形-3" data-name="矩形" class="cls-5" x="264" y="86" width="55" height="55"/><g id="盾牌"><rect id="矩形-4" data-name="矩形" class="cls-5" x="276.89" y="83.42" width="55" height="55"/><polygon id="路径-27" class="cls-33" points="282.33 90.3 280.13 91.75 272.93 98.38 270.59 101.59 269.04 105.18 267.75 109.94 267.44 112.91 268.2 118.49 269.69 120.94 276.16 121.94 290.56 122.81 295.26 121.94 301.06 119.5 304.8 118.05 309.13 115.25 312.58 113.68 313.79 112.91 314.9 112.18 315.92 110.86 315.92 109.94 313.79 108.03 310.29 103.88 307.99 100.21 306.85 97.85 306.44 94.73 305.37 94.25 303.61 93.61 300.1 93.29 296.67 93.02 290.94 92.17 286.42 91.12 283.27 90.3 282.33 90.3"/><path id="路径-26" class="cls-34" d="M267.91,115.46a7.46,7.46,0,0,0,1.46,4.35c1.73.74,13.59,2.23,18.84,1.93a36.77,36.77,0,0,0,12.28-2.93,84.58,84.58,0,0,0,9.53-4.6c1-.59,2.93-2,5.88-4.15v16a89.07,89.07,0,0,1-14,8,36.25,36.25,0,0,1-13,3c-4.67.41-15.91-.87-17.54-1.27s-2-.63-2.26-1.12-1.7-2.8-1.7-10.84V110.06A42.85,42.85,0,0,1,267.91,115.46Z"/><path id="路径-13" class="cls-17" d="M267.44,123.54q1.81,4,2.3,4.4c.49.35,5.11,1.15,9,1.43s13.85.81,21.93-2.26A63.41,63.41,0,0,0,316,118.66"/><path id="路径-25" class="cls-35" d="M281.4,90.82a2,2,0,0,1,1.51-.5c.7.12,3,.76,4.26,1,1.72.38,3.91.84,5.28,1.06a59.39,59.39,0,0,0,6.05.79c2.17.2,5.64.06,6.87,1s.8,2.74,2.8,6.39a30.46,30.46,0,0,0,5.12,6.79c1.55,1.56,2.63,2.15,2.63,2.69v14.13a3.34,3.34,0,0,1-1.44,2.74,64.57,64.57,0,0,1-9.11,5.4c-4.24,2-8.53,5-25.29,4.37-10-1-10.57-1.68-10.85-2.05s-1.79-3.61-1.79-9.43v-12q.65-9.27,5.72-14.82A49.48,49.48,0,0,1,281.4,90.82Z"/></g></g><path id="形状结合" class="cls-36" d="M296.18,101.49c2.17,1.13,2.9,3.11,1.82,4.93a.8.8,0,0,0,.32,1.14c2.3,1.55,2.37,4.09.16,5.94a9.6,9.6,0,0,1-9.55.81l-10.57-5.54a3.84,3.84,0,0,1-2.31-2.89,3.8,3.8,0,0,1,1.64-3.31,9.29,9.29,0,0,1,8.94-1.18,2.46,2.46,0,0,0,1.81,0,9.56,9.56,0,0,1,7.75.14Zm-.37,12.5-14-7.33-2.2,1.78,10.07,5.27a7.93,7.93,0,0,0,6.15.3ZM281,106.21l-3.53-1.85a2.8,2.8,0,0,0,1.36,3.64Zm14.87,2.42-13.53-7.09a7.27,7.27,0,0,0-3.76,1.46,4.39,4.39,0,0,0-.65.64l14.66,7.68Zm3.16,1.65-2.29-1.2-3.3,2.66,3.47,1.82a4.66,4.66,0,0,0,.65-.39l.17-.13A3.16,3.16,0,0,0,299,110.3Zm-6.47-8.92a8.53,8.53,0,0,0-3.57.66,4.06,4.06,0,0,1-2.93,0,6.9,6.9,0,0,0-1.76-.48l4.83,2.53Zm2.95.73a6.49,6.49,0,0,0-1.74-.6l-3.8,3.07,8.64,4.53a3.54,3.54,0,0,0-.83-.86l-.18-.09a1.34,1.34,0,0,1-.59-1.9C297.89,104.71,297.28,103,295.46,102.09Z"/></g><g id="架构图_业务图标_Web应用防火墙服务-WAF备份-2" data-name="架构图/业务图标/Web应用防火墙服务-WAF备份"><g id="盾牌复制-2" data-name="盾牌复制"><rect id="矩形-5" data-name="矩形" class="cls-5" x="264" y="194" width="55" height="55"/><g id="盾牌-2" data-name="盾牌"><rect id="矩形-6" data-name="矩形" class="cls-5" x="276.89" y="191.42" width="55" height="55"/><polygon id="路径-27-2" data-name="路径-27" class="cls-37" points="282.33 198.3 280.13 199.75 272.93 206.38 270.59 209.59 269.04 213.18 267.75 217.94 267.44 220.91 268.2 226.49 269.69 228.94 276.16 229.94 290.56 230.81 295.26 229.94 301.06 227.5 304.8 226.05 309.13 223.25 312.58 221.68 313.79 220.91 314.9 220.18 315.92 218.86 315.92 217.94 313.79 216.03 310.29 211.88 307.99 208.21 306.85 205.85 306.44 202.73 305.37 202.25 303.61 201.61 300.1 201.29 296.67 201.02 290.94 200.17 286.42 199.12 283.27 198.3 282.33 198.3"/><path id="路径-26-2" data-name="路径-26" class="cls-38" d="M267.91,223.46a7.46,7.46,0,0,0,1.46,4.35c1.73.74,13.59,2.23,18.84,1.93a36.77,36.77,0,0,0,12.28-2.93,84.58,84.58,0,0,0,9.53-4.6c1-.59,2.93-2,5.88-4.15v16a89.07,89.07,0,0,1-14,8,36.25,36.25,0,0,1-13,3c-4.67.41-15.91-.87-17.54-1.27s-2-.63-2.26-1.12-1.7-2.8-1.7-10.84V218.06A42.85,42.85,0,0,1,267.91,223.46Z"/><path id="路径-13-2" data-name="路径-13" class="cls-17" d="M267.44,231.54q1.81,4.05,2.3,4.4c.49.35,5.11,1.15,9,1.43s13.85.81,21.93-2.26A63.41,63.41,0,0,0,316,226.66"/><path id="路径-25-2" data-name="路径-25" class="cls-35" d="M281.4,198.82a2,2,0,0,1,1.51-.5c.7.12,3,.76,4.26,1,1.72.38,3.91.84,5.28,1.06a59.39,59.39,0,0,0,6.05.79c2.17.2,5.64.06,6.87,1.05s.8,2.74,2.8,6.39a30.46,30.46,0,0,0,5.12,6.79c1.55,1.56,2.63,2.15,2.63,2.69v14.13a3.34,3.34,0,0,1-1.44,2.74,64.57,64.57,0,0,1-9.11,5.4c-4.24,2-8.53,5-25.29,4.37-10-1-10.57-1.68-10.85-2.05s-1.79-3.61-1.79-9.43v-12q.65-9.27,5.72-14.82A49.48,49.48,0,0,1,281.4,198.82Z"/></g></g><path id="形状结合-2" data-name="形状结合" class="cls-39" d="M296.18,209.49c2.17,1.13,2.9,3.11,1.82,4.93a.8.8,0,0,0,.32,1.14c2.3,1.55,2.37,4.09.16,5.94a9.6,9.6,0,0,1-9.55.81l-10.57-5.54a3.84,3.84,0,0,1-2.31-2.89,3.8,3.8,0,0,1,1.64-3.31,9.29,9.29,0,0,1,8.94-1.18,2.46,2.46,0,0,0,1.81,0,9.56,9.56,0,0,1,7.75.14Zm-.37,12.5-14-7.33-2.2,1.78,10.07,5.27a7.93,7.93,0,0,0,6.15.3ZM281,214.21l-3.53-1.85a2.8,2.8,0,0,0,1.36,3.64Zm14.87,2.42-13.53-7.09a7.27,7.27,0,0,0-3.76,1.46,4.39,4.39,0,0,0-.65.64l14.66,7.68Zm3.16,1.65-2.29-1.2-3.3,2.66,3.47,1.82a4.66,4.66,0,0,0,.65-.39l.17-.13A3.16,3.16,0,0,0,299,218.3Zm-6.47-8.92a8.53,8.53,0,0,0-3.57.66,4.06,4.06,0,0,1-2.93,0,6.9,6.9,0,0,0-1.76-.48l4.83,2.53Zm2.95.73a6.49,6.49,0,0,0-1.74-.6l-3.8,3.07,8.64,4.53a3.54,3.54,0,0,0-.83-.86l-.18-.09a1.34,1.34,0,0,1-.59-1.9C297.89,212.71,297.28,211,295.46,210.09Z"/></g><g id="架构图_业务图标_Web应用防火墙服务-WAF备份-3" data-name="架构图/业务图标/Web应用防火墙服务-WAF备份"><g id="盾牌复制-3" data-name="盾牌复制"><rect id="矩形-7" data-name="矩形" class="cls-5" x="264" y="296" width="55" height="55"/><g id="盾牌-3" data-name="盾牌"><rect id="矩形-8" data-name="矩形" class="cls-5" x="276.89" y="293.42" width="55" height="55"/><polygon id="路径-27-3" data-name="路径-27" class="cls-40" points="282.33 300.3 280.13 301.75 272.93 308.38 270.59 311.59 269.04 315.18 267.75 319.94 267.44 322.91 268.2 328.49 269.69 330.94 276.16 331.94 290.56 332.81 295.26 331.94 301.06 329.5 304.8 328.05 309.13 325.25 312.58 323.68 313.79 322.91 314.9 322.18 315.92 320.86 315.92 319.94 313.79 318.03 310.29 313.88 307.99 310.21 306.85 307.85 306.44 304.73 305.37 304.25 303.61 303.61 300.1 303.29 296.67 303.02 290.94 302.17 286.42 301.12 283.27 300.3 282.33 300.3"/><path id="路径-26-3" data-name="路径-26" class="cls-41" d="M267.91,325.46a7.46,7.46,0,0,0,1.46,4.35c1.73.74,13.59,2.23,18.84,1.93a36.77,36.77,0,0,0,12.28-2.93,84.58,84.58,0,0,0,9.53-4.6c1-.59,2.93-2,5.88-4.15v16a89.07,89.07,0,0,1-14,8,36.25,36.25,0,0,1-13,3c-4.67.41-15.91-.87-17.54-1.27s-2-.63-2.26-1.12-1.7-2.8-1.7-10.84V320.06A42.85,42.85,0,0,1,267.91,325.46Z"/><path id="路径-13-3" data-name="路径-13" class="cls-17" d="M267.44,333.54q1.81,4.05,2.3,4.4c.49.35,5.11,1.15,9,1.43s13.85.81,21.93-2.26A63.41,63.41,0,0,0,316,328.66"/><path id="路径-25-3" data-name="路径-25" class="cls-35" d="M281.4,300.82a2,2,0,0,1,1.51-.5c.7.12,3,.76,4.26,1,1.72.38,3.91.84,5.28,1.06a59.39,59.39,0,0,0,6.05.79c2.17.2,5.64.06,6.87,1.05s.8,2.74,2.8,6.39a30.46,30.46,0,0,0,5.12,6.79c1.55,1.56,2.63,2.15,2.63,2.69v14.13a3.34,3.34,0,0,1-1.44,2.74,64.57,64.57,0,0,1-9.11,5.4c-4.24,2-8.53,5-25.29,4.37-10-1-10.57-1.68-10.85-2.05s-1.79-3.61-1.79-9.43v-12q.65-9.27,5.72-14.82A49.48,49.48,0,0,1,281.4,300.82Z"/></g></g><path id="形状结合-3" data-name="形状结合" class="cls-42" d="M296.18,311.49c2.17,1.13,2.9,3.11,1.82,4.93a.8.8,0,0,0,.32,1.14c2.3,1.55,2.37,4.09.16,5.94a9.6,9.6,0,0,1-9.55.81l-10.57-5.54a3.84,3.84,0,0,1-2.31-2.89,3.8,3.8,0,0,1,1.64-3.31,9.29,9.29,0,0,1,8.94-1.18,2.46,2.46,0,0,0,1.81,0,9.56,9.56,0,0,1,7.75.14Zm-.37,12.5-14-7.33-2.2,1.78,10.07,5.27a7.93,7.93,0,0,0,6.15.3ZM281,316.21l-3.53-1.85a2.8,2.8,0,0,0,1.36,3.64Zm14.87,2.42-13.53-7.09a7.27,7.27,0,0,0-3.76,1.46,4.39,4.39,0,0,0-.65.64l14.66,7.68Zm3.16,1.65-2.29-1.2-3.3,2.66,3.47,1.82a4.66,4.66,0,0,0,.65-.39l.17-.13A3.16,3.16,0,0,0,299,320.3Zm-6.47-8.92a8.53,8.53,0,0,0-3.57.66,4.06,4.06,0,0,1-2.93.05,6.9,6.9,0,0,0-1.76-.48l4.83,2.53Zm2.95.73a6.49,6.49,0,0,0-1.74-.6l-3.8,3.07,8.64,4.53a3.54,3.54,0,0,0-.83-.86l-.18-.09a1.34,1.34,0,0,1-.59-1.9C297.89,314.71,297.28,313,295.46,312.09Z"/></g><g id="电脑"><rect id="矩形-9" data-name="矩形" class="cls-5" x="18" y="38" width="62" height="62"/><g id="电脑复制"><g id="编组-2" data-name="编组"><polygon id="矩形-10" data-name="矩形" class="cls-43" points="46.52 94.83 63.87 84.24 63.87 87.02 46.51 97.57 46.52 94.83"/><polygon id="矩形-11" data-name="矩形" class="cls-44" points="54.83 79 63.87 84.24 46.52 94.83 37.17 89.29 54.83 79"/><polygon id="矩形-12" data-name="矩形" class="cls-45" points="34.31 87.65 46.52 94.83 46.51 97.62 34.31 90.44 34.31 87.65"/></g><g id="电脑-2" data-name="电脑"><g id="Group-616"><g id="编组-3" data-name="编组"><path id="形状结合-4" data-name="形状结合" class="cls-8" d="M46.51,94.83,63.88,84.24M46.52,94.83v2.49m0-2.49-8.44-5"/></g><polygon id="路径-6" class="cls-46" points="46.52 97.62 31.44 88.68 51.66 77.14 63.87 84.1 63.87 87.08 46.52 97.62"/></g><g id="Group-616-Copy"><polygon id="Fill-610" class="cls-45" points="46.37 82.57 46.35 90.11 44.89 89.27 44.89 81.66 46.37 82.57"/><polygon id="Fill-612" class="cls-47" points="46.37 82.57 56.56 76.7 56.56 84.12 46.35 90.11 46.37 82.57"/><polyline id="Path-3" class="cls-46" points="44.88 85.01 44.88 89.21 46.32 90.07 56.62 84.09 56.62 78.22 46.32 84.26 46.32 90.07"/></g><g id="Group-2"><path id="Fill-8" class="cls-48" d="M68.88,41.84l.14-.05.09,0,.09,0,.11,0h.23l.15,0h0l.11,0h0l.13.06-2.6-1.52h0l-.1-.06h0l0,0h0l-.06,0h-.06l-.12,0H66.6l-.08,0h-.1l-.14.05,0,0,0,0a1.66,1.66,0,0,0-.27.13L30.86,60.9a2.27,2.27,0,0,0-.32.22.1.1,0,0,0-.05,0,2.43,2.43,0,0,0-.3.26l0,0-.05.05a1,1,0,0,0-.13.15l0,0,0,0-.08.09-.06.07,0,.06-.06.07,0,.06-.06.09,0,.06,0,0-.1.18h0l0,0-.07.12,0,.06,0,.07,0,0-.07.15v0h0c0,.07-.05.13-.08.19v0l0,.06,0,.1s0,0,0,.07l0,.09s0,0,0,0l0,.1a.36.36,0,0,0,0,.11v0s0,0,0,.08a1,1,0,0,0,0,.17.06.06,0,0,0,0,0v.05a2.19,2.19,0,0,0,0,.36L28.86,90a1.48,1.48,0,0,0,.61,1.34l2.6,1.53a1.47,1.47,0,0,1-.61-1.35L31.39,66c0-.12,0-.25,0-.37a.28.28,0,0,0,0-.09l0-.17a.43.43,0,0,0,0-.11l0-.11s0-.1,0-.15l0-.08a.84.84,0,0,1,.05-.17l0-.07.09-.23v0c0-.06.06-.13.1-.2l0-.06A1.14,1.14,0,0,1,32,64l0,0a2.39,2.39,0,0,1,.13-.21l0-.06.1-.15.06-.08.09-.12.08-.1.08-.09.14-.15.07-.07.29-.26.06,0a2.27,2.27,0,0,1,.32-.22L68.53,42l.26-.13.09,0"/><path id="Fill-6" class="cls-49" d="M68.57,41.84a1.31,1.31,0,0,1,.82.17,1.69,1.69,0,0,1,.74,1.56h0l.07,25.11A4.89,4.89,0,0,1,68,72.52h0l-34.71,20a2.19,2.19,0,0,1-.89.32,1.43,1.43,0,0,1-.83-.16,1.7,1.7,0,0,1-.74-1.57h0l-.07-24.74A4.87,4.87,0,0,1,33,62.58h0l34.7-20.42A2.23,2.23,0,0,1,68.57,41.84Z"/><polygon id="Fill-612-2" data-name="Fill-612" class="cls-50" points="33.57 64.98 67.73 44.96 67.6 69.38 33.44 89.4 33.57 64.98"/><path id="Combined-Shape-3" data-name="Combined-Shape" class="cls-46" d="M66.89,40.19H67l.18,0,.17.05.11.06h0l1.78,1.45a1.43,1.43,0,0,1,.67,1.38l.07,25.49a4.59,4.59,0,0,1-2.07,3.62L32.79,92.69a1.4,1.4,0,0,1-1.55.09l0,0-1.79-1.47a1.37,1.37,0,0,1-.6-1.16V90l-.07-25.49a3,3,0,0,1,0-.45,1.23,1.23,0,0,1,.05-.28,1.14,1.14,0,0,1,.06-.26l0-.16.07-.2c0-.06.05-.12.09-.22l.07-.15v0l.05-.1h0l0-.06.1-.17.12-.21.1-.15.1-.13.1-.13v0l.15-.16a1.55,1.55,0,0,1,.2-.22,3,3,0,0,1,.35-.3,2.27,2.27,0,0,1,.32-.22h0L65.93,40.48a2.91,2.91,0,0,1,.35-.17l.24-.07h.13l.16,0h.08Z"/></g></g></g></g><g id="多人"><rect id="矩形复制-4" class="cls-5" x="21" y="248" width="56" height="56"/><g id="Group-12"><path id="Combined-Shape-4" data-name="Combined-Shape" class="cls-51" d="M66.78,281.68l-.66-.39v.77l-12.21,7.05h0l-.67-.38v.77l-3.3,1.9-3.28-1.9,0-15.76a4.87,4.87,0,0,1,0-.66V273a.29.29,0,0,0,0-.09c0-.1,0-.2,0-.3h0l0-.14a.14.14,0,0,0,0-.07c0-.06,0-.13,0-.19a1,1,0,0,1,0-.17l0-.1c0-.06,0-.11,0-.16a.93.93,0,0,1,0-.13h0l.06-.17c0-.05,0-.09.05-.13s0,0,0-.05.09-.23.14-.35h0l0-.06.12-.26h0l.05-.1h0l.06-.11h0l.05-.11c0-.08.09-.16.14-.24l0-.06v0a3.45,3.45,0,0,1,.2-.32l0-.05.07-.11.12-.17a.86.86,0,0,1,.07-.1,1.71,1.71,0,0,1,.11-.14l.07-.11h0l.1-.11.15-.18.06-.08.08-.09.25-.27h0l.09-.08h0l.07-.08.13-.12.21-.18.13-.11.24-.18.11-.08.36-.23h0l5-2.88-2.59-1.51a3.7,3.7,0,0,1-1.59-3.23v-.26c0-.2,0-.4,0-.61,0-.06,0-.12,0-.19l0-.27a.5.5,0,0,1,0-.12c0-.14.05-.29.07-.43s0-.14,0-.21a.29.29,0,0,1,0-.09c0-.1,0-.19.07-.28l.06-.25h0l0-.14h0l.07-.22.06-.2.09-.24.06-.18,0-.09c.07-.16.13-.33.2-.49v0l0-.07c.05-.13.11-.25.17-.38l.07-.14.09-.17a1.09,1.09,0,0,1,.08-.15l.18-.34a.41.41,0,0,0,0-.09l0,0c.09-.16.19-.31.28-.46l0-.07s.07-.1.1-.16l.17-.24h0l.1-.15.15-.2.11-.15.14-.16.21-.26.09-.11.12-.13.36-.38.12-.13h0l.11-.11h0l.19-.17.31-.27.18-.15.34-.26.17-.12a5.69,5.69,0,0,1,.52-.33c.17-.1.33-.18.5-.26l.13-.06.13-.06.14,0,.38-.14.12,0,.12,0,.23,0,.13,0,.15,0h.62l.33,0h.05l.1,0,.15,0,.15.05.09,0,.05,0,.28.13,0,0h0l3.29,1.91,0,0a3.8,3.8,0,0,1,1.61,3.51,10.47,10.47,0,0,1-1.14,4.53h.56l.23,0h.1l.11,0,.1,0,.06,0h0l.19.09,0,0h0l3.28,1.9h0A2.62,2.62,0,0,1,70,264l0,15.76-3.31,1.91Z"/><polygon id="Fill-1-2" data-name="Fill-1" class="cls-43" points="66.78 281.68 63.5 279.77 63.47 266.11 66.75 268.02 66.78 281.68"/><polygon id="Fill-2" class="cls-43" points="53.91 289.11 50.63 287.21 50.59 273.55 53.87 275.45 53.91 289.11"/><path id="Fill-6-2" data-name="Fill-6" class="cls-44" d="M67.13,261.47l.17-.05.15,0,.2,0h.41a1.26,1.26,0,0,1,.28,0h.07l.21.06.07,0,.24.12-3.28-1.9,0,0-.19-.09h0l-.06,0-.1,0-.11,0H65l-.23,0h-.54l-.09,0-.15,0-.09,0-.08,0-.27.09-.09,0-.06,0c-.15.07-.31.14-.47.23L50.39,267.2l-.36.23-.11.08-.24.18-.13.11-.21.18-.13.12-.07.08-.09.08-.25.27-.08.09-.06.08-.15.18-.1.11-.07.11a1.71,1.71,0,0,0-.11.14.86.86,0,0,0-.07.1l-.12.17-.07.11,0,.05a3.45,3.45,0,0,0-.2.32v0l0,.06c-.05.08-.1.16-.14.24l-.05.11-.06.11-.05.1-.12.26,0,.06h0c0,.12-.1.23-.14.35s0,0,0,.05,0,.08-.05.13l-.06.17a.93.93,0,0,0,0,.13s0,.1,0,.16l0,.1a1,1,0,0,0,0,.17c0,.06,0,.13,0,.19a.14.14,0,0,1,0,.07s0,.1,0,.14,0,.2,0,.3a.29.29,0,0,1,0,.09v.07a4.87,4.87,0,0,0,0,.66l0,15.76,3.28,1.9,0-15.75a4.87,4.87,0,0,1,0-.66c0-.06,0-.11,0-.17s0-.19,0-.29,0-.14,0-.21,0-.13.05-.19,0-.19.07-.28l0-.15.1-.31,0-.12c.05-.14.11-.28.17-.42s0,0,0-.05.11-.24.17-.36l.06-.12c.06-.11.12-.23.19-.34l0-.06q.12-.21.24-.39l.07-.11a3.15,3.15,0,0,1,.19-.27l.11-.15.17-.22.15-.18.14-.16.25-.27.16-.16.13-.12.21-.19.13-.1c.08-.07.16-.12.24-.18l.11-.08a3.61,3.61,0,0,1,.36-.23l12.57-7.26a4,4,0,0,1,.47-.23.94.94,0,0,1,.15-.06A1.43,1.43,0,0,1,67.13,261.47Z"/><path id="Fill-3" class="cls-52" d="M66.28,261.85c2.06-1.2,3.76-.23,3.76,2.14l0,15.61-3.28,1.89,0-13.53-.65.37,0,13.54-12.11,7,0-13.54-.66.38,0,13.54-3.28,1.89,0-15.62A8.24,8.24,0,0,1,53.82,269Z"/><path id="Fill-8-2" data-name="Fill-8" class="cls-44" d="M54.53,260.43c0-.13,0-.26,0-.39s.05-.29.07-.44l.06-.3c0-.09,0-.18.07-.27s.07-.26.1-.39a2,2,0,0,0,.07-.23l.15-.43.06-.18.24-.6,0-.07c.07-.18.16-.35.24-.53l.09-.16c.08-.17.17-.33.26-.49a.31.31,0,0,0,0-.1l.35-.55c0-.06.07-.11.1-.16l.27-.39.15-.2.25-.32.21-.26.21-.23.36-.39.23-.23.19-.17.31-.27.18-.15.34-.26.17-.12a5.69,5.69,0,0,1,.52-.33c.17-.1.33-.18.5-.26l.13-.06.27-.11.38-.13.24-.07.23-.05.29,0,.16,0c.12,0,.23,0,.35,0h.08a1.75,1.75,0,0,1,.4,0l.1,0a1.71,1.71,0,0,1,.3.09l.09,0a2.92,2.92,0,0,1,.36.17l-3.29-1.91,0,0-.28-.13-.05,0-.09,0-.15-.05-.15,0-.1,0h-.05l-.33,0h-.62l-.15,0-.13,0-.23,0-.12,0-.12,0-.38.14-.14,0-.13.06-.13.06c-.17.08-.33.16-.5.26a5.69,5.69,0,0,0-.52.33l-.17.12-.34.26-.18.15-.31.27-.19.17-.11.11-.12.13-.36.38-.12.13-.09.11-.21.26-.14.16-.11.15-.15.2-.1.15-.17.24c0,.06-.07.11-.1.16l0,.07c-.09.15-.19.3-.28.46l0,0a.41.41,0,0,1,0,.09l-.18.34a1.09,1.09,0,0,0-.08.15l-.09.17-.07.14c-.06.13-.12.25-.17.38l0,.07v0c-.07.16-.13.33-.2.49l0,.09-.06.18-.09.24-.06.2-.07.22s0,.09,0,.14l-.06.25c0,.09,0,.18-.07.28a.29.29,0,0,0,0,.09c0,.07,0,.14,0,.21s0,.29-.07.43a.5.5,0,0,0,0,.12l0,.27c0,.07,0,.13,0,.19,0,.21,0,.41,0,.61a3.8,3.8,0,0,0,1.59,3.49l3.28,1.91a3.81,3.81,0,0,1-1.59-3.5c0-.19,0-.4,0-.6a1.23,1.23,0,0,0,0-.19"/><path id="Fill-10" class="cls-52" d="M59.92,251.82c3-1.74,5.45-.35,5.46,3.11A12,12,0,0,1,60,264.34c-3,1.73-5.45.34-5.46-3.12a11.94,11.94,0,0,1,5.43-9.4"/><path id="Combined-Shape-5" data-name="Combined-Shape" class="cls-51" d="M46.77,293.32l-.66-.39v.77l-12.22,7.05h0l-.66-.39v.77L29.93,303l-3.29-1.91,0-15.75c0-.22,0-.44,0-.66,0,0,0-.05,0-.08s0-.06,0-.08,0-.2.05-.3h0l0-.14a.19.19,0,0,1,0-.07c0-.07,0-.13,0-.19a1.36,1.36,0,0,0,0-.17s0-.07,0-.11,0-.1,0-.15a.65.65,0,0,0,0-.13h0l.07-.18a.56.56,0,0,1,0-.12s0,0,0-.06.09-.22.14-.34v0a.08.08,0,0,0,0-.05l.12-.26h0l.05-.1h0l.06-.12h0l.06-.1c0-.08.08-.16.13-.24l0-.06v0l.2-.33,0,0a1,1,0,0,1,.08-.11l.11-.18.07-.09.11-.15.08-.1h0l.09-.12.15-.18.06-.08.08-.08.26-.27h0l.08-.09h0l.08-.07.12-.12.22-.19.13-.1.23-.18.12-.08a3.61,3.61,0,0,1,.36-.23h0l5-2.89-2.59-1.5a3.67,3.67,0,0,1-1.58-3.23V271c0-.19,0-.4,0-.6s0-.13,0-.19l0-.27a.5.5,0,0,0,0-.12c0-.15,0-.29.08-.44l0-.2a.29.29,0,0,0,0-.09c0-.1.05-.19.07-.28l.06-.25h0l.05-.14h0l.06-.23.06-.19.09-.24a1.34,1.34,0,0,1,.07-.18l0-.09c.06-.17.13-.33.2-.49v0l0-.07c.06-.13.11-.26.17-.38l.08-.15a1.19,1.19,0,0,1,.08-.16l.08-.16.18-.33.06-.09v0c.09-.16.19-.31.29-.47l0-.06a.91.91,0,0,1,.11-.16c0-.08.1-.17.16-.25h0l.11-.14.15-.2.1-.15a2.09,2.09,0,0,0,.14-.17l.21-.26a1.09,1.09,0,0,0,.1-.11l.11-.12.36-.39.12-.12h0l.12-.11h0l.18-.17.31-.27.18-.15.35-.26.16-.12c.17-.12.35-.23.52-.33s.34-.18.5-.26l.13-.06.14-.06.13-.05.39-.13.12,0,.12,0,.22-.05.14,0,.15,0,.16,0h.45a1.66,1.66,0,0,1,.33,0h0l.1,0,.16,0,.14.05.09,0,.06,0,.27.13,0,0h0l3.28,1.91,0,0a3.81,3.81,0,0,1,1.61,3.51,10.63,10.63,0,0,1-1.15,4.53h.14l.11,0h.31l.23,0h.11l.1,0,.1,0,.07,0,0,0,.2.09h0l3.28,1.91h0A2.62,2.62,0,0,1,50,275.65l0,15.76-3.3,1.91Z"/><polygon id="Fill-1-3" data-name="Fill-1" class="cls-43" points="46.77 293.32 43.49 291.41 43.45 277.75 46.73 279.65 46.77 293.32"/><polygon id="Fill-2-2" data-name="Fill-2" class="cls-43" points="33.89 300.75 30.61 298.84 30.57 285.18 33.85 287.09 33.89 300.75"/><path id="Fill-6-3" data-name="Fill-6" class="cls-44" d="M47.11,273.1l.17,0,.16,0,.2,0h.41a1.33,1.33,0,0,1,.28,0l.07,0a.66.66,0,0,1,.2.06l.07,0a1.92,1.92,0,0,1,.25.12l-3.28-1.91h0l-.2-.09,0,0-.07,0-.1,0-.1,0H45l-.23,0h-.31l-.11,0h-.11l-.1,0-.15,0-.09,0-.08,0-.27.09-.09,0,0,0a3.39,3.39,0,0,0-.47.23l-12.57,7.26a3.61,3.61,0,0,0-.36.23l-.12.08-.23.18-.13.1-.22.19-.12.12-.08.07-.08.09-.26.27-.08.08-.06.08-.15.18-.09.12-.08.1-.11.15-.07.09-.11.18a1,1,0,0,0-.08.11l0,0-.2.33v0l0,.06c-.05.08-.09.16-.13.24l-.06.1-.06.12-.05.1-.12.26a.08.08,0,0,1,0,.05v0c-.05.12-.1.23-.14.34s0,0,0,.06a.56.56,0,0,0,0,.12,1.34,1.34,0,0,0-.07.18.65.65,0,0,1,0,.13c0,.05,0,.1,0,.15s0,.07,0,.11a1.36,1.36,0,0,1,0,.17c0,.06,0,.12,0,.19a.19.19,0,0,0,0,.07l0,.14c0,.1,0,.2-.05.3s0,.05,0,.08,0,.05,0,.08c0,.22,0,.44,0,.66l0,15.75L29.93,303l-.05-15.76c0-.21,0-.43,0-.65a1,1,0,0,0,0-.17,2.93,2.93,0,0,0,0-.29c0-.07,0-.14.05-.21s0-.13,0-.2.05-.18.08-.27,0-.1,0-.15.07-.21.11-.31l0-.12c0-.14.11-.28.17-.42a.14.14,0,0,0,0-.06c.06-.12.12-.24.17-.36l.06-.11a3.72,3.72,0,0,1,.19-.34l0-.07.24-.39a1,1,0,0,0,.08-.11l.18-.27a1.34,1.34,0,0,0,.11-.14l.17-.22.15-.18.15-.16a2.16,2.16,0,0,1,.25-.27l.16-.16.12-.12.22-.19.13-.11.24-.18.11-.08.36-.23,12.57-7.25a5.21,5.21,0,0,1,.47-.24l.15-.06Z"/><path id="Fill-3-2" data-name="Fill-3" class="cls-52" d="M46.26,273.48c2.06-1.19,3.76-.22,3.77,2.15l0,15.61-3.27,1.89,0-13.54-.66.38,0,13.54L34,300.5,34,287l-.66.38,0,13.54-3.27,1.88-.05-15.61a8.29,8.29,0,0,1,3.75-6.48Z"/><path id="Fill-8-3" data-name="Fill-8" class="cls-44" d="M34.52,272.06c0-.12,0-.25,0-.39s0-.29.08-.43,0-.2.06-.3l.06-.28c0-.13.07-.26.11-.38a2,2,0,0,1,.07-.23c0-.15.09-.29.14-.44a1.34,1.34,0,0,1,.07-.18,6.07,6.07,0,0,1,.24-.59l0-.07c.08-.18.16-.36.25-.53l.08-.16c.09-.17.17-.33.27-.49a.47.47,0,0,1,0-.1l.34-.56.11-.15a4.56,4.56,0,0,1,.27-.39l.15-.21.24-.31.22-.26a2.2,2.2,0,0,1,.2-.23c.12-.14.24-.26.37-.39l.23-.23.18-.17a3.74,3.74,0,0,1,.31-.27l.19-.16.34-.25.16-.12c.17-.12.35-.23.52-.33a4.81,4.81,0,0,1,.5-.26l.13-.06.27-.11a3,3,0,0,1,.39-.13l.24-.07.22-.05.29,0,.16,0h.43l.4.05.1,0,.3.08.09,0a1.49,1.49,0,0,1,.36.17l-3.28-1.91,0,0L40.2,261l-.06,0-.09,0-.14-.05-.16,0-.1,0h0a1.66,1.66,0,0,0-.33,0h-.45l-.16,0-.15,0-.14,0-.22.05L38,261l-.12,0-.39.13-.13.05-.14.06-.13.06c-.16.08-.33.16-.5.26s-.35.21-.52.33l-.16.12-.35.26-.18.15-.31.27-.18.17-.12.11-.12.12-.36.39-.11.12a1.09,1.09,0,0,1-.1.11l-.21.26a2.09,2.09,0,0,1-.14.17l-.1.15-.15.2-.11.14c-.06.08-.11.17-.16.25a.91.91,0,0,0-.11.16l0,.06c-.1.16-.2.31-.29.47v0l-.06.09-.18.33-.08.16a1.19,1.19,0,0,0-.08.16l-.08.15c-.06.12-.11.25-.17.38l0,.07v0c-.07.16-.14.32-.2.49l0,.09a1.34,1.34,0,0,0-.07.18l-.09.24-.06.19-.06.23s0,.09-.05.14l-.06.25c0,.09,0,.18-.07.28a.29.29,0,0,1,0,.09l0,.2c0,.15-.06.29-.08.44a.5.5,0,0,1,0,.12l0,.27c0,.06,0,.13,0,.19s0,.41,0,.6a3.83,3.83,0,0,0,1.59,3.5l3.28,1.9a3.8,3.8,0,0,1-1.59-3.49q0-.3,0-.6a1.36,1.36,0,0,1,0-.2"/><path id="Fill-10-2" data-name="Fill-10" class="cls-52" d="M39.9,263.46c3-1.74,5.46-.35,5.47,3.11A12,12,0,0,1,39.94,276c-3,1.73-5.46.34-5.47-3.12a11.94,11.94,0,0,1,5.43-9.4"/><path id="Combined-Shape-6" data-name="Combined-Shape" class="cls-51" d="M62.13,290.52l-.66-.38v.76L49.25,298h0l-.66-.39v.77l-3.3,1.91L42,298.34l0-15.76c0-.21,0-.43,0-.65a.22.22,0,0,0,0-.08s0-.06,0-.09l.06-.29h0l0-.14a.14.14,0,0,1,0-.07c0-.07,0-.13,0-.2s0-.11.05-.17a.54.54,0,0,1,0-.1c0-.05,0-.1,0-.15a.93.93,0,0,0,0-.13h0l.07-.18s0-.08,0-.12l0-.06c0-.11.09-.23.14-.34v0l0-.06a2.72,2.72,0,0,1,.11-.25h0l0-.11h0l.06-.11h0l.06-.11.13-.23,0-.07,0,0,.19-.32,0-.05a1,1,0,0,0,.08-.11c0-.05.07-.11.11-.17l.08-.1.1-.14.08-.1h0l.09-.12.15-.18.07-.08.08-.08a2.16,2.16,0,0,1,.25-.27h0l.08-.09h0l.08-.07.12-.12.22-.19.13-.11.24-.17.11-.09.36-.23h0l5-2.88-2.59-1.5a3.71,3.71,0,0,1-1.58-3.23v-.27q0-.3,0-.6a1.23,1.23,0,0,1,0-.19c0-.09,0-.18,0-.28a.43.43,0,0,0,0-.12c0-.14,0-.28.08-.43l0-.2,0-.1.06-.28c0-.08,0-.16.07-.25h0l0-.14h0l.07-.22c0-.06,0-.13,0-.19l.09-.25a1.34,1.34,0,0,1,.07-.18l0-.08c.06-.17.13-.33.2-.49v0l0-.07c.06-.13.11-.26.18-.39s0-.09.07-.14l.08-.16c0-.05.05-.11.08-.16s.12-.22.19-.33l0-.1,0,0c.09-.15.18-.31.28-.46a.43.43,0,0,0,0-.07l.11-.15c0-.09.11-.17.16-.25h0l.11-.14.15-.21.1-.14a2.09,2.09,0,0,0,.14-.17l.22-.26.09-.11.11-.12c.12-.14.24-.26.37-.39l.11-.12h0l.12-.11h0l.18-.17c.1-.1.21-.18.31-.27l.19-.16.34-.25.16-.12c.17-.12.35-.23.52-.33s.34-.18.5-.26l.13-.06.14-.06.13-.05.39-.13.12,0a.53.53,0,0,1,.12,0l.22-.05.14,0H54l.16,0h.46l.32,0H55l.09,0,.16,0,.14.05.09,0,.06,0a1.66,1.66,0,0,1,.27.13l0,0h0l3.28,1.9h0a3.81,3.81,0,0,1,1.61,3.51,10.66,10.66,0,0,1-1.15,4.53h.56l.23,0h0l.07,0,.1,0,.1,0,.07,0h0l.19.1h0l3.28,1.91,0,0a2.65,2.65,0,0,1,1.14,2.44l0,15.76-3.3,1.9Z"/><polygon id="Fill-1-4" data-name="Fill-1" class="cls-43" points="62.13 290.52 58.85 288.62 58.81 274.96 62.09 276.86 62.13 290.52"/><polygon id="Fill-2-3" data-name="Fill-2" class="cls-43" points="49.25 297.96 45.97 296.05 45.93 282.39 49.21 284.3 49.25 297.96"/><path id="Fill-6-4" data-name="Fill-6" class="cls-44" d="M62.47,270.31l.17-.05.16,0,.2,0h.41l.28,0,.07,0a.83.83,0,0,1,.21.06l.06,0a1.15,1.15,0,0,1,.25.12L61,268.53h0l-.19-.1h0l-.07,0-.1,0-.1,0-.07,0h0l-.23,0h-.53l-.09,0-.16,0h-.09l-.08,0-.26.09-.1,0,0,0a5.21,5.21,0,0,0-.47.24L45.74,276l-.36.23-.11.09-.24.17-.13.11-.22.19-.12.12-.08.07-.08.09a2.16,2.16,0,0,0-.25.27l-.08.08-.07.08-.15.18-.09.12-.08.1-.1.14-.08.1c0,.06-.07.12-.11.17a1,1,0,0,1-.08.11l0,.05-.19.32,0,0,0,.07-.13.23-.06.11-.06.11a.54.54,0,0,1,0,.11,2.72,2.72,0,0,0-.11.25l0,.06v0c-.05.11-.09.23-.14.34l0,.06s0,.08,0,.12l-.07.18a.93.93,0,0,1,0,.13c0,.05,0,.1,0,.15a.54.54,0,0,0,0,.1c0,.06,0,.12-.05.17s0,.13,0,.2a.14.14,0,0,0,0,.07.59.59,0,0,0,0,.14l-.06.29s0,.06,0,.09a.22.22,0,0,1,0,.08c0,.22,0,.44,0,.65l0,15.76,3.28,1.91,0-15.76a5.14,5.14,0,0,1,0-.66.88.88,0,0,1,0-.16c0-.1,0-.2,0-.3a1.55,1.55,0,0,1,0-.21c0-.06,0-.13,0-.19s.05-.18.08-.27a1,1,0,0,1,0-.16c0-.1.06-.2.1-.3s0-.08,0-.13.11-.27.17-.41l0-.06c.05-.12.11-.24.17-.36a.54.54,0,0,1,.05-.11l.19-.35,0-.06c.07-.13.15-.26.23-.39l.08-.11.19-.27.1-.14.17-.22.15-.18.15-.17.25-.27.16-.16a.69.69,0,0,1,.13-.11l.21-.19.13-.11.24-.18.11-.08L49,278l12.57-7.26a5.08,5.08,0,0,1,.47-.23l.15-.06Z"/><path id="Fill-3-3" data-name="Fill-3" class="cls-52" d="M61.62,270.69c2.06-1.19,3.76-.23,3.77,2.14l0,15.62-3.27,1.89,0-13.54-.65.38,0,13.53-12.11,7,0-13.53-.66.38,0,13.53L45.46,300l-.05-15.61a8.29,8.29,0,0,1,3.75-6.48Z"/><path id="Fill-8-4" data-name="Fill-8" class="cls-44" d="M49.88,269.27c0-.13,0-.26,0-.39s0-.29.08-.43,0-.2.06-.3l.06-.28c0-.13.07-.26.11-.39a1.87,1.87,0,0,1,.07-.22c0-.15.09-.29.14-.44l.07-.18q.1-.3.24-.6l0-.07c.08-.17.16-.35.25-.52l.08-.17c.09-.16.17-.33.27-.49a.41.41,0,0,1,0-.09c.11-.19.22-.38.34-.56l.11-.16.27-.38.15-.21.24-.31.22-.26.2-.24c.12-.13.24-.26.37-.38l.23-.24.18-.17.31-.27.19-.15.34-.26.16-.12.52-.33.5-.26.13-.06.27-.1.39-.14.24-.06L57,260l.29-.05h.59l.41.05.09,0,.3.09.09,0a3,3,0,0,1,.36.17l-3.28-1.9,0,0a1.66,1.66,0,0,0-.27-.13l-.06,0-.09,0-.14-.05-.16,0-.09,0H55l-.32,0h-.46L54,258h-.15l-.14,0-.22.05a.53.53,0,0,0-.12,0l-.12,0-.39.13-.13.05-.14.06-.13.06c-.16.08-.33.16-.5.26s-.35.21-.52.33l-.16.12-.34.25-.19.16c-.1.09-.21.17-.31.27l-.18.17-.12.11-.11.12c-.13.13-.25.25-.37.39l-.11.12-.09.11-.22.26a2.09,2.09,0,0,1-.14.17l-.1.14-.15.21-.11.14c0,.08-.11.16-.16.25l-.11.15a.43.43,0,0,1,0,.07c-.1.15-.19.31-.28.46l0,0,0,.1c-.07.11-.13.22-.19.33s0,.11-.08.16l-.08.16s0,.1-.07.14-.12.26-.18.39l0,.07v0c-.07.16-.14.32-.2.49l0,.08a1.34,1.34,0,0,0-.07.18l-.09.25c0,.06,0,.13,0,.19s-.05.15-.07.22a1,1,0,0,0,0,.14c0,.09,0,.17-.07.25l-.06.28,0,.1,0,.2c0,.15-.06.29-.08.43a.43.43,0,0,1,0,.12c0,.1,0,.19,0,.28a1.23,1.23,0,0,0,0,.19q0,.3,0,.6a3.83,3.83,0,0,0,1.59,3.5l3.28,1.9a3.83,3.83,0,0,1-1.59-3.49q0-.3,0-.6a1.36,1.36,0,0,1,0-.2"/><path id="Fill-10-3" data-name="Fill-10" class="cls-52" d="M55.26,260.66c3-1.74,5.46-.34,5.47,3.12a12,12,0,0,1-5.43,9.4c-3,1.74-5.46.34-5.47-3.11a12,12,0,0,1,5.43-9.41"/></g></g><path id="矩形备份-33" class="cls-53" d="M754.5,411.5V3.5h-527v408Z"/><path id="矩形备份-34" class="cls-53" d="M93,143V4H4V143Z"/><polygon id="路径" class="cls-54" points="622.38 321.51 655.19 321.51 655.19 316.18 667.19 322.18 655.19 328.18 655.19 322.85 622.38 322.85 622.38 323.18 621 323.18 621 84 622.38 84 622.38 84.33 655.19 84.33 655.19 79 667.19 85 655.19 91 655.19 85.67 622.38 85.67 622.38 321.51"/><polygon id="路径备份" class="cls-54" points="458.38 321.51 491.19 321.51 491.19 316.18 503.19 322.18 491.19 328.18 491.19 322.85 458.38 322.85 458.38 323.18 457 323.18 457 84 458.38 84 458.38 84.33 491.19 84.33 491.19 79 503.19 85 491.19 91 491.19 85.67 458.38 85.67 458.38 321.51"/><polygon id="路径-2" data-name="路径" class="cls-54" points="656.25 197.87 656.25 203.2 587.16 203.2 587.16 204.54 656.25 204.54 656.25 209.87 668.16 203.87 656.25 197.87"/><polygon id="路径-3" data-name="路径" class="cls-54" points="492.25 197.87 492.25 203.2 457 203.2 457 204.54 492.25 204.54 492.25 209.87 504.16 203.87 492.25 197.87"/><polygon id="路径-4" data-name="路径" class="cls-54" points="360.25 197.87 360.25 203.2 343 203.2 343 204.54 360.25 204.54 360.25 209.87 372.16 203.87 360.25 197.87"/><polygon id="路径-5" data-name="路径" class="cls-54" points="229.09 72.87 229.09 78.2 93 78.2 93 79.54 229.09 79.54 229.09 84.87 241 78.87 229.09 72.87"/><polygon id="路径-6-2" data-name="路径" class="cls-55" points="230.25 283 230.25 288.33 213 288.33 213 289.67 230.25 289.67 230.25 295 242.16 289 230.25 283"/><polygon id="路径-7" data-name="路径" class="cls-55" points="109.25 283 109.25 288.33 92 288.33 92 289.67 109.25 289.67 109.25 295 121.16 289 109.25 283"/><g id="架构图_公共_防火墙-安全服务-Security" data-name="架构图/公共/防火墙-安全服务-Security"><g id="防护墙"><polygon id="矩形复制-5" class="cls-5" points="512 39 576 39 576 103 512 103 512 65.18 512 39"/><g id="墙"><g id="Group"><path id="Fill-29" class="cls-56" d="M530,96.19l2.46,5.68L566.59,82a4.78,4.78,0,0,0,2.28-5.16l-.58-2.67h0Z"/><path id="Path" class="cls-57" d="M527.82,102c.07,0,4.57,0,4.64,0L530,96.46Z"/><path id="Path-Copy" class="cls-58" d="M518.12,95.85s.55-1.83,1.52-5.42c0,0-1.56,3-1.52,3Z"/><path id="Path-Copy-2" data-name="Path-Copy" class="cls-59" d="M569.28,80,568,74.61s.42,1,1.33,3.06Z"/><polygon id="Fill-84" class="cls-60" points="530 96.19 527.89 101.75 517.9 95.78 519.47 90.32 530 96.19"/><polygon id="Fill-88" class="cls-61" points="530 96.19 519.47 90.32 519.47 61.8 534.89 58.79 530 96.19"/><path id="Fill-86" class="cls-62" d="M568.12,46.12V74.28L530,96.19v-26a4,4,0,0,1,2-3.47l36.1-20.57Z"/><polygon id="Fill-90" class="cls-63" points="531.32 67.38 520.65 61.36 557.31 39.98 568.12 46.18 531.32 67.38"/><path id="形状" class="cls-8" d="M527.82,102l2.2-5.79,2.43,5.79L530,96.17l38.09-21.89L530,96.17V89.28l38.4-22.15L530,89.28V82.42l38.4-22.17L530,82.42v-7l38.4-22.22L530,75.41V70.29a4,4,0,0,1,2-3.47l35.65-20.4h0M530,75.41l-11-6.23,11,6.23v7l-11-6.35,11,6.35v6.86l-11-6.35,11,6.35v6.89l-10.67-5.93-1.23,4.48,1.23-4.48L530,96.17l38.09-21.89.94,4.13a2.39,2.39,0,0,1-1.23,2.66"/><line id="Path-5" class="cls-8" x1="561.18" y1="71.3" x2="561.18" y2="78.18"/><line id="Path-5-Copy" class="cls-8" x1="546.32" y1="79.91" x2="546.32" y2="86.83"/><line id="Path-5-Copy-2" class="cls-8" x1="541.87" y1="75.46" x2="541.87" y2="82.37"/><line id="Path-5-Copy-8" class="cls-8" x1="557.22" y1="66.64" x2="557.22" y2="73.48"/><line id="Path-5-Copy-3" class="cls-8" x1="564.15" y1="55.65" x2="564.15" y2="62.83"/><line id="Path-5-Copy-4" class="cls-8" x1="548.8" y1="64.56" x2="548.8" y2="71.64"/><line id="Path-5-Copy-5" class="cls-8" x1="534.44" y1="72.98" x2="534.44" y2="79.89"/><line id="Path-5-Copy-6" class="cls-8" x1="541.62" y1="61.1" x2="541.62" y2="68.77"/><line id="Path-5-Copy-7" class="cls-8" x1="557.47" y1="52.18" x2="557.47" y2="59.51"/><line id="Path-6" class="cls-8" x1="530.94" y1="54.92" x2="541.83" y2="61.36"/><line id="Path-6-Copy" class="cls-8" x1="546.78" y1="46.01" x2="557.68" y2="52.45"/><line id="路径-8" class="cls-8" x1="520" y1="62.2" x2="530.62" y2="68.14"/><path id="Path-3-2" data-name="Path-3" class="cls-64" d="M554.77,41.37a5.19,5.19,0,0,1,5.17,0h0l6.17,3.56a4.41,4.41,0,0,1,1.61,1.6,4.48,4.48,0,0,1,.58,2.19h0V74.35l.8,3.53a3.58,3.58,0,0,1-.25,2.21,3.33,3.33,0,0,1-1.37,1.49h0l-34.3,20a3.53,3.53,0,0,1-1.8.49H529a3.64,3.64,0,0,1-1.83-.5h0L519,96.72a2,2,0,0,1-.8-.94,1.91,1.91,0,0,1-.06-1.23h0l.31-1.12.82-3v-26a4.38,4.38,0,0,1,.59-2.19,4.46,4.46,0,0,1,1.6-1.6h0Z"/></g><polygon id="Path-3-3" data-name="Path-3" class="cls-65" points="532.46 102.09 569.76 102.09 569.76 68.03 566.65 68.03 566.65 82.02 532.46 102.09"/></g></g><path id="形状结合-5" data-name="形状结合" class="cls-66" d="M548.8,72.61v5.6l-5.6,3.19V75.8ZM555.2,69v5.6l-5.6,3.19v-5.6Zm-6.4-2.75v5.6L543.2,75V69.4Zm6.4-3.65v5.6l-5.6,3.19v-5.6Z"/></g><g id="架构图_公共_防火墙-安全服务-Security-2" data-name="架构图/公共/防火墙-安全服务-Security"><g id="防护墙-2" data-name="防护墙"><polygon id="矩形复制-5-2" data-name="矩形复制-5" class="cls-5" points="512 161 576 161 576 225 512 225 512 187.18 512 161"/><g id="墙-2" data-name="墙"><g id="Group-2-2" data-name="Group"><path id="Fill-29-2" data-name="Fill-29" class="cls-67" d="M530,218.19l2.46,5.68L566.59,204a4.78,4.78,0,0,0,2.28-5.16l-.58-2.67h0Z"/><path id="Path-2-5" data-name="Path" class="cls-68" d="M527.82,224c.07,0,4.57,0,4.64,0l-2.46-5.5Z"/><path id="Path-Copy-3" data-name="Path-Copy" class="cls-58" d="M518.12,217.85s.55-1.83,1.52-5.42c0,0-1.56,3-1.52,3Z"/><path id="Path-Copy-4" data-name="Path-Copy" class="cls-59" d="M569.28,202,568,196.61s.42,1,1.33,3.06Z"/><polygon id="Fill-84-2" data-name="Fill-84" class="cls-69" points="530 218.19 527.89 223.75 517.9 217.78 519.47 212.32 530 218.19"/><polygon id="Fill-88-2" data-name="Fill-88" class="cls-70" points="530 218.19 519.47 212.32 519.47 183.8 534.89 180.79 530 218.19"/><path id="Fill-86-2" data-name="Fill-86" class="cls-71" d="M568.12,168.12v28.16L530,218.19v-26a4,4,0,0,1,2-3.47l36.1-20.57Z"/><polygon id="Fill-90-2" data-name="Fill-90" class="cls-72" points="531.32 189.38 520.65 183.36 557.31 161.98 568.12 168.18 531.32 189.38"/><path id="形状-2" data-name="形状" class="cls-8" d="M527.82,224l2.2-5.79,2.43,5.79L530,218.17l38.09-21.89L530,218.17v-6.89l38.4-22.15L530,211.28v-6.86l38.4-22.17L530,204.42v-7l38.4-22.22L530,197.41v-5.12a4,4,0,0,1,2-3.47l35.65-20.4h0m-37.66,29-11-6.23,11,6.23v7l-11-6.35,11,6.35v6.86l-11-6.35,11,6.35v6.89l-10.67-5.93-1.23,4.48,1.23-4.48L530,218.17l38.09-21.89.94,4.13a2.39,2.39,0,0,1-1.23,2.66"/><line id="Path-5-2" data-name="Path-5" class="cls-8" x1="561.18" y1="193.3" x2="561.18" y2="200.18"/><line id="Path-5-Copy-2-2" data-name="Path-5-Copy" class="cls-8" x1="546.32" y1="201.91" x2="546.32" y2="208.83"/><line id="Path-5-Copy-2-3" data-name="Path-5-Copy-2" class="cls-8" x1="541.87" y1="197.46" x2="541.87" y2="204.37"/><line id="Path-5-Copy-8-2" data-name="Path-5-Copy-8" class="cls-8" x1="557.22" y1="188.64" x2="557.22" y2="195.48"/><line id="Path-5-Copy-3-2" data-name="Path-5-Copy-3" class="cls-8" x1="564.15" y1="177.65" x2="564.15" y2="184.83"/><line id="Path-5-Copy-4-2" data-name="Path-5-Copy-4" class="cls-8" x1="548.8" y1="186.56" x2="548.8" y2="193.64"/><line id="Path-5-Copy-5-2" data-name="Path-5-Copy-5" class="cls-8" x1="534.44" y1="194.98" x2="534.44" y2="201.89"/><line id="Path-5-Copy-6-2" data-name="Path-5-Copy-6" class="cls-8" x1="541.62" y1="183.1" x2="541.62" y2="190.77"/><line id="Path-5-Copy-7-2" data-name="Path-5-Copy-7" class="cls-8" x1="557.47" y1="174.18" x2="557.47" y2="181.51"/><line id="Path-6-2" data-name="Path-6" class="cls-8" x1="530.94" y1="176.92" x2="541.83" y2="183.36"/><line id="Path-6-Copy-2" data-name="Path-6-Copy" class="cls-8" x1="546.78" y1="168.01" x2="557.68" y2="174.45"/><line id="路径-8-2" data-name="路径-8" class="cls-8" x1="520" y1="184.2" x2="530.62" y2="190.14"/><path id="Path-3-4" data-name="Path-3" class="cls-64" d="M554.77,163.37a5.19,5.19,0,0,1,5.17,0h0l6.17,3.56a4.41,4.41,0,0,1,1.61,1.6,4.48,4.48,0,0,1,.58,2.19h0v25.63l.8,3.53a3.58,3.58,0,0,1-.25,2.21,3.33,3.33,0,0,1-1.37,1.49h0l-34.3,20a3.53,3.53,0,0,1-1.8.49H529a3.64,3.64,0,0,1-1.83-.5h0L519,218.72a2,2,0,0,1-.8-.94,1.91,1.91,0,0,1-.06-1.23h0l.31-1.12.82-3v-26a4.38,4.38,0,0,1,.59-2.19,4.46,4.46,0,0,1,1.6-1.6h0Z"/></g><polygon id="Path-3-5" data-name="Path-3" class="cls-73" points="532.46 224.09 569.76 224.09 569.76 190.03 566.65 190.03 566.65 204.02 532.46 224.09"/></g></g><path id="形状结合-6" data-name="形状结合" class="cls-74" d="M548.8,194.61v5.6l-5.6,3.19v-5.6Zm6.4-3.65v5.6l-5.6,3.19v-5.6Zm-6.4-2.75v5.6L543.2,197v-5.6Zm6.4-3.65v5.6l-5.6,3.19v-5.6Z"/></g><g id="架构图_公共_防火墙-安全服务-Security-3" data-name="架构图/公共/防火墙-安全服务-Security"><g id="防护墙-3" data-name="防护墙"><polygon id="矩形复制-5-3" data-name="矩形复制-5" class="cls-5" points="512 286 576 286 576 350 512 350 512 312.18 512 286"/><g id="墙-3" data-name="墙"><g id="Group-3" data-name="Group"><path id="Fill-29-3" data-name="Fill-29" class="cls-75" d="M530,343.19l2.46,5.68L566.59,329a4.78,4.78,0,0,0,2.28-5.16l-.58-2.67h0Z"/><path id="Path-3-6" data-name="Path" class="cls-76" d="M527.82,349c.07,0,4.57,0,4.64,0l-2.46-5.5Z"/><path id="Path-Copy-5" data-name="Path-Copy" class="cls-58" d="M518.12,342.85s.55-1.83,1.52-5.42c0,0-1.56,3-1.52,3.05Z"/><path id="Path-Copy-6" data-name="Path-Copy" class="cls-59" d="M569.28,327,568,321.61s.42,1,1.33,3.06Z"/><polygon id="Fill-84-3" data-name="Fill-84" class="cls-77" points="530 343.19 527.89 348.75 517.9 342.78 519.47 337.32 530 343.19"/><polygon id="Fill-88-3" data-name="Fill-88" class="cls-78" points="530 343.19 519.47 337.32 519.47 308.8 534.89 305.79 530 343.19"/><path id="Fill-86-3" data-name="Fill-86" class="cls-79" d="M568.12,293.12v28.16L530,343.19v-26a4,4,0,0,1,2-3.47l36.1-20.57Z"/><polygon id="Fill-90-3" data-name="Fill-90" class="cls-80" points="531.32 314.38 520.65 308.36 557.31 286.98 568.12 293.18 531.32 314.38"/><path id="形状-3" data-name="形状" class="cls-8" d="M527.82,349l2.2-5.79,2.43,5.79L530,343.17l38.09-21.89L530,343.17v-6.89l38.4-22.15L530,336.28v-6.86l38.4-22.17L530,329.42v-7l38.4-22.22L530,322.41v-5.12a4,4,0,0,1,2-3.47l35.65-20.4h0m-37.66,29-11-6.23,11,6.23v7l-11-6.35,11,6.35v6.86l-11-6.35,11,6.35v6.89l-10.67-5.93-1.23,4.48,1.23-4.48L530,343.17l38.09-21.89.94,4.13a2.39,2.39,0,0,1-1.23,2.66"/><line id="Path-5-3" data-name="Path-5" class="cls-8" x1="561.18" y1="318.3" x2="561.18" y2="325.18"/><line id="Path-5-Copy-3-3" data-name="Path-5-Copy" class="cls-8" x1="546.32" y1="326.91" x2="546.32" y2="333.83"/><line id="Path-5-Copy-2-4" data-name="Path-5-Copy-2" class="cls-8" x1="541.87" y1="322.46" x2="541.87" y2="329.37"/><line id="Path-5-Copy-8-3" data-name="Path-5-Copy-8" class="cls-8" x1="557.22" y1="313.64" x2="557.22" y2="320.48"/><line id="Path-5-Copy-3-4" data-name="Path-5-Copy-3" class="cls-8" x1="564.15" y1="302.65" x2="564.15" y2="309.83"/><line id="Path-5-Copy-4-3" data-name="Path-5-Copy-4" class="cls-8" x1="548.8" y1="311.56" x2="548.8" y2="318.64"/><line id="Path-5-Copy-5-3" data-name="Path-5-Copy-5" class="cls-8" x1="534.44" y1="319.98" x2="534.44" y2="326.89"/><line id="Path-5-Copy-6-3" data-name="Path-5-Copy-6" class="cls-8" x1="541.62" y1="308.1" x2="541.62" y2="315.77"/><line id="Path-5-Copy-7-3" data-name="Path-5-Copy-7" class="cls-8" x1="557.47" y1="299.18" x2="557.47" y2="306.51"/><line id="Path-6-3" data-name="Path-6" class="cls-8" x1="530.94" y1="301.92" x2="541.83" y2="308.36"/><line id="Path-6-Copy-3" data-name="Path-6-Copy" class="cls-8" x1="546.78" y1="293.01" x2="557.68" y2="299.45"/><line id="路径-8-3" data-name="路径-8" class="cls-8" x1="520" y1="309.2" x2="530.62" y2="315.14"/><path id="Path-3-7" data-name="Path-3" class="cls-64" d="M554.77,288.37a5.19,5.19,0,0,1,5.17,0h0l6.17,3.56a4.41,4.41,0,0,1,1.61,1.6,4.48,4.48,0,0,1,.58,2.19h0v25.63l.8,3.53a3.58,3.58,0,0,1-.25,2.21,3.33,3.33,0,0,1-1.37,1.49h0l-34.3,20a3.53,3.53,0,0,1-1.8.49H529a3.64,3.64,0,0,1-1.83-.5h0L519,343.72a2,2,0,0,1-.8-.94,1.91,1.91,0,0,1-.06-1.23h0l.31-1.12.82-3v-26a4.38,4.38,0,0,1,.59-2.19,4.46,4.46,0,0,1,1.6-1.6h0Z"/></g><polygon id="Path-3-8" data-name="Path-3" class="cls-81" points="532.46 349.09 569.76 349.09 569.76 315.03 566.65 315.03 566.65 329.02 532.46 349.09"/></g></g><path id="形状结合-7" data-name="形状结合" class="cls-82" d="M548.8,319.61v5.6l-5.6,3.19v-5.6Zm6.4-3.65v5.6l-5.6,3.19v-5.6Zm-6.4-2.75v5.6L543.2,322v-5.6Zm6.4-3.65v5.6l-5.6,3.19v-5.6Z"/></g><g id="架构图_基础形_正方形" data-name="架构图/基础形/正方形"><rect id="矩形-13" data-name="矩形" class="cls-5" x="138" y="296" width="58" height="58"/><g id="服务器"><g id="Fill-1-5" data-name="Fill-1"><path class="cls-83" d="M192.24,313.48c2.54,1.49,2.55,3.93,0,5.41L171.69,331a10.11,10.11,0,0,1-9.24,0L141.73,318.9c-2.54-1.49-2.57-3.93,0-5.42l20.59-12.11a10,10,0,0,1,9.23,0Z"/><path id="Fill-4" class="cls-84" d="M193.74,317.07l-.07.11a3.1,3.1,0,0,1-.52.58,3,3,0,0,1-.44.33,4.33,4.33,0,0,1-.41.3l-20.58,12.12a7.89,7.89,0,0,1-1.29.57,4.58,4.58,0,0,1-.49.15l-.66.17-.79.14-.2,0c-.36,0-.73.06-1.09.07H167c-.36,0-.72,0-1.08-.06l-.16,0a9.38,9.38,0,0,1-1.06-.18l-.18-.05a8.54,8.54,0,0,1-.9-.27l-.17-.06a7.52,7.52,0,0,1-1-.47L141.76,318.4a3.32,3.32,0,0,1-1.92-2.73l0,19.55a3.32,3.32,0,0,0,1.92,2.73l20.72,12.12a7.39,7.39,0,0,0,.94.45l.22.08.57.19.33.08.18.05.16,0,.65.11.25,0,.16,0,.22,0,.65,0h.67l.72-.05.3,0L169,351l.24-.06.66-.17.34-.08.15-.07a7.42,7.42,0,0,0,1.28-.57l20.59-12.12a2.42,2.42,0,0,0,.41-.3,3.88,3.88,0,0,0,.44-.33,3.83,3.83,0,0,0,.45-.47l.07-.11a.41.41,0,0,0,.07-.11l.12-.17a3.17,3.17,0,0,0,.17-.38,1.19,1.19,0,0,0,0-.14,1.55,1.55,0,0,0,.07-.23,2.58,2.58,0,0,0,0-.38s0-6.55,0-19.61a2.24,2.24,0,0,1-.11.67A2.61,2.61,0,0,1,193.74,317.07Z"/></g><path id="Fill-1-6" data-name="Fill-1" class="cls-85" d="M194.63,325.45c.06,1-1,2-2.36,2.77l-20.58,12.12a10.11,10.11,0,0,1-9.24,0l-20.72-12.12c-1.33-.78-2.46-2.2-2.39-3.23"/><polygon id="Rectangle-Copy" class="cls-10" points="188.63 333.83 186.77 334.92 186.77 338.02 188.63 336.94 188.63 333.83"/><polygon id="Rectangle-Copy-3" class="cls-86" points="185.54 335.7 183.68 336.78 183.68 339.89 185.54 338.81 185.54 335.7"/><polygon id="Rectangle-Copy-2" class="cls-10" points="191.72 331.97 189.86 333.05 189.86 336.16 191.72 335.08 191.72 331.97"/><path id="Path-2-6" data-name="Path-2" class="cls-87" d="M162.86,300.5a10.41,10.41,0,0,1,8.06,0c.59.31,4,2.27,7.68,4.42l.62.36.62.37.94.54,3.86,2.25,4.33,2.51.68.4a28.43,28.43,0,0,1,3.67,2.32,2.88,2.88,0,0,1,1.31,1.94h0v19.28c0,.08,0,.16,0,.24v.23c0,1-.27,1.69-2.3,3.15L183,344l-.78.47-9.77,5.74a10.61,10.61,0,0,1-5.74,1.47,11.33,11.33,0,0,1-5.76-1.85c-.35-.22-3.08-1.81-6.12-3.57l-.55-.32-.68-.4-.52-.3-.52-.3c-3.36-1.94-6.49-3.75-6.7-3.86a16.27,16.27,0,0,1-4.81-3.57,6.34,6.34,0,0,1-1.75-4.14h0V316.18a3.4,3.4,0,0,1,1.16-2.54c.35-.26,5-3,9.93-5.9l.6-.35.9-.53h0l.74-.43.75-.44C158,303.32,162.14,300.89,162.86,300.5Z"/></g><path id="形状结合-8" data-name="形状结合" class="cls-88" d="M167.91,306v0c6.63.29,12,3.75,12.62,8.14h.06V315h0c0,4.8-5.6,8.73-12.68,9v0H167c-7.51,0-13.59-4-13.59-9.06v-.91h.06C154.15,309.55,160,306,167,306ZM159.75,315h-4.53c0,4.34,5.27,7.86,11.78,7.86v-3.33h0C163,319.56,159.75,317.53,159.75,315Zm19,0h-4.53c0,2.31-2.77,4.22-6.34,4.5v3.33C174,322.55,178.78,319.17,178.78,315ZM167,315h-5.48c0,1.89,2.45,3.42,5.48,3.42Zm5.48,0h-4.57v3.38C170.5,318.14,172.48,316.73,172.48,315ZM167,307.18c-6.05,0-11,3-11.7,6.94h4.59c.68-2.07,3.6-3.63,7.11-3.63v-3.32Zm.91,0v3.34c3.09.24,5.58,1.7,6.2,3.59h4.59C178.06,310.41,173.54,307.49,167.91,307.2Zm-.91,4.41c-2.52,0-4.65,1.06-5.28,2.52H167v-2.51Zm.91,0v2.47h4.37C171.73,312.85,170,311.87,167.91,311.65Z"/></g><g id="内容分发网络-CDN复制-4"><g id="圆模版-2" data-name="圆模版"><rect id="矩形-14" data-name="矩形" class="cls-5" x="138" y="198.5" width="58" height="58"/><g id="网络-2" data-name="网络"><ellipse id="Oval-2-3" data-name="Oval-2" class="cls-89" cx="166.84" cy="218.2" rx="27.03" ry="15.17"/><path id="Combined-Shape-7" data-name="Combined-Shape" class="cls-90" d="M193.87,215.73v20h0c-.83,8.12-12.59,14.55-27,14.55s-26.16-6.43-27-14.55h-.05v-20h.05c0,.3-.05.61-.05.91,0,8.54,12.1,15.47,27,15.47s27-6.93,27-15.47c0-.3,0-.61,0-.91Z"/><path id="Oval-2-4" data-name="Oval-2" class="cls-91" d="M140.52,227.73c0,8.18,11.79,14.81,26.32,14.81s26.32-6.63,26.32-14.81"/><path id="Combined-Shape-8" data-name="Combined-Shape" class="cls-92" d="M166.84,203.59a39.85,39.85,0,0,1,18.28,4c4.65,2.45,7.74,5.82,8.15,9.64h0l0,19.48c-.43,3.82-3.53,7.2-8.19,9.64a43.28,43.28,0,0,1-36.56,0c-4.64-2.45-7.73-5.82-8.14-9.64h0l0-19.48c.43-3.82,3.54-7.19,8.19-9.64A39.91,39.91,0,0,1,166.84,203.59Z"/><polygon id="Rectangle-5" data-name="Rectangle" class="cls-10" points="144.08 228.4 146.21 230.08 146.21 234.05 144.08 232.36 144.08 228.4"/><polygon id="Rectangle-6" data-name="Rectangle" class="cls-11" points="148.35 231.25 150.48 232.94 150.48 236.9 148.35 235.22 148.35 231.25"/></g></g><path id="形状结合-9" data-name="形状结合" class="cls-93" d="M167,208.47c3.19,0,5.77,1.82,5.77,4.08,0,1.53-1.2,2.87-3,3.57,3.64.82,6.27,3.21,6.27,6,0,3.51-18.12,3.51-18.12,0,0-2.82,2.63-5.21,6.27-6-1.78-.7-3-2-3-3.57C161.23,210.29,163.81,208.47,167,208.47Zm0,8.49c-4.1,0-7.41,2.33-7.41,5.19,0,.23.51.57,1.75.89a27.44,27.44,0,0,0,11.32,0c1.24-.32,1.75-.66,1.75-.89C174.41,219.29,171.1,217,167,217Zm0-7.33c-2.28,0-4.12,1.31-4.12,2.92s1.84,2.91,4.12,2.91,4.12-1.3,4.12-2.91S169.28,209.63,167,209.63Z"/></g></g></svg>