<?xml version="1.0" encoding="UTF-8"?>
<svg width="20px" height="20px" viewBox="0 0 20 20" version="1.1" xmlns="http://www.w3.org/2000/svg" xmlns:xlink="http://www.w3.org/1999/xlink">
    <title>定制</title>
    <defs>
        <filter id="filter-1">
            <feColorMatrix in="SourceGraphic" type="matrix" values="0 0 0 0 0.811765 0 0 0 0 0.000000 0 0 0 0 0.062745 0 0 0 1.000000 0"></feColorMatrix>
        </filter>
    </defs>
    <g id="页面-1" stroke="none" stroke-width="1" fill="none" fill-rule="evenodd">
        <g id="SDSF-企业场景" transform="translate(-1011.000000, -1610.000000)">
            <g id="编组-8" transform="translate(360.000000, 725.000000)">
                <g id="域名注册备份-3" transform="translate(1.000000, 288.000000)">
                    <g id="定制" transform="translate(650.000000, 592.000000)" filter="url(#filter-1)">
                        <g transform="translate(0.000000, 5.000000)">
                            <rect id="矩形" fill="#000000" fill-rule="nonzero" opacity="0" x="0" y="0" width="20" height="20"></rect>
                            <path d="M16.1666667,10 L19.25,6.91666666 C20.0833333,6.08333332 20.0833333,4.75 19.25,4 L16,0.75 C15.25,-6.9388939e-16 13.8333333,-6.9388939e-16 13.0833333,0.75 L10,3.83333334 L6.91666666,0.75 C6.16666666,-6.9388939e-16 4.75,-6.9388939e-16 4,0.75 L0.75,4 C-0.0833333398,4.83333334 -0.0833333398,6.16666666 0.75,6.91666666 L3.83333334,10 L2.5,11.25 C2.25,11.5 2.08333334,11.75 2,12.0833333 L0.16666666,17.1666667 C-0.0833333398,17.8333333 0.0833333203,18.5 0.41666666,19 C0.83333332,19.5 1.41666666,19.8333333 2.08333334,19.8333333 C2.33333334,19.8333333 2.5,19.8333333 2.75,19.75 L7.83333334,17.9166667 C8.16666668,17.8333333 8.41666668,17.6666667 8.66666666,17.4166667 L9.91666666,16.1666667 L13,19.25 C13.4166667,19.6666667 13.9166667,19.8333333 14.5,19.8333333 C15.0833333,19.8333333 15.5833333,19.5833333 16,19.25 L19.25,16 C20.0833333,15.1666667 20.0833333,13.8333333 19.25,13.0833333 L16.1666667,10 Z M14.5833333,1.75 C14.6666667,1.75 14.8333333,1.83333334 14.9166667,1.83333334 L18.1666667,5.08333334 C18.3333333,5.25 18.3333333,5.5 18.1666667,5.66666666 L17,6.83333334 L13.1666667,3 L14.3333333,1.83333334 C14.3333333,1.83333334 14.4166667,1.75 14.5833333,1.75 Z M3.91666666,7.75 L5.41666666,6.25 C5.66666666,6 5.66666666,5.58333334 5.41666666,5.33333334 C5.16666666,5.08333334 4.75,5.08333334 4.5,5.33333334 L3,6.83333334 L1.91666666,5.75 C1.75,5.58333334 1.75,5.33333334 1.91666666,5.16666666 L5.16666666,1.91666666 C5.25,1.83333334 5.33333332,1.83333334 5.5,1.83333334 C5.66666668,1.83333334 5.75,1.91666668 5.83333334,1.91666666 L8.83333334,5 L5,8.83333334 L3.91666666,7.75 Z M7.58333334,16.3333333 C7.58333334,16.3333333 7.5,16.4166667 7.41666666,16.4166667 L2.33333334,18.25 C2.16666668,18.3333333 2,18.25 1.91666666,18.0833333 C1.83333334,18 1.83333334,17.9166667 1.83333334,17.75 L3.66666666,12.6666667 C3.66666666,12.5833333 3.75,12.5833333 3.75,12.5 L5.58333334,10.6666667 L10.5833333,5.66666666 L12.25,4 L16.0833333,7.83333334 L14.4166667,9.5 L9.41666666,14.5 L7.58333334,16.3333333 Z M18.0833333,14.8333333 L14.8333333,18.0833333 C14.6666667,18.25 14.4166667,18.25 14.25,18.0833333 L13.1666667,17 L14.6666667,15.5 C14.9166667,15.25 14.9166667,14.8333333 14.6666667,14.5833333 C14.4166667,14.3333333 14,14.3333333 13.75,14.5833333 L12.25,16.0833333 L11.1666667,15 L15,11.1666667 L18.0833333,14.25 C18.25,14.4166667 18.25,14.6666667 18.0833333,14.8333333 Z" id="形状" fill="#000000" fill-rule="nonzero"></path>
                        </g>
                    </g>
                </g>
            </g>
        </g>
    </g>
</svg>