<?xml version="1.0" encoding="UTF-8"?>
<svg width="60px" height="60px" viewBox="0 0 60 60" version="1.1" xmlns="http://www.w3.org/2000/svg" xmlns:xlink="http://www.w3.org/1999/xlink">
    <title>不可控</title>
    <g id="页面-1" stroke="none" stroke-width="1" fill="none" fill-rule="evenodd">
        <g id="SDSF-企业场景" transform="translate(-360.000000, -868.000000)" fill-rule="nonzero">
            <g id="编组-8" transform="translate(360.000000, 725.000000)">
                <g id="不可控" transform="translate(0.000000, 143.000000)">
                    <rect id="矩形" fill="#000000" opacity="0" x="0" y="0" width="60" height="60"></rect>
                    <g id="密码" transform="translate(3.000000, 4.000000)">
                        <rect id="矩形" fill="#000000" opacity="0" x="0" y="0" width="53" height="53"></rect>
                        <path d="M39.7085937,44.8429687 L13.9125,44.8429687 C11.1952148,44.8429687 8.99033203,42.6329102 8.99033203,39.9208008 L8.99033203,25.2836914 C8.99033203,22.5664062 11.2003906,20.3615234 13.9125,20.3615234 L39.7137695,20.3615234 C42.4310547,20.3615234 44.6359375,22.571582 44.6359375,25.2836914 L44.6359375,39.9208008 C44.6307617,42.6380859 42.4258789,44.8429687 39.7085937,44.8429687 Z M13.9125,23.9845703 C13.1930664,23.9845703 12.6133789,24.5694336 12.6133789,25.2836914 L12.6133789,39.9208008 C12.6133789,40.6402344 13.1982422,41.2199219 13.9125,41.2199219 L39.7137695,41.2199219 C40.4332031,41.2199219 41.0128906,40.6350586 41.0128906,39.9208008 L41.0128906,25.2836914 C41.0128906,24.5642578 40.4280273,23.9845703 39.7137695,23.9845703 L13.9125,23.9845703 Z" id="形状" fill="#3C3C3C"></path>
                        <path d="M20.9826172,23.8862305 C19.9836914,23.8862305 19.1710938,23.0736328 19.1710938,22.074707 L19.1710938,11.878418 C19.1710938,10.7863281 19.7352539,9.68388672 20.7238281,8.85576172 C21.6606445,8.06904297 22.8458984,7.63945312 24.0570313,7.63945312 L29.5640625,7.63945312 C32.2554687,7.63945312 34.45,9.75634766 34.45,12.3597656 L34.45,15.4859375 C34.45,16.4848633 33.6374023,17.2974609 32.6384766,17.2974609 C31.6395508,17.2974609 30.8269531,16.4848633 30.8269531,15.4859375 L30.8269531,12.3597656 C30.8269531,11.7645508 30.2472656,11.2625 29.5640625,11.2625 L24.0570313,11.2625 C23.3841797,11.2625 22.8873047,11.712793 22.7941406,11.9301758 L22.7941406,22.0695312 C22.7941406,23.0788086 21.9867188,23.8862305 20.9826172,23.8862305 Z" id="路径" fill="#3C3C3C"></path>
                        <path d="M26.8105469,32.6125977 C25.5787109,32.6125977 24.5797852,31.6447266 24.5797852,30.4542969 C24.5797852,29.2638672 25.5787109,28.2959961 26.8105469,28.2959961 C28.0423828,28.2959961 29.0413086,29.2638672 29.0413086,30.4542969 C29.0413086,31.6447266 28.0423828,32.6125977 26.8105469,32.6125977 Z M26.8105469,29.1862305 C26.1532227,29.1862305 25.6149414,29.7555664 25.6149414,30.4542969 C25.6149414,31.1530273 26.1532227,31.7223633 26.8105469,31.7223633 C27.4678711,31.7223633 28.0061523,31.1530273 28.0061523,30.4542969 C28.0061523,29.7555664 27.4678711,29.1862305 26.8105469,29.1862305 Z" id="形状" fill="#CF0010"></path>
                        <path d="M26.8105469,37.9333008 C26.1014648,37.9333008 25.5269531,37.3587891 25.5269531,36.649707 L25.5269531,30.097168 C25.5269531,29.3880859 26.1014648,28.8135742 26.8105469,28.8135742 C27.5196289,28.8135742 28.0941406,29.3880859 28.0941406,30.097168 L28.0941406,36.6548828 C28.0941406,37.3587891 27.5196289,37.9333008 26.8105469,37.9333008 L26.8105469,37.9333008 Z" id="路径" fill="#CF0010"></path>
                    </g>
                </g>
            </g>
        </g>
    </g>
</svg>