<?xml version="1.0" encoding="UTF-8"?>
<svg width="20px" height="20px" viewBox="0 0 20 20" version="1.1" xmlns="http://www.w3.org/2000/svg" xmlns:xlink="http://www.w3.org/1999/xlink">
    <title>对勾</title>
    <g id="页面-1" stroke="none" stroke-width="1" fill="none" fill-rule="evenodd">
        <g id="SDSF-企业场景" transform="translate(-1012.000000, -1458.000000)" fill-rule="nonzero">
            <g id="编组-8" transform="translate(360.000000, 725.000000)">
                <g id="域名注册备份-3" transform="translate(1.000000, 288.000000)">
                    <g id="编组-5备份-2" transform="translate(651.000000, 440.000000)">
                        <g id="对勾" transform="translate(0.000000, 5.000000)">
                            <rect id="矩形" fill="#000000" opacity="0" x="0" y="0" width="20" height="20"></rect>
                            <path d="M16.3166669,6.18333334 C16.3168427,6.40543525 16.2283497,6.61841817 16.0708333,6.775 L8.43333334,14.4125 C8.17916666,14.6666667 7.91666666,15 7.5,14.5833333 L3.55,10.5333333 C3.22454848,10.2206882 3.19026235,9.71180981 3.47083334,9.35833334 C3.62262927,9.18317549 3.840517,9.0791509 4.07216279,9.0712449 C4.30380858,9.0633389 4.52828169,9.15226584 4.69166666,9.31666666 L7.8375,12.4625 C7.86262007,12.4884684 7.89720331,12.5031308 7.93333333,12.5031308 C7.96946335,12.5031308 8.00404659,12.4884684 8.02916666,12.4625 L14.9208333,5.56666666 C15.1099537,5.36738575 15.3928977,5.28745806 15.6583333,5.35833334 C16.0400681,5.45129163 16.3107399,5.79048785 16.3166669,6.18333334 L16.3166669,6.18333334 Z" id="路径" fill="#CF0010"></path>
                        </g>
                    </g>
                </g>
            </g>
        </g>
    </g>
</svg>