<?xml version="1.0" encoding="UTF-8"?>
<svg width="20px" height="20px" viewBox="0 0 20 20" version="1.1" xmlns="http://www.w3.org/2000/svg" xmlns:xlink="http://www.w3.org/1999/xlink">
    <title>cfw 云防火墙</title>
    <defs>
        <filter id="filter-1">
            <feColorMatrix in="SourceGraphic" type="matrix" values="0 0 0 0 0.811765 0 0 0 0 0.000000 0 0 0 0 0.062745 0 0 0 1.000000 0"></feColorMatrix>
        </filter>
    </defs>
    <g id="页面-1" stroke="none" stroke-width="1" fill="none" fill-rule="evenodd">
        <g id="SDSF-企业场景" transform="translate(-1011.000000, -1610.000000)">
            <g id="编组-8" transform="translate(360.000000, 725.000000)">
                <g id="域名注册备份-3" transform="translate(1.000000, 288.000000)">
                    <g id="cfw-云防火墙" transform="translate(650.000000, 592.000000)" filter="url(#filter-1)">
                        <g transform="translate(0.000000, 5.000000)">
                            <rect id="矩形" fill="#000000" fill-rule="nonzero" opacity="0" x="0" y="0" width="20" height="20"></rect>
                            <path d="M15,11.75 L19.17,11.75 L19.17,11.04 C19.17,10.79 18.96,10.58 18.71,10.58 L15,10.58 L15,11.75 Z M14.54,11.75 L14.54,10.58 L7.71,10.58 C7.46,10.58 7.25,10.79 7.25,11.04 L7.25,11.75 L14.54,11.75 Z M11.83,15.29 L11.83,16.46 L18.66,16.46 C18.91,16.46 19.12,16.25 19.12,16 L19.12,15.29 L11.83,15.29 Z M7.21,16 C7.21,16.25 7.42,16.46 7.67,16.46 L11.34,16.46 L11.34,15.29 L7.17,15.29 L7.21,16 Z M7.21,12.83 L19.17,12.83 L19.17,14 L7.21,14 L7.21,12.83 L7.21,12.83 Z" id="形状" fill="#FF6A00" fill-rule="nonzero"></path>
                            <path d="M4.79,8.62 L5.17,8.54 L5.29,8.16 C5.79,6.66 7.08,5.45 8.62,4.91 C10.87,4.12 13.29,4.99 14.58,6.87 C14.79,7.2 15,7.45 15.12,7.7 L13.62,7.08 C13.29,6.96 12.95,7.04 12.83,7.33 C12.71,7.66 12.83,8 13.16,8.16 L15.74,9.24 C16.03,9.36 16.41,9.24 16.53,8.91 L17.86,6.45 C18.03,6.16 17.99,5.78 17.65,5.62 C17.36,5.45 16.98,5.58 16.82,5.87 L16.07,7.2 C15.36,5.7 14.15,4.53 12.65,3.91 C9.36,2.58 5.57,4.16 4.19,7.45 C2.11,7.95 0.65,9.83 0.69,11.95 C0.73,14.45 2.81,16.45 5.31,16.37 C5.64,16.37 5.93,16.08 5.93,15.75 C5.93,15.42 5.6,15.13 5.1,15.08 C3.52,15.08 2.18,13.96 1.89,12.37 C1.75,10.71 3.04,8.96 4.79,8.62 L4.79,8.62 Z" id="路径" fill="#FF6A00" fill-rule="nonzero"></path>
                        </g>
                    </g>
                </g>
            </g>
        </g>
    </g>
</svg>