<?xml version="1.0" encoding="UTF-8"?>
<svg width="20px" height="20px" viewBox="0 0 20 20" version="1.1" xmlns="http://www.w3.org/2000/svg" xmlns:xlink="http://www.w3.org/1999/xlink">
    <title>防护</title>
    <defs>
        <filter id="filter-1">
            <feColorMatrix in="SourceGraphic" type="matrix" values="0 0 0 0 0.811765 0 0 0 0 0.000000 0 0 0 0 0.062745 0 0 0 1.000000 0"></feColorMatrix>
        </filter>
    </defs>
    <g id="页面-1" stroke="none" stroke-width="1" fill="none" fill-rule="evenodd">
        <g id="SDSF-企业场景" transform="translate(-1011.000000, -1610.000000)">
            <g id="编组-8" transform="translate(360.000000, 725.000000)">
                <g id="域名注册备份-3" transform="translate(1.000000, 288.000000)">
                    <g id="防护" transform="translate(650.000000, 592.000000)" filter="url(#filter-1)">
                        <g transform="translate(0.000000, 5.000000)">
                            <rect id="矩形" fill="#000000" fill-rule="nonzero" opacity="0" x="0" y="0" width="20" height="20"></rect>
                            <path d="M18.2271533,2.02606629 L10.2396258,0.0291844336 C10.0822444,-0.00972429172 9.91775558,-0.00972429172 9.76037418,0.0291844336 L1.7728467,2.02606629 C1.31637619,2.13870593 1.00033934,2.55454389 1.01403158,3.02450723 L1.01403158,4.59205949 C0.995259822,10.8002283 4.19600139,16.5744114 9.47082631,19.848237 C9.79459154,20.0505908 10.2054085,20.0505908 10.5291737,19.848237 C15.8039986,16.5744114 19.0047402,10.8002283 18.9859684,4.59205949 L18.9859684,3.02450723 C18.9996607,2.55454389 18.6836238,2.13870593 18.2271533,2.02606629 L18.2271533,2.02606629 Z M16.9891599,4.59205949 C17.005137,9.88719641 14.3849498,14.8430934 10,17.8114175 C5.61505019,14.8430934 2.99486295,9.88719641 3.01084014,4.59205949 L3.01084014,3.80329115 L10,2.02606629 L16.9891599,3.77333793 L16.9891599,4.59205949 Z" id="形状" fill="#3E4055" fill-rule="nonzero"></path>
                            <path d="M8.23275955,8.01671191 C8.01074151,7.69718298 7.62332426,7.53573523 7.2401005,7.60304275 C6.85687675,7.67035027 6.54766077,7.95415123 6.44781251,8.33021117 C6.34796426,8.7062711 6.47567371,9.10608081 6.77503578,9.35462275 L9.00155906,11.7009589 C9.19005869,11.8993799 9.45174463,12.0117248 9.72542874,12.0117248 C9.99911285,12.0117248 10.2607988,11.8993799 10.4492984,11.7009589 L14.2234052,7.70719521 C14.4989898,7.45458269 14.6103653,7.06918151 14.5120122,6.70850627 C14.4136591,6.34783103 14.1220579,6.07231819 13.7563869,5.99457066 C13.3907159,5.91682313 13.0122486,6.04986865 12.7756658,6.33933113 L9.72043654,9.55431094 L8.23275955,8.01671191 Z" id="路径" fill="#3E4055" fill-rule="nonzero"></path>
                        </g>
                    </g>
                </g>
            </g>
        </g>
    </g>
</svg>