<?xml version="1.0" encoding="UTF-8"?>
<svg width="20px" height="20px" viewBox="0 0 20 20" version="1.1" xmlns="http://www.w3.org/2000/svg" xmlns:xlink="http://www.w3.org/1999/xlink">
    <title>弹性云服务器</title>
    <g id="页面-1" stroke="none" stroke-width="1" fill="none" fill-rule="evenodd">
        <g id="SDSF-企业场景" transform="translate(-1011.000000, -1610.000000)" fill-rule="nonzero">
            <g id="编组-8" transform="translate(360.000000, 725.000000)">
                <g id="域名注册备份-3" transform="translate(1.000000, 288.000000)">
                    <g id="编组-5备份-3" transform="translate(650.000000, 592.000000)">
                        <g id="弹性云服务器" transform="translate(0.000000, 5.000000)">
                            <rect id="矩形" fill="#000000" opacity="0" x="0" y="0" width="20" height="20"></rect>
                            <path d="M16.875,2.70833334 L16.875,17.7083333 L3.125,17.7083333 L3.125,2.70833334 L16.875,2.70833334 Z M15.625,13.125 L4.375,13.125 L4.375,16.4583333 L15.625,16.4583333 L15.625,13.125 Z M13.75,14.1666667 L13.75,15.4166667 L11.25,15.4166667 L11.25,14.1666667 L13.75,14.1666667 Z M15.625,8.54166666 L4.375,8.54166666 L4.375,11.875 L15.625,11.875 L15.625,8.54166666 Z M13.75,9.58333334 L13.75,10.8333333 L11.25,10.8333333 L11.25,9.58333334 L13.75,9.58333334 L13.75,9.58333334 Z M15.625,3.95833334 L4.375,3.95833334 L4.375,7.29166666 L15.625,7.29166666 L15.625,3.95833334 Z M13.75,5 L13.75,6.25 L11.25,6.25 L11.25,5 L13.75,5 Z" id="形状" fill="#CF0010"></path>
                        </g>
                    </g>
                </g>
            </g>
        </g>
    </g>
</svg>