<?xml version="1.0" encoding="UTF-8"?>
<svg width="60px" height="60px" viewBox="0 0 60 60" version="1.1" xmlns="http://www.w3.org/2000/svg" xmlns:xlink="http://www.w3.org/1999/xlink">
    <title>统一管理</title>
    <g id="页面-1" stroke="none" stroke-width="1" fill="none" fill-rule="evenodd">
        <g id="SDSF-产品中心（终端安全防护）" transform="translate(-1000.000000, -725.000000)" fill-rule="nonzero">
            <g id="产品优势" transform="translate(360.000000, 625.000000)">
                <g id="编组-6备份-6" transform="translate(610.000000, 100.000000)">
                    <g id="统一管理" transform="translate(30.000000, 0.000000)">
                        <rect id="矩形" fill="#000000" opacity="0" x="0" y="0" width="60" height="60"></rect>
                        <g id="专题活动" transform="translate(5.000000, 5.000000)">
                            <rect id="矩形" fill="#000000" opacity="0" x="0" y="0" width="50" height="50"></rect>
                            <path d="M32.9384615,4.1730769 C34.0375466,3.75033952 35.2522016,3.73804959 36.3596154,4.13846152 L36.7211539,4.28653848 L46.1346154,8.60576924 L46.3403846,8.70769229 C47.3211539,9.23653843 47.9634615,10.1826923 48.0634615,11.2365385 L48.0769231,11.5269231 L48.0769231,41.825 L48.0692308,41.9826923 C47.9846154,42.9211538 47.1461539,43.6596154 46.1230769,43.6596154 C45.8961538,43.6596154 45.6730769,43.6211539 45.4615385,43.55 L45.2538461,43.4673077 L39.3403846,40.7038461 L39.0346154,40.5692308 C37.1141962,39.7676536 34.9675342,39.6931357 32.9961539,40.3596154 L32.5480769,40.5269231 L19.5096154,45.8 L19.2480769,45.8980769 C18.2995561,46.2170707 17.2760854,46.2378757 16.3153846,45.9576923 L15.9596154,45.8384615 L4.09038462,41.3461539 L3.88653848,41.2615385 C2.78461538,40.7653846 2.04423076,39.7596154 1.93653848,38.6192308 L1.9230769,38.3269231 L1.9230769,9.58269229 L1.92884614,9.39038462 C2.03461538,7.68461538 3.54038462,6.33076924 5.38461538,6.33076924 C5.73461538,6.33076924 6.08076924,6.38076924 6.41346152,6.4769231 L6.74038462,6.59230771 L14.9557692,9.8769231 L15.2634615,9.99230771 C16.8826923,10.5557692 18.6653846,10.5307692 20.2615385,9.925 L20.6903846,9.74615386 L32.6807692,4.28076924 L32.9384615,4.1730769 Z M35.1173077,7.78269229 C34.9346478,7.7010212 34.7334336,7.66980977 34.5346154,7.69230771 L34.4307692,7.71730771 L34.2538461,7.79038462 L22.2865385,13.2461539 C19.8203801,14.3611754 17.0339182,14.5456188 14.4423077,13.7653846 L13.9192308,13.5961539 L13.5269231,13.4480769 L5.76923076,10.3423077 L5.76923076,37.8673077 L17.3230769,42.2423077 C17.4961538,42.3076923 17.6942308,42.325 17.825,42.3096154 L17.9115385,42.2903846 L18.0692308,42.2346154 L31.1057692,36.9615385 C33.9679764,35.8121986 37.1553221,35.7683298 40.0480769,36.8384615 L40.5942308,37.05 L40.9692308,37.2192308 L44.2307692,38.7442308 L44.2307692,11.9634615 L35.1173077,7.78269229 Z" id="形状" fill="#3C3C3C"></path>
                            <polygon id="路径" fill="#3C3C3C" points="17.3076923 19.2307692 21.1538461 19.2307692 21.1538461 34.6153846 17.3076923 34.6153846"></polygon>
                            <polygon id="路径" fill="#CF0010" points="30.7692308 15.3846154 34.6153846 15.3846154 34.6153846 30.7692308 30.7692308 30.7692308"></polygon>
                        </g>
                    </g>
                </g>
            </g>
        </g>
    </g>
</svg>