<?xml version="1.0" encoding="UTF-8"?>
<svg width="60px" height="60px" viewBox="0 0 60 60" version="1.1" xmlns="http://www.w3.org/2000/svg" xmlns:xlink="http://www.w3.org/1999/xlink">
    <title>实时响应</title>
    <g id="页面-1" stroke="none" stroke-width="1" fill="none" fill-rule="evenodd">
        <g id="SDSF-产品中心（终端安全防护）" transform="translate(-1000.000000, -893.000000)" fill-rule="nonzero">
            <g id="产品优势" transform="translate(360.000000, 625.000000)">
                <g id="编组-6备份-8" transform="translate(610.000000, 268.000000)">
                    <g id="实时响应" transform="translate(30.000000, 0.000000)">
                        <rect id="矩形" fill="#000000" opacity="0" x="0" y="0" width="60" height="60"></rect>
                        <g id="秒杀" transform="translate(5.000000, 5.000000)">
                            <rect id="矩形" fill="#000000" opacity="0" x="0" y="0" width="50" height="50"></rect>
                            <path d="M25,5.76923076 C13.3173077,5.76923076 3.84615386,15.2403846 3.84615386,26.9230769 C3.84615386,38.6057692 13.3173077,48.0769231 25,48.0769231 C36.6826923,48.0769231 46.1538461,38.6057692 46.1538461,26.9230769 C46.1538461,15.2403846 36.6826923,5.76923076 25,5.76923076 Z M25,9.61538462 C34.5587745,9.61538462 42.3076923,17.3643024 42.3076923,26.9230769 C42.3076923,36.4818514 34.5587745,44.2307692 25,44.2307692 C15.4412255,44.2307692 7.69230769,36.4818514 7.69230769,26.9230769 C7.69230769,17.3643024 15.4412255,9.61538462 25,9.61538462 L25,9.61538462 Z" id="形状" fill="#3C3C3C"></path>
                            <path d="M25.3403846,34.2653846 L30.6538461,25.0884615 C30.8622195,24.7283937 30.7828465,24.2707841 30.4653846,24.0019231 C30.3578593,23.9172549 30.2253138,23.8705935 30.0884615,23.8692308 L25.9096154,23.8692308 L25.9096154,18.0923077 C25.9096154,17.6596154 25.6019231,17.3076923 25.2269231,17.3076923 C24.9886838,17.3139996 24.7721308,17.4476018 24.6596154,17.6576923 L19.3461539,26.8346154 C19.1377805,27.1946832 19.2171535,27.6522928 19.5346154,27.9211539 C19.6421407,28.0058221 19.7746862,28.0524835 19.9115385,28.0538461 L24.0903846,28.0538461 L24.0903846,33.8307692 C24.0903846,34.2634615 24.3980769,34.6153846 24.7730769,34.6153846 C25,34.6153846 25.2153846,34.4846154 25.3403846,34.2653846 Z" id="路径" fill="#CF0010"></path>
                            <path d="M17.5980769,1.03076924 C18.6192726,0.738695584 19.6838878,1.3297658 19.9759615,2.35096153 C20.2680352,3.37215726 19.676965,4.43677246 18.6557692,4.72884614 C14.6620712,5.87155922 11.0510141,8.0714139 8.20384614,11.0961539 C7.4721979,11.8534089 6.26760666,11.8814497 5.50151488,11.1590594 C4.7354231,10.436669 4.69274352,9.23250758 5.40576924,8.45769229 C8.72778791,4.92941538 12.9407719,2.3634882 17.6,1.03076924 L17.5980769,1.03076924 Z M33.2211539,1.03076924 C32.1999581,0.738695565 31.1353429,1.32976578 30.8432692,2.35096152 C30.5511956,3.37215726 31.1422658,4.43677247 32.1634615,4.72884614 C36.1571595,5.87155922 39.7682167,8.0714139 42.6153846,11.0961539 C43.0843968,11.6058098 43.7912414,11.8238846 44.4658739,11.6670645 C45.1405065,11.5102444 45.6786926,11.0027589 45.8748226,10.3384888 C46.0709526,9.67421878 45.8947232,8.95579756 45.4134615,8.45769229 C42.0919747,4.92970868 37.8796905,2.36380305 33.2211539,1.03076924 L33.2211539,1.03076924 Z" id="形状" fill="#3C3C3C"></path>
                        </g>
                    </g>
                </g>
            </g>
        </g>
    </g>
</svg>