<?xml version="1.0" encoding="UTF-8"?>
<svg width="60px" height="60px" viewBox="0 0 60 60" version="1.1" xmlns="http://www.w3.org/2000/svg" xmlns:xlink="http://www.w3.org/1999/xlink">
    <title>可视化编辑器</title>
    <g id="页面-1" stroke="none" stroke-width="1" fill="none" fill-rule="evenodd">
        <g id="SDSF-产品中心（数据可视化）" transform="translate(-382.000000, -870.000000)" fill-rule="nonzero">
            <g id="编组-10" transform="translate(382.000000, 625.000000)">
                <g id="可视化编辑器" transform="translate(0.000000, 245.000000)">
                    <rect id="矩形" fill="#000000" opacity="0" x="0" y="0" width="60" height="60"></rect>
                    <g id="数据" transform="translate(3.000000, 4.000000)">
                        <rect id="矩形" fill="#000000" opacity="0" x="0" y="0" width="53" height="53"></rect>
                        <path d="M42.3378906,7.42062109 L10.6621094,7.42062109 C7.57491113,7.42062109 5.07226562,9.9232666 5.07226562,13.0104648 L5.07226562,34.0758945 C5.07226562,37.1630928 7.57491113,39.6657383 10.6621094,39.6657383 L42.3378906,39.6657383 C45.4250889,39.6657383 47.9277344,37.1630928 47.9277344,34.0758945 L47.9277344,13.0104648 C47.9277344,9.9232666 45.4250889,7.42062109 42.3378906,7.42062109 Z M10.6621094,10.5260898 L42.3378906,10.5260898 C43.7099902,10.5260898 44.8222656,11.6383652 44.8222656,13.0104648 L44.8222656,34.0758945 C44.8222656,35.4479941 43.7099902,36.5602695 42.3378906,36.5602695 L10.6621094,36.5602695 C9.29000977,36.5602695 8.17773438,35.4479941 8.17773438,34.0758945 L8.17773438,13.0104648 C8.17773438,11.6383652 9.29000977,10.5260898 10.6621094,10.5260898 Z M40.1635449,43.2734131 C41.0210684,43.2734131 41.7162793,43.9685723 41.7162793,44.8261475 C41.7162793,45.6751309 41.0348877,46.364959 40.189165,46.3786748 L40.1634932,46.3788818 L12.8681309,46.3788818 C12.0106074,46.3788818 11.3153965,45.6836709 11.3153965,44.8261475 C11.3153965,43.9771641 11.9967881,43.2873359 12.842459,43.2736201 L12.8681309,43.2734131 L40.1635449,43.2734131 Z" id="形状" fill="#3C3C3C"></path>
                        <path d="M17.8823242,20.782832 C18.7313076,20.782832 19.4211357,21.4641719 19.4348516,22.3098428 L19.4350586,22.3355146 L19.4350586,30.7550098 C19.4350586,31.612585 18.7398994,32.3077441 17.8823242,32.3077441 C17.0333408,32.3077441 16.3435127,31.6264043 16.3297969,30.7806816 L16.3295898,30.7550098 L16.3295898,22.3355664 C16.3295898,21.4779395 17.024749,20.782832 17.8823242,20.782832 Z M26.5258789,14.6754102 C27.3748623,14.6754102 28.0646904,15.35675 28.0784062,16.2024727 L28.0786133,16.2281445 L28.0786133,30.7550098 C28.0786133,31.612585 27.3834541,32.3077441 26.5258789,32.3077441 C25.6768955,32.3077441 24.9870674,31.6264043 24.9733516,30.7806816 L24.9731445,30.7550098 L24.9731445,16.2281445 C24.9731445,15.3706211 25.6683037,14.6754102 26.5258789,14.6754102 Z M35.1694336,17.6773633 C36.018417,17.6773633 36.7082451,18.3587549 36.7219609,19.2044775 L36.722168,19.2301494 L36.722168,30.8066641 C36.722168,31.6642393 36.0270088,32.3593984 35.1694336,32.3593984 C34.3204502,32.3593984 33.6306221,31.6780586 33.6169062,30.8323359 L33.6166992,30.8066641 L33.6166992,19.2301494 C33.6166992,18.3725742 34.3118584,17.6773633 35.1694336,17.6773633 L35.1694336,17.6773633 Z" id="形状" fill="#CF0010"></path>
                    </g>
                </g>
            </g>
        </g>
    </g>
</svg>