<?xml version="1.0" encoding="UTF-8"?>
<svg width="60px" height="60px" viewBox="0 0 60 60" version="1.1" xmlns="http://www.w3.org/2000/svg" xmlns:xlink="http://www.w3.org/1999/xlink">
    <title>多种数据源支持</title>
    <g id="页面-1" stroke="none" stroke-width="1" fill="none" fill-rule="evenodd">
        <g id="SDSF-产品中心（数据可视化）" transform="translate(-990.000000, -870.000000)" fill-rule="nonzero">
            <g id="编组-10" transform="translate(382.000000, 625.000000)">
                <g id="多种数据源支持" transform="translate(608.000000, 245.000000)">
                    <rect id="矩形" fill="#000000" opacity="0" x="0" y="0" width="60" height="60"></rect>
                    <g id="饼图" transform="translate(3.000000, 4.000000)">
                        <rect id="矩形" fill="#000000" opacity="0" x="0" y="0" width="53" height="53"></rect>
                        <path d="M26.5,5.07226562 C14.6657832,5.07226562 5.07226562,14.6657832 5.07226562,26.5 C5.07226562,38.3342168 14.6657832,47.9277344 26.5,47.9277344 C38.3342168,47.9277344 47.9277344,38.3342168 47.9277344,26.5 L47.9277344,26.4743281 C47.9138115,25.6286055 47.2239834,24.9472656 46.375,24.9472656 L28.0527344,24.9472656 L28.0527344,6.625 C28.0527344,5.7674248 27.3575752,5.07226562 26.5,5.07226562 Z M24.9472656,8.24289746 L24.9472656,26.5 L24.9474727,26.5256719 C24.9611885,27.3713945 25.6510166,28.0527344 26.5,28.0527344 L44.7570508,28.0527344 L44.7350537,28.2994121 C43.831,37.5739463 36.0119473,44.8222656 26.5,44.8222656 C16.3808818,44.8222656 8.17773438,36.6191182 8.17773438,26.5 C8.17773438,16.9880527 15.4260537,9.169 24.7005879,8.26494629 L24.9472656,8.24289746 Z" id="形状" fill="#3C3C3C"></path>
                        <path d="M32.0898438,4.96875 C31.2322686,4.96875 30.5371094,5.66390918 30.5371094,6.52148438 L30.5371094,20.8066406 C30.5371094,21.6642158 31.2322686,22.359375 32.0898438,22.359375 L46.375,22.359375 C47.2325752,22.359375 47.9277344,21.6642158 47.9277344,20.8066406 C47.9277344,12.0595703 40.8369141,4.96875 32.0898438,4.96875 Z M33.6425781,8.16836621 L33.7497168,8.18140918 C39.4541006,8.92413379 43.9724023,13.4423838 44.7150752,19.1468193 L44.7280664,19.2539062 L33.6425781,19.2539062 L33.6425781,8.16836621 Z" id="形状" fill="#CF0010"></path>
                    </g>
                </g>
            </g>
        </g>
    </g>
</svg>