<?xml version="1.0" encoding="UTF-8"?>
<svg width="60px" height="60px" viewBox="0 0 60 60" version="1.1" xmlns="http://www.w3.org/2000/svg" xmlns:xlink="http://www.w3.org/1999/xlink">
    <title>多样算力</title>
    <g id="页面-1" stroke="none" stroke-width="1" fill="none" fill-rule="evenodd">
        <g id="SDSF-产品中心（智能边缘云）" transform="translate(-1000.000000, -725.000000)" fill-rule="nonzero">
            <g id="产品优势" transform="translate(360.000000, 625.000000)">
                <g id="编组-6备份-6" transform="translate(610.000000, 100.000000)">
                    <g id="多样算力" transform="translate(30.000000, 0.000000)">
                        <rect id="矩形" fill="#000000" opacity="0" x="0" y="0" width="60" height="60"></rect>
                        <g id="balancing" transform="translate(3.000000, 4.000000)">
                            <rect id="矩形" fill="#000000" opacity="0" x="0" y="0" width="53" height="53"></rect>
                            <path d="M11.1520834,36.8791666 C11.0416667,36.8791666 10.93125,36.8791666 10.8208334,36.76875 C10.6,36.6583334 10.4895834,36.3270834 10.6,35.9958334 L22.9666666,15.4583334 C23.0770833,15.2375 23.4083333,15.1270834 23.7395834,15.2375 C23.9604167,15.3479166 24.0708334,15.6791666 23.9604166,16.0104166 L11.59375,36.5479166 C11.4833334,36.76875 11.3729166,36.8791666 11.1520834,36.8791666 Z M41.8479166,36.8791666 C41.6270833,36.8791666 41.5166666,36.76875 41.40625,36.6583334 L29.15,16.0104166 C29.0395834,15.7895833 29.0395834,15.4583333 29.3708334,15.2375 C29.5916667,15.1270834 29.9229167,15.1270834 30.14375,15.4583334 L42.4,35.9958334 C42.5104166,36.2166667 42.5104166,36.5479167 42.1791666,36.76875 C42.06875,36.76875 41.9583333,36.8791666 41.8479166,36.8791666 L41.8479166,36.8791666 Z M39.0875,42.4 L13.9125,42.4 C13.58125,42.4 13.3604166,42.1791666 13.3604166,41.8479166 C13.3604166,41.5166666 13.58125,41.2958334 13.9125,41.2958334 L39.0875,41.2958334 C39.41875,41.2958334 39.6395834,41.5166667 39.6395834,41.8479166 C39.6395834,42.1791666 39.41875,42.4 39.0875,42.4 Z" id="形状" stroke="#CF0010" stroke-width="2" fill="#CF0010"></path>
                            <path d="M8.39166665,48.03125 C4.96875,48.03125 2.20833335,45.2708334 2.20833335,41.8479166 C2.20833335,38.425 4.96875,35.6645834 8.39166665,35.6645834 C11.8145833,35.6645834 14.575,38.425 14.575,41.8479166 C14.4645834,45.2708333 11.7041666,48.03125 8.39166665,48.03125 Z M8.39166665,36.8791666 C5.63125,36.8791666 3.3125,39.0875 3.3125,41.9583334 C3.3125,44.71875 5.52083335,47.0375 8.39166665,47.0375 C11.2624999,47.0375 13.4708334,44.8291666 13.4708334,41.9583334 C13.3604167,39.0875 11.1520834,36.8791666 8.39166665,36.8791666 Z M44.6083334,48.03125 C41.1854167,48.03125 38.425,45.2708334 38.425,41.8479166 C38.425,38.425 41.1854166,35.6645834 44.6083334,35.6645834 C48.0312501,35.6645834 50.7916666,38.425 50.7916666,41.8479166 C50.7916666,45.2708333 48.03125,48.03125 44.6083334,48.03125 Z M44.6083334,36.8791666 C41.8479167,36.8791666 39.5291666,39.0875 39.5291666,41.9583334 C39.5291666,44.71875 41.7375,47.0375 44.6083334,47.0375 C47.4791667,47.0375 49.6875,44.8291666 49.6875,41.9583334 C49.6875,39.0875 47.4791666,36.8791666 44.6083334,36.8791666 Z M26.5,17.225 C23.0770834,17.225 20.3166666,14.4645834 20.3166666,11.0416666 C20.3166666,7.61875 23.0770833,4.85833335 26.5,4.85833335 C29.9229166,4.85833335 32.6833334,7.61875 32.6833334,11.0416666 C32.6833334,14.4645833 29.9229167,17.225 26.5,17.225 Z M26.5,6.07291665 C23.7395834,6.07291665 21.4208334,8.28125 21.4208334,11.1520834 C21.4208334,14.0229167 23.6291667,16.23125 26.5,16.23125 C29.3708333,16.23125 31.5791666,14.0229166 31.5791666,11.1520834 C31.5791666,8.28125005 29.2604166,6.07291665 26.5,6.07291665 Z" id="形状" stroke="#3C3C3C" stroke-width="2" fill="#3C3C3C"></path>
                        </g>
                    </g>
                </g>
            </g>
        </g>
    </g>
</svg>