<?xml version="1.0" encoding="UTF-8"?>
<svg width="840px" height="520px" viewBox="0 0 840 520" version="1.1" xmlns="http://www.w3.org/2000/svg" xmlns:xlink="http://www.w3.org/1999/xlink">
    <!-- Generator: Sketch 63.1 (92452) - https://sketch.com -->
    <title>3</title>
    <desc>Created with Sketch.</desc>
    <defs>
        <linearGradient x1="48.8252481%" y1="112.70709%" x2="51.0740928%" y2="8.43690846%" id="linearGradient-1">
            <stop stop-color="#ECF2FA" offset="0%"></stop>
            <stop stop-color="#D5E0F3" offset="100%"></stop>
        </linearGradient>
        <linearGradient x1="100%" y1="51.287132%" x2="0%" y2="50%" id="linearGradient-2">
            <stop stop-color="#CBD3E0" offset="0%"></stop>
            <stop stop-color="#90A1BD" offset="23.5389254%"></stop>
            <stop stop-color="#DCE0E8" offset="46.6385793%"></stop>
            <stop stop-color="#CAD1DC" offset="69.1553734%"></stop>
            <stop stop-color="#EBEEF2" offset="100%"></stop>
        </linearGradient>
        <linearGradient x1="17.6900477%" y1="37.4366471%" x2="79.5701835%" y2="67.8406705%" id="linearGradient-3">
            <stop stop-color="#FEFEFF" offset="0%"></stop>
            <stop stop-color="#F1F6FF" offset="100%"></stop>
        </linearGradient>
        <linearGradient x1="10.3508434%" y1="50.5852679%" x2="87.5428789%" y2="61.6492018%" id="linearGradient-4">
            <stop stop-color="#828BB3" offset="0%"></stop>
            <stop stop-color="#555A6F" offset="100%"></stop>
        </linearGradient>
        <linearGradient x1="10.3508434%" y1="50.6434593%" x2="87.5428789%" y2="62.8074473%" id="linearGradient-5">
            <stop stop-color="#828BB3" offset="0%"></stop>
            <stop stop-color="#555A6F" offset="100%"></stop>
        </linearGradient>
        <linearGradient x1="40.6931118%" y1="50%" x2="221.379044%" y2="55.826373%" id="linearGradient-6">
            <stop stop-color="#8892BD" offset="0%"></stop>
            <stop stop-color="#555A6F" offset="100%"></stop>
        </linearGradient>
        <linearGradient x1="36.5035347%" y1="46.4590205%" x2="67.3649843%" y2="50.7778043%" id="linearGradient-7">
            <stop stop-color="#FEFEFF" offset="0%"></stop>
            <stop stop-color="#F1F6FF" offset="100%"></stop>
        </linearGradient>
        <linearGradient x1="10.3508434%" y1="50.7151001%" x2="87.5428789%" y2="64.2333879%" id="linearGradient-8">
            <stop stop-color="#828BB3" offset="0%"></stop>
            <stop stop-color="#555A6F" offset="100%"></stop>
        </linearGradient>
        <linearGradient x1="100%" y1="50.827053%" x2="0%" y2="50%" id="linearGradient-9">
            <stop stop-color="#CBD3E0" offset="0%"></stop>
            <stop stop-color="#90A1BD" offset="42.8811209%"></stop>
            <stop stop-color="#EEEEEE" offset="54.2253552%"></stop>
            <stop stop-color="#D8DDE5" offset="68.216637%"></stop>
            <stop stop-color="#CAD1DC" offset="77.4568578%"></stop>
            <stop stop-color="#EBEEF2" offset="100%"></stop>
        </linearGradient>
        <linearGradient x1="50%" y1="0%" x2="50%" y2="100%" id="linearGradient-10">
            <stop stop-color="#F1F6FF" offset="0%"></stop>
            <stop stop-color="#F7FAFF" offset="100%"></stop>
        </linearGradient>
        <linearGradient x1="50%" y1="0%" x2="50%" y2="100%" id="linearGradient-11">
            <stop stop-color="#F1F6FF" offset="0%"></stop>
            <stop stop-color="#F7FAFF" offset="100%"></stop>
        </linearGradient>
        <rect id="path-12" x="0" y="0.03125" width="54" height="54"></rect>
        <linearGradient x1="-4.09155973%" y1="60.6906098%" x2="89.3438473%" y2="43.5319273%" id="linearGradient-14">
            <stop stop-color="#FEFEFF" offset="0%"></stop>
            <stop stop-color="#F1F6FF" offset="100%"></stop>
        </linearGradient>
        <linearGradient x1="97.9835561%" y1="35.1589528%" x2="-14.3656727%" y2="35.040788%" id="linearGradient-15">
            <stop stop-color="#BDC6D4" offset="0%"></stop>
            <stop stop-color="#99AAC5" offset="28.0586664%"></stop>
            <stop stop-color="#9FB0CC" offset="39.8467324%"></stop>
            <stop stop-color="#A5B6D1" offset="43.0137068%"></stop>
            <stop stop-color="#DCE0E8" offset="80.7560626%"></stop>
            <stop stop-color="#D9DEE7" offset="82.0572111%"></stop>
            <stop stop-color="#E3E6EC" offset="83.4646347%"></stop>
            <stop stop-color="#F3F3F3" offset="84.6911815%"></stop>
            <stop stop-color="#CAD1DC" offset="90.1990345%"></stop>
            <stop stop-color="#EBEEF2" offset="100%"></stop>
        </linearGradient>
    </defs>
    <g id="页面-1" stroke="none" stroke-width="1" fill="none" fill-rule="evenodd">
        <g id="画板" transform="translate(-1962.000000, -682.000000)">
            <g id="编组-69" transform="translate(2097.000000, 900.000000)">
                <path d="M0,0 L263,0 L263,65.7466305 L263,110 L0,110 L0,0 Z" id="矩形" stroke="#999FB6" stroke-width="0.85" stroke-dasharray="1.334208077192306,1.334208077192306" fill-rule="nonzero"></path>
                <g id="编组-67" transform="translate(46.000000, 17.000000)">
                    <g id="编组">
                        <g>
                            <g id="云模版">
                                <g id="云">
                                    <rect id="矩形" x="0" y="0" width="52" height="52"></rect>
                                    <g id="编组-18" transform="translate(1.625000, 0.812500)" fill-rule="nonzero">
                                        <g id="云">
                                            <g id="Group-4" transform="translate(0.000000, 0.812500)">
                                                <path d="M48.2708784,12.3726241 C48.1578765,12.7704907 48.0089195,13.1656689 47.8137344,13.5554707 C47.7880522,13.6038598 47.7726429,13.652249 47.7495288,13.7006382 C47.5260932,14.120011 47.2410204,14.5313191 46.9225605,14.9318739 C46.8069903,15.0797297 46.6708745,15.2222089 46.539895,15.3673765 C46.2265716,15.7168539 45.9029753,16.0690195 45.5126052,16.3969907 L45.5023323,34.0019267 C45.6975174,33.8352529 45.8849978,33.6658908 46.059637,33.4938403 C46.2368446,33.3244783 46.3729604,33.144363 46.5270539,32.9696243 C46.6580333,32.8244568 46.7967175,32.6846658 46.9097194,32.53681 C46.9585157,32.4776676 47.0175848,32.4239019 47.0638128,32.3674479 C47.3129306,32.0367885 47.5286615,31.6980642 47.7135736,31.3566517 C47.7212783,31.340522 47.7264148,31.321704 47.7366877,31.302886 C47.7623699,31.2544968 47.775211,31.2061076 47.8008933,31.1577184 C47.9293046,30.9023311 48.0525793,30.6496321 48.1450354,30.3915565 C48.1938316,30.2544538 48.2195139,30.1119746 48.2580373,29.9748719 C48.288856,29.8754052 48.3171064,29.7759386 48.3402204,29.676472 C48.358198,29.5985116 48.391585,29.517863 48.4069943,29.4372144 C48.4686317,29.1119316 48.5045868,28.7866487 48.5122915,28.461366 C48.5122915,28.4129768 48.5148597,28.3618993 48.5148597,28.3135101 L48.5277008,10.7085741 C48.5251326,11.1655829 48.4583588,11.6225918 48.3530616,12.0742242 C48.3273793,12.1736908 48.2991289,12.2731575 48.2708784,12.3726241 Z" id="Fill-22" fill="url(#linearGradient-1)"></path>
                                                <path d="M47.4580353,24.2252842 C47.4092391,24.3005562 47.3655792,24.3758283 47.3116465,24.4511004 C47.0265736,24.8650967 46.6798633,25.2656515 46.2740838,25.6500766 C46.0069884,25.9027757 45.6679828,26.1339684 45.3495229,26.3705377 C45.0772911,26.5721593 44.8461509,26.784534 44.5405322,26.9727141 C43.7520873,27.4512293 42.8711862,27.8302779 41.9517618,28.1609373 C41.6307337,28.2792219 41.2968645,28.3786886 40.9629954,28.4781551 C40.5315336,28.6045047 40.0949354,28.7254776 39.6454962,28.822256 C39.1190101,28.9351641 38.5873876,29.0400073 38.0454922,29.1099027 C37.9145128,29.1260325 37.7861015,29.1529154 37.6551221,29.1663568 C36.9257463,29.2470055 36.1835294,29.2873297 35.4438807,29.2953946 C35.3257424,29.2953946 35.2076041,29.2980829 35.0894657,29.2953946 C34.36009,29.2900181 33.6307142,29.2496937 32.9090431,29.1690451 C32.7986094,29.1582919 32.690744,29.1448505 32.5803103,29.131409 C31.8637756,29.0426956 31.1549457,28.9163461 30.4666615,28.7523605 C30.3408185,28.7227894 30.2175437,28.6878417 30.0917007,28.6582705 C29.4650539,28.4942849 28.8563847,28.3007282 28.2682612,28.074912 C28.1603958,28.0345878 28.0473939,28.0023283 27.9420967,27.962004 C27.2384032,27.6743572 26.5629601,27.3490743 25.9414498,26.9727141 L4.55187719,14.3871128 C1.96053859,12.8225294 0.668721623,10.7633011 0.673858072,8.70944937 L0.660986586,26.3116972 C0.6558805,28.3655489 1.95026569,30.4247773 4.53903607,31.9893606 L25.9286086,45.2359789 C26.5193003,45.5935211 27.15622,45.9107391 27.8213902,46.1876326 C28.037121,46.2682813 28.1475547,46.2978525 28.2554201,46.3408651 C28.6380855,46.4860326 29.0181828,46.6312001 29.4162576,46.7494848 C29.6319885,46.8140037 29.8579923,46.8623928 30.0762914,46.9188469 C30.2047025,46.9537946 30.3279773,46.9860541 30.4563885,47.0183136 C30.5693905,47.0425081 30.6772559,47.0774559 30.7902578,47.1016505 C31.2191513,47.1957406 31.6531812,47.2737009 32.0949159,47.3409081 C32.2515776,47.3624144 32.4108075,47.3758558 32.5700374,47.3973621 C32.6779028,47.4108035 32.7857683,47.4215566 32.8936337,47.4349982 C33.0528636,47.4511278 33.2146618,47.4753225 33.3738917,47.4887639 C33.8053534,47.5263999 34.2368152,47.5505945 34.6708451,47.5640359 C34.806961,47.5667242 34.9430769,47.5586594 35.0791929,47.5613477 C35.1947629,47.5613477 35.3129012,47.5613477 35.4310396,47.5586594 C35.6262246,47.5586594 35.8265462,47.5640359 36.0217313,47.555971 C36.5096939,47.5371531 36.9976566,47.5048936 37.4804828,47.4538162 C37.5369837,47.4484396 37.5909164,47.4376864 37.6474174,47.4296215 C37.7732604,47.4161801 37.8991035,47.3919856 38.0275146,47.3731675 C38.4076119,47.3247783 38.7877091,47.2790775 39.1601017,47.209182 C39.3244681,47.1796108 39.4708568,47.1204684 39.6352232,47.0855207 C40.0846626,46.9887424 40.5161243,46.8704577 40.9501542,46.7441082 C41.1787262,46.676901 41.4252758,46.6365767 41.6487113,46.5613046 C41.7540085,46.5236686 41.83876,46.461838 41.9414889,46.4268902 C42.8609133,46.0935426 43.7418144,45.7144941 44.5276911,45.2359789 C44.584192,45.2037194 44.6355565,45.1714599 44.6894892,45.1365122 C44.938607,44.9805915 45.1158145,44.7977879 45.33925,44.6311141 C45.6577099,44.3945448 45.9941473,44.1660404 46.2612426,43.9160296 C46.654181,43.5504225 46.9238446,43.2493343 47.1575531,42.937493 C47.2114858,42.8649092 47.2500091,42.7896371 47.2988054,42.714365 C47.3527381,42.6417813 47.3963979,42.563821 47.4451941,42.4885489 C47.5222409,42.3648877 47.614697,42.2439148 47.6840391,42.1175653 C47.8227232,41.8621779 47.9382933,41.5987258 48.0333176,41.3352735 C48.0487269,41.2949492 48.0538634,41.2519366 48.0667046,41.2116123 C48.0846821,41.1578465 48.094955,41.1067691 48.1129326,41.0556916 C48.1591606,40.8890178 48.2156616,40.7250322 48.2464803,40.5583584 C48.2978447,40.2975945 48.3260952,40.031454 48.3337999,39.7653136 C48.3363681,39.7249893 48.3363681,39.6846649 48.3363681,39.6443406 L48.346641,21.3810759 C48.346641,21.8542145 48.2618896,22.3246649 48.1232055,22.7924269 C48.1077961,22.8435044 48.0975233,22.8945818 48.0795456,22.9456593 C47.9357251,23.3811619 47.7199942,23.8085996 47.4580353,24.2252842 Z" id="Fill-24" fill="url(#linearGradient-2)"></path>
                                                <path d="M44.5413026,26.9705635 C39.4253992,30.0836005 31.0915105,30.0836005 25.9422202,26.9732517 L4.62711864,14.3633475 C-0.522171642,11.2529987 -0.550422112,6.19901798 4.56804948,3.08598093 C9.30642383,0.204136601 17.45566,0.0897639511 22.6177914,2.55761198 C28.9279192,-0.208635974 38.038558,0.265114341 43.745153,3.71418735 C49.4671574,7.1740135 50.0501444,12.5640301 45.5120915,16.3975283 C49.5827275,19.5293834 49.2822452,24.0887192 44.5413026,26.9705635 Z" id="顶面" fill="url(#linearGradient-3)"></path>
                                                <path d="M48.1000306,30.79042 C48.0278456,32.7315371 46.7136396,34.5971424 44.3162409,36.0179086 C39.1449566,39.0857781 30.6906102,39.0866009 25.4836721,36.0202585 L4.47561148,23.6407284 C2.1060688,22.2453154 1.07025616,20.6897156 0.987397556,18.6627102 L0.506809925,18.6823554 C0.596723242,20.8819432 1.72795107,22.580839 4.23147871,24.0551552 L25.2395393,36.4346853 C30.597402,39.5899065 39.2393081,39.5890655 44.5615564,36.4316364 C47.0894972,34.9335073 48.5018391,32.9285912 48.5806873,30.8082943 L48.1000306,30.79042 Z" id="Fill-26" fill="#999FB6"></path>
                                            </g>
                                            <path d="M22.9945591,2.1431746 C26.2428447,0.876527601 29.4205575,0.525566817 33.6098397,0.852223221 C36.0604786,1.04331011 39.8169635,2.14721789 42.7839979,3.65471189 C46.6664071,5.62729041 49.039966,8.1027761 49.039966,10.9992853 L49.039966,39.7227062 C49.039966,42.2586744 47.7888664,44.2296532 45.7192009,45.7533327 C45.3013151,46.0609786 44.8676453,46.3374707 44.4056316,46.5989803 L44.0536105,46.7925558 C43.9911251,46.8259658 43.9113566,46.867429 43.8232698,46.9126029 L42.8054621,47.4216886 C41.6419506,47.9759993 39.2273017,48.6011168 36.7456805,48.807696 C32.939463,49.1245395 29.1632889,48.5348809 25.7025204,46.7647936 L9.14522603,36.7007571 L4.30140488,33.746297 C1.07366387,31.411193 0.295383593,29.7494838 0.337580674,26.9343726 L0.351506577,26.351466 L0.353197618,9.37499347 C0.353197618,6.3429958 3.4589249,3.00926711 9.04304383,1.36432698 C13.8260781,-0.0446338912 18.8177052,0.684185939 22.3634252,2.17178912 L22.6332931,2.28769351 L22.9945591,2.1431746 Z M9.32321894,2.3154445 C3.1603576,4.13086752 1.34472304,7.58446757 1.34472304,9.37499347 L1.34417104,26.2675987 L1.3220339,27.2649043 C1.31078812,28.8406046 1.59667087,30.5657696 4.88258082,32.9429557 L24.7667565,45.0244632 L26.1540273,45.8820342 C33.4571958,49.6174027 41.1343245,47.1333043 42.4361968,46.4985236 L43.2547672,46.0909062 C44.9322712,45.2367559 48.0484406,43.3727934 48.0484406,39.7227062 L48.0484406,10.9992853 L48.0430781,10.7895331 C47.7830305,5.70894822 38.1324708,2.34089076 33.8706115,1.87267703 L33.5327601,1.84074809 C29.4147111,1.51964604 26.1540273,1.84074809 22.6177914,3.37011198 L22.4729829,3.3036086 C20.9500995,2.62136098 15.2771698,0.561561254 9.32321894,2.3154445 Z" id="Path-2" fill="#555A6F"></path>
                                            <polygon id="Rectangle" fill="#A5ADC1" points="3.96610169 18.1504238 5.94915254 19.5293642 5.94915254 22.7775424 3.96610169 21.398602"></polygon>
                                            <polygon id="Rectangle" fill="#A5ADC1" opacity="0.501227679" points="7.27118644 20.1334746 9.25423728 21.5124149 9.25423728 24.7605932 7.27118644 23.3816529"></polygon>
                                        </g>
                                    </g>
                                </g>
                            </g>
                            <g transform="translate(14.625000, 7.312500)" fill="url(#linearGradient-4)" fill-rule="nonzero" id="形状结合">
                                <g transform="translate(0.285473, 0.545332)">
                                    <path d="M0.700003885,5.39293696 C0.923924495,5.25495326 1.2819076,5.25124403 1.49858159,5.38403478 L1.49858159,5.38403478 L18.2962505,15.6586272 C18.533215,15.8032875 18.5491576,16.0451299 18.3310343,16.1994342 C18.1121863,16.3544804 17.7426087,16.3618989 17.5056441,16.2157549 L17.5056441,16.2157549 L0.686235304,5.88552391 C0.468111993,5.7519913 0.474633953,5.5316625 0.700003885,5.39293696 Z M6.35149916,1.08658451 C8.25880998,-0.0796002717 11.3436968,-0.101855707 13.286516,1.03094592 L13.286516,1.03094592 L25.4217087,8.10669049 C27.503663,9.31961168 27.7362796,11.3648862 25.894913,12.6824079 C24.0231106,14.022185 20.7570582,14.080791 18.6482914,12.8070383 L18.6482914,12.8070383 L6.36381841,5.38559266 C4.39925929,4.19863614 4.41447719,2.27131549 6.35149916,1.08658451 Z M12.5364907,1.50276114 C11.0241207,0.617736685 8.61027115,0.63628288 7.12906166,1.54801386 C5.62901098,2.47087255 5.62756166,3.97088886 7.15297551,4.88929647 L7.15297551,4.88929647 L19.4207813,12.2706824 C21.0541697,13.2536307 23.589038,13.2091199 25.0419856,12.1772095 C26.4768168,11.1571688 26.3057965,9.56145409 24.6890752,8.61485625 L24.6890752,8.61485625 Z M20.830684,9.67755328 C21.4531688,9.25024888 22.5162481,9.23467009 23.2083005,9.64268638 C23.9025269,10.0521864 23.9670218,10.736912 23.346711,11.1708929 C22.7235015,11.6078413 21.6481029,11.6249038 20.9509779,11.2094691 C20.2560269,10.7940342 20.2038512,10.107825 20.830684,9.67755328 Z"></path>
                                </g>
                            </g>
                        </g>
                    </g>
                    <g id="编组-43" transform="translate(1.000000, 54.000000)">
                        <path d="M25.2951902,0 L28.4953776,3.20886612 L48.1879159,3.19000213 C49.6813377,3.19000213 50.9614118,4.58051079 50.9614118,6.18494385 L51,19.7913329 C51,21.3957659 49.7199258,22.6793124 48.2265041,22.6793124 L2.91875668,23 C1.32808341,23 0.0385879448,21.7070075 0.0385879448,20.1120205 L0,6.50563148 C0,4.90119843 1.280075,3.51068977 2.88016874,3.51068977 L21.7749838,3.20886612 L25.2951902,0 Z" id="路径" stroke="#999FB6" stroke-width="1.1" fill="#FFFFFF" fill-rule="nonzero"></path>
                        <text id="ECS" font-family="FZLTHJW--GB1-0, FZLanTingHeiS-R-GB" font-size="12" font-weight="normal" fill="#000000">
                            <tspan x="11.6953125" y="17">ECS</tspan>
                        </text>
                    </g>
                </g>
                <g id="编组-68" transform="translate(161.000000, 17.000000)">
                    <g id="编组">
                        <g id="云模版">
                            <g id="云">
                                <rect id="矩形" x="0" y="0" width="52" height="52"></rect>
                                <g id="编组-18" transform="translate(1.625000, 0.812500)" fill-rule="nonzero">
                                    <g id="云">
                                        <g id="Group-4" transform="translate(0.000000, 0.812500)">
                                            <path d="M48.2708784,12.3726241 C48.1578765,12.7704907 48.0089195,13.1656689 47.8137344,13.5554707 C47.7880522,13.6038598 47.7726429,13.652249 47.7495288,13.7006382 C47.5260932,14.120011 47.2410204,14.5313191 46.9225605,14.9318739 C46.8069903,15.0797297 46.6708745,15.2222089 46.539895,15.3673765 C46.2265716,15.7168539 45.9029753,16.0690195 45.5126052,16.3969907 L45.5023323,34.0019267 C45.6975174,33.8352529 45.8849978,33.6658908 46.059637,33.4938403 C46.2368446,33.3244783 46.3729604,33.144363 46.5270539,32.9696243 C46.6580333,32.8244568 46.7967175,32.6846658 46.9097194,32.53681 C46.9585157,32.4776676 47.0175848,32.4239019 47.0638128,32.3674479 C47.3129306,32.0367885 47.5286615,31.6980642 47.7135736,31.3566517 C47.7212783,31.340522 47.7264148,31.321704 47.7366877,31.302886 C47.7623699,31.2544968 47.775211,31.2061076 47.8008933,31.1577184 C47.9293046,30.9023311 48.0525793,30.6496321 48.1450354,30.3915565 C48.1938316,30.2544538 48.2195139,30.1119746 48.2580373,29.9748719 C48.288856,29.8754052 48.3171064,29.7759386 48.3402204,29.676472 C48.358198,29.5985116 48.391585,29.517863 48.4069943,29.4372144 C48.4686317,29.1119316 48.5045868,28.7866487 48.5122915,28.461366 C48.5122915,28.4129768 48.5148597,28.3618993 48.5148597,28.3135101 L48.5277008,10.7085741 C48.5251326,11.1655829 48.4583588,11.6225918 48.3530616,12.0742242 C48.3273793,12.1736908 48.2991289,12.2731575 48.2708784,12.3726241 Z" id="Fill-22" fill="url(#linearGradient-1)"></path>
                                            <path d="M47.4580353,24.2252842 C47.4092391,24.3005562 47.3655792,24.3758283 47.3116465,24.4511004 C47.0265736,24.8650967 46.6798633,25.2656515 46.2740838,25.6500766 C46.0069884,25.9027757 45.6679828,26.1339684 45.3495229,26.3705377 C45.0772911,26.5721593 44.8461509,26.784534 44.5405322,26.9727141 C43.7520873,27.4512293 42.8711862,27.8302779 41.9517618,28.1609373 C41.6307337,28.2792219 41.2968645,28.3786886 40.9629954,28.4781551 C40.5315336,28.6045047 40.0949354,28.7254776 39.6454962,28.822256 C39.1190101,28.9351641 38.5873876,29.0400073 38.0454922,29.1099027 C37.9145128,29.1260325 37.7861015,29.1529154 37.6551221,29.1663568 C36.9257463,29.2470055 36.1835294,29.2873297 35.4438807,29.2953946 C35.3257424,29.2953946 35.2076041,29.2980829 35.0894657,29.2953946 C34.36009,29.2900181 33.6307142,29.2496937 32.9090431,29.1690451 C32.7986094,29.1582919 32.690744,29.1448505 32.5803103,29.131409 C31.8637756,29.0426956 31.1549457,28.9163461 30.4666615,28.7523605 C30.3408185,28.7227894 30.2175437,28.6878417 30.0917007,28.6582705 C29.4650539,28.4942849 28.8563847,28.3007282 28.2682612,28.074912 C28.1603958,28.0345878 28.0473939,28.0023283 27.9420967,27.962004 C27.2384032,27.6743572 26.5629601,27.3490743 25.9414498,26.9727141 L4.55187719,14.3871128 C1.96053859,12.8225294 0.668721623,10.7633011 0.673858072,8.70944937 L0.660986586,26.3116972 C0.6558805,28.3655489 1.95026569,30.4247773 4.53903607,31.9893606 L25.9286086,45.2359789 C26.5193003,45.5935211 27.15622,45.9107391 27.8213902,46.1876326 C28.037121,46.2682813 28.1475547,46.2978525 28.2554201,46.3408651 C28.6380855,46.4860326 29.0181828,46.6312001 29.4162576,46.7494848 C29.6319885,46.8140037 29.8579923,46.8623928 30.0762914,46.9188469 C30.2047025,46.9537946 30.3279773,46.9860541 30.4563885,47.0183136 C30.5693905,47.0425081 30.6772559,47.0774559 30.7902578,47.1016505 C31.2191513,47.1957406 31.6531812,47.2737009 32.0949159,47.3409081 C32.2515776,47.3624144 32.4108075,47.3758558 32.5700374,47.3973621 C32.6779028,47.4108035 32.7857683,47.4215566 32.8936337,47.4349982 C33.0528636,47.4511278 33.2146618,47.4753225 33.3738917,47.4887639 C33.8053534,47.5263999 34.2368152,47.5505945 34.6708451,47.5640359 C34.806961,47.5667242 34.9430769,47.5586594 35.0791929,47.5613477 C35.1947629,47.5613477 35.3129012,47.5613477 35.4310396,47.5586594 C35.6262246,47.5586594 35.8265462,47.5640359 36.0217313,47.555971 C36.5096939,47.5371531 36.9976566,47.5048936 37.4804828,47.4538162 C37.5369837,47.4484396 37.5909164,47.4376864 37.6474174,47.4296215 C37.7732604,47.4161801 37.8991035,47.3919856 38.0275146,47.3731675 C38.4076119,47.3247783 38.7877091,47.2790775 39.1601017,47.209182 C39.3244681,47.1796108 39.4708568,47.1204684 39.6352232,47.0855207 C40.0846626,46.9887424 40.5161243,46.8704577 40.9501542,46.7441082 C41.1787262,46.676901 41.4252758,46.6365767 41.6487113,46.5613046 C41.7540085,46.5236686 41.83876,46.461838 41.9414889,46.4268902 C42.8609133,46.0935426 43.7418144,45.7144941 44.5276911,45.2359789 C44.584192,45.2037194 44.6355565,45.1714599 44.6894892,45.1365122 C44.938607,44.9805915 45.1158145,44.7977879 45.33925,44.6311141 C45.6577099,44.3945448 45.9941473,44.1660404 46.2612426,43.9160296 C46.654181,43.5504225 46.9238446,43.2493343 47.1575531,42.937493 C47.2114858,42.8649092 47.2500091,42.7896371 47.2988054,42.714365 C47.3527381,42.6417813 47.3963979,42.563821 47.4451941,42.4885489 C47.5222409,42.3648877 47.614697,42.2439148 47.6840391,42.1175653 C47.8227232,41.8621779 47.9382933,41.5987258 48.0333176,41.3352735 C48.0487269,41.2949492 48.0538634,41.2519366 48.0667046,41.2116123 C48.0846821,41.1578465 48.094955,41.1067691 48.1129326,41.0556916 C48.1591606,40.8890178 48.2156616,40.7250322 48.2464803,40.5583584 C48.2978447,40.2975945 48.3260952,40.031454 48.3337999,39.7653136 C48.3363681,39.7249893 48.3363681,39.6846649 48.3363681,39.6443406 L48.346641,21.3810759 C48.346641,21.8542145 48.2618896,22.3246649 48.1232055,22.7924269 C48.1077961,22.8435044 48.0975233,22.8945818 48.0795456,22.9456593 C47.9357251,23.3811619 47.7199942,23.8085996 47.4580353,24.2252842 Z" id="Fill-24" fill="url(#linearGradient-2)"></path>
                                            <path d="M44.5413026,26.9705635 C39.4253992,30.0836005 31.0915105,30.0836005 25.9422202,26.9732517 L4.62711864,14.3633475 C-0.522171642,11.2529987 -0.550422112,6.19901798 4.56804948,3.08598093 C9.30642383,0.204136601 17.45566,0.0897639511 22.6177914,2.55761198 C28.9279192,-0.208635974 38.038558,0.265114341 43.745153,3.71418735 C49.4671574,7.1740135 50.0501444,12.5640301 45.5120915,16.3975283 C49.5827275,19.5293834 49.2822452,24.0887192 44.5413026,26.9705635 Z" id="顶面" fill="url(#linearGradient-3)"></path>
                                            <path d="M48.1000306,30.79042 C48.0278456,32.7315371 46.7136396,34.5971424 44.3162409,36.0179086 C39.1449566,39.0857781 30.6906102,39.0866009 25.4836721,36.0202585 L4.47561148,23.6407284 C2.1060688,22.2453154 1.07025616,20.6897156 0.987397556,18.6627102 L0.506809925,18.6823554 C0.596723242,20.8819432 1.72795107,22.580839 4.23147871,24.0551552 L25.2395393,36.4346853 C30.597402,39.5899065 39.2393081,39.5890655 44.5615564,36.4316364 C47.0894972,34.9335073 48.5018391,32.9285912 48.5806873,30.8082943 L48.1000306,30.79042 Z" id="Fill-26" fill="#999FB6"></path>
                                        </g>
                                        <path d="M22.9945591,2.1431746 C26.2428447,0.876527601 29.4205575,0.525566817 33.6098397,0.852223221 C36.0604786,1.04331011 39.8169635,2.14721789 42.7839979,3.65471189 C46.6664071,5.62729041 49.039966,8.1027761 49.039966,10.9992853 L49.039966,39.7227062 C49.039966,42.2586744 47.7888664,44.2296532 45.7192009,45.7533327 C45.3013151,46.0609786 44.8676453,46.3374707 44.4056316,46.5989803 L44.0536105,46.7925558 C43.9911251,46.8259658 43.9113566,46.867429 43.8232698,46.9126029 L42.8054621,47.4216886 C41.6419506,47.9759993 39.2273017,48.6011168 36.7456805,48.807696 C32.939463,49.1245395 29.1632889,48.5348809 25.7025204,46.7647936 L9.14522603,36.7007571 L4.30140488,33.746297 C1.07366387,31.411193 0.295383593,29.7494838 0.337580674,26.9343726 L0.351506577,26.351466 L0.353197618,9.37499347 C0.353197618,6.3429958 3.4589249,3.00926711 9.04304383,1.36432698 C13.8260781,-0.0446338912 18.8177052,0.684185939 22.3634252,2.17178912 L22.6332931,2.28769351 L22.9945591,2.1431746 Z M9.32321894,2.3154445 C3.1603576,4.13086752 1.34472304,7.58446757 1.34472304,9.37499347 L1.34417104,26.2675987 L1.3220339,27.2649043 C1.31078812,28.8406046 1.59667087,30.5657696 4.88258082,32.9429557 L24.7667565,45.0244632 L26.1540273,45.8820342 C33.4571958,49.6174027 41.1343245,47.1333043 42.4361968,46.4985236 L43.2547672,46.0909062 C44.9322712,45.2367559 48.0484406,43.3727934 48.0484406,39.7227062 L48.0484406,10.9992853 L48.0430781,10.7895331 C47.7830305,5.70894822 38.1324708,2.34089076 33.8706115,1.87267703 L33.5327601,1.84074809 C29.4147111,1.51964604 26.1540273,1.84074809 22.6177914,3.37011198 L22.4729829,3.3036086 C20.9500995,2.62136098 15.2771698,0.561561254 9.32321894,2.3154445 Z" id="Path-2" fill="#555A6F"></path>
                                        <polygon id="Rectangle" fill="#A5ADC1" points="3.96610169 18.1504238 5.94915254 19.5293642 5.94915254 22.7775424 3.96610169 21.398602"></polygon>
                                        <polygon id="Rectangle" fill="#A5ADC1" opacity="0.501227679" points="7.27118644 20.1334746 9.25423728 21.5124149 9.25423728 24.7605932 7.27118644 23.3816529"></polygon>
                                    </g>
                                </g>
                            </g>
                        </g>
                        <g transform="translate(14.625000, 6.500000)">
                            <path d="M1.47771941,2.47594425 C3.88036743,0.40686425 8.35925228,0.14598675 11.3892786,1.96091675 L11.3892786,1.96091675 L24.9640582,10.0914743 C28.0144398,11.9191118 28.1307556,14.9472343 25.3086438,16.7815993 C22.5795845,18.5546693 18.091249,18.5516793 15.2262457,16.8286918 L15.2262457,16.8286918 L2.47876217,9.16083675 C-0.367339802,7.44831425 -0.845688488,4.47700175 1.47771941,2.47594425 Z M10.6644859,2.54695675 C8.11280823,1.01757175 4.33545296,1.22761925 2.29556481,2.96705175 C0.313107566,4.65789675 0.707127302,7.18220425 3.12722269,8.63683925 L3.12722269,8.63683925 L15.9343181,16.3390793 C18.3696799,17.8034318 22.179749,17.7974518 24.4828016,16.2860068 C26.8527359,14.7304593 26.7400549,12.1792418 24.1716569,10.6393918 L24.1716569,10.6393918 Z M17.8879144,12.3264245 C18.9114934,11.600602 20.6903981,11.563227 21.8397434,12.2531695 C22.9898158,12.943112 23.0596052,14.0890295 22.0076743,14.799902 C20.968829,15.5018045 19.2197302,15.5167545 18.0972829,14.8425095 C16.9755625,14.1682645 16.8766941,13.043277 17.8879144,12.3264245 Z M21.0771481,12.7809045 C20.3908849,12.369032 19.3280493,12.388467 18.7108487,12.8212695 C18.0994639,13.2503345 18.1554408,13.928317 18.8322533,14.3342095 C19.5090658,14.740102 20.5617237,14.7288895 21.1825592,14.305057 C21.8099375,13.8782345 21.7634112,13.192777 21.0771481,12.7809045 Z M4.35493585,5.63936425 C4.54031415,5.48762175 4.87254112,5.47341925 5.09790296,5.60946425 L5.09790296,5.60946425 L14.6961365,11.3726893 C14.9229523,11.5087342 14.9440345,11.7352268 14.7448438,11.8794943 C14.5471069,12.0237618 14.2047023,12.0304893 13.9800674,11.8951918 L13.9800674,11.8951918 L4.42763323,6.15738175 C4.20299835,6.02283175 4.17028454,5.79110675 4.35493585,5.63936425 Z M6.38958981,3.96780475 C6.57932993,3.81157725 6.91882665,3.79587975 7.14709639,3.93267225 L7.14709639,3.93267225 L16.8856359,9.77513225 C17.1146326,9.91267225 17.1357148,10.1443973 16.9307082,10.2931498 C16.7264286,10.4411548 16.3774813,10.4493773 16.1484845,10.3125848 L16.1484845,10.3125848 L6.45719835,4.49703475 C6.23038257,4.36024225 6.19912269,4.12403225 6.38958981,3.96780475 Z" id="形状结合" fill="url(#linearGradient-5)" fill-rule="nonzero"></path>
                            <g id="Fill-7" transform="translate(0.000000, 0.176485)"></g>
                        </g>
                    </g>
                    <g id="编组-43" transform="translate(1.000000, 54.000000)">
                        <path d="M25.2951902,0 L28.4953776,3.20886612 L48.1879159,3.19000213 C49.6813377,3.19000213 50.9614118,4.58051079 50.9614118,6.18494385 L51,19.7913329 C51,21.3957659 49.7199258,22.6793124 48.2265041,22.6793124 L2.91875668,23 C1.32808341,23 0.0385879448,21.7070075 0.0385879448,20.1120205 L0,6.50563148 C0,4.90119843 1.280075,3.51068977 2.88016874,3.51068977 L21.7749838,3.20886612 L25.2951902,0 Z" id="路径" stroke="#999FB6" stroke-width="1.1" fill="#FFFFFF" fill-rule="nonzero"></path>
                        <text id="BMS" font-family="FZLTHJW--GB1-0, FZLanTingHeiS-R-GB" font-size="12" font-weight="normal" fill="#000000">
                            <tspan x="10.125" y="17">BMS</tspan>
                        </text>
                    </g>
                </g>
            </g>
            <g id="编组-69" transform="translate(2394.000000, 900.000000)">
                <polygon id="矩形" stroke="#999FB6" stroke-width="0.8505" fill="#F1F3F9" points="0 0 263 0 263 65.7466305 263 110 0 110"></polygon>
                <g id="编组-67" transform="translate(43.000000, 13.000000)">
                    <g id="编组">
                        <g id="正方形">
                            <rect id="矩形" x="0" y="0" width="58" height="58"></rect>
                            <g id="服务器" transform="translate(0.000000, 2.718750)" fill-rule="nonzero">
                                <g id="Group-2" transform="translate(1.812500, 0.906250)">
                                    <g id="Fill-1" transform="translate(0.000000, 0.621949)">
                                        <path d="M52.4265264,13.2355071 C54.9669264,14.7225186 54.9799764,17.1590147 52.4569764,18.6438233 L31.8727764,30.760214 C29.3323764,32.2538345 25.1933514,32.2626464 22.6399014,30.7690259 L1.91867645,18.6526352 C-0.621723547,17.1678266 -0.647823547,14.7225186 1.89040145,13.2288981 L22.4746014,1.12792826 C25.0258764,-0.374504193 29.1518514,-0.374504193 31.7074764,1.11911633 L52.4265264,13.2355071 Z" id="路径" fill="url(#linearGradient-7)"></path>
                                        <path d="M26.7734753,9.27036302 C29.7287486,7.35647459 34.3502266,7.23225954 37.1199814,9.01676963 C40.0063492,10.8755883 39.7510856,14.0373936 36.5663007,15.9725835 C33.6370455,17.752397 29.3009665,17.8303208 26.6057607,16.2298794 L22.3450068,18.896524 L24.5025214,20.4758897 L24.4958501,20.6417552 L23.7575397,21.0959348 L23.6458543,21.0912884 L21.4360068,19.464524 L20.1790068,20.253524 L22.3003951,21.8340728 L22.2930499,21.9994034 L21.5653301,22.4473909 L21.4529103,22.4422361 L19.2820068,20.813524 L17.9213319,21.6667287 L17.8078017,21.6616338 L17.1875,21.1908696 L17.1947044,21.0265691 L25.7699046,15.6305333 C23.8047259,13.9262442 23.9862738,11.4480235 26.2043176,9.6790946 L26.3938663,9.53335753 L26.5818102,9.3987239 L26.7734753,9.27036302 Z M27.5477203,9.88630052 C25.1473192,11.4343198 24.9366832,13.8445755 27.0622172,15.334455 C29.27281,16.882856 33.1750883,16.8837524 35.7428695,15.3163955 C38.3385718,13.7317501 38.5450571,11.1957086 36.2148896,9.68539743 C33.9147985,8.19399939 30.0238654,8.29007403 27.5477203,9.88630052 Z" fill="url(#linearGradient-8)"></path>
                                        <path d="M53.9313055,16.8241593 C53.9052055,16.8638129 53.8812805,16.8990606 53.8551805,16.9365113 C53.7138055,17.1369825 53.5441555,17.3308447 53.3397055,17.5136921 C53.2135555,17.632653 53.0482555,17.738396 52.8981805,17.8463421 C52.7611555,17.9454761 52.6437055,18.0512192 52.4871055,18.1437444 L31.9029055,30.2601351 C31.5092305,30.4914481 31.0698805,30.6742954 30.6131305,30.8329099 C30.4543555,30.8901875 30.2890555,30.938653 30.1237555,30.9849156 C29.9084305,31.0465991 29.6909305,31.1038765 29.4669055,31.1501391 C29.2080805,31.2052136 28.9470805,31.2536792 28.6817305,31.2889269 C28.6143055,31.2977388 28.5490555,31.3087536 28.4794555,31.3175655 C28.1162305,31.3572192 27.7508305,31.3770461 27.3854305,31.379249 C27.3245305,31.379249 27.2679805,31.381452 27.2092555,31.381452 C26.8460305,31.3770461 26.4828055,31.3594222 26.1239305,31.3219715 C26.0717305,31.3153626 26.0173555,31.3087536 25.9629805,31.3021447 C25.6062805,31.2602881 25.2561055,31.1986046 24.9124555,31.1215003 C24.8515555,31.1082825 24.7906555,31.0906587 24.7297555,31.0752377 C24.4187305,31.0003364 24.1207555,30.9056083 23.8293055,30.7998652 C23.7727555,30.7800384 23.7162055,30.7646176 23.6618305,30.7425878 C23.3116555,30.606003 22.9767055,30.4495914 22.6700305,30.268947 L1.94880551,18.1525563 C0.669905511,17.4035431 0.026105511,16.412202 0.030455511,15.4208609 L-5.48315548e-06,34.9717365 C-0.002169489,35.9630775 0.639455511,36.9544186 1.92053051,37.7034319 L22.6395805,49.8198226 C22.9332055,49.9916551 23.2442305,50.1414577 23.5748305,50.2736365 C23.6835805,50.3132902 23.7423055,50.330914 23.7966805,50.3485379 C23.9815555,50.4190331 24.1686055,50.4873256 24.3643555,50.5446031 C24.4731055,50.5754447 24.5862055,50.5996776 24.6993055,50.6261134 C24.7602055,50.6415342 24.8211055,50.659158 24.8820055,50.6723759 C24.9363805,50.6855938 24.9885805,50.7010146 25.0407805,50.7120296 C25.2539305,50.7560892 25.4714305,50.7957428 25.6867555,50.8265846 C25.7672305,50.8375994 25.8498805,50.8442083 25.9347055,50.8530202 C25.9869055,50.8596292 26.0391055,50.8662382 26.0956555,50.8728471 C26.1717805,50.879456 26.2457305,50.8904709 26.3218555,50.8970798 C26.5350055,50.9147037 26.7503305,50.9279216 26.9656555,50.9323275 C27.0352555,50.9345305 27.1092055,50.9323275 27.1788055,50.9323275 C27.2375305,50.9323275 27.2962555,50.9323275 27.3549805,50.9301246 C27.4485055,50.9301246 27.5420305,50.9323275 27.6355555,50.9301246 C27.8769805,50.9213127 28.1205805,50.9036889 28.3620055,50.881659 C28.5186055,50.8596292 28.5838555,50.8464113 28.6534555,50.8398024 C28.8361555,50.8155696 29.0210305,50.7957428 29.1993805,50.7626981 C29.2798555,50.7472773 29.3538055,50.7186385 29.4364555,50.7032177 C29.6604805,50.656955 29.8779805,50.5974746 30.0954805,50.5357911 C30.2064055,50.5049495 30.3282055,50.4851226 30.4391305,50.4498749 C30.4891555,50.4322511 30.5326555,50.4036123 30.5826805,50.3859885 C31.0394305,50.225171 31.4787805,50.0423236 31.8702805,49.8110106 L52.4566555,37.69462 C52.6632805,37.56905 52.7568055,37.4787279 52.8699055,37.3950146 C53.0221555,37.2870686 53.1831055,37.1813256 53.3092555,37.0667706 C53.5006555,36.8927352 53.6355055,36.7473385 53.7529555,36.5975358 C53.7812305,36.5600851 53.8008055,36.5226345 53.8269055,36.4851838 C53.8530055,36.4499361 53.8747555,36.4146885 53.8986805,36.3772378 C53.9378305,36.3199603 53.9813305,36.2604799 54.0161305,36.2032024 C54.0857305,36.0776325 54.1422805,35.9520626 54.1901305,35.8242898 C54.2140555,35.7383736 54.2205805,35.7119378 54.2271055,35.687705 C54.2532055,35.6083977 54.2814805,35.5290904 54.2967055,35.4497832 C54.3206305,35.3242133 54.3358555,35.1964404 54.3380305,35.0686676 C54.3394805,35.0554498 54.3503555,28.5186644 54.3706555,15.4583116 C54.3706555,15.6852186 54.3271555,15.9121255 54.2597305,16.1368295 C54.1662055,16.4210139 54.0596305,16.625891 53.9313055,16.8241593 Z" id="Fill-4" fill="url(#linearGradient-9)"></path>
                                    </g>
                                </g>
                                <path d="M56.3728446,26.7490109 C56.4174622,27.5345899 55.5958242,28.4212134 54.1385646,29.278824 L33.5543454,41.395226 C31.0917524,42.8431002 27.0526138,42.8484237 24.5827225,41.4036801 L3.86146286,29.287269 C2.5559947,28.5242513 1.54051399,27.1835432 1.5933461,26.2965974 L1.07804113,26.2659026 C1.01137823,27.3850398 2.14531777,28.8821455 3.6009324,29.7329205 L24.322115,41.8492866 C26.9533632,43.3884145 31.1922783,43.3828278 33.8160953,41.8401624 L54.4004075,29.7237057 C56.0128528,28.7747669 56.9476572,27.7660264 56.8882323,26.7197391 L56.3728446,26.7490109 Z" id="Fill-1" fill="#A5ADC1"></path>
                                <polygon id="Rectangle-Copy" fill="#A5ADC1" transform="translate(49.699574, 37.209653) scale(-1, 1) translate(-49.699574, -37.209653) " points="48.7727271 35.1134904 50.6264203 36.196067 50.6264203 39.3058161 48.7727271 38.2232395"></polygon>
                                <polygon id="Rectangle-Copy-3" fill="#A5ADC1" opacity="0.504185268" transform="translate(46.610085, 39.075503) scale(-1, 1) translate(-46.610085, -39.075503) " points="45.6832383 36.9793399 47.5369315 38.0619165 47.5369315 41.1716656 45.6832383 40.089089"></polygon>
                                <polygon id="Rectangle-Copy-2" fill="#A5ADC1" transform="translate(52.789062, 35.343804) scale(-1, 1) translate(-52.789062, -35.343804) " points="51.8622159 33.2476409 53.7159091 34.3302175 53.7159091 37.4399666 51.8622159 36.35739"></polygon>
                                <path d="M24.6628249,1.29592315 C27.2315323,0.0708658804 30.8839536,0.235177313 32.9544024,1.21040009 L33.1628343,1.31415415 C33.3784698,1.42762893 33.9251255,1.73631842 34.7909834,2.23293305 L49.3244367,10.6694543 L53.4621333,13.0617159 C54.0799411,13.4312527 54.5963928,13.7621442 55.0495086,14.0846189 C56.4101543,15.0529667 57.1524554,15.8787004 57.1524554,16.882158 L57.1522022,36.146096 C57.190315,37.8668065 56.7253499,38.6995118 54.6492243,40.1986293 L54.5734602,40.2484264 L34.7229446,51.9301272 C30.8787068,54.1499973 26.5429969,53.9201799 22.942935,51.7018985 L22.6870554,51.5400744 C22.0070546,51.1141958 8.22529318,43.1363348 7.64381361,42.8185613 L7.34945988,42.6653226 C3.36101657,40.5546619 0.791949622,37.7742018 0.791949622,34.6396746 L0.791949622,17.4660406 C0.791949622,16.4043931 1.23473164,15.1864184 2.16212472,14.5021374 L2.41748545,14.336585 C4.63072229,12.9554157 19.5368964,4.21790523 23.694791,1.83951692 L24.6137471,1.32095776 L24.6628249,1.29592315 Z M25.107255,2.22780695 L24.8683393,2.36072404 C22.1779368,3.87582144 4.75427577,14.0661235 2.91165848,15.2421115 L2.77511001,15.3329049 C2.03565826,15.8785126 1.82438633,16.9417155 1.82438633,17.4660406 L1.82438633,34.6396746 L1.83031699,34.8720842 C1.97591753,37.7246211 4.78087079,40.1393791 7.85748325,41.7659189 L8.18357208,41.9384289 C9.27388245,42.5564502 21.2449944,49.4757786 23.0473902,50.5514539 L23.4490933,50.8006712 C26.3947157,52.6222528 30.2419715,53.1866346 33.9303434,51.1905764 L34.2066568,51.0360508 L54.0448236,39.3615956 C55.898133,38.023368 56.1162956,37.4064479 56.1234831,36.4877655 L56.1200187,36.1689583 L56.1200187,16.882158 L56.1114626,16.7685834 C55.9303635,15.5457281 52.9145756,13.9297844 50.904607,12.7800128 L35.0584392,3.57781374 C33.9972489,2.96651547 33.2001863,2.51135497 32.8268645,2.30612309 L32.5591612,2.16651581 C31.1841735,1.51496915 27.7806107,0.952841264 25.107255,2.22780695 Z" id="Path-2" fill="#555A6F"></path>
                            </g>
                        </g>
                    </g>
                    <g id="编组-43" transform="translate(1.000000, 58.000000)">
                        <path d="M28.2951902,0 L31.4953776,3.20886612 L54.1879159,3.19000213 C55.6813377,3.19000213 56.9614118,4.58051079 56.9614118,6.18494385 L57,19.7913329 C57,21.3957659 55.7199258,22.6793124 54.2265041,22.6793124 L2.91875668,23 C1.32808341,23 0.0385879448,21.7070075 0.0385879448,20.1120205 L0,6.50563148 C0,4.90119843 1.280075,3.51068977 2.88016874,3.51068977 L24.7749838,3.20886612 L28.2951902,0 Z" id="路径" stroke="#999FB6" stroke-width="1.1" fill="#FFFFFF" fill-rule="nonzero"></path>
                        <text id="密钥对" font-family="FZLTHJW--GB1-0, FZLanTingHeiS-R-GB" font-size="12" font-weight="normal" fill="#000000">
                            <tspan x="10.5" y="17">密钥对</tspan>
                        </text>
                    </g>
                </g>
                <g id="编组-67" transform="translate(162.000000, 13.000000)">
                    <g id="编组">
                        <g id="正方形">
                            <rect id="矩形" x="0" y="0" width="58" height="58"></rect>
                            <g id="服务器" transform="translate(0.000000, 2.718750)" fill-rule="nonzero">
                                <g id="Group-2" transform="translate(1.812500, 0.906250)">
                                    <g id="Fill-1" transform="translate(0.000000, 0.621949)">
                                        <path d="M52.4265264,13.2355071 C54.9669264,14.7225186 54.9799764,17.1590147 52.4569764,18.6438233 L31.8727764,30.760214 C29.3323764,32.2538345 25.1933514,32.2626464 22.6399014,30.7690259 L1.91867645,18.6526352 C-0.621723547,17.1678266 -0.647823547,14.7225186 1.89040145,13.2288981 L22.4746014,1.12792826 C25.0258764,-0.374504193 29.1518514,-0.374504193 31.7074764,1.11911633 L52.4265264,13.2355071 Z" id="路径" fill="url(#linearGradient-7)"></path>
                                        <path d="M26.7734753,9.27036302 C29.7287486,7.35647459 34.3502266,7.23225954 37.1199814,9.01676963 C40.0063492,10.8755883 39.7510856,14.0373936 36.5663007,15.9725835 C33.6370455,17.752397 29.3009665,17.8303208 26.6057607,16.2298794 L22.3450068,18.896524 L24.5025214,20.4758897 L24.4958501,20.6417552 L23.7575397,21.0959348 L23.6458543,21.0912884 L21.4360068,19.464524 L20.1790068,20.253524 L22.3003951,21.8340728 L22.2930499,21.9994034 L21.5653301,22.4473909 L21.4529103,22.4422361 L19.2820068,20.813524 L17.9213319,21.6667287 L17.8078017,21.6616338 L17.1875,21.1908696 L17.1947044,21.0265691 L25.7699046,15.6305333 C23.8047259,13.9262442 23.9862738,11.4480235 26.2043176,9.6790946 L26.3938663,9.53335753 L26.5818102,9.3987239 L26.7734753,9.27036302 Z M27.5477203,9.88630052 C25.1473192,11.4343198 24.9366832,13.8445755 27.0622172,15.334455 C29.27281,16.882856 33.1750883,16.8837524 35.7428695,15.3163955 C38.3385718,13.7317501 38.5450571,11.1957086 36.2148896,9.68539743 C33.9147985,8.19399939 30.0238654,8.29007403 27.5477203,9.88630052 Z" fill="url(#linearGradient-8)"></path>
                                        <path d="M53.9313055,16.8241593 C53.9052055,16.8638129 53.8812805,16.8990606 53.8551805,16.9365113 C53.7138055,17.1369825 53.5441555,17.3308447 53.3397055,17.5136921 C53.2135555,17.632653 53.0482555,17.738396 52.8981805,17.8463421 C52.7611555,17.9454761 52.6437055,18.0512192 52.4871055,18.1437444 L31.9029055,30.2601351 C31.5092305,30.4914481 31.0698805,30.6742954 30.6131305,30.8329099 C30.4543555,30.8901875 30.2890555,30.938653 30.1237555,30.9849156 C29.9084305,31.0465991 29.6909305,31.1038765 29.4669055,31.1501391 C29.2080805,31.2052136 28.9470805,31.2536792 28.6817305,31.2889269 C28.6143055,31.2977388 28.5490555,31.3087536 28.4794555,31.3175655 C28.1162305,31.3572192 27.7508305,31.3770461 27.3854305,31.379249 C27.3245305,31.379249 27.2679805,31.381452 27.2092555,31.381452 C26.8460305,31.3770461 26.4828055,31.3594222 26.1239305,31.3219715 C26.0717305,31.3153626 26.0173555,31.3087536 25.9629805,31.3021447 C25.6062805,31.2602881 25.2561055,31.1986046 24.9124555,31.1215003 C24.8515555,31.1082825 24.7906555,31.0906587 24.7297555,31.0752377 C24.4187305,31.0003364 24.1207555,30.9056083 23.8293055,30.7998652 C23.7727555,30.7800384 23.7162055,30.7646176 23.6618305,30.7425878 C23.3116555,30.606003 22.9767055,30.4495914 22.6700305,30.268947 L1.94880551,18.1525563 C0.669905511,17.4035431 0.026105511,16.412202 0.030455511,15.4208609 L-5.48315548e-06,34.9717365 C-0.002169489,35.9630775 0.639455511,36.9544186 1.92053051,37.7034319 L22.6395805,49.8198226 C22.9332055,49.9916551 23.2442305,50.1414577 23.5748305,50.2736365 C23.6835805,50.3132902 23.7423055,50.330914 23.7966805,50.3485379 C23.9815555,50.4190331 24.1686055,50.4873256 24.3643555,50.5446031 C24.4731055,50.5754447 24.5862055,50.5996776 24.6993055,50.6261134 C24.7602055,50.6415342 24.8211055,50.659158 24.8820055,50.6723759 C24.9363805,50.6855938 24.9885805,50.7010146 25.0407805,50.7120296 C25.2539305,50.7560892 25.4714305,50.7957428 25.6867555,50.8265846 C25.7672305,50.8375994 25.8498805,50.8442083 25.9347055,50.8530202 C25.9869055,50.8596292 26.0391055,50.8662382 26.0956555,50.8728471 C26.1717805,50.879456 26.2457305,50.8904709 26.3218555,50.8970798 C26.5350055,50.9147037 26.7503305,50.9279216 26.9656555,50.9323275 C27.0352555,50.9345305 27.1092055,50.9323275 27.1788055,50.9323275 C27.2375305,50.9323275 27.2962555,50.9323275 27.3549805,50.9301246 C27.4485055,50.9301246 27.5420305,50.9323275 27.6355555,50.9301246 C27.8769805,50.9213127 28.1205805,50.9036889 28.3620055,50.881659 C28.5186055,50.8596292 28.5838555,50.8464113 28.6534555,50.8398024 C28.8361555,50.8155696 29.0210305,50.7957428 29.1993805,50.7626981 C29.2798555,50.7472773 29.3538055,50.7186385 29.4364555,50.7032177 C29.6604805,50.656955 29.8779805,50.5974746 30.0954805,50.5357911 C30.2064055,50.5049495 30.3282055,50.4851226 30.4391305,50.4498749 C30.4891555,50.4322511 30.5326555,50.4036123 30.5826805,50.3859885 C31.0394305,50.225171 31.4787805,50.0423236 31.8702805,49.8110106 L52.4566555,37.69462 C52.6632805,37.56905 52.7568055,37.4787279 52.8699055,37.3950146 C53.0221555,37.2870686 53.1831055,37.1813256 53.3092555,37.0667706 C53.5006555,36.8927352 53.6355055,36.7473385 53.7529555,36.5975358 C53.7812305,36.5600851 53.8008055,36.5226345 53.8269055,36.4851838 C53.8530055,36.4499361 53.8747555,36.4146885 53.8986805,36.3772378 C53.9378305,36.3199603 53.9813305,36.2604799 54.0161305,36.2032024 C54.0857305,36.0776325 54.1422805,35.9520626 54.1901305,35.8242898 C54.2140555,35.7383736 54.2205805,35.7119378 54.2271055,35.687705 C54.2532055,35.6083977 54.2814805,35.5290904 54.2967055,35.4497832 C54.3206305,35.3242133 54.3358555,35.1964404 54.3380305,35.0686676 C54.3394805,35.0554498 54.3503555,28.5186644 54.3706555,15.4583116 C54.3706555,15.6852186 54.3271555,15.9121255 54.2597305,16.1368295 C54.1662055,16.4210139 54.0596305,16.625891 53.9313055,16.8241593 Z" id="Fill-4" fill="url(#linearGradient-9)"></path>
                                    </g>
                                </g>
                                <path d="M56.3728446,26.7490109 C56.4174622,27.5345899 55.5958242,28.4212134 54.1385646,29.278824 L33.5543454,41.395226 C31.0917524,42.8431002 27.0526138,42.8484237 24.5827225,41.4036801 L3.86146286,29.287269 C2.5559947,28.5242513 1.54051399,27.1835432 1.5933461,26.2965974 L1.07804113,26.2659026 C1.01137823,27.3850398 2.14531777,28.8821455 3.6009324,29.7329205 L24.322115,41.8492866 C26.9533632,43.3884145 31.1922783,43.3828278 33.8160953,41.8401624 L54.4004075,29.7237057 C56.0128528,28.7747669 56.9476572,27.7660264 56.8882323,26.7197391 L56.3728446,26.7490109 Z" id="Fill-1" fill="#A5ADC1"></path>
                                <polygon id="Rectangle-Copy" fill="#A5ADC1" transform="translate(49.699574, 37.209653) scale(-1, 1) translate(-49.699574, -37.209653) " points="48.7727271 35.1134904 50.6264203 36.196067 50.6264203 39.3058161 48.7727271 38.2232395"></polygon>
                                <polygon id="Rectangle-Copy-3" fill="#A5ADC1" opacity="0.504185268" transform="translate(46.610085, 39.075503) scale(-1, 1) translate(-46.610085, -39.075503) " points="45.6832383 36.9793399 47.5369315 38.0619165 47.5369315 41.1716656 45.6832383 40.089089"></polygon>
                                <polygon id="Rectangle-Copy-2" fill="#A5ADC1" transform="translate(52.789062, 35.343804) scale(-1, 1) translate(-52.789062, -35.343804) " points="51.8622159 33.2476409 53.7159091 34.3302175 53.7159091 37.4399666 51.8622159 36.35739"></polygon>
                                <path d="M24.6628249,1.29592315 C27.2315323,0.0708658804 30.8839536,0.235177313 32.9544024,1.21040009 L33.1628343,1.31415415 C33.3784698,1.42762893 33.9251255,1.73631842 34.7909834,2.23293305 L49.3244367,10.6694543 L53.4621333,13.0617159 C54.0799411,13.4312527 54.5963928,13.7621442 55.0495086,14.0846189 C56.4101543,15.0529667 57.1524554,15.8787004 57.1524554,16.882158 L57.1522022,36.146096 C57.190315,37.8668065 56.7253499,38.6995118 54.6492243,40.1986293 L54.5734602,40.2484264 L34.7229446,51.9301272 C30.8787068,54.1499973 26.5429969,53.9201799 22.942935,51.7018985 L22.6870554,51.5400744 C22.0070546,51.1141958 8.22529318,43.1363348 7.64381361,42.8185613 L7.34945988,42.6653226 C3.36101657,40.5546619 0.791949622,37.7742018 0.791949622,34.6396746 L0.791949622,17.4660406 C0.791949622,16.4043931 1.23473164,15.1864184 2.16212472,14.5021374 L2.41748545,14.336585 C4.63072229,12.9554157 19.5368964,4.21790523 23.694791,1.83951692 L24.6137471,1.32095776 L24.6628249,1.29592315 Z M25.107255,2.22780695 L24.8683393,2.36072404 C22.1779368,3.87582144 4.75427577,14.0661235 2.91165848,15.2421115 L2.77511001,15.3329049 C2.03565826,15.8785126 1.82438633,16.9417155 1.82438633,17.4660406 L1.82438633,34.6396746 L1.83031699,34.8720842 C1.97591753,37.7246211 4.78087079,40.1393791 7.85748325,41.7659189 L8.18357208,41.9384289 C9.27388245,42.5564502 21.2449944,49.4757786 23.0473902,50.5514539 L23.4490933,50.8006712 C26.3947157,52.6222528 30.2419715,53.1866346 33.9303434,51.1905764 L34.2066568,51.0360508 L54.0448236,39.3615956 C55.898133,38.023368 56.1162956,37.4064479 56.1234831,36.4877655 L56.1200187,36.1689583 L56.1200187,16.882158 L56.1114626,16.7685834 C55.9303635,15.5457281 52.9145756,13.9297844 50.904607,12.7800128 L35.0584392,3.57781374 C33.9972489,2.96651547 33.2001863,2.51135497 32.8268645,2.30612309 L32.5591612,2.16651581 C31.1841735,1.51496915 27.7806107,0.952841264 25.107255,2.22780695 Z" id="Path-2" fill="#555A6F"></path>
                            </g>
                        </g>
                    </g>
                    <g id="编组-43" transform="translate(1.000000, 58.000000)">
                        <path d="M28.2951902,0 L31.4953776,3.20886612 L54.1879159,3.19000213 C55.6813377,3.19000213 56.9614118,4.58051079 56.9614118,6.18494385 L57,19.7913329 C57,21.3957659 55.7199258,22.6793124 54.2265041,22.6793124 L2.91875668,23 C1.32808341,23 0.0385879448,21.7070075 0.0385879448,20.1120205 L0,6.50563148 C0,4.90119843 1.280075,3.51068977 2.88016874,3.51068977 L24.7749838,3.20886612 L28.2951902,0 Z" id="路径" stroke="#999FB6" stroke-width="1.1" fill="#FFFFFF" fill-rule="nonzero"></path>
                        <text id="密钥对" font-family="FZLTHJW--GB1-0, FZLanTingHeiS-R-GB" font-size="12" font-weight="normal" fill="#000000">
                            <tspan x="10.5" y="17">密钥对</tspan>
                        </text>
                    </g>
                </g>
            </g>
            <g id="编组-59" transform="translate(2324.000000, 724.000000)">
                <g id="ren-ya-" transform="translate(6.000000, 0.000000)">
                    <g id="多人">
                        <g id="编组-3">
                            <g id="编组-2">
                                <g id="Group-12" transform="translate(16.339130, 26.500000) scale(-1, 1) translate(-16.339130, -26.500000) translate(0.839130, 0.000000)">
                                    <path d="M9.89716164,47.8285293 L9.4767781,48.0690684 L9.89891798,48.3096074 L10.317232,48.0704777 L9.89716164,47.8285293 Z M25.3485368,38.9871276 L24.9278852,39.2278738 L25.3499649,39.4683555 L25.7685892,39.2290241 L25.3485368,38.9871276 Z M25.2940282,40.5223042 L10.6831821,48.8822018 L9.84207709,49.3634574 L9.00959745,49.8397778 L5.08484993,52.0856311 L0.753994127,49.681221 L0.75263187,49.2051706 C0.751723699,42.7743718 0.751723699,36.7953379 0.75263187,31.2680688 C0.753540041,25.7407997 3.8364647,21.7509494 10.0014058,19.2985181 L8.14333385,18.2283223 C4.72421502,16.4115433 5.54982722,10.9041998 7.90439056,6.50870184 C10.2589539,2.11320387 14.9769414,-0.398751183 17.1968639,0.726327837 C19.4167863,1.85140686 20.6437453,2.2754277 22.7783504,3.8480552 C23.8137035,4.6108308 24.5049746,5.92883131 24.5049746,8.02514963 C24.5049746,9.07644414 24.088227,11.0188703 23.2547319,13.852428 C23.4913468,13.0963808 23.7583249,12.7865641 24.0556662,12.9229777 C25.1769509,13.4373983 26.5967518,14.2380501 28.3150692,15.3249331 C29.4604052,15.9656382 30.0892143,17.2749101 30.0941137,18.9397328 L30.0962336,37.7734655 L26.1345999,40.0407757 L25.2940282,40.5223042 Z" id="Combined-Shape" stroke="#555A6F" stroke-width="1.08"></path>
                                    <polygon id="Fill-1" fill="#D5E0F3" fill-rule="nonzero" points="25.3472911 39.9469443 21.4107822 37.6796291 21.3644244 21.4353335 25.3009331 23.7026489"></polygon>
                                    <polygon id="Fill-2" fill="#D5E0F3" fill-rule="nonzero" points="9.89582389 48.7882561 5.95931511 46.5209408 5.91295724 30.2766454 9.84946601 32.5439606"></polygon>
                                    <path d="M25.9544107,15.8706727 C26.0225511,15.8501915 26.0906916,15.8302639 26.157715,15.8147647 C26.2202702,15.7992654 26.2822669,15.7865339 26.343705,15.7749096 C26.4252501,15.7599639 26.5056783,15.7477859 26.5849893,15.7389292 C26.6302301,15.7339473 26.6760294,15.7284119 26.7201532,15.7256442 C26.8223639,15.718448 26.921782,15.7167874 27.0195244,15.7201088 C27.0390729,15.7212157 27.05918,15.7195551 27.0787285,15.7206622 C27.1943439,15.7273048 27.3060496,15.7422505 27.4149626,15.7632851 C27.442889,15.7688205 27.470257,15.7760166 27.4976249,15.7821056 C27.5825212,15.8014796 27.6657419,15.825282 27.7461701,15.8535128 C27.7718623,15.862923 27.7986717,15.8706727 27.8238055,15.8806364 C27.9271333,15.9210451 28.0271099,15.9669892 28.1226182,16.0217901 L24.1855509,13.7544748 C24.1777316,13.7494929 24.1693536,13.744511 24.1604171,13.7400827 C24.0866914,13.6985669 24.0096144,13.6614795 23.9308619,13.6288204 C23.9168987,13.6227313 23.9018185,13.6188565 23.8872967,13.6138747 C23.8616043,13.6033573 23.8353536,13.5956078 23.8096612,13.5861975 C23.7694472,13.5723589 23.7303503,13.5563061 23.6890191,13.5441282 C23.647688,13.5325037 23.6041228,13.5247541 23.561116,13.5147904 C23.5337482,13.5087013 23.5063803,13.5015053 23.4784539,13.4959699 C23.4628151,13.4932022 23.4482934,13.4882202 23.4326546,13.4854525 C23.3427314,13.4699533 23.2505743,13.4594359 23.1567415,13.4539005 C23.1517147,13.453347 23.146688,13.4539005 23.1422197,13.4539005 C23.1226712,13.4527934 23.1025642,13.4539005 23.0830157,13.453347 C23.0076143,13.4505793 22.9327715,13.4478116 22.8551361,13.4511328 C22.8316778,13.4522399 22.8076611,13.4566682 22.7842029,13.4583288 C22.7389621,13.4610966 22.6937213,13.466632 22.6484805,13.4716139 C22.6043568,13.4765959 22.5613501,13.4777029 22.5161093,13.484899 C22.4803634,13.4904344 22.442942,13.5015053 22.4066377,13.5081478 C22.3451996,13.5192187 22.2837614,13.5325037 22.2212062,13.5468959 C22.1865774,13.5557525 22.1525072,13.5596274 22.1173199,13.5690376 C22.0849253,13.5778944 22.0508551,13.5933936 22.0179019,13.6033573 C21.9128985,13.6343558 21.8073366,13.6708896 21.6995407,13.7118519 C21.6610022,13.7267976 21.6241393,13.7351007 21.5856008,13.7511535 C21.5643767,13.7594567 21.5425941,13.7732952 21.5219285,13.782152 C21.3364972,13.8618623 21.148273,13.9509828 20.9572563,14.0605845 C14.9076123,17.0705859 10.5915837,19.3144103 8.00917051,20.7920576 C7.70006348,20.9689275 6.41078066,21.7080554 5.1366585,22.8300198 C4.0646806,23.7739803 2.9935859,25.0723331 2.62373387,25.7072522 C1.66047131,27.3608698 1.23327132,29.4665594 1.22416646,29.5300255 C1.2191397,29.5637917 1.21076177,29.598665 1.20629355,29.6329847 C1.20238385,29.6639831 1.20405943,29.6938745 1.20014973,29.7243193 C1.16887214,29.9883597 1.14764806,30.2501859 1.14864767,30.5053697 L1.20238385,49.2428262 L5.13889261,51.5101416 L5.08527388,32.7726849 C5.08471535,32.5175013 5.10538091,32.2556751 5.1366585,31.9916347 C5.1444779,31.92687 5.15118024,31.862659 5.16067523,31.7967873 C5.17743108,31.6805431 5.19865516,31.5631918 5.22155483,31.445287 C5.23775216,31.3617019 5.2522739,31.2781168 5.2718224,31.1939781 C5.28857825,31.1175891 5.30868527,31.0412 5.32823378,30.964811 C5.35560166,30.8574235 5.38352809,30.750036 5.41536422,30.6420949 C5.43379566,30.5806516 5.45278562,30.5186547 5.47289265,30.4566578 C5.51087259,30.3354318 5.5522037,30.2142056 5.59576892,30.0935331 C5.61364183,30.0448212 5.63039768,29.9966629 5.64882912,29.9479511 C5.71138432,29.7818879 5.77840774,29.6163784 5.85045791,29.4525294 C5.86051142,29.4298341 5.87168199,29.4076923 5.8817355,29.3849971 C5.94596628,29.2416292 6.01410675,29.098815 6.08503987,28.9576613 C6.10793954,28.9122706 6.13139774,28.8668801 6.15485593,28.8214895 C6.22634758,28.6842107 6.30063187,28.5480389 6.37826733,28.4135277 C6.39223054,28.3880648 6.40563523,28.3626017 6.4207155,28.3371388 C6.51231416,28.1804858 6.60838106,28.0266007 6.70779913,27.8749296 C6.73684261,27.8300926 6.76700315,27.7869162 6.79716369,27.7431862 C6.86977239,27.6346917 6.94517374,27.5273041 7.02169214,27.4221308 C7.06358178,27.3640088 7.10658847,27.3069937 7.14959517,27.2505323 C7.21606006,27.1625188 7.28475906,27.0767195 7.35401659,26.9914738 C7.41266208,26.9184061 7.4718661,26.8464453 7.53218717,26.7761453 C7.58915709,26.70972 7.64780257,26.6449554 7.70588954,26.5807443 C7.80530761,26.4705891 7.90640127,26.3643087 8.00917051,26.2602425 C8.07228422,26.196585 8.13595647,26.1323739 8.20074577,26.0709305 C8.25101334,26.0227722 8.3012809,25.9762745 8.35266552,25.9297769 C8.43756185,25.8533878 8.52301672,25.7792129 8.60958863,25.7072522 C8.66097325,25.6640759 8.71235787,25.621453 8.76430103,25.5804907 C8.85813381,25.5057623 8.95364218,25.4354623 9.04970907,25.3668229 C9.09494988,25.3347173 9.13963216,25.3003975 9.1854315,25.2688456 C9.32785627,25.172529 9.47139808,25.0806407 9.61717402,24.9970556 L24.8932065,16.3278997 C25.0847818,16.2182981 25.2730059,16.1291775 25.4584374,16.0494672 C25.5181999,16.0240043 25.5768454,16.0018624 25.6360494,15.9791672 C25.7432869,15.938205 25.8494073,15.901671 25.9544107,15.8706727 Z" id="Fill-6" fill="url(#linearGradient-10)" fill-rule="nonzero"></path>
                                    <path d="M24.6976666,16.3680832 C27.1937304,14.9393867 29.4098246,15.9192798 29.4182026,18.7661554 L29.4712628,37.503612 L25.3472351,39.9468336 L25.3008773,23.7025382 L24.5094425,24.1553369 L24.5558003,40.4001859 L9.89610315,48.7880347 L9.84974527,32.5442927 L9.05440071,32.9987522 L9.10075858,49.2430476 L5.1385575,51.510363 L5.08463641,32.7723528 C5.07711936,29.9254772 7.11742392,26.4276341 9.61739743,24.997277 L24.6976666,16.3680832 Z" id="Fill-3" stroke="#A5ADC1" stroke-width="0.54" fill="#E5EAF3" fill-rule="nonzero"></path>
                                    <path d="M10.7022273,14.2125284 C10.7273611,14.0403763 10.7586387,13.8676706 10.7921504,13.6949649 C10.8144915,13.5770601 10.8351571,13.4591553 10.8619665,13.340697 C10.8865417,13.2305417 10.9155852,13.1203866 10.9435116,13.0102313 C10.9826086,12.8557927 11.0228227,12.7019074 11.0680635,12.5480223 C11.0943143,12.4589017 11.1222407,12.3697812 11.1501672,12.2801071 C11.2049029,12.1068479 11.2635484,11.9341423 11.3255451,11.7619901 C11.3512374,11.690583 11.3758127,11.6197294 11.402622,11.5488758 C11.4931037,11.3102984 11.588612,11.0728281 11.6924983,10.8370185 C11.7042274,10.8098948 11.7176321,10.7833247 11.7299197,10.7556476 C11.8237525,10.5453009 11.9237291,10.3360614 12.0281739,10.1284825 C12.0605685,10.0637178 12.0940803,9.99839968 12.127592,9.9341886 C12.2292442,9.73768057 12.3353646,9.54283316 12.4459533,9.35019993 C12.4671773,9.31366604 12.4872843,9.27547152 12.5085085,9.23893762 C12.6403211,9.01419885 12.7782776,8.79333489 12.9201439,8.57579219 C12.961475,8.51213466 13.0050403,8.45013775 13.0474885,8.38758731 C13.1524918,8.23148797 13.2608463,8.0776028 13.3708764,7.92593181 C13.4306389,7.84400732 13.49096,7.76263639 13.5523981,7.68237254 C13.6484651,7.55561103 13.7473246,7.43217077 13.8467426,7.30928404 C13.9310804,7.20577137 14.0154182,7.10281222 14.1014317,7.00206725 C14.1829768,6.90685772 14.2661975,6.815523 14.3499769,6.72308119 C14.4924016,6.56587476 14.6370605,6.41254314 14.7850706,6.26363987 C14.8777862,6.17064451 14.9699435,6.07709562 15.0643348,5.98742152 C15.1369434,5.9187821 15.2101107,5.85124976 15.2838365,5.78427096 C15.4055957,5.67411574 15.529589,5.5672818 15.6546994,5.46376912 C15.7284252,5.40232576 15.8021509,5.34032885 15.8769937,5.28109967 C16.0127162,5.17371218 16.1501142,5.07296721 16.2880707,4.97443643 C16.3539771,4.92683166 16.4193249,4.87701273 16.4863483,4.83162213 C16.6913282,4.69212911 16.8985423,4.55983214 17.1091076,4.4391596 C17.3118534,4.32346895 17.5112481,4.22383108 17.7089671,4.13083573 C17.7603518,4.1064798 17.812295,4.0837845 17.8636795,4.0610892 C17.9731511,4.01237736 18.0803886,3.97307575 18.1881847,3.93155997 C18.3440141,3.87233078 18.498168,3.81919058 18.6495291,3.77435354 C18.7467131,3.74501572 18.843897,3.71678498 18.9394055,3.69408969 C19.0298871,3.67194793 19.1192516,3.65312745 19.2080576,3.63707467 C19.3247901,3.61548647 19.4398469,3.59721953 19.5532283,3.58393448 C19.6191346,3.57673841 19.685041,3.56898879 19.7498303,3.56456044 C19.8922551,3.5551502 20.0318871,3.55182894 20.1687266,3.55625728 C20.2005627,3.55736438 20.233516,3.5551502 20.2647936,3.55736438 C20.4306765,3.56622107 20.5915327,3.58725574 20.7479206,3.6171471 C20.7864591,3.62489672 20.8244391,3.6348605 20.862419,3.64316366 C20.9858537,3.67139439 21.1059374,3.70571411 21.2226699,3.7461228 C21.2589742,3.75885431 21.2963956,3.77047873 21.3321415,3.78487087 C21.4807101,3.84243942 21.6248103,3.90775758 21.7610913,3.9863608 C18.9825022,1.78667256 16.8141288,0.82714545 15.2559709,1.10777946 C12.9187342,1.52873048 10.0383911,4.14144839 9.1891891,5.46376912 C8.33998707,6.78608985 7.5551794,8.57579219 7.25532706,9.9341886 C6.72983089,12.3148007 6.78052896,14.8818565 7.25532706,16.2069631 C7.67685076,17.383387 8.45120858,17.6562657 8.63442686,17.7617931 L12.5012476,19.7778575 C11.3277792,19.1019805 10.5994581,17.6649809 10.5938728,15.6235114 C10.5933142,15.3877018 10.6044848,15.1485709 10.6229163,14.9072258 C10.6285015,14.8308368 10.6379965,14.7533406 10.6458159,14.6763981 C10.6608962,14.522513 10.6798862,14.3675206 10.7022273,14.2125284 Z" id="Fill-8" fill="url(#linearGradient-11)" fill-rule="nonzero"></path>
                                    <path d="M17.1089958,4.43932566 C20.7215581,2.37239323 23.6549497,4.02914973 23.6668322,8.14308702 C23.6789664,12.2531495 20.7640063,17.2605064 17.1520026,19.3274389 C13.5427915,21.3921572 10.6054902,19.7331865 10.5936214,15.6236775 C10.582032,11.5097402 13.5003433,6.50404392 17.1089958,4.43932566" id="Fill-10" stroke="#BCC0CD" stroke-width="0.54" fill="#E5EAF3" fill-rule="nonzero"></path>
                                </g>
                            </g>
                        </g>
                    </g>
                </g>
                <g id="编组-43" transform="translate(0.000000, 55.000000)">
                    <path d="M22.2951902,0 L25.4953776,3.20886612 L42.1879159,3.19000213 C43.6813377,3.19000213 44.9614118,4.58051079 44.9614118,6.18494385 L45,19.7913329 C45,21.3957659 43.7199258,22.6793124 42.2265041,22.6793124 L2.91875668,23 C1.32808341,23 0.0385879448,21.7070075 0.0385879448,20.1120205 L0,6.50563148 C0,4.90119843 1.280075,3.51068977 2.88016874,3.51068977 L18.7749838,3.20886612 L22.2951902,0 Z" id="路径" stroke="#999FB6" stroke-width="1.1" fill="#FFFFFF" fill-rule="nonzero"></path>
                    <text id="用户" font-family="FZLTHJW--GB1-0, FZLanTingHeiS-R-GB" font-size="12" font-weight="normal" fill="#000000">
                        <tspan x="10.5" y="17">用户</tspan>
                    </text>
                </g>
            </g>
            <g id="编组-53" transform="translate(2322.000000, 1059.000000)">
                <path d="M119.7321,0.2679 L0.2679,0.2679 L0.2679,103.6821 L119.7321,103.6821 L119.7321,0.2679 Z" id="矩形" stroke="#AEB3C8" stroke-width="0.5358" fill-opacity="0.5" fill="#FFFFFF" fill-rule="nonzero"></path>
                <g id="编组-44" transform="translate(33.000000, 12.000000)">
                    <g id="编组-43" transform="translate(1.000000, 57.000000)">
                        <path d="M25.2951902,0 L28.4953776,3.20886612 L48.1879159,3.19000213 C49.6813377,3.19000213 50.9614118,4.58051079 50.9614118,6.18494385 L51,19.7913329 C51,21.3957659 49.7199258,22.6793124 48.2265041,22.6793124 L2.91875668,23 C1.32808341,23 0.0385879448,21.7070075 0.0385879448,20.1120205 L0,6.50563148 C0,4.90119843 1.280075,3.51068977 2.88016874,3.51068977 L21.7749838,3.20886612 L25.2951902,0 Z" id="路径" stroke="#999FB6" stroke-width="1.1" fill="#FFFFFF" fill-rule="nonzero"></path>
                        <text id="KMS" font-family="FZLTHJW--GB1-0, FZLanTingHeiS-R-GB" font-size="12" font-weight="normal" fill="#000000">
                            <tspan x="10.125" y="17">KMS</tspan>
                        </text>
                    </g>
                    <g id="编组">
                        <g id="盾牌">
                            <g id="编组-+-Fill-1-蒙版">
                                <mask id="mask-13" fill="white">
                                    <use xlink:href="#path-12"></use>
                                </mask>
                                <g id="蒙版"></g>
                                <g id="编组" mask="url(#mask-13)">
                                    <g transform="translate(2.531250, -2.500000)">
                                        <g>
                                            <rect id="矩形" x="10.125" y="0" width="54" height="54"></rect>
                                            <polygon id="路径-27" fill="url(#linearGradient-14)" fill-rule="nonzero" points="15.4660519 6.75 13.3090883 8.17510612 6.24077592 14.6879072 3.94296993 17.8404389 2.41727833 21.3612967 1.14969701 26.0377085 0.84375 28.9520758 1.59257473 34.4294134 3.05499808 36.8325993 9.40600164 37.8126526 23.5425353 38.6681844 28.1593949 37.8126526 33.8571639 35.4249815 37.5281326 34.0026549 41.7791946 31.2494788 45.1692846 29.7108851 46.3578814 28.9520758 47.4465385 28.2321476 48.4460354 26.9424023 48.4460354 26.0377085 46.3578814 24.1614203 42.9135902 20.0842453 40.6623287 16.4791642 39.5353247 14.1689156 39.1328088 11.1059976 38.0909199 10.626334 36.3554081 10.0031668 32.9162752 9.69149399 29.5430352 9.42737408 23.9216314 8.58876758 19.48419 7.55531909 16.3844489 6.75"></polygon>
                                            <path d="M20.0547253,16.0173124 C23.0099986,14.103424 27.6314766,13.9792089 30.4012314,15.763719 C33.2875992,17.6225377 33.0323356,20.784343 29.8475507,22.7195329 C26.9182955,24.4993464 22.5822165,24.5772702 19.8870107,22.9768288 L15.6262568,25.6434735 L17.7837714,27.2228391 L17.7771001,27.3887046 L17.0387897,27.8428842 L16.9271043,27.8382378 L14.7172568,26.2114735 L13.4602568,27.0004735 L15.5816451,28.5810222 L15.5742999,28.7463528 L14.8465801,29.1943403 L14.7341603,29.1891855 L12.5632568,27.5604735 L11.2025819,28.4136781 L11.0890517,28.4085832 L10.46875,27.937819 L10.4759544,27.7735185 L19.0511546,22.3774827 C17.0859759,20.6731936 17.2675238,18.1949729 19.4855676,16.426044 L19.6751163,16.2803069 L19.8630602,16.1456733 L20.0547253,16.0173124 Z M20.8289703,16.6332499 C18.4285692,18.1812692 18.2179332,20.5915249 20.3434672,22.0814044 C22.55406,23.6298054 26.4563383,23.6307019 29.0241195,22.063345 C31.6198218,20.4786995 31.8263071,17.9426581 29.4961396,16.4323468 C27.1960485,14.9409488 23.3051154,15.0370234 20.8289703,16.6332499 Z" id="Fill-1" fill="url(#linearGradient-8)" fill-rule="nonzero"></path>
                                            <path d="M1.30984594,31.4577386 C1.46572102,32.6601485 1.53095135,34.3395792 2.741069,35.7286064 C4.44280062,36.4490538 16.0873136,37.9141995 21.2364002,37.6199659 C26.3854867,37.3257324 29.9367602,36.0657111 33.2936141,34.7450424 C36.6504679,33.4243737 41.2252536,31.0850965 42.6557891,30.224258 C43.6094794,29.6503656 45.5313463,28.294363 48.4213898,26.15625 L48.4213898,41.8948123 C42.8271397,45.6262327 38.245346,48.2356114 34.6760087,49.7229482 C29.3220029,51.9539535 26.5447753,52.2704073 21.9552132,52.6734806 C17.3656512,53.0765537 6.33929301,51.8181735 4.73727246,51.4303834 C3.13525191,51.0425934 2.72783559,50.8114314 2.51744535,50.3230663 C2.3070551,49.8347013 0.84375,47.5781418 0.84375,39.6852256 C0.84375,34.4232814 0.84375,29.9136228 0.84375,26.15625 C1.34347326,28.8229223 1.15397086,30.2553287 1.30984594,31.4577386 Z" id="路径-26" fill="url(#linearGradient-15)" fill-rule="nonzero"></path>
                                            <path d="M1.07163669,39.2828975 L0.615863309,39.4872488 L1.18843839,40.7440295 L1.50719125,41.4210324 C2.21657588,42.9043429 2.6873045,43.7157918 2.96028878,43.9116485 C3.52195229,44.3146226 8.08535901,45.0674761 11.6883049,45.339596 L11.9324137,45.3573949 C20.0625952,45.9284932 27.2127932,45.5443534 33.5730979,43.1256653 C38.8872008,41.1048255 43.9163643,38.3274585 48.6601252,34.7940389 L48.3617524,34.3934611 C43.6546456,37.8995789 38.6660683,40.6545319 33.3955571,42.6587948 C27.1222359,45.0444048 20.0295684,45.4254539 11.9674136,44.8591341 L11.2494494,44.8029873 L10.7575579,44.7585967 C7.45098862,44.4455189 3.66288061,43.8009861 3.25146443,43.5058093 C2.98982587,43.3180927 2.22804068,41.8620747 1.07163669,39.2828975 Z" id="路径-13" fill="#999FB6" fill-rule="nonzero"></path>
                                            <path d="M16.1052627,6.35366772 L16.1834245,6.36806611 C16.3778811,6.40560888 16.6583859,6.47104548 17.0563659,6.57000486 L18.8164964,7.01583548 L19.6592109,7.22100262 C19.7815813,7.2496616 19.8957744,7.27572953 20.0030859,7.2994715 L21.7985842,7.68611719 C23.0194299,7.94365156 24.156303,8.16831996 25.0153245,8.31818051 L25.4660708,8.39400971 L27.8888725,8.77700821 C28.5197459,8.87284133 28.9416717,8.93082991 29.3347497,8.97751544 L29.9380247,9.04338827 L31.5931037,9.19205297 L31.9491886,9.21635069 L33.2352815,9.28107779 L34.6209831,9.35826159 C36.5251594,9.49378438 37.6619349,9.74162531 38.3548271,10.2971965 C38.8378994,10.684531 39.1048045,11.1404838 39.3657844,11.9287885 L39.4310276,12.1329413 L39.7709052,13.2805663 L39.9321402,13.7865129 C39.9594097,13.8682797 39.9871797,13.9496274 40.0159031,14.0318456 C40.319665,14.9013382 40.6956127,15.7569502 41.2074341,16.6920198 C42.0699626,18.2678122 43.0673537,19.7156432 44.1476952,21.0376347 C44.873243,21.9254727 45.4394188,22.5352263 46.1617531,23.2607492 C46.4119813,23.5120818 46.6589197,23.7474561 46.9214276,23.9868202 L47.1898235,24.2282527 L48.0061656,24.9419632 L48.2513545,25.165311 C48.6955183,25.5840841 48.8679182,25.8488252 48.8679182,26.2025784 L48.8679182,40.0144986 C48.8679182,41.266036 48.251177,42.4371885 47.2192024,43.1452717 L46.3169613,43.75805 C43.4972946,45.6529148 41.0331667,47.1145773 38.9233373,48.1429924 L35.7831105,49.6379209 C35.6574339,49.6968886 35.5413857,49.7509455 35.440265,49.7974931 L34.9857061,50.0009275 C30.0764269,52.1441091 24.340119,53.1096642 14.328905,52.8162918 L13.2196484,52.7792896 L11.7644281,52.6332085 C4.93711407,51.9269522 2.86643416,51.3879962 2.26592572,50.6032658 C1.43289216,49.5146769 0.421875,45.6303293 0.421875,41.0919742 L0.42289779,29.2821337 C0.852352158,23.1259749 2.75852472,18.1872719 6.14626842,14.4818299 L6.82863631,13.7419634 C9.85939248,10.4854191 12.351209,8.21270544 14.2919748,6.9352176 C14.909584,6.45596305 15.5172828,6.25129431 16.1052627,6.35366772 Z M15.9605344,7.18491243 C15.6349095,7.12821776 15.2544147,7.25636576 14.78274,7.62078398 C12.8827179,8.87282708 10.432853,11.1075219 7.44242226,14.3209532 L6.76898767,15.0511584 C3.51788346,18.6071469 1.68147066,23.3651094 1.265625,29.3114924 L1.265625,41.0919742 C1.265625,43.5888304 1.54921388,45.7805898 2.02738906,47.6177482 C2.347267,48.8467254 2.75512772,49.8541541 2.93599187,50.0905032 C3.09044979,50.2923452 3.36628617,50.444974 4.28524843,50.6756986 L4.79033399,50.7946745 C6.26638505,51.1197255 8.6211637,51.4585369 12.0472749,51.814081 L13.2763221,51.9378269 L14.3703533,51.9742794 C24.2426479,52.2635174 29.8576392,51.3187916 34.6473189,49.2280046 L35.2014148,48.9783701 C35.277549,48.9430224 35.3600502,48.9044641 35.4471435,48.8635651 L38.2325901,47.5389287 C40.5874684,46.4220393 43.424955,44.7254029 46.7418345,42.4495461 C47.5444812,41.898815 48.0241682,40.9879198 48.0241682,40.0145012 L48.0241682,26.2025784 C48.0241682,26.1503712 47.9185206,26.010404 47.6368792,25.7465754 L47.3141851,25.4575759 C47.1876033,25.3471787 46.9995689,25.1835495 46.8441309,25.0476615 L46.3519941,24.6094473 C46.0803061,24.3616928 45.8239688,24.117353 45.5638193,23.8560551 C44.8236966,23.1126654 44.2404532,22.4845304 43.4943569,21.5715477 C42.38279,20.2113462 41.3562704,18.721232 40.4673038,17.0971388 C39.9325913,16.1202481 39.5380204,15.2222519 39.2193627,14.3101212 C39.1293658,14.0525129 39.0486124,13.8039787 38.964523,13.5288975 L38.7621057,12.8441217 L38.5661848,12.1980821 C38.3529499,11.5523202 38.1589728,11.221642 37.8270126,10.9554715 C37.3143307,10.5443956 36.275699,10.3231564 34.547523,10.1991987 L34.0082203,10.1648372 L32.1751843,10.0744225 L31.7897172,10.0517464 C31.6137974,10.0403274 31.4582143,10.0284519 31.3009911,10.0146113 L29.5121161,9.84703525 L28.7945546,9.75988744 C28.1676956,9.6766245 27.3582155,9.55204583 25.8490808,9.31011013 L24.8745453,9.1501094 L24.310119,9.04845727 C23.4170079,8.88312504 22.3258046,8.66234537 21.1854203,8.41845244 L19.6518183,8.08534929 C19.4183395,8.03208968 19.154603,7.96890006 18.8500486,7.89363297 L17.1979791,7.47552602 L16.423586,7.28447234 L16.1097967,7.2139255 L15.9605344,7.18491243 Z" id="路径-25" stroke="#555A6F" stroke-width="0.2" fill="#555A6F" fill-rule="nonzero"></path>
                                        </g>
                                    </g>
                                </g>
                            </g>
                        </g>
                    </g>
                </g>
            </g>
            <g id="编组-54" transform="translate(2322.000000, 1034.000000)">
                <polygon id="矩形" fill-opacity="0.5" fill="#BEC5DF" fill-rule="nonzero" points="0 0 79 0 79 25.2 0 25.2"></polygon>
                <text id="加密存储" font-family="FZLTZHJW--GB1-0, FZLanTingHeiS-DB-GB" font-size="13.65" font-weight="normal" fill="#000000">
                    <tspan x="12" y="17">加密存储</tspan>
                </text>
            </g>
            <g id="编组-54" transform="translate(2229.000000, 823.000000)">
                <polygon id="矩形" fill-opacity="0.5" fill="#BEC5DF" fill-rule="nonzero" points="0 0 52 0 52 25.2 0 25.2"></polygon>
                <text id="登录" font-family="FZLTZHJW--GB1-0, FZLanTingHeiS-DB-GB" font-size="13.65" font-weight="normal" fill="#000000">
                    <tspan x="12" y="17">登录</tspan>
                </text>
            </g>
            <g id="编组-54" transform="translate(2367.000000, 823.000000)">
                <polygon id="矩形" fill-opacity="0.5" fill="#BEC5DF" fill-rule="nonzero" points="0 0 125 0 125 25.2 0 25.2"></polygon>
                <text id="创建/导入密钥对" font-family="FZLTZHJW--GB1-0, FZLanTingHeiS-DB-GB" font-size="13.65" font-weight="normal" fill="#000000">
                    <tspan x="13" y="17">创建/导入密钥对</tspan>
                </text>
            </g>
            <g id="编组-54" transform="translate(2474.000000, 766.000000)">
                <polygon id="矩形" fill-opacity="0.5" fill="#BEC5DF" fill-rule="nonzero" points="0 0 79 0 79 25.2 0 25.2"></polygon>
                <text id="获取私钥" font-family="FZLTZHJW--GB1-0, FZLanTingHeiS-DB-GB" font-size="13.65" font-weight="normal" fill="#000000">
                    <tspan x="12" y="17">获取私钥</tspan>
                </text>
            </g>
            <path id="路径-41" d="M2420.2998,1010 L2420.299,1052.659 L2423.99699,1052.65978 L2419.8755,1060.65978 L2415.75401,1052.65978 L2419.451,1052.659 L2419.4512,1010 L2420.2998,1010 Z" fill="#575D6C" fill-rule="nonzero"></path>
            <line x1="2344.56118" y1="802" x2="2344.56118" y2="849" id="路径-42" stroke="#575D6C" stroke-width="0.848596072"></line>
            <path id="路径-43" d="M2491.9243,848.575702 L2491.924,892.444 L2495.62149,892.444444 L2491.5,900.444444 L2487.37851,892.444444 L2491.075,892.444 L2491.075,849.424 L2228.924,849.424 L2228.924,892.444 L2232.62149,892.444444 L2228.5,900.444444 L2224.37851,892.444444 L2228.075,892.444 L2228.0757,848.575702 L2491.9243,848.575702 Z" fill="#575D6C" fill-rule="nonzero"></path>
            <path id="路径-44" d="M2376.11097,796.12149 L2368.11097,792 L2376.11097,787.87851 L2376.11,791.575 L2552.97972,791.575702 L2552.97972,900 L2552.13112,900 L2552.131,792.424 L2376.11,792.424 L2376.11097,796.12149 Z" fill="#575D6C" fill-rule="nonzero"></path>
        </g>
    </g>
</svg>