<?xml version="1.0" encoding="UTF-8"?>
<svg width="70px" height="70px" viewBox="0 0 70 70" version="1.1" xmlns="http://www.w3.org/2000/svg" xmlns:xlink="http://www.w3.org/1999/xlink">
    <title>服务管理</title>
    <defs>
        <linearGradient x1="22.3038737%" y1="77.4981689%" x2="100%" y2="18.5262044%" id="linearGradient-1">
            <stop stop-color="#CF0010" offset="0%"></stop>
            <stop stop-color="#FF8888" offset="100%"></stop>
        </linearGradient>
    </defs>
    <g id="页面-1" stroke="none" stroke-width="1" fill="none" fill-rule="evenodd">
        <g id="SDSF-产品中心（AI在线服务）" transform="translate(-927.000000, -1536.000000)">
            <g id="产品与服务备份" transform="translate(360.000000, 1405.000000)">
                <g id="编组-6备份-7" transform="translate(409.000000, 100.000000)">
                    <g id="服务管理" transform="translate(158.000000, 31.000000)">
                        <rect id="矩形" x="0" y="0" width="70" height="70"></rect>
                        <g id="编组-9" transform="translate(10.000000, 10.000000)">
                            <circle id="椭圆形备份" stroke="#FFC8C8" fill="url(#linearGradient-1)" cx="32.5" cy="17.5" r="17"></circle>
                            <circle id="椭圆形" stroke-opacity="0.3" stroke="#FFC8C8" cx="22.5" cy="27.5" r="22"></circle>
                            <path d="M24.6470588,33.4 L24.6470588,35.9411765 L23.5882353,35.9411765 L23.5882353,32.6588235 C27.0823529,31.9176471 29.7294118,29.0588235 29.9411765,25.4588235 L31,25.4588235 C30.7882353,29.1647059 28.1411765,32.3411765 24.6470588,33.4 L24.6470588,33.4 Z M19.3529412,33.4 C15.8588235,32.3411765 13.2117647,29.1647059 13,25.3529412 L14.0588235,25.3529412 C14.2705882,28.9529412 16.917647,31.9176471 20.4117647,32.5529412 L20.4117647,35.9411765 L19.3529412,35.9411765 L19.3529412,33.4 L19.3529412,33.4 Z M24.5411765,19 C26.4470588,19 27.8235294,20.3764706 27.8235294,22.2823529 C27.8235294,23.9764706 26.4470588,25.5647059 25.3882353,26.6235294 C24.6470588,27.3647059 23.5882353,28.1058824 22,28.8470588 C20.4117647,28 19.2470588,27.2588235 18.6117647,26.6235294 C17.5529412,25.5647059 16.1764706,23.9764706 16.1764706,22.2823529 C16.1764706,20.3764706 17.5529412,19 19.4588235,19 C20.5176471,19 21.3647059,19.4235294 22,20.2705882 C22.7411765,19.4235294 23.5882353,19 24.5411765,19 Z M24.6470588,25.8823529 C25.9176471,24.6117647 26.7647059,23.3411765 26.7647059,22.2823529 C26.7647059,20.9058823 25.8117647,20.0588235 24.5411765,20.0588235 C24.0117647,20.0588235 23.5882353,20.2705882 23.2705882,20.4823529 C23.0588235,20.5882353 22.9529412,20.6941176 22.8470588,20.9058824 L22,21.9647059 L21.1529412,20.9058824 C21.0470588,20.6941177 20.9411765,20.5882353 20.7294118,20.4823529 C20.4117647,20.2705882 19.9882353,20.0588235 19.4588235,20.0588235 C18.0823529,20.0588235 17.2352941,20.9058824 17.2352941,22.2823529 C17.2352941,23.3411765 18.0823529,24.6117647 19.3529412,25.8823529 C19.8823529,26.4117647 20.8352941,27.0470588 22,27.6823529 C23.1647059,27.0470588 24.117647,26.4117647 24.6470588,25.8823529 L24.6470588,25.8823529 Z" id="形状" stroke="#CF0010" stroke-width="1.2" fill="#CF0010" fill-rule="nonzero"></path>
                        </g>
                    </g>
                </g>
            </g>
        </g>
    </g>
</svg>