<?xml version="1.0" encoding="UTF-8"?>
<svg width="70px" height="70px" viewBox="0 0 70 70" version="1.1" xmlns="http://www.w3.org/2000/svg" xmlns:xlink="http://www.w3.org/1999/xlink">
    <title>版本管理</title>
    <defs>
        <linearGradient x1="100%" y1="15.5380661%" x2="14.4115551%" y2="100%" id="linearGradient-1">
            <stop stop-color="#FF8888" offset="0%"></stop>
            <stop stop-color="#CF0010" offset="100%"></stop>
        </linearGradient>
    </defs>
    <g id="页面-1" stroke="none" stroke-width="1" fill="none" fill-rule="evenodd">
        <g id="SDSF-产品中心（AI在线服务）" transform="translate(-1336.000000, -1536.000000)">
            <g id="产品与服务备份" transform="translate(360.000000, 1405.000000)">
                <g id="编组-6备份-8" transform="translate(818.000000, 100.000000)">
                    <g id="版本管理" transform="translate(158.000000, 31.000000)">
                        <rect id="矩形" x="0" y="0" width="70" height="70"></rect>
                        <g id="编组-7" transform="translate(9.000000, 10.000000)">
                            <rect id="矩形" stroke="#FFC8C8" fill="url(#linearGradient-1)" x="15.5" y="15.5" width="34" height="34" rx="5"></rect>
                            <rect id="矩形" stroke-opacity="0.302418529" stroke="#FFC8C8" x="0.5" y="0.5" width="39" height="39" rx="5"></rect>
                            <g id="切换版本" transform="translate(11.000000, 11.000000)" fill-rule="nonzero">
                                <rect id="矩形" fill="#000000" opacity="0" x="0" y="0" width="18" height="18"></rect>
                                <path d="M7.9453125,1.38691406 L2.54179687,1.38691406 C2.07597656,1.38691406 1.69804687,1.76484375 1.69804687,2.23066406 L1.69804687,7.903125 C1.69804687,8.36894531 2.07597656,8.746875 2.54179687,8.746875 L7.9453125,8.746875 C8.41113281,8.746875 8.7890625,8.36894531 8.7890625,7.903125 L8.7890625,2.23066406 C8.7890625,1.76484375 8.409375,1.38691406 7.9453125,1.38691406 Z M7.5234375,7.48125 L2.96367188,7.48125 L2.96367188,2.65253906 L7.5234375,2.65253906 L7.5234375,7.48125 Z M15.4458984,9.2390625 L10.0423828,9.2390625 C9.5765625,9.2390625 9.19863281,9.61699219 9.19863281,10.0828125 L9.19863281,15.7552734 C9.19863281,16.2210938 9.5765625,16.5990234 10.0423828,16.5990234 L15.4458984,16.5990234 C15.9117187,16.5990234 16.2896484,16.2210938 16.2896484,15.7552734 L16.2896484,10.0828125 C16.2896484,9.61699219 15.9117187,9.2390625 15.4458984,9.2390625 L15.4458984,9.2390625 Z M15.0240234,15.3333984 L10.4642578,15.3333984 L10.4642578,10.5046875 L15.0240234,10.5046875 L15.0240234,15.3333984 L15.0240234,15.3333984 Z M7.34238281,15.3333984 C7.33183594,15.3333984 6.22792969,15.3263672 5.12402344,14.7638672 C3.97089844,14.1767578 3.27480469,13.2117188 3.04628906,11.8880859 L3.45058594,11.8880859 C3.58417969,11.8880859 3.66855469,11.7439453 3.60527344,11.6279297 L2.53300781,9.68554688 C2.46621094,9.56425781 2.2921875,9.56425781 2.22539063,9.68554688 L1.153125,11.6279297 C1.08808594,11.7457031 1.17246094,11.8880859 1.3078125,11.8880859 L1.76660156,11.8880859 C2.07773438,14.1539063 3.41015625,15.3105469 4.54921875,15.890625 C5.92207031,16.5902344 7.28613281,16.5990234 7.34238281,16.5990234 C7.6921875,16.5990234 7.97519531,16.3160156 7.97519531,15.9662109 C7.97519531,15.6164063 7.6921875,15.3333984 7.34238281,15.3333984 Z M16.6921875,6.10136719 L16.2333984,6.10136719 C15.9205078,3.83378906 14.5898438,2.67890625 13.4490234,2.09882813 C12.0761719,1.39921875 10.7121094,1.39042969 10.6558594,1.39042969 C10.3060547,1.39042969 10.0230469,1.6734375 10.0230469,2.02324219 C10.0230469,2.37304688 10.3060547,2.65605469 10.6558594,2.65605469 C10.6664063,2.65605469 11.7703125,2.66308594 12.8742188,3.22558594 C14.0273438,3.81269531 14.7234375,4.77773438 14.9519531,6.10136719 L14.5476563,6.10136719 C14.4140625,6.10136719 14.3296875,6.24550781 14.3929688,6.36152344 L15.4652344,8.30390625 C15.5320313,8.42519531 15.7060547,8.42519531 15.7728516,8.30390625 L16.8451172,6.36152344 C16.9119141,6.24550781 16.8275391,6.10136719 16.6921875,6.10136719 L16.6921875,6.10136719 Z" id="形状" stroke="#CF0010" stroke-width="0.5" fill="#CF0010"></path>
                            </g>
                        </g>
                    </g>
                </g>
            </g>
        </g>
    </g>
</svg>