<?xml version="1.0" encoding="UTF-8"?>
<svg width="70px" height="70px" viewBox="0 0 70 70" version="1.1" xmlns="http://www.w3.org/2000/svg" xmlns:xlink="http://www.w3.org/1999/xlink">
    <title>日志查询</title>
    <defs>
        <linearGradient x1="6.67669508%" y1="17.5540123%" x2="95.2956729%" y2="82.4459877%" id="linearGradient-1">
            <stop stop-color="#FF8888" offset="0%"></stop>
            <stop stop-color="#D10716" offset="100%"></stop>
            <stop stop-color="#CF0010" offset="100%"></stop>
        </linearGradient>
    </defs>
    <g id="页面-1" stroke="none" stroke-width="1" fill="none" fill-rule="evenodd">
        <g id="SDSF-产品中心（AI在线服务）" transform="translate(-517.000000, -1811.000000)">
            <g id="产品与服务备份" transform="translate(360.000000, 1405.000000)">
                <g id="编组-6备份-11" transform="translate(0.000000, 375.000000)">
                    <g id="日志查询" transform="translate(157.000000, 31.000000)">
                        <rect id="矩形" x="0" y="0" width="70" height="70"></rect>
                        <g id="编组-7" transform="translate(35.000000, 35.000000) rotate(-270.000000) translate(-35.000000, -35.000000) translate(9.000000, 10.000000)">
                            <rect id="矩形" stroke="#FFC8C8" fill="url(#linearGradient-1)" x="9.5" y="0.5" width="35" height="28" rx="5"></rect>
                            <rect id="矩形" stroke-opacity="0.302418529" stroke="#FFC8C8" x="0.5" y="10.5" width="51" height="39" rx="5"></rect>
                            <g id="工具" transform="translate(16.000000, 20.000000)"></g>
                            <rect id="矩形" fill="#000000" fill-rule="nonzero" opacity="0" x="16" y="20" width="21" height="21"></rect>
                            <path d="M33.5113636,23.219697 L22.0363636,23.219697 C21.4150433,23.219697 20.9113636,22.7160173 20.9113636,22.094697 C20.9113636,21.4733766 21.4150433,20.969697 22.0363636,20.969697 L33.5113636,20.969697 C34.132684,20.969697 34.6363636,21.4733766 34.6363636,22.094697 C34.6363636,22.7160173 34.132684,23.219697 33.5113636,23.219697 L33.5113636,23.219697 Z M33.5113636,30.194697 L22.0363636,30.194697 C21.4150433,30.194697 20.9113636,29.6910173 20.9113636,29.069697 C20.9113636,28.4483766 21.4150433,27.944697 22.0363636,27.944697 L33.5113636,27.944697 C34.132684,27.944697 34.6363636,28.4483766 34.6363636,29.069697 C34.6363636,29.6910173 34.132684,30.194697 33.5113636,30.194697 L33.5113636,30.194697 Z M33.5113636,36.944697 L22.0363636,36.944697 C21.4150433,36.944697 20.9113636,36.4410173 20.9113636,35.819697 C20.9113636,35.1983766 21.4150433,34.694697 22.0363636,34.694697 L33.5113636,34.694697 C34.132684,34.694697 34.6363636,35.1983766 34.6363636,35.819697 C34.6363636,36.4410173 34.132684,36.944697 33.5113636,36.944697 L33.5113636,36.944697 Z M17.9863636,23.219697 L17.7613636,23.219697 C17.1400433,23.219697 16.6363636,22.7160173 16.6363636,22.094697 C16.6363636,21.4733766 17.1400433,20.969697 17.7613636,20.969697 L17.9863636,20.969697 C18.607684,20.969697 19.1113636,21.4733766 19.1113636,22.094697 C19.1113636,22.7160173 18.607684,23.219697 17.9863636,23.219697 L17.9863636,23.219697 Z M17.9863636,30.194697 L17.7613636,30.194697 C17.1400433,30.194697 16.6363636,29.6910173 16.6363636,29.069697 C16.6363636,28.4483766 17.1400433,27.944697 17.7613636,27.944697 L17.9863636,27.944697 C18.607684,27.944697 19.1113636,28.4483766 19.1113636,29.069697 C19.1113636,29.6910173 18.607684,30.194697 17.9863636,30.194697 L17.9863636,30.194697 Z M17.9863636,36.944697 L17.7613636,36.944697 C17.1400433,36.944697 16.6363636,36.4410173 16.6363636,35.819697 C16.6363636,35.1983766 17.1400433,34.694697 17.7613636,34.694697 L17.9863636,34.694697 C18.607684,34.694697 19.1113636,35.1983766 19.1113636,35.819697 C19.1113636,36.4410173 18.607684,36.944697 17.9863636,36.944697 L17.9863636,36.944697 Z" id="形状" fill="#CF0010" fill-rule="nonzero" transform="translate(25.636364, 28.957197) rotate(-90.000000) translate(-25.636364, -28.957197) "></path>
                        </g>
                    </g>
                </g>
            </g>
        </g>
    </g>
</svg>