<?xml version="1.0" encoding="UTF-8"?>
<svg width="60px" height="60px" viewBox="0 0 60 60" version="1.1" xmlns="http://www.w3.org/2000/svg" xmlns:xlink="http://www.w3.org/1999/xlink">
    <title>网络延迟大</title>
    <g id="页面-1" stroke="none" stroke-width="1" fill="none" fill-rule="evenodd">
        <g id="SDSF-行业场景" transform="translate(-360.000000, -825.000000)" fill-rule="nonzero">
            <g id="编组-8" transform="translate(360.000000, 725.000000)">
                <g id="网络延迟大" transform="translate(0.000000, 100.000000)">
                    <rect id="矩形" fill="#000000" opacity="0" x="0" y="0" width="60" height="60"></rect>
                    <g id="意见" transform="translate(3.000000, 4.000000)">
                        <rect id="矩形" fill="#000000" opacity="0" x="0" y="0" width="53" height="53"></rect>
                        <path d="M26.5,8.83333335 C16.7424791,8.83333335 8.83333335,16.7424791 8.83333335,26.5 C8.83333335,36.2575209 16.7424792,44.1666666 26.5,44.1666666 C36.2575208,44.1666666 44.1666666,36.2575208 44.1666666,26.5 C44.1666666,16.7424792 36.2575209,8.83333335 26.5,8.83333335 Z M4.41666665,26.5 C4.41666665,14.303375 14.303375,4.41666665 26.5,4.41666665 C38.696625,4.41666665 48.5833334,14.303375 48.5833334,26.5 C48.5833334,38.696625 38.696625,48.5833334 26.5,48.5833334 C14.303375,48.5833334 4.41666665,38.696625 4.41666665,26.5 Z" id="形状" fill="#3C3C3C"></path>
                        <path d="M24.2916666,28.7083334 L24.2916666,17.6666666 L28.7083334,17.6666666 L28.7083334,28.7083334 L24.2916666,28.7083334 Z M24.2916666,35.3333334 L24.2916666,30.9166666 L28.7083334,30.9166666 L28.7083334,35.3333334 L24.2916666,35.3333334 Z" id="形状" fill="#CF0010"></path>
                    </g>
                </g>
            </g>
        </g>
    </g>
</svg>