<?xml version="1.0" encoding="UTF-8"?>
<svg width="60px" height="60px" viewBox="0 0 60 60" version="1.1" xmlns="http://www.w3.org/2000/svg" xmlns:xlink="http://www.w3.org/1999/xlink">
    <title>画质要求高</title>
    <g id="页面-1" stroke="none" stroke-width="1" fill="none" fill-rule="evenodd">
        <g id="SDSF-行业场景" transform="translate(-1176.000000, -825.000000)" fill-rule="nonzero">
            <g id="编组-8" transform="translate(360.000000, 725.000000)">
                <g id="编组-7" transform="translate(0.000000, 100.000000)">
                    <g id="画质要求高" transform="translate(816.000000, 0.000000)">
                        <rect id="矩形" fill="#000000" opacity="0" x="0" y="0" width="60" height="60"></rect>
                        <g id="看板" transform="translate(3.000000, 4.000000)">
                            <rect id="矩形" fill="#000000" opacity="0" x="0" y="0" width="53" height="53"></rect>
                            <path d="M23.1875,13.25 L23.1875,18.7708334 C23.1875,20.6002766 24.6705568,22.0833334 26.5,22.0833334 C28.3294432,22.0833334 29.8125,20.6002766 29.8125,18.7708334 L29.8125,13.25 L34.2291666,13.25 L34.2291666,18.7708334 C34.2291666,23.0395342 30.7687009,26.5 26.5,26.5 C22.2312991,26.5 18.7708334,23.0395342 18.7708334,18.7708334 L18.7708334,13.25 L23.1875,13.25 L23.1875,13.25 Z" id="路径" fill="#CF0010"></path>
                            <path d="M6.625,13.25 C6.625,12.0303712 7.61370452,11.0416666 8.83333335,11.0416666 L44.1666666,11.0416666 C45.3862955,11.0416666 46.375,12.0303712 46.375,13.25 L46.375,37.5416666 C46.375,38.7612955 45.3862955,39.75 44.1666666,39.75 L8.83333335,39.75 C7.61370452,39.75 6.625,38.7612955 6.625,37.5416666 L6.625,13.25 Z M11.0416666,15.4583334 L11.0416666,35.3333334 L41.9583334,35.3333334 L41.9583334,15.4583334 L11.0416666,15.4583334 Z" id="形状" fill="#3C3C3C"></path>
                            <path d="M25.1440834,36.9023541 C25.9415867,36.2819775 27.0584133,36.2819775 27.8559166,36.9023541 L39.5357916,45.9874375 L36.8250625,49.4743959 L26.5,41.4437916 L16.1760416,49.4743959 L13.4631041,45.9874375 L25.1451875,36.9023541 L25.1440834,36.9023541 Z M28.7083334,4.41666665 L28.7083334,13.25 L24.2916666,13.25 L24.2916666,4.41666665 L28.7083334,4.41666665 Z" id="形状" fill="#3C3C3C"></path>
                        </g>
                    </g>
                </g>
            </g>
        </g>
    </g>
</svg>