<?xml version="1.0" encoding="UTF-8"?>
<svg width="60px" height="60px" viewBox="0 0 60 60" version="1.1" xmlns="http://www.w3.org/2000/svg" xmlns:xlink="http://www.w3.org/1999/xlink">
    <title>消息触达不及时</title>
    <g id="页面-1" stroke="none" stroke-width="1" fill="none" fill-rule="evenodd">
        <g id="SDSF-行业场景" transform="translate(-360.000000, -825.000000)" fill-rule="nonzero">
            <g id="编组-8" transform="translate(360.000000, 725.000000)">
                <g id="消息触达不及时" transform="translate(0.000000, 100.000000)">
                    <rect id="矩形" fill="#000000" opacity="0" x="0" y="0" width="60" height="60"></rect>
                    <g id="静音" transform="translate(3.000000, 4.000000)">
                        <rect id="矩形" fill="#000000" opacity="0" x="0" y="0" width="53" height="53"></rect>
                        <path d="M27.4462709,6.83810415 C28.2169969,7.20361699 28.7083334,7.98032789 28.7083334,8.83333335 L28.7083334,44.1666666 C28.7083334,45.0201815 28.2169042,45.7974079 27.4455937,46.1628774 C26.6742833,46.5283468 25.7614217,46.4166184 25.1010209,45.8759166 L13.5668959,36.4375 L6.625,36.4375 C5.40537117,36.4375 4.41666665,35.4487955 4.41666665,34.2291666 L4.41666665,18.7708334 C4.41666665,17.5512045 5.40537117,16.5625 6.625,16.5625 L13.5657916,16.5625 L25.1010209,7.12408335 C25.7613059,6.58351627 26.6739474,6.4717467 27.4451666,6.837 L27.4462709,6.83810415 Z M24.2916666,13.4929166 L15.7531459,20.4800834 C15.3584336,20.8029853 14.8641308,20.979327 14.3541666,20.9791666 L8.83333335,20.9791666 L8.83333335,32.0208334 L14.3541666,32.0208334 C14.8641308,32.020673 15.3584336,32.1970147 15.7531459,32.5199166 L24.2916666,39.5070834 L24.2916666,13.4929166 Z" id="形状" fill="#3C3C3C"></path>
                        <polygon id="路径" fill="#CF0010" points="36.9498334 19.4730834 47.8810834 30.4043334 44.7573959 33.5269166 33.8261459 22.5956666 36.9509375 19.4730834"></polygon>
                        <polygon id="路径" fill="#CF0010" points="47.8810834 22.5967709 36.9498334 33.5280209 33.82725 30.4032291 44.7585 19.4730834 47.8810834 22.5967709"></polygon>
                    </g>
                </g>
            </g>
        </g>
    </g>
</svg>