<?xml version="1.0" encoding="UTF-8"?>
<svg width="60px" height="60px" viewBox="0 0 60 60" version="1.1" xmlns="http://www.w3.org/2000/svg" xmlns:xlink="http://www.w3.org/1999/xlink">
    <title>稳定性差</title>
    <g id="页面-1" stroke="none" stroke-width="1" fill="none" fill-rule="evenodd">
        <g id="SDSF-行业场景" transform="translate(-360.000000, -825.000000)" fill-rule="nonzero">
            <g id="编组-8" transform="translate(360.000000, 725.000000)">
                <g id="稳定性差" transform="translate(0.000000, 100.000000)">
                    <rect id="矩形" fill="#000000" opacity="0" x="0" y="0" width="60" height="60"></rect>
                    <g id="云错误" transform="translate(3.000000, 4.000000)">
                        <rect id="矩形" fill="#000000" opacity="0" x="0" y="0" width="53" height="53"></rect>
                        <path d="M26.5,10.4785416 C20.968125,10.4785416 16.3725834,14.50875 15.4980834,19.7932916 L15.2518541,21.2839166 L13.7722709,21.5930834 C10.0782219,22.370696 7.30304897,25.435487 6.89474689,29.1883485 C6.48644481,32.9412099 8.53760542,36.5310941 11.978,38.0849166 L13.9897916,38.99475 L12.1690209,43.0183334 L10.1572291,42.1085 C5.60475,40.048125 2.42916665,35.463625 2.42916665,30.1316041 C2.42916665,24.3148541 6.20872915,19.3836458 11.4446875,17.6545209 C13.2025209,10.9809375 19.2743334,6.06077085 26.5,6.06077085 C32.1445,6.06077085 37.0845416,9.0663125 39.8118334,13.5525416 L40.9590625,15.4406666 L37.1850209,17.7340209 L36.0366875,15.8458959 C34.0155628,12.511719 30.3989326,10.4762391 26.5,10.4785416 Z M43.5538541,18.4616666 L44.3886041,18.9839375 C48.2359509,21.383611 50.5731068,25.5983391 50.570835,30.1327084 C50.570835,36.6108542 45.7831667,42.062125 39.6395834,43.1563541 L39.4485625,43.1905834 L19.4333334,43.1905834 L23.85,38.7739166 L39.0466459,38.7739166 C43.0514584,37.9711875 46.1541667,34.350625 46.1541666,30.1327084 C46.15582,27.1213373 44.6027524,24.3224756 42.0466666,22.730375 L40.3484584,21.6681666 L43.5538541,18.4627709 L43.5538541,18.4616666 Z" id="形状" fill="#3C3C3C"></path>
                        <polygon id="路径" fill="#CF0010" points="5.372875 45.91125 43.566 7.718125 46.6885834 10.8429166 8.49545835 49.0349375 5.372875 45.9123541"></polygon>
                    </g>
                </g>
            </g>
        </g>
    </g>
</svg>