<?xml version="1.0" encoding="UTF-8"?>
<svg width="70px" height="70px" viewBox="0 0 70 70" version="1.1" xmlns="http://www.w3.org/2000/svg" xmlns:xlink="http://www.w3.org/1999/xlink">
    <title>云服务器管理</title>
    <defs>
        <linearGradient x1="22.3038737%" y1="77.4981689%" x2="100%" y2="18.5262044%" id="linearGradient-1">
            <stop stop-color="#CF0010" offset="0%"></stop>
            <stop stop-color="#FF8888" offset="100%"></stop>
        </linearGradient>
    </defs>
    <g id="页面-1" stroke="none" stroke-width="1" fill="none" fill-rule="evenodd">
        <g id="SDSF-产品中心（专属主机）" transform="translate(-990.000000, -1934.000000)">
            <g id="产品优势备份" transform="translate(360.000000, 1835.000000)">
                <g id="编组-6备份-6" transform="translate(610.000000, 99.000000)">
                    <g id="云服务器管理" transform="translate(20.000000, 0.000000)">
                        <rect id="矩形" x="0" y="0" width="70" height="70"></rect>
                        <g id="编组-9" transform="translate(10.000000, 10.000000)">
                            <circle id="椭圆形备份" stroke="#FFC8C8" fill="url(#linearGradient-1)" cx="32.5" cy="17.5" r="17"></circle>
                            <circle id="椭圆形" stroke-opacity="0.3" stroke="#FFC8C8" cx="22.5" cy="27.5" r="22"></circle>
                            <path d="M26.2141963,25.8637461 L18.2857508,25.8637461 C18.1949041,25.8637461 18.1205749,25.9380753 18.1205749,26.028922 L18.1205749,34.3290134 C18.1205749,34.4198601 18.1949041,34.4941893 18.2857508,34.4941893 L26.2141963,34.4941893 C26.305043,34.4941893 26.3793722,34.4198601 26.3793722,34.3290134 L26.3793722,26.028922 C26.3793722,25.9380753 26.305043,25.8637461 26.2141963,25.8637461 Z M19.4419825,27.1851537 L25.0579647,27.1851537 L25.0579647,29.6008519 L19.4419825,29.6008519 L19.4419825,27.1851537 Z M25.0579647,33.1727817 L19.4419825,33.1727817 L19.4419825,30.7570835 L25.0579647,30.7570835 L25.0579647,33.1727817 Z M20.4330382,32.0991381 C20.4330382,32.4640347 20.7288453,32.7598419 21.0937419,32.7598419 C21.4586386,32.7598419 21.7544457,32.4640347 21.7544457,32.0991381 C21.7544457,31.7342415 21.4586386,31.4384343 21.0937419,31.4384343 C20.7288453,31.4384343 20.4330382,31.7342415 20.4330382,32.0991381 Z M20.4330382,28.4239733 C20.4330382,28.7888699 20.7288453,29.0846771 21.0937419,29.0846771 C21.4586386,29.0846771 21.7544457,28.7888699 21.7544457,28.4239733 C21.7544457,28.0590766 21.4586386,27.7632695 21.0937419,27.7632695 C20.7288453,27.7632695 20.4330382,28.0590766 20.4330382,28.4239733 Z M28.4316834,24.2718629 C27.4860511,21.7756414 25.0765469,20 22.254103,20 C19.431659,20 17.0221549,21.7735767 16.0765226,24.2697982 C14.2988164,24.738485 12.9897971,26.3634033 13.0000599,28.2918325 C13.0125088,30.4473786 14.6849152,32.2003083 16.7909085,32.388196 C16.8879494,32.3964548 16.9705374,32.3200609 16.9705374,32.22302 L16.9705374,30.9759416 C16.9705374,30.8933537 16.9085964,30.8231539 16.8260084,30.8128304 C16.2685396,30.7426306 15.7420413,30.4989961 15.3373602,30.1005091 C14.8418324,29.6153048 14.5692921,28.9628598 14.5692921,28.2711855 C14.5692921,27.6930697 14.7571797,27.1479891 15.1102433,26.6937552 C15.4550481,26.2519096 15.9402524,25.9318812 16.4750095,25.7914816 L17.2575306,25.5850117 L17.5445238,24.827267 C17.7220879,24.3565156 17.9698519,23.9146699 18.2816214,23.516183 C18.5892616,23.1197607 18.9547134,22.7728912 19.3635239,22.4838333 C20.2121153,21.8871352 21.2114298,21.5712362 22.254103,21.5712362 C23.2967761,21.5712362 24.2960906,21.8871352 25.144682,22.485898 C25.5555572,22.7749559 25.9189443,23.1218254 26.2265845,23.5182477 C26.5383541,23.9167346 26.786118,24.3585803 26.9636821,24.8293317 L27.2486106,25.5850117 L28.029067,25.7914816 C29.148134,26.0887983 29.9306551,27.1066951 29.9306551,28.2691208 C29.9306551,28.9628598 29.6581148,29.6132401 29.1625869,30.0984444 C28.7599706,30.4948667 28.2355369,30.7405659 27.6780681,30.8107657 C27.5954801,30.8210892 27.5356038,30.891289 27.5356038,30.9738769 L27.5356038,32.22302 C27.5356038,32.3200609 27.6202565,32.3964548 27.7172974,32.388196 C29.8170966,32.1982436 31.4853737,30.4473786 31.4999139,28.2959619 C31.5122148,26.3675327 30.2052601,24.7426144 28.4316834,24.2718629 L28.4316834,24.2718629 Z" id="形状" stroke="#CF0010" stroke-width="0.2" fill="#CF0010" fill-rule="nonzero"></path>
                        </g>
                    </g>
                </g>
            </g>
        </g>
    </g>
</svg>