<?xml version="1.0" encoding="UTF-8"?>
<svg width="70px" height="70px" viewBox="0 0 70 70" version="1.1" xmlns="http://www.w3.org/2000/svg" xmlns:xlink="http://www.w3.org/1999/xlink">
    <title>自动放置策略</title>
    <defs>
        <linearGradient x1="100%" y1="27.6369704%" x2="14.4115551%" y2="82.4459877%" id="linearGradient-1">
            <stop stop-color="#FF8888" offset="0%"></stop>
            <stop stop-color="#CF0010" offset="100%"></stop>
        </linearGradient>
    </defs>
    <g id="页面-1" stroke="none" stroke-width="1" fill="none" fill-rule="evenodd">
        <g id="SDSF-产品中心（专属主机）" transform="translate(-380.000000, -2078.000000)">
            <g id="产品优势备份" transform="translate(360.000000, 1835.000000)">
                <g id="编组-6备份-3" transform="translate(0.000000, 243.000000)">
                    <g id="自动放置策略" transform="translate(20.000000, 0.000000)">
                        <rect id="矩形" x="0" y="0" width="70" height="70"></rect>
                        <g id="编组-7" transform="translate(9.000000, 10.000000)">
                            <rect id="矩形" stroke="#FFC8C8" fill="url(#linearGradient-1)" x="9.5" y="0.5" width="35" height="28" rx="5"></rect>
                            <rect id="矩形" stroke-opacity="0.302418529" stroke="#FFC8C8" x="0.5" y="10.5" width="51" height="39" rx="5"></rect>
                            <g id="工具" transform="translate(16.000000, 20.000000)"></g>
                            <rect id="矩形" fill="#000000" fill-rule="nonzero" opacity="0" x="16" y="20" width="21" height="21"></rect>
                            <path d="M17,29.25 C17,24.1413661 21.1413661,20 26.25,20 C31.3586339,20 35.5,24.1413661 35.5,29.25 C35.5,34.3586339 31.3586339,38.5 26.25,38.5 C21.1413661,38.5 17,34.3586339 17,29.25 Z M18.5412813,29.25 C18.5412813,33.5074078 21.9925922,36.9587188 26.25,36.9587188 C30.5074078,36.9587188 33.9587188,33.5074078 33.9587188,29.25 C33.9587188,24.9925922 30.5074078,21.5412813 26.25,21.5412813 C21.9925922,21.5412813 18.5412813,24.9925922 18.5412813,29.25 Z M28.160125,26.9987813 L26.2430625,24.9105938 L27.2987187,23.8537813 L31.6462187,28.5365938 L30.102625,28.53775 L30.102625,28.5458437 L20.852625,28.5458437 L20.852625,26.9987813 L28.160125,26.9987813 Z M24.3248438,31.5914062 L26.2187813,33.6703438 L25.0740938,34.6265625 L20.8503125,30.0535938 L22.6297813,30.0443438 L31.6439063,30.0443438 L31.6439063,31.5914063 L24.3248437,31.5914063 L24.3248438,31.5914062 Z" id="形状" stroke="#CF0010" stroke-width="0.5" fill="#CF0010" fill-rule="nonzero"></path>
                        </g>
                    </g>
                </g>
            </g>
        </g>
    </g>
</svg>