<?xml version="1.0" encoding="UTF-8"?>
<svg width="60px" height="60px" viewBox="0 0 60 60" version="1.1" xmlns="http://www.w3.org/2000/svg" xmlns:xlink="http://www.w3.org/1999/xlink">
    <title>高算力</title>
    <g id="页面-1" stroke="none" stroke-width="1" fill="none" fill-rule="evenodd">
        <g id="SDSF-产品中心（智能AI边缘盒子）" transform="translate(-380.000000, -2841.000000)" fill-rule="nonzero">
            <g id="产品优势" transform="translate(361.000000, 2741.000000)">
                <g id="编组-6" transform="translate(0.000000, 100.000000)">
                    <g id="高算力" transform="translate(19.000000, 0.000000)">
                        <rect id="矩形" fill="#000000" opacity="0" x="0" y="0" width="60" height="60"></rect>
                        <g id="CPU" transform="translate(5.000000, 5.000000)">
                            <rect id="矩形" fill="#000000" opacity="0" x="0" y="0" width="50" height="50"></rect>
                            <path d="M20.8333333,4.16666665 L20.8333333,8.33333335 L29.1666667,8.33333335 L29.1666667,4.16666665 L33.3333333,4.16666665 L33.3333333,8.33333335 L35.4166667,8.33333335 C38.8684463,8.33333335 41.6666667,11.1315537 41.6666667,14.5833333 L41.6666667,16.6666667 L45.8333333,16.6666667 L45.8333333,20.8333333 L41.6666667,20.8333333 L41.6666667,29.1666667 L45.8333333,29.1666667 L45.8333333,33.3333333 L41.6666667,33.3333333 L41.6666667,35.4166667 C41.6666667,38.8684463 38.8684463,41.6666667 35.4166667,41.6666667 L33.3333333,41.6666667 L33.3333333,45.8333333 L29.1666667,45.8333333 L29.1666667,41.6666667 L20.8333333,41.6666667 L20.8333333,45.8333333 L16.6666667,45.8333333 L16.6666667,41.6666667 L14.5833333,41.6666667 C11.1315537,41.6666667 8.33333335,38.8684463 8.33333335,35.4166667 L8.33333335,33.3333333 L4.16666665,33.3333333 L4.16666665,29.1666667 L8.33333335,29.1666667 L8.33333335,20.8333333 L4.16666665,20.8333333 L4.16666665,16.6666667 L8.33333335,16.6666667 L8.33333335,14.5833333 C8.33333335,11.1315537 11.1315537,8.33333335 14.5833333,8.33333335 L16.6666667,8.33333335 L16.6666667,4.16666665 L20.8333333,4.16666665 Z M14.5833333,12.5 C13.4327401,12.5 12.5,13.4327401 12.5,14.5833333 L12.5,35.4166667 C12.5,35.969201 12.7194934,36.499105 13.1101942,36.8898058 C13.500895,37.2805066 14.030799,37.5 14.5833333,37.5 L35.4166667,37.5 C36.5672599,37.5 37.5,36.5672599 37.5,35.4166667 L37.5,14.5833333 C37.5,13.4327401 36.5672599,12.5 35.4166667,12.5 L14.5833333,12.5 Z" id="形状" fill="#3C3C3C"></path>
                            <path d="M17.7083333,19.7916667 C17.7083333,18.6410735 18.6410735,17.7083333 19.7916667,17.7083333 L30.2083333,17.7083333 C31.3589265,17.7083333 32.2916667,18.6410735 32.2916667,19.7916667 L32.2916667,30.2083333 C32.2916667,31.3589265 31.3589265,32.2916667 30.2083333,32.2916667 L19.7916667,32.2916667 C18.6410735,32.2916667 17.7083333,31.3589265 17.7083333,30.2083333 L17.7083333,19.7916667 Z M21.875,21.875 L21.875,28.125 L28.125,28.125 L28.125,21.875 L21.875,21.875 Z" id="形状" fill="#CF0010"></path>
                        </g>
                    </g>
                </g>
            </g>
        </g>
    </g>
</svg>