<?xml version="1.0" encoding="UTF-8"?>
<svg width="60px" height="60px" viewBox="0 0 60 60" version="1.1" xmlns="http://www.w3.org/2000/svg" xmlns:xlink="http://www.w3.org/1999/xlink">
    <title>网络更稳定</title>
    <g id="页面-1" stroke="none" stroke-width="1" fill="none" fill-rule="evenodd">
        <g id="SDSF-解决方案（上云与迁移）" transform="translate(-778.000000, -801.000000)" fill-rule="nonzero">
            <g id="产品与服务备份" transform="translate(360.000000, 625.000000)">
                <g id="编组-6备份" transform="translate(305.000000, 143.000000)">
                    <g id="网络更稳定" transform="translate(113.000000, 33.000000)">
                        <rect id="矩形" fill="#000000" opacity="0" x="0" y="0" width="60" height="60"></rect>
                        <path d="M48.2753906,42.9726562 L11.7890625,42.9726562 C10.0429687,42.9726562 8.625,41.5546875 8.625,39.8085937 L8.625,13.8105469 C8.625,12.0644531 10.0429687,10.6464844 11.7890625,10.6464844 L48.2753906,10.6464844 C50.0214844,10.6464844 51.4394531,12.0644531 51.4394531,13.8105469 L51.4394531,39.8085937 C51.4394531,41.5546875 50.0214844,42.9726562 48.2753906,42.9726562 Z M12.7265625,38.8710937 L47.3378906,38.8710937 L47.3378906,14.7480469 L12.7265625,14.7480469 L12.7265625,38.8710937 Z M38.5722656,49.6054688 L21.4921875,49.6054688 C20.3613281,49.6054688 19.4414062,48.6855469 19.4414062,47.5546875 C19.4414062,46.4238281 20.3613281,45.5039062 21.4921875,45.5039062 L38.5722656,45.5039062 C39.703125,45.5039062 40.6230469,46.4238281 40.6230469,47.5546875 C40.6230469,48.6855469 39.703125,49.6054688 38.5722656,49.6054688 Z" id="形状" fill="#3C3C3C"></path>
                        <path d="M20.8476562,32.1269531 C20.3203125,32.1269531 19.7988281,31.9277344 19.4003906,31.5234375 C18.5976563,30.7207031 18.5976563,29.4257812 19.4003906,28.6230469 L25.4296875,22.59375 C26.2324219,21.7910156 27.5273438,21.7910156 28.3300781,22.59375 L32.7949219,27.0585938 L37.7636719,22.0898438 C38.5664062,21.2871094 39.8613281,21.2871094 40.6640625,22.0898438 C41.4667969,22.8925781 41.4667969,24.1875 40.6640625,24.9902344 L34.2480469,31.4121094 C33.4453125,32.2148438 32.1503906,32.2148438 31.3476562,31.4121094 L26.8828125,26.9472656 L22.3007813,31.5234375 C21.8964844,31.9277344 21.375,32.1269531 20.8476562,32.1269531 Z" id="路径" fill="#CF0010"></path>
                    </g>
                </g>
            </g>
        </g>
    </g>
</svg>