<?xml version="1.0" encoding="UTF-8"?>
<svg width="60px" height="60px" viewBox="0 0 60 60" version="1.1" xmlns="http://www.w3.org/2000/svg" xmlns:xlink="http://www.w3.org/1999/xlink">
    <title>高可靠</title>
    <g id="页面-1" stroke="none" stroke-width="1" fill="none" fill-rule="evenodd">
        <g id="SDSF-产品中心（全球加速）" transform="translate(-1000.000000, -724.000000)" fill-rule="nonzero">
            <g id="产品优势" transform="translate(360.000000, 625.000000)">
                <g id="编组-6备份-6" transform="translate(610.000000, 99.000000)">
                    <g id="高可靠" transform="translate(30.000000, 0.000000)">
                        <rect id="矩形" fill="#000000" opacity="0" x="0" y="0" width="60" height="60"></rect>
                        <g id="关键词" transform="translate(3.000000, 4.000000)">
                            <rect id="矩形" fill="#000000" opacity="0" x="0" y="0" width="53" height="53"></rect>
                            <path d="M14.9482525,53 C11.3045025,53 7.6607525,51.675 5.0107525,49.025 C2.0295025,46.375 0.3732525,42.73125 0.0420025,38.75625 C-0.2892475,34.78125 1.3670025,30.80625 4.0170025,28.15625 C6.6670025,25.175 10.3107525,23.1875 14.2857525,23.1875 C18.2607525,22.85625 22.2357525,24.5125 24.8857525,27.1625 C28.1982525,29.8125 29.8545025,33.45625 29.8545025,37.43125 C30.1857525,41.40625 28.5295025,45.38125 25.8795025,48.03125 C23.2295025,51.34375 19.2545025,53 14.9482525,53 Z M14.9482525,26.16875 L14.2857525,26.16875 C10.9732525,26.16875 8.3232525,27.825 6.0045025,30.14375 C3.6857525,32.4625 2.6920025,35.44375 3.0232525,38.75625 C3.0232525,42.06875 4.6795025,44.71875 6.9982525,47.0375 C11.9670025,51.34375 19.5857525,51.0125 23.8920025,46.375 C26.2107525,44.05625 27.2045025,41.075 26.8732525,37.7625 C26.5420025,34.45 25.5482525,31.46875 23.2295025,29.15 C20.9107525,27.1625 17.9295025,26.16875 14.9482525,26.16875 Z" id="形状" stroke="#3C3C3C" fill="#3C3C3C"></path>
                            <path d="M24.2232525,28.81875 C23.8920025,28.81875 23.5607525,28.81875 23.2295025,28.4875 C22.5670025,28.15625 22.5670025,27.1625 23.2295025,26.5 L45.4232525,0.6625 C46.0857525,-5.82867088e-16 46.7482525,-5.82867088e-16 47.4107525,0.6625 C48.0732525,1.325 48.0732525,1.9875 47.4107525,2.65 L25.2170025,28.4875 C25.2170025,28.81875 24.5545025,28.81875 24.2232525,28.81875 Z" id="路径" stroke="#3C3C3C" fill="#3C3C3C"></path>
                            <path d="M45.0920025,33.125 C44.7607525,33.125 44.4295025,33.125 44.0982525,32.79375 L33.8295025,22.85625 C33.1670025,22.19375 33.1670025,21.2 33.8295025,20.86875 C34.4920025,20.20625 35.4857525,20.20625 35.8170025,20.86875 L46.0857525,30.80625 C46.7482525,31.46875 46.7482525,32.4625 46.0857525,32.79375 C46.0857525,33.125 45.7545025,33.125 45.0920025,33.125 L45.0920025,33.125 Z M51.3857525,21.53125 C51.0545025,21.53125 50.7232525,21.53125 50.3920025,21.2 L42.4420025,13.25 C41.7795025,12.5875 41.7795025,11.59375 42.4420025,11.2625 C43.1045025,10.6 44.0982525,10.6 44.4295025,11.2625 L52.3795025,19.2125 C53.0420025,19.875 53.0420025,20.86875 52.3795025,21.2 C52.0482525,21.2 51.7170025,21.53125 51.3857525,21.53125 L51.3857525,21.53125 Z" id="形状" stroke="#CF0010" fill="#CF0010"></path>
                        </g>
                    </g>
                </g>
            </g>
        </g>
    </g>
</svg>