<?xml version="1.0" encoding="UTF-8"?>
<svg width="60px" height="60px" viewBox="0 0 60 60" version="1.1" xmlns="http://www.w3.org/2000/svg" xmlns:xlink="http://www.w3.org/1999/xlink">
    <title>操作简单</title>
    <g id="页面-1" stroke="none" stroke-width="1" fill="none" fill-rule="evenodd">
        <g id="SDSF-产品中心（全站加速）" transform="translate(-390.000000, -893.000000)" fill-rule="nonzero">
            <g id="产品优势" transform="translate(360.000000, 625.000000)">
                <g id="编组-6备份" transform="translate(0.000000, 268.000000)">
                    <g id="操作简单" transform="translate(30.000000, 0.000000)">
                        <rect id="矩形" fill="#000000" opacity="0" x="0" y="0" width="60" height="60"></rect>
                        <g id="更新刷新_操作_jurassic" transform="translate(3.000000, 4.000000)">
                            <rect id="矩形" fill="#000000" opacity="0" x="0" y="0" width="53" height="53"></rect>
                            <path d="M3.3125,43.0625 L21.8780273,43.0625 C21.4898437,41.9962891 21.2207031,40.8886719 21.0757812,39.75 L6.63535156,39.75 L6.64052734,38.0989258 L6.64052734,14.90625 L6.63017578,6.625 L26.4120117,6.625 L26.4120117,18.21875 L37.9177734,18.21875 L37.9177734,22.7786133 C39.0564453,22.9131836 40.1640625,23.1719727 41.2302734,23.5549805 L41.2302734,14.3731445 L31.1426758,3.3125 L3.31767578,3.3125 L3.32802734,14.90625 L3.32802734,38.09375 L3.3125,43.0625 Z M29.7193359,6.66640625 L37.2345703,14.90625 L29.7193359,14.90625 L29.7193359,6.66640625 L29.7193359,6.66640625 Z" id="形状" fill="#3C3C3C"></path>
                            <path d="M49.6875,43.8181641 L47.2134766,42.4414062 C49.2786133,37.3173828 47.2134766,31.3704102 42.1205078,28.534082 C38.1765625,26.3395508 33.45625,26.5983398 29.8694336,28.8135742 L33.6425781,30.9097656 C35.7801758,30.2213867 38.2024414,30.3818359 40.3089844,31.5515625 C43.6628906,33.4200195 45.1224609,37.2397461 44.0200195,40.6609375 L41.8410156,39.4498047 L43.0521484,46.1679687 L45.262207,45.3864258 L45.4019531,45.4640625 L45.262207,45.3864258 L49.6875,43.8181641 Z M38.7769531,45.8056641 C36.649707,46.4785156 34.2533203,46.3077148 32.1623047,45.1483398 C28.8083984,43.2798828 27.3488281,39.4601562 28.4460938,36.0389648 L30.6250977,37.2500977 L29.4243164,30.5371094 L22.7889648,32.8869141 L25.2578125,34.2636719 L25.2629883,34.2636719 L25.2578125,34.2636719 C25.2578125,34.2688477 25.2526367,34.2740234 25.2526367,34.2791992 C23.2030273,39.3980469 25.2629883,45.334668 30.355957,48.1606445 C34.284375,50.3448242 38.9839844,50.0963867 42.565625,47.9070313 L38.7769531,45.8056641 Z" id="形状" fill="#CF0010"></path>
                        </g>
                    </g>
                </g>
            </g>
        </g>
    </g>
</svg>