<?xml version="1.0" encoding="UTF-8"?>
<svg width="60px" height="60px" viewBox="0 0 60 60" version="1.1" xmlns="http://www.w3.org/2000/svg" xmlns:xlink="http://www.w3.org/1999/xlink">
    <title>简单易用</title>
    <g id="页面-1" stroke="none" stroke-width="1" fill="none" fill-rule="evenodd">
        <g id="SDSF-产品中心（数据接入服务）" transform="translate(-990.000000, -725.000000)" fill-rule="nonzero">
            <g id="编组-10" transform="translate(382.000000, 625.000000)">
                <g id="简单易用" transform="translate(608.000000, 100.000000)">
                    <rect id="矩形" fill="#000000" opacity="0" x="0" y="0" width="60" height="60"></rect>
                    <g id="等级" transform="translate(3.000000, 4.000000)">
                        <rect id="矩形" fill="#000000" opacity="0" x="0" y="0" width="53" height="53"></rect>
                        <path d="M10.301875,8.96252085 C10.6736705,8.20691966 11.4428392,7.72854465 12.2849584,7.72916604 L40.71725,7.72916604 C41.5585729,7.72916604 42.3266809,8.20763433 42.698125,8.96252085 L48.3580834,20.464625 C48.7599097,21.2823681 48.6182608,22.262947 48.0014375,22.9335416 L28.1264375,44.5564375 C27.7082671,45.0110635 27.1188026,45.2697699 26.5011042,45.2697699 C25.8834058,45.2697699 25.2939413,45.0110635 24.8757709,44.5564375 L5.00077085,22.9335416 C4.38431762,22.2627015 4.24311071,21.2821468 4.64522915,20.464625 L10.301875,8.96252085 Z M13.6585416,12.1458334 L9.275,21.0575625 L26.5,39.7996875 L43.7261041,21.0564584 L39.3414584,12.1458334 L13.6585416,12.1458334 Z" id="形状" fill="#3C3C3C"></path>
                        <path d="M21.1282291,20.0682291 L26.5,25.9777291 L31.872875,20.0682291 L35.1412084,23.0384375 L28.1341666,30.7455209 C27.7156334,31.2059898 27.1222553,31.468514 26.5,31.468514 C25.8777447,31.468514 25.2843666,31.2059898 24.8658334,30.7455209 L17.8598959,23.0384375 L21.1282291,20.0682291 Z" id="路径" fill="#CF0010"></path>
                    </g>
                </g>
            </g>
        </g>
    </g>
</svg>