<?xml version="1.0" encoding="UTF-8"?>
<svg width="60px" height="60px" viewBox="0 0 60 60" version="1.1" xmlns="http://www.w3.org/2000/svg" xmlns:xlink="http://www.w3.org/1999/xlink">
    <title>安全可靠</title>
    <g id="页面-1" stroke="none" stroke-width="1" fill="none" fill-rule="evenodd">
        <g id="SDSF-产品中心（数据接入服务）" transform="translate(-382.000000, -870.000000)" fill-rule="nonzero">
            <g id="编组-10" transform="translate(382.000000, 625.000000)">
                <g id="安全可靠" transform="translate(0.000000, 245.000000)">
                    <rect id="矩形" fill="#000000" opacity="0" x="0" y="0" width="60" height="60"></rect>
                    <g id="发送" transform="translate(3.000000, 4.000000)">
                        <rect id="矩形" fill="#000000" opacity="0" x="0" y="0" width="53" height="53"></rect>
                        <path d="M45.7279584,7.27204165 C46.5900518,8.13439549 46.5900518,9.53227116 45.7279584,10.394625 L26.957125,29.1654584 C26.4026689,29.7395293 25.5816029,29.9697614 24.8095045,29.7676648 C24.0374061,29.5655682 23.4344318,28.9625939 23.2323352,28.1904955 C23.0302386,27.4183971 23.2604707,26.5973311 23.8345416,26.042875 L42.605375,7.27204165 C43.4677288,6.4099482 44.8656045,6.4099482 45.7279584,7.27204165 L45.7279584,7.27204165 Z" id="路径" fill="#CF0010"></path>
                        <path d="M47.9362916,5.06370835 C48.5363888,5.66347442 48.7398171,6.55400983 48.4596666,7.35485415 L34.5471666,47.1048541 C34.2481633,47.9598892 33.4573389,48.5456277 32.5522779,48.582405 C31.6472169,48.6191822 30.8114752,48.0995393 30.4440834,47.2715834 L22.8396875,30.1603125 L5.72841665,22.5559166 C4.90046066,22.1885248 4.38081778,21.3527831 4.41759502,20.4477221 C4.45437227,19.5426611 5.04011082,18.7518367 5.89514585,18.4528334 L45.6451459,4.54033335 C46.4459902,4.26018289 47.3365256,4.46361122 47.9362916,5.06370835 L47.9362916,5.06370835 Z M12.6117916,20.7804166 L25.4090834,26.4679791 C25.9090799,26.6900516 26.3088443,27.089816 26.5309166,27.5898125 L32.217375,40.3871041 L42.7754166,10.2245834 L12.6117916,20.7815209 L12.6117916,20.7804166 Z" id="形状" fill="#3C3C3C"></path>
                    </g>
                </g>
            </g>
        </g>
    </g>
</svg>