<?xml version="1.0" encoding="UTF-8"?>
<svg width="60px" height="60px" viewBox="0 0 60 60" version="1.1" xmlns="http://www.w3.org/2000/svg" xmlns:xlink="http://www.w3.org/1999/xlink">
    <title>低时延</title>
    <g id="页面-1" stroke="none" stroke-width="1" fill="none" fill-rule="evenodd">
        <g id="SDSF-产品中心（全球加速）" transform="translate(-390.000000, -868.000000)" fill-rule="nonzero">
            <g id="产品优势" transform="translate(360.000000, 625.000000)">
                <g id="编组-6备份-3" transform="translate(0.000000, 243.000000)">
                    <g id="低时延" transform="translate(30.000000, 0.000000)">
                        <rect id="矩形" fill="#000000" opacity="0" x="0" y="0" width="60" height="60"></rect>
                        <g id="系统数据" transform="translate(3.000000, 4.000000)">
                            <rect id="矩形" fill="#000000" opacity="0" x="0" y="0" width="53" height="53"></rect>
                            <path d="M39.0875,53 L13.9125,53 C13.25,53 12.5875,52.3375 12.5875,51.675 C12.5875,51.0125 13.25,50.35 13.9125,50.35 L39.0875,50.35 C39.75,50.35 40.4125,51.0125 40.4125,51.675 C40.4125,52.3375 39.75,53 39.0875,53 Z" id="路径" stroke="#3C3C3C" fill="#3C3C3C"></path>
                            <path d="M46.04375,42.73125 C44.3875,42.73125 42.73125,41.7375 41.7375,40.4125 L34.45,29.15 C34.11875,28.81875 33.7875,28.81875 33.7875,28.4875 C33.45625,28.4875 33.125,28.4875 32.79375,28.81875 L29.8125,31.1375 C28.81875,32.13125 27.49375,32.4625 26.5,32.4625 C25.175,32.4625 24.18125,31.8 23.51875,30.80625 L16.89375,21.2 C16.5625,20.5375 16.89375,19.54375 17.55625,19.2125 C18.21875,18.88125 19.2125,18.88125 19.54375,19.54375 L26.16875,29.15 C26.16875,29.48125 26.5,29.48125 26.83125,29.48125 C27.1625,29.48125 27.49375,29.48125 27.825,29.15 L30.475,26.5 C31.46875,25.8375 32.4625,25.175 33.7875,25.50625 C35.1125,25.50625 36.10625,26.16875 36.76875,27.1625 L44.05625,38.425 C44.71875,39.41875 46.04375,39.75 47.0375,39.41875 C49.025,38.425 50.01875,36.4375 50.01875,34.45 C50.01875,33.7875 50.68125,33.125 51.34375,33.125 C52.00625,33.125 52.66875,33.7875 52.66875,34.45 C52.66875,37.7625 51.0125,40.4125 48.3625,42.06875 C47.7,42.4 46.70625,42.73125 46.04375,42.73125 L46.04375,42.73125 Z" id="路径" stroke="#CF0010" fill="#CF0010"></path>
                            <path d="M26.5,53 C25.8375,53 25.175,52.3375 25.175,51.675 L25.175,44.05625 C25.175,43.725 24.84375,43.39375 24.5125,43.39375 L8.94375,43.39375 C3.975,43.0625 0,39.0875 0,34.45 L0,8.6125 C0,3.975 3.975,0 8.94375,0 L44.3875,0 C49.025,0 53,3.975 53,8.6125 L53,34.45 C53,35.1125 52.3375,35.775 51.675,35.775 C51.0125,35.775 50.35,35.1125 50.35,34.45 L50.35,8.6125 C50.35,5.3 47.7,2.65 44.3875,2.65 L8.94375,2.65 C5.63125,2.65 2.98125,5.3 2.98125,8.6125 L2.98125,34.45 C2.98125,37.7625 5.63125,40.4125 8.94375,40.4125 L24.5125,40.4125 C26.5,40.4125 28.15625,42.06875 28.15625,44.05625 L28.15625,51.675 C27.825,52.3375 27.1625,53 26.5,53 Z" id="路径" stroke="#3C3C3C" fill="#3C3C3C"></path>
                            <path d="M15.56875,21.53125 C11.925,21.53125 8.94375,18.55 8.94375,15.2375 C8.94375,11.925 11.925,8.94375 15.56875,8.94375 C19.2125,8.94375 22.19375,11.925 22.19375,15.2375 C22.19375,18.55 19.2125,21.53125 15.56875,21.53125 Z M15.56875,11.59375 C13.58125,11.59375 11.925,13.25 11.925,15.2375 C11.925,17.225 13.58125,18.88125 15.56875,18.88125 C17.55625,18.88125 19.2125,17.225 19.2125,15.2375 C19.2125,13.25 17.55625,11.59375 15.56875,11.59375 L15.56875,11.59375 Z" id="形状" stroke="#CF0010" fill="#CF0010"></path>
                        </g>
                    </g>
                </g>
            </g>
        </g>
    </g>
</svg>