<?xml version="1.0" encoding="UTF-8"?>
<svg width="60px" height="60px" viewBox="0 0 60 60" version="1.1" xmlns="http://www.w3.org/2000/svg" xmlns:xlink="http://www.w3.org/1999/xlink">
    <title>高合规</title>
    <g id="页面-1" stroke="none" stroke-width="1" fill="none" fill-rule="evenodd">
        <g id="SDSF-产品中心（全球加速）" transform="translate(-391.000000, -724.000000)" fill-rule="nonzero">
            <g id="产品优势" transform="translate(360.000000, 625.000000)">
                <g id="编组-6" transform="translate(0.000000, 99.000000)">
                    <g id="高合规" transform="translate(31.000000, 0.000000)">
                        <rect id="矩形" fill="#000000" opacity="0" x="0" y="0" width="60" height="60"></rect>
                        <g id="制度评审" transform="translate(3.000000, 4.000000)">
                            <rect id="矩形" fill="#000000" opacity="0" x="0" y="0" width="53" height="53"></rect>
                            <path d="M31.46875,14.24375 L10.6,14.24375 C9.9375,14.24375 9.275,13.58125 9.275,12.91875 C9.275,12.25625 9.9375,11.59375 10.6,11.59375 L31.46875,11.59375 C32.13125,11.59375 32.79375,12.25625 32.79375,12.91875 C32.79375,13.58125 32.13125,14.24375 31.46875,14.24375 Z M26.5,25.8375 L9.9375,25.8375 C9.275,25.8375 8.6125,25.175 8.6125,24.5125 C8.6125,23.85 9.275,23.1875 10.26875,23.1875 L26.83125,23.1875 C27.49375,23.1875 28.15625,23.85 28.15625,24.5125 C28.15625,25.175 27.49375,25.8375 26.5,25.8375 Z M19.875,37.7625 L9.60625,37.7625 C8.94375,37.7625 8.28125,37.1 8.28125,36.4375 C8.28125,35.775 8.94375,35.1125 9.60625,35.1125 L19.875,35.1125 C20.5375,35.1125 21.2,35.775 21.2,36.4375 C21.53125,37.1 20.86875,37.7625 19.875,37.7625 Z" id="形状" stroke="#CF0010" fill="#CF0010"></path>
                            <path d="M38.75625,53 C31.8,53 26.16875,47.36875 26.16875,40.4125 C26.16875,33.45625 31.8,27.825 38.75625,27.825 C45.7125,27.825 51.34375,33.45625 51.34375,40.4125 C51.34375,47.36875 45.7125,53 38.75625,53 Z M38.75625,30.80625 C33.45625,30.80625 28.81875,35.1125 28.81875,40.4125 C28.81875,45.7125 33.125,50.01875 38.75625,50.01875 C44.3875,50.01875 48.69375,45.7125 48.69375,40.4125 C48.69375,35.1125 44.3875,30.80625 38.75625,30.80625 Z" id="形状" stroke="#3C3C3C" fill="#3C3C3C"></path>
                            <path d="M19.875,53 L6.29375,53 C3.64375,53 1.325,50.68125 1.325,48.03125 L1.325,4.96875 C1.325,2.31875 3.64375,0 6.29375,0 L44.71875,0 C47.36875,0 49.6875,2.31875 49.6875,4.96875 L49.6875,20.86875 C49.6875,21.53125 49.025,22.19375 48.3625,22.19375 C47.7,22.19375 47.0375,21.53125 47.0375,20.86875 L47.0375,4.96875 C47.0375,3.975 46.04375,2.98125 45.05,2.98125 L6.29375,2.98125 C5.3,2.98125 4.30625,3.975 4.30625,4.96875 L4.30625,48.03125 C4.30625,49.025 5.3,50.01875 6.29375,50.01875 L19.875,50.01875 C20.5375,50.01875 21.2,50.68125 21.2,51.34375 C21.53125,52.3375 20.86875,53 19.875,53 Z" id="路径" stroke="#3C3C3C" fill="#3C3C3C"></path>
                            <path d="M37.1,45.05 C36.10625,45.05 35.44375,44.71875 34.78125,44.05625 L32.79375,42.06875 C32.13125,41.40625 32.13125,40.74375 32.79375,40.08125 C33.45625,39.41875 34.11875,39.41875 34.78125,40.08125 L36.76875,42.06875 L37.1,42.06875 L43.0625,36.4375 C43.725,35.775 44.3875,35.775 45.05,36.4375 C45.7125,37.1 45.7125,37.7625 45.05,38.425 L39.41875,44.05625 C38.75625,44.71875 38.09375,45.05 37.1,45.05 L37.1,45.05 Z" id="路径" stroke="#CF0010" fill="#CF0010"></path>
                        </g>
                    </g>
                </g>
            </g>
        </g>
    </g>
</svg>