<?xml version="1.0" encoding="UTF-8"?>
<svg width="70px" height="70px" viewBox="0 0 70 70" version="1.1" xmlns="http://www.w3.org/2000/svg" xmlns:xlink="http://www.w3.org/1999/xlink">
    <title>可视化编辑器</title>
    <defs>
        <linearGradient x1="100%" y1="15.5380661%" x2="14.4115551%" y2="100%" id="linearGradient-1">
            <stop stop-color="#FF8888" offset="0%"></stop>
            <stop stop-color="#CF0010" offset="100%"></stop>
        </linearGradient>
        <filter id="filter-2">
            <feColorMatrix in="SourceGraphic" type="matrix" values="0 0 0 0 0.811765 0 0 0 0 0.000000 0 0 0 0 0.062745 0 0 0 1.000000 0"></feColorMatrix>
        </filter>
    </defs>
    <g id="页面-1" stroke="none" stroke-width="1" fill="none" fill-rule="evenodd">
        <g id="SDSF-产品中心（数据可视化）" transform="translate(-382.000000, -2204.000000)">
            <g id="产品优势备份" transform="translate(360.000000, 1961.000000)">
                <g id="编组-6备份-3" transform="translate(0.000000, 243.000000)">
                    <g id="可视化编辑器" transform="translate(22.000000, 0.000000)">
                        <rect id="矩形" x="0" y="0" width="70" height="70"></rect>
                        <g id="编组-7" transform="translate(9.000000, 10.000000)">
                            <rect id="矩形" stroke="#FFC8C8" fill="url(#linearGradient-1)" x="15.5" y="15.5" width="34" height="34" rx="5"></rect>
                            <rect id="矩形" stroke-opacity="0.302418529" stroke="#FFC8C8" x="0.5" y="0.5" width="39" height="39" rx="5"></rect>
                            <g filter="url(#filter-2)" id="编辑器-·-全屏">
                                <g transform="translate(11.250000, 10.875000)">
                                    <rect id="矩形" fill="#000000" fill-rule="nonzero" opacity="0" x="0" y="0" width="18" height="18"></rect>
                                    <path d="M16.8923077,0.692307686 L11.5269231,0.692307686 C11.1807692,0.692307686 11.0769231,1.00384615 11.3538461,1.28076922 L13.05,2.97692307 L9.93461539,6.09230769 C9.76153846,6.26538461 9.76153846,6.54230769 9.93461539,6.75 L11.2153846,8.03076922 C11.3884615,8.20384615 11.6653846,8.20384615 11.8730769,8.03076922 L15.0230769,4.88076922 L16.7192308,6.57692307 C16.9961539,6.85384615 17.3076923,6.75 17.3076923,6.40384615 L17.3076923,1.07307693 C17.3076923,0.865384611 17.1,0.692307686 16.8923077,0.692307686 L16.8923077,0.692307686 Z M1.21153846,17.3076923 L6.54230769,17.3076923 C6.88846154,17.3076923 6.99230769,16.9269231 6.71538461,16.65 L5.01923078,14.9192308 L8.13461539,11.7692308 C8.30769231,11.5961539 8.30769231,11.2846154 8.13461539,11.1115385 L6.85384615,9.83076922 C6.68076922,9.6576923 6.40384615,9.6576923 6.19615385,9.83076922 L3.08076922,12.9461539 L1.35,11.25 C1.03846154,10.9730769 0.692307686,11.0769231 0.692307686,11.4230769 L0.692307686,16.7538461 C0.692307686,16.9961538 0.96923076,17.3076923 1.21153846,17.3076923 Z M17.3076923,16.8923077 L17.3076923,11.5269231 C17.3076923,11.1807692 16.9961539,11.0769231 16.7192308,11.3538461 L15.0230769,13.05 L11.9076923,9.93461539 C11.7346154,9.76153846 11.4576923,9.76153846 11.25,9.93461539 L9.96923078,11.2153846 C9.79615385,11.3884615 9.79615385,11.6653846 9.96923078,11.8730769 L13.1192308,15.0230769 L11.4230769,16.7192308 C11.1461539,16.9961539 11.25,17.3076923 11.5961539,17.3076923 L16.9269231,17.3076923 C17.1346154,17.3076923 17.3076923,17.1 17.3076923,16.8923077 L17.3076923,16.8923077 Z M0.692307686,1.21153846 L0.692307686,6.54230769 C0.692307686,6.88846154 1.07307691,6.99230769 1.35,6.71538461 L3.08076922,5.01923078 L6.23076922,8.13461539 C6.40384615,8.30769231 6.71538461,8.30769231 6.88846154,8.13461539 L8.16923078,6.85384615 C8.3423077,6.68076922 8.3423077,6.40384615 8.16923078,6.19615385 L5.05384615,3.08076922 L6.75,1.35 C7.02692307,1.03846154 6.92307693,0.692307686 6.57692307,0.692307686 L1.24615385,0.692307686 C1.00384615,0.692307686 0.692307686,0.969230777 0.692307686,1.21153846 Z" id="形状" fill="#000000" fill-rule="nonzero"></path>
                                </g>
                            </g>
                        </g>
                    </g>
                </g>
            </g>
        </g>
    </g>
</svg>