<?xml version="1.0" encoding="UTF-8"?>
<svg width="20px" height="20px" viewBox="0 0 20 20" version="1.1" xmlns="http://www.w3.org/2000/svg" xmlns:xlink="http://www.w3.org/1999/xlink">
    <title>云桌面</title>
    <defs>
        <filter id="filter-1">
            <feColorMatrix in="SourceGraphic" type="matrix" values="0 0 0 0 0.811765 0 0 0 0 0.000000 0 0 0 0 0.062745 0 0 0 1.000000 0"></feColorMatrix>
        </filter>
    </defs>
    <g id="页面-1" stroke="none" stroke-width="1" fill="none" fill-rule="evenodd">
        <g id="SDSF-通用场景" transform="translate(-1011.000000, -1449.000000)">
            <g id="域名注册备份-3" transform="translate(360.000000, 725.000000)">
                <g id="云桌面" transform="translate(651.000000, 719.000000)" filter="url(#filter-1)">
                    <g transform="translate(0.000000, 5.000000)">
                        <rect id="矩形" fill="#000000" fill-rule="nonzero" opacity="0" x="0" y="0" width="20" height="20"></rect>
                        <path d="M17.3242188,1.875 L2.71484375,1.875 C1.9296875,1.875 1.2890625,2.51367188 1.2890625,3.30078125 L1.2890625,13.3496094 C1.2890625,14.1347656 1.92773438,14.7753906 2.71484375,14.7753906 L17.3242188,14.7753906 C18.109375,14.7753906 18.75,14.1367187 18.75,13.3496094 L18.75,3.30078125 C18.75,2.51367188 18.1113281,1.875 17.3242188,1.875 Z M2.71484375,3.125 L17.3242188,3.125 C17.4199219,3.125 17.5,3.20507812 17.5,3.30078125 L17.5,11.1914062 L2.5390625,11.1914062 L2.5390625,3.30078125 C2.5390625,3.20507812 2.61914062,3.125 2.71484375,3.125 Z M17.3242188,13.5234375 L2.71484375,13.5234375 C2.61914062,13.5234375 2.5390625,13.4433594 2.5390625,13.3476562 L2.5390625,12.5 L17.5,12.5 L17.5,13.3496094 C17.5,13.4433594 17.4199219,13.5234375 17.3242188,13.5234375 Z M12.2636719,16.3613281 C12.1171875,16.1953125 11.9082031,16.0996094 11.6855469,16.0996094 L8.32421875,16.0996094 C8.09960938,16.0996094 7.88476562,16.1972656 7.74023438,16.3691406 L7.2109375,16.9882812 C7.03125,17.1972656 7.18164062,17.5214844 7.45703125,17.5214844 L12.5703125,17.5214844 C12.8476563,17.5214844 12.9960938,17.1933594 12.8125,16.984375 L12.2636719,16.3613281 Z" id="形状" fill="#000000" fill-rule="nonzero"></path>
                    </g>
                </g>
            </g>
        </g>
    </g>
</svg>