<?xml version="1.0" encoding="UTF-8"?>
<svg width="20px" height="20px" viewBox="0 0 20 20" version="1.1" xmlns="http://www.w3.org/2000/svg" xmlns:xlink="http://www.w3.org/1999/xlink">
    <title>平台管理—主机管理</title>
    <defs>
        <filter id="filter-1">
            <feColorMatrix in="SourceGraphic" type="matrix" values="0 0 0 0 0.811765 0 0 0 0 0.000000 0 0 0 0 0.062745 0 0 0 1.000000 0"></feColorMatrix>
        </filter>
    </defs>
    <g id="页面-1" stroke="none" stroke-width="1" fill="none" fill-rule="evenodd">
        <g id="SDSF-通用场景" transform="translate(-1011.000000, -1449.000000)">
            <g id="域名注册备份-3" transform="translate(360.000000, 725.000000)">
                <g id="平台管理—主机管理" transform="translate(651.000000, 719.000000)" filter="url(#filter-1)">
                    <g transform="translate(0.000000, 5.000000)">
                        <rect id="矩形" fill="#000000" fill-rule="nonzero" opacity="0" x="0" y="0" width="20" height="20"></rect>
                        <path d="M17.1914286,0.717142852 C18.148969,0.72027433 18.9246522,1.49531963 18.9285714,2.45285715 L18.9285714,4.05142857 C18.9254352,5.00952402 18.149524,5.78543524 17.1914286,5.78857143 L2.80857143,5.78857143 C1.85047598,5.78543524 1.07456476,5.00952402 1.07142857,4.05142857 L1.07142857,2.45285715 C1.07534782,1.49531963 1.85103101,0.72027433 2.80857143,0.717142852 L17.1914286,0.717142852 Z M17.7557143,2.45285715 C17.7557143,2.3 17.6514286,2.16285715 17.4685714,2.04428572 C17.3485714,1.96857145 17.2271429,1.91714287 17.1914286,1.90142857 L2.80857143,1.90142857 C2.6605986,1.89874469 2.51775781,1.95565446 2.4121719,2.0593597 C2.30658599,2.16306495 2.24714284,2.30485998 2.24714284,2.45285715 L2.24714284,4.09571428 C2.24714284,4.42142855 2.43571428,4.61571428 2.80857143,4.61571428 L17.1914286,4.61571428 C17.5942857,4.61571428 17.7557143,4.45285713 17.7557143,4.05142857 L17.7557143,2.45285715 Z M17.1914286,13.4971429 C18.149524,13.500279 18.9254352,14.2761903 18.9285714,15.2342857 L18.9285714,16.8328571 C18.9246522,17.7903947 18.148969,18.5654399 17.1914286,18.5685714 L2.80857143,18.5685714 C1.85103102,18.5654399 1.07534783,17.7903947 1.07142857,16.8328571 L1.07142857,15.2342857 C1.07456475,14.2761903 1.85047597,13.500279 2.80857143,13.4971429 L17.1914286,13.4971429 L17.1914286,13.4971429 Z M17.7714286,15.2342857 C17.7714286,14.7885714 17.6714286,14.6914286 17.1914286,14.6914286 L2.85285715,14.6914286 C2.42,14.6914286 2.22,14.8585714 2.22,15.2342857 L2.22,16.8328571 C2.22,17.2328571 2.36714285,17.38 2.77142857,17.38 L17.1914286,17.38 C17.6057143,17.38 17.7714286,17.2242857 17.7714286,16.8328571 L17.7714286,15.2342857 Z M17.7714286,8.84428572 C17.7714286,8.4757143 17.5942857,8.33 17.1914286,8.33 L2.80857143,8.33 C2.45142857,8.33 2.24571428,8.56428572 2.24571428,8.90428572 L2.24571428,10.4671429 C2.24571428,10.7557143 2.45857143,10.9885714 2.80857143,10.9885714 L17.1914286,10.9885714 C17.6385714,10.9885714 17.77,10.8885714 17.77,10.5257143 L17.77,8.84285715 L17.7714286,8.84428572 Z M17.1914286,7.10714285 C18.149524,7.11027904 18.9254352,7.88619027 18.9285714,8.84428572 L18.9285714,10.4414286 C18.9254352,11.399524 18.149524,12.1754352 17.1914286,12.1785714 L2.80857143,12.1785714 C1.85047598,12.1754352 1.07456476,11.399524 1.07142857,10.4414286 L1.07142857,8.84428572 C1.07456475,7.88619027 1.85047597,7.11027904 2.80857143,7.10714285 L17.1914286,7.10714285 Z M14.1857143,3.37857143 C14.1857143,2.9919721 14.499115,2.67857143 14.8857143,2.67857143 C15.2723136,2.67857143 15.5857143,2.9919721 15.5857143,3.37857143 C15.5857143,3.76517073 15.2723136,4.07857138 14.8857143,4.07857138 C14.499115,4.07857138 14.1857143,3.76517073 14.1857143,3.37857143 L14.1857143,3.37857143 Z M14.1857143,9.64285715 C14.1857143,9.25625782 14.499115,8.94285715 14.8857143,8.94285715 C15.2723136,8.94285715 15.5857143,9.25625782 15.5857143,9.64285715 C15.5857143,10.0294565 15.2723136,10.3428571 14.8857143,10.3428571 C14.499115,10.3428571 14.1857143,10.0294565 14.1857143,9.64285715 L14.1857143,9.64285715 Z M14.1857143,16.0328571 C14.1857143,15.6462578 14.499115,15.3328571 14.8857143,15.3328571 C15.2723136,15.3328571 15.5857143,15.6462578 15.5857143,16.0328571 C15.5857143,16.4194565 15.2723136,16.7328571 14.8857143,16.7328571 C14.499115,16.7328571 14.1857143,16.4194565 14.1857143,16.0328571 L14.1857143,16.0328571 Z" id="形状" fill="#000000" fill-rule="nonzero"></path>
                    </g>
                </g>
            </g>
        </g>
    </g>
</svg>