<?xml version="1.0" encoding="UTF-8"?>
<svg width="15px" height="16px" viewBox="0 0 15 16" version="1.1" xmlns="http://www.w3.org/2000/svg" xmlns:xlink="http://www.w3.org/1999/xlink">
    <title>云服务器</title>
    <defs>
        <filter id="filter-1">
            <feColorMatrix in="SourceGraphic" type="matrix" values="0 0 0 0 0.811765 0 0 0 0 0.000000 0 0 0 0 0.062745 0 0 0 1.000000 0"></feColorMatrix>
        </filter>
    </defs>
    <g id="页面-1" stroke="none" stroke-width="1" fill="none" fill-rule="evenodd">
        <g id="SDSF-通用场景" transform="translate(-1016.000000, -1451.000000)">
            <g id="域名注册备份-3" transform="translate(360.000000, 725.000000)">
                <g id="云服务器" transform="translate(656.000000, 719.000000)" filter="url(#filter-1)">
                    <g transform="translate(0.000000, 7.500000)">
                        <rect id="矩形" fill="#000000" fill-rule="nonzero" opacity="0" x="0" y="0" width="15" height="15"></rect>
                        <path d="M10.3125,6.53320312 L4.6875,6.53320312 C4.62304688,6.53320312 4.5703125,6.5859375 4.5703125,6.65039062 L4.5703125,12.5390625 C4.5703125,12.6035156 4.62304688,12.65625 4.6875,12.65625 L10.3125,12.65625 C10.3769531,12.65625 10.4296875,12.6035156 10.4296875,12.5390625 L10.4296875,6.65039062 C10.4296875,6.5859375 10.3769531,6.53320312 10.3125,6.53320312 Z M5.5078125,7.47070312 L9.4921875,7.47070312 L9.4921875,9.18457031 L5.5078125,9.18457031 L5.5078125,7.47070312 Z M9.4921875,11.71875 L5.5078125,11.71875 L5.5078125,10.0048828 L9.4921875,10.0048828 L9.4921875,11.71875 Z M6.2109375,10.9570312 C6.2109375,11.2159147 6.42080402,11.4257812 6.6796875,11.4257812 C6.93857098,11.4257812 7.1484375,11.2159147 7.1484375,10.9570312 C7.1484375,10.6981478 6.93857098,10.4882812 6.6796875,10.4882812 C6.42080402,10.4882812 6.2109375,10.6981478 6.2109375,10.9570312 Z M6.2109375,8.34960938 C6.2109375,8.60849285 6.42080402,8.81835938 6.6796875,8.81835938 C6.93857098,8.81835938 7.1484375,8.60849285 7.1484375,8.34960938 C7.1484375,8.0907259 6.93857098,7.88085938 6.6796875,7.88085938 C6.42080402,7.88085938 6.2109375,8.0907259 6.2109375,8.34960938 Z M11.8857422,5.40380859 C11.2148438,3.6328125 9.50537109,2.37304688 7.50292969,2.37304688 C5.50048828,2.37304688 3.79101563,3.63134766 3.12011719,5.40234375 C1.85888672,5.73486328 0.930175781,6.88769531 0.937456981,8.25585938 C0.946289062,9.78515625 2.1328125,11.0288086 3.62695313,11.1621094 C3.69580078,11.1679688 3.75439453,11.1137695 3.75439453,11.0449219 L3.75439453,10.1601563 C3.75439453,10.1015625 3.71044922,10.0517578 3.65185547,10.0444336 C3.25634766,9.99462891 2.8828125,9.82177734 2.59570313,9.5390625 C2.24414062,9.19482422 2.05078125,8.73193359 2.05078125,8.24121094 C2.05078125,7.83105469 2.18408203,7.44433594 2.43457031,7.12207031 C2.67919922,6.80859375 3.0234375,6.58154297 3.40283203,6.48193359 L3.95800781,6.33544922 L4.16162109,5.79785156 C4.28759766,5.46386719 4.46337891,5.15039063 4.68457031,4.86767578 C4.90283203,4.58642578 5.16210938,4.34033203 5.45214844,4.13525391 C6.05419922,3.71191406 6.76318359,3.48779297 7.50292969,3.48779297 C8.24267578,3.48779297 8.95166016,3.71191406 9.55371094,4.13671875 C9.84521484,4.34179688 10.1030273,4.58789063 10.3212891,4.86914063 C10.5424805,5.15185547 10.7182617,5.46533203 10.8442383,5.79931641 L11.0463867,6.33544922 L11.6000977,6.48193359 C12.394043,6.69287109 12.9492188,7.41503906 12.9492188,8.23974609 C12.9492188,8.73193359 12.7558594,9.19335938 12.4042969,9.53759766 C12.1186523,9.81884766 11.746582,9.99316406 11.3510742,10.0429688 C11.2924805,10.050293 11.25,10.1000977 11.25,10.1586914 L11.25,11.0449219 C11.25,11.1137695 11.3100586,11.1679688 11.3789062,11.1621094 C12.8686523,11.0273438 14.0522461,9.78515625 14.062562,8.25878906 C14.0712891,6.890625 13.144043,5.73779297 11.8857422,5.40380859 L11.8857422,5.40380859 Z" id="形状" fill="#000000" fill-rule="nonzero"></path>
                    </g>
                </g>
            </g>
        </g>
    </g>
</svg>