<?xml version="1.0" encoding="UTF-8"?>
<svg width="60px" height="60px" viewBox="0 0 60 60" version="1.1" xmlns="http://www.w3.org/2000/svg" xmlns:xlink="http://www.w3.org/1999/xlink">
    <title>快速部署上线</title>
    <g id="页面-1" stroke="none" stroke-width="1" fill="none" fill-rule="evenodd">
        <g id="SDSF-企业场景" transform="translate(-360.000000, -868.000000)" fill-rule="nonzero">
            <g id="编组-8" transform="translate(360.000000, 725.000000)">
                <g id="快速部署上线" transform="translate(0.000000, 143.000000)">
                    <rect id="矩形" fill="#000000" opacity="0" x="0" y="0" width="60" height="60"></rect>
                    <g id="雷达" transform="translate(3.000000, 4.000000)">
                        <rect id="矩形" fill="#000000" opacity="0" x="0" y="0" width="53" height="53"></rect>
                        <path d="M26.5258789,46.5820312 C23.803418,46.5820312 21.1637695,46.0489258 18.6793945,44.9982422 C16.277832,43.9837891 14.124707,42.5293945 12.2717773,40.6816406 C10.4188477,38.8338867 8.96962891,36.6755859 7.95517578,34.2740234 C6.90449219,31.7896484 6.37138672,29.15 6.37138672,26.4275391 C6.37138672,23.7050781 6.90449219,21.0654297 7.95517578,18.5810547 C8.96962891,16.1794922 10.4240234,14.0263672 12.2717773,12.1734375 C14.124707,10.3205078 16.277832,8.87128906 18.6793945,7.85683594 C21.1637695,6.80615234 23.803418,6.27304687 26.5258789,6.27304687 C27.5248047,6.27304687 28.3374023,7.08564453 28.3374023,8.08457031 C28.3374023,9.08349609 27.5248047,9.89609375 26.5258789,9.89609375 C17.4113281,9.89609375 9.99443359,17.3129883 9.99443359,26.4275391 C9.99443359,35.5420898 17.4113281,42.9589844 26.5258789,42.9589844 C35.6404297,42.9589844 43.0573242,35.5420898 43.0573242,26.4275391 C43.0573242,25.4286133 43.8699219,24.6160156 44.8688477,24.6160156 C45.8677734,24.6160156 46.6803711,25.4286133 46.6803711,26.4275391 C46.6803711,29.15 46.1472656,31.7896484 45.096582,34.2740234 C44.0821289,36.6755859 42.6277344,38.8287109 40.7799805,40.6816406 C38.9322266,42.5345703 36.7739258,43.9837891 34.3723633,44.9982422 C31.8879883,46.0489258 29.2483398,46.5820312 26.5258789,46.5820312 Z" id="路径" fill="#3C3C3C"></path>
                        <path d="M26.5258789,32.1519531 C23.4411133,32.1519531 20.9308594,29.6416992 20.9308594,26.5569336 C20.9308594,23.472168 23.4411133,20.9619141 26.5258789,20.9619141 C29.6106445,20.9619141 32.1208984,23.4669922 32.1208984,26.5517578 C32.1208984,29.6416992 29.6106445,32.1519531 26.5258789,32.1519531 Z M26.5258789,24.5797852 C25.4389648,24.5797852 24.5539063,25.4648438 24.5539063,26.5517578 C24.5539063,27.6386719 25.4389648,28.5237305 26.5258789,28.5237305 C27.612793,28.5237305 28.4978516,27.6386719 28.4978516,26.5517578 C28.4978516,25.4648438 27.612793,24.5797852 26.5258789,24.5797852 L26.5258789,24.5797852 Z" id="形状" fill="#CF0010"></path>
                        <path d="M26.5258789,24.3313477 C25.5269531,24.3313477 24.7143555,23.51875 24.7143555,22.5198242 L24.7143555,13.3483398 C24.7143555,12.3494141 25.5269531,11.5368164 26.5258789,11.5368164 C27.5248047,11.5368164 28.3374023,12.3494141 28.3374023,13.3483398 L28.3374023,22.5198242 C28.3374023,23.51875 27.5248047,24.3313477 26.5258789,24.3313477 L26.5258789,24.3313477 Z" id="路径" fill="#CF0010"></path>
                    </g>
                </g>
            </g>
        </g>
    </g>
</svg>