<?xml version="1.0" encoding="UTF-8"?>
<svg width="60px" height="60px" viewBox="0 0 60 60" version="1.1" xmlns="http://www.w3.org/2000/svg" xmlns:xlink="http://www.w3.org/1999/xlink">
    <title>架构弹性灵活</title>
    <g id="页面-1" stroke="none" stroke-width="1" fill="none" fill-rule="evenodd">
        <g id="SDSF-企业场景" transform="translate(-1176.000000, -868.000000)" fill-rule="nonzero">
            <g id="编组-8" transform="translate(360.000000, 725.000000)">
                <g id="编组-7" transform="translate(0.000000, 143.000000)">
                    <g id="架构弹性灵活" transform="translate(816.000000, 0.000000)">
                        <rect id="矩形" fill="#000000" opacity="0" x="0" y="0" width="60" height="60"></rect>
                        <g id="趋势" transform="translate(3.000000, 4.000000)">
                            <rect id="矩形" fill="#000000" opacity="0" x="0" y="0" width="53" height="53"></rect>
                            <path d="M42.6432617,37.9591797 L10.4136719,37.9591797 C8.87128906,37.9591797 7.61875,36.7066406 7.61875,35.1642578 L7.61875,12.1993164 C7.61875,10.6569336 8.87128906,9.40439453 10.4136719,9.40439453 L42.6432617,9.40439453 C44.1856445,9.40439453 45.4381836,10.6569336 45.4381836,12.1993164 L45.4381836,35.1642578 C45.4381836,36.7066406 44.1856445,37.9591797 42.6432617,37.9591797 Z M11.2417969,34.3361328 L41.8151367,34.3361328 L41.8151367,13.0274414 L11.2417969,13.0274414 L11.2417969,34.3361328 Z M34.072168,43.8181641 L18.9847656,43.8181641 C17.9858398,43.8181641 17.1732422,43.0055664 17.1732422,42.0066406 C17.1732422,41.0077148 17.9858398,40.1951172 18.9847656,40.1951172 L34.072168,40.1951172 C35.0710937,40.1951172 35.8836914,41.0077148 35.8836914,42.0066406 C35.8836914,43.0055664 35.0710937,43.8181641 34.072168,43.8181641 Z" id="形状" fill="#3C3C3C"></path>
                            <path d="M18.4154297,28.3788086 C17.9496094,28.3788086 17.4889648,28.202832 17.1370117,27.8457031 C16.4279297,27.1366211 16.4279297,25.9927734 17.1370117,25.2836914 L22.4628906,19.9578125 C23.1719727,19.2487305 24.3158203,19.2487305 25.0249023,19.9578125 L28.9688477,23.9017578 L33.3579102,19.5126953 C34.0669922,18.8036133 35.2108398,18.8036133 35.9199219,19.5126953 C36.6290039,20.2217773 36.6290039,21.365625 35.9199219,22.074707 L30.2524414,27.7473633 C29.5433594,28.4564453 28.3995117,28.4564453 27.6904297,27.7473633 L23.7464844,23.803418 L19.6990234,27.8457031 C19.3418945,28.202832 18.88125,28.3788086 18.4154297,28.3788086 Z" id="路径" fill="#CF0010"></path>
                        </g>
                    </g>
                </g>
            </g>
        </g>
    </g>
</svg>