<?xml version="1.0" encoding="UTF-8"?>
<svg width="60px" height="60px" viewBox="0 0 60 60" version="1.1" xmlns="http://www.w3.org/2000/svg" xmlns:xlink="http://www.w3.org/1999/xlink">
    <title>耗精力</title>
    <g id="页面-1" stroke="none" stroke-width="1" fill="none" fill-rule="evenodd">
        <g id="SDSF-企业场景" transform="translate(-360.000000, -868.000000)" fill-rule="nonzero">
            <g id="编组-8" transform="translate(360.000000, 725.000000)">
                <g id="耗精力" transform="translate(0.000000, 143.000000)">
                    <rect id="矩形" fill="#000000" opacity="0" x="0" y="0" width="60" height="60"></rect>
                    <g id="信号" transform="translate(3.000000, 4.000000)">
                        <rect id="矩形" fill="#000000" opacity="0" x="0" y="0" width="53" height="53"></rect>
                        <path d="M26.4792969,27.5713867 C25.9358398,27.5713867 25.4907227,27.1314453 25.4907227,26.5828125 C25.4907227,26.0393555 25.9306641,25.5942383 26.4792969,25.5942383 C27.0227539,25.5942383 27.4678711,26.0341797 27.4678711,26.5828125 C27.4626953,27.1314453 27.0227539,27.5713867 26.4792969,27.5713867 Z" id="路径" fill="#3C3C3C"></path>
                        <path d="M21.8780273,26.5879883 C21.8780273,24.0052734 23.9793945,21.9039063 26.5621094,21.9039063 C29.1448242,21.9039063 31.2461914,24.0052734 31.2461914,26.5879883 C31.2461914,29.1707031 29.1448242,31.2720703 26.5621094,31.2720703 C23.9742188,31.2668945 21.8780273,29.1655273 21.8780273,26.5879883 L21.8780273,26.5879883 Z" id="路径" fill="#CF0010"></path>
                        <path d="M32.6591797,36.7014648 C32.6591797,36.3081055 32.8092773,35.9147461 33.1094727,35.6145508 C35.5213867,33.2026367 36.8515625,29.9988281 36.8515625,26.5879883 C36.8515625,23.1771484 35.5213867,19.9733398 33.1094727,17.5614258 C32.509082,16.9610352 32.509082,15.9879883 33.1094727,15.3875977 C33.7098633,14.787207 34.6829102,14.787207 35.2833008,15.3875977 C36.7376953,16.8419922 37.881543,18.5344727 38.6786133,20.4236328 C39.5067383,22.3800781 39.9259766,24.4503906 39.9259766,26.5879883 C39.9259766,28.7255859 39.5067383,30.8010742 38.6786133,32.7523438 C37.881543,34.6415039 36.7376953,36.3339844 35.2833008,37.7883789 C34.6829102,38.3887695 33.7098633,38.3887695 33.1094727,37.7883789 C32.8092773,37.4881836 32.6591797,37.0948242 32.6591797,36.7014648 Z" id="路径" fill="#3C3C3C"></path>
                        <path d="M37.4105469,11.5368164 C37.4105469,11.9457031 37.5658203,12.3545898 37.8763672,12.6703125 C41.5770508,16.4072266 43.6111328,21.3552734 43.6111328,26.6138672 C43.6111328,31.846582 41.5925781,36.7791016 37.9229492,40.5108398 C37.3018555,41.1422852 37.3070312,42.1619141 37.9436523,42.7881836 C38.5750977,43.4092773 39.5947266,43.4041016 40.2209961,42.7674805 C42.2964844,40.6557617 43.9216797,38.2076172 45.0603516,35.490332 C46.2352539,32.674707 46.8356445,29.6882813 46.8356445,26.6138672 C46.8356445,23.5239258 46.2352539,20.5271484 45.0448242,17.7011719 C43.8958008,14.9683594 42.2550781,12.5150391 40.1640625,10.4033203 C39.537793,9.771875 38.5181641,9.76669922 37.8867187,10.3929688 C37.5709961,10.7086914 37.4105469,11.1227539 37.4105469,11.5368164 L37.4105469,11.5368164 Z M20.0354492,36.7014648 C20.0354492,36.3081055 19.8853516,35.9147461 19.5851563,35.6145508 C17.1732422,33.2026367 15.8430664,29.9988281 15.8430664,26.5879883 C15.8430664,23.1771484 17.1732422,19.9733398 19.5851563,17.5614258 C20.1855469,16.9610352 20.1855469,15.9879883 19.5851563,15.3875977 C18.9847656,14.787207 18.0117188,14.787207 17.4113281,15.3875977 C15.9569336,16.8419922 14.8130859,18.5344727 14.0160156,20.4236328 C13.1878906,22.3800781 12.7686523,24.4503906 12.7686523,26.5879883 C12.7686523,28.7255859 13.1878906,30.8010742 14.0160156,32.7523438 C14.8130859,34.6415039 15.9569336,36.3339844 17.4113281,37.7883789 C18.0117188,38.3887695 18.9847656,38.3887695 19.5851563,37.7883789 C19.8853516,37.4881836 20.0354492,37.0948242 20.0354492,36.7014648 L20.0354492,36.7014648 Z" id="形状" fill="#3C3C3C"></path>
                        <path d="M15.284082,11.5368164 C15.284082,11.9457031 15.1288086,12.3545898 14.8182617,12.6703125 C11.1175781,16.4072266 9.08349609,21.3552734 9.08349609,26.6138672 C9.08349609,31.846582 11.1020508,36.7791016 14.7716797,40.5108398 C15.3927734,41.1422852 15.3875977,42.1619141 14.7509766,42.7881836 C14.1195313,43.4092773 13.0999023,43.4041016 12.4736328,42.7674805 C10.3981445,40.6557617 8.77294922,38.2076172 7.63427734,35.490332 C6.459375,32.674707 5.85898437,29.6882812 5.85898437,26.6138672 C5.85898437,23.5239258 6.459375,20.5271484 7.64980469,17.7011719 C8.79365234,14.9735352 10.434375,12.5202148 12.5253906,10.4084961 C13.1516602,9.77705078 14.1712891,9.771875 14.8027344,10.3981445 C15.1236328,10.7086914 15.284082,11.1227539 15.284082,11.5368164 Z" id="路径" fill="#3C3C3C"></path>
                    </g>
                </g>
            </g>
        </g>
    </g>
</svg>