<?xml version="1.0" encoding="UTF-8"?>
<svg width="60px" height="60px" viewBox="0 0 60 60" version="1.1" xmlns="http://www.w3.org/2000/svg" xmlns:xlink="http://www.w3.org/1999/xlink">
    <title>服务差</title>
    <g id="页面-1" stroke="none" stroke-width="1" fill="none" fill-rule="evenodd">
        <g id="SDSF-企业场景" transform="translate(-360.000000, -868.000000)" fill-rule="nonzero">
            <g id="编组-8" transform="translate(360.000000, 725.000000)">
                <g id="服务差" transform="translate(0.000000, 143.000000)">
                    <rect id="矩形" fill="#000000" opacity="0" x="0" y="0" width="60" height="60"></rect>
                    <g id="铃声" transform="translate(3.000000, 4.000000)">
                        <rect id="矩形" fill="#000000" opacity="0" x="0" y="0" width="53" height="53"></rect>
                        <path d="M37.7573242,33.3113281 C36.7583984,33.3113281 35.9458008,32.4987305 35.9458008,31.4998047 L35.9458008,22.8303711 C35.9458008,17.6494141 31.7327148,13.4363281 26.5517578,13.4363281 C21.3708008,13.4363281 17.1577148,17.6494141 17.1577148,22.8303711 L17.1577148,31.4998047 C17.1577148,32.4987305 16.3451172,33.3113281 15.3461914,33.3113281 C14.3472656,33.3113281 13.534668,32.4987305 13.534668,31.4998047 L13.534668,22.8303711 C13.534668,19.3625977 14.8907227,16.0966797 17.3595703,13.6330078 C19.8232422,11.1693359 23.0891602,9.80810547 26.5569336,9.80810547 C30.024707,9.80810547 33.290625,11.1641602 35.7542969,13.6330078 C38.2179687,16.0966797 39.5791992,19.3625977 39.5791992,22.8303711 L39.5791992,31.4998047 C39.5688477,32.4987305 38.7614258,33.3113281 37.7573242,33.3113281 L37.7573242,33.3113281 Z" id="路径" fill="#3C3C3C"></path>
                        <path d="M40.9352539,39.1082031 L12.1682617,39.1082031 C9.69423828,39.1082031 7.68603516,37.0948242 7.68603516,34.6259766 C7.68603516,32.1571289 9.69941406,30.14375 12.1682617,30.14375 L15.3410156,30.14375 C16.3399414,30.14375 17.1525391,30.9563477 17.1525391,31.9552734 C17.1525391,32.9541992 16.3399414,33.7667969 15.3410156,33.7667969 L12.1682617,33.7667969 C11.6920898,33.7667969 11.309082,34.1549805 11.309082,34.6259766 C11.309082,35.0969727 11.6972656,35.4851563 12.1682617,35.4851563 L40.9300781,35.4851563 C41.40625,35.4851563 41.7892578,35.0969727 41.7892578,34.6259766 C41.7892578,34.1549805 41.4010742,33.7667969 40.9300781,33.7667969 L37.7573242,33.7667969 C36.7583984,33.7667969 35.9458008,32.9541992 35.9458008,31.9552734 C35.9458008,30.9563477 36.7583984,30.14375 37.7573242,30.14375 L40.9300781,30.14375 C43.4041016,30.14375 45.4123047,32.1571289 45.4123047,34.6259766 C45.4123047,37.0948242 43.4041016,39.1082031 40.9352539,39.1082031 Z" id="路径" fill="#3C3C3C"></path>
                        <path d="M26.5517578,47.4929688 C23.399707,47.4929688 20.8325195,44.9257812 20.8325195,41.7737305 C20.8325195,40.7748047 21.6451172,39.962207 22.644043,39.962207 C23.6429688,39.962207 24.4555664,40.7748047 24.4555664,41.7737305 C24.4555664,42.9279297 25.3975586,43.8699219 26.5517578,43.8699219 C27.705957,43.8699219 28.6479492,42.9279297 28.6479492,41.7737305 C28.6479492,40.7748047 29.4605469,39.962207 30.4594727,39.962207 C31.4583984,39.962207 32.2709961,40.7748047 32.2709961,41.7737305 C32.2709961,44.930957 29.7038086,47.4929688 26.5517578,47.4929688 Z" id="路径" fill="#CF0010"></path>
                        <path d="M28.6427734,8.88681641 L24.4555664,8.88681641 C23.4566406,8.88681641 22.644043,8.07421875 22.644043,7.07529297 C22.644043,6.07636719 23.4566406,5.26376953 24.4555664,5.26376953 L28.6427734,5.26376953 C29.6416992,5.26376953 30.4542969,6.07636719 30.4542969,7.07529297 C30.4542969,8.07421875 29.646875,8.88681641 28.6427734,8.88681641 Z" id="路径" fill="#3C3C3C"></path>
                    </g>
                </g>
            </g>
        </g>
    </g>
</svg>