<?xml version="1.0" encoding="UTF-8"?>
<svg width="60px" height="60px" viewBox="0 0 60 60" version="1.1" xmlns="http://www.w3.org/2000/svg" xmlns:xlink="http://www.w3.org/1999/xlink">
    <title>投入高</title>
    <g id="页面-1" stroke="none" stroke-width="1" fill="none" fill-rule="evenodd">
        <g id="SDSF-企业场景" transform="translate(-360.000000, -868.000000)" fill-rule="nonzero">
            <g id="编组-8" transform="translate(360.000000, 725.000000)">
                <g id="投入高" transform="translate(0.000000, 143.000000)">
                    <rect id="矩形" fill="#000000" opacity="0" x="0" y="0" width="60" height="60"></rect>
                    <g id="饼图" transform="translate(3.000000, 4.000000)">
                        <rect id="矩形" fill="#000000" opacity="0" x="0" y="0" width="53" height="53"></rect>
                        <path d="M26.5517578,46.8097656 C23.8085937,46.8097656 21.1482422,46.2714844 18.6431641,45.2104492 C16.2208984,44.1856445 14.0522461,42.7208984 12.1837891,40.8576172 C10.3205078,38.9943359 8.85058594,36.8205078 7.83095703,34.3982422 C6.76992187,31.8931641 6.23164062,29.2276367 6.23164062,26.4896484 C6.23164062,22.3386719 7.47382812,18.3429687 9.82880859,14.9424805 C12.1268555,11.6196289 15.3203125,9.07832031 19.0624023,7.59287109 C19.994043,7.22539063 21.0447266,7.68085938 21.412207,8.60732422 C21.7796875,9.53896484 21.3242187,10.5896484 20.3977539,10.9571289 C13.9953125,13.4984375 9.8546875,19.5955078 9.8546875,26.4844727 C9.8546875,35.6921875 17.344043,43.181543 26.5517578,43.181543 C33.4200195,43.181543 39.6878906,38.875293 42.1463867,32.4676758 C42.5035156,31.5360352 43.5541992,31.0650391 44.4858398,31.4273438 C45.4174805,31.7844727 45.8884766,32.8351563 45.5261719,33.7667969 C44.0666016,37.5606445 41.5304687,40.8058594 38.1869141,43.1453125 C34.7657227,45.546875 30.7441406,46.8097656 26.5517578,46.8097656 Z" id="路径" fill="#3C3C3C"></path>
                        <path d="M45.0603516,28.3011719 L26.5517578,28.2908203 C25.552832,28.2908203 24.7402344,27.4782227 24.7402344,26.4792969 L24.7402344,7.98105469 C24.7402344,6.98212891 25.552832,6.16953125 26.5517578,6.16953125 C29.2949219,6.16953125 31.9552734,6.7078125 34.4603516,7.76884766 C36.8826172,8.79365234 39.0512695,10.2583984 40.9197266,12.1216797 C42.7830078,13.9849609 44.2529297,16.1587891 45.2725586,18.5810547 C46.3335937,21.0861328 46.871875,23.7516602 46.871875,26.4896484 C46.871875,26.9709961 46.6803711,27.4316406 46.3387695,27.7732422 C46.0023437,28.109668 45.5416992,28.3011719 45.0603516,28.3011719 L45.0603516,28.3011719 Z M28.3632812,24.6677734 L43.1504883,24.678125 C42.3120117,16.9144531 36.1269531,10.7293945 28.3632812,9.89091797 L28.3632812,24.6677734 Z" id="形状" fill="#CF0010"></path>
                    </g>
                </g>
            </g>
        </g>
    </g>
</svg>