<?xml version="1.0" encoding="UTF-8"?>
<svg width="60px" height="60px" viewBox="0 0 60 60" version="1.1" xmlns="http://www.w3.org/2000/svg" xmlns:xlink="http://www.w3.org/1999/xlink">
    <title>防护不全面</title>
    <g id="页面-1" stroke="none" stroke-width="1" fill="none" fill-rule="evenodd">
        <g id="SDSF-企业场景" transform="translate(-360.000000, -868.000000)" fill-rule="nonzero">
            <g id="编组-8" transform="translate(360.000000, 725.000000)">
                <g id="防护不全面" transform="translate(0.000000, 143.000000)">
                    <rect id="矩形" fill="#000000" opacity="0" x="0" y="0" width="60" height="60"></rect>
                    <g id="扫描" transform="translate(3.000000, 4.000000)">
                        <rect id="矩形" fill="#000000" opacity="0" x="0" y="0" width="53" height="53"></rect>
                        <path d="M42.1292419,21.2401123 C41.192749,21.2401123 40.4309387,20.478302 40.4309387,19.5418091 L40.4309387,12.3070374 L12.7194824,12.3070374 L12.7194824,19.5418091 C12.7194824,20.478302 11.9576721,21.2401123 11.0211792,21.2401123 C10.0846863,21.2401123 9.32287598,20.478302 9.32287598,19.5418091 L9.32287598,11.5258179 C9.32287598,10.0846863 10.4971313,8.91043091 11.9382629,8.91043091 L41.2121582,8.91043091 C42.6532898,8.91043091 43.8275452,10.0846863 43.8275452,11.5258179 L43.8275452,19.5418091 C43.8275452,20.478302 43.0657349,21.2401123 42.1292419,21.2401123 Z M41.2121582,44.138092 L11.9382629,44.138092 C10.4971313,44.138092 9.32287598,42.9638367 9.32287598,41.5227051 L9.32287598,33.5067139 C9.32287598,32.5702209 10.0846863,31.8084106 11.0211792,31.8084106 C11.9576721,31.8084106 12.7194824,32.5702209 12.7194824,33.5067139 L12.7194824,40.7414856 L40.4309387,40.7414856 L40.4309387,33.5067139 C40.4309387,32.5702209 41.192749,31.8084106 42.1292419,31.8084106 C43.0657349,31.8084106 43.8275452,32.5702209 43.8275452,33.5067139 L43.8275452,41.5227051 C43.8275452,42.9638367 42.6532898,44.138092 41.2121582,44.138092 Z" id="形状" fill="#3C3C3C"></path>
                        <path d="M36.0347595,28.2516785 L17.1108093,28.2516785 C16.1743164,28.2516785 15.4125061,27.4898682 15.4125061,26.5533752 C15.4125061,25.6168823 16.1743164,24.855072 17.1108093,24.855072 L36.0347595,24.855072 C36.9712524,24.855072 37.7330627,25.6168823 37.7330627,26.5533752 C37.7330627,27.4898682 36.9761047,28.2516785 36.0347595,28.2516785 Z" id="路径" fill="#CF0010"></path>
                    </g>
                </g>
            </g>
        </g>
    </g>
</svg>