<?xml version="1.0" encoding="UTF-8"?>
<svg width="60px" height="60px" viewBox="0 0 60 60" version="1.1" xmlns="http://www.w3.org/2000/svg" xmlns:xlink="http://www.w3.org/1999/xlink">
    <title>数据被爬虫</title>
    <g id="页面-1" stroke="none" stroke-width="1" fill="none" fill-rule="evenodd">
        <g id="SDSF-企业场景" transform="translate(-360.000000, -868.000000)" fill-rule="nonzero">
            <g id="编组-8" transform="translate(360.000000, 725.000000)">
                <g id="数据被爬虫" transform="translate(0.000000, 143.000000)">
                    <rect id="矩形" fill="#000000" opacity="0" x="0" y="0" width="60" height="60"></rect>
                    <g id="数据" transform="translate(3.000000, 4.000000)">
                        <rect id="矩形" fill="#000000" opacity="0" x="0" y="0" width="53" height="53"></rect>
                        <path d="M42.7053711,38.0419922 L10.4757813,38.0419922 C8.97998047,38.0419922 7.76367188,36.8256836 7.76367188,35.3298828 L7.76367188,12.3701172 C7.76367188,10.8743164 8.97998047,9.65800781 10.4757813,9.65800781 L42.7053711,9.65800781 C44.2011719,9.65800781 45.4174805,10.8743164 45.4174805,12.3701172 L45.4174805,35.3350586 C45.4123047,36.8256836 44.1959961,38.0419922 42.7053711,38.0419922 Z M11.215918,34.5949219 L41.9652344,34.5949219 L41.9652344,13.1102539 L11.215918,13.1102539 L11.215918,34.5949219 L11.215918,34.5949219 Z M34.1342773,43.7301758 L19.046875,43.7301758 C18.0945313,43.7301758 17.3233398,42.9589844 17.3233398,42.0066406 C17.3233398,41.0542969 18.0945312,40.2831055 19.046875,40.2831055 L34.1342773,40.2831055 C35.0866211,40.2831055 35.8578125,41.0542969 35.8578125,42.0066406 C35.8578125,42.9589844 35.0866211,43.7301758 34.1342773,43.7301758 Z" id="形状" fill="#3C3C3C"></path>
                        <path d="M17.7891602,30.3870117 C16.8368164,30.3870117 16.065625,29.6158203 16.065625,28.6634766 L16.065625,19.0365234 C16.065625,18.0841797 16.8368164,17.3129883 17.7891602,17.3129883 C18.7415039,17.3129883 19.5126953,18.0841797 19.5126953,19.0365234 L19.5126953,28.6634766 C19.5126953,29.6158203 18.7415039,30.3870117 17.7891602,30.3870117 Z M35.3868164,30.3870117 C34.4344727,30.3870117 33.6632813,29.6158203 33.6632813,28.6634766 L33.6632813,20.0716797 C33.6632813,19.1193359 34.4344727,18.3481445 35.3868164,18.3481445 C36.3391602,18.3481445 37.1103516,19.1193359 37.1103516,20.0716797 L37.1103516,28.6634766 C37.1103516,29.6158203 36.3391602,30.3870117 35.3868164,30.3870117 Z M26.5879883,30.3870117 C25.6356445,30.3870117 24.8644531,29.6158203 24.8644531,28.6634766 L24.8644531,22.6595703 C24.8644531,21.7072266 25.6356445,20.9360352 26.5879883,20.9360352 C27.540332,20.9360352 28.3115234,21.7072266 28.3115234,22.6595703 L28.3115234,28.6634766 C28.3115234,29.6158203 27.540332,30.3870117 26.5879883,30.3870117 Z" id="形状" fill="#CF0010"></path>
                    </g>
                </g>
            </g>
        </g>
    </g>
</svg>