<?xml version="1.0" encoding="UTF-8"?>
<svg width="60px" height="60px" viewBox="0 0 60 60" version="1.1" xmlns="http://www.w3.org/2000/svg" xmlns:xlink="http://www.w3.org/1999/xlink">
    <title>专业服务</title>
    <g id="页面-1" stroke="none" stroke-width="1" fill="none" fill-rule="evenodd">
        <g id="SDSF-联系我们" transform="translate(-1329.000000, -1293.000000)" fill-rule="nonzero">
            <g id="产品优势" transform="translate(359.000000, 1176.000000)">
                <g id="编组-6备份-7" transform="translate(815.000000, 100.000000)">
                    <g id="专业服务" transform="translate(155.000000, 17.000000)">
                        <rect id="矩形" fill="#000000" opacity="0" x="0" y="0" width="60" height="60"></rect>
                        <path d="M31.4007693,13.4953846 C33.9874834,10.7716228 37.5790608,9.22936474 41.3353846,9.22936474 C45.0917084,9.22936474 48.6832859,10.7716228 51.27,13.4953846 C56.6146154,19.0361539 56.7530769,27.9323077 51.6807693,33.6461538 L51.27,34.0892307 L49.8692307,35.5430769 L30,53.0769231 L10.1307693,35.5430769 L8.73,34.0892307 C3.24461537,28.4030769 3.24461537,19.1815385 8.73,13.4953846 C11.2456578,10.8453514 14.7160754,9.31060851 18.3691733,9.23259717 C22.0222712,9.15458582 25.5550436,10.5397767 28.1815385,13.08 L28.5969231,13.4953846 L30,14.9492307 L31.4007693,13.4953846 Z M25.2761538,16.7007693 C21.6069231,12.893077 15.7223077,12.893077 12.0530769,16.7007693 C8.41615383,20.4692308 8.29384617,26.5638462 11.6884615,30.4869231 L12.0530769,30.8861538 L13.3223077,32.2038462 L30,46.92 L46.6615385,32.2176923 L47.9492307,30.8861538 C51.5838461,27.1176923 51.7061538,21.0230769 48.3115385,17.0976923 L47.9492307,16.7007693 C44.3953846,13.0176923 38.7715385,12.8976923 35.0861538,16.3430769 L34.7238462,16.7007693 L30.0023077,21.5953846 L25.2761538,16.7007693 Z" id="形状" fill="#3C3C3C"></path>
                        <path d="M36.9230769,23.0769231 C36.9230769,25.6259296 38.989455,27.6923077 41.5384615,27.6923077 C44.0874681,27.6923077 46.1538462,25.6259296 46.1538462,23.0769231 C46.1538462,20.5279165 44.0874681,18.4615385 41.5384615,18.4615385 C38.989455,18.4615385 36.9230769,20.5279165 36.9230769,23.0769231 Z" id="路径" fill="#CF0010"></path>
                    </g>
                </g>
            </g>
        </g>
    </g>
</svg>