<?xml version="1.0" encoding="UTF-8"?>
<svg width="70px" height="70px" viewBox="0 0 70 70" version="1.1" xmlns="http://www.w3.org/2000/svg" xmlns:xlink="http://www.w3.org/1999/xlink">
    <title>数据采集</title>
    <defs>
        <linearGradient x1="100%" y1="27.6369704%" x2="14.4115551%" y2="82.4459877%" id="linearGradient-1">
            <stop stop-color="#FF8888" offset="0%"></stop>
            <stop stop-color="#CF0010" offset="100%"></stop>
        </linearGradient>
    </defs>
    <g id="页面-1" stroke="none" stroke-width="1" fill="none" fill-rule="evenodd">
        <g id="SDSF-产品中心（数据接入服务）" transform="translate(-380.000000, -2060.000000)">
            <g id="产品优势备份" transform="translate(361.000000, 1961.000000)">
                <g id="编组-6" transform="translate(0.000000, 99.000000)">
                    <g id="数据采集" transform="translate(19.000000, 0.000000)">
                        <rect id="矩形" x="0" y="0" width="70" height="70"></rect>
                        <g id="编组-7" transform="translate(9.000000, 10.000000)">
                            <rect id="矩形" stroke="#FFC8C8" fill="url(#linearGradient-1)" x="9.5" y="0.5" width="35" height="28" rx="5"></rect>
                            <rect id="矩形" stroke-opacity="0.302418529" stroke="#FFC8C8" x="0.5" y="10.5" width="51" height="39" rx="5"></rect>
                            <g id="工具" transform="translate(16.000000, 20.000000)"></g>
                            <g id="书店_采集统计" transform="translate(17.249859, 20.249995)" fill-rule="nonzero">
                                <rect id="矩形" fill="#000000" opacity="0" x="0" y="0" width="18.5" height="18.5"></rect>
                                <path d="M2.3125,16.071875 L2.3125,2.42089844 C2.3125,2.3612793 2.2637207,2.3125 2.20410156,2.3125 L1.26464844,2.3125 C1.2050293,2.3125 1.15625,2.3612793 1.15625,2.42089844 L1.15625,17.1197266 C1.15625,17.2389648 1.25380859,17.3365234 1.37304688,17.3365234 L17.2389648,17.3365234 C17.298584,17.3365234 17.3473633,17.2877441 17.3473633,17.228125 L17.3473633,16.2886719 C17.3473633,16.2290527 17.298584,16.1802734 17.2389648,16.1802734 L2.42089844,16.1802734 C2.3612793,16.1802734 2.3125,16.1314941 2.3125,16.071875 Z M6.72250977,10.4134766 L3.68554688,10.4134766 C3.56630859,10.4134766 3.46875,10.5110352 3.46875,10.6302734 L3.46875,14.8162598 C3.46875,14.935498 3.56630859,15.0330566 3.68554688,15.0330566 L6.72070312,15.0330566 C6.83994141,15.0330566 6.93752469,14.935498 6.93752469,14.8162598 L6.93752469,10.6302734 C6.93930664,10.5110352 6.84174805,10.4134766 6.72250977,10.4134766 Z M5.6746582,13.8768066 L4.73520508,13.8768066 C4.67558594,13.8768066 4.62680664,13.8280273 4.62680664,13.7684082 L4.62680664,11.678125 C4.62680664,11.6185059 4.67558594,11.5697266 4.73520508,11.5697266 L5.6746582,11.5697266 C5.73427734,11.5697266 5.78305664,11.6185059 5.78305664,11.678125 L5.78305664,13.7684082 C5.78305664,13.8280273 5.73427734,13.8768066 5.6746582,13.8768066 L5.6746582,13.8768066 Z M11.3475098,4.625 L8.31235352,4.625 C8.19311523,4.625 8.09555664,4.72255859 8.09555664,4.84179687 L8.09555664,14.8162598 C8.09555664,14.935498 8.19311523,15.0330566 8.31235352,15.0330566 L11.3475098,15.0330566 C11.466748,15.0330566 11.5643066,14.935498 11.5643066,14.8162598 L11.5643066,4.84179687 C11.5643066,4.72075195 11.4685547,4.625 11.3475098,4.625 Z M10.2996582,13.8768066 L9.36020508,13.8768066 C9.30058594,13.8768066 9.25180664,13.8280273 9.25180664,13.7684082 L9.25180664,5.88964844 C9.25180664,5.8300293 9.30058594,5.78125 9.36020508,5.78125 L10.2996582,5.78125 C10.3592773,5.78125 10.4080566,5.8300293 10.4080566,5.88964844 L10.4080566,13.7684082 C10.4080566,13.8280273 10.3592773,13.8768066 10.2996582,13.8768066 L10.2996582,13.8768066 Z M15.9743164,8.09736328 L12.9391602,8.09736328 C12.8199219,8.09736328 12.7223633,8.19492187 12.7223633,8.31416016 L12.7223633,14.8162598 C12.7223633,14.935498 12.8199219,15.0330566 12.9391602,15.0330566 L15.9743164,15.0330566 C16.0935547,15.0330566 16.1911133,14.935498 16.1911133,14.8162598 L16.1911133,8.31416016 C16.1911133,8.19492187 16.0935547,8.09736328 15.9743164,8.09736328 Z M14.9264648,13.8768066 L13.9870117,13.8768066 C13.9273926,13.8768066 13.8786133,13.8280273 13.8786133,13.7684082 L13.8786133,9.36201172 C13.8786133,9.30239258 13.9273926,9.25361328 13.9870117,9.25361328 L14.9264648,9.25361328 C14.986084,9.25361328 15.0348633,9.30239258 15.0348633,9.36201172 L15.0348633,13.7684082 C15.0348633,13.8280273 14.986084,13.8768066 14.9264648,13.8768066 L14.9264648,13.8768066 Z" id="形状" stroke="#CF0010" stroke-width="0.5" fill="#CF0010"></path>
                            </g>
                        </g>
                    </g>
                </g>
            </g>
        </g>
    </g>
</svg>