<?xml version="1.0" encoding="UTF-8"?>
<svg width="70px" height="70px" viewBox="0 0 70 70" version="1.1" xmlns="http://www.w3.org/2000/svg" xmlns:xlink="http://www.w3.org/1999/xlink">
    <title>数据传输</title>
    <defs>
        <linearGradient x1="86.4366449%" y1="18.7775798%" x2="20.1632438%" y2="88.7400232%" id="linearGradient-1">
            <stop stop-color="#FF8888" offset="0%"></stop>
            <stop stop-color="#CF0010" offset="100%"></stop>
        </linearGradient>
        <path d="M26.3421053,0.0734719056 C26.1243124,-0.0244906352 25.8756876,-0.0244906352 25.6578947,0.0734719056 L10.5,6.88920338 C10.1959461,7.02596586 10,7.3310416 10,7.66768773 L10,16.366265 C10,25.1468441 15.1068421,33.1002171 23.0105263,36.6270919 C24.305,37.2048316 25.2828947,37.4857143 26,37.4857143 C26.7171052,37.4857143 27.695,37.2048316 28.9894737,36.6270919 C36.8931579,33.0994183 42,25.1460454 42,16.366265 L42,7.66768773 C42,7.3310416 41.8040539,7.02596586 41.5,6.88920338 L26.3421053,0.0734719056 Z" id="path-2"></path>
        <filter id="filter-3">
            <feColorMatrix in="SourceGraphic" type="matrix" values="0 0 0 0 0.811765 0 0 0 0 0.000000 0 0 0 0 0.062745 0 0 0 1.000000 0"></feColorMatrix>
        </filter>
    </defs>
    <g id="页面-1" stroke="none" stroke-width="1" fill="none" fill-rule="evenodd">
        <g id="SDSF-产品中心（数据接入服务）" transform="translate(-990.000000, -2060.000000)">
            <g id="产品优势备份" transform="translate(361.000000, 1961.000000)">
                <g id="编组-6备份-6" transform="translate(610.000000, 99.000000)">
                    <g id="数据传输" transform="translate(19.000000, 0.000000)">
                        <rect id="矩形" x="0" y="0" width="70" height="70"></rect>
                        <g id="编组-7" transform="translate(9.000000, 8.000000)">
                            <g id="路径" fill-rule="nonzero">
                                <use fill="#CF0010" xlink:href="#path-2"></use>
                                <use stroke="#FFC8C8" stroke-width="1" fill="url(#linearGradient-1)" xlink:href="#path-2"></use>
                            </g>
                            <rect id="矩形" stroke-opacity="0.302418529" stroke="#FFC8C8" x="0.5" y="12.5" width="51" height="39" rx="5"></rect>
                            <g filter="url(#filter-3)" id="传输">
                                <g transform="translate(16.500000, 23.187500)">
                                    <rect id="矩形" fill="#000000" fill-rule="nonzero" opacity="0" x="0" y="0" width="18.5" height="18.5"></rect>
                                    <path d="M14.375213,7.97554274 C14.2067389,7.97554274 14.0451854,7.90852671 13.9262797,7.78917448 C13.6777823,7.54067708 13.6777823,7.13862969 13.9262797,6.89053698 L15.383251,5.43318021 L13.9262797,3.97620885 C13.6777823,3.72811615 13.6777823,3.32529792 13.9262797,3.07720521 C14.1743724,2.82907396 14.5764198,2.82907396 14.8245125,3.07720521 L16.2814839,4.53452344 C16.7773224,5.02995729 16.7773224,5.83638385 16.2814839,6.33179844 L14.8245125,7.78915521 C14.7002927,7.9130474 14.537724,7.97554274 14.375213,7.97554274 M14.375213,15.6010885 C14.2126635,15.6010885 14.0501333,15.5393641 13.9262797,15.4150865 C13.6777823,15.1666276 13.6777823,14.7645802 13.9262797,14.5164875 L15.383251,13.0594776 L13.9262797,11.6021594 C13.6777823,11.353662 13.6777823,10.9516146 13.9262797,10.7035219 C14.1743724,10.4554292 14.5764198,10.4554292 14.8245125,10.7035219 L16.2814839,12.1604932 C16.7773224,12.6555224 16.7773224,13.4627391 16.2814839,13.9581344 L14.8245125,15.4151057 C14.7002927,15.5393448 14.537724,15.6010885 14.375213,15.6010885 M8.65597656,9.88185208 C8.30430313,9.88185208 8.02027031,9.59739531 8.02027031,9.24614583 C8.02027031,7.49419583 6.88016927,6.06848177 5.4783125,6.06848177 L2.30062917,6.06848177 C1.94939896,6.06848177 1.6653276,5.78406354 1.6653276,5.43318021 C1.6653276,5.08195 1.94939896,4.79787865 2.30062917,4.79787865 L5.4783125,4.79787865 C7.58110729,4.79787865 9.29123958,6.79364323 9.29123958,9.24614583 C9.29123958,9.59737604 9.00682135,9.88185208 8.65597656,9.88185208 M5.4783125,13.6947792 L2.30062917,13.6947792 C1.94939896,13.6947792 1.6653276,13.4103609 1.6653276,13.0594776 C1.6653276,12.7078427 1.94939896,12.4238099 2.30062917,12.4238099 L5.4783125,12.4238099 C5.87292135,12.4238099 6.25151615,12.312463 6.60392188,12.093662 C6.8997099,11.9076599 7.29275781,11.9987146 7.47795052,12.2972198 C7.6639526,12.5949349 7.57289792,12.9864219 7.27477813,13.172424 C6.72661927,13.5142885 6.10540469,13.6947792 5.4783125,13.6947792" id="形状" stroke="#979797" stroke-width="0.7" fill="#000000" fill-rule="nonzero"></path>
                                    <path d="M15.0108807,13.6947792 L11.8332359,13.6947792 C9.7304026,13.6947792 8.02027031,11.6986484 8.02027031,9.24614583 C8.02027031,6.79364323 9.7304026,4.79787865 11.8332359,4.79787865 L15.0108615,4.79787865 C15.3621495,4.79787865 15.646163,5.08195 15.646163,5.43318021 C15.646163,5.78406354 15.3621302,6.06848177 15.0108615,6.06848177 L11.8332359,6.06848177 C10.4313599,6.06848177 9.29122031,7.49419583 9.29122031,9.24614583 C9.29122031,10.9985005 10.4313599,12.4238099 11.8332359,12.4238099 L15.0108615,12.4238099 C15.3621495,12.4238099 15.646163,12.7078234 15.646163,13.0594776 C15.646163,13.4103609 15.3621495,13.6947792 15.0108807,13.6947792" id="路径" stroke="#979797" stroke-width="0.7" fill="#000000" fill-rule="nonzero"></path>
                                </g>
                            </g>
                        </g>
                    </g>
                </g>
            </g>
        </g>
    </g>
</svg>