<?xml version="1.0" encoding="UTF-8"?>
<svg width="70px" height="70px" viewBox="0 0 70 70" version="1.1" xmlns="http://www.w3.org/2000/svg" xmlns:xlink="http://www.w3.org/1999/xlink">
    <title>数据处理</title>
    <defs>
        <linearGradient x1="100%" y1="15.5380661%" x2="14.4115551%" y2="100%" id="linearGradient-1">
            <stop stop-color="#FF8888" offset="0%"></stop>
            <stop stop-color="#CF0010" offset="100%"></stop>
        </linearGradient>
        <filter id="filter-2">
            <feColorMatrix in="SourceGraphic" type="matrix" values="0 0 0 0 0.811765 0 0 0 0 0.000000 0 0 0 0 0.062745 0 0 0 1.000000 0"></feColorMatrix>
        </filter>
    </defs>
    <g id="页面-1" stroke="none" stroke-width="1" fill="none" fill-rule="evenodd">
        <g id="SDSF-产品中心（数据接入服务）" transform="translate(-380.000000, -2204.000000)">
            <g id="产品优势备份" transform="translate(361.000000, 1961.000000)">
                <g id="编组-6备份-3" transform="translate(0.000000, 243.000000)">
                    <g id="数据处理" transform="translate(19.000000, 0.000000)">
                        <rect id="矩形" x="0" y="0" width="70" height="70"></rect>
                        <g id="编组-7" transform="translate(9.000000, 10.000000)">
                            <rect id="矩形" stroke="#FFC8C8" fill="url(#linearGradient-1)" x="15.5" y="15.5" width="34" height="34" rx="5"></rect>
                            <rect id="矩形" stroke-opacity="0.302418529" stroke="#FFC8C8" x="0.5" y="0.5" width="39" height="39" rx="5"></rect>
                            <g filter="url(#filter-2)" id="待处理计划">
                                <g transform="translate(10.250000, 10.875000)">
                                    <rect id="矩形" fill="#000000" fill-rule="nonzero" opacity="0" x="0" y="0" width="18.5" height="18.5"></rect>
                                    <path d="M9.25,17.575 C4.65222946,17.575 0.925,13.8477705 0.925,9.25 C0.925,4.65222946 4.65222946,0.925 9.25,0.925 C13.8477705,0.925 17.575,4.65222946 17.575,9.25 C17.575,9.5054317 17.7820683,9.7125 18.0375,9.7125 C18.2929317,9.7125 18.5,9.5054317 18.5,9.25 C18.5,4.14136606 14.3586339,0 9.25,0 C4.14136606,0 0,4.14136606 0,9.25 C0,14.3586339 4.14136606,18.5 9.25,18.5 C9.5054317,18.5 9.7125,18.2929317 9.7125,18.0375 C9.7125,17.7820683 9.5054317,17.575 9.25,17.575 Z" id="路径" stroke="#979797" fill="#000000" fill-rule="nonzero"></path>
                                    <path d="M13.875,9.25 C11.320683,9.25 9.25,11.320683 9.25,13.875 C9.25,16.429317 11.320683,18.5 13.875,18.5 C16.429317,18.5 18.5,16.429317 18.5,13.875 C18.5,11.320683 16.429317,9.25 13.875,9.25 L13.875,9.25 Z M13.875,17.575 C11.9313293,17.5617381 10.32929,16.0467935 10.2075137,14.106896 C10.0857373,12.1669985 11.4857463,10.4636014 13.4125,10.207375 L13.4125,13.875 C13.4125,13.9976626 13.4612275,14.1153013 13.5479631,14.2020369 C13.6346987,14.2887725 13.7523374,14.3375 13.875,14.3375 L16.1875,14.3375 C16.4429317,14.3375 16.65,14.1304317 16.65,13.875 C16.65,13.6195683 16.4429317,13.4125 16.1875,13.4125 L14.3375,13.4125 L14.3375,10.207375 C16.2642537,10.4636014 17.6642627,12.1669985 17.5424863,14.106896 C17.42071,16.0467935 15.8186707,17.5617381 13.875,17.575 L13.875,17.575 Z M5.813625,4.54175 L2.215375,8.14 C2.05943607,8.32460498 2.07190039,8.59814231 2.24398209,8.76780031 C2.41606378,8.93745832 2.68975038,8.94604162 2.872125,8.7875 L5.813625,5.846 L9.74025,9.772625 L14.64275,4.870125 C14.7747365,4.75709468 14.8322279,4.57962024 14.7915872,4.41066873 C14.7509465,4.24171721 14.6190328,4.10980352 14.4500813,4.06916281 C14.2811298,4.0285221 14.1036553,4.08601353 13.990625,4.218 L9.74025,8.468375 L6.475,5.1985 L5.813625,4.54175 Z" id="形状" stroke="#979797" fill="#000000" fill-rule="nonzero"></path>
                                </g>
                            </g>
                        </g>
                    </g>
                </g>
            </g>
        </g>
    </g>
</svg>