<?xml version="1.0" encoding="UTF-8"?>
<svg width="70px" height="70px" viewBox="0 0 70 70" version="1.1" xmlns="http://www.w3.org/2000/svg" xmlns:xlink="http://www.w3.org/1999/xlink">
    <title>数据缓存</title>
    <defs>
        <linearGradient x1="22.3038737%" y1="77.4981689%" x2="100%" y2="18.5262044%" id="linearGradient-1">
            <stop stop-color="#CF0010" offset="0%"></stop>
            <stop stop-color="#FF8888" offset="100%"></stop>
        </linearGradient>
        <filter id="filter-2">
            <feColorMatrix in="SourceGraphic" type="matrix" values="0 0 0 0 0.811765 0 0 0 0 0.000000 0 0 0 0 0.062745 0 0 0 1.000000 0"></feColorMatrix>
        </filter>
    </defs>
    <g id="页面-1" stroke="none" stroke-width="1" fill="none" fill-rule="evenodd">
        <g id="SDSF-产品中心（数据接入服务）" transform="translate(-990.000000, -2204.000000)">
            <g id="产品优势备份" transform="translate(361.000000, 1961.000000)">
                <g id="编组-6备份-7" transform="translate(610.000000, 243.000000)">
                    <g id="数据缓存" transform="translate(19.000000, 0.000000)">
                        <rect id="矩形" x="0" y="0" width="70" height="70"></rect>
                        <g id="编组-9" transform="translate(10.000000, 10.000000)">
                            <circle id="椭圆形备份" stroke="#FFC8C8" fill="url(#linearGradient-1)" cx="32.5" cy="17.5" r="17"></circle>
                            <circle id="椭圆形" stroke-opacity="0.3" stroke="#FFC8C8" cx="22.5" cy="27.5" r="22"></circle>
                            <g filter="url(#filter-2)" id="缓存">
                                <g transform="translate(13.000000, 18.000000)">
                                    <rect id="矩形" fill="#000000" fill-rule="nonzero" opacity="0" x="0" y="0" width="18.5" height="18.5"></rect>
                                    <path d="M3.5938916,5.32900391 L3.6838916,5.32900391 L3.5938916,5.32900391 Z M14.9192383,5.28984375 C14.9138184,5.29165039 14.9083984,5.28984375 14.9029785,5.28984375 C14.6355957,5.28984375 14.4169922,5.50664063 14.4169922,5.77583008 C14.4169922,6.04321289 14.6337891,6.26181641 14.9029785,6.26181641 L14.9083984,6.26181641 C15.7087402,6.26542969 16.3591309,6.91762695 16.3591309,7.71796875 L16.3591309,13.3564941 C16.3591309,13.7322754 16.2145996,14.0737305 15.981543,14.3320801 C15.8713379,14.453125 15.7412598,14.5561035 15.5949219,14.6355957 C15.3889648,14.7476074 15.1541016,14.8144531 14.9029785,14.8144531 L3.60605469,14.8144531 C3.40732422,14.8144531 3.21943359,14.7729004 3.04599609,14.7006348 C2.89423828,14.6374023 2.75512695,14.548877 2.63588867,14.4404785 C2.33779297,14.1730957 2.14990234,13.7864746 2.14990234,13.3564941 L2.14990234,7.71616211 C2.14990234,6.91220703 2.80390625,6.26000977 3.60605469,6.26000977 L3.59882812,6.26000977 C3.86259766,6.25639648 4.07578125,6.04140625 4.07578125,5.77583008 C4.07578125,5.50844727 3.85898437,5.28984375 3.58979492,5.28984375 C2.25830078,5.29887695 1.17792969,6.38286133 1.17792969,7.71616211 L1.17792969,13.3546875 C1.17792969,14.6446289 2.19145508,15.699707 3.46333008,15.7755859 C3.51030273,15.7791992 3.55727539,15.7828125 3.60605469,15.7828125 L14.9047852,15.7828125 C15.3799316,15.7828125 15.8243652,15.6437012 16.1983398,15.4052246 C16.2977051,15.3419922 16.393457,15.2715332 16.4819824,15.1956543 C17.0004883,14.7494141 17.3311035,14.0899902 17.3311035,13.3546875 L17.3311035,7.71616211 C17.3311035,6.38286133 16.2507324,5.29887695 14.9192383,5.28984375 L14.9192383,5.28984375 Z M14.9365918,6.30097656 L14.9765918,6.30097656 L14.9365918,6.30097656 Z M14.9088818,5.32900391 L14.9988818,5.32900391 L14.9088818,5.32900391 Z" id="形状" stroke="#CF0010" fill="#CF0010" fill-rule="nonzero"></path>
                                    <path d="M5.39462891,9.71611328 L9.04584961,11.4595215 C9.04946289,11.4613281 9.05126953,11.4613281 9.05488281,11.4631348 C9.07836914,11.4739746 9.10366211,11.4812012 9.12895508,11.4884277 C9.13798828,11.4902344 9.14521484,11.4938477 9.15424805,11.4956543 C9.1831543,11.5010742 9.21386719,11.5046875 9.24458008,11.5064941 C9.24819336,11.5064941 9.25180664,11.5083008 9.25541992,11.5083008 C9.26445312,11.5083008 9.27348633,11.5064941 9.28251953,11.5064941 C9.29155273,11.5064941 9.30058594,11.5083008 9.30961914,11.5083008 C9.38007813,11.5083008 9.45053711,11.4938477 9.51918945,11.4613281 L13.1577637,9.72333984 C13.3980469,9.60952148 13.528125,9.32587891 13.4233398,9.08198242 C13.3149414,8.82543945 13.0150391,8.71523437 12.7675293,8.83266602 L9.74682617,10.2761719 C9.74321289,10.2779785 9.73959961,10.2761719 9.73959961,10.2725586 L9.73959961,2.8815918 C9.73959961,2.6684082 9.61132813,2.46425781 9.40717773,2.40102539 C9.07294922,2.29804688 8.76762695,2.54555664 8.76762695,2.86352539 L8.76762695,10.2436523 C8.76762695,10.2472656 8.76401367,10.2490723 8.76040039,10.2472656 L5.79389648,8.83085938 C5.50664063,8.69355469 5.15253906,8.86337891 5.10195313,9.20844727 C5.07304688,9.41982422 5.20131836,9.62397461 5.39462891,9.71611328 L5.39462891,9.71611328 Z" id="路径" stroke="#CF0010" fill="#CF0010" fill-rule="nonzero"></path>
                                </g>
                            </g>
                        </g>
                    </g>
                </g>
            </g>
        </g>
    </g>
</svg>