<?xml version="1.0" encoding="UTF-8"?>
<svg width="60px" height="60px" viewBox="0 0 60 60" version="1.1" xmlns="http://www.w3.org/2000/svg" xmlns:xlink="http://www.w3.org/1999/xlink">
    <title>高效传输</title>
    <g id="页面-1" stroke="none" stroke-width="1" fill="none" fill-rule="evenodd">
        <g id="SDSF-产品中心（数据接入服务）" transform="translate(-382.000000, -725.000000)" fill-rule="nonzero">
            <g id="编组-10" transform="translate(382.000000, 625.000000)">
                <g id="高效传输" transform="translate(0.000000, 100.000000)">
                    <rect id="矩形" fill="#000000" opacity="0" x="0" y="0" width="60" height="60"></rect>
                    <g id="加载" transform="translate(3.000000, 4.000000)">
                        <rect id="矩形" fill="#000000" opacity="0" x="0" y="0" width="53" height="53"></rect>
                        <path d="M24.3369375,4.5215625 C25.7755786,4.38150802 27.2244214,4.38150802 28.6630625,4.5215625 L28.2346459,8.91725 C27.0809409,8.80496523 25.9190591,8.80496523 24.7653541,8.91725 L24.3369375,4.5215625 Z M16.0877084,7.02139585 C17.3636331,6.33806884 18.7039839,5.78254814 20.0892084,5.3629375 L21.3700416,9.5896875 C20.2548333,9.9275625 19.1837916,10.3736459 18.1734791,10.9146875 L16.0866041,7.0225 L16.0877084,7.02139585 Z M32.913,5.3629375 C34.2982244,5.78254814 35.6385753,6.33806884 36.9145,7.02139585 L34.8287291,10.9146875 C33.8094832,10.3687451 32.7387537,9.92491946 31.6321666,9.5896875 L32.913,5.3629375 L32.913,5.3629375 Z M9.42958335,12.488125 C10.3473992,11.3710436 11.3721477,10.346295 12.4892291,9.42847915 L15.2938125,12.8403541 C14.3994375,13.5757291 13.5768334,14.3972291 12.8425625,15.2916041 L9.42958335,12.4892291 L9.42958335,12.488125 Z M40.5107709,9.42958335 C41.6270834,10.3471459 42.6528542,11.3729167 43.5704166,12.4892291 L40.1585416,15.2938125 C39.4232563,14.3988326 38.6022715,13.5778478 37.7072916,12.8425625 L40.5107709,9.42958335 L40.5107709,9.42958335 Z M5.3629375,20.0881041 C5.78254814,18.7028797 6.33806884,17.3625289 7.02139585,16.0866041 L10.9146875,18.172375 C10.3736459,19.1837916 9.9275625,20.252625 9.5896875,21.3689375 L5.3629375,20.0881041 L5.3629375,20.0881041 Z M45.9775,16.0877084 C46.6608662,17.3636145 47.2163885,18.7039693 47.6359584,20.0892084 L43.4092084,21.3700416 C43.0713334,20.2548333 42.62525,19.1837916 42.0842084,18.1734791 L45.9775,16.0877084 L45.9775,16.0877084 Z M4.4166666,26.5 C4.4166666,25.77125 4.452,25.049125 4.5215625,24.3369375 L8.91725,24.7653541 C8.80496523,25.9190591 8.80496523,27.0809409 8.91725,28.2346459 L4.5215625,28.6630625 C4.45162492,27.9441632 4.41661846,27.2222932 4.4166666,26.5 L4.4166666,26.5 Z M48.4784375,24.3369375 C48.618339,25.775586 48.618339,27.224414 48.4784375,28.6630625 L44.08275,28.2346459 C44.1949028,27.0809345 44.1949028,25.9190655 44.08275,24.7653541 L48.4784375,24.3369375 L48.4784375,24.3369375 Z M7.0225,36.9133959 C6.33917299,35.6374711 5.78365229,34.2971203 5.36404165,32.9118959 L9.59079165,31.6310625 C9.92866665,32.7462709 10.37475,33.8173125 10.9157916,34.827625 L7.0225,36.9133959 Z M47.6381666,32.9118959 C47.2185968,34.2971348 46.6630745,35.6374897 45.9797084,36.9133959 L42.0864166,34.827625 C42.6274583,33.8162084 43.0735416,32.747375 43.4114166,31.6310625 L47.6381666,32.9118959 L47.6381666,32.9118959 Z M12.4892291,43.5704166 C11.372143,42.652606 10.347394,41.627857 9.42958335,40.5107709 L12.8414584,37.7061875 C13.5768334,38.6005625 14.3983334,39.4231666 15.2927084,40.1574375 L12.4892291,43.5704166 L12.4892291,43.5704166 Z M43.5704166,40.5107709 C42.6526112,41.6278617 41.6278617,42.6526112 40.5107709,43.5704166 L37.7061875,40.1585416 C38.6005625,39.4231666 39.4231666,38.6016666 40.1574375,37.7072916 L43.5704166,40.5107709 Z M20.0881041,47.6370625 C18.7028651,47.2174927 17.3625103,46.6619703 16.0866041,45.9786041 L18.172375,42.0853125 C19.1837916,42.6263541 20.252625,43.0724375 21.3689375,43.4103125 L20.0881041,47.6370625 L20.0881041,47.6370625 Z M36.9133959,45.9786041 C35.6374897,46.6619703 34.2971349,47.2174927 32.9118959,47.6370625 L31.6310625,43.4103125 C32.7462709,43.0724375 33.8173125,42.6263541 34.827625,42.0853125 L36.9133959,45.9786041 L36.9133959,45.9786041 Z M26.5,48.5833334 C25.77125,48.5833334 25.049125,48.548 24.3369375,48.4784375 L24.7653541,44.08275 C25.9190655,44.1949028 27.0809345,44.1949028 28.2346459,44.08275 L28.6630625,48.4784375 C27.9441604,48.548337 27.2222923,48.5833334 26.5,48.5833334 L26.5,48.5833334 Z" id="形状" fill="#CF0010"></path>
                        <path d="M44.1666666,26.5 C44.1666666,16.7424791 36.2575208,8.83333335 26.5,8.83333335 L26.5,4.41666665 C38.696625,4.41666665 48.5833334,14.303375 48.5833334,26.5 C48.5833334,38.696625 38.696625,48.5833454 26.5,48.5833454 C20.3522299,48.5897612 14.4814251,46.0270384 10.3062916,41.5144584 L13.5437084,38.511125 C16.8832032,42.1228829 21.580958,44.1734965 26.5,44.1666666 C36.2575209,44.1666666 44.1666666,36.2575208 44.1666666,26.5 Z" id="路径" fill="#3C3C3C"></path>
                    </g>
                </g>
            </g>
        </g>
    </g>
</svg>