<?xml version="1.0" encoding="UTF-8"?>
<svg width="760px" height="520px" viewBox="0 0 760 520" version="1.1" xmlns="http://www.w3.org/2000/svg" xmlns:xlink="http://www.w3.org/1999/xlink">
    <!-- Generator: Sketch 63.1 (92452) - https://sketch.com -->
    <title>实时文件传输</title>
    <desc>Created with Sketch.</desc>
    <defs>
        <linearGradient x1="17.6900477%" y1="38.1554005%" x2="79.5701835%" y2="66.82%" id="linearGradient-1">
            <stop stop-color="#FEFEFF" offset="0%"></stop>
            <stop stop-color="#F1F6FF" offset="100%"></stop>
        </linearGradient>
        <linearGradient x1="8.47881783%" y1="38.9972556%" x2="90.0499111%" y2="60.643437%" id="linearGradient-2">
            <stop stop-color="#818BB3" offset="0%"></stop>
            <stop stop-color="#555A6F" offset="100%"></stop>
        </linearGradient>
        <linearGradient x1="17.6900477%" y1="38.6252655%" x2="79.5701835%" y2="66.1527651%" id="linearGradient-3">
            <stop stop-color="#FEFEFF" offset="0%"></stop>
            <stop stop-color="#F1F6FF" offset="100%"></stop>
        </linearGradient>
        <polygon id="path-4" points="60.0371362 5.28957266 69.4468028 25.0231788 44.131813 39.4721419 9.40966655 34.1825693 1.31350264e-12 14.4489631 25.3149898 -5.66319085e-14"></polygon>
        <linearGradient x1="7.91638298%" y1="35.7777778%" x2="84.6553144%" y2="64.2222222%" id="linearGradient-6">
            <stop stop-color="#828BB3" offset="0%"></stop>
            <stop stop-color="#555A6F" offset="100%"></stop>
        </linearGradient>
        <linearGradient x1="8.47881783%" y1="37.4813219%" x2="90.0499111%" y2="62.1098661%" id="linearGradient-7">
            <stop stop-color="#818BB3" offset="0%"></stop>
            <stop stop-color="#555A6F" offset="100%"></stop>
        </linearGradient>
        <linearGradient x1="89.6825935%" y1="56.3705861%" x2="12.7066116%" y2="44.4094202%" id="linearGradient-8">
            <stop stop-color="#A5B4CC" offset="0%"></stop>
            <stop stop-color="#C5CFE1" offset="100%"></stop>
        </linearGradient>
        <linearGradient x1="99.6161359%" y1="48.7483738%" x2="-1.48789809%" y2="48.0746616%" id="linearGradient-9">
            <stop stop-color="#CBD3E0" offset="0%"></stop>
            <stop stop-color="#90A1BD" offset="24%"></stop>
            <stop stop-color="#DCE0E8" offset="47%"></stop>
            <stop stop-color="#CAD1DC" offset="69%"></stop>
            <stop stop-color="#EBEEF2" offset="100%"></stop>
        </linearGradient>
        <linearGradient x1="25.519671%" y1="40.6955647%" x2="87.5934299%" y2="51.4132397%" id="linearGradient-10">
            <stop stop-color="#FEFEFF" offset="0%"></stop>
            <stop stop-color="#F1F6FF" offset="100%"></stop>
        </linearGradient>
        <linearGradient x1="42.7531115%" y1="54.597353%" x2="86.6887143%" y2="66.9572011%" id="linearGradient-11">
            <stop stop-color="#8892BD" offset="0%"></stop>
            <stop stop-color="#555A6F" offset="100%"></stop>
        </linearGradient>
        <polygon id="path-12" points="60.0371362 5.28957266 69.4468028 25.0231788 44.131813 39.4721419 9.40966655 34.1825693 1.31350264e-12 14.4489631 25.3149898 -5.66319085e-14"></polygon>
        <linearGradient x1="7.91638298%" y1="31.4841879%" x2="84.6553144%" y2="68.5158121%" id="linearGradient-14">
            <stop stop-color="#828BB3" offset="0%"></stop>
            <stop stop-color="#555A6F" offset="100%"></stop>
        </linearGradient>
        <linearGradient x1="8.47881783%" y1="33.7020201%" x2="90.0499111%" y2="65.7657504%" id="linearGradient-15">
            <stop stop-color="#818BB3" offset="0%"></stop>
            <stop stop-color="#555A6F" offset="100%"></stop>
        </linearGradient>
        <linearGradient x1="-33.0750484%" y1="43.9537935%" x2="103.865329%" y2="53.6745767%" id="linearGradient-16">
            <stop stop-color="#BEC5DF" offset="0%"></stop>
            <stop stop-color="#B5BFE2" offset="100%"></stop>
        </linearGradient>
        <linearGradient x1="18.2197183%" y1="44.4455329%" x2="80.2779343%" y2="54.2660753%" id="linearGradient-17">
            <stop stop-color="#FEFEFF" offset="0%"></stop>
            <stop stop-color="#F1F6FF" offset="100%"></stop>
        </linearGradient>
        <linearGradient x1="7.91638298%" y1="24.3904584%" x2="84.6553144%" y2="75.6095416%" id="linearGradient-18">
            <stop stop-color="#828BB3" offset="0%"></stop>
            <stop stop-color="#555A6F" offset="100%"></stop>
        </linearGradient>
        <linearGradient x1="8.47881783%" y1="27.4579806%" x2="90.0499111%" y2="71.8058835%" id="linearGradient-19">
            <stop stop-color="#818BB3" offset="0%"></stop>
            <stop stop-color="#555A6F" offset="100%"></stop>
        </linearGradient>
        <linearGradient x1="103%" y1="44.2739527%" x2="3%" y2="43.8533164%" id="linearGradient-20">
            <stop stop-color="#CBD3E0" offset="0%"></stop>
            <stop stop-color="#90A1BD" offset="43%"></stop>
            <stop stop-color="#EEEEEE" offset="54%"></stop>
            <stop stop-color="#D8DDE5" offset="68%"></stop>
            <stop stop-color="#CAD1DC" offset="77%"></stop>
            <stop stop-color="#EBEEF2" offset="100%"></stop>
        </linearGradient>
        <linearGradient x1="7.91638298%" y1="23.1111111%" x2="84.6553144%" y2="76.8888889%" id="linearGradient-21">
            <stop stop-color="#828BB3" offset="0%"></stop>
            <stop stop-color="#555A6F" offset="100%"></stop>
        </linearGradient>
        <linearGradient x1="8.47881783%" y1="26.3318742%" x2="90.0499111%" y2="72.8952157%" id="linearGradient-22">
            <stop stop-color="#818BB3" offset="0%"></stop>
            <stop stop-color="#555A6F" offset="100%"></stop>
        </linearGradient>
    </defs>
    <g id="实时文件传输" stroke="none" stroke-width="1" fill="none" fill-rule="evenodd">
        <polygon id="Combined-Shape" stroke="#CBCFDE" stroke-width="1.512" points="417.112149 497 0 258.395253 339.755044 59 761 296.842174"></polygon>
        <g id="Group-748" transform="translate(478.000000, 29.000000)">
            <polygon id="Fill-734" fill="#C1CBDB" points="68.7256098 13.4756098 68.6801419 28.9093204 55.25 36.3841463 55.2954678 20.9504357"></polygon>
            <polygon id="Fill-736" fill="#F7FAFF" points="6.73780488 23.3092902 6.33182284 39.0792683 0 28.5373919 0 12.1280488"></polygon>
            <polygon id="Fill-738" fill="#E3EBF9" points="22.9085366 25.4603736 22.8627381 41.7743902 4.04268293 38.7201389 4.36984641 22.9085366"></polygon>
            <polygon id="Fill-740" fill="#F7FAFF" points="28.2987805 34.9801812 28.2500416 51.2073171 22.9085366 40.483897 22.9572755 24.2560976"></polygon>
            <polygon id="Fill-744" fill="#C1CBDB" points="60.6402439 30.9939024 60.5947338 46.432717 47.1646341 53.902439 47.2101443 38.4642558"></polygon>
            <polygon id="Fill-746" fill="#E3EBF9" points="47.1646341 37.8751475 47.1181433 53.902439 28.2987805 51.0638768 28.3459451 35.0365854"></polygon>
            <path d="M44.4687277,-0.442324426 L31.3662036,7.22777669 L13.1016297,4.17960096 L-0.556577464,12.2789819 L4.97804011,23.38679 L22.9315169,26.1909472 L27.794376,36.6588526 L46.1296738,39.522544 L59.6874693,31.5861835 L54.8207527,21.1163369 L67.9314581,13.4417179 L62.5152928,2.23080033 L44.4687277,-0.442324426 Z" id="Fill-742" stroke="#555A6F" stroke-width="0.85" fill="url(#linearGradient-1)"></path>
            <ellipse id="椭圆形" stroke="url(#linearGradient-2)" stroke-width="1.275" cx="17.5182927" cy="14.1493902" rx="4.04268293" ry="2.02134146"></ellipse>
            <ellipse id="椭圆形备份" stroke="url(#linearGradient-2)" stroke-width="1.275" cx="49.8597561" cy="10.1067073" rx="4.04268293" ry="2.02134146"></ellipse>
            <ellipse id="椭圆形备份-2" stroke="url(#linearGradient-2)" stroke-width="1.275" cx="40.4268293" cy="28.972561" rx="4.04268293" ry="2.02134146"></ellipse>
            <line x1="6.06402439" y1="22.9085366" x2="6.06402439" y2="37.7317073" id="Path-12" stroke="#7D849E" stroke-width="0.85" opacity="0.401729911"></line>
            <line x1="23.5823171" y1="26.9512195" x2="23.5823171" y2="43.1219512" id="Path-13" stroke="#7D849E" stroke-width="0.85" opacity="0.401729911"></line>
            <line x1="27.625" y1="36.3841463" x2="27.625" y2="52.554878" id="Path-14" stroke="#7D849E" stroke-width="0.85" opacity="0.401729911"></line>
            <line x1="46.4908537" y1="39.0792683" x2="46.4908537" y2="55.25" id="Path-15" stroke="#7D849E" stroke-width="0.85" opacity="0.401729911"></line>
            <polyline id="Fill-742" stroke="#7D849E" stroke-width="0.85" opacity="0.401729911" points="60.6402439 40.7570129 47.2144399 48.5121951 28.797067 45.6737185 23.8107731 35.0820258 5.39405956 32.2435491 0 21.5609756"></polyline>
            <line x1="68.7256098" y1="20.2134146" x2="59.2926829" y2="26.9512195" id="Path-2" stroke="#7D849E" stroke-width="0.85" opacity="0.401729911"></line>
            <polyline id="Path-10" stroke="#7D849E" stroke-width="0.85" opacity="0.401729911" points="22.9085366 25.6036585 35.8069999 16.7898899 31.2813014 6.73780488 35.8069999 16.7898899 55.25 20.7316667"></polyline>
            <path d="M44.4992809,-0.441702323 L31.3881167,7.08650398 L13.1116125,4.09473729 L-0.425,11.9683176 L-0.425,27.9906548 L4.66238537,38.3497049 L22.90514,41.2599102 L27.8163885,51.5350202 L46.1135413,54.3451009 L59.5586441,46.6264298 L59.5586441,33.6055065 L67.8030488,28.8193768 L67.8030488,12.9293606 L62.5545387,2.18150433 L44.4992809,-0.441702323 Z" id="Path-11" stroke="#555A6F" stroke-width="0.85"></path>
        </g>
        <g id="编组-4" transform="translate(485.000000, 78.000000)">
            <path d="M33.0958571,19.9684503 L28.7444568,24.0623265 L24.5995526,19.9684503 L3.5743953,19.9684503 C1.59985414,19.9684503 4.54747351e-13,18.3552351 4.54747351e-13,16.3652606 L4.54747351e-13,3.60318976 C4.54747351e-13,1.61321519 1.59985414,0 3.5743953,0 L65.4002785,0 C67.3748196,0 68.9755233,1.61321519 68.9755233,3.60318976 L68.9755233,16.3652606 C68.9755233,18.3552351 67.3748196,19.9684503 65.4002785,19.9684503 L33.0958571,19.9684503 Z" id="Fill-1-Copy复制-9备份-48" stroke="#555A6F" stroke-width="1.078" fill="#F0F1F7" transform="translate(34.487762, 12.031163) rotate(-180.000000) translate(-34.487762, -12.031163) "></path>
            <path d="M23.2064941,17.621 L23.2064941,16.775 L19.7414941,16.775 L19.7414941,14.723 L22.4504941,14.723 L22.4504941,13.895 L19.7414941,13.895 L19.7414941,12.032 L22.6304941,12.032 L22.6304941,11.204 L19.7414941,11.204 L19.7414941,9.692 L18.8864941,9.692 L18.8864941,11.204 L17.2124941,11.204 C17.3204941,10.844 17.4194941,10.457 17.5094941,10.043 L16.6364941,9.89 C16.3484941,11.339 15.7994941,12.491 14.9894941,13.346 L15.5474941,14.057 C16.0964941,13.517 16.5464941,12.842 16.9064941,12.032 L18.8864941,12.032 L18.8864941,13.895 L16.3124941,13.895 L16.3124941,14.723 L18.8864941,14.723 L18.8864941,16.775 L15.2234941,16.775 L15.2234941,17.621 L23.2064941,17.621 Z M24.6014941,17.909 C25.2134941,17.054 25.5284941,15.92 25.5644941,14.516 L25.5644941,13.301 L31.9544941,13.301 L31.9544941,12.473 L29.8754941,12.473 C30.0374941,12.095 30.1634941,11.699 30.2534941,11.294 L31.7654941,11.294 L31.7654941,10.484 L28.6424941,10.484 C28.5164941,10.124 28.3994941,9.8 28.2734941,9.512 L27.3734941,9.656 C27.5174941,9.908 27.6524941,10.187 27.7694941,10.484 L24.6014941,10.484 L24.6014941,11.294 L26.2034941,11.294 L26.5184941,12.473 L24.7004941,12.473 L24.7004941,14.516 C24.6824941,15.713 24.4304941,16.649 23.9444941,17.333 L24.6014941,17.909 Z M29.0564941,12.473 L27.3644941,12.473 L27.0404941,11.294 L29.4344941,11.294 C29.3444941,11.699 29.2184941,12.095 29.0564941,12.473 Z M33.6452637,17.5493164 L36.1633301,10.6015625 L35.1833496,10.6015625 L32.6652832,17.5493164 L33.6452637,17.5493164 Z M40.5825059,17.873 L40.5825059,15.983 L43.5255059,15.983 L43.5255059,16.649 C43.5255059,16.919 43.3905059,17.054 43.1295059,17.054 L42.1845059,17.027 L42.4095059,17.855 L43.4085059,17.855 C44.0565059,17.855 44.3805059,17.513 44.3805059,16.838 L44.3805059,12.05 L42.4725059,12.05 L42.4725059,9.647 L41.6085059,9.647 L41.6085059,12.05 L39.7185059,12.05 L39.7185059,17.873 L40.5825059,17.873 Z M38.5935059,11.663 L39.2055059,11.051 C38.7735059,10.601 38.2515059,10.16 37.6305059,9.71 L37.0185059,10.304 C37.6935059,10.79 38.2155059,11.24 38.5935059,11.663 Z M43.7325059,11.798 C44.1465059,11.276 44.4885059,10.736 44.7405059,10.178 L44.0475059,9.845 C43.8135059,10.376 43.4895059,10.907 43.0755059,11.447 L43.7325059,11.798 Z M40.2675059,11.699 L40.9425059,11.366 C40.6365059,10.817 40.3215059,10.313 39.9975059,9.854 L39.2865059,10.196 C39.6375059,10.646 39.9615059,11.141 40.2675059,11.699 Z M38.2515059,13.778 L38.8545059,13.166 C38.4585059,12.716 37.9635059,12.266 37.3785059,11.816 L36.7665059,12.41 C37.3965059,12.905 37.8915059,13.364 38.2515059,13.778 Z M43.5255059,13.706 L40.5825059,13.706 L40.5825059,12.878 L43.5255059,12.878 L43.5255059,13.706 Z M37.6485059,17.828 C38.1705059,16.811 38.6565059,15.722 39.0885059,14.57 L38.3325059,14.282 C37.9095059,15.371 37.4145059,16.433 36.8565059,17.477 L37.6485059,17.828 Z M43.5255059,15.254 L40.5825059,15.254 L40.5825059,14.435 L43.5255059,14.435 L43.5255059,15.254 Z M47.8905059,16.487 L47.8905059,14.741 L52.0305059,14.741 L52.0305059,16.487 L52.8765059,16.487 L52.8765059,13.985 L47.7375059,13.985 C48.0705059,13.823 48.3405059,13.652 48.5475059,13.454 C48.7095059,13.292 48.8445059,13.094 48.9615059,12.878 L50.4105059,12.878 L50.4105059,13.814 L51.2385059,13.814 L51.2385059,12.878 L52.8045059,12.878 C52.8045059,13.022 52.7775059,13.121 52.7325059,13.193 C52.6785059,13.256 52.5345059,13.292 52.3005059,13.292 C52.1475059,13.292 51.9855059,13.283 51.8235059,13.265 L51.9765059,13.85 C52.1115059,13.859 52.2555059,13.868 52.3995059,13.868 C52.9215059,13.859 53.2545059,13.76 53.3985059,13.562 C53.5425059,13.373 53.6145059,12.932 53.6145059,12.23 L51.2385059,12.23 L51.2385059,11.789 L53.1465059,11.789 L53.1465059,9.998 L51.2385059,9.998 L51.2385059,9.602 L50.4105059,9.602 L50.4105059,9.998 L49.2495059,9.998 L49.2495059,9.602 L48.4215059,9.602 L48.4215059,9.998 L46.4235059,9.998 L46.4235059,10.691 L48.4215059,10.691 L48.4215059,11.132 L46.6935059,11.132 L46.3425059,12.878 L47.9805059,12.878 C47.9625059,12.896 47.9355059,12.932 47.8995059,12.968 C47.5755059,13.274 46.9635059,13.526 46.0545059,13.724 L46.4865059,14.39 C46.6845059,14.345 46.8735059,14.291 47.0535059,14.237 L47.0535059,16.487 L47.8905059,16.487 Z M50.4105059,11.132 L49.2495059,11.132 L49.2495059,10.691 L50.4105059,10.691 L50.4105059,11.132 Z M52.3545059,11.132 L51.2385059,11.132 L51.2385059,10.691 L52.3545059,10.691 L52.3545059,11.132 Z M48.3315059,12.23 L47.2605059,12.23 L47.3865059,11.789 L48.4125059,11.789 C48.3945059,11.942 48.3675059,12.086 48.3315059,12.23 Z M50.4105059,12.23 L49.1865059,12.23 C49.2135059,12.086 49.2315059,11.942 49.2405059,11.789 L50.4105059,11.789 L50.4105059,12.23 Z M46.3605059,17.954 C48.0345059,17.828 49.0965059,17.54 49.5465059,17.108 C49.9695059,16.766 50.2395059,16.082 50.3565059,15.047 L49.5105059,14.966 C49.4385059,15.74 49.2135059,16.289 48.8175059,16.613 C48.3675059,16.937 47.4315059,17.126 46.0185059,17.189 L46.3605059,17.954 Z M53.2185059,17.999 L53.6865059,17.288 C52.7325059,16.901 51.6705059,16.577 50.5095059,16.307 L50.0775059,16.955 C51.1575059,17.207 52.2015059,17.549 53.2185059,17.999 Z" id="生产/消费" fill="#000000" fill-rule="nonzero"></path>
        </g>
        <polygon id="Fill-4-Copy-4" fill="#3A51C6" fill-rule="nonzero" opacity="0.6" points="477.641907 79.372083 385.334131 134.434224 381.100995 131.943977 380 140.546379 395.106411 139.893958 390.720654 137.491795 483.02843 82.429653"></polygon>
        <polygon id="Fill-4-Copy-4备份" fill="#3A51C6" fill-rule="nonzero" opacity="0.6" points="523.34095 294 438.334131 343.434224 434.100995 340.943977 433 349.546379 448.106411 348.893958 443.720654 346.491795 528.727473 297.05757"></polygon>
        <path d="M383.49576,184 L508.766605,256.534593 L512.434036,254.42696 L513.5,263.142154 L498.444341,262.466688 L503.389151,259.624959 L460.974,235.065 L358.720654,294.400423 L363.106411,296.802586 L348,297.455007 L349.100995,288.852605 L353.334131,291.342852 L455.641,231.977 L378,187.021794 L383.49576,184 Z" id="形状结合" fill="#3A51C6" fill-rule="nonzero" opacity="0.6"></path>
        <g id="编组-7复制-2备份-8" transform="translate(308.000000, 132.000000)">
            <g id="dcs">
                <polygon id="Fill-1" fill="#F7FAFF" points="9.29860465 34.6745553 9.21257474 49.1497674 0 29.0847992 0.083571916 14.612093"></polygon>
                <g id="Fill-12">
                    <mask id="mask-5" fill="white">
                        <use xlink:href="#path-4"></use>
                    </mask>
                    <use id="Mask" fill="url(#linearGradient-3)" xlink:href="#path-4"></use>
                    <path d="M30.4696344,21.043512 L31.6410175,29.1942678 L30.2019519,29.2228307 L29.145352,21.8707628 L15.3954876,21.9140787 L15.3193663,21.0912395 L30.4696344,21.043512 Z M28.6753289,8.11469755 L30.0329963,16.3580924 L14.7023144,16.4920355 L14.612093,15.6692802 L28.4557573,15.548329 L27.2377784,8.15308626 L28.6753289,8.11469755 Z M54.3730344,20.7693851 L54.4632558,21.5921405 L40.6115613,21.7131618 L41.7011562,29.1947222 L40.2622209,29.224186 L39.0503828,20.9032581 L54.3730344,20.7693851 Z M53.4929114,15.2795445 L53.5952693,16.1021646 L38.4704422,16.307162 L37.2605648,7.99969642 L38.6995001,7.97023256 L39.7910555,15.4652554 L53.4929114,15.2795445 Z" id="形状结合" stroke="url(#linearGradient-7)" stroke-width="0.51" fill="url(#linearGradient-6)" mask="url(#mask-5)"></path>
                </g>
                <polygon id="Fill-6" fill="url(#linearGradient-8)" points="69.0753488 25.2390698 68.9905535 39.746168 43.8362791 54.4632558 43.9210744 39.958669"></polygon>
                <g id="Group-7" transform="translate(57.120000, 37.194419)" fill="#8494B2">
                    <polygon id="Fill-6" points="10.149001 0 10.1414238 2.37937764 7.89366746 3.61182998 7.90124467 1.23264693"></polygon>
                    <polygon id="Fill-6-Copy" points="5.6383339 2.40788665 5.63075669 4.78726429 3.38300034 6.01971663 3.39057755 3.64053358"></polygon>
                    <polygon id="Fill-6-Copy-2" opacity="0.369810268" points="2.25533356 4.8157733 2.24775635 7.19515094 -1.34754953e-12 8.42760328 0.00757720761 6.04842023"></polygon>
                </g>
                <polygon id="Fill-8" fill="#D1DAE8" points="43.8362791 39.9357565 43.7516096 54.4632558 9.29860465 49.0676892 9.3857644 34.5376744"></polygon>
                <g id="Group-7-Copy" transform="translate(29.224186, 47.821395)" fill="#A0AABE">
                    <polygon id="Fill-6" points="10.149001 1.38834026 10.1414238 3.48283605 7.89366746 3.25526985 7.90124467 1.16094535"></polygon>
                    <polygon id="Fill-6-Copy" opacity="0.431863839" points="5.6383339 0.681925822 5.63075669 3.73486576 3.38300034 3.30471997 3.39057755 0.252029707"></polygon>
                    <polygon id="Fill-6-Copy-2" points="2.25533356 0.370052918 2.24775635 3.48283605 1.06874523e-12 3.11252857 0.00757720762 2.01345607e-13"></polygon>
                </g>
                <polyline id="Mask" stroke="#7D849E" stroke-width="1.02" opacity="0.401729911" points="69.0753488 25.2775392 43.8957627 39.8511628 9.35933654 34.5159536 0 14.612093"></polyline>
                <polyline id="Mask" stroke="#7D849E" stroke-width="1.02" opacity="0.401729911" points="69.0753488 33.2477717 43.8957627 47.8213953 9.35933654 42.4861862 0 22.5823256"></polyline>
                <path d="M44.6126461,40.3981395 L44.5543307,54.4632558 M8.5214243,48.6027907 L8.5813664,34.5376744" id="Fill-8" stroke="#7D849E" stroke-width="1.02" opacity="0.401729911"></path>
                <path d="M25.1109601,-0.531610289 L-0.51,14.3668836 L-0.51,29.2387966 L8.99714466,49.5474921 L43.9837379,54.9950032 L69.5853488,40.0979987 L69.5853488,25.2232127 L60.1147664,4.88763216 L25.1109601,-0.531610289 Z" id="Path-11" stroke="#555A6F" stroke-width="1.02" stroke-linecap="round" stroke-linejoin="round"></path>
            </g>
        </g>
        <g id="编组-4备份" transform="translate(312.000000, 180.000000)">
            <path d="M33.0958571,19.9684503 L28.7444568,24.0623265 L24.5995526,19.9684503 L3.5743953,19.9684503 C1.59985414,19.9684503 4.54747351e-13,18.3552351 4.54747351e-13,16.3652606 L4.54747351e-13,3.60318976 C4.54747351e-13,1.61321519 1.59985414,0 3.5743953,0 L65.4002785,0 C67.3748196,0 68.9755233,1.61321519 68.9755233,3.60318976 L68.9755233,16.3652606 C68.9755233,18.3552351 67.3748196,19.9684503 65.4002785,19.9684503 L33.0958571,19.9684503 Z" id="Fill-1-Copy复制-9备份-48" stroke="#555A6F" stroke-width="1.078" fill="#F0F1F7" transform="translate(34.487762, 12.031163) rotate(-180.000000) translate(-34.487762, -12.031163) "></path>
            <path d="M12.2109375,17 C13.0224609,17 13.682373,16.7480469 14.1906738,16.2441406 C14.6989746,15.7402344 14.953125,15.0883789 14.953125,14.2885742 L14.953125,14.2885742 L14.953125,13.3173828 C14.953125,12.5205078 14.6989746,11.8686523 14.1906738,11.3618164 C13.682373,10.8549805 13.0224609,10.6015625 12.2109375,10.6015625 L12.2109375,10.6015625 L10.097168,10.6015625 L10.097168,17 L12.2109375,17 Z M12.2109375,16.1474609 L11.1650391,16.1474609 L11.1650391,11.4584961 L12.2109375,11.4584961 C12.7236328,11.4584961 13.1308594,11.6320801 13.4326172,11.979248 C13.734375,12.326416 13.8852539,12.7695312 13.8852539,13.3085937 L13.8852539,13.3085937 L13.8852539,14.2885742 C13.8852539,14.8334961 13.734375,15.279541 13.4326172,15.626709 C13.1308594,15.973877 12.7236328,16.1474609 12.2109375,16.1474609 L12.2109375,16.1474609 Z M17.2822266,17 L17.2822266,10.6015625 L16.2143555,10.6015625 L16.2143555,17 L17.2822266,17 Z M20.8901367,17.0922852 C21.5668945,17.0922852 22.1132812,16.934082 22.5292969,16.6176758 C22.9453125,16.3012695 23.1533203,15.8779297 23.1533203,15.3476562 C23.1533203,14.84375 22.9775391,14.4299316 22.6259766,14.1062012 C22.2744141,13.7824707 21.7631836,13.5268555 21.0922852,13.3393555 C20.597168,13.1958008 20.2426758,13.0441895 20.0288086,12.8845215 C19.8149414,12.7248535 19.7080078,12.5219727 19.7080078,12.2758789 C19.7080078,12.0063477 19.8054199,11.7866211 20.0002441,11.6166992 C20.1950684,11.4467773 20.4726562,11.3618164 20.8330078,11.3618164 C21.2050781,11.3618164 21.5031738,11.4614258 21.7272949,11.6606445 C21.951416,11.8598633 22.0634766,12.1279297 22.0634766,12.4648437 L22.0634766,12.4648437 L23.0917969,12.4648437 L23.1005859,12.4384766 C23.1152344,11.8935547 22.9152832,11.435791 22.5007324,11.0651855 C22.0861816,10.6945801 21.5332031,10.5092773 20.8417969,10.5092773 C20.1972656,10.5092773 19.6699219,10.6762695 19.2597656,11.0102539 C18.8496094,11.3442383 18.6445312,11.769043 18.6445312,12.284668 C18.6445312,12.7827148 18.8312988,13.1862793 19.204834,13.4953613 C19.5783691,13.8044434 20.109375,14.0541992 20.7978516,14.2446289 C21.2783203,14.3793945 21.6130371,14.5317383 21.802002,14.7016602 C21.9909668,14.871582 22.0854492,15.0898437 22.0854492,15.3564453 C22.0854492,15.6289062 21.9807129,15.8449707 21.7712402,16.0046387 C21.5617676,16.1643066 21.2680664,16.2441406 20.8901367,16.2441406 C20.5092773,16.2441406 20.1862793,16.1467285 19.9211426,15.9519043 C19.6560059,15.7570801 19.5234375,15.4677734 19.5234375,15.0839844 L19.5234375,15.0839844 L18.4951172,15.0839844 L18.4863281,15.1103516 C18.4716797,15.7402344 18.7060547,16.2280273 19.1894531,16.5737305 C19.6728516,16.9194336 20.2397461,17.0922852 20.8901367,17.0922852 Z M31.8101953,17.936 L32.2871953,17.243 C31.6751953,16.829 31.1531953,16.244 30.7031953,15.497 C31.1891953,14.462 31.4591953,13.211 31.5131953,11.744 L32.0351953,11.744 L32.0351953,10.925 L29.7491953,10.925 C29.8211953,10.556 29.8751953,10.169 29.9291953,9.755 L29.0921953,9.611 C28.9121953,11.285 28.5701953,12.617 28.0661953,13.607 L28.6061953,14.273 C28.7681953,14.003 28.9121953,13.697 29.0561953,13.373 C29.2811953,14.156 29.5511953,14.858 29.8571953,15.479 C29.4611953,16.19 28.9301953,16.766 28.2641953,17.216 L28.7051953,17.927 C29.3351953,17.477 29.8661953,16.919 30.2891953,16.262 C30.7211953,16.955 31.2251953,17.513 31.8101953,17.936 Z M24.3671953,13.886 C25.0601953,13.4 25.5551953,12.833 25.8521953,12.185 L25.8521953,13.706 L26.6351953,13.706 L26.6351953,12.698 C26.9141953,12.878 27.2471953,13.13 27.6431953,13.445 L28.0931953,12.77 C27.5981953,12.509 27.1121953,12.275 26.6351953,12.077 L26.6351953,12.032 L28.2011953,12.032 L28.2011953,11.285 L26.6351953,11.285 L26.6351953,9.629 L25.8521953,9.629 L25.8521953,11.285 L24.1511953,11.285 L24.1511953,12.032 L25.2851953,12.032 C25.0151953,12.446 24.5741953,12.833 23.9441953,13.193 L24.3671953,13.886 Z M27.4721953,11.159 C27.7511953,10.79 27.9761953,10.412 28.1561953,10.034 L27.5531953,9.746 C27.3911953,10.106 27.1661953,10.475 26.8781953,10.853 L27.4721953,11.159 Z M24.8801953,11.132 L25.4921953,10.853 C25.3391953,10.457 25.1681953,10.097 24.9701953,9.755 L24.2951953,9.98 C24.5021953,10.313 24.7001953,10.7 24.8801953,11.132 Z M30.2441953,14.606 C29.9291953,13.904 29.6681953,13.085 29.4701953,12.149 C29.5061953,12.023 29.5421953,11.888 29.5781953,11.744 L30.7391953,11.744 C30.7031953,12.824 30.5411953,13.778 30.2441953,14.606 Z M24.3221953,17.9 C25.2131953,17.666 25.9601953,17.36 26.5541953,16.973 C27.0491953,17.198 27.4721953,17.414 27.8231953,17.63 L28.2821953,16.964 C27.9401953,16.784 27.5801953,16.604 27.2111953,16.442 C27.6251953,16.028 27.9131953,15.551 28.0751953,15.011 L28.0751953,14.318 L26.2391953,14.318 C26.2931953,14.174 26.3381953,14.039 26.3921953,13.895 L25.5911953,13.796 C25.5371953,13.958 25.4741953,14.138 25.4021953,14.318 L24.1331953,14.318 L24.1331953,15.047 L25.0781953,15.047 C24.9071953,15.389 24.7091953,15.74 24.4931953,16.118 C24.9071953,16.28 25.3031953,16.433 25.6721953,16.586 C25.1861953,16.838 24.6011953,17.036 23.9261953,17.198 L24.3221953,17.9 Z M26.4281953,16.118 C26.1311953,15.992 25.8251953,15.884 25.5101953,15.776 C25.6541953,15.542 25.7891953,15.299 25.9151953,15.047 L27.3101953,15.047 C27.1121953,15.443 26.8241953,15.803 26.4281953,16.118 Z M34.0601953,17.846 C34.6181953,17.846 34.9061953,17.549 34.9061953,16.955 L34.9061953,14.462 C35.1581953,14.345 35.4101953,14.219 35.6711953,14.093 L35.6711953,13.256 C35.4191953,13.391 35.1581953,13.517 34.9061953,13.634 L34.9061953,12.095 L35.6981953,12.095 L35.6981953,11.276 L34.9061953,11.276 L34.9061953,9.647 L34.0781953,9.647 L34.0781953,11.276 L33.0701953,11.276 L33.0701953,12.095 L34.0781953,12.095 L34.0781953,13.958 C33.6911953,14.093 33.3041953,14.21 32.9081953,14.3 L33.1241953,15.146 C33.4391953,15.038 33.7541953,14.93 34.0781953,14.813 L34.0781953,16.748 C34.0781953,16.982 33.9701953,17.099 33.7721953,17.099 C33.5561953,17.099 33.3401953,17.072 33.1151953,17.036 L33.2951953,17.846 L34.0601953,17.846 Z M35.8241953,17.936 C36.4001953,16.784 36.7421953,15.452 36.8591953,13.94 L38.4791953,13.94 L38.4791953,14.867 L37.0391953,14.867 L37.0391953,17.927 L37.8311953,17.927 L37.8311953,17.54 L39.9641953,17.54 L39.9641953,17.927 L40.7561953,17.927 L40.7561953,14.867 L39.3071953,14.867 L39.3071953,13.94 L41.1611953,13.94 L41.1611953,13.157 L39.3071953,13.157 L39.3071953,12.257 L40.9451953,12.257 L40.9451953,9.926 L36.0761953,9.926 L36.0761953,12.86 C36.0671953,14.687 35.7611953,16.181 35.1581953,17.342 L35.8241953,17.936 Z M40.1171953,11.492 L36.9041953,11.492 L36.9041953,10.709 L40.1171953,10.709 L40.1171953,11.492 Z M38.4791953,13.157 L36.8951953,13.157 C36.8951953,13.058 36.9041953,12.959 36.9041953,12.86 L36.9041953,12.257 L38.4791953,12.257 L38.4791953,13.157 Z M39.9641953,16.784 L37.8311953,16.784 L37.8311953,15.623 L39.9641953,15.623 L39.9641953,16.784 Z M50.0261953,13.22 L50.0261953,12.401 L48.7031953,12.401 C48.8831953,12.077 49.0541953,11.708 49.2071953,11.312 L48.6941953,11.132 L49.8641953,11.132 L49.8641953,10.358 L47.8931953,10.358 C47.8031953,10.061 47.7131953,9.791 47.6231953,9.548 L46.7321953,9.692 C46.8401953,9.899 46.9391953,10.124 47.0291953,10.358 L45.1571953,10.358 L45.1571953,11.132 L48.3791953,11.132 C48.2081953,11.573 48.0191953,11.996 47.8031953,12.401 L47.0381953,12.401 C46.8401953,11.942 46.6331953,11.519 46.4171953,11.141 L45.7241953,11.465 C45.8951953,11.744 46.0571953,12.059 46.2191953,12.401 L44.9501953,12.401 L44.9501953,13.22 L50.0261953,13.22 Z M43.0421953,17.846 C43.6361953,17.846 43.9331953,17.549 43.9331953,16.964 L43.9331953,14.435 C44.1491953,14.327 44.3741953,14.219 44.5991953,14.102 L44.5991953,13.238 C44.3831953,13.355 44.1581953,13.472 43.9331953,13.58 L43.9331953,12.095 L44.6081953,12.095 L44.6081953,11.276 L43.9331953,11.276 L43.9331953,9.647 L43.0691953,9.647 L43.0691953,11.276 L42.0431953,11.276 L42.0431953,12.095 L43.0691953,12.095 L43.0691953,13.94 C42.6731953,14.084 42.2771953,14.201 41.8631953,14.3 L42.0791953,15.155 C42.4121953,15.047 42.7451953,14.93 43.0691953,14.804 L43.0691953,16.748 C43.0691953,16.955 42.9611953,17.063 42.7451953,17.063 C42.5291953,17.063 42.3041953,17.045 42.0701953,17.018 L42.2591953,17.846 L43.0421953,17.846 Z M45.0851953,17.972 C46.3361953,17.72 47.2631953,17.387 47.8751953,16.973 C48.5771953,17.297 49.1711953,17.612 49.6571953,17.918 L50.1251953,17.234 C49.5941953,16.937 49.0451953,16.658 48.4871953,16.406 C48.8471953,15.983 49.0991953,15.47 49.2341953,14.876 L50.1701953,14.876 L50.1701953,14.048 L47.1911953,14.048 C47.2721953,13.859 47.3531953,13.661 47.4341953,13.454 L46.6151953,13.364 C46.5341953,13.58 46.4351953,13.805 46.3271953,14.048 L44.8331953,14.048 L44.8331953,14.876 L45.9041953,14.876 C45.7241953,15.191 45.5261953,15.524 45.3011953,15.866 C45.8951953,16.1 46.4441953,16.334 46.9661953,16.559 C46.4261953,16.829 45.6881953,17.036 44.7521953,17.198 L45.0851953,17.972 Z M47.7131953,16.064 C47.2631953,15.866 46.8131953,15.686 46.3451953,15.524 C46.4891953,15.317 46.6331953,15.101 46.7591953,14.876 L48.4331953,14.876 C48.2891953,15.344 48.0461953,15.74 47.7131953,16.064 Z M51.3941953,17.81 C53.2121953,16.622 54.4271953,14.939 55.0391953,12.761 C55.0571953,12.815 55.0751953,12.869 55.1021953,12.932 C56.0561953,15.335 57.2351953,16.955 58.6481953,17.801 L59.1791953,17.126 C57.8111953,16.244 56.7041953,14.759 55.8491953,12.653 C55.2641953,11.159 54.5981953,10.151 53.8421953,9.62 L53.1311953,10.07 C53.6981953,10.475 54.1841953,11.042 54.5801953,11.771 C53.9861953,14.075 52.7531953,15.848 50.8811953,17.081 L51.3941953,17.81 Z" id="DIS数据接入" fill="#000000" fill-rule="nonzero"></path>
        </g>
        <polygon id="Combined-Shape备份-2" fill="#3A51C6" fill-rule="nonzero" opacity="0.6" transform="translate(230.619375, 277.443183) scale(-1, -1) translate(-230.619375, -277.443183) " points="252.1279 292.36917 199 262.021794 204.49576 259 257.505354 289.278804 261.172785 287.171171 262.238749 295.886365 247.18309 295.210899"></polygon>
        <g id="编组-8" transform="translate(521.000000, 251.000000)">
            <path d="M58.3225926,29.7572921 L58.3225926,30.0049464 L57.084321,31.4908724 L55.9698765,32.3576625 L54.9792593,33.1006254 C53.9585112,33.7024077 52.8799361,34.2002116 51.7597531,34.5865514 L50.5214815,34.9580328 L48.9117284,35.3295143 L46.9304938,35.7009958 L40.12,35.7009958 L37.5196296,35.2056872 L37.024321,35.2056872 L34.7954321,34.4627242 L34.4239506,34.4627242 L31.9474074,33.2244526 L5.3245679,17.6222304 C2.10506173,15.6409958 0.495308642,13.1644526 0.495308642,10.5640822 L0.495308642,32.3576625 C0.495308642,34.9580328 2.10506173,37.4345761 5.3245679,39.4158106 L31.8235802,55.7609958 L34.1762963,56.9992674 L34.6716049,57.2469217 L36.1575309,57.7422304 L37.024321,57.9898847 L37.8911111,57.9898847 L39.5008642,58.237539 L46.8066667,58.237539 L48.1687654,57.9898847 L48.7879012,57.9898847 L50.3976543,57.6184032 L51.2644444,57.3707489 L51.6359259,57.3707489 C52.7557996,56.98364 53.8342995,56.4858708 54.8554321,55.884823 L55.1030864,55.884823 L55.8460494,55.2656872 L56.9604938,54.398897 L58.0749383,53.1606254 L58.0749383,52.6653168 L58.3225926,52.1700082 L58.6940741,51.1793909 L58.6940741,51.1793909 L58.6940741,50.3126007 C58.7630571,49.9864518 58.8044789,49.6550775 58.8179012,49.3219835 L58.8179012,49.3219835 L58.8179012,26.2901316 C58.8179012,26.8768066 58.7345159,27.4605038 58.5702469,28.0237119 L58.5702469,28.2713662 C58.5391176,28.7738852 58.4561251,29.2718403 58.3225926,29.7572921 Z" id="路径" fill="url(#linearGradient-9)" fill-rule="nonzero"></path>
            <path d="M54.7316049,33.2244526 C48.4164198,37.0630946 38.1387654,37.0630946 31.6997531,33.2244526 L5.3245679,17.6222304 C-0.990617284,13.7835884 -1.11444444,7.46840322 5.20074074,3.62976124 C11.5159259,-0.208880735 21.4220988,0.0387735863 27.737284,3.1344526 C35.5383951,-0.332707895 46.5590123,0.162600747 53.6171605,4.3727242 C60.6753086,8.58284766 61.4182716,15.2695143 55.8460494,20.0987736 C60.922963,24.0612427 60.5514815,29.6334649 54.7316049,33.2244526 Z" id="路径" fill="url(#linearGradient-10)" fill-rule="nonzero"></path>
            <path d="M16.3451852,23.6897612 L20.1838272,26.0424773 L30.4614815,18.7366748 L34.5477778,21.213218 L36.5290123,12.4214896 L36.5290123,12.1738353 L36.1575309,12.1738353 L22.6603704,14.278897 L26.251358,16.7554403 L16.3451852,23.6897612 Z M21.7935802,12.4214896 L35.5383951,10.4402551 C36.2601502,10.2392932 37.0340832,10.3758696 37.6434568,10.8117365 C38.0357197,11.0927337 38.2290267,11.5760013 38.1387654,12.0500082 L36.281358,21.4608724 C36.2089646,22.1618147 35.7194833,22.7491922 35.0430864,22.9467983 C34.4536435,23.0085702 33.8580752,22.923489 33.3095062,22.699144 L30.09,20.7179094 L21.6697531,26.7854403 L14.7354321,22.699144 L23.2795062,16.5077859 L19.6885185,14.278897 C18.6979012,13.7835884 19.5646914,12.9167983 21.6697531,12.5453168 L21.7935802,12.4214896 Z" id="形状" fill="url(#linearGradient-11)" fill-rule="nonzero"></path>
            <path d="M59.437037,37.9298847 C59.3132099,40.4064279 57.7034568,42.759144 54.6077778,44.6165514 C48.1687654,48.4551933 37.5196296,48.4551933 30.9567901,44.6165514 L4.95308642,29.2619835 C1.73358025,27.4045761 0.12382716,24.9280328 0,22.4514896" id="路径" stroke="#7D849E" stroke-width="0.504899985" opacity="0.401729912"></path>
            <path d="M27.6134568,2.14383531 C31.8839796,0.396739445 36.5269219,-0.242197569 41.1106173,0.286427907 C49.1593827,0.90556371 59.8085185,6.35395877 59.8085185,12.4214896 L59.8085185,47.9598847 C59.7756822,50.8668946 58.2877048,53.5638537 55.8460494,55.14186 C54.2426355,56.0964676 52.589238,56.9645013 50.892963,57.7422304 C44.462217,59.7610677 37.5013244,59.2290249 31.4520988,56.2563045 L17.8311111,47.9598847 L17.8311111,47.9598847 L5.07691358,40.1587736 C1.11444444,37.3107489 0.247654321,35.3295143 0.371481481,31.8623538 C0.371481481,31.4908724 0.371481481,31.3670452 0.371481481,31.1193909 L0.371481481,10.4402551 C0.371481481,6.84926741 4.0862963,2.88679828 10.772963,0.90556371 C14.3177512,-0.101822028 18.0481908,-0.271387467 21.6697531,0.410255068 C23.7121761,0.75276549 25.7071521,1.33463351 27.6134568,2.14383531 Z" id="路径" stroke="#555A6F" stroke-width="1.00979997"></path>
            <polygon id="路径" fill="#A5ADC1" fill-rule="nonzero" points="4.58160494 21.3370452 6.93432099 22.9467983 6.93432099 27.0330946 4.58160494 25.2995143"></polygon>
            <polygon id="路径" fill="#A5ADC1" fill-rule="nonzero" opacity="0.501227677" points="8.66790123 23.6897612 11.1444444 25.4233415 11.1444444 29.5096378 8.66790123 27.7760575"></polygon>
        </g>
        <g id="编组-4备份-2" transform="translate(523.000000, 300.000000)">
            <path d="M33.0958571,19.9684503 L28.7444568,24.0623265 L24.5995526,19.9684503 L3.5743953,19.9684503 C1.59985414,19.9684503 4.54747351e-13,18.3552351 4.54747351e-13,16.3652606 L4.54747351e-13,3.60318976 C4.54747351e-13,1.61321519 1.59985414,0 3.5743953,0 L65.4002785,0 C67.3748196,0 68.9755233,1.61321519 68.9755233,3.60318976 L68.9755233,16.3652606 C68.9755233,18.3552351 67.3748196,19.9684503 65.4002785,19.9684503 L33.0958571,19.9684503 Z" id="Fill-1-Copy复制-9备份-48" stroke="#555A6F" stroke-width="1.078" fill="#F0F1F7" transform="translate(34.487762, 12.031163) rotate(-180.000000) translate(-34.487762, -12.031163) "></path>
            <path d="M10.8376465,17.0922852 C11.6228027,17.0922852 12.2607422,16.8352051 12.7514648,16.3210449 C13.2421875,15.8068848 13.4875488,15.1586914 13.4875488,14.3764648 L13.4875488,14.3764648 L13.4875488,13.2250977 C13.4875488,12.4458008 13.2414551,11.7983398 12.7492676,11.2827148 C12.2570801,10.7670898 11.619873,10.5092773 10.8376465,10.5092773 C10.0700684,10.5092773 9.44677734,10.7670898 8.96777344,11.2827148 C8.48876953,11.7983398 8.24926758,12.4458008 8.24926758,13.2250977 L8.24926758,13.2250977 L8.24926758,14.3764648 C8.24926758,15.1586914 8.48950195,15.8068848 8.9699707,16.3210449 C9.45043945,16.8352051 10.072998,17.0922852 10.8376465,17.0922852 Z M10.8376465,16.2177734 C10.3688965,16.2177734 9.99829102,16.0456543 9.72583008,15.701416 C9.45336914,15.3571777 9.31713867,14.9155273 9.31713867,14.3764648 L9.31713867,14.3764648 L9.31713867,13.2163086 C9.31713867,12.6831055 9.45263672,12.2451172 9.72363281,11.9023437 C9.99462891,11.5595703 10.3659668,11.3881836 10.8376465,11.3881836 C11.3239746,11.3881836 11.7092285,11.5595703 11.9934082,11.9023437 C12.2775879,12.2451172 12.4196777,12.6831055 12.4196777,13.2163086 L12.4196777,13.2163086 L12.4196777,14.3764648 C12.4196777,14.918457 12.2783203,15.3608398 11.9956055,15.7036133 C11.7128906,16.0463867 11.3269043,16.2177734 10.8376465,16.2177734 Z M17.1306152,17 C17.8220215,17 18.3640137,16.8439941 18.7565918,16.5319824 C19.1491699,16.2199707 19.345459,15.7636719 19.345459,15.1630859 C19.345459,14.7763672 19.2348633,14.4394531 19.0136719,14.1523437 C18.7924805,13.8652344 18.4768066,13.6879883 18.0666504,13.6206055 C18.3508301,13.503418 18.5727539,13.3320312 18.7324219,13.1064453 C18.8920898,12.8808594 18.9719238,12.6274414 18.9719238,12.3461914 C18.9719238,11.7661133 18.7727051,11.3303223 18.3742676,11.0388184 C17.9758301,10.7473145 17.423584,10.6015625 16.7175293,10.6015625 L16.7175293,10.6015625 L14.6213379,10.6015625 L14.6213379,17 L17.1306152,17 Z M16.8317871,13.2954102 L15.689209,13.2954102 L15.689209,11.4584961 L16.7175293,11.4584961 C17.104248,11.4584961 17.3986816,11.5354004 17.6008301,11.689209 C17.8029785,11.8430176 17.9040527,12.078125 17.9040527,12.3945312 C17.9040527,12.6816406 17.8081055,12.9035645 17.6162109,13.0603027 C17.4243164,13.217041 17.1628418,13.2954102 16.8317871,13.2954102 L16.8317871,13.2954102 Z M17.1306152,16.1474609 L15.689209,16.1474609 L15.689209,14.0908203 L17.161377,14.0908203 C17.5158691,14.1025391 17.7912598,14.2036133 17.9875488,14.394043 C18.1838379,14.5844727 18.2819824,14.8408203 18.2819824,15.1630859 C18.2819824,15.4824219 18.182373,15.7263184 17.9831543,15.8947754 C17.7839355,16.0632324 17.4997559,16.1474609 17.1306152,16.1474609 L17.1306152,16.1474609 Z M22.5270996,17.0922852 C23.2038574,17.0922852 23.7502441,16.934082 24.1662598,16.6176758 C24.5822754,16.3012695 24.7902832,15.8779297 24.7902832,15.3476562 C24.7902832,14.84375 24.614502,14.4299316 24.2629395,14.1062012 C23.911377,13.7824707 23.4001465,13.5268555 22.729248,13.3393555 C22.2341309,13.1958008 21.8796387,13.0441895 21.6657715,12.8845215 C21.4519043,12.7248535 21.3449707,12.5219727 21.3449707,12.2758789 C21.3449707,12.0063477 21.4423828,11.7866211 21.637207,11.6166992 C21.8320312,11.4467773 22.1096191,11.3618164 22.4699707,11.3618164 C22.842041,11.3618164 23.1401367,11.4614258 23.3642578,11.6606445 C23.5883789,11.8598633 23.7004395,12.1279297 23.7004395,12.4648437 L23.7004395,12.4648437 L24.7287598,12.4648437 L24.7375488,12.4384766 C24.7521973,11.8935547 24.5522461,11.435791 24.1376953,11.0651855 C23.7231445,10.6945801 23.170166,10.5092773 22.4787598,10.5092773 C21.8342285,10.5092773 21.3068848,10.6762695 20.8967285,11.0102539 C20.4865723,11.3442383 20.2814941,11.769043 20.2814941,12.284668 C20.2814941,12.7827148 20.4682617,13.1862793 20.8417969,13.4953613 C21.215332,13.8044434 21.7463379,14.0541992 22.4348145,14.2446289 C22.9152832,14.3793945 23.25,14.5317383 23.4389648,14.7016602 C23.6279297,14.871582 23.7224121,15.0898437 23.7224121,15.3564453 C23.7224121,15.6289062 23.6176758,15.8449707 23.4082031,16.0046387 C23.1987305,16.1643066 22.9050293,16.2441406 22.5270996,16.2441406 C22.1462402,16.2441406 21.8232422,16.1467285 21.5581055,15.9519043 C21.2929687,15.7570801 21.1604004,15.4677734 21.1604004,15.0839844 L21.1604004,15.0839844 L20.1320801,15.0839844 L20.123291,15.1103516 C20.1086426,15.7402344 20.3430176,16.2280273 20.826416,16.5737305 C21.3098145,16.9194336 21.876709,17.0922852 22.5270996,17.0922852 Z M33.4471582,17.936 L33.9241582,17.243 C33.3121582,16.829 32.7901582,16.244 32.3401582,15.497 C32.8261582,14.462 33.0961582,13.211 33.1501582,11.744 L33.6721582,11.744 L33.6721582,10.925 L31.3861582,10.925 C31.4581582,10.556 31.5121582,10.169 31.5661582,9.755 L30.7291582,9.611 C30.5491582,11.285 30.2071582,12.617 29.7031582,13.607 L30.2431582,14.273 C30.4051582,14.003 30.5491582,13.697 30.6931582,13.373 C30.9181582,14.156 31.1881582,14.858 31.4941582,15.479 C31.0981582,16.19 30.5671582,16.766 29.9011582,17.216 L30.3421582,17.927 C30.9721582,17.477 31.5031582,16.919 31.9261582,16.262 C32.3581582,16.955 32.8621582,17.513 33.4471582,17.936 Z M26.0041582,13.886 C26.6971582,13.4 27.1921582,12.833 27.4891582,12.185 L27.4891582,13.706 L28.2721582,13.706 L28.2721582,12.698 C28.5511582,12.878 28.8841582,13.13 29.2801582,13.445 L29.7301582,12.77 C29.2351582,12.509 28.7491582,12.275 28.2721582,12.077 L28.2721582,12.032 L29.8381582,12.032 L29.8381582,11.285 L28.2721582,11.285 L28.2721582,9.629 L27.4891582,9.629 L27.4891582,11.285 L25.7881582,11.285 L25.7881582,12.032 L26.9221582,12.032 C26.6521582,12.446 26.2111582,12.833 25.5811582,13.193 L26.0041582,13.886 Z M29.1091582,11.159 C29.3881582,10.79 29.6131582,10.412 29.7931582,10.034 L29.1901582,9.746 C29.0281582,10.106 28.8031582,10.475 28.5151582,10.853 L29.1091582,11.159 Z M26.5171582,11.132 L27.1291582,10.853 C26.9761582,10.457 26.8051582,10.097 26.6071582,9.755 L25.9321582,9.98 C26.1391582,10.313 26.3371582,10.7 26.5171582,11.132 Z M31.8811582,14.606 C31.5661582,13.904 31.3051582,13.085 31.1071582,12.149 C31.1431582,12.023 31.1791582,11.888 31.2151582,11.744 L32.3761582,11.744 C32.3401582,12.824 32.1781582,13.778 31.8811582,14.606 Z M25.9591582,17.9 C26.8501582,17.666 27.5971582,17.36 28.1911582,16.973 C28.6861582,17.198 29.1091582,17.414 29.4601582,17.63 L29.9191582,16.964 C29.5771582,16.784 29.2171582,16.604 28.8481582,16.442 C29.2621582,16.028 29.5501582,15.551 29.7121582,15.011 L29.7121582,14.318 L27.8761582,14.318 C27.9301582,14.174 27.9751582,14.039 28.0291582,13.895 L27.2281582,13.796 C27.1741582,13.958 27.1111582,14.138 27.0391582,14.318 L25.7701582,14.318 L25.7701582,15.047 L26.7151582,15.047 C26.5441582,15.389 26.3461582,15.74 26.1301582,16.118 C26.5441582,16.28 26.9401582,16.433 27.3091582,16.586 C26.8231582,16.838 26.2381582,17.036 25.5631582,17.198 L25.9591582,17.9 Z M28.0651582,16.118 C27.7681582,15.992 27.4621582,15.884 27.1471582,15.776 C27.2911582,15.542 27.4261582,15.299 27.5521582,15.047 L28.9471582,15.047 C28.7491582,15.443 28.4611582,15.803 28.0651582,16.118 Z M35.6971582,17.846 C36.2551582,17.846 36.5431582,17.549 36.5431582,16.955 L36.5431582,14.462 C36.7951582,14.345 37.0471582,14.219 37.3081582,14.093 L37.3081582,13.256 C37.0561582,13.391 36.7951582,13.517 36.5431582,13.634 L36.5431582,12.095 L37.3351582,12.095 L37.3351582,11.276 L36.5431582,11.276 L36.5431582,9.647 L35.7151582,9.647 L35.7151582,11.276 L34.7071582,11.276 L34.7071582,12.095 L35.7151582,12.095 L35.7151582,13.958 C35.3281582,14.093 34.9411582,14.21 34.5451582,14.3 L34.7611582,15.146 C35.0761582,15.038 35.3911582,14.93 35.7151582,14.813 L35.7151582,16.748 C35.7151582,16.982 35.6071582,17.099 35.4091582,17.099 C35.1931582,17.099 34.9771582,17.072 34.7521582,17.036 L34.9321582,17.846 L35.6971582,17.846 Z M37.4611582,17.936 C38.0371582,16.784 38.3791582,15.452 38.4961582,13.94 L40.1161582,13.94 L40.1161582,14.867 L38.6761582,14.867 L38.6761582,17.927 L39.4681582,17.927 L39.4681582,17.54 L41.6011582,17.54 L41.6011582,17.927 L42.3931582,17.927 L42.3931582,14.867 L40.9441582,14.867 L40.9441582,13.94 L42.7981582,13.94 L42.7981582,13.157 L40.9441582,13.157 L40.9441582,12.257 L42.5821582,12.257 L42.5821582,9.926 L37.7131582,9.926 L37.7131582,12.86 C37.7041582,14.687 37.3981582,16.181 36.7951582,17.342 L37.4611582,17.936 Z M41.7541582,11.492 L38.5411582,11.492 L38.5411582,10.709 L41.7541582,10.709 L41.7541582,11.492 Z M40.1161582,13.157 L38.5321582,13.157 C38.5321582,13.058 38.5411582,12.959 38.5411582,12.86 L38.5411582,12.257 L40.1161582,12.257 L40.1161582,13.157 Z M41.6011582,16.784 L39.4681582,16.784 L39.4681582,15.623 L41.6011582,15.623 L41.6011582,16.784 Z M45.6421582,17.936 L45.6421582,13.391 C46.1281582,12.743 46.5331582,12.032 46.8661582,11.276 L51.6901582,11.276 L51.6901582,10.439 L47.1991582,10.439 C47.2801582,10.187 47.3611582,9.926 47.4331582,9.665 L46.5691582,9.566 C46.4881582,9.854 46.3981582,10.142 46.2901582,10.439 L43.9141582,10.439 L43.9141582,11.276 L45.9391582,11.276 C45.3721582,12.464 44.5711582,13.508 43.5451582,14.417 L44.0761582,15.101 C44.3281582,14.876 44.5711582,14.642 44.8051582,14.39 L44.8051582,17.936 L45.6421582,17.936 Z M48.7111582,17.9 C49.3231582,17.9 49.6291582,17.585 49.6291582,16.964 L49.6291582,15.497 L51.8071582,15.497 L51.8071582,14.669 L49.6291582,14.669 L49.6291582,14.282 C50.2231582,13.877 50.7541582,13.445 51.2311582,12.995 L51.2311582,12.212 L46.9291582,12.212 L46.9291582,12.995 L50.1601582,12.995 C49.7191582,13.355 49.2601582,13.67 48.7831582,13.94 L48.7831582,14.669 L46.2451582,14.669 L46.2451582,15.497 L48.7831582,15.497 L48.7831582,16.694 C48.7831582,16.973 48.6391582,17.117 48.3691582,17.117 C48.0091582,17.117 47.6761582,17.108 47.3701582,17.09 L47.5951582,17.9 L48.7111582,17.9 Z M54.1471582,17.945 L54.1471582,11.699 C54.3811582,11.15 54.5791582,10.574 54.7411582,9.98 L53.9671582,9.62 C53.6521582,10.934 53.1571582,12.086 52.4821582,13.076 L52.7701582,13.994 C52.9591582,13.742 53.1391582,13.49 53.3191582,13.22 L53.3191582,17.945 L54.1471582,17.945 Z M58.1341582,17.909 L58.1341582,17.567 L59.5921582,17.567 L59.5921582,17.909 L60.3931582,17.909 L60.3931582,13.805 L58.7281582,13.805 C58.9441582,13.589 59.1601582,13.364 59.3671582,13.112 L60.7801582,13.112 L60.7801582,12.338 L59.9251582,12.338 C60.2851582,11.78 60.6181582,11.141 60.9061582,10.439 L60.2041582,10.07 C60.0691582,10.412 59.9161582,10.736 59.7541582,11.06 L59.7541582,10.619 L58.8091582,10.619 L58.8091582,9.638 L58.0261582,9.638 L58.0261582,10.619 L57.0181582,10.619 L57.0181582,11.348 L58.0261582,11.348 L58.0261582,12.338 L56.8831582,12.338 L56.8831582,13.112 L58.2961582,13.112 C57.7471582,13.652 57.1261582,14.084 56.4241582,14.408 L56.8561582,15.074 C57.0091582,15.002 57.1711582,14.921 57.3331582,14.831 L57.3331582,17.909 L58.1341582,17.909 Z M56.0281582,11.915 L56.6671582,11.276 C56.3071582,10.826 55.8751582,10.376 55.3621582,9.926 L54.7771582,10.493 C55.3171582,10.997 55.7311582,11.474 56.0281582,11.915 Z M58.9621582,12.338 L58.8091582,12.338 L58.8091582,11.348 L59.6101582,11.348 C59.4121582,11.699 59.1961582,12.032 58.9621582,12.338 Z M55.4611582,17.684 C55.9921582,17.216 56.4961582,16.685 56.9641582,16.091 L56.7571582,15.254 C56.5411582,15.506 56.3431582,15.74 56.1541582,15.947 L56.1541582,12.365 L54.4081582,12.365 L54.4081582,13.157 L55.3261582,13.157 L55.3261582,16.514 C55.3261582,16.658 55.2541582,16.793 55.1281582,16.901 L55.4611582,17.684 Z M59.5921582,15.326 L58.1341582,15.326 L58.1341582,14.552 L59.5921582,14.552 L59.5921582,15.326 Z M59.5921582,16.829 L58.1341582,16.829 L58.1341582,16.028 L59.5921582,16.028 L59.5921582,16.829 Z" id="OBS数据存储" fill="#000000" fill-rule="nonzero"></path>
        </g>
        <g id="编组-7复制-2备份-9" transform="translate(133.000000, 208.000000)">
            <g id="dcs">
                <polygon id="Fill-1" fill="#F7FAFF" points="9.29860465 34.6745553 9.21257474 49.1497674 0 29.0847992 0.083571916 14.612093"></polygon>
                <g id="Fill-12">
                    <mask id="mask-13" fill="white">
                        <use xlink:href="#path-12"></use>
                    </mask>
                    <use id="Mask" fill="url(#linearGradient-3)" xlink:href="#path-12"></use>
                    <path d="M40.5358149,23.0947763 C39.3445444,23.3996784 38.0576063,23.8611742 36.7656768,24.4245803 L36.190007,20.8411519 L41.9009509,17.475629 C42.0847992,17.366262 42.1821307,17.2121538 42.0082651,17.1218432 L41.450065,15.8127525 L46.6652008,12.7397037 C47.8048939,13.5119015 48.4986925,14.3628104 48.8306177,15.3380001 L42.3568282,19.1550763 C42.078976,19.3191269 42.0698251,19.5212903 42.3327033,19.6604847 C42.5964133,19.7996792 42.9574547,19.7839369 43.2361388,19.6198863 L48.9853498,16.2286788 C49.1167888,17.9329822 47.959626,19.8129358 45.4356633,21.3026478 C44.3126081,21.9654785 42.7370032,22.5943391 40.5358149,23.0947763 M46.7924804,11.709002 C42.5539867,9.59622917 35.6226562,9.72630969 30.7685618,11.9467925 C30.2419737,12.1663552 29.7960792,12.4281733 29.3510165,12.6899914 C27.6572828,13.6867231 22.2266868,15.1681497 22.147657,15.1242372 C21.8922659,15.185549 21.8024215,15.2377469 21.7042582,15.3852267 C21.6942754,15.4813372 21.6842927,15.5766191 21.8415205,15.6627871 L23.9046145,16.8003703 L18.9806412,19.6969404 C18.8907968,19.7499669 18.7901378,19.8999323 18.7011252,19.9529588 C18.6894787,20.0498978 18.7685086,20.0954674 18.9257363,20.1849495 L22.5103622,22.2339249 L20.2417907,23.5687002 C19.9697617,23.7294366 19.9481325,23.9299429 20.1885495,24.0691374 C20.4289665,24.2091604 20.7717064,24.1950752 21.0445672,24.0351673 L23.7731755,22.4278029 C24.0460363,22.2670664 24.0651698,22.0682172 23.8222572,21.9298513 L20.2176658,19.8817045 L25.2331473,17.0232471 C25.3238236,16.9693921 25.4228189,16.8202552 25.5118314,16.7672287 C25.5209822,16.6702898 25.4402886,16.6263772 25.2797333,16.5385522 L23.442914,15.5310495 C25.1690916,15.0587826 28.7329202,13.9609693 30.1629439,13.1191743 C30.5198259,12.9095541 30.9665523,12.6469074 31.4057917,12.4787142 C34.4155797,11.0726845 38.1466188,10.617817 41.5182802,11.0436857 L38.2655795,12.9584379 C37.5784361,12.8035012 36.7007892,12.9484954 36.159227,13.2674827 C35.437976,13.6916943 35.39139,14.3702672 36.0635593,14.7223961 C36.7382244,15.0753534 37.9660981,15.0115559 38.6931724,14.5840301 C39.3295704,14.2087023 39.4427078,13.7654342 39.1132782,13.3950776 L42.8268476,11.2085648 C43.8742006,11.43807 45.0089023,11.8092551 45.8807259,12.2458949 L40.3128676,15.5260783 C40.1306831,15.6337883 40.0333516,15.7862393 40.2063853,15.8757215 L40.9401148,17.0746165 L35.2441449,20.4318539 C35.0602966,20.5403925 35.0536415,20.6406456 35.0461545,20.7408988 L35.6534362,24.9813581 C34.3556835,25.6483315 33.2376196,26.307848 32.2118958,26.9118525 L31.7859667,24.3127277 C32.0563318,24.2514158 32.1486719,24.1967323 32.334184,24.0873652 C33.0737367,23.651554 33.125314,22.9398396 32.4473214,22.5628546 C31.7726564,22.1883553 30.5414551,22.2405532 29.8077257,22.6730502 C29.0731643,23.1063758 29.0132681,23.8139476 29.6829417,24.1925896 C29.9350053,24.3350982 30.1945558,24.3756966 30.4557701,24.416295 L30.9074879,27.6823932 C29.9657853,28.3369385 29.3044305,28.8266047 29.2112585,28.8812882 C29.0240827,28.9914838 29.0074448,29.2002755 29.2611721,29.3485839 L29.3468571,29.3974676 C29.6014163,29.545776 30.0523021,29.4794929 30.2486288,29.2640729 C30.3418008,29.2093894 35.833125,24.9755583 40.9542569,23.7468359 C43.2561042,23.1908867 45.0197169,22.5529122 46.4264476,21.7227167 C51.5800233,18.6803238 51.683178,14.1457333 46.7924804,11.709002" id="Fill-1" stroke="url(#linearGradient-15)" stroke-width="0.5" fill="url(#linearGradient-14)" mask="url(#mask-13)"></path>
                </g>
                <polygon id="Fill-6" fill="url(#linearGradient-8)" points="69.0753488 25.2390698 68.9905535 39.746168 43.8362791 54.4632558 43.9210744 39.958669"></polygon>
                <g id="Group-7" transform="translate(57.120000, 37.194419)" fill="#8494B2">
                    <polygon id="Fill-6" points="10.149001 0 10.1414238 2.37937764 7.89366746 3.61182998 7.90124467 1.23264693"></polygon>
                    <polygon id="Fill-6-Copy" points="5.6383339 2.40788665 5.63075669 4.78726429 3.38300034 6.01971663 3.39057755 3.64053358"></polygon>
                    <polygon id="Fill-6-Copy-2" opacity="0.369810268" points="2.25533356 4.8157733 2.24775635 7.19515094 -1.34754953e-12 8.42760328 0.00757720761 6.04842023"></polygon>
                </g>
                <polygon id="Fill-8" fill="#D1DAE8" points="43.8362791 39.9357565 43.7516096 54.4632558 9.29860465 49.0676892 9.3857644 34.5376744"></polygon>
                <g id="Group-7-Copy" transform="translate(29.224186, 47.821395)" fill="#A0AABE">
                    <polygon id="Fill-6" points="10.149001 1.38834026 10.1414238 3.48283605 7.89366746 3.25526985 7.90124467 1.16094535"></polygon>
                    <polygon id="Fill-6-Copy" opacity="0.431863839" points="5.6383339 0.681925822 5.63075669 3.73486576 3.38300034 3.30471997 3.39057755 0.252029707"></polygon>
                    <polygon id="Fill-6-Copy-2" points="2.25533356 0.370052918 2.24775635 3.48283605 1.06874523e-12 3.11252857 0.00757720762 2.01345607e-13"></polygon>
                </g>
                <polyline id="Mask" stroke="#7D849E" stroke-width="1.02" opacity="0.401729911" points="69.0753488 25.2775392 43.8957627 39.8511628 9.35933654 34.5159536 0 14.612093"></polyline>
                <polyline id="Mask" stroke="#7D849E" stroke-width="1.02" opacity="0.401729911" points="69.0753488 33.2477717 43.8957627 47.8213953 9.35933654 42.4861862 0 22.5823256"></polyline>
                <path d="M44.6126461,40.3981395 L44.5543307,54.4632558 M8.5214243,48.6027907 L8.5813664,34.5376744" id="Fill-8" stroke="#7D849E" stroke-width="1.02" opacity="0.401729911"></path>
                <path d="M25.1109601,-0.531610289 L-0.51,14.3668836 L-0.51,29.2387966 L8.99714466,49.5474921 L43.9837379,54.9950032 L69.5853488,40.0979987 L69.5853488,25.2232127 L60.1147664,4.88763216 L25.1109601,-0.531610289 Z" id="Path-11" stroke="#555A6F" stroke-width="1.02" stroke-linecap="round" stroke-linejoin="round"></path>
            </g>
        </g>
        <g id="编组-9" transform="translate(244.000000, 278.000000)">
            <polygon id="路径" fill-opacity="0.4" fill="url(#linearGradient-16)" fill-rule="nonzero" points="-3.29527066e-14 67.826087 174.492754 168.927536 197.565217 168.927536 239.768116 143.652174 239.768116 127.304348 63.6521739 25.0434783 43.4782609 25.0434783 -3.29527066e-14 52.057971"></polygon>
            <g id="编组-13" transform="translate(125.000000, 73.000000)">
                <path d="M61.1785487,15.8172417 C64.0918717,17.4681247 64.0918717,20.2843369 61.1785487,21.9352199 L37.6777435,35.7249486 C34.3529297,37.419854 30.4174839,37.419854 27.09267,35.7249486 L3.49475405,22.0323307 C0.581431089,20.3814476 0.581431089,17.5652354 3.49475405,15.9143524 L26.9955593,2.12462374 C30.316509,0.413705722 34.259683,0.413705722 37.5806327,2.12462374 L61.1785487,15.8172417 Z" id="路径" fill="url(#linearGradient-17)" fill-rule="nonzero"></path>
                <g id="编组-5" transform="translate(31.942275, 18.055625) rotate(-330.000000) translate(-31.942275, -18.055625) translate(17.942275, 7.555625)" fill="url(#linearGradient-18)" stroke="url(#linearGradient-19)" stroke-width="0.595">
                    <path d="M4.75993645,13.5723314 L5.88745047,16.3760429 L10.2731484,13.6316858 L10.4610674,14.098971 L6.07536943,16.8433282 L7.20288348,19.6470397 L6.47193385,20.1044325 L5.34441982,17.300721 L0.958721946,20.0450781 L0.770802921,19.5777929 L5.15650079,16.8334358 L4.02898678,14.0297243 L4.75993645,13.5723314 Z M12.1279734,18.5534396 L19.2750942,18.6303844 L18.8911135,19.2842305 L11.7439928,19.2072858 L12.1279734,18.5534396 Z M14.4318573,14.6303627 L21.578978,14.7073074 L21.1949974,15.3611536 L14.0478767,15.2842089 L14.4318573,14.6303627 Z M14.698592,0.815653714 L15.3483302,0.822648691 L13.4284269,4.09187949 L16.6771182,4.12685434 L16.2931375,4.78070052 L13.0444463,4.74572558 L11.124543,8.0149564 L10.4748048,8.00796143 L12.3947081,4.73873062 L9.14601677,4.70375577 L9.52999744,4.04990959 L12.7786887,4.08488452 L14.698592,0.815653714 Z M20.5755477,4.16882423 L27.7226685,4.24576899 L27.3386878,4.89961517 L20.1915671,4.82267033 L20.5755477,4.16882423 Z" id="形状结合"></path>
                </g>
                <path d="M64.084949,19.8958938 L63.4784426,20.5756692 L62.9730206,20.9641122 L62.4675985,21.2554445 L38.0051723,35.142284 L36.4889062,35.8220593 L35.8823998,36.0162809 L35.0737246,36.2105024 L34.1639649,36.4047239 L30.9292639,36.4047239 L29.7162511,36.2105024 L29.5140822,36.2105024 L28.4021538,35.9191701 L28.199985,35.9191701 L26.9869721,35.3365055 L2.32237706,21.4496661 C1.01957023,20.8938197 0.130594987,19.7056047 -0.00256427232,18.3421216 L-0.00256427232,40.4833761 C0.130594987,41.8468592 1.01957023,43.0350742 2.32237706,43.5909206 L26.9869721,58.5200283 L28.0989006,59.0055821 L28.3010694,59.0055821 L29.0086602,59.1998037 C30.3840409,59.5797265 31.4298776,59.7696879 32.1461704,59.7696879 C32.8624632,59.7696879 33.8383146,59.5797265 35.0737246,59.1998037 L35.8823998,59.0055821 L36.3878218,59.0055821 L37.9040879,58.3258068 L62.3665141,43.396699 L62.8719362,43.1053667 L63.3773582,42.7169237 L63.8827802,42.2313699 L64.084949,42.2313699 L64.084949,42.0371483 L64.2871179,41.6487053 L64.2871179,40.9689299 C64.2975009,40.839641 64.2975009,40.7097758 64.2871179,40.5804868 C64.2871179,40.5804868 64.2871179,33.2000687 64.2871179,18.4392323 C64.2940851,18.7015951 64.2600105,18.963476 64.1860334,19.2161185 C64.21112,19.4420694 64.21112,19.6699429 64.1860334,19.8958938 L64.084949,19.8958938 Z" id="路径" fill="url(#linearGradient-20)" fill-rule="nonzero"></path>
                <polygon id="路径" fill="#A5ADC1" fill-rule="nonzero" points="57.9668119 38.8324633 56.362717 39.7681853 56.362717 42.5753514 57.9668119 41.6396293"></polygon>
                <polygon id="路径" fill="#A5ADC1" fill-rule="nonzero" opacity="0.504185259" points="55.2933205 40.4365582 53.555551 41.3722802 53.555551 44.1794462 55.2933205 43.2437242"></polygon>
                <polygon id="路径" fill="#A5ADC1" fill-rule="nonzero" points="60.7739779 37.0946939 59.0362085 38.1640905 59.0362085 40.8375819 60.7739779 39.9018599"></polygon>
                <path d="M8.05896003,47.2811297 C3.39764329,44.9504713 0.387209558,41.8429268 0.387209558,38.3469392 L0.387209558,18.9247862 C0.36402078,17.7189737 0.902231505,16.5707908 1.84387104,15.8172417 C2.62075716,15.2345771 25.2475655,2.12462374 27.4811131,0.959294555 C30.4907701,-0.319764852 33.8912004,-0.319764852 36.9008574,0.959294555 L47.2917093,6.88305125 L47.38882,6.88305125 L57.5854504,12.7096972 L59.818998,13.9721371 L61.9554348,15.3316878 C63.4120963,16.3999063 64.1889824,17.2739031 64.1889824,18.2450108 L64.1889824,38.8324931 C64.1889824,39.70649 64.1889824,39.70649 64.1889824,40.094933 C64.1889824,41.9400376 63.8005394,42.8140345 61.3727702,44.4649175 L38.7459619,57.5748708 C34.5734876,60.0240445 29.3682835,59.873169 25.3446763,57.1864277 L8.05896003,47.2811297 Z" id="路径" stroke="#555A6F" stroke-width="1.36"></path>
                <path d="M63.4120963,29.0243058 C63.3945799,30.4442935 62.5637879,31.7282448 61.2756595,32.3260718 L37.6777435,46.310022 C34.3648745,48.0539506 30.405539,48.0539506 27.09267,46.310022 L3.49475405,32.228961 C1.94098181,31.3549641 1.26120645,30.0925242 1.26120645,28.927195" id="路径" stroke="#7D849E" stroke-width="1.04800867" opacity="0.401729912"></path>
                <polygon id="路径" fill="#A5ADC1" fill-rule="nonzero" opacity="0.501227677" points="57.4883396 39.1238254 55.0605705 40.3862653 55.0605705 44.1735852 57.4883396 42.9111452"></polygon>
            </g>
            <g id="编组-13" transform="translate(47.000000, 28.000000)">
                <path d="M61.1785487,15.8172417 C64.0918717,17.4681247 64.0918717,20.2843369 61.1785487,21.9352199 L37.6777435,35.7249486 C34.3529297,37.419854 30.4174839,37.419854 27.09267,35.7249486 L3.49475405,22.0323307 C0.581431089,20.3814476 0.581431089,17.5652354 3.49475405,15.9143524 L26.9955593,2.12462374 C30.316509,0.413705722 34.259683,0.413705722 37.5806327,2.12462374 L61.1785487,15.8172417 Z" id="路径" fill="url(#linearGradient-17)" fill-rule="nonzero"></path>
                <path d="M24.2233368,22.7336179 C19.6872746,20.0627498 19.585615,15.708596 24.0370555,12.9931841 C28.5168925,10.2613614 35.8653472,10.2455366 40.4229907,12.9650512 C44.9641642,15.6740159 44.9635963,20.0445806 40.4627459,22.7277569 C35.990292,25.3945223 28.7429289,25.3945223 24.2233368,22.7336179 M32.9961616,28.5483386 L32.9620857,25.4197247 C35.989724,25.3435314 39.0167944,24.6085591 41.3208891,23.2359076 C46.2953937,20.2737466 46.3022088,15.4401611 41.2862453,12.4445924 C36.2487004,9.43730157 28.1159335,9.45547074 23.1669857,12.4774141 C18.250978,15.4788439 18.3691076,20.2936741 23.3810956,23.2417686 C25.7067716,24.6097313 28.742361,25.3435314 31.7682955,25.4197247 L31.8069148,28.5477525 C31.8074827,28.6485621 31.8938082,28.7493717 31.9795657,28.7997765 C32.0653232,28.8501813 32.2351345,28.9 32.4055137,28.9 C32.7457041,28.9 32.9984333,28.7499578 32.9961616,28.5483386" id="Fill-1" stroke="url(#linearGradient-22)" stroke-width="0.51" fill="url(#linearGradient-21)"></path>
                <path d="M64.084949,19.8958938 L63.4784426,20.5756692 L62.9730206,20.9641122 L62.4675985,21.2554445 L38.0051723,35.142284 L36.4889062,35.8220593 L35.8823998,36.0162809 L35.0737246,36.2105024 L34.1639649,36.4047239 L30.9292639,36.4047239 L29.7162511,36.2105024 L29.5140822,36.2105024 L28.4021538,35.9191701 L28.199985,35.9191701 L26.9869721,35.3365055 L2.32237706,21.4496661 C1.01957023,20.8938197 0.130594987,19.7056047 -0.00256427232,18.3421216 L-0.00256427232,40.4833761 C0.130594987,41.8468592 1.01957023,43.0350742 2.32237706,43.5909206 L26.9869721,58.5200283 L28.0989006,59.0055821 L28.3010694,59.0055821 L29.0086602,59.1998037 C30.3840409,59.5797265 31.4298776,59.7696879 32.1461704,59.7696879 C32.8624632,59.7696879 33.8383146,59.5797265 35.0737246,59.1998037 L35.8823998,59.0055821 L36.3878218,59.0055821 L37.9040879,58.3258068 L62.3665141,43.396699 L62.8719362,43.1053667 L63.3773582,42.7169237 L63.8827802,42.2313699 L64.084949,42.2313699 L64.084949,42.0371483 L64.2871179,41.6487053 L64.2871179,40.9689299 C64.2975009,40.839641 64.2975009,40.7097758 64.2871179,40.5804868 C64.2871179,40.5804868 64.2871179,33.2000687 64.2871179,18.4392323 C64.2940851,18.7015951 64.2600105,18.963476 64.1860334,19.2161185 C64.21112,19.4420694 64.21112,19.6699429 64.1860334,19.8958938 L64.084949,19.8958938 Z" id="路径" fill="url(#linearGradient-20)" fill-rule="nonzero"></path>
                <polygon id="路径" fill="#A5ADC1" fill-rule="nonzero" points="57.9668119 38.8324633 56.362717 39.7681853 56.362717 42.5753514 57.9668119 41.6396293"></polygon>
                <polygon id="路径" fill="#A5ADC1" fill-rule="nonzero" opacity="0.504185259" points="55.2933205 40.4365582 53.555551 41.3722802 53.555551 44.1794462 55.2933205 43.2437242"></polygon>
                <polygon id="路径" fill="#A5ADC1" fill-rule="nonzero" points="60.7739779 37.0946939 59.0362085 38.1640905 59.0362085 40.8375819 60.7739779 39.9018599"></polygon>
                <path d="M8.05896003,47.2811297 C3.39764329,44.9504713 0.387209558,41.8429268 0.387209558,38.3469392 L0.387209558,18.9247862 C0.36402078,17.7189737 0.902231505,16.5707908 1.84387104,15.8172417 C2.62075716,15.2345771 25.2475655,2.12462374 27.4811131,0.959294555 C30.4907701,-0.319764852 33.8912004,-0.319764852 36.9008574,0.959294555 L47.2917093,6.88305125 L47.38882,6.88305125 L57.5854504,12.7096972 L59.818998,13.9721371 L61.9554348,15.3316878 C63.4120963,16.3999063 64.1889824,17.2739031 64.1889824,18.2450108 L64.1889824,38.8324931 C64.1889824,39.70649 64.1889824,39.70649 64.1889824,40.094933 C64.1889824,41.9400376 63.8005394,42.8140345 61.3727702,44.4649175 L38.7459619,57.5748708 C34.5734876,60.0240445 29.3682835,59.873169 25.3446763,57.1864277 L8.05896003,47.2811297 Z" id="路径" stroke="#555A6F" stroke-width="1.36"></path>
                <path d="M63.4120963,29.0243058 C63.3945799,30.4442935 62.5637879,31.7282448 61.2756595,32.3260718 L37.6777435,46.310022 C34.3648745,48.0539506 30.405539,48.0539506 27.09267,46.310022 L3.49475405,32.228961 C1.94098181,31.3549641 1.26120645,30.0925242 1.26120645,28.927195" id="路径" stroke="#7D849E" stroke-width="1.04800867" opacity="0.401729912"></path>
                <polygon id="路径" fill="#A5ADC1" fill-rule="nonzero" opacity="0.501227677" points="57.4883396 39.1238254 55.0605705 40.3862653 55.0605705 44.1735852 57.4883396 42.9111452"></polygon>
            </g>
            <line x1="235.362319" y1="111.188406" x2="238.608696" y2="118.84058" id="路径" stroke="#D7E0FF" stroke-width="0.699999988" stroke-linecap="round" stroke-linejoin="round" stroke-dasharray="2.799999952316284"></line>
            <path d="M-3.29527066e-14,30.6086957 L43.2463768,5.44927536 L63.884058,5.44927536 L238.608696,106.550725 L238.608696,119.304348 L197.565217,143.188406 L197.565217,167.884058" id="路径" stroke="#D7E0FF" stroke-width="0.699999988" stroke-linecap="round" stroke-linejoin="round" stroke-dasharray="2.799999952316284"></path>
            <path d="M198.26087,167.884058 L198.26087,142.84058 L175.536232,142.84058" id="路径" stroke="#D7E0FF" stroke-width="0.699999988" stroke-linecap="round" stroke-linejoin="round" stroke-dasharray="2.799999952316284"></path>
            <path d="M174.376812,167.884058 L174.376812,143.072464 L1.15942029,42.5507246" id="路径" stroke="#D7E0FF" stroke-width="0.699999988" stroke-linecap="round" stroke-linejoin="round" stroke-dasharray="2.799999952316284"></path>
            <path d="M5.44927536,22.9565217 L5.44927536,34.4347826 L176.695652,132.985507 L196.405797,132.985507 L235.246377,110.376812 L235.246377,98.8985507" id="路径" stroke="#D7E0FF" stroke-width="0.699999988" stroke-linecap="round" stroke-linejoin="round" stroke-dasharray="2.799999952316284"></path>
            <path d="M4.4057971,34.8985507 L1.15942029,42.5507246 M175.536232,142.84058 L176.57971,134.144928" id="形状" stroke="#D7E0FF" stroke-width="0.699999988" stroke-linecap="round" stroke-linejoin="round" stroke-dasharray="2.799999952316284"></path>
            <path d="M197.333333,134.028986 L198.376812,142.724638 M175.536232,142.724638 L176.57971,134.028986" id="形状" stroke="#D7E0FF" stroke-width="0.699999988" stroke-linecap="round" stroke-linejoin="round" stroke-dasharray="2.799999952316284"></path>
            <polygon id="路径" stroke="#999FB6" stroke-linecap="round" stroke-linejoin="round" points="4.4057971 23.0724638 43.5942029 0.579710145 64.2318841 0.579710145 235.130435 99.3623188 239.188406 106.086957 239.188406 143.884058 197.565217 168.463768 174.376812 168.463768 0.579710145 67.7101449 0.579710145 29.5652174"></polygon>
            <path d="M64.4637681,0 L64.2318841,24.4637681 L239.652174,126.376812" id="路径" stroke="#D7E0FF" stroke-width="0.699999988" stroke-linecap="round" stroke-linejoin="round" stroke-dasharray="2.799999952316284"></path>
            <path d="M1.15942029,51.2463768 L43.5942029,24.4637681 L43.5942029,0" id="路径" stroke="#D7E0FF" stroke-width="0.699999988" stroke-linecap="round" stroke-linejoin="round" stroke-dasharray="2.799999952316284"></path>
        </g>
        <g id="编组-4备份-5" transform="translate(147.000000, 258.000000)">
            <path d="M23.0958571,19.9684503 L18.7444568,24.0623265 L14.5995526,19.9684503 L3.5743953,19.9684503 C1.59985414,19.9684503 9.09494702e-13,18.3552351 9.09494702e-13,16.3652606 L9.09494702e-13,3.60318976 C9.09494702e-13,1.61321519 1.59985414,0 3.5743953,0 L45.4002785,0 C47.3748196,0 48.9755233,1.61321519 48.9755233,3.60318976 L48.9755233,16.3652606 C48.9755233,18.3552351 47.3748196,19.9684503 45.4002785,19.9684503 L23.0958571,19.9684503 Z" id="Fill-1-Copy复制-9备份-48" stroke="#555A6F" stroke-width="1.078" fill="#F0F1F7" transform="translate(24.487762, 12.031163) rotate(-180.000000) translate(-24.487762, -12.031163) "></path>
            <path d="M9.11,17.882 L9.11,13.355 C9.317,13.679 9.56,14.093 9.839,14.588 L10.343,13.832 C9.929,13.346 9.524,12.905 9.11,12.509 L9.11,12.131 L10.154,12.131 L10.154,11.312 L9.11,11.312 L9.11,9.629 L8.264,9.629 L8.264,11.312 L6.995,11.312 L6.995,12.131 L8.219,12.131 C7.922,13.175 7.454,14.093 6.806,14.903 L7.175,15.83 C7.607,15.173 7.976,14.453 8.264,13.661 L8.264,17.882 L9.11,17.882 Z M10.334,17.99 C10.757,17.324 11.045,16.64 11.198,15.92 C11.36,15.218 11.441,14.363 11.441,13.355 L11.441,10.736 L12.818,10.736 L12.818,16.847 C12.818,17.423 13.142,17.711 13.799,17.711 L14.195,17.711 C14.501,17.711 14.735,17.648 14.879,17.54 C15.014,17.405 15.104,17.171 15.14,16.838 C15.185,16.496 15.212,15.992 15.212,15.308 L14.429,15.065 C14.429,16.001 14.402,16.532 14.366,16.676 C14.348,16.748 14.321,16.811 14.276,16.856 C14.231,16.892 14.168,16.91 14.087,16.91 L13.808,16.91 C13.718,16.91 13.682,16.856 13.682,16.757 L13.682,9.926 L10.595,9.926 L10.595,13.355 C10.595,14.345 10.532,15.101 10.415,15.623 C10.262,16.235 10.001,16.811 9.632,17.36 L10.334,17.99 Z M19.586,12.257 L19.586,9.917 L16.697,9.917 L16.697,12.257 L19.586,12.257 Z M17.57,17.936 L17.57,17.585 L18.875,17.585 L18.875,17.936 L19.631,17.936 L19.631,14.993 L17.642,14.993 C18.344,14.651 18.92,14.228 19.37,13.742 L20.828,13.742 C21.224,14.21 21.791,14.624 22.511,14.993 L20.36,14.993 L20.36,17.936 L21.116,17.936 L21.116,17.585 L22.574,17.585 L22.574,17.936 L23.33,17.936 L23.33,15.353 C23.483,15.407 23.645,15.47 23.825,15.533 L24.167,14.813 C23.141,14.543 22.34,14.192 21.773,13.742 L23.996,13.742 L23.996,12.986 L22.772,12.986 C22.646,12.734 22.493,12.491 22.322,12.257 L23.393,12.257 L23.393,9.917 L20.423,9.917 L20.423,12.257 L22.259,12.257 L21.593,12.473 C21.71,12.626 21.827,12.797 21.935,12.986 L19.928,12.986 C20.027,12.806 20.117,12.626 20.198,12.437 L19.379,12.347 C19.289,12.563 19.163,12.779 19.01,12.986 L16.004,12.986 L16.004,13.742 L18.245,13.742 C17.651,14.183 16.85,14.552 15.842,14.84 L16.229,15.533 C16.427,15.47 16.625,15.407 16.823,15.335 L16.823,17.936 L17.57,17.936 Z M18.812,11.546 L17.471,11.546 L17.471,10.646 L18.812,10.646 L18.812,11.546 Z M22.619,11.546 L21.197,11.546 L21.197,10.646 L22.619,10.646 L22.619,11.546 Z M18.875,16.856 L17.57,16.856 L17.57,15.695 L18.875,15.695 L18.875,16.856 Z M22.574,16.856 L21.116,16.856 L21.116,15.695 L22.574,15.695 L22.574,16.856 Z M28.847,11.375 L29.612,10.988 C29.342,10.457 29.054,9.971 28.757,9.53 L27.983,9.908 C28.289,10.34 28.577,10.826 28.847,11.375 Z M25.949,13.562 L25.949,12.203 L32.042,12.203 L32.042,13.562 L32.897,13.562 L32.897,11.384 L31.241,11.384 C31.547,10.979 31.844,10.484 32.141,9.899 L31.259,9.575 C30.989,10.223 30.674,10.826 30.305,11.384 L26.93,11.384 L27.506,11.096 C27.218,10.592 26.912,10.124 26.606,9.71 L25.832,10.088 C26.138,10.466 26.435,10.898 26.723,11.384 L25.103,11.384 L25.103,13.562 L25.949,13.562 Z M28.685,17.891 C29.252,17.891 29.54,17.621 29.54,17.09 L29.54,15.713 L32.897,15.713 L32.897,14.903 L29.54,14.903 L29.54,14.588 C30.242,14.246 30.872,13.895 31.439,13.526 L31.439,12.77 L26.57,12.77 L26.57,13.526 L30.206,13.526 C29.828,13.715 29.315,13.949 28.685,14.219 L28.685,14.903 L25.13,14.903 L25.13,15.713 L28.685,15.713 L28.685,16.793 C28.685,17.018 28.586,17.135 28.397,17.135 C28.01,17.135 27.659,17.126 27.335,17.117 L27.542,17.891 L28.685,17.891 Z M38.342,17.873 C38.927,17.855 39.413,17.846 39.8,17.837 C40.295,17.837 40.637,17.684 40.817,17.378 C40.997,17.072 41.114,16.496 41.15,15.65 C41.186,15.056 41.24,13.202 41.294,10.106 L34.634,10.106 L34.634,10.925 L40.439,10.925 C40.412,13.085 40.394,14.462 40.376,15.074 C40.349,15.947 40.277,16.505 40.16,16.739 C40.043,16.955 39.863,17.072 39.629,17.072 C39.125,17.072 38.612,17.063 38.108,17.054 L38.342,17.873 Z M37.019,13.886 L37.604,13.292 C37.118,12.752 36.515,12.221 35.804,11.681 L35.201,12.257 C35.975,12.842 36.587,13.382 37.019,13.886 Z M34.751,16.622 C36.632,16.01 38.198,15.308 39.458,14.516 L39.251,13.742 C37.901,14.57 36.281,15.263 34.409,15.839 L34.751,16.622 Z" id="机器学习" fill="#000000" fill-rule="nonzero"></path>
        </g>
        <g id="编组-4备份-6" transform="translate(294.000000, 356.000000)">
            <path d="M23.0958571,19.9684503 L18.7444568,24.0623265 L14.5995526,19.9684503 L3.5743953,19.9684503 C1.59985414,19.9684503 9.09494702e-13,18.3552351 9.09494702e-13,16.3652606 L9.09494702e-13,3.60318976 C9.09494702e-13,1.61321519 1.59985414,0 3.5743953,0 L45.4002785,0 C47.3748196,0 48.9755233,1.61321519 48.9755233,3.60318976 L48.9755233,16.3652606 C48.9755233,18.3552351 47.3748196,19.9684503 45.4002785,19.9684503 L23.0958571,19.9684503 Z" id="Fill-1-Copy复制-9备份-48" stroke="#555A6F" stroke-width="1.078" fill="#F0F1F7" transform="translate(24.487762, 12.031163) rotate(-180.000000) translate(-24.487762, -12.031163) "></path>
            <path d="M23.762,13.229 L24.131,12.455 C22.844,12.131 21.863,11.69 21.197,11.15 L23.744,11.15 L23.744,10.358 L20.432,10.358 L20.432,9.602 L19.604,9.602 L19.604,10.358 L16.292,10.358 L16.292,11.15 L18.857,11.15 C18.173,11.672 17.174,12.113 15.851,12.473 L16.31,13.229 C17.804,12.689 18.902,11.996 19.604,11.168 L19.604,12.689 L20.432,12.689 L20.432,11.159 C21.107,12.005 22.214,12.698 23.762,13.229 Z M22.772,16.361 L22.772,12.959 L17.264,12.959 L17.264,16.361 L22.772,16.361 Z M21.944,14.318 L18.092,14.318 L18.092,13.715 L21.944,13.715 L21.944,14.318 Z M21.944,15.605 L18.092,15.605 L18.092,15.038 L21.944,15.038 L21.944,15.605 Z M23.897,17.684 L23.897,16.901 L16.112,16.901 L16.112,17.684 L23.897,17.684 Z M31.448,17.864 C32.222,17.864 32.663,17.513 32.753,16.82 C32.843,16.028 32.888,13.931 32.888,10.529 L29.432,10.529 C29.522,10.268 29.612,9.998 29.684,9.71 L28.82,9.584 C28.568,10.61 28.082,11.483 27.353,12.203 L27.884,12.887 C28.01,12.761 28.127,12.635 28.244,12.509 L28.244,16.478 L31.124,16.478 L31.124,12.248 L28.46,12.248 C28.685,11.96 28.883,11.663 29.063,11.339 L32.033,11.339 C32.015,14.237 31.988,15.938 31.934,16.442 C31.88,16.883 31.673,17.108 31.331,17.108 C31.061,17.108 30.728,17.09 30.35,17.063 L30.557,17.828 C30.98,17.846 31.277,17.864 31.448,17.864 Z M26.948,11.618 L27.533,11.024 C27.128,10.574 26.633,10.133 26.057,9.692 L25.463,10.277 C26.093,10.745 26.588,11.195 26.948,11.618 Z M26.201,17.657 C26.813,17.243 27.398,16.766 27.938,16.235 L27.704,15.335 C27.425,15.614 27.164,15.866 26.921,16.091 L26.921,12.302 L24.842,12.302 L24.842,13.121 L26.102,13.121 L26.102,16.424 C26.102,16.604 26.021,16.766 25.877,16.892 L26.201,17.657 Z M30.323,14.003 L29.072,14.003 L29.072,12.968 L30.323,12.968 L30.323,14.003 Z M30.323,15.758 L29.072,15.758 L29.072,14.705 L30.323,14.705 L30.323,15.758 Z" id="查询" fill="#000000" fill-rule="nonzero"></path>
        </g>
        <g id="编组-4备份-7" transform="translate(373.000000, 399.000000)">
            <path d="M23.0958571,19.9684503 L18.7444568,24.0623265 L14.5995526,19.9684503 L3.5743953,19.9684503 C1.59985414,19.9684503 9.09494702e-13,18.3552351 9.09494702e-13,16.3652606 L9.09494702e-13,3.60318976 C9.09494702e-13,1.61321519 1.59985414,0 3.5743953,0 L45.4002785,0 C47.3748196,0 48.9755233,1.61321519 48.9755233,3.60318976 L48.9755233,16.3652606 C48.9755233,18.3552351 47.3748196,19.9684503 45.4002785,19.9684503 L23.0958571,19.9684503 Z" id="Fill-1-Copy复制-9备份-48" stroke="#555A6F" stroke-width="1.078" fill="#F0F1F7" transform="translate(24.487762, 12.031163) rotate(-180.000000) translate(-24.487762, -12.031163) "></path>
            <path d="M21.935,17.945 L21.935,13.094 L24.167,13.094 L24.167,12.248 L21.935,12.248 L21.935,9.611 L21.053,9.611 L21.053,12.248 L18.695,12.248 L18.695,13.094 L21.053,13.094 L21.053,17.945 L21.935,17.945 Z M17.957,11.618 L18.542,11.024 C18.137,10.574 17.642,10.133 17.057,9.692 L16.463,10.277 C17.102,10.745 17.597,11.195 17.957,11.618 Z M17.219,17.657 C17.876,17.234 18.497,16.748 19.073,16.208 L18.848,15.335 C18.533,15.632 18.236,15.902 17.948,16.136 L17.948,12.302 L15.869,12.302 L15.869,13.121 L17.129,13.121 L17.129,16.433 C17.129,16.613 17.048,16.766 16.895,16.892 L17.219,17.657 Z M25.715,11.852 C25.976,11.564 26.21,11.24 26.417,10.898 L27.029,10.898 C27.191,11.114 27.335,11.339 27.461,11.573 L28.163,11.321 C28.082,11.186 27.992,11.042 27.884,10.898 L28.883,10.898 L28.883,10.178 L26.795,10.178 C26.849,10.034 26.912,9.89 26.975,9.728 L26.165,9.548 C25.931,10.214 25.544,10.826 25.004,11.402 L25.715,11.852 Z M31.043,17.945 L31.043,16.505 L33.014,16.505 L33.014,15.758 L31.043,15.758 L31.043,15.29 L32.096,15.29 L32.096,11.636 L29.585,11.636 C29.783,11.402 29.972,11.141 30.134,10.862 L30.728,10.862 C30.89,11.096 31.043,11.33 31.178,11.582 L31.871,11.33 C31.79,11.186 31.691,11.024 31.565,10.862 L32.906,10.862 L32.906,10.142 L30.485,10.142 C30.53,10.016 30.575,9.881 30.629,9.746 L29.81,9.566 C29.621,10.151 29.306,10.7 28.865,11.213 L29.522,11.636 L26.012,11.636 L26.012,15.29 L27.137,15.29 L27.137,15.569 L27.119,15.758 L24.986,15.758 L24.986,16.505 L26.858,16.505 C26.84,16.541 26.813,16.577 26.777,16.622 C26.543,16.874 26.12,17.09 25.499,17.261 L25.94,17.936 C26.642,17.738 27.146,17.468 27.461,17.108 C27.605,16.937 27.722,16.739 27.812,16.505 L30.206,16.505 L30.206,17.945 L31.043,17.945 Z M31.259,12.68 L26.849,12.68 L26.849,12.284 L31.259,12.284 L31.259,12.68 Z M31.259,13.634 L26.849,13.634 L26.849,13.265 L31.259,13.265 L31.259,13.634 Z M31.259,14.642 L26.849,14.642 L26.849,14.228 L31.259,14.228 L31.259,14.642 Z M30.206,15.758 L27.974,15.758 C27.974,15.695 27.983,15.632 27.983,15.569 L27.983,15.29 L30.206,15.29 L30.206,15.758 Z" id="计算" fill="#000000" fill-rule="nonzero"></path>
        </g>
        <g id="云计算备份-3" transform="translate(397.000000, 60.500000) rotate(-330.000000) translate(-397.000000, -60.500000) translate(354.000000, 48.000000)" fill="#7787C3" fill-rule="nonzero">
            <path d="M30.7856582,4.41638671 L32.1886522,2.02438671 L13.5206522,2.02438671 L12.1176582,4.41638671 L30.7856582,4.41638671 Z M18.1599589,24.8783867 L21.2697051,23.3443867 C21.4946986,20.7443867 21.474191,17.6763867 21.1669323,14.1663867 L18.4741854,15.3883867 C18.5471892,16.9483867 18.557443,18.4823867 18.5201967,19.9643867 C13.9574482,20.5623867 9.43419927,21.0043867 5.01769991,21.2643867 C7.83619515,19.3403867 11.6619372,16.1423867 16.5209261,11.6703867 L28.8449261,11.6703867 L30.29367,9.20038671 L6.81567002,9.20038671 L5.36692614,11.6703867 L13.7649261,11.6703867 C8.1714389,16.8183867 4.23094676,19.9903867 1.94344972,21.1863867 C1.76769991,21.2643867 1.51395011,21.3423867 1.2082003,21.4203867 L0.378956549,23.9423867 C6.75895552,23.5263867 12.7624541,22.9543867 18.4154523,22.2263867 C18.3649545,23.1103867 18.2624567,23.9943867 18.1599589,24.8783867 Z M40.9862085,24.7483867 L49.2059238,10.7343867 L55.6539238,10.7343867 L57.0874178,8.29038671 L50.6394178,8.29038671 L55.1076489,0.672386709 L52.5596489,0.672386709 L48.0914178,8.29038671 L41.2794178,8.29038671 L39.8459238,10.7343867 L46.6579238,10.7343867 L38.4382085,24.7483867 L40.9862085,24.7483867 Z M40.2149133,6.47038671 L42.911409,4.75438671 C42.5039058,3.45438671 41.8211526,2.18038671 40.8783995,0.906386709 L38.1711537,2.59638671 C39.224157,3.94838671 39.8916602,5.24838671 40.2149133,6.47038671 Z M27.8502065,23.9163867 C30.4649535,22.6943867 33.08245,21.2903867 35.6614461,19.7303867 L36.4906899,17.2083867 C35.077442,18.0663867 33.7619439,18.8463867 32.5334456,19.5223867 L39.0299182,8.44638671 L33.0239182,8.44638671 L31.636174,10.8123867 L35.276174,10.8123867 L29.6641977,20.3803867 C29.359199,20.9003867 28.8659501,21.3423867 28.210451,21.7063867 L27.8502065,23.9163867 Z M62.2304149,7.14638671 C63.4724129,6.31438671 64.6974106,5.37838671 65.8749081,4.39038671 L67.6429081,4.39038671 C67.7449097,5.01438671 67.7796613,5.66438671 67.7471629,6.34038671 L70.2021611,5.61238671 C70.1969102,5.22238671 70.1809091,4.80638671 70.1129081,4.39038671 L72.9989081,4.39038671 L74.218903,2.31038671 L68.186903,2.31038671 C68.5869019,1.89438671 69.0129009,1.47838671 69.4693997,1.01038671 L67.4343984,0.490386709 C65.6299032,2.41438671 63.4749076,4.18238671 60.9389117,5.84638671 L62.2304149,7.14638671 Z M67.2982085,24.7483867 L69.7381982,20.5883867 L75.4321982,20.5883867 L76.6979429,18.4303867 L71.0039429,18.4303867 L71.7969395,17.0783867 L74.8389395,17.0783867 L81.0304134,6.52238671 L73.7764134,6.52238671 C74.7449117,5.84638671 75.7331598,5.09238671 76.6739078,4.28638671 L78.3899078,4.28638671 C78.4614095,4.96238671 78.5069112,5.63838671 78.469913,6.36638671 L80.8989112,5.63838671 C80.9089102,5.22238671 80.897409,4.75438671 80.8079078,4.28638671 L84.6819078,4.28638671 L85.9019027,2.20638671 L78.9079027,2.20638671 C79.2514018,1.84238671 79.6101508,1.45238671 79.9948999,1.06238671 L77.9338986,0.542386709 C76.3966528,2.23238671 74.5564067,3.81838671 72.4131604,5.30038671 L73.5944134,6.52238671 L63.4544134,6.52238671 L57.2629395,17.0783867 L60.5129395,17.0783867 L60.0401915,17.8843867 L59.6679429,18.4303867 L53.5059429,18.4303867 L52.2401982,20.5883867 L57.6481982,20.5883867 C57.5351985,20.6923867 57.3961988,20.7963867 57.2159491,20.9263867 C56.1129509,21.6543867 54.5249524,22.2783867 52.4412036,22.7723867 L52.5714585,24.7223867 C54.9349571,24.1503867 56.8484551,23.3703867 58.3684526,22.3303867 C59.0742013,21.8363867 59.7476999,21.2643867 60.4041982,20.5883867 L67.3201982,20.5883867 L64.8802085,24.7483867 L67.2982085,24.7483867 Z M76.8434209,9.53838671 L64.1034209,9.53838671 L64.774418,8.39438671 L77.514418,8.39438671 L76.8434209,9.53838671 Z M75.2269277,12.2943867 L62.4869277,12.2943867 L63.112175,11.2283867 L75.852175,11.2283867 L75.2269277,12.2943867 Z M73.5189349,15.2063867 L60.7789349,15.2063867 L61.4804319,14.0103867 L74.2204319,14.0103867 L73.5189349,15.2063867 Z M68.5859429,18.4303867 L62.1379429,18.4303867 L62.4841915,17.8843867 L62.9569395,17.0783867 L69.3789395,17.0783867 L68.5859429,18.4303867 Z" id="云计算"></path>
        </g>
    </g>
</svg>