<?xml version="1.0" encoding="UTF-8"?>
<svg width="60px" height="60px" viewBox="0 0 60 60" version="1.1" xmlns="http://www.w3.org/2000/svg" xmlns:xlink="http://www.w3.org/1999/xlink">
    <title>隐私保护</title>
    <g id="页面-1" stroke="none" stroke-width="1" fill="none" fill-rule="evenodd">
        <g id="SDSF-产品中心（可信跨链服务）" transform="translate(-990.000000, -870.000000)" fill-rule="nonzero">
            <g id="编组-10" transform="translate(382.000000, 625.000000)">
                <g id="隐私保护" transform="translate(608.000000, 245.000000)">
                    <rect id="矩形" fill="#000000" opacity="0" x="0" y="0" width="60" height="60"></rect>
                    <g id="警示灯" transform="translate(3.000000, 4.000000)">
                        <rect id="矩形" fill="#000000" opacity="0" x="0" y="0" width="53" height="53"></rect>
                        <path d="M11.0416666,28.7083334 C11.0416666,20.1709167 17.9625833,13.25 26.5,13.25 C35.0374167,13.25 41.9583334,20.1709166 41.9583334,28.7083334 L41.9583334,45.2708334 C41.9583334,46.4904622 40.9696288,47.4791666 39.75,47.4791666 L13.25,47.4791666 C12.0303712,47.4791666 11.0416666,46.4904622 11.0416666,45.2708334 L11.0416666,28.7083334 Z M26.5,17.6666666 C20.4016875,17.6666666 15.4583334,22.6100208 15.4583334,28.7083334 L15.4583334,43.0625 L37.5416666,43.0625 L37.5416666,28.7083334 C37.5416666,22.6100209 32.5983125,17.6666666 26.5,17.6666666 Z" id="形状" fill="#3C3C3C"></path>
                        <polygon id="路径" fill="#CF0010" points="29.5298334 24.638375 27.0874166 28.7083334 33.7124166 28.7083334 27.2574584 39.4673334 23.4701666 37.1949584 25.9125834 33.125 19.2875834 33.125 25.7425416 22.366 29.5298334 24.638375"></polygon>
                        <path d="M5.52083335,43.0625 L47.4791666,43.0625 L47.4791666,47.4791666 L5.52083335,47.4791666 L5.52083335,43.0625 Z M28.7083334,3.3125 L28.7083334,9.9375 L24.2916666,9.9375 L24.2916666,3.3125 L28.7083334,3.3125 Z M45.0809166,12.1458334 L40.3970416,16.8308125 L37.2733541,13.707125 L41.9583334,9.02325 L45.0809166,12.1458334 Z M11.0416666,9.02325 L15.7266459,13.707125 L12.6029584,16.8308125 L7.91908335,12.1458334 L11.0416666,9.02325 Z" id="形状" fill="#3C3C3C"></path>
                    </g>
                </g>
            </g>
        </g>
    </g>
</svg>