<svg xmlns="http://www.w3.org/2000/svg" xmlns:xlink="http://www.w3.org/1999/xlink" width="760" height="476" viewBox="0 0 760 476"><defs><radialGradient id="a" cx="-568.01" cy="770.28" r="1.03" gradientTransform="matrix(48.19, -6.49, -6.49, -48.19, 33027.65, 33559.8)" gradientUnits="userSpaceOnUse"><stop offset="0" stop-color="#7787c2"/><stop offset="1" stop-color="#7787c3" stop-opacity="0"/></radialGradient><linearGradient id="b" x1="-570.61" y1="771.14" x2="-569.99" y2="770.86" gradientTransform="matrix(70.61, 0, 0, -40.13, 40917.99, 31033.5)" gradientUnits="userSpaceOnUse"><stop offset="0" stop-color="#fefeff"/><stop offset="1" stop-color="#f1f6ff"/></linearGradient><mask id="c" x="613.22" y="70.23" width="70.61" height="40.13" maskUnits="userSpaceOnUse"><polygon points="674.3 75.6 683.8 95.7 658.1 110.4 622.8 105 613.2 84.9 639 70.2 674.3 75.6" style="fill:#fff"/></mask><linearGradient id="d" x1="-559.91" y1="763.6" x2="-559.14" y2="763.18" gradientTransform="matrix(30.48, 0, 0, -19.88, 17700.29, 15262.16)" gradientUnits="userSpaceOnUse"><stop offset="0" stop-color="#828bb3"/><stop offset="1" stop-color="#555a6f"/></linearGradient><linearGradient id="e" x1="-555.54" y1="768.31" x2="-556.31" y2="768.43" gradientTransform="matrix(25.66, 0, 0, -29.71, 14937.19, 22942.18)" gradientUnits="userSpaceOnUse"><stop offset="0" stop-color="#a5b4cc"/><stop offset="1" stop-color="#c5cfe1"/></linearGradient><radialGradient id="f" cx="-555.78" cy="763.61" r="1.82" gradientTransform="matrix(23.83, -1.81, -1.81, -23.83, 15221.66, 17571.57)" xlink:href="#a"/><linearGradient id="g" x1="-578.3" y1="777.76" x2="-576.93" y2="777.5" gradientTransform="matrix(567.59, 0, 0, -335.62, 328243.67, 261193.05)" gradientUnits="userSpaceOnUse"><stop offset="0" stop-color="#bec5df"/><stop offset="1" stop-color="#b5bfe2"/></linearGradient><radialGradient id="h" cx="-568.01" cy="770.28" r="1.03" gradientTransform="matrix(48.19, -6.49, -6.49, -48.19, 32889.84, 33640.63)" xlink:href="#a"/><linearGradient id="i" x1="-570.61" y1="771.14" x2="-569.99" y2="770.86" gradientTransform="matrix(70.61, 0, 0, -40.13, 40780.18, 31114.33)" xlink:href="#b"/><mask id="j" x="475.41" y="151.06" width="70.61" height="40.13" maskUnits="userSpaceOnUse"><polygon points="536.5 156.4 546 176.5 520.3 191.2 485 185.8 475.4 165.8 501.1 151.1 536.5 156.4" style="fill:#fff"/></mask><linearGradient id="k" x1="-564.31" y1="766.16" x2="-563.54" y2="765.8" gradientTransform="matrix(39.75, 0, 0, -23.85, 22925.12, 18439.73)" xlink:href="#d"/><linearGradient id="l" x1="-555.54" y1="768.31" x2="-556.31" y2="768.43" gradientTransform="matrix(25.66, 0, 0, -29.71, 14799.38, 23023.01)" xlink:href="#e"/><radialGradient id="m" cx="-567.99" cy="770.31" r="1.06" gradientTransform="matrix(48.21, -6.32, -6.32, -48.21, 32555.28, 33734.34)" xlink:href="#a"/><linearGradient id="n" x1="-554.34" y1="768.3" x2="-555.03" y2="768.42" gradientTransform="matrix(24.33, 0, 0, -29.7, 13811.19, 22998.42)" xlink:href="#e"/><linearGradient id="o" x1="-570.8" y1="771.46" x2="-570.18" y2="771.17" gradientTransform="matrix(72.25, 0, 0, -41.9, 41513.28, 32472.23)" xlink:href="#b"/><linearGradient id="p" x1="-559.93" y1="761.19" x2="-559.15" y2="760.89" gradientTransform="matrix(30.48, 0, 0, -17.23, 17345.17, 13261.28)" gradientUnits="userSpaceOnUse"><stop offset="0" stop-color="#8892bd"/><stop offset="1" stop-color="#555a6f"/></linearGradient><linearGradient id="q" x1="-559.92" y1="761.18" x2="-559.15" y2="760.87" xlink:href="#p"/><radialGradient id="r" cx="-567.99" cy="770.31" r="1.06" gradientTransform="matrix(48.21, -6.32, -6.32, -48.21, 32677.19, 33804.57)" xlink:href="#a"/><linearGradient id="s" x1="-554.34" y1="768.3" x2="-555.03" y2="768.42" gradientTransform="matrix(24.33, 0, 0, -29.7, 13933.1, 23068.65)" xlink:href="#e"/><linearGradient id="t" x1="-570.8" y1="771.46" x2="-570.18" y2="771.17" gradientTransform="matrix(72.25, 0, 0, -41.9, 41635.19, 32542.46)" xlink:href="#b"/><linearGradient id="u" x1="-559.93" y1="761.19" x2="-559.15" y2="760.89" gradientTransform="matrix(30.48, 0, 0, -17.23, 17467.08, 13331.51)" xlink:href="#p"/><linearGradient id="v" x1="-559.92" y1="761.18" x2="-559.15" y2="760.87" gradientTransform="matrix(30.48, 0, 0, -17.23, 17467.08, 13331.51)" xlink:href="#p"/><radialGradient id="w" cx="-567.99" cy="770.31" r="1.06" gradientTransform="matrix(48.21, -6.32, -6.32, -48.21, 32803.07, 33874.8)" xlink:href="#a"/><linearGradient id="x" x1="-554.34" y1="768.3" x2="-555.03" y2="768.42" gradientTransform="matrix(24.33, 0, 0, -29.7, 14058.98, 23138.88)" xlink:href="#e"/><linearGradient id="y" x1="-570.8" y1="771.46" x2="-570.18" y2="771.17" gradientTransform="matrix(72.25, 0, 0, -41.9, 41761.08, 32612.69)" xlink:href="#b"/><linearGradient id="z" x1="-559.93" y1="761.19" x2="-559.15" y2="760.89" gradientTransform="matrix(30.48, 0, 0, -17.23, 17592.96, 13401.74)" xlink:href="#p"/><linearGradient id="aa" x1="-559.92" y1="761.18" x2="-559.15" y2="760.87" gradientTransform="matrix(30.48, 0, 0, -17.23, 17592.96, 13401.74)" xlink:href="#p"/><linearGradient id="ab" x1="-578.06" y1="777.55" x2="-576.69" y2="777.29" gradientTransform="matrix(461.04, 0, 0, -272.46, 266403.51, 212143.03)" xlink:href="#g"/><radialGradient id="ac" cx="-567.99" cy="770.31" r="1.06" gradientTransform="matrix(48.21, -6.32, -6.32, -48.21, 32369.77, 33804.57)" xlink:href="#a"/><linearGradient id="ad" x1="-554.34" y1="768.3" x2="-555.03" y2="768.42" gradientTransform="matrix(24.33, 0, 0, -29.7, 13625.68, 23068.65)" xlink:href="#e"/><linearGradient id="ae" x1="-570.8" y1="771.46" x2="-570.18" y2="771.17" gradientTransform="matrix(72.25, 0, 0, -41.9, 41327.77, 32542.46)" xlink:href="#b"/><linearGradient id="af" x1="-559.93" y1="761.19" x2="-559.15" y2="760.89" gradientTransform="matrix(30.48, 0, 0, -17.23, 17159.66, 13331.51)" xlink:href="#p"/><linearGradient id="ag" x1="-559.92" y1="761.18" x2="-559.15" y2="760.87" gradientTransform="matrix(30.48, 0, 0, -17.23, 17159.66, 13331.51)" xlink:href="#p"/><radialGradient id="ah" cx="-567.99" cy="770.31" r="1.06" gradientTransform="matrix(48.21, -6.32, -6.32, -48.21, 32438.67, 33845.65)" xlink:href="#a"/><linearGradient id="ai" x1="-554.34" y1="768.3" x2="-555.03" y2="768.42" gradientTransform="matrix(24.33, 0, 0, -29.7, 13694.58, 23109.72)" xlink:href="#e"/><linearGradient id="aj" x1="-570.8" y1="771.46" x2="-570.18" y2="771.17" gradientTransform="matrix(72.25, 0, 0, -41.9, 41396.68, 32583.54)" xlink:href="#b"/><linearGradient id="ak" x1="-559.93" y1="761.19" x2="-559.15" y2="760.89" gradientTransform="matrix(30.48, 0, 0, -17.23, 17228.56, 13372.59)" xlink:href="#p"/><linearGradient id="al" x1="-559.92" y1="761.18" x2="-559.15" y2="760.87" gradientTransform="matrix(30.48, 0, 0, -17.23, 17228.56, 13372.59)" xlink:href="#p"/><radialGradient id="am" cx="-567.99" cy="770.31" r="1.06" gradientTransform="matrix(48.21, -6.32, -6.32, -48.21, 32510.23, 33885.4)" xlink:href="#a"/><linearGradient id="an" x1="-554.34" y1="768.3" x2="-555.03" y2="768.42" gradientTransform="matrix(24.33, 0, 0, -29.7, 13766.13, 23149.48)" xlink:href="#e"/><linearGradient id="ao" x1="-570.8" y1="771.46" x2="-570.18" y2="771.17" gradientTransform="matrix(72.25, 0, 0, -41.9, 41468.23, 32623.29)" xlink:href="#b"/><linearGradient id="ap" x1="-559.93" y1="761.19" x2="-559.15" y2="760.89" gradientTransform="matrix(30.48, 0, 0, -17.23, 17300.12, 13412.34)" xlink:href="#p"/><linearGradient id="aq" x1="-559.92" y1="761.18" x2="-559.15" y2="760.87" gradientTransform="matrix(30.48, 0, 0, -17.23, 17300.12, 13412.34)" xlink:href="#p"/><radialGradient id="ar" cx="-567.99" cy="770.31" r="1.06" gradientTransform="matrix(48.21, -6.32, -6.32, -48.21, 32581.78, 33926.48)" xlink:href="#a"/><linearGradient id="as" x1="-554.34" y1="768.3" x2="-555.03" y2="768.42" gradientTransform="matrix(24.33, 0, 0, -29.7, 13837.69, 23190.55)" xlink:href="#e"/><linearGradient id="at" x1="-570.8" y1="771.46" x2="-570.18" y2="771.17" gradientTransform="matrix(72.25, 0, 0, -41.9, 41539.79, 32664.37)" xlink:href="#b"/><linearGradient id="au" x1="-559.93" y1="761.19" x2="-559.15" y2="760.89" gradientTransform="matrix(30.48, 0, 0, -17.23, 17371.67, 13453.42)" xlink:href="#p"/><linearGradient id="av" x1="-559.92" y1="761.18" x2="-559.15" y2="760.87" gradientTransform="matrix(30.48, 0, 0, -17.23, 17371.67, 13453.42)" xlink:href="#p"/><radialGradient id="aw" cx="-567.99" cy="770.31" r="1.06" gradientTransform="matrix(48.21, -6.32, -6.32, -48.21, 32697.06, 33992.74)" xlink:href="#a"/><linearGradient id="ax" x1="-554.34" y1="768.3" x2="-555.03" y2="768.42" gradientTransform="matrix(24.33, 0, 0, -29.7, 13952.97, 23256.81)" xlink:href="#e"/><linearGradient id="ay" x1="-570.8" y1="771.46" x2="-570.18" y2="771.17" gradientTransform="matrix(72.25, 0, 0, -41.9, 41655.07, 32730.62)" xlink:href="#b"/><linearGradient id="az" x1="-559.93" y1="761.19" x2="-559.15" y2="760.89" gradientTransform="matrix(30.48, 0, 0, -17.23, 17486.95, 13519.67)" xlink:href="#p"/><linearGradient id="ba" x1="-559.92" y1="761.18" x2="-559.15" y2="760.87" gradientTransform="matrix(30.48, 0, 0, -17.23, 17486.95, 13519.67)" xlink:href="#p"/><radialGradient id="bb" cx="-567.88" cy="770.28" r="1.08" gradientTransform="matrix(47.83, -6.16, -6.16, -47.83, 32365.18, 33816.65)" xlink:href="#a"/><radialGradient id="bc" cx="-568.39" cy="770.54" r="1.03" gradientTransform="matrix(49.9, -6.74, -6.74, -49.9, 33680.79, 35050.07)" xlink:href="#a"/><linearGradient id="bd" x1="-424.65" y1="767.48" x2="-424.63" y2="768.52" gradientTransform="matrix(3.76, 0, 0, -28.95, 1741.01, 22633.41)" gradientUnits="userSpaceOnUse"><stop offset="0" stop-color="#ecf2fa"/><stop offset="1" stop-color="#d5e0f3"/></linearGradient><linearGradient id="be" x1="-568.24" y1="772.26" x2="-569.24" y2="772.27" gradientTransform="matrix(59.31, 0, 0, -48.29, 33848.72, 37696.8)" gradientUnits="userSpaceOnUse"><stop offset="0" stop-color="#cbd3e0"/><stop offset="0.24" stop-color="#90a1bd"/><stop offset="0.47" stop-color="#dce0e8"/><stop offset="0.69" stop-color="#cad1dc"/><stop offset="1" stop-color="#ebeef2"/></linearGradient><linearGradient id="bf" x1="-569.03" y1="770.22" x2="-568.41" y2="769.92" gradientTransform="matrix(59.43, 0, 0, -35.38, 33916.41, 27628.58)" xlink:href="#b"/><linearGradient id="bg" x1="-553.93" y1="760.44" x2="-553.49" y2="760.19" gradientTransform="matrix(23.53, 0, 0, -16.59, 13143.39, 13000.36)" xlink:href="#p"/></defs><title>数据湖分析</title><polygon points="657.8 127 709.1 127 709.1 78.3 703.1 78.3 657.8 78.3 657.8 127" style="opacity:0.20401786267757416;isolation:isolate;fill:url(#a)"/><polygon points="622.7 105.5 622.6 120.2 613.2 99.8 613.3 85.1 622.7 105.5" style="fill:#f7faff"/><polygon points="674.3 75.6 683.8 95.7 658.1 110.4 622.8 105 613.2 84.9 639 70.2 674.3 75.6" style="fill:url(#b)"/><g style="mask:url(#c)"><path d="M654.9,85.9a3.8,3.8,0,0,1,2.2,3.4q0,2-2.4,3.5a10.7,10.7,0,0,1-5.2,1.5l-.6,2.6-2.4-1.4.3-1.3a9.2,9.2,0,0,1-3.2-1.2q-2.4-1.4-2.3-3.4a4.3,4.3,0,0,1,2.4-3.4,10.1,10.1,0,0,1,3.6-1.3,12.8,12.8,0,0,1,4.1,0A9.6,9.6,0,0,1,654.9,85.9Zm-9.4-5.7a2.6,2.6,0,0,1,1,1.1,2.7,2.7,0,0,1,.1,1.7h-2.7c.2-.7.1-1.3-.4-1.6l-.8-.2H642a.7.7,0,0,0-.3.4,6.7,6.7,0,0,0,0,1.7,12.4,12.4,0,0,1,.1,1.5,2.4,2.4,0,0,1-.4,1.2,3.1,3.1,0,0,1-1,.9,6,6,0,0,1-6,0,2.6,2.6,0,0,1-1.3-1.4,2.4,2.4,0,0,1,.4-1.9l2.6.3q-.7,1.3.2,1.8a2.2,2.2,0,0,0,1.1.3,1.8,1.8,0,0,0,1-.2,1,1,0,0,0,.5-.6,3.9,3.9,0,0,0,0-1.3,6,6,0,0,1,.1-2.6,2.4,2.4,0,0,1,1.1-1.2,5.1,5.1,0,0,1,2.7-.7A5.1,5.1,0,0,1,645.5,80.2Zm18.1,10.9-9,5.5,2.6,1.6-2,1.2-4.4-2.7,11-6.7Zm-10.7-4a6.5,6.5,0,0,0-3.5-.9,7.1,7.1,0,0,0-3.7,1q-1.8,1.1-1.6,2.5a2.7,2.7,0,0,0,1.4,1.9,5.5,5.5,0,0,0,1.6.6l.6-2.7,2.4,1.5-.3,1.3a7,7,0,0,0,2.8-.9,2.8,2.8,0,0,0,1.6-2.2A2.4,2.4,0,0,0,652.9,87.1Z" style="fill:url(#d)"/></g><polygon points="683.4 95.9 683.4 110.6 657.8 125.6 657.9 110.9 683.4 95.9" style="fill:url(#e)"/><polygon points="681.6 108 681.6 110.5 679.3 111.7 679.3 109.3 681.6 108" style="fill:#8494b2"/><polygon points="677 110.5 677 112.9 674.7 114.2 674.7 111.7 677 110.5" style="fill:#8494b2"/><polygon points="673.6 112.9 673.6 115.4 671.3 116.6 671.3 114.2 673.6 112.9" style="fill:#8494b2;opacity:0.3698102533817291;isolation:isolate"/><polygon points="657.8 110.8 657.7 125.6 622.7 120.1 622.8 105.3 657.8 110.8" style="fill:#d1dae8"/><polygon points="653.2 120.3 653.2 122.4 651 122.2 651 120 653.2 120.3" style="fill:#a0aabe"/><polygon points="648.7 119.5 648.7 122.7 646.4 122.2 646.4 119.1 648.7 119.5" style="fill:#a0aabe;opacity:0.43186384439468384;isolation:isolate"/><polygon points="645.2 119.2 645.2 122.4 642.9 122 642.9 118.9 645.2 119.2" style="fill:#a0aabe"/><polyline points="683.4 95.9 657.8 110.7 622.7 105.3 613.2 85.1" style="fill:none;stroke:#7d849e;opacity:0.40172991156578064;isolation:isolate"/><polyline points="683.4 104 657.8 118.9 622.7 113.4 613.2 93.2" style="fill:none;stroke:#7d849e;opacity:0.40172991156578064;isolation:isolate"/><path d="M658.6,111.3v14.3m-36.6-6V105.3" style="fill:none;stroke:#7d849e;opacity:0.40172991156578064;isolation:isolate"/><path d="M612.7,99.8v-15l26-15.1,35.6,5.5,9.6,20.6V111l-26,15.1-35.6-5.5-9.6-20.5Z" style="fill:none;stroke:#555a6f;stroke-linecap:round;stroke-linejoin:round"/><polygon points="598.3 382 643.1 382 643.1 358.5 639.4 358.5 639.4 358.1 598.3 382" style="opacity:0.10401785373687744;isolation:isolate;fill:url(#f)"/><g style="opacity:0.4000000059604645"><polygon points="186.2 156.9 576.3 382.7 598.9 382.7 753.8 290 753.8 273.9 362.1 47.1 342.3 47.1 186.2 141.5 186.2 156.9" style="fill:url(#g)"/></g><polygon points="520 207.8 571.3 207.8 571.3 159.2 565.3 159.2 520 159.2 520 207.8" style="opacity:0.20401786267757416;isolation:isolate;fill:url(#h)"/><polygon points="484.9 186.3 484.8 201 475.4 180.6 475.5 165.9 484.9 186.3" style="fill:#f7faff"/><polygon points="536.5 156.4 546 176.5 520.3 191.2 485 185.8 475.4 165.8 501.1 151.1 536.5 156.4" style="fill:url(#i)"/><g style="mask:url(#j)"><path d="M519.8,179.3l-1.6-1,3.4-2.1c.5-.3.6-.8.1-1.2l-8.6-5.3,1.9-1.1,2.5,1.6a2,2,0,0,0,1.9,0l7.2-4.3c.5-.3.6-.8.1-1.2l-6.8-4.2a2,2,0,0,0-1.9,0l-7.2,4.3c-.5.3-.6.8-.1,1.2l2.4,1.5-1.9,1.1-8.5-5.2a2,2,0,0,0-1.9,0l-3.4,2.1-1.9-1.2a2,2,0,0,0-1.9,0l-5.8,3.4c-.5.3-.6.8-.1,1.2l5.5,3.4a2,2,0,0,0,1.9,0l5.8-3.4c.5-.3.6-.8.1-1.2l-1.7-1,2.5-1.5,7.5,4.6-2.5,1.5-1.8-1.1a2,2,0,0,0-1.9,0l-5.8,3.4c-.5.3-.6.8-.1,1.2l5.5,3.4a2,2,0,0,0,1.9,0l5.8-3.4c.5-.3.6-.8.1-1.2l-1.8-1.1,2.5-1.5,7.6,4.7-2.5,1.5-2-1.2a2,2,0,0,0-1.9,0l-5.8,3.4c-.5.3-.6.8-.1,1.2L512,184a2,2,0,0,0,1.9,0l5.8-3.4C520.3,180.2,520.3,179.6,519.8,179.3Zm-1-17,5,3.1-5.3,3.1-5-3.1Zm-24.6,8.2-3.6-2.2,3.8-2.3,3.6,2.2Zm9.5,5.9-3.6-2.2L504,172l3.6,2.2Zm5.7,3.5,3.8-2.3,3.6,2.2-3.8,2.3Z" style="fill:url(#k)"/></g><polygon points="545.6 176.7 545.6 191.5 520 206.4 520.1 191.7 545.6 176.7" style="fill:url(#l)"/><polygon points="543.8 188.9 543.8 191.3 541.5 192.6 541.5 190.1 543.8 188.9" style="fill:#8494b2"/><polygon points="539.2 191.3 539.2 193.7 536.9 195 536.9 192.6 539.2 191.3" style="fill:#8494b2"/><polygon points="535.8 193.8 535.8 196.2 533.5 197.4 533.5 195 535.8 193.8" style="fill:#8494b2;opacity:0.3698102533817291;isolation:isolate"/><polygon points="520 191.7 519.9 206.4 484.9 200.9 484.9 186.2 520 191.7" style="fill:#d1dae8"/><polygon points="515.4 201.1 515.4 203.2 513.1 203 513.2 200.9 515.4 201.1" style="fill:#a0aabe"/><polygon points="510.9 200.4 510.8 203.5 508.6 203 508.6 199.9 510.9 200.4" style="fill:#a0aabe;opacity:0.43186384439468384;isolation:isolate"/><polygon points="507.4 200.1 507.4 203.2 505.1 202.8 505.1 199.7 507.4 200.1" style="fill:#a0aabe"/><polyline points="545.6 176.8 520 191.6 484.9 186.2 475.4 165.9" style="fill:none;stroke:#7d849e;opacity:0.40172991156578064;isolation:isolate"/><polyline points="545.6 184.9 520 199.7 484.9 194.3 475.4 174" style="fill:none;stroke:#7d849e;opacity:0.40172991156578064;isolation:isolate"/><path d="M520.8,192.1v14.3m-36.6-6V186.2" style="fill:none;stroke:#7d849e;opacity:0.40172991156578064;isolation:isolate"/><path d="M474.9,180.7v-15l26-15.1,35.6,5.5,9.6,20.6v15.2l-26,15.1-35.6-5.5L475,180.9Z" style="fill:none;stroke:#555a6f;stroke-linecap:round;stroke-linejoin:round"/><polygon points="300 189.9 352.7 189.9 352.7 141.3 346.5 141.3 300 141.3 300 189.9" style="opacity:0.20401786267757416;isolation:isolate;fill:url(#m)"/><polygon points="305.7 174.2 329.9 160.1 329.8 175.7 305.6 189.8 305.7 174.2" style="fill:url(#n)"/><polygon points="296 174 305.6 174 305.6 189.9 295.9 189.9 296 174" style="fill:#d1dae8"/><polygon points="296 180.5 295.9 189.8 257.6 167.6 257.7 152.1 296 174.2 296 180.5" style="fill:#e3ebf9"/><polygon points="329.9 154.5 329.9 160.1 305.7 174.2 296.1 174.2 257.7 152.1 257.7 146.5 281.9 132.3 291.5 132.3 329.9 154.5" style="fill:url(#o)"/><path d="M303.6,145.9l-15.3-2.8L278,148.9l4.8,8.6,15.2,2.8,10.4-5.8Zm2,7.4-11.5-2.1-3.6-6.5,11.5,2.1ZM292,151.5l-7.9,4.4-3.7-6.5,8-4.5Zm-6.3,5.4,7.9-4.4,11.6,2.1-7.9,4.5Z" style="stroke-width:0.30000001192092896px;fill:url(#p);stroke:url(#q)"/><polygon points="329.7 159.8 330.1 160.4 305.9 174.6 305.7 174.6 296.1 174.6 295.9 174.6 256.9 152 257.3 151.3 296.2 173.9 305.6 173.9 329.7 159.8" style="fill:#7d849e;opacity:0.4000000059604645;isolation:isolate"/><path d="M305.6,182.2h0Zm0,0,24.2-14.1.4.7-24.3,14.1h-10l-38.9-22.6.4-.7,38.9,22.5Zm-9.4,0h0Z" style="fill:#7d849e;opacity:0.4000000059604645;isolation:isolate"/><path d="M257.6,167.7l38.3,22.1h9.7l24.2-14.1V154.5l-38.3-22.2h-9.5l-24.3,14.1Zm-1.5.9V145.5l25.5-14.7h10.4l39.4,22.8v23L306,191.4H295.5Z" style="fill:#555a6f"/><polygon points="421.9 260.1 474.6 260.1 474.6 211.5 468.5 211.5 421.9 211.5 421.9 260.1" style="opacity:0.20401786267757416;isolation:isolate;fill:url(#r)"/><polygon points="427.6 244.5 451.8 230.3 451.7 245.9 427.5 260 427.6 244.5" style="fill:url(#s)"/><polygon points="418 244.2 427.5 244.2 427.5 260.1 417.8 260.1 418 244.2" style="fill:#d1dae8"/><polygon points="417.9 250.7 417.9 260.1 379.5 237.9 379.6 222.3 418 244.5 417.9 250.7" style="fill:#e3ebf9"/><polygon points="451.8 224.8 451.8 230.3 427.6 244.5 418 244.5 379.6 222.3 379.6 216.7 403.8 202.6 413.4 202.6 451.8 224.8" style="fill:url(#t)"/><path d="M425.5,216.1l-15.3-2.8-10.4,5.8,4.8,8.6,15.2,2.8,10.4-5.8Zm2,7.4L416,221.5l-3.6-6.5,11.5,2.1Zm-13.6-1.8-7.9,4.4-3.7-6.5,8-4.5Zm-6.3,5.4,7.9-4.4,11.6,2.1-7.9,4.5Z" style="stroke-width:0.30000001192092896px;fill:url(#u);stroke:url(#v)"/><polygon points="451.6 230 452 230.7 427.8 244.8 427.6 244.9 418 244.9 417.8 244.8 378.8 222.2 379.2 221.6 418.1 244.1 427.5 244.1 451.6 230" style="fill:#7d849e;opacity:0.4000000059604645;isolation:isolate"/><path d="M427.5,252.4h0Zm0,0,24.2-14.1.4.7-24.3,14.1h-10l-38.9-22.6.4-.7,38.9,22.5Zm-9.4,0h0Z" style="fill:#7d849e;opacity:0.4000000059604645;isolation:isolate"/><path d="M379.5,238l38.3,22.1h9.7L451.7,246V224.7l-38.3-22.2h-9.5l-24.3,14.1Zm-1.5.9V215.8L403.4,201h10.4l39.4,22.8v23l-25.3,14.8H417.4Z" style="fill:#555a6f"/><polygon points="547.8 330.4 600.5 330.4 600.5 281.8 594.3 281.8 547.8 281.8 547.8 330.4" style="opacity:0.20401786267757416;isolation:isolate;fill:url(#w)"/><polygon points="553.5 314.7 577.7 300.6 577.6 316.2 553.4 330.3 553.5 314.7" style="fill:url(#x)"/><polygon points="543.8 314.4 553.4 314.4 553.4 330.3 543.7 330.3 543.8 314.4" style="fill:#d1dae8"/><polygon points="543.8 320.9 543.7 330.3 505.4 308.1 505.5 292.5 543.8 314.7 543.8 320.9" style="fill:#e3ebf9"/><polygon points="577.7 295 577.7 300.6 553.5 314.7 543.8 314.7 505.5 292.5 505.5 286.9 529.7 272.8 539.3 272.8 577.7 295" style="fill:url(#y)"/><path d="M551.4,286.3l-15.3-2.8-10.4,5.8,4.8,8.6,15.2,2.8,10.4-5.8Zm2,7.4-11.5-2.1-3.6-6.5,11.5,2.1Zm-13.6-1.8-7.9,4.4-3.7-6.5,8-4.5Zm-6.3,5.4,7.9-4.4,11.6,2.1-7.9,4.5Z" style="stroke-width:0.30000001192092896px;fill:url(#z);stroke:url(#aa)"/><polygon points="577.5 300.2 577.9 300.9 553.6 315 553.5 315.1 543.8 315.1 543.7 315 504.7 292.4 505.1 291.8 543.9 314.3 553.4 314.3 577.5 300.2" style="fill:#7d849e;opacity:0.4000000059604645;isolation:isolate"/><path d="M553.3,322.7h0Zm0,0,24.2-14.1.4.7-24.3,14.1h-10l-38.9-22.6.4-.7,38.9,22.5Zm-9.4,0h0Z" style="fill:#7d849e;opacity:0.4000000059604645;isolation:isolate"/><path d="M505.4,308.2l38.3,22.1h9.7l24.2-14.1V294.9l-38.3-22.2h-9.5l-24.3,14.1Zm-1.5.9V286l25.5-14.7h10.4l39.4,22.8v23l-25.3,14.8H543.3Z" style="fill:#555a6f"/><path d="M749.5,258.1l3.2,7.5" style="fill:none;stroke:#d7e0ff;stroke-linecap:round;stroke-linejoin:round;stroke-width:0.699999988079071px;stroke-dasharray:2.799999952316284"/><path d="M186.2,120.4l156-92.6h20.1L752.7,253.6v12.5L598.9,357.4v24.2" style="fill:none;stroke:#d7e0ff;stroke-linecap:round;stroke-linejoin:round;stroke-width:0.699999988079071px;stroke-dasharray:2.799999952316284"/><path d="M599.6,381.6V357.1H577.3" style="fill:none;stroke:#d7e0ff;stroke-linecap:round;stroke-linejoin:round;stroke-width:0.699999988079071px;stroke-dasharray:2.799999952316284"/><path d="M576.2,381.6V357.3l-389-225.2" style="fill:none;stroke:#d7e0ff;stroke-linecap:round;stroke-linejoin:round;stroke-width:0.699999988079071px;stroke-dasharray:2.799999952316284"/><path d="M191.5,112.9v11.2l387,223.3h19.3l151.6-90.1V246.1" style="fill:none;stroke:#d7e0ff;stroke-linecap:round;stroke-linejoin:round;stroke-width:0.699999988079071px;stroke-dasharray:2.799999952316284"/><path d="M190.4,124.7l-3.2,7.5M577.3,357.1l1.1-8.5" style="fill:none;stroke:#d7e0ff;stroke-linecap:round;stroke-linejoin:round;stroke-width:0.699999988079071px;stroke-dasharray:2.799999952316284"/><path d="M598.6,348.5l1.1,8.5m-22.4,0,1.1-8.5" style="fill:none;stroke:#d7e0ff;stroke-linecap:round;stroke-linejoin:round;stroke-width:0.699999988079071px;stroke-dasharray:2.799999952316284"/><path d="M190.4,113.1l152-90h20.1L749.2,246.6l4,6.6v36.9l-154.3,92H576.2L186.7,156.8V119.4Z" style="fill:none;stroke:#999fb6;stroke-linecap:round;stroke-linejoin:round"/><path d="M362.8,22.5l-.2,24L753.8,273.1" style="fill:none;stroke:#d7e0ff;stroke-linecap:round;stroke-linejoin:round;stroke-width:0.699999988079071px;stroke-dasharray:2.799999952316284"/><path d="M187.2,140.7,342.4,46.5V22.5" style="fill:none;stroke:#d7e0ff;stroke-linecap:round;stroke-linejoin:round;stroke-width:0.699999988079071px;stroke-dasharray:2.799999952316284"/><path d="M343.4,46.5h20.2" style="fill:none;stroke:#d7e0ff;stroke-linecap:round;stroke-linejoin:round;stroke-width:0.699999988079071px;stroke-dasharray:2.799999952316284"/><g style="opacity:0.4000000059604645"><polygon points="42.7 246 427.7 468.6 454.6 468.6 503.7 439.2 503.7 420.1 116.8 196.2 93.3 196.2 42.7 227.6 42.7 246" style="fill:url(#ab)"/></g><polygon points="114.5 260.1 167.2 260.1 167.2 211.5 161 211.5 114.5 211.5 114.5 260.1" style="opacity:0.20401786267757416;isolation:isolate;fill:url(#ac)"/><polygon points="120.2 244.5 144.4 230.3 144.3 245.9 120.1 260 120.2 244.5" style="fill:url(#ad)"/><polygon points="110.5 244.2 120.1 244.2 120.1 260.1 110.4 260.1 110.5 244.2" style="fill:#d1dae8"/><polygon points="110.5 250.7 110.4 260.1 72.1 237.9 72.2 222.3 110.5 244.5 110.5 250.7" style="fill:#e3ebf9"/><polygon points="144.4 224.8 144.4 230.3 120.1 244.5 110.5 244.5 72.2 222.3 72.2 216.7 96.4 202.6 106 202.6 144.4 224.8" style="fill:url(#ae)"/><path d="M118.1,216.1l-15.3-2.8-10.4,5.8,4.8,8.6,15.2,2.8,10.4-5.8Zm2,7.4-11.5-2.1L105,215l11.5,2.1Zm-13.6-1.8-7.9,4.4-3.7-6.5,8-4.5Zm-6.3,5.4,7.9-4.4,11.6,2.1-7.9,4.5Z" style="stroke-width:0.30000001192092896px;fill:url(#af);stroke:url(#ag)"/><polygon points="144.2 230 144.6 230.7 120.3 244.8 120.1 244.9 110.5 244.9 110.3 244.8 71.4 222.2 71.8 221.6 110.6 244.1 120 244.1 144.2 230" style="fill:#7d849e;opacity:0.4000000059604645;isolation:isolate"/><path d="M120,252.4h0Zm0,0,24.2-14.1.4.7-24.3,14.1h-10L71.4,230.6l.4-.7,38.9,22.5Zm-9.4,0h0Z" style="fill:#7d849e;opacity:0.4000000059604645;isolation:isolate"/><path d="M72.1,238l38.3,22.1h9.7L144.3,246V224.7L106,202.5H96.4L72.1,216.6Zm-1.5.9V215.8L96,201h10.4l39.4,22.8v23l-25.3,14.8H110Z" style="fill:#555a6f"/><polygon points="183.4 301.2 236.1 301.2 236.1 252.6 229.9 252.6 183.4 252.6 183.4 301.2" style="opacity:0.20401786267757416;isolation:isolate;fill:url(#ah)"/><polygon points="189.1 285.6 213.3 271.4 213.2 287 189 301.1 189.1 285.6" style="fill:url(#ai)"/><polygon points="179.4 285.3 189 285.3 189 301.2 179.3 301.2 179.4 285.3" style="fill:#d1dae8"/><polygon points="179.4 291.8 179.3 301.1 141 279 141.1 263.4 179.4 285.6 179.4 291.8" style="fill:#e3ebf9"/><polygon points="213.3 265.8 213.3 271.4 189.1 285.6 179.4 285.6 141.1 263.4 141.1 257.8 165.3 243.7 174.9 243.7 213.3 265.8" style="fill:url(#aj)"/><path d="M187,257.2l-15.3-2.8-10.4,5.8,4.8,8.6,15.2,2.8,10.4-5.8Zm2,7.4-11.5-2.1-3.6-6.5,11.5,2.1Zm-13.6-1.8-7.9,4.4-3.7-6.5,8-4.5Zm-6.3,5.4,7.9-4.4,11.6,2.1-7.9,4.5Z" style="stroke-width:0.30000001192092896px;fill:url(#ak);stroke:url(#al)"/><polygon points="213.1 271.1 213.5 271.8 189.2 285.9 189.1 285.9 179.4 285.9 179.3 285.9 140.3 263.3 140.7 262.6 179.5 285.2 188.9 285.2 213.1 271.1" style="fill:#7d849e;opacity:0.4000000059604645;isolation:isolate"/><path d="M189,293.5h0Zm0,0,24.2-14.1.4.7-24.3,14.1h-10l-38.9-22.6.4-.7,38.9,22.5Zm-9.4,0h0Z" style="fill:#7d849e;opacity:0.4000000059604645;isolation:isolate"/><path d="M141,279l38.3,22.1H189L213.2,287V265.8l-38.3-22.2h-9.5L141,257.7Zm-1.5.9V256.9l25.5-14.7h10.4l39.4,22.8v23l-25.3,14.8H178.9Z" style="fill:#555a6f"/><polygon points="255 341 307.6 341 307.6 292.4 301.5 292.4 255 292.4 255 341" style="opacity:0.20401786267757416;isolation:isolate;fill:url(#am)"/><polygon points="260.6 325.3 284.9 311.2 284.8 326.8 260.5 340.9 260.6 325.3" style="fill:url(#an)"/><polygon points="251 325 260.6 325 260.5 340.9 250.8 340.9 251 325" style="fill:#d1dae8"/><polygon points="251 331.5 250.9 340.9 212.5 318.7 212.6 303.1 251 325.3 251 331.5" style="fill:#e3ebf9"/><polygon points="284.8 305.6 284.9 311.2 260.6 325.3 251 325.3 212.6 303.1 212.6 297.5 236.9 283.4 246.5 283.4 284.8 305.6" style="fill:url(#ao)"/><path d="M258.6,296.9l-15.3-2.8L232.9,300l4.8,8.6,15.2,2.8,10.4-5.8Zm2,7.4L249,302.3l-3.6-6.5,11.5,2.1ZM247,302.5l-7.9,4.4-3.7-6.5,8-4.5Zm-6.3,5.4,7.9-4.4,11.6,2.1-7.9,4.5Z" style="stroke-width:0.30000001192092896px;fill:url(#ap);stroke:url(#aq)"/><polygon points="284.7 310.8 285.1 311.5 260.8 325.6 260.6 325.7 251 325.7 250.8 325.6 211.9 303.1 212.2 302.4 251.1 324.9 260.5 324.9 284.7 310.8" style="fill:#7d849e;opacity:0.4000000059604645;isolation:isolate"/><path d="M260.5,333.3h0Zm0,0,24.2-14.1.4.7L260.8,334h-10l-38.9-22.6.4-.7,38.9,22.5Zm-9.4,0h0Z" style="fill:#7d849e;opacity:0.4000000059604645;isolation:isolate"/><path d="M212.6,318.8l38.3,22.1h9.7l24.2-14.1V305.5l-38.3-22.2h-9.5l-24.3,14.1Zm-1.5.9V296.6l25.5-14.7h10.4l39.4,22.8v23L261,342.4H250.4Z" style="fill:#555a6f"/><polygon points="326.5 382.1 379.2 382.1 379.2 333.4 373.1 333.4 326.5 333.4 326.5 382.1" style="opacity:0.20401786267757416;isolation:isolate;fill:url(#ar)"/><polygon points="332.2 366.4 356.4 352.3 356.3 367.8 332.1 382 332.2 366.4" style="fill:url(#as)"/><polygon points="322.6 366.1 332.1 366.1 332.1 382 322.4 382 322.6 366.1" style="fill:#d1dae8"/><polygon points="322.5 372.6 322.5 382 284.1 359.8 284.2 344.2 322.6 366.4 322.5 372.6" style="fill:#e3ebf9"/><polygon points="356.4 346.7 356.4 352.3 332.2 366.4 322.6 366.4 284.2 344.2 284.2 338.6 308.4 324.5 318 324.5 356.4 346.7" style="fill:url(#at)"/><path d="M330.1,338l-15.3-2.8-10.4,5.8,4.8,8.6,15.2,2.8,10.4-5.8Zm2,7.4-11.5-2.1-3.6-6.5,11.5,2.1Zm-13.6-1.8-7.9,4.4-3.7-6.5,8-4.5Zm-6.3,5.4,7.9-4.4,11.6,2.1-7.9,4.5Z" style="stroke-width:0.30000001192092896px;fill:url(#au);stroke:url(#av)"/><polygon points="356.2 351.9 356.6 352.6 332.4 366.7 332.2 366.8 322.6 366.8 322.4 366.7 283.4 344.1 283.8 343.5 322.7 366 332.1 366 356.2 351.9" style="fill:#7d849e;opacity:0.4000000059604645;isolation:isolate"/><path d="M332.1,374.3h0Zm0,0,24.2-14.1.4.7-24.3,14.1h-10l-38.9-22.6.4-.7,38.9,22.5Zm-9.4,0h0Z" style="fill:#7d849e;opacity:0.4000000059604645;isolation:isolate"/><path d="M284.1,359.9,322.4,382h9.7l24.2-14.1V346.6L318,324.5h-9.5l-24.3,14.1Zm-1.5.9V337.7L308,322.9h10.4l39.4,22.8v23l-25.3,14.8H322Z" style="fill:#555a6f"/><polygon points="441.8 448.3 494.5 448.3 494.5 399.7 488.3 399.7 441.8 399.7 441.8 448.3" style="opacity:0.20401786267757416;isolation:isolate;fill:url(#aw)"/><polygon points="447.4 432.6 471.7 418.5 471.6 434.1 447.4 448.2 447.4 432.6" style="fill:url(#ax)"/><polygon points="437.8 432.4 447.4 432.4 447.3 448.3 437.7 448.3 437.8 432.4" style="fill:#d1dae8"/><polygon points="437.8 438.9 437.7 448.2 399.4 426 399.5 410.4 437.8 432.6 437.8 438.9" style="fill:#e3ebf9"/><polygon points="471.7 412.9 471.7 418.5 447.4 432.6 437.8 432.6 399.5 410.4 399.5 404.9 423.7 390.7 433.3 390.7 471.7 412.9" style="fill:url(#ay)"/><path d="M445.4,404.3l-15.3-2.8-10.4,5.8,4.8,8.6,15.2,2.8,10.4-5.8Zm2,7.4-11.5-2.1-3.6-6.5,11.5,2.1Zm-13.6-1.8-7.9,4.4-3.7-6.5,8-4.5Zm-6.3,5.4,7.9-4.4,11.6,2.1-7.9,4.5Z" style="stroke-width:0.30000001192092896px;fill:url(#az);stroke:url(#ba)"/><polygon points="471.5 418.2 471.9 418.8 447.6 433 447.4 433 437.8 433 437.6 433 398.7 410.4 399.1 409.7 437.9 432.3 447.3 432.3 471.5 418.2" style="fill:#7d849e;opacity:0.4000000059604645;isolation:isolate"/><path d="M447.3,440.6h0Zm0,0,24.2-14.1.4.7-24.3,14.1h-10l-38.9-22.6.4-.7,38.9,22.5Zm-9.4,0h0Z" style="fill:#7d849e;opacity:0.4000000059604645;isolation:isolate"/><path d="M399.4,426.1l38.3,22.1h9.7l24.2-14.1V412.9l-38.3-22.2h-9.5l-24.3,14.1Zm-1.5.9V403.9l25.5-14.7h10.4L473.1,412v23l-25.3,14.8H437.3Z" style="fill:#555a6f"/><path d="M384,398.8a6.6,6.6,0,0,1,7.5-.5,3.3,3.3,0,0,1,.3,5.6,6.6,6.6,0,0,1-7.5.5A3.3,3.3,0,0,1,384,398.8Zm-6.4-8.5a3.3,3.3,0,0,1,.3,5.6,6.6,6.6,0,0,1-7.5.5,3.3,3.3,0,0,1-.3-5.6A6.6,6.6,0,0,1,377.6,390.3Zm-13.9-7.7a3.3,3.3,0,0,1,.3,5.6,6.6,6.6,0,0,1-7.5.5,3.3,3.3,0,0,1-.3-5.6A6.6,6.6,0,0,1,363.7,382.5Z" style="fill:#999fb6"/><path d="M498.7,401.3l3.8,8.9" style="fill:none;stroke:#d7e0ff;stroke-linecap:round;stroke-linejoin:round;stroke-width:0.699999988079071px;stroke-dasharray:2.799999952316284"/><path d="M42.7,202.6l50.4-29.2h24L502.5,395.9v14.9l-47.9,27.8v28.8" style="fill:none;stroke:#d7e0ff;stroke-linecap:round;stroke-linejoin:round;stroke-width:0.699999988079071px;stroke-dasharray:2.799999952316284"/><path d="M455.5,467.3V438.2H429" style="fill:none;stroke:#d7e0ff;stroke-linecap:round;stroke-linejoin:round;stroke-width:0.699999988079071px;stroke-dasharray:2.799999952316284"/><path d="M427.6,467.3V438.4L44,216.5" style="fill:none;stroke:#d7e0ff;stroke-linecap:round;stroke-linejoin:round;stroke-width:0.699999988079071px;stroke-dasharray:2.799999952316284"/><path d="M49,193.6V207L430.4,426.7h23l45.3-26.3V387.1" style="fill:none;stroke:#d7e0ff;stroke-linecap:round;stroke-linejoin:round;stroke-width:0.699999988079071px;stroke-dasharray:2.799999952316284"/><path d="M47.8,207.6,44,216.5M429,438.2l1.3-10.2" style="fill:none;stroke:#d7e0ff;stroke-linecap:round;stroke-linejoin:round;stroke-width:0.699999988079071px;stroke-dasharray:2.799999952316284"/><path d="M454.3,428l1.3,10.2m-26.6,0,1.3-10.2" style="fill:none;stroke:#d7e0ff;stroke-linecap:round;stroke-linejoin:round;stroke-width:0.699999988079071px;stroke-dasharray:2.799999952316284"/><path d="M47.8,193.9l45.7-26.2h23.9L498.2,387.7l4.7,7.8v43.9l-48.4,28.5h-27L43.5,245.8V201.4Z" style="fill:none;stroke:#999fb6;stroke-linecap:round;stroke-linejoin:round"/><path d="M117.7,167l-.2,28.5L503.7,419.1" style="fill:none;stroke:#d7e0ff;stroke-linecap:round;stroke-linejoin:round;stroke-width:0.699999988079071px;stroke-dasharray:2.799999952316284"/><path d="M44,226.6l49.4-31.2V167" style="fill:none;stroke:#d7e0ff;stroke-linecap:round;stroke-linejoin:round;stroke-width:0.699999988079071px;stroke-dasharray:2.799999952316284"/><path d="M94.7,195.5h24.1" style="fill:none;stroke:#d7e0ff;stroke-linecap:round;stroke-linejoin:round;stroke-width:0.699999988079071px;stroke-dasharray:2.799999952316284"/><polygon points="455.6 468.6 508.8 468.6 508.8 420.4 504.4 420.4 504.4 440.2 455.6 468.6" style="opacity:0.10401785373687744;isolation:isolate;fill:url(#bb)"/><polygon points="125.6 429.3 178.6 429.3 178.6 379 172.4 379 125.6 379 125.6 429.3" style="opacity:0.20401786267757416;isolation:isolate;fill:url(#bc)"/><path d="M144.6,385.4a8.4,8.4,0,0,1-.6,1.5v.2a10.2,10.2,0,0,1-1,1.5l-.5.5-1.3,1.3v21.9l.7-.6.6-.7.5-.5.2-.2.8-1.3h0v-.2l.4-1v-1.2a7.4,7.4,0,0,0,.1-1.2V383.4a7.7,7.7,0,0,1-.2,1.7Z" style="fill:url(#bd)"/><path d="M143.6,400.2l-.2.3a9.4,9.4,0,0,1-1.3,1.5l-1.2.9-1,.7a17.8,17.8,0,0,1-3.2,1.5l-1.2.4-1.6.4-2,.4h-.5l-2.8.2h-.4l-2.7-.2h-.4l-2.6-.5H122l-2.3-.7h-.4l-2.5-1.2L90.3,388c-3.2-1.9-4.8-4.5-4.8-7.1v21.9c0,2.6,1.6,5.1,4.8,7.1l26.6,16.5,2.4,1.2.5.2,1.4.5.8.2h.9l1.6.3h7.4l1.4-.2.6-.2,1.6-.4.9-.2.4-.2a18,18,0,0,0,3.2-1.5h.2l.8-.6,1.1-.9,1.1-1.2.2-.3.2-.3.3-.5.4-1v-.3l.2-.6a6,6,0,0,0,.1-1c0-.1,0-.1,0-.2V396.6a6.2,6.2,0,0,1-.3,1.8v.2A7.3,7.3,0,0,1,143.6,400.2Z" style="fill:url(#be)"/><path d="M140,403.6c-6.4,3.9-16.7,3.9-23.1,0L90.4,387.9c-6.4-3.9-6.4-10.1-.1-14s16.3-3.6,22.7-.5c7.8-3.4,18.9-3,26,1.3s7.8,11,2.2,15.8C146.3,394.3,145.9,400,140,403.6Z" style="fill:url(#bf)"/><path d="M101.4,394.1l3.9,2.3,10.3-7.4,4.2,2.5,2-8.9v-.2h-.4l-13.6,2.1,3.6,2.5Zm5.4-11.3,13.9-2a2.5,2.5,0,0,1,2.2.4,1.2,1.2,0,0,1,.6,1.2l-1.9,9.5a1.7,1.7,0,0,1-1.2,1.5,3.6,3.6,0,0,1-1.8-.3l-3.2-1.9-8.5,6.1-6.9-4.2,8.6-6.2-3.6-2.3C103.8,384,104.6,383.2,106.8,382.8Z" style="fill:url(#bg)"/><path d="M144.7,408.3c-.1,2.4-1.7,4.9-4.9,6.7-6.5,3.9-17.2,3.9-23.7,0L90,399.7c-3.2-1.9-4.8-4.3-4.9-6.8" style="fill:none;stroke:#7d849e;stroke-width:0.593999981880188px;opacity:0.40172991156578064;isolation:isolate"/><path d="M112.7,372.4c4.2-1.7,8.2-2.2,13.6-1.8,8.1.6,18.8,6.1,18.8,12.2v35.7a8.7,8.7,0,0,1-4,7.2,52.6,52.6,0,0,1-4.9,2.6,26.4,26.4,0,0,1-19.6-1.5L103,418.5h0l-12.8-7.8c-4-2.9-4.9-4.9-4.8-8.4,0-.4,0-.5,0-.7V380.7c0-3.6,3.7-7.6,10.5-9.6a24,24,0,0,1,10.9-.5A26.5,26.5,0,0,1,112.7,372.4Z" style="fill:none;stroke:#555a6f;stroke-width:1.187999963760376px"/><polygon points="89.5 391.6 92 393.3 92 397.4 89.5 395.7 89.5 391.6" style="fill:#a5adc1"/><polygon points="93.6 394.1 96.1 395.8 96.1 399.8 93.6 398.1 93.6 394.1" style="fill:#a5adc1;opacity:0.5012276768684387;isolation:isolate"/><polygon points="89 253.1 87.8 261.7 84.3 259.6 44.1 283.4 107.7 320 147.7 296.2 142.8 293.3 157.7 292.8 156.5 301.5 152.9 299.3 112.9 323 176.3 359.5 216.6 335.9 211.7 333 226.6 332.6 225.4 341.2 221.8 339.1 181.5 362.6 249.4 401.7 290.8 377 285.9 374.1 300.8 373.7 299.6 382.3 296 380.2 254.6 404.7 366.4 469.1 407.4 444.6 402.5 441.7 417.4 441.3 416.2 449.9 412.6 447.7 366.4 474.8 189.6 373.7 164 389.1 168.7 392 158.8 392.3 158.8 392.3 158.7 392.3 153.8 392.4 154.3 389.2 154 389.1 154.3 388.9 155 383.8 158.9 386.1 184.4 370.7 34.4 283.1 79 256.4 74.2 253.5 89 253.1" style="fill:#3a51c6;opacity:0.6000000238418579;isolation:isolate"/><polygon points="372.6 266.3 371.4 275 367.9 272.8 318.6 302.3 323.3 305.1 313.4 305.4 313.2 305.5 313 305.4 308.4 305.5 308.9 302.6 308.4 302.3 308.9 302 309.6 296.9 313.5 299.2 362.6 269.7 357.7 266.8 372.6 266.3" style="fill:#3a51c6;opacity:0.6000000238418579;isolation:isolate"/><polygon points="617.7 123.2 616.5 131.8 613 129.7 557.7 162.2 562.4 165 552.5 165.3 552.3 165.4 552.1 165.3 547.5 165.4 547.9 162.5 547.5 162.2 548 161.9 548.7 156.8 552.7 159.2 607.8 126.6 602.9 123.6 617.7 123.2" style="fill:#3a51c6;opacity:0.6000000238418579;isolation:isolate"/><polygon points="482 202.7 480.8 211.3 477.3 209.2 461.3 218.1 465.9 220.8 456 221.1 455.7 221.3 455.5 221.1 451 221.3 451.4 218.3 451 218 451.5 217.8 452.2 212.7 456.2 215.1 472 206.1 467.1 203.1 482 202.7" style="fill:#3a51c6;opacity:0.6000000238418579;isolation:isolate"/><polygon points="335.8 183.7 331.7 186.4 369.4 208.9 372.7 206.8 374.2 215.3 359.4 215.5 364.3 212.3 326.5 189.8 322.4 192.4 320.9 183.9 335.8 183.7" style="fill:#3a51c6;opacity:0.6000000238418579;isolation:isolate"/><polygon points="461.1 254.4 457 257.1 494.8 279.6 498.1 277.5 499.6 286 484.7 286.1 489.6 282.9 451.8 260.5 447.8 263.1 446.3 254.5 461.1 254.4" style="fill:#3a51c6;opacity:0.6000000238418579;isolation:isolate"/><path d="M386.1,108.1l82.7,47.9,3.3-2.1,1.5,8.6H458.7l4.9-3.2L386,114.5l-51.9,30.8,4.6,2.7-14.9.4,1.2-8.6,3.5,2.1h.1l52.1-30.5h-.1Z" style="fill:#3a51c6;opacity:0.6000000238418579;isolation:isolate"/><polygon points="552.5 198.8 547.5 202 630.5 249.9 625.1 253.1 625 253.1 575.8 282.7 580.4 285.4 565.5 285.8 566.7 277.2 570.3 279.4 620 250.2 542.4 205.3 539.1 207.4 537.6 198.9 552.5 198.8" style="fill:#3a51c6;opacity:0.6000000238418579;isolation:isolate"/><path d="M348.4,28l5.1,5.1,5.1-5.1h17.4a4.3,4.3,0,0,0,4.3-4.3V4.3A4.3,4.3,0,0,0,376.2,0H328.7a4.3,4.3,0,0,0-4.3,4.3V23.7a4.3,4.3,0,0,0,4.3,4.3Z" style="fill:#425295"/><path d="M100.6,173.8l5.1,5.1,5.1-5.1h89a4.3,4.3,0,0,0,4.3-4.3V150.1a4.3,4.3,0,0,0-4.3-4.3H9.3A4.3,4.3,0,0,0,5,150.1v19.4a4.3,4.3,0,0,0,4.3,4.3Z" style="fill:#425295"/><path d="M338.6,18.6V9.1h3.1a3.9,3.9,0,0,1,2.9,1.1,3.9,3.9,0,0,1,1.1,2.9v1.4a3.9,3.9,0,0,1-1.1,2.9,4,4,0,0,1-2.9,1.1Zm1.6-8.2v6.9h1.5a2.3,2.3,0,0,0,1.8-.8,2.9,2.9,0,0,0,.7-2V13.1a2.9,2.9,0,0,0-.7-2,2.3,2.3,0,0,0-1.8-.8Zm14.6,5.5h0l1.4-6.8h1.7l-2.2,9.4h-1.4l-1.9-6.7h0l-1.9,6.7h-1.4l-2.2-9.4h1.6l1.4,6.8h0l1.8-6.8h1.4Zm9.2.2a1.2,1.2,0,0,0-.4-1,3.4,3.4,0,0,0-1.2-.6h-.3a6.3,6.3,0,0,1-2.3-1.1,2.2,2.2,0,0,1-.8-1.8,2.3,2.3,0,0,1,.9-1.9,3.6,3.6,0,0,1,2.3-.7,3.5,3.5,0,0,1,2.4.8,2.5,2.5,0,0,1,.9,2h-1.5a1.5,1.5,0,0,0-.5-1.2,1.9,1.9,0,0,0-1.3-.4,1.8,1.8,0,0,0-1.2.4,1.2,1.2,0,0,0-.4,1,1.1,1.1,0,0,0,.5.9l1.3.6h.3a5.5,5.5,0,0,1,2.3,1.1,2.4,2.4,0,0,1,.8,1.8,2.2,2.2,0,0,1-.9,1.9,3.9,3.9,0,0,1-2.4.7,4.2,4.2,0,0,1-2.5-.8,2.4,2.4,0,0,1-1-2.2h1.5a1.5,1.5,0,0,0,.6,1.3,2.3,2.3,0,0,0,1.4.4,2.1,2.1,0,0,0,1.3-.4A1.1,1.1,0,0,0,364,16.1Z" style="fill:#fff"/><path d="M19.2,164.3v-9.4h3.1a3.9,3.9,0,0,1,2.9,1.1,3.9,3.9,0,0,1,1.1,2.9v1.4a3.9,3.9,0,0,1-1.1,2.9,4,4,0,0,1-2.9,1.1Zm1.6-8.2v6.9h1.5a2.3,2.3,0,0,0,1.8-.8,2.9,2.9,0,0,0,.7-2v-1.4a2.9,2.9,0,0,0-.7-2,2.3,2.3,0,0,0-1.8-.8Zm14.6,5.5h0l1.4-6.8h1.7l-2.2,9.4H34.8l-1.9-6.7h0L31,164.3H29.5l-2.2-9.4H29l1.4,6.8h0l1.8-6.8h1.4Zm9.2.2a1.2,1.2,0,0,0-.4-1,3.4,3.4,0,0,0-1.2-.6h-.3a6.3,6.3,0,0,1-2.3-1.1,2.2,2.2,0,0,1-.8-1.8,2.3,2.3,0,0,1,.9-1.9,3.6,3.6,0,0,1,2.3-.7,3.5,3.5,0,0,1,2.4.8,2.5,2.5,0,0,1,.9,2H44.6a1.5,1.5,0,0,0-.5-1.2,1.9,1.9,0,0,0-1.3-.4,1.8,1.8,0,0,0-1.2.4,1.2,1.2,0,0,0-.4,1,1.1,1.1,0,0,0,.5.9l1.3.6h.3a5.5,5.5,0,0,1,2.3,1.1,2.4,2.4,0,0,1,.8,1.8,2.2,2.2,0,0,1-.9,1.9,3.9,3.9,0,0,1-2.4.7,4.2,4.2,0,0,1-2.5-.8,2.4,2.4,0,0,1-1-2.2h1.5a1.5,1.5,0,0,0,.6,1.3,2.3,2.3,0,0,0,1.4.4,2.1,2.1,0,0,0,1.3-.4A1.1,1.1,0,0,0,44.6,161.9Zm11.7-1.8H52.7v3H57v1.3H51.1v-9.4H57v1.3H52.7v2.7h3.7Zm4.4-.4,1.3-2.4h1.8l-2.2,3.5,2.3,3.5H62.2l-1.4-2.5-1.4,2.5H57.6l2.3-3.5-2.2-3.5h1.8ZM71.1,161a3.9,3.9,0,0,1-.7,2.5,2.4,2.4,0,0,1-2,.9l-1.1-.2a2.2,2.2,0,0,1-.8-.6V167H65v-9.7h1.3l.2.9a2.3,2.3,0,0,1,.8-.8l1.1-.3a2.3,2.3,0,0,1,2,1,4.6,4.6,0,0,1,.7,2.7Zm-1.6-.1a3.4,3.4,0,0,0-.4-1.8,1.3,1.3,0,0,0-1.2-.7l-.8.2a1.5,1.5,0,0,0-.5.6v3.2a1.5,1.5,0,0,0,.5.6l.8.2a1.3,1.3,0,0,0,1.2-.6,2.7,2.7,0,0,0,.4-1.6Zm6.4-2.2h-.7l-.8.2a1.3,1.3,0,0,0-.5.5v4.9H72.5v-7h1.4v1a2.2,2.2,0,0,1,.7-.8,1.6,1.6,0,0,1,1-.3h.5Zm4,5.7a3,3,0,0,1-2.4-1,3.6,3.6,0,0,1-.9-2.5v-.3a3.7,3.7,0,0,1,.9-2.5,2.8,2.8,0,0,1,2.2-1,2.6,2.6,0,0,1,2.1.9,3.5,3.5,0,0,1,.7,2.3v.8H78.3a2.3,2.3,0,0,0,.5,1.4,1.5,1.5,0,0,0,1.3.5l1.1-.2.9-.4.5,1-1.1.6Zm-.2-6a1.2,1.2,0,0,0-1,.4,2.2,2.2,0,0,0-.5,1.2h2.7a1.8,1.8,0,0,0-.3-1.1A1.2,1.2,0,0,0,79.8,158.4Zm8.1,4a.7.7,0,0,0-.3-.6l-.9-.4h-.2a4.7,4.7,0,0,1-1.9-.7,1.6,1.6,0,0,1-.7-1.3,1.9,1.9,0,0,1,.7-1.5,2.9,2.9,0,0,1,2-.6,3,3,0,0,1,2,.6,1.9,1.9,0,0,1,.7,1.5H87.8a1,1,0,0,0-.3-.7,1.3,1.3,0,0,0-.9-.3,1.3,1.3,0,0,0-.9.3.8.8,0,0,0-.3.6.7.7,0,0,0,.3.6l.9.3h.2a4.7,4.7,0,0,1,1.9.8,1.6,1.6,0,0,1,.7,1.3,1.9,1.9,0,0,1-.8,1.5,3.3,3.3,0,0,1-2.1.6,3.1,3.1,0,0,1-2.2-.7,2,2,0,0,1-.8-1.6h1.5a1,1,0,0,0,.4.9,1.8,1.8,0,0,0,1,.3,1.6,1.6,0,0,0,.9-.2A.7.7,0,0,0,87.9,162.4Zm6.9,0a.7.7,0,0,0-.3-.6l-.9-.4h-.2a4.7,4.7,0,0,1-1.9-.7,1.6,1.6,0,0,1-.7-1.3,1.9,1.9,0,0,1,.7-1.5,2.9,2.9,0,0,1,2-.6,3,3,0,0,1,2,.6,1.9,1.9,0,0,1,.7,1.5H94.7a1,1,0,0,0-.3-.7,1.3,1.3,0,0,0-.9-.3,1.3,1.3,0,0,0-.9.3.8.8,0,0,0-.3.6.7.7,0,0,0,.3.6l.9.3h.2a4.7,4.7,0,0,1,1.9.8,1.6,1.6,0,0,1,.7,1.3,1.9,1.9,0,0,1-.8,1.5,3.3,3.3,0,0,1-2.1.6,3.1,3.1,0,0,1-2.2-.7,2,2,0,0,1-.8-1.6h1.5a1,1,0,0,0,.4.9,1.8,1.8,0,0,0,1,.3,1.6,1.6,0,0,0,.9-.2A.7.7,0,0,0,94.8,162.4Zm3-1.9a8.7,8.7,0,0,1,1-4.3,5.4,5.4,0,0,1,2.2-2.3h0l.3.9a5.1,5.1,0,0,0-1.5,2.1,8.9,8.9,0,0,0-.6,3.2v.6a9.5,9.5,0,0,0,.6,3.7,5.4,5.4,0,0,0,1.5,2.2l-.3.8h0a5.4,5.4,0,0,1-2.2-2.3,8.4,8.4,0,0,1-1-3.9Zm11.5.8h0a2.9,2.9,0,0,1-.9,2.3,3.6,3.6,0,0,1-2.6.9,3.5,3.5,0,0,1-2.7-1.1,4,4,0,0,1-1-2.8v-1.8a4.1,4.1,0,0,1,1-2.8,3.4,3.4,0,0,1,2.6-1.1,3.8,3.8,0,0,1,2.6.8,2.9,2.9,0,0,1,.9,2.3h-1.5a1.9,1.9,0,0,0-.5-1.4,2.1,2.1,0,0,0-1.5-.5,1.8,1.8,0,0,0-1.5.8,3.1,3.1,0,0,0-.6,1.9v1.8a3.1,3.1,0,0,0,.6,1.9,1.8,1.8,0,0,0,1.6.8,1.8,1.8,0,0,0,2-2Zm1.1-.5a3.8,3.8,0,0,1,.9-2.6,3.3,3.3,0,0,1,4.7,0,3.8,3.8,0,0,1,.9,2.6h0a3.8,3.8,0,0,1-.9,2.6,3.3,3.3,0,0,1-4.7,0,3.8,3.8,0,0,1-.9-2.6Zm1.6.1a3.1,3.1,0,0,0,.4,1.7,1.5,1.5,0,0,0,2.5,0,3.1,3.1,0,0,0,.4-1.7h0a3,3,0,0,0-.4-1.7,1.4,1.4,0,0,0-1.2-.7,1.3,1.3,0,0,0-1.2.7,3.1,3.1,0,0,0-.4,1.7Zm7.7-3.6v.9a2.4,2.4,0,0,1,.9-.8,2.5,2.5,0,0,1,1.2-.3,2.2,2.2,0,0,1,1.2.3,1.9,1.9,0,0,1,.7.9,2.5,2.5,0,0,1,.9-.9,2.3,2.3,0,0,1,1.2-.3,2.1,2.1,0,0,1,1.7.7,3.4,3.4,0,0,1,.6,2.2v4.2h-1.6v-4.2a2.1,2.1,0,0,0-.3-1.3,1.1,1.1,0,0,0-.9-.4,1.3,1.3,0,0,0-.9.3,1.5,1.5,0,0,0-.5.7h0v.2h0v4.5h-1.6v-4.2a2,2,0,0,0-.3-1.3,1.1,1.1,0,0,0-.9-.4l-.8.2-.5.5v5.1h-1.6v-7Zm16.2,3.7a3.9,3.9,0,0,1-.7,2.5,2.4,2.4,0,0,1-2,.9l-1.1-.2a2.2,2.2,0,0,1-.8-.6V167h-1.6v-9.7H131l.2.9a2.3,2.3,0,0,1,.8-.8l1.1-.3a2.3,2.3,0,0,1,2,1,4.6,4.6,0,0,1,.7,2.7Zm-1.6-.1a3.4,3.4,0,0,0-.4-1.8,1.3,1.3,0,0,0-1.2-.7l-.8.2a1.5,1.5,0,0,0-.5.6v3.2a1.5,1.5,0,0,0,.5.6l.8.2a1.3,1.3,0,0,0,1.2-.6,2.7,2.7,0,0,0,.4-1.6Zm7.3,2.4a2.3,2.3,0,0,1-.8.9,2.2,2.2,0,0,1-1.2.3,2.2,2.2,0,0,1-1.8-.7,3.5,3.5,0,0,1-.6-2.3v-4.1h1.6v4.1a2.3,2.3,0,0,0,.3,1.4,1.1,1.1,0,0,0,.9.4l1-.2a1.5,1.5,0,0,0,.6-.6v-5.1H143v7h-1.4Zm5.2-7.7v1.7h1.3v1.2h-1.3v3.9a.8.8,0,0,0,.2.6l.5.2h.5l.2,1.2-.5.2H147a1.8,1.8,0,0,1-1.4-.5,2.2,2.2,0,0,1-.5-1.6v-3.9h-1.1v-1.2h1.1v-1.7Zm5.5,8.8a3,3,0,0,1-2.4-1,3.6,3.6,0,0,1-.9-2.5v-.3a3.7,3.7,0,0,1,.9-2.5,2.8,2.8,0,0,1,2.2-1,2.6,2.6,0,0,1,2.1.9,3.5,3.5,0,0,1,.7,2.3v.8h-4.3a2.3,2.3,0,0,0,.5,1.4,1.5,1.5,0,0,0,1.3.5l1.1-.2.9-.4.5,1-1.1.6Zm-.2-6a1.2,1.2,0,0,0-1,.4,2.2,2.2,0,0,0-.5,1.2h2.7a1.8,1.8,0,0,0-.3-1.1A1.2,1.2,0,0,0,152,158.4Zm9.2,2.3v3.6h-1.6v-9.4h3.6a3.5,3.5,0,0,1,2.4.8,3,3,0,0,1,0,4.2,3.5,3.5,0,0,1-2.4.8Zm0-1.3h2a1.7,1.7,0,0,0,1.3-.5,1.7,1.7,0,0,0,.4-1.2,1.6,1.6,0,0,0-1.8-1.7h-2Zm6.3,1.3a3.8,3.8,0,0,1,.9-2.6,3.3,3.3,0,0,1,4.7,0,3.8,3.8,0,0,1,.9,2.6h0a3.8,3.8,0,0,1-.9,2.6,3.3,3.3,0,0,1-4.7,0,3.8,3.8,0,0,1-.9-2.6Zm1.6.1a3.1,3.1,0,0,0,.4,1.7,1.5,1.5,0,0,0,2.5,0,3.1,3.1,0,0,0,.4-1.7h0a3,3,0,0,0-.4-1.7,1.4,1.4,0,0,0-1.2-.7,1.3,1.3,0,0,0-1.2.7,3.1,3.1,0,0,0-.4,1.7Zm5.9-.1a3.8,3.8,0,0,1,.9-2.6,3.3,3.3,0,0,1,4.7,0,3.8,3.8,0,0,1,.9,2.6h0a3.8,3.8,0,0,1-.9,2.6,3.3,3.3,0,0,1-4.7,0,3.8,3.8,0,0,1-.9-2.6Zm1.6.1a3.1,3.1,0,0,0,.4,1.7,1.5,1.5,0,0,0,2.5,0,3.1,3.1,0,0,0,.4-1.7h0a3,3,0,0,0-.4-1.7,1.4,1.4,0,0,0-1.2-.7,1.3,1.3,0,0,0-1.2.7,3.1,3.1,0,0,0-.4,1.7Zm7.9,3.4h-1.6V154.2h1.6Zm4.6-3.7a8.6,8.6,0,0,1-1,4.3,5.4,5.4,0,0,1-2.2,2.4h0l-.3-.8a5.1,5.1,0,0,0,1.5-2.1,9.1,9.1,0,0,0,.6-3.2v-.6a9.3,9.3,0,0,0-.6-3.7,5.6,5.6,0,0,0-1.5-2.2l.3-.8h0a5.4,5.4,0,0,1,2.2,2.4,8.3,8.3,0,0,1,1,3.9Z" style="fill:#fff"/><path d="M664.2,117.4l5.1-4.8,4.8,4.8H680a4.2,4.2,0,0,1,4.2,4.2V133a4.2,4.2,0,0,1-4.2,4.2H643.9a4.2,4.2,0,0,1-4.2-4.2V121.6a4.2,4.2,0,0,1,4.2-4.2Z" style="fill:#f0f1f7;stroke:#555a6f;stroke-width:1.0779999494552612px"/><path d="M518.5,203.5l5.1-4.8,4.8,4.8h5.9a4.2,4.2,0,0,1,4.2,4.2v11.4a4.2,4.2,0,0,1-4.2,4.2H506.1a4.2,4.2,0,0,1-4.2-4.2V207.7a4.2,4.2,0,0,1,4.2-4.2Z" style="fill:#f0f1f7;stroke:#555a6f;stroke-width:1.0779999494552612px"/><path d="M298.5,189l5.1-4.8,4.8,4.8h5.9a4.2,4.2,0,0,1,4.2,4.2v11.4a4.2,4.2,0,0,1-4.2,4.2H264.9a4.2,4.2,0,0,1-4.2-4.2V193.2a4.2,4.2,0,0,1,4.2-4.2Z" style="fill:#f0f1f7;stroke:#555a6f;stroke-width:1.0779999494552612px"/><path d="M420.4,259.2l5.1-4.8,4.8,4.8h5.9a4.2,4.2,0,0,1,4.2,4.2v11.4a4.2,4.2,0,0,1-4.2,4.2H386.8a4.2,4.2,0,0,1-4.2-4.2V263.4a4.2,4.2,0,0,1,4.2-4.2Z" style="fill:#f0f1f7;stroke:#555a6f;stroke-width:1.0779999494552612px"/><path d="M545,329.4l5.1-4.8,4.8,4.8h5.9a4.2,4.2,0,0,1,4.2,4.2V345a4.2,4.2,0,0,1-4.2,4.2H511.4a4.2,4.2,0,0,1-4.2-4.2V333.6a4.2,4.2,0,0,1,4.2-4.2Z" style="fill:#f0f1f7;stroke:#555a6f;stroke-width:1.0779999494552612px"/><path d="M114.3,260.5l5.1-4.8,4.8,4.8h5.9a4.2,4.2,0,0,1,4.2,4.2v11.4a4.2,4.2,0,0,1-4.2,4.2H80.7a4.2,4.2,0,0,1-4.2-4.2V264.7a4.2,4.2,0,0,1,4.2-4.2Z" style="fill:#f0f1f7;stroke:#555a6f;stroke-width:1.0779999494552612px"/><path d="M183.2,300.3l5.1-4.8,4.8,4.8H199a4.2,4.2,0,0,1,4.2,4.2v11.4a4.2,4.2,0,0,1-4.2,4.2H149.6a4.2,4.2,0,0,1-4.2-4.2V304.5a4.2,4.2,0,0,1,4.2-4.2Z" style="fill:#f0f1f7;stroke:#555a6f;stroke-width:1.0779999494552612px"/><path d="M126.2,424.8l5.1-4.8,4.8,4.8H142a4.2,4.2,0,0,1,4.2,4.2v11.4a4.2,4.2,0,0,1-4.2,4.2H107.2a4.2,4.2,0,0,1-4.2-4.2V429a4.2,4.2,0,0,1,4.2-4.2Z" style="fill:#f0f1f7;stroke:#555a6f;stroke-width:1.0779999494552612px"/><path d="M254.8,340l5.1-4.8,4.8,4.8h5.9a4.2,4.2,0,0,1,4.2,4.2v11.4a4.2,4.2,0,0,1-4.2,4.2H221.2a4.2,4.2,0,0,1-4.2-4.2V344.2a4.2,4.2,0,0,1,4.2-4.2Z" style="fill:#f0f1f7;stroke:#555a6f;stroke-width:1.0779999494552612px"/><path d="M326.3,381.1l5.1-4.8,4.8,4.8h5.9a4.2,4.2,0,0,1,4.2,4.2v11.4a4.2,4.2,0,0,1-4.2,4.2H292.7a4.2,4.2,0,0,1-4.2-4.2V385.3a4.2,4.2,0,0,1,4.2-4.2Z" style="fill:#f0f1f7;stroke:#555a6f;stroke-width:1.0779999494552612px"/><path d="M440.3,447.4l5.1-4.8,4.8,4.8h5.9a4.2,4.2,0,0,1,4.2,4.2v11.4a4.2,4.2,0,0,1-4.2,4.2H406.7a4.2,4.2,0,0,1-4.2-4.2V451.6a4.2,4.2,0,0,1,4.2-4.2Z" style="fill:#f0f1f7;stroke:#555a6f;stroke-width:1.0779999494552612px"/><path d="M657.8,129.2a1,1,0,0,0-.3-.8l-1-.5h-.2a5,5,0,0,1-1.9-.9,1.8,1.8,0,0,1-.7-1.4,1.9,1.9,0,0,1,.7-1.5,2.9,2.9,0,0,1,1.9-.6,2.8,2.8,0,0,1,2,.7,2,2,0,0,1,.7,1.6h-1.2a1.2,1.2,0,0,0-.4-.9,1.5,1.5,0,0,0-1.1-.4,1.4,1.4,0,0,0-1,.3,1,1,0,0,0-.3.8.9.9,0,0,0,.4.7l1,.5h.2a4.4,4.4,0,0,1,1.8.9,1.9,1.9,0,0,1,.6,1.5,1.8,1.8,0,0,1-.7,1.5,3.1,3.1,0,0,1-1.9.6,3.4,3.4,0,0,1-2-.6,1.9,1.9,0,0,1-.8-1.7h1.2a1.2,1.2,0,0,0,.5,1,1.9,1.9,0,0,0,1.1.3,1.7,1.7,0,0,0,1-.3A.9.9,0,0,0,657.8,129.2Zm8.5-1.2a3.6,3.6,0,0,1-.2,1.1,3.1,3.1,0,0,1-.5.9l1.1,1.1-.8.8-1.1-1.1-.8.3h-.9a2.9,2.9,0,0,1-2.2-.9,3.2,3.2,0,0,1-.8-2.3v-1.4a3.2,3.2,0,0,1,.8-2.3,2.9,2.9,0,0,1,2.2-.9,3,3,0,0,1,2.3.9,3.2,3.2,0,0,1,.9,2.3Zm-1.3-1.4a2.3,2.3,0,0,0-.5-1.5,1.7,1.7,0,0,0-1.4-.6,1.6,1.6,0,0,0-1.3.6,2.4,2.4,0,0,0-.5,1.5v1.4a2.4,2.4,0,0,0,.5,1.6,1.6,1.6,0,0,0,1.3.6,1.7,1.7,0,0,0,1.4-.6,2.4,2.4,0,0,0,.5-1.6Zm4,3.5h3.5v1h-4.8v-7.5H669Z"/><path d="M519.2,214.9h0a2.3,2.3,0,0,1-.7,1.8,2.9,2.9,0,0,1-2.1.7,2.8,2.8,0,0,1-2.1-.9,3.2,3.2,0,0,1-.8-2.3v-1.4a3.3,3.3,0,0,1,.8-2.3,2.7,2.7,0,0,1,2.1-.9,3,3,0,0,1,2.1.7,2.3,2.3,0,0,1,.7,1.9H518a1.5,1.5,0,0,0-.4-1.2,1.6,1.6,0,0,0-1.2-.4,1.4,1.4,0,0,0-1.2.6,2.5,2.5,0,0,0-.4,1.5v1.4a2.5,2.5,0,0,0,.5,1.5,1.5,1.5,0,0,0,1.2.6,1.4,1.4,0,0,0,1.6-1.6Zm7.1,2.5H525l-3.3-5.4h0v5.4h-1.3v-7.5h1.3l3.3,5.4h0v-5.4h1.3Z"/><path d="M278,202.7h-1.3l-3.3-5.4h0v5.4h-1.3v-7.5h1.3l3.3,5.4h0v-5.4H278Zm1.2-2.9a3,3,0,0,1,.7-2.1,2.6,2.6,0,0,1,3.8,0,3,3,0,0,1,.7,2.1h0a3,3,0,0,1-.7,2.1,2.6,2.6,0,0,1-3.8,0,3,3,0,0,1-.7-2.1Zm1.3.1a2.5,2.5,0,0,0,.3,1.3,1.2,1.2,0,0,0,2,0,2.4,2.4,0,0,0,.3-1.3h0a2.4,2.4,0,0,0-.3-1.3,1.1,1.1,0,0,0-1-.5,1.1,1.1,0,0,0-1,.5,2.5,2.5,0,0,0-.3,1.3Zm4.7,0a3.7,3.7,0,0,1,.6-2.2,1.9,1.9,0,0,1,1.6-.8l.8.2.6.5v-3.1h1.3v8.1h-1l-.2-.7-.7.6-.9.2a1.9,1.9,0,0,1-1.6-.8,3.2,3.2,0,0,1-.6-2Zm1.3.1a2.3,2.3,0,0,0,.3,1.2,1,1,0,0,0,.9.5l.7-.2.5-.5v-2.4l-.5-.5-.7-.2a1,1,0,0,0-.9.5,2.9,2.9,0,0,0-.3,1.4Zm7.4,2.7a2.4,2.4,0,0,1-1.9-.8,2.9,2.9,0,0,1-.7-2v-.2a3,3,0,0,1,.7-2,2.2,2.2,0,0,1,1.8-.8,2.1,2.1,0,0,1,1.7.7,2.8,2.8,0,0,1,.6,1.9v.7h-3.5a1.8,1.8,0,0,0,.4,1.1,1.2,1.2,0,0,0,1,.4h.9l.7-.4.4.8-.8.5Zm-.1-4.8a1,1,0,0,0-.8.4,1.8,1.8,0,0,0-.4.9h2.2a1.4,1.4,0,0,0-.3-.9A.9.9,0,0,0,293.7,198Zm6.5,2h-3.1v-1h3.1Zm4.7,2.7h-1.3v-6.4h-1.6v-1l2.9-.3Z"/><path d="M399.9,273h-1.3l-3.3-5.4h0V273h-1.3v-7.5h1.3l3.3,5.4h0v-5.4h1.3Zm1.2-2.9a3,3,0,0,1,.7-2.1,2.6,2.6,0,0,1,3.8,0,3,3,0,0,1,.7,2.1h0a3,3,0,0,1-.7,2.1,2.6,2.6,0,0,1-3.8,0,3,3,0,0,1-.7-2.1Zm1.3.1a2.5,2.5,0,0,0,.3,1.3,1.2,1.2,0,0,0,2,0,2.4,2.4,0,0,0,.3-1.3h0a2.4,2.4,0,0,0-.3-1.3,1.1,1.1,0,0,0-1-.5,1.1,1.1,0,0,0-1,.5,2.5,2.5,0,0,0-.3,1.3Zm4.7,0a3.7,3.7,0,0,1,.6-2.2,1.9,1.9,0,0,1,1.6-.8l.8.2.6.5v-3.1h1.3V273h-1l-.2-.7-.7.6-.9.2a1.9,1.9,0,0,1-1.6-.8,3.2,3.2,0,0,1-.6-2Zm1.3.1a2.3,2.3,0,0,0,.3,1.2,1,1,0,0,0,.9.5l.7-.2.5-.5V269l-.5-.5-.7-.2a1,1,0,0,0-.9.5,2.9,2.9,0,0,0-.3,1.4Zm7.4,2.7a2.4,2.4,0,0,1-1.9-.8,2.9,2.9,0,0,1-.7-2v-.2a3,3,0,0,1,.7-2,2.2,2.2,0,0,1,1.8-.8,2.1,2.1,0,0,1,1.7.7,2.8,2.8,0,0,1,.6,1.9v.7h-3.5a1.8,1.8,0,0,0,.4,1.1,1.2,1.2,0,0,0,1,.4h.9l.7-.4.4.8-.8.5Zm-.1-4.8a1,1,0,0,0-.8.4,1.8,1.8,0,0,0-.4.9h2.2a1.4,1.4,0,0,0-.3-.9A.9.9,0,0,0,415.6,268.3Zm6.5,2h-3.1v-1h3.1Zm6.4,2.7h-4.9v-.9l2.4-2.7.8-1.1a1.9,1.9,0,0,0,.2-.8,1.1,1.1,0,0,0-.3-.8,1,1,0,0,0-.8-.3,1.1,1.1,0,0,0-.9.4,1.5,1.5,0,0,0-.3,1h-1.2a2.2,2.2,0,0,1,.6-1.6,2.4,2.4,0,0,1,1.8-.7,2.4,2.4,0,0,1,1.7.6,2,2,0,0,1,.6,1.5,2.3,2.3,0,0,1-.3,1.2l-1.1,1.5-1.6,1.8h3.3Z"/><path d="M524.5,343.2h-1.3l-3.3-5.4h0v5.4h-1.3v-7.5h1.3l3.3,5.4h0v-5.4h1.3Zm1.2-2.9a3,3,0,0,1,.7-2.1,2.6,2.6,0,0,1,3.8,0,3,3,0,0,1,.7,2.1h0a3,3,0,0,1-.7,2.1,2.6,2.6,0,0,1-3.8,0,3,3,0,0,1-.7-2.1Zm1.3.1a2.5,2.5,0,0,0,.3,1.3,1.2,1.2,0,0,0,2,0,2.4,2.4,0,0,0,.3-1.3h0a2.4,2.4,0,0,0-.3-1.3,1.1,1.1,0,0,0-1-.5,1.1,1.1,0,0,0-1,.5,2.5,2.5,0,0,0-.3,1.3Zm4.7,0a3.7,3.7,0,0,1,.6-2.2,1.9,1.9,0,0,1,1.6-.8l.8.2.6.5v-3.1h1.3v8.1h-1l-.2-.7-.7.6-.9.2a1.9,1.9,0,0,1-1.6-.8,3.2,3.2,0,0,1-.6-2Zm1.3.1a2.3,2.3,0,0,0,.3,1.2,1,1,0,0,0,.9.5l.7-.2.5-.5v-2.4l-.5-.5-.7-.2a1,1,0,0,0-.9.5,2.9,2.9,0,0,0-.3,1.4Zm7.4,2.7a2.4,2.4,0,0,1-1.9-.8,2.9,2.9,0,0,1-.7-2v-.2a3,3,0,0,1,.7-2,2.2,2.2,0,0,1,1.8-.8,2.1,2.1,0,0,1,1.7.7,2.8,2.8,0,0,1,.6,1.9v.7H539a1.8,1.8,0,0,0,.4,1.1,1.2,1.2,0,0,0,1,.4h.9l.7-.4.4.8-.8.5Zm-.1-4.8a1,1,0,0,0-.8.4,1.8,1.8,0,0,0-.4.9h2.2a1.4,1.4,0,0,0-.3-.9A.9.9,0,0,0,540.2,338.5Zm6.5,2h-3.1v-1h3.1Zm3.8-1.7a1.1,1.1,0,0,0,.9-.3,1.2,1.2,0,0,0,.3-.9,1.1,1.1,0,0,0-.3-.8,1.1,1.1,0,0,0-.8-.3,1.2,1.2,0,0,0-.8.3,1,1,0,0,0-.3.8h-1.2a1.7,1.7,0,0,1,.7-1.5,3,3,0,0,1,3.5,0,1.9,1.9,0,0,1,.6,1.6,1.7,1.7,0,0,1-.3.9,1.9,1.9,0,0,1-.8.7,1.8,1.8,0,0,1,.9.7,1.9,1.9,0,0,1,.3,1.1,2,2,0,0,1-.7,1.6,2.7,2.7,0,0,1-1.8.6,2.8,2.8,0,0,1-1.7-.6,1.8,1.8,0,0,1-.7-1.5h1.2a1,1,0,0,0,.3.8,1.3,1.3,0,0,0,.9.3,1.2,1.2,0,0,0,.9-.3,1.2,1.2,0,0,0,.3-.9,1.3,1.3,0,0,0-.3-1,1.3,1.3,0,0,0-.9-.3h-.8v-1Z"/><path d="M93.8,274.3H92.6l-3.3-5.4h0v5.4H88v-7.5h1.3l3.3,5.4h0v-5.4h1.3Zm1.2-2.9a3,3,0,0,1,.7-2.1,2.6,2.6,0,0,1,3.8,0,3,3,0,0,1,.7,2.1h0a3,3,0,0,1-.7,2.1,2.6,2.6,0,0,1-3.8,0,3,3,0,0,1-.7-2.1Zm1.3.1a2.5,2.5,0,0,0,.3,1.3,1.2,1.2,0,0,0,2,0,2.4,2.4,0,0,0,.3-1.3h0a2.4,2.4,0,0,0-.3-1.3,1.1,1.1,0,0,0-1-.5,1.1,1.1,0,0,0-1,.5,2.5,2.5,0,0,0-.3,1.3Zm4.7,0a3.7,3.7,0,0,1,.6-2.2,1.9,1.9,0,0,1,1.6-.8l.8.2.6.5v-3.1H106v8.1h-1l-.2-.7-.7.6-.9.2a1.9,1.9,0,0,1-1.6-.8,3.2,3.2,0,0,1-.6-2Zm1.3.1a2.3,2.3,0,0,0,.3,1.2,1,1,0,0,0,.9.5l.7-.2.5-.5v-2.4l-.5-.5-.7-.2a1,1,0,0,0-.9.5,2.9,2.9,0,0,0-.3,1.4Zm7.4,2.7a2.4,2.4,0,0,1-1.9-.8,2.9,2.9,0,0,1-.7-2v-.2a3,3,0,0,1,.7-2,2.2,2.2,0,0,1,1.8-.8,2.1,2.1,0,0,1,1.7.7,2.8,2.8,0,0,1,.6,1.9v.7h-3.5a1.8,1.8,0,0,0,.4,1.1,1.2,1.2,0,0,0,1,.4h.9l.7-.4.4.8-.8.5Zm-.1-4.8a1,1,0,0,0-.8.4,1.8,1.8,0,0,0-.4.9h2.2a1.4,1.4,0,0,0-.3-.9A.9.9,0,0,0,109.6,269.6Zm6.5,2H113v-1h3.1Zm4.7,2.7h-1.3v-6.4h-1.6v-1l2.9-.3Z"/><path d="M162.8,314h-1.3l-3.3-5.4h0V314h-1.3v-7.5h1.3l3.3,5.4h0v-5.4h1.3Zm1.2-2.9a3,3,0,0,1,.7-2.1,2.6,2.6,0,0,1,3.8,0,3,3,0,0,1,.7,2.1h0a3,3,0,0,1-.7,2.1,2.6,2.6,0,0,1-3.8,0,3,3,0,0,1-.7-2.1Zm1.3.1a2.5,2.5,0,0,0,.3,1.3,1.2,1.2,0,0,0,2,0,2.4,2.4,0,0,0,.3-1.3h0a2.4,2.4,0,0,0-.3-1.3,1.1,1.1,0,0,0-1-.5,1.1,1.1,0,0,0-1,.5,2.5,2.5,0,0,0-.3,1.3Zm4.7,0a3.7,3.7,0,0,1,.6-2.2,1.9,1.9,0,0,1,1.6-.8l.8.2.6.5V306h1.3V314h-1l-.2-.7-.7.6-.9.2a1.9,1.9,0,0,1-1.6-.8,3.2,3.2,0,0,1-.6-2Zm1.3.1a2.3,2.3,0,0,0,.3,1.2,1,1,0,0,0,.9.5l.7-.2.5-.5V310l-.5-.5-.7-.2a1,1,0,0,0-.9.5,2.9,2.9,0,0,0-.3,1.4Zm7.4,2.7a2.4,2.4,0,0,1-1.9-.8,2.9,2.9,0,0,1-.7-2v-.2a3,3,0,0,1,.7-2,2.2,2.2,0,0,1,1.8-.8,2.1,2.1,0,0,1,1.7.7,2.8,2.8,0,0,1,.6,1.9v.7h-3.5a1.8,1.8,0,0,0,.4,1.1,1.2,1.2,0,0,0,1,.4h.9l.7-.4.4.8-.8.5Zm-.1-4.8a1,1,0,0,0-.8.4,1.8,1.8,0,0,0-.4.9h2.2a1.4,1.4,0,0,0-.3-.9A.9.9,0,0,0,178.5,309.4Zm6.5,2h-3.1v-1H185Zm6.4,2.7h-4.9v-.9l2.4-2.7.8-1.1a1.9,1.9,0,0,0,.2-.8,1.1,1.1,0,0,0-.3-.8,1,1,0,0,0-.8-.3,1.1,1.1,0,0,0-.9.4,1.5,1.5,0,0,0-.3,1h-1.2a2.2,2.2,0,0,1,.6-1.6,2.4,2.4,0,0,1,1.8-.7,2.4,2.4,0,0,1,1.7.6,2,2,0,0,1,.6,1.5,2.3,2.3,0,0,1-.3,1.2l-1.1,1.5-1.6,1.8h3.3Z"/><path d="M121,435.5a3.2,3.2,0,0,1-.9,2.3,3,3,0,0,1-2.3.9,2.9,2.9,0,0,1-2.2-.9,3.2,3.2,0,0,1-.8-2.3v-1.4a3.2,3.2,0,0,1,.8-2.3,2.9,2.9,0,0,1,2.2-.9,3,3,0,0,1,2.3.9,3.2,3.2,0,0,1,.9,2.3Zm-1.3-1.4a2.3,2.3,0,0,0-.5-1.5,1.7,1.7,0,0,0-1.4-.6,1.6,1.6,0,0,0-1.3.6,2.4,2.4,0,0,0-.5,1.5v1.4a2.4,2.4,0,0,0,.5,1.6,1.6,1.6,0,0,0,1.3.6,1.7,1.7,0,0,0,1.4-.6,2.4,2.4,0,0,0,.5-1.6Zm2.6,4.5v-7.5h2.5a3.2,3.2,0,0,1,2,.5,1.8,1.8,0,0,1,.7,1.5,1.5,1.5,0,0,1-.3.9,1.8,1.8,0,0,1-.8.6,1.7,1.7,0,0,1,1.1.6,1.9,1.9,0,0,1,.4,1.2,1.9,1.9,0,0,1-.7,1.6,3,3,0,0,1-1.9.6Zm1.3-3.4v2.4h1.7a1.5,1.5,0,0,0,1-.3,1.1,1.1,0,0,0,.4-.9,1.2,1.2,0,0,0-.3-.9,1.4,1.4,0,0,0-1-.4Zm0-.9H125a1.4,1.4,0,0,0,.9-.3,1,1,0,0,0,.3-.8,1,1,0,0,0-.4-.8,1.7,1.7,0,0,0-1-.3h-1.2Zm9.5,2.4a1,1,0,0,0-.3-.8l-1-.5h-.2a5,5,0,0,1-1.9-.9,1.8,1.8,0,0,1-.7-1.4,1.9,1.9,0,0,1,.7-1.5,2.9,2.9,0,0,1,1.9-.6,2.8,2.8,0,0,1,2,.7,2,2,0,0,1,.7,1.6h-1.2a1.2,1.2,0,0,0-.4-.9,1.5,1.5,0,0,0-1.1-.4,1.4,1.4,0,0,0-1,.3,1,1,0,0,0-.3.8.9.9,0,0,0,.4.7l1,.5h.2a4.4,4.4,0,0,1,1.8.9,1.9,1.9,0,0,1,.6,1.5,1.8,1.8,0,0,1-.7,1.5,3.1,3.1,0,0,1-1.9.6,3.4,3.4,0,0,1-2-.6,1.9,1.9,0,0,1-.8-1.7h1.2a1.2,1.2,0,0,0,.5,1,1.9,1.9,0,0,0,1.1.3,1.7,1.7,0,0,0,1-.3A.9.9,0,0,0,133.1,436.7Z"/><path d="M234.3,353.8H233l-3.3-5.4h0v5.4h-1.3v-7.5h1.3l3.3,5.4h0v-5.4h1.3Zm1.2-2.9a3,3,0,0,1,.7-2.1,2.6,2.6,0,0,1,3.8,0,3,3,0,0,1,.7,2.1h0a3,3,0,0,1-.7,2.1,2.6,2.6,0,0,1-3.8,0,3,3,0,0,1-.7-2.1Zm1.3.1a2.5,2.5,0,0,0,.3,1.3,1.2,1.2,0,0,0,2,0,2.4,2.4,0,0,0,.3-1.3h0a2.4,2.4,0,0,0-.3-1.3,1.1,1.1,0,0,0-1-.5,1.1,1.1,0,0,0-1,.5,2.5,2.5,0,0,0-.3,1.3Zm4.7,0a3.7,3.7,0,0,1,.6-2.2,1.9,1.9,0,0,1,1.6-.8l.8.2.6.5v-3.1h1.3v8.1h-1l-.2-.7-.7.6-.9.2a1.9,1.9,0,0,1-1.6-.8,3.2,3.2,0,0,1-.6-2Zm1.3.1a2.3,2.3,0,0,0,.3,1.2,1,1,0,0,0,.9.5l.7-.2.5-.5v-2.4l-.5-.5-.7-.2a1,1,0,0,0-.9.5,2.9,2.9,0,0,0-.3,1.4Zm7.4,2.7a2.4,2.4,0,0,1-1.9-.8,2.9,2.9,0,0,1-.7-2v-.2a3,3,0,0,1,.7-2,2.2,2.2,0,0,1,1.8-.8,2.1,2.1,0,0,1,1.7.7,2.8,2.8,0,0,1,.6,1.9v.7h-3.5a1.8,1.8,0,0,0,.4,1.1,1.2,1.2,0,0,0,1,.4h.9l.7-.4.4.8-.8.5Zm-.1-4.8a1,1,0,0,0-.8.4,1.8,1.8,0,0,0-.4.9h2.2a1.4,1.4,0,0,0-.3-.9A.9.9,0,0,0,250,349.1Zm6.5,2h-3.1v-1h3.1Zm3.8-1.7a1.1,1.1,0,0,0,.9-.3,1.2,1.2,0,0,0,.3-.9,1.1,1.1,0,0,0-.3-.8,1.1,1.1,0,0,0-.8-.3,1.2,1.2,0,0,0-.8.3,1,1,0,0,0-.3.8H258a1.7,1.7,0,0,1,.7-1.5,3,3,0,0,1,3.5,0,1.9,1.9,0,0,1,.6,1.6,1.7,1.7,0,0,1-.3.9,1.9,1.9,0,0,1-.8.7,1.8,1.8,0,0,1,.9.7,1.9,1.9,0,0,1,.3,1.1,2,2,0,0,1-.7,1.6,2.7,2.7,0,0,1-1.8.6,2.8,2.8,0,0,1-1.7-.6,1.8,1.8,0,0,1-.7-1.5h1.2a1,1,0,0,0,.3.8,1.3,1.3,0,0,0,.9.3,1.2,1.2,0,0,0,.9-.3,1.2,1.2,0,0,0,.3-.9,1.3,1.3,0,0,0-.3-1,1.3,1.3,0,0,0-.9-.3h-.8v-1Z"/><path d="M305.9,394.9h-1.3l-3.3-5.4h0v5.4H300v-7.5h1.3l3.3,5.4h0v-5.4h1.3Zm1.2-2.9a3,3,0,0,1,.7-2.1,2.6,2.6,0,0,1,3.8,0,3,3,0,0,1,.7,2.1h0a3,3,0,0,1-.7,2.1,2.6,2.6,0,0,1-3.8,0,3,3,0,0,1-.7-2.1Zm1.3.1a2.5,2.5,0,0,0,.3,1.3,1.2,1.2,0,0,0,2,0,2.4,2.4,0,0,0,.3-1.3h0a2.4,2.4,0,0,0-.3-1.3,1.1,1.1,0,0,0-1-.5,1.1,1.1,0,0,0-1,.5,2.5,2.5,0,0,0-.3,1.3Zm4.7,0a3.7,3.7,0,0,1,.6-2.2,1.9,1.9,0,0,1,1.6-.8l.8.2.6.5v-3.1H318v8.1h-1l-.2-.7-.7.6-.9.2a1.9,1.9,0,0,1-1.6-.8,3.2,3.2,0,0,1-.6-2Zm1.3.1a2.3,2.3,0,0,0,.3,1.2,1,1,0,0,0,.9.5l.7-.2.5-.5v-2.4l-.5-.5-.7-.2a1,1,0,0,0-.9.5,2.9,2.9,0,0,0-.3,1.4Zm7.4,2.7a2.4,2.4,0,0,1-1.9-.8,2.9,2.9,0,0,1-.7-2V392a3,3,0,0,1,.7-2,2.2,2.2,0,0,1,1.8-.8,2.1,2.1,0,0,1,1.7.7,2.8,2.8,0,0,1,.6,1.9v.7h-3.5a1.8,1.8,0,0,0,.4,1.1,1.2,1.2,0,0,0,1,.4h.9l.7-.4.4.8-.8.5Zm-.1-4.8a1,1,0,0,0-.8.4,1.8,1.8,0,0,0-.4.9h2.2a1.4,1.4,0,0,0-.3-.9A.9.9,0,0,0,321.6,390.2Zm6.5,2H325v-1h3.1Zm5.6,0h1v1h-1v1.7h-1.3v-1.7h-3.2v-.8l3.1-5.1h1.3Zm-3.2,0,1.8-2.8v-.3h0v3.1Z"/><path d="M419.8,461.1h-1.3l-3.3-5.4h0v5.4H414v-7.5h1.3l3.3,5.4h0v-5.4h1.3Zm1.2-2.9a3,3,0,0,1,.7-2.1,2.6,2.6,0,0,1,3.8,0,3,3,0,0,1,.7,2.1h0a3,3,0,0,1-.7,2.1,2.6,2.6,0,0,1-3.8,0,3,3,0,0,1-.7-2.1Zm1.3.1a2.5,2.5,0,0,0,.3,1.3,1.2,1.2,0,0,0,2,0,2.4,2.4,0,0,0,.3-1.3h0a2.4,2.4,0,0,0-.3-1.3,1.1,1.1,0,0,0-1-.5,1.1,1.1,0,0,0-1,.5,2.5,2.5,0,0,0-.3,1.3Zm4.7,0a3.7,3.7,0,0,1,.6-2.2,1.9,1.9,0,0,1,1.6-.8l.8.2.6.5v-3.1H432v8.1h-1l-.2-.7-.7.6-.9.2a1.9,1.9,0,0,1-1.6-.8,3.2,3.2,0,0,1-.6-2Zm1.3.1a2.3,2.3,0,0,0,.3,1.2,1,1,0,0,0,.9.5l.7-.2.5-.5v-2.4l-.5-.5-.7-.2a1,1,0,0,0-.9.5,2.9,2.9,0,0,0-.3,1.4Zm7.4,2.7a2.4,2.4,0,0,1-1.9-.8,2.9,2.9,0,0,1-.7-2v-.2a3,3,0,0,1,.7-2,2.2,2.2,0,0,1,1.8-.8,2.1,2.1,0,0,1,1.7.7,2.8,2.8,0,0,1,.6,1.9v.7h-3.5a1.8,1.8,0,0,0,.4,1.1,1.2,1.2,0,0,0,1,.4h.9l.7-.4.4.8-.8.5Zm-.1-4.8a1,1,0,0,0-.8.4,1.8,1.8,0,0,0-.4.9h2.2a1.4,1.4,0,0,0-.3-.9A.9.9,0,0,0,435.5,456.4Zm6.5,2H439v-1h3.1Zm2.6-2.9v.8a2,2,0,0,1,.7-.7l.9-.2a1.7,1.7,0,0,1,1.4.5,2.4,2.4,0,0,1,.5,1.7v3.5H447v-3.5a1.4,1.4,0,0,0-.3-.9,1,1,0,0,0-.8-.3l-.7.2-.5.4v4.1h-1.3v-5.6Z"/><path d="M603.8,143.1l-4.5,2.8a3.2,3.2,0,0,1-1.4.5,2.2,2.2,0,0,1-1.3-.3c-.7-.4-.7-.9.1-1.4h.2l-1.1-.6h-.2c-.7.4-1,.8-1,1.3s.3.8,1.1,1.2a4.6,4.6,0,0,0,2.4.6,4.8,4.8,0,0,0,2.2-.8l4.6-2.8Zm2.5,1.4-6.7,4.1,2.6,1.4a6.8,6.8,0,0,0,3.5.9,6.7,6.7,0,0,0,3.3-1c1.1-.6,1.6-1.3,1.6-2s-.6-1.4-1.7-2Zm.2,1.1,1.3.7c.9.5,1.4,1,1.4,1.5s-.4,1-1.3,1.5a5,5,0,0,1-2.5.8,5.2,5.2,0,0,1-2.6-.7l-1.3-.7Zm7,2.9-6.7,4.1,3.3,1.8a5.8,5.8,0,0,0,2.2.7,3.5,3.5,0,0,0,2.2-.5c.5-.3.7-.6.7-.9a1.1,1.1,0,0,0-.5-.9H616a3,3,0,0,0,1.3-.4c.5-.3.7-.7.7-1.1s-.5-.8-1.2-1.2Zm.2,1.1,1.9,1.1c.5.3.8.5.8.7s-.1.4-.4.6a1.9,1.9,0,0,1-1.1.3,3.3,3.3,0,0,1-1.3-.5l-1.9-1.1Zm-2.8,1.7,2.1,1.1c.5.3.8.6.9.8s-.1.5-.5.7a2,2,0,0,1-1.3.2l-1.3-.5-2-1.1Zm12.7,2.6a2.6,2.6,0,0,1,1.5,1.5,1.5,1.5,0,0,1-.7,1.5l-1.1-.6a.9.9,0,0,0,.3-1,2,2,0,0,0-1-.9,4.2,4.2,0,0,0-2.5-.5,5.5,5.5,0,0,0-2.4.8c-.8.5-1.3,1-1.3,1.4s.3,1,1.1,1.4a4,4,0,0,0,1.7.5,4.7,4.7,0,0,0,1.9-.3l1.1.6a6.7,6.7,0,0,1-3,.5,6,6,0,0,1-2.6-.7c-1.2-.7-1.7-1.4-1.6-2.1s.6-1.3,1.7-1.9a7.1,7.1,0,0,1,3.2-1A6.4,6.4,0,0,1,623.7,154Z" style="fill:#3246ab;opacity:0.800000011920929;isolation:isolate"/></svg>