<?xml version="1.0" encoding="UTF-8"?>
<svg width="70px" height="70px" viewBox="0 0 70 70" version="1.1" xmlns="http://www.w3.org/2000/svg" xmlns:xlink="http://www.w3.org/1999/xlink">
    <title>部署工具</title>
    <defs>
        <linearGradient x1="100%" y1="27.6369704%" x2="14.4115551%" y2="82.4459877%" id="linearGradient-1">
            <stop stop-color="#FF8888" offset="0%"></stop>
            <stop stop-color="#CF0010" offset="100%"></stop>
        </linearGradient>
    </defs>
    <g id="页面-1" stroke="none" stroke-width="1" fill="none" fill-rule="evenodd">
        <g id="SDSF-产品中心（AI在线服务）" transform="translate(-517.000000, -1536.000000)">
            <g id="产品与服务备份" transform="translate(360.000000, 1405.000000)">
                <g id="编组-6备份-2" transform="translate(0.000000, 100.000000)">
                    <g id="部署工具" transform="translate(157.000000, 31.000000)">
                        <rect id="矩形" x="0" y="0" width="70" height="70"></rect>
                        <g id="编组-7" transform="translate(9.000000, 10.000000)">
                            <rect id="矩形" stroke="#FFC8C8" fill="url(#linearGradient-1)" x="9.5" y="0.5" width="35" height="28" rx="5"></rect>
                            <rect id="矩形" stroke-opacity="0.302418529" stroke="#FFC8C8" x="0.5" y="10.5" width="51" height="39" rx="5"></rect>
                            <g id="工具" transform="translate(16.000000, 20.000000)"></g>
                            <rect id="矩形" fill="#000000" fill-rule="nonzero" opacity="0" x="16" y="20" width="21" height="21"></rect>
                            <path d="M34.4989822,33.407103 L30.4535432,29.3619529 C30.7140528,28.6346429 30.8459065,27.8744055 30.8459065,27.0952907 C30.8459065,23.3734513 27.8180991,20.3453139 24.0959297,20.3453139 C23.1693227,20.3453139 22.2678032,20.5320877 21.4171602,20.9002712 L21.0147289,21.0744807 C21.0140893,21.0751203 21.0172459,21.0754297 21.0159874,21.0760487 C20.9777166,21.0927186 20.9419009,21.1168777 20.9105209,21.1482577 C20.7774087,21.2816381 20.7774087,21.4985541 20.9111811,21.6322852 C20.9130586,21.6341833 20.9092831,21.6351117 20.9105209,21.6369891 L24.6897974,25.4162862 L22.4165538,27.689179 L18.7132206,23.985557 C18.7075677,23.9861966 18.7019148,23.986506 18.6943844,23.9789757 C18.5374432,23.8220345 18.2831849,23.8220345 18.1262024,23.9789757 C18.0835372,24.0219916 18.0521159,24.071919 18.0326608,24.1252712 C18.0307833,24.1302845 18.0282664,24.1277882 18.02577,24.1280976 L17.9008277,24.4168719 C17.5329743,25.2665865 17.345891,26.1680854 17.345891,27.0953319 C17.345891,30.8168618 20.373719,33.8453139 24.0958678,33.8453139 C24.8743224,33.8453139 25.6345598,33.7134756 26.3627776,33.4529455 L30.4082372,37.4978274 C30.9544469,38.0439753 31.6808079,38.3453139 32.4536097,38.3453139 C32.4536097,38.3453139 32.4536097,38.3453139 32.4542699,38.3453139 C33.226432,38.3453139 33.9534326,38.0439753 34.4996217,37.4978274 C35.6264953,36.3702936 35.6264953,34.5352764 34.4989822,33.407103 Z M33.5905719,36.5887569 C33.2867369,36.8926125 32.8830471,37.0595804 32.4542699,37.0595804 L32.4536097,37.0595804 C32.0242135,37.0595804 31.6205444,36.8925919 31.3173283,36.5887569 L26.6648177,31.9368445 L26.2636862,32.1101256 C25.5749977,32.4083076 24.8455007,32.5595753 24.0959091,32.5595753 C21.0831624,32.5595753 18.6316451,30.1087181 18.6316451,27.0953319 C18.6316451,26.676602 18.6787254,26.2644329 18.772267,25.8626412 L22.171105,29.2621188 C22.313625,29.3757758 22.5094559,29.3773231 22.6544929,29.2693603 L26.2278705,25.6960034 C26.229129,25.6947449 26.2265914,25.6931563 26.2278705,25.6919184 C26.3735058,25.5462624 26.3779002,25.3189897 26.252958,25.1610995 L22.8629088,21.7713392 C23.2653401,21.6781276 23.6771585,21.6310473 24.0958884,21.6310473 C27.108635,21.6310473 29.560173,24.0822759 29.560173,27.0953113 C29.560173,27.845852 29.4088435,28.5749982 29.1106821,29.2624695 L28.937401,29.6635804 L33.5899323,34.3161116 C34.2164798,34.9427004 34.2164798,35.9621888 33.5905719,36.5887569 Z" id="形状" stroke="#CF0010" fill="#CF0010" fill-rule="nonzero"></path>
                        </g>
                    </g>
                </g>
            </g>
        </g>
    </g>
</svg>