<?xml version="1.0" encoding="UTF-8"?>
<svg width="60px" height="60px" viewBox="0 0 60 60" version="1.1" xmlns="http://www.w3.org/2000/svg" xmlns:xlink="http://www.w3.org/1999/xlink">
    <title>广域覆盖</title>
    <g id="页面-1" stroke="none" stroke-width="1" fill="none" fill-rule="evenodd">
        <g id="SDSF-产品中心（智能边缘云）" transform="translate(-390.000000, -725.000000)" fill-rule="nonzero">
            <g id="产品优势" transform="translate(360.000000, 625.000000)">
                <g id="编组-6" transform="translate(0.000000, 100.000000)">
                    <g id="广域覆盖" transform="translate(30.000000, 0.000000)">
                        <rect id="矩形" fill="#000000" opacity="0" x="0" y="0" width="60" height="60"></rect>
                        <g id="magnetic" transform="translate(3.000000, 4.000000)">
                            <rect id="矩形" fill="#000000" opacity="0" x="0" y="0" width="53" height="53"></rect>
                            <path d="M26.5,42.73125 C26.3895834,42.73125 26.2791666,42.73125 26.16875,42.6208334 L4.6375,27.0520834 C4.41666665,26.9416667 4.30625,26.5 4.52708335,26.2791666 C4.7479167,26.0583333 5.0791667,25.9479166 5.3,26.16875 L26.5,41.5166666 L47.7,26.16875 C47.9208334,25.9479166 48.2520834,26.0583334 48.4729166,26.2791666 C48.69375,26.5 48.5833333,26.83125 48.3625,27.0520834 L26.83125,42.6208334 C26.7208334,42.73125 26.6104166,42.73125 26.5,42.73125 Z" id="路径" stroke="#CF0010" stroke-width="2" fill="#CF0010"></path>
                            <path d="M26.5,35.3333334 C26.3895834,35.3333334 26.2791666,35.3333334 26.16875,35.2229166 L4.6375,19.54375 C4.41666665,19.4333334 4.30625,19.1020834 4.52708335,18.7708334 C4.7479167,18.55 5.0791667,18.4395834 5.3,18.6604166 L26.5,34.0083334 L47.7,18.6604166 C47.9208334,18.4395833 48.2520834,18.55 48.4729166,18.7708334 C48.69375,18.9916667 48.5833333,19.3229167 48.3625,19.54375 L26.83125,35.2229166 C26.7208334,35.2229166 26.6104166,35.3333334 26.5,35.3333334 Z" id="路径" stroke="#3C3C3C" stroke-width="2" fill="#3C3C3C"></path>
                            <path d="M48.03125,19.6541666 C47.9208334,19.6541666 47.8104166,19.6541666 47.7,19.54375 L26.5,4.19583335 L5.3,19.54375 C5.07916665,19.7645834 4.74791665,19.6541666 4.52708335,19.4333334 C4.30625,19.2125 4.4166667,18.88125 4.6375,18.6604166 L26.16875,3.09166665 C26.3895834,2.98125 26.6104166,2.98125 26.83125,3.09166665 L48.3625,18.6604166 C48.5833334,18.88125 48.69375,19.2125 48.4729166,19.4333334 C48.3625,19.6541667 48.2520833,19.6541667 48.03125,19.6541666 Z M26.5,50.01875 C26.3895834,50.01875 26.2791666,50.01875 26.16875,49.9083334 L4.6375,34.3395834 C4.41666665,34.11875 4.30625,33.7875 4.52708335,33.5666666 C4.7479167,33.3458333 5.0791667,33.2354166 5.3,33.45625 L26.5,48.8041666 L47.7,33.45625 C47.9208334,33.2354166 48.2520834,33.3458334 48.4729166,33.5666666 C48.69375,33.7875 48.5833333,34.11875 48.3625,34.3395834 L26.83125,49.9083334 C26.7208334,50.01875 26.6104166,50.01875 26.5,50.01875 Z" id="形状" stroke="#3C3C3C" stroke-width="2" fill="#3C3C3C"></path>
                        </g>
                    </g>
                </g>
            </g>
        </g>
    </g>
</svg>