<?xml version="1.0" encoding="UTF-8"?>
<svg width="60px" height="60px" viewBox="0 0 60 60" version="1.1" xmlns="http://www.w3.org/2000/svg" xmlns:xlink="http://www.w3.org/1999/xlink">
    <title>边云协同</title>
    <g id="页面-1" stroke="none" stroke-width="1" fill="none" fill-rule="evenodd">
        <g id="SDSF-产品中心（智能边缘云）" transform="translate(-1000.000000, -893.000000)" fill-rule="nonzero">
            <g id="产品优势" transform="translate(360.000000, 625.000000)">
                <g id="编组-6备份-8" transform="translate(610.000000, 268.000000)">
                    <g id="边云协同" transform="translate(30.000000, 0.000000)">
                        <rect id="矩形" fill="#000000" opacity="0" x="0" y="0" width="60" height="60"></rect>
                        <g id="POD" transform="translate(3.000000, 4.000000)">
                            <rect id="矩形" fill="#000000" opacity="0" x="0" y="0" width="53" height="53"></rect>
                            <path d="M26.5,30.0333334 C26.3895834,30.0333334 26.2791666,30.0333334 26.2791666,29.9229166 L14.3541666,24.0708334 C14.1333333,23.9604167 14.0229166,23.6291667 14.1333334,23.2979166 C14.24375,23.0770833 14.575,22.9666666 14.90625,23.0770834 L26.5,28.81875 L38.09375,22.9666666 C38.3145834,22.85625 38.6458334,22.9666666 38.8666666,23.1875 C38.9770833,23.4083334 38.8666666,23.7395834 38.6458334,23.9604166 L26.7208334,29.9229166 C26.7208334,30.0333334 26.6104167,30.0333334 26.5,30.0333334 Z" id="路径" stroke="#CF0010" stroke-width="2" fill="#CF0010"></path>
                            <path d="M26.5,44.8291666 C26.16875,44.8291666 25.9479166,44.6083333 25.9479166,44.2770834 L25.9479166,29.48125 C25.9479166,29.15 26.16875,28.9291666 26.5,28.9291666 C26.83125,28.9291666 27.0520834,29.15 27.0520834,29.48125 L27.0520834,44.2770834 C27.0520834,44.6083334 26.83125,44.8291666 26.5,44.8291666 L26.5,44.8291666 Z" id="路径" stroke="#CF0010" stroke-width="2" fill="#CF0010"></path>
                            <path d="M38.425,50.7916666 C38.3145834,50.7916666 38.2041666,50.7916666 38.2041666,50.68125 L26.5,44.9395834 L14.90625,50.7916666 L14.3541666,50.7916666 L2.53958335,45.05 C2.31875,45.05 2.20833335,44.8291666 2.20833335,44.6083334 L2.20833335,29.48125 C2.20833335,29.2604166 2.31875,29.0395834 2.53958335,29.0395834 L14.1333334,23.1875 L14.1333334,8.72291665 C14.1333334,8.5020833 14.24375,8.28125 14.4645834,8.28125 L26.3895834,2.31875 C26.5,2.20833335 26.7208334,2.20833335 26.83125,2.31875 L38.6458334,8.17083335 C38.8666667,8.28125 38.9770834,8.50208335 38.9770834,8.6125 L38.9770834,23.1875 L50.5708334,28.9291666 C50.7916667,29.0395833 50.9020834,29.2604166 50.9020834,29.3708334 L50.9020834,44.4979166 C50.9020834,44.71875 50.7916667,44.9395833 50.5708334,45.05 L38.6458334,50.7916666 L38.425,50.7916666 Z M26.5,43.725 C26.6104166,43.725 26.7208334,43.725 26.7208334,43.8354166 L38.3145834,49.6875 L49.6875,44.2770834 L49.6875,29.8125 L38.09375,24.0708334 C37.8729166,23.9604167 37.7625,23.7395834 37.7625,23.6291666 L37.7625,9.05416665 L26.5,3.42291665 L15.2375,9.05416665 L15.2375,23.51875 C15.2375,23.7395834 15.1270834,23.9604166 14.90625,23.9604166 L3.3125,29.8125 L3.3125,44.2770834 L14.575,49.6875 L26.16875,43.8354166 C26.2791666,43.725 26.3895834,43.725 26.5,43.725 Z" id="形状" stroke="#3C3C3C" stroke-width="2" fill="#3C3C3C"></path>
                        </g>
                    </g>
                </g>
            </g>
        </g>
    </g>
</svg>